<svg xmlns="http://www.w3.org/2000/svg" width="1085" height="285.5" viewBox="0 0 1085 285.5"><defs><style>.a{fill:#fff;}.b{fill:#f6f6f6;}.c,.e{fill:none;}.c{stroke:#c2c2c2;}.d{stroke:none;}</style></defs><g transform="translate(-115 -5057)"><rect class="a" width="136" height="94" transform="translate(115 5154)"/><rect class="a" width="198" height="94" transform="translate(252 5154)"/><rect class="a" width="209" height="94" transform="translate(451 5154)"/><rect class="a" width="178" height="94" transform="translate(661 5154)"/><rect class="a" width="180" height="94" transform="translate(839 5154)"/><rect class="a" width="180" height="94" transform="translate(1019 5154)"/><rect class="a" width="198" height="94" transform="translate(252 5248)"/><rect class="a" width="209" height="94" transform="translate(451 5248)"/><rect class="a" width="178" height="94" transform="translate(661 5248)"/><rect class="a" width="180" height="94" transform="translate(839 5248)"/><rect class="a" width="180" height="94" transform="translate(1019 5248)"/><path class="a" d="M0,0H136a0,0,0,0,1,0,0V94a0,0,0,0,1,0,0H10A10,10,0,0,1,0,84V0A0,0,0,0,1,0,0Z" transform="translate(115 5248)"/><path class="b" d="M10,0H137a0,0,0,0,1,0,0V97a0,0,0,0,1,0,0H0a0,0,0,0,1,0,0V10A10,10,0,0,1,10,0Z" transform="translate(115 5057)"/><rect class="b" width="198" height="96" transform="translate(252 5058)"/><rect class="b" width="209" height="96" transform="translate(451 5058)"/><rect class="b" width="178" height="49" transform="translate(661 5105)"/><path class="b" d="M0,0H530a10,10,0,0,1,10,10V48a0,0,0,0,1,0,0H0a0,0,0,0,1,0,0V0A0,0,0,0,1,0,0Z" transform="translate(660 5057)"/><rect class="b" width="180" height="49" transform="translate(839 5105)"/><rect class="b" width="180" height="49" transform="translate(1019 5105)"/><line class="c" y2="97" transform="translate(251.5 5057.5)"/><line class="c" y2="190.523" transform="translate(251.5 5151.977)"/><line class="c" y2="283.5" transform="translate(450.5 5058)"/><line class="c" x2="539" transform="translate(661 5105)"/><line class="c" x2="1085" transform="translate(115 5248)"/><line class="c" y2="237" transform="translate(839 5105)"/><path class="c" d="M0,0V284.179" transform="translate(660.5 5057.5)"/><line class="c" y2="236" transform="translate(1019 5105)"/><g class="c" transform="translate(115 5057)"><rect class="d" width="1085" height="285" rx="10"/><rect class="e" x="0.5" y="0.5" width="1084" height="284" rx="9.5"/></g></g></svg>