<svg xmlns="http://www.w3.org/2000/svg" width="48" height="48" viewBox="0 0 48 48"><defs><style>.a{fill:#f18f20;stroke:#f18f20;}.b{fill:#fff;}.c{stroke:none;}.d{fill:none;}</style></defs><g transform="translate(-0.244)"><g class="a" transform="translate(0.244)"><circle class="c" cx="24" cy="24" r="24"/><circle class="d" cx="24" cy="24" r="23.5"/></g><g transform="translate(11.254 11.949)"><g transform="translate(4.7 4.7)"><path class="b" d="M106.184,96h-9.4a.783.783,0,0,0,0,1.567h9.4a.783.783,0,1,0,0-1.567Z" transform="translate(-96 -96)"/></g><g transform="translate(4.7 7.834)"><path class="b" d="M103.05,160H96.783a.783.783,0,0,0,0,1.567h6.267a.783.783,0,1,0,0-1.567Z" transform="translate(-96 -160)"/></g><path class="b" d="M17.234,0H3.134A3.137,3.137,0,0,0,0,3.134V18.8a.783.783,0,0,0,.451.71.8.8,0,0,0,.332.074.783.783,0,0,0,.5-.182l4.483-3.735H17.234a3.137,3.137,0,0,0,3.134-3.134v-9.4A3.137,3.137,0,0,0,17.234,0ZM18.8,12.534A1.568,1.568,0,0,1,17.234,14.1H5.484a.782.782,0,0,0-.5.182L1.567,17.13v-14A1.568,1.568,0,0,1,3.134,1.567h14.1A1.568,1.568,0,0,1,18.8,3.134Z"/><g transform="translate(6.267 6.267)"><path class="b" d="M143.668,128a.783.783,0,1,0,0,1.567,1.568,1.568,0,0,1,1.567,1.567v13.253l-2.645-2.115a.789.789,0,0,0-.489-.171H131.134a1.568,1.568,0,0,1-1.567-1.567v-.783a.783.783,0,0,0-1.567,0v.783a3.137,3.137,0,0,0,3.134,3.134h10.692l3.7,2.963a.784.784,0,0,0,1.274-.613V131.134A3.137,3.137,0,0,0,143.668,128Z" transform="translate(-128 -128)"/></g></g></g></svg>