<svg xmlns="http://www.w3.org/2000/svg" width="71" height="70.999" viewBox="0 0 71 70.999"><defs><style>.a{fill:#f18f20;}</style></defs><path class="a" d="M35.5,71A35.509,35.509,0,0,1,21.682,2.79,35.509,35.509,0,0,1,49.318,68.21,35.28,35.28,0,0,1,35.5,71ZM32.671,53.848a2.151,2.151,0,0,0,0,4.3h5.738a2.151,2.151,0,1,0,0-4.3Zm2.51-40.2a2.986,2.986,0,0,0-2.535,1.4L23.393,29.667a3,3,0,0,0,2.534,4.6h4.787a2.972,2.972,0,0,0-.194,1.064V48.7a3,3,0,0,0,3,3h4.04a3,3,0,0,0,3-3V35.335a2.973,2.973,0,0,0-.194-1.064h4.069a3,3,0,0,0,2.535-4.6L37.716,15.043A2.986,2.986,0,0,0,35.181,13.648Z"/></svg>