<svg xmlns="http://www.w3.org/2000/svg" width="28.872" height="23.449" viewBox="0 0 28.872 23.449"><defs><style>.a{fill:#03a9f4;}</style></defs><path class="a" d="M25.9,9.225c.018.256.018.513.018.769,0,7.823-5.954,16.836-16.836,16.836A16.722,16.722,0,0,1,0,24.174a12.241,12.241,0,0,0,1.429.073,11.851,11.851,0,0,0,7.346-2.528,5.928,5.928,0,0,1-5.533-4.1,7.462,7.462,0,0,0,1.118.092,6.258,6.258,0,0,0,1.557-.2A5.918,5.918,0,0,1,1.172,11.7v-.073a5.959,5.959,0,0,0,2.675.751A5.926,5.926,0,0,1,2.015,4.462a16.82,16.82,0,0,0,12.2,6.192A6.68,6.68,0,0,1,14.07,9.3,5.923,5.923,0,0,1,24.31,5.249,11.65,11.65,0,0,0,28.066,3.82a5.9,5.9,0,0,1-2.6,3.261,11.862,11.862,0,0,0,3.407-.916A12.72,12.72,0,0,1,25.9,9.225Z" transform="translate(0 -3.381)"/></svg>