<svg xmlns="http://www.w3.org/2000/svg" width="304.734" height="412.852" viewBox="0 0 304.734 412.852"><defs><style>.a{fill:#c2c2c2;}.a,.c,.e,.h{stroke:#fff;}.a,.b,.c,.e,.g{stroke-miterlimit:10;}.b,.g{fill:#ffef90;stroke:#ff7c52;}.b{opacity:0.58;}.c{fill:#dbd7d7;}.d{fill:#c95511;opacity:0;}.e,.h{fill:#9b9b9b;}.f{fill:#ff6520;}</style></defs><g transform="translate(-1294.153 -4283.112)"><path class="a" d="M389.24,77.747c-.454-5.878,1.921-3.73,2.6-4.522s3.846-1.921,3.846-1.921c.222-2.374,1.8-3.166,3.725-3.957a29.615,29.615,0,0,0,5.086-3.335V61.9a1.055,1.055,0,0,0-.992-1.055l-1.541-.069a1.425,1.425,0,0,1-1.356-1.335l-.1-1.657A1.614,1.614,0,0,1,401.56,56.1a.528.528,0,0,0,0-.966,9.884,9.884,0,0,0-3.8-.686l-.338-1.694-1.609-.169-.617-1.14a.317.317,0,0,0-.591.116l-.406,3.9-2.575.459a.934.934,0,0,0-.765.871l-.047,1.055a1.827,1.827,0,0,1-2.57-.834,2.01,2.01,0,0,0-1.583-.96l-2.707-.232a1.351,1.351,0,0,0-1.33.976l-.232.86a.66.66,0,0,1-.76.48l-1.261-.227-1.171-1.229a.67.67,0,0,0-1.055.1,2.158,2.158,0,0,0-.269,2.316c.849,1.44,2.638,2.454.084,2.538s-4.912.528-6.78-.169-2.459-3.387-2.459-3.387-1.055-3.62-4.464-3.05-4.284,7.709-4.284,7.709l-4.406.491a4.279,4.279,0,0,1-4.073.612c-2.485-.791-4.406-3.614-6.442-3.5s-3.387.338-3.841,1.921-1.245.908-1.81-.338-2.6-1.583-5.651-1.583-1.129,2.147-4.406,1.245-2.258.2-3.166,1.62-.791,2.221-4.068,2.332-2.374,2.374-2.374,2.374l.839,2.026a1.546,1.546,0,0,1-.084,1.361L318.6,74.581l-.565,7.118-4.179,3.5v1.873a.528.528,0,0,1-.918.4,4.749,4.749,0,0,0-1.514-1.055.528.528,0,0,0-.733.528v2.971a.528.528,0,0,1-.253.459l-1.583.992a1.461,1.461,0,0,0-.67,1.229V94.5H304a17.764,17.764,0,0,1,1.224,9.128,1.767,1.767,0,0,0,.459,1.372l2.3,2.543a1.425,1.425,0,0,1,.369.955v2.781a.554.554,0,0,0,.786.528l2.928-1.356a1.525,1.525,0,0,1,1.361.042l4.648,2.5a2.4,2.4,0,0,1,1.2,2.675l-.586,2.438-.343,2.881,5.276.849s6.78-8.817,9.323-16.953,5.424-13.719,8.817-14.072,5.086,1.53,5.762-.528,1.44-.253,3.393-2.111,5.276-4.153,12.035-2.111l.084-3.308,3.393-1.525.76,1.525,1.525.259v2.031l2.111.681,2.374,2.454,2.8-1.272s.844,1.7-.934,3.815-.422,4.068.422,3.308,1.868-2.638,3.73-2.8,1.1-1.356,1.694-5.086,1.53-3.815.174-5.086,1.013-3.3.929-5.276,1.018-1.525,2.206-1.187S389.24,77.747,389.24,77.747Z" transform="translate(1150.794 4259.153)"/><path class="a" d="M338.356,142.425h0s6.785-8.827,9.329-16.964,5.429-13.719,8.817-14.072,5.092,1.525,5.767-.528,1.446-.253,3.393-2.111,5.276-4.153,12.041-2.111l.084-3.308h0l3.387-1.525h0l.765,1.525h0l1.525.253h0v2.031h0l2.111.675h0l2.374,2.459h0l2.8-1.272h0s.839,1.71-.929,3.82-.427,4.068.422,3.3,1.863-2.638,3.73-2.8,1.1-1.356,1.694-5.086,1.53-3.82.174-5.092,1.013-3.3.929-5.276,1.018-1.525,2.206-1.187,5,3.166,5,3.166h0a12.136,12.136,0,0,0,4.184,1.921c2.828.791,2.147,2.828,3.166,3.277s1.583-1.356,4.411.681.681,2.712.681,2.712h0s.786,2.147.222,2.712-3.277.343-4.068,1.134-3.05,0-3.055,0h0s.116,2.147-.675,2.712a6.2,6.2,0,0,1,1.694,4.284h4.511a13.618,13.618,0,0,1,.792,3.957h0l2.818.681h0l-2.6,2.031h0s2.258,4.184,1.018,5.313h0a4.836,4.836,0,0,0-4.976,2.939,25.612,25.612,0,0,0-1.467,4.184,9.451,9.451,0,0,0-7.181-1.926c-3.984.76-5.6.681-9.244-2.965-3.366-3.366-7.023-3.915-12.774-3.308a1.752,1.752,0,0,0-1.583,1.636l-.332,5.487h0s-2.311,1.926.058,2.828,3.5.227,3.108,1.356-1.725,2.264-1.81,6.332-2.179,2.543-2.4,3.477.2,1.868,3.841,3.224-3.841,4.58-3.841,4.58a6.943,6.943,0,0,1-4.807,1.272c-2.717-.343-1.662,1.5-3.509,1.5s-.454-2.111-1.161-2.374-2.738,1.1-3.693.675-.169-3.387-4.158-2.543-3.477,4.58-7.292,4.833a54.11,54.11,0,0,0-9.244,1.53c-1.609.422-3.9,1.947-4.575,1.272s1.44-7.123,1.44-7.123,2.29-3.989.934-5-2.374,2.285-3.477,1.863-.945-1.293-3.6-1.277a.179.179,0,0,1-.169-.259c.364-.733,1.272-2.839.375-3.8,0,0,1.018-2.037,2.459-2.037S338.361,142.425,338.356,142.425Z" transform="translate(1136.081 4238.565)"/><path class="a" d="M254.453,148.7l-.116-.38a.528.528,0,0,0-.8-.317l-1.335.77a.528.528,0,0,1-.454.047l-1.293-.433a.554.554,0,0,0-.691.332l-1.082,2.891a.528.528,0,0,1-.491.359l-.781.032a1.683,1.683,0,0,1-1.72-1.324l-.528-2.5a.57.57,0,0,0-.348-.4l-2.369-.86a.348.348,0,0,0-.422.169l-.47.971a1.161,1.161,0,0,1-.987.649h0a1.156,1.156,0,0,1-1.119-1.583l.206-.5a.338.338,0,0,0-.185-.443l-2.38-.95a.332.332,0,0,1-.185-.185l-.781-1.852a.332.332,0,0,0-.248-.2l-3.044-.607a.338.338,0,0,0-.3.084l-.95.892a.332.332,0,0,1-.528-.053l-2.58-3.641a.285.285,0,0,1-.037-.069l-1.055-2.612a.343.343,0,0,0-.528-.142l-.612.464a1.214,1.214,0,0,1-1.583-.111l-3.482-3.482a.528.528,0,0,1-.116-.169l-1.741-4.152a.528.528,0,0,0-.491-.322H216.8a.528.528,0,0,1-.475-.29l-.638-1.245a.528.528,0,0,0-.691-.243l-1.646.749a.528.528,0,0,1-.638-.153l-2.021-2.575a.528.528,0,0,0-.528-.19l-2.184.5a.528.528,0,0,1-.575-.264,2.533,2.533,0,0,0-2.39-1.177.528.528,0,0,0-.332.934c1.736,1.583,1.583,3.039,1.409,3.646a.527.527,0,0,0,.169.528c1.762,1.535,1.836,1.826,1.187,6.026-.675,4.406-3.166,2.823-4.633,2.712s-.681,2.6-1.245,4.976-4.073,2.147-4.073,2.147c-.791,6.559-.9,5.424-2.148,5.994s-4.633-1.472-5.989-2.49-9.951-2.828-11.872-1.863a11.912,11.912,0,0,1-4.865.844s-2.485-1.129-1.129-4.031,5.2-2.074,5.2-2.074l1.8-2.6,4.638-4.295.57-7s-1.245-.111-1.467-.675-2.153-5.656-2.153-5.656c.681-8.252,3.055-9.044,3.055-9.044,4.638-1.921,4.068,1.472,5.994.454a4.41,4.41,0,0,1,3.166-.681c.681,0,1.921-.9,2.031-4.311s2.6-1.34,2.153-4.844.222-4.527,3.841-5.883,6.332-1.129,4.976,1.187.454,3.335.9,3,.908-3.841,2.374-1.356,4.3,3.846,3.736,3.166,0-2.828,0-2.828c1.583-3.5,4.406-1.921,6.9,1.356s4.406,2.6,4.406,2.6c8.141.908,5.54,6.559,5.54,6.559,4.865,1.583,12.1,4.976,12.1,4.976a17.8,17.8,0,0,1,1.229,9.128,1.762,1.762,0,0,0,.454,1.377l2.3,2.543a1.414,1.414,0,0,1,.369.955v2.823a.554.554,0,0,0,.786.528l2.934-1.356a1.525,1.525,0,0,1,1.361.042l4.654,2.5a2.4,2.4,0,0,1,1.2,2.675l-.586,2.443-.338,2.881,5.276.85s1.087,3.5-.338,3.73-1.868,1.134-2.459,2.037l-3.029.3A.528.528,0,0,1,254.453,148.7Z" transform="translate(1213.579 4237.95)"/><path class="a" d="M429.893,174.055h.253s-.338,1.551,1.952,1.636,3.139-2.543,3.139-2.543c2.881-.591.528,2.459.528,2.459-4.58,4.327-7.292,13.233-7.714,12.975s-2.374-1.272-2.543-.591,0,.169,0,.865a6.149,6.149,0,0,0,1.1,2.269c.253.422-1.187,4.073-1.187,4.073-.253-.934-1.694-2.638-2.712-2.29s-2.459,4.5-3.957,3.73-.96-2.881-.454-3.224,1.952-.591.934-1.947-3.25.876-3.3.929c-.7,3-2.253,2.3-3.029,2.548a1.324,1.324,0,0,1-1.81-.934c-.322-1.493,2.111-1.525,2.886-2.037s1.44-1.018.591-2.206-2.543,1.187-3.393,2.638-.675-.174-.675-.174c.591-3.815-1.783-3.815-2.037-2.8s1.525,3.562.681,5.276-.765,3.055.422,3.82a1.7,1.7,0,0,0,2.438-.681.48.48,0,0,0,.042-.354c-.559-1.868.591-2.153,1.451-2.19,1.24-.058,4.464,1.609,3.788,3.73s-1.53-.169-1.53-.169c-1.694-1.952-1.382.528-1.382.528a1.31,1.31,0,0,0-1.055,1.5c2.111,3.166.4,4.437.4,4.437s0,.084-.849.681-2.374,2.374-3.815.591-2.459-2.374-3.73-2.374-2.638-.844-4.664-2.111-4.5-1.187-3.224,1.272,0,2.881,0,2.881c-.849-.169-2.037-.084-2.712,1.868a2.111,2.111,0,0,0,.807,2.4.612.612,0,0,1-.037.934c-.707.6-.264,1.926-.264,1.926,2.037,4.664,1.44,5.767,0,5.086s-2.374-2.543-4.153-.844a13.482,13.482,0,0,1-5.756,3.134c-1.177.169-.945-.76-3.488-.929s-3.815,3.3-5.851,3.73-4.918.253-6.1-1.7-3.73-1.1-2.111-.084.765,1.694.765,1.7a3.63,3.63,0,0,1-3.314-.343,1.44,1.44,0,0,0-1.926.237,2.274,2.274,0,0,1-1.889.781c-4.221.681-4.068,2.111-4.659,3.73a2.665,2.665,0,0,1-4.073,1.272c-1.44-1.1-3.815-2.881-3.815-2.881.528-3.055-1.171-3.224-1.171-3.224-2.364-2.031-.781-2.638-.1-5.424s-2.29-2.111-4.664-1.615a11.818,11.818,0,0,1-3.366.216.944.944,0,0,0-1.013.86c-.243,2.828-1.219,1.641-1.219,1.641-.675-1.356-3.815-7.719-.591-9.666s2.638-4.158,2.8-5.276-4.29-1.018-4.29-1.018c.712-2.111,1.108-2.206,3.867-2.459s3.393-2.248,2.417-3.092-1.4-3.351-1.4-3.351l.612.164c.992-.074,2.691-1.1,3.963-1.435a54.113,54.113,0,0,1,9.244-1.53c3.815-.253,3.308-3.984,7.292-4.833s3.224,2.111,4.158,2.543,2.965-.929,3.693-.675-.728,2.3,1.119,2.3.765-1.868,3.562-1.525a6.944,6.944,0,0,0,4.807-1.272s7.487-3.224,3.841-4.58-4.068-2.29-3.841-3.224,2.316.591,2.4-3.477,1.414-5.2,1.81-6.332-.733-.454-3.108-1.356-.058-2.828-.058-2.828l.385-6.358a.728.728,0,0,1,.633-.67c6.258-.749,10.115-.322,13.65,3.213,3.646,3.646,5.276,3.73,9.244,2.965A9.458,9.458,0,0,1,410.7,166.9h0a2.638,2.638,0,0,0,2.712.675c1.81-.449,3.166.327,4.068.111s3.435-2.6,5.392-.559,2.5,6.828,7.018,6.9" transform="translate(1136.042 4208.517)"/><g transform="translate(1401.058 4362.173)"><path class="a" d="M268.162,201.887a8.009,8.009,0,0,1-7.039.427,20.87,20.87,0,0,1-4.221-3.651h0a1.994,1.994,0,0,0-2.074.913c-.369.6-.834,1.377-1.293,2.227a10.458,10.458,0,0,1-3.118,2.955.354.354,0,0,1-.528-.464L252,200.362l.047-1.055a1.5,1.5,0,0,1,.776-1.245h0a1.425,1.425,0,0,0,.718-1.472h0a1.488,1.488,0,0,0-1.868-1.2l-.111.032a.791.791,0,0,1-.966-.528h0a1.25,1.25,0,0,0-2.111-.485l-.559.623a.981.981,0,0,1-.8.317h0a.981.981,0,0,1-.839-.638l-.311-.876a1.055,1.055,0,0,0-.934-.691h0a1.055,1.055,0,0,1-.992-.96v-.158a1.055,1.055,0,0,0-1.055-.96c-1.388,0-3.973.048-5.8.164-2.638.169-7.55,2.712-10.347,3.139s-3.73,2.881-5.171,1.863-3.166-1.525-6.532-1.778-6.7.422-7.387-1.187-5.6-1.44-5.6-1.44c1.187-7.123,4.918-8.569,5.767-10.6.665-1.583-2.111-5.276-3.3-6.754a.112.112,0,0,1,.148-.169c1.583,1.055,4.221,2.485,5.276,2.005,1.245-.57,1.356.565,2.147-5.994,0,0,3.509.227,4.073-2.147s-.227-5.092,1.245-4.976,3.957,1.694,4.633-2.712c.644-4.221.575-4.485-1.187-6.026a.528.528,0,0,1-.169-.528c.174-.612.322-2.058-1.409-3.641a.528.528,0,0,1,.348-.934,2.517,2.517,0,0,1,2.374,1.177.528.528,0,0,0,.575.264l2.195-.528a.528.528,0,0,1,.528.19l2.021,2.575a.528.528,0,0,0,.638.153l1.646-.749a.528.528,0,0,1,.691.243l.638,1.245a.528.528,0,0,0,.475.29h2.037a.528.528,0,0,1,.491.322l1.741,4.152.116.169,3.482,3.482a1.214,1.214,0,0,0,1.583.111l.612-.464a.343.343,0,0,1,.528.148l1.055,2.607.037.069,2.58,3.641a.332.332,0,0,0,.528.053l.95-.892a.338.338,0,0,1,.3-.084l3.044.607a.332.332,0,0,1,.248.2l.781,1.852a.332.332,0,0,0,.185.185l2.38.95a.338.338,0,0,1,.185.443l-.179.438a1.156,1.156,0,0,0,2.079,1l.47-.971a.348.348,0,0,1,.422-.169l2.316.844a.57.57,0,0,1,.348.4l.528,2.5a1.683,1.683,0,0,0,1.72,1.324l.781-.032a.528.528,0,0,0,.491-.359l1.082-2.891a.554.554,0,0,1,.691-.332l1.324.443a.528.528,0,0,0,.454-.047l1.335-.77a.528.528,0,0,1,.8.311l.116.385a.528.528,0,0,0,.58.385l3.029-.3c.908.976-.026,3.1-.385,3.825a.169.169,0,0,0,.158.237c2.675,0,2.554.865,3.62,1.277s2.111-2.881,3.477-1.863-.934,5-.934,5-2.111,6.442-1.44,7.123h0s.422,2.5,1.4,3.351.338,2.839-2.417,3.092c-1.583.148-2.443.174-2.918.686-1.382,1.493,1.52,1.963.612,1.815C271.813,198.109,270.2,200.531,268.162,201.887Z" transform="translate(-202.16 -149.339)"/></g><path class="a" d="M284.695,262.188c-1.272.084-4.411,2.031-2.459,3.219s3.224,4.073,1.187,4.749-3.73-2.712-6.617-3.815c-2.184-.834-4.374.96-5.3,1.878a1.287,1.287,0,0,0-.359,1.124l.406,2.512-1.256,2.385a.96.96,0,0,1-.818.528l-.9.037a1.134,1.134,0,0,0-.971.628l-.3.6a1.625,1.625,0,0,1-1.055.849l-1,.253a.739.739,0,0,1-.913-.765l.1-1.367a3.056,3.056,0,0,0-2.812-3.06.675.675,0,0,1-.6-.813l.127-.67a.491.491,0,0,0-.575-.575l-1.488.285c-2.712.343-3.562-2.965-3.9-4.833s3.139-3.308,2.971-4.58-.765-4.068-4.923-4.152a5.892,5.892,0,0,0-4.87,1.857.449.449,0,0,1-.755-.116c-.67-1.514-2.111-3.166-3.693-1.583-1.868,1.868-2.206.681-4.158,1.1s-.253,1.525-4.327,1.272-5.424.849-7.387,2.037-4.411-.85-6.189.084-.338,3.984-1.018,4.5-3.05.253-3.139,1.1a2.533,2.533,0,0,1-2.285,2.037c-1.277.084-3.9-1.915-3.9-1.915l-.227-1.2a.739.739,0,0,0-1.361-.243l-.686,1.134a.628.628,0,0,1-.528.306h0a.628.628,0,0,1-.612-.475l-.116-.443a.733.733,0,0,0-1.393-.106,4.076,4.076,0,0,1-.237.48c-.681,1.1-1.525.422-3.815-1.1s.253-2.638.253-2.638a7.1,7.1,0,0,1,2.037-5,8.4,8.4,0,0,1-.121-3.852.528.528,0,0,0-.728-.528c-1.778.886-5.234,1.583-3.562-4.532,2.111-7.714,1.018-9.5-.084-9.329s-4.664-.169-2.543-2.2,1.947-8.141,1.947-8.141,4.918-.169,5.6,1.44,3.984.934,7.387,1.187,5.092.765,6.532,1.778,2.374-1.44,5.171-1.863,7.719-2.971,10.347-3.139c1.836-.116,4.422-.153,5.8-.164a1.055,1.055,0,0,1,1.055.96v.2a1.055,1.055,0,0,0,1.013.923,1.055,1.055,0,0,1,.908.691l.311.876a.971.971,0,0,0,1.636.322l.559-.623a1.251,1.251,0,0,1,2.111.47.776.776,0,0,0,.939.559h.058a1.551,1.551,0,0,1,1.836.8,1.425,1.425,0,0,1-.6,1.847,1.5,1.5,0,0,0-.776,1.245l-.047,1.055-2.111,3.931a.354.354,0,0,0,.528.464,10.215,10.215,0,0,0,3.118-2.955c.464-.85.923-1.63,1.293-2.227a1.994,1.994,0,0,1,2.074-.913h0a21.7,21.7,0,0,0,4.221,3.651,8,8,0,0,0,7.039-.427c2.037-1.356,3.651-3.778,5.751-3.435a.73.73,0,0,0,.137,0c1.24.09,2.691.327,2.591.966-.169,1.1.422,3.308-2.8,5.276s-.084,8.31.591,9.666c0,0,.96,1.166,1.214-1.583a1.055,1.055,0,0,1,1.1-.934,11.607,11.607,0,0,0,3.282-.222c2.374-.528,5.34-1.187,4.664,1.615-.66,2.717-2.179,3.356-.09,5.276a1.094,1.094,0,0,0,.375.211c.39.142,1.229.665,1.055,2.606a1.055,1.055,0,0,0,.406.929l3.335,2.522Z" transform="translate(1201.276 4175.518)"/><path class="a" d="M148.218,267.99c-.448,1.921.227,2.49,4.184,7.012s5.883,5.2,8.368,7.123.338,6.1.338,6.1c2.49,1.694,1.134,4.86,1.134,4.86.58,2.833,2.512,3.166,3.488,3.118a.264.264,0,0,1,.206.427c-2.242,2.775-4.374,2.675-4.374,2.675-4.86-4.522-7.123-.681-7.8-2.374s-4.749-2.148-4.749-2.148a7.727,7.727,0,0,0-7.128-2.374c-3.166,1.583-8.928,2.031-11.756.565s-4.295-.681-4.295-.681c3.957-5.424-.454-7.123-.454-7.123.9-2.031.111-4.295-1.472-5.989s-1.24-.57-1.356,1.467-5.2,2.6-4.522-1.467-2.828-1.356-2.828-1.356c-3.614-4.406-6.332,0-6.332,0l-1.129-1.361c-4.749-8.141-8.6-2.712-8.6-2.712-.565-1.129-3.277-.565-4.179-1.018-.185-.164-.4-.158-.369-.918a5.017,5.017,0,0,1,.48-1.683c2.264-1.24,1.694-1.694,1.129-3.614s1.7-2.037.791-5.656-11.418-4.775-11.418-4.775c-.976-3.73.338-8.442.338-8.442,2.374-8.97,8.6-6.664,8.6-6.664a3.115,3.115,0,0,1,4.749-1.018c5.656,7.672,5.894,5.187,5.894,5.187,0-3.957,4.638-3.166,4.638-3.166,6.216,0,4.86-2.264,7.234-2.037s2.6,3.393,4.411,3.393,3.5-1.926,5.313-.528,3.846.179,3.778-5.018,1.873-4.411,1.873-4.411a2.929,2.929,0,0,1,3.736-2.939c1.583.565,10.737-.649,10.737-.649h0s.169,6.1-1.947,8.141,1.44,2.374,2.543,2.2,2.206,1.615.084,9.329c-1.678,6.1,1.783,5.419,3.562,4.532a.528.528,0,0,1,.728.528,8.423,8.423,0,0,0,.121,3.857,7.073,7.073,0,0,0-2.037,5s-1.947.844-.9,2.079A11.216,11.216,0,0,0,148.218,267.99Z" transform="translate(1254.139 4174.828)"/><path class="a" d="M260.07,299.092c1.952-.084,1.615,2.206.849,2.913s-1.694,7.091-4.411,9.466a20.207,20.207,0,0,0-4.221,5.387c.886,6.442-.259,5.72-.259,5.72-.96-2.2-4.295-3.05-4.295-3.05-2.939-2.374-3.5-1.356-3.5-1.356.127,3.519-.765,2.417-.765,2.417-4.068-1.4-3.435.528-3.435.528,1.229,3.773-.844,2.928-.844,2.928-2.5-5.092-6.685-5.2-8.379-5.007a3.439,3.439,0,0,1-1.483-.153,7.424,7.424,0,0,0-7.271,1.52c-.976.032-2.907-.285-3.488-3.118,0,0,1.356-3.166-1.134-4.86,0,0,2.148-4.184-.338-6.1s-4.411-2.6-8.368-7.123-4.633-5.092-4.184-7.012a11.213,11.213,0,0,1,.8-2.527,3,3,0,0,0,.649.528c2.29,1.525,3.134,2.206,3.815,1.1a4.064,4.064,0,0,0,.237-.48.733.733,0,0,1,1.393.106l.116.443a.628.628,0,0,0,1.15.169l.686-1.134a.739.739,0,0,1,1.361.243l.227,1.2s2.638,2,3.9,1.915a2.533,2.533,0,0,0,2.285-2.037c.09-.844,2.464-.591,3.139-1.1s-.765-3.562,1.018-4.5,4.221,1.1,6.189-.084,3.308-2.29,7.387-2.037,2.374-.849,4.327-1.272,2.29.765,4.158-1.1c1.583-1.583,3.029.058,3.693,1.583a.448.448,0,0,0,.754.116,5.908,5.908,0,0,1,4.87-1.857c4.158.084,4.749,2.881,4.923,4.152s-3.308,2.717-2.971,4.58,1.187,5.176,3.9,4.833A6.676,6.676,0,0,1,260.07,299.092Z" transform="translate(1197.829 4150.653)"/><path class="b" d="M478,174.28Z" transform="translate(1068.602 4201.053)"/><path class="b" d="M467.59,170.57Z" transform="translate(1073.521 4202.806)"/><path class="b" d="M417.53,174.93Z" transform="translate(1097.165 4200.746)"/><path class="b" d="M409.48,216.23Z" transform="translate(1100.969 4181.237)"/><path class="b" d="M429.14,158.53Z" transform="translate(1091.682 4208.493)"/><path class="c" d="M353.656,292.32l-2.712.09c-1.272.084-4.411,2.031-2.459,3.219s3.224,4.073,1.187,4.749-3.73-2.712-6.617-3.815c-2.184-.834-4.374.96-5.3,1.878a1.287,1.287,0,0,0-.359,1.124l.406,2.512.48.2c1.921-.169,2.485.454,2.485.454-.449.792-2.374,1.694-2.823,2.432s-.058,1.836,3.081,1.5,4.575,1.947,2.712,4.153-.253,3.815-2.037,5.086a4.147,4.147,0,0,0-1.863,2.886c.084,3.815,4.042,9.329,4.042,9.329s-.343-3.562.448-4.807,4.638-2.037,5.092.338,2.258,2.543,3.219,1.245,2.264-1.129,6.617-1.055S364,327.281,364,327.281c.528-4.158,3.561-2.459,4.221-3.984s-.327-3.139.528-3.9-.681-1.863-.528-3.588,2.374.2,2.548-.48-.6-1.783.929-2.638.849-1.783.849-1.783c-1.187-2.712,1.356-1.018,1.187-2.8s-.765-1.868.6-2.459c1.018-.448,1.367-2.11,1.477-2.928a.2.2,0,0,1,.285-.153l.095.037a.465.465,0,0,1-.332-.322c-.227-.9-4.522-1.467-6.559-1.694s-6.9.675-8.368-.565-7.292-7.693-7.292-7.693" transform="translate(1135.027 4145.295)"/><path class="b" d="M457.54,326.27c-.074.454-.169,1.008-.29,1.625C457.371,327.278,457.466,326.724,457.54,326.27Z" transform="translate(1078.402 4129.258)"/><path class="b" d="M457.02,329.59c-.063.3-.127.612-.2.929C456.915,330.2,456.957,329.891,457.02,329.59Z" transform="translate(1078.608 4127.69)"/><path class="b" d="M416.281,311.41h0Z" transform="translate(1097.812 4136.278)"/><path class="b" d="M417.431,311.25h0Z" transform="translate(1097.264 4136.354)"/><path class="b" d="M416.891,311.32h0Z" transform="translate(1097.526 4136.321)"/><path class="b" d="M411.07,311.82a1.192,1.192,0,0,0,.206.042,1.186,1.186,0,0,1-.206-.042Z" transform="translate(1100.216 4136.084)"/><path class="b" d="M411.52,311.91h0Z" transform="translate(1100.006 4136.042)"/><path class="b" d="M412.08,311.94Z" transform="translate(1099.741 4136.027)"/><path class="b" d="M413.18,311.88h0Z" transform="translate(1099.219 4136.056)"/><path class="b" d="M412.62,311.93h0Z" transform="translate(1099.486 4136.033)"/><path class="b" d="M414.37,311.683l.322-.053Z" transform="translate(1098.657 4136.174)"/><path class="b" d="M413.77,311.782l.227-.032Z" transform="translate(1098.942 4136.117)"/><path class="b" d="M415.447,311.51l-.327.053Z" transform="translate(1098.302 4136.231)"/><path class="b" d="M417.87,311.21Z" transform="translate(1097.006 4136.373)"/><path class="b" d="M454.57,339v0Z" transform="translate(1079.67 4123.245)"/><path class="b" d="M454.79,339.47Z" transform="translate(1079.566 4123.024)"/><path class="b" d="M454.628,339.24a.085.085,0,0,0,0,.037A.085.085,0,0,1,454.628,339.24Z" transform="translate(1079.643 4123.132)"/><path class="b" d="M455.228,337.019a.463.463,0,0,1,0-.079.46.46,0,0,0,0,.079Z" transform="translate(1079.361 4124.218)"/><path class="b" d="M456.787,331.36a.873.873,0,0,1-.037.169C456.76,331.476,456.776,331.418,456.787,331.36Z" transform="translate(1078.641 4126.855)"/><path class="b" d="M456.365,332.93l-.095.364Z" transform="translate(1078.866 4126.113)"/><path class="b" d="M457.9,325.507v-.127h0A.258.258,0,0,1,457.9,325.507Z" transform="translate(1078.096 4129.679)"/><path class="c" d="M459.84,321.992c1.245.449,2.037-1.81,3.841-2.374s2.944-2.037,3.957-2.374a2.173,2.173,0,0,1,.728-.1,1.942,1.942,0,0,0,1.91-2.638,1.787,1.787,0,0,0-.264-.443c-.9-1.134,1.81-2.491,5.319-3.282s7.572-4.094,7.809-6.675c0,0,2.6,2.485.908,3.73s-1.926.791-1.926.791,3-.4,2.913,4.865c-.074,4.532.707,9.044.818,14.019s0,10.062,0,10.062-1.467-2.264-3.166-2.147-.9,2.258-3.05.675-1.472.343-4.749-.449-4.184-.908-7.461,1.921c0,0-7.45,1.346-7.461,1.055a3.361,3.361,0,0,1,.216-1.314,5.981,5.981,0,0,1,.353-.781,5.361,5.361,0,0,1,.443-.67c1.129-1.467-.9-2.258.565-4.633s-1.24-1.921-.111-5.429a2.265,2.265,0,0,0-.6-3.335Z" transform="translate(1077.179 4139.727)"/><path class="d" d="M561.211,57.72l-5.171.338-.765,1.018H553.3a17.246,17.246,0,0,1-.343,3.6,6.523,6.523,0,0,0,.322,5.408l.274.406.8,2.57s.1.939.966.818a10.757,10.757,0,0,1,2.57-.29,1.493,1.493,0,0,1,.57.311s.623-4.918,1.356-6.274A18.733,18.733,0,0,0,561.211,57.72Z" transform="translate(1033.409 4256.112)"/><path class="e" d="M503.38,9.836l-1.53.591a50.154,50.154,0,0,0-3.73-4.833c-2.031-2.29-7.039-1.525-7.039-1.525l-.528-1.1-2.638.084-.528,2.638L484.675,5.6V.787c-.934-.934-3.139,1.187-3.139,1.187s-3.387-.253-3.219.934,2.712,1.356,2.712,1.356V5.789c-5,.765-3.815,3.73-5.086,4.664s-.681,5.429-2.8,5.514-2.111,3.219-4.068,2.638-5.514,1.356-5.514,1.356-3.646-.675-3.984,1.018,1.1,1.583,2.881,3.224-1.1,2.29-1.609,1.968-4.01-1.641-4.01-1.641-.09-1.187-.343-2.712a1.921,1.921,0,0,0-3.308-1.018c-1.018,1.272-4.153,2.543-5.593,2.037s-2.543-5.693-2.543-5.693h-8.484s-2.881,1.187-3.134,1.694,3.134,1.356,3.134,1.356l.09,3.82,2.459.591c0,.681-.174,2.638-4.073,3.055s-4.068,4.068-5.34,6.442-2.971,0-2.971,0,.6,2.712,2.459,3.393,4.221.253,6.785.169.765-1.1-.084-2.543a2.158,2.158,0,0,1,.237-2.316.67.67,0,0,1,1.055-.1l1.171,1.229,1.261.227a.659.659,0,0,0,.76-.48l.232-.855a1.351,1.351,0,0,1,1.419-1l2.712.232a2,2,0,0,1,1.557.96,1.828,1.828,0,0,0,2.575.834l.047-1.055a.934.934,0,0,1,.76-.876l2.58-.459.4-3.91a.317.317,0,0,1,.6-.116l.617,1.14,1.583.174.343,1.694a9.9,9.9,0,0,1,3.8.686.528.528,0,0,1,0,.955,1.62,1.62,0,0,0-1.071,1.63l.106,1.725a1.419,1.419,0,0,0,1.356,1.335l1.541.069a1.055,1.055,0,0,1,.992,1.055v2.142s2.037-.422,2.543,2.543,3.139,4.918,4.923,3.73a2.348,2.348,0,0,0,.929-2.965c2.459.422,5.007-.6,2.717-1.44a4.117,4.117,0,0,1-2.717-2.374s4.749-.084,6.7-.084,6.274.675,8.563.929,4.327-2.111,5.345-.675a3.023,3.023,0,0,0,2.638,1.272c-1.583-2.111-.934-4.749-.6-5.8a17.572,17.572,0,0,0,.343-3.6h1.947l.765-1.018,5.171-.338c.259-1.356.528-2.886,2.886-9.244a12.083,12.083,0,0,0-1.3-11.133Z" transform="translate(1092.821 4283.117)"/><path class="c" d="M122.527,728.532a.865.865,0,0,0,.686-.85V726.1l-.781-1.113a.744.744,0,0,1,.269-1.055l1.615-.839a1.862,1.862,0,0,0,.733-.7l2.285-3.862a.865.865,0,0,0,0-.907l-.918-1.441c-.248-.4.185-1.546.849-1.551l1.287.638,1.778-.084c.528-.1,1.187-1.245,1.235-1.789l-.032-2.754a.554.554,0,0,1,.791-.454l3.271,2.142a4.033,4.033,0,0,0,.886.427l3.567,1.757a5.618,5.618,0,0,0,.85.3l2.807.828a.9.9,0,0,1,.633.823l.042,1.483a1.113,1.113,0,0,0,.633.971l1.171.554.443,3.329a1.873,1.873,0,0,0,.359.881l.691.923a.865.865,0,0,0,.755.343l2.111-.169a.628.628,0,0,1,.67.6l.174,4.274a1.831,1.831,0,0,0,.422,1.1l3.044,3.667a.807.807,0,0,1-.179,1.2,3.592,3.592,0,0,1-2.5.348c-.2-.058-.364.185-.364.391l.528,1.762a1.646,1.646,0,0,1,.037.718l-.475,2.833a.528.528,0,0,0,.332.57l2.2.813L153.9,744.1a2.379,2.379,0,0,0-.259,1.055V747a.528.528,0,0,1-.575.528l-2.876-.369h-.106l-5.846-.406a4.142,4.142,0,0,1-1.266-.3l-5.646-2.353a2.063,2.063,0,0,0-1.1-.137l-2.2.343a.363.363,0,0,1-.3-.09l.042-1.182a.807.807,0,0,0-.311-.67l-7.26-4.875s-5.7-5.029-7.55-6.669a.6.6,0,0,1,.063-.945l1.177-.8a1.715,1.715,0,0,1,.76-.29Z" transform="translate(1238.445 3947.934)"/><path class="c" d="M136.485,654.941a.8.8,0,0,1,.4.132l3.092,2.026a4.046,4.046,0,0,0,.886.427l3.635,1.789a4.422,4.422,0,0,0,.718.285l2.907.86a.834.834,0,0,1,.6.776l.053,1.688a.844.844,0,0,0,.475.728l.913.433a.839.839,0,0,1,.47.644l.412,3.1a1.055,1.055,0,0,0,.2.48l.839,1.113a.839.839,0,0,0,.733.332l1.9-.153a.833.833,0,0,1,.9.8l.179,4.342a1,1,0,0,0,.222.58l3.219,3.873a.823.823,0,0,1-.185,1.229,3.593,3.593,0,0,1-2.48.338c-.2-.058-.364.185-.364.391l.554,1.936a.844.844,0,0,1,0,.364l-.464,2.754a.834.834,0,0,0,.528.918l1.335.491a2.372,2.372,0,0,0,1.272.111l7.065-1.319,4.49-.96a3.751,3.751,0,0,0,1.266-.528l3.076-1.963a.855.855,0,0,0,.38-.586l.243-1.7a1.7,1.7,0,0,1,.929-1.282l9.972-4.949a.834.834,0,0,0,.433-.528h0a.834.834,0,0,0-.881-1.055l-2.944.274a.813.813,0,0,1-.607-.185l-2.417-1.984a.433.433,0,0,1-.116-.528l.169-.359a2.49,2.49,0,0,0,.032-2.079c-.264-.612-.586-1.314-.723-1.625a.834.834,0,0,1-.074-.343v-5.477a.855.855,0,0,0-.243-.591l-1.878-1.878a1.346,1.346,0,0,1-.39-.807l-.153-1.4a1.583,1.583,0,0,0-.3-.76l-1.055-1.467a.454.454,0,0,1-.026-.528l1.762-3.118a5.234,5.234,0,0,0,.39-1.62l.185-2.01a2.206,2.206,0,0,0,0-.7l-.528-3.166a1.53,1.53,0,0,1,.28-1.166l2.184-2.907a.491.491,0,0,0,0-.6l-4.823-6.163a.866.866,0,0,0-.4-.285l-1.124-.359a.829.829,0,0,1-.491-.422l-.844-1.678a.527.527,0,0,0-.475-.3H168.74a.422.422,0,0,1-.427-.438l.058-2.453a.839.839,0,0,1,.459-.723l.2-.1a.818.818,0,0,0,.459-.744v-.66a.839.839,0,0,0-.248-.6l-1.1-1.055a.427.427,0,0,1-.084-.485l1.583-3.324a.834.834,0,0,1,.749-.47h.649a.427.427,0,0,0,.427-.438v-1.324a.411.411,0,0,0-.412-.4l-3.029.19a.359.359,0,0,1-.38-.364l.032-2.11a.844.844,0,0,1,.169-.485l2.232-2.971a.834.834,0,0,1,1.272-.069l.628.66a.823.823,0,0,0,.644.259l4.348-.211a1.657,1.657,0,0,0,.813-.269l1.087-.734a2.343,2.343,0,0,0,1.018-1.636l.185-1.34a.855.855,0,0,0-.237-.707l-.2-.19a.933.933,0,0,0-.67-.28h-3.219a.96.96,0,0,1-.464-.116l-5.361-2.9a.9.9,0,0,0-.306-.095l-7.983-.886A.828.828,0,0,1,161.2,601l-.908-.718a.813.813,0,0,1-.317-.623v-.607a.854.854,0,0,0-.1-.364l-1.029-1.873a1.245,1.245,0,0,0-.681-.586l-1.736-.633a.839.839,0,0,0-1.055.454l-.5,1.14a.834.834,0,0,1-.718.5l-2.9.158a.828.828,0,0,1-.781-.448l-.992-1.9a1.055,1.055,0,0,0-.433-.438l-3.166-1.662a1.221,1.221,0,0,0-.559-.137H141.6l-.111,2.96a.839.839,0,0,1-.4.681l-1.166.728a.711.711,0,0,0-.169.137l-1.878,2.037a1.414,1.414,0,0,0-.353,1.266l.454,2.174a1.752,1.752,0,0,1-.148,1.156l-1.63,3.255a1.821,1.821,0,0,0-.185.8v3.53a.839.839,0,0,1-.322.654l-1.636,1.293a2.108,2.108,0,0,1-.417.253l-1.889.865a.823.823,0,0,0-.485.755v1.694a1,1,0,0,1-.311.728l-1.34,1.282-1.678,1.678a.829.829,0,0,0-.243.591v1.493a.907.907,0,0,0,.185.528l3.25,4.849a5.437,5.437,0,0,0,.707.849l3.124,3.055a.855.855,0,0,1,.253.6v2.042a.828.828,0,0,1-.317.654l-1.488,1.182a6.251,6.251,0,0,0-1.314,1.752.878.878,0,0,0-.058.2l-.164,1.055a.866.866,0,0,1-.053.2,9.961,9.961,0,0,1-.691,1.208l-1.124,1.456c-.037.042-.069.084-.106.121l-.755.8a.839.839,0,0,0-.074,1.055l1.145,1.625a.939.939,0,0,1,.116.243l.686,2.311a.951.951,0,0,0,.148.28l3.013,3.746a22.123,22.123,0,0,0,1.583,1.651.808.808,0,0,0,.528.211Z" transform="translate(1234.07 4003.142)"/><path class="c" d="M154.025,568.437h3.73a1.219,1.219,0,0,1,.559.137l3.166,1.662a1.055,1.055,0,0,1,.433.438l1,1.91a.829.829,0,0,0,.781.448l2.9-.158a.834.834,0,0,0,.718-.5l.5-1.14a.839.839,0,0,1,1.055-.454l1.736.633a1.245,1.245,0,0,1,.681.586l1,1.868a.855.855,0,0,1,.1.364v.607a.813.813,0,0,0,.317.623l.908.718a.829.829,0,0,0,.427.174l7.994.887a.9.9,0,0,1,.306.095l5.361,2.9a.961.961,0,0,0,.464.116h3.219a.934.934,0,0,1,.67.28l.2.19,1.219-.216a.754.754,0,0,1,.749.311l.216.3a1.842,1.842,0,0,1,.206.39l.712,1.994h1.984a1.055,1.055,0,0,0,.755-.332l.823-.908,1.113-.58a1.208,1.208,0,0,0,.58-.649l.422-1.124a.47.47,0,0,1,.354-.3l1.382-.227a1.055,1.055,0,0,0,.638-.38l.828-1.055a1.3,1.3,0,0,0,.28-.8v-.939a.317.317,0,0,1,.317-.317h.828a.528.528,0,0,0,.48-.29l1.678-3.182a2.348,2.348,0,0,1,.818-1.324,2.982,2.982,0,0,1,1.641-.448l3.651-.095a1.476,1.476,0,0,1,.586.106l1.34.565a.946.946,0,0,1,.348.243l3.693,3.978a2.529,2.529,0,0,0,.38.332l.4.274a1.776,1.776,0,0,0,.823.306l1.921.206,4.58.042,1.119-.285a1.9,1.9,0,0,0,.76-1.055l.327-1.24V571.17a.6.6,0,0,0-.132-.375l-1.467-1.8a1.446,1.446,0,0,0-1.124-.528h-4.786a.908.908,0,0,1-.733-.37l-1.277-1.736a1.151,1.151,0,0,1-.2-.7v-1.3a.306.306,0,0,1,.306-.306h3.915a1.583,1.583,0,0,0,.818-.227l1.161-.718a1.792,1.792,0,0,0,.47-.422l1.134-1.462a.23.23,0,0,0,.032-.084l.332-2.111h2.733a.639.639,0,0,0,.485-.222l.712-.8a.111.111,0,0,0,.026-.069v-2.559a.4.4,0,0,1,.153-.322,13.367,13.367,0,0,0,2.111-2.111,1.114,1.114,0,0,0-.069-1.641l-2.8-2.348a.908.908,0,0,0-.528-.206l-2.385-.132a.454.454,0,0,1-.422-.39l-.4-2.9a1.44,1.44,0,0,0-.9-1.14h0a1.055,1.055,0,0,0-1.266.406l-.385.591a1.3,1.3,0,0,1-1.4.554h0a.876.876,0,0,1-.665-.876V544.1a1.91,1.91,0,0,0-.528-1.356l-.5-.528a3.745,3.745,0,0,0-.559-.475l-1.161-.8a1.336,1.336,0,0,0-.76-.237h-2.981a1.056,1.056,0,0,0-.5.127l-1.219.644a1.631,1.631,0,0,1-.528.174l-2.053.269a1.582,1.582,0,0,1-1.055-.248l-.237-.158a.686.686,0,0,0-.892.127l-.264.311a.893.893,0,0,1-.259.206l-1.546,1.43a.591.591,0,0,0-.185.427l-.026,3.467a.559.559,0,0,1-.528.559l-1.878.158a.917.917,0,0,0-.6.28,4.956,4.956,0,0,1-1,.976,8.517,8.517,0,0,1-1.736.528l-.2.528a.454.454,0,0,1-.417.306l-1.81.069a.906.906,0,0,1-.47-.111l-1.161-.617a1.055,1.055,0,0,0-1.145.121l-1.372,1.134a.448.448,0,0,1-.443.084l-2.469-.86-6.981.053a.322.322,0,0,1-.322-.311l-.074-1.894-.169-.485a1.208,1.208,0,0,0-.844-.776l-.855-.222-.95-.528a.607.607,0,0,0-.733.1l-.644.617a1.458,1.458,0,0,1-.4.285l-.739.359a1.2,1.2,0,0,1-.528.121l-2.211-.037-1.039-1.155a.929.929,0,0,0-.744-.311l-.776.037a.876.876,0,0,0-.776.528l-.29.675.069,1.942a.749.749,0,0,1-.354.66h0a1.271,1.271,0,0,1-.675.2h-3.05a1.143,1.143,0,0,0-.591.164l-1.351.823a1.234,1.234,0,0,0-.485.554l-.528,1.214.053,1.235a1.667,1.667,0,0,1-.464,1.235h0a2.063,2.063,0,0,1-1.055.6l-2.4.528-2.058.454a3.135,3.135,0,0,0-1.72,1.055l-1.425,1.272-.1,3.846-.09.216a1.678,1.678,0,0,1-1.024.918l-.528.164-.865-.047a1.092,1.092,0,0,0-1.156,1A8.218,8.218,0,0,0,154.025,568.437Z" transform="translate(1221.664 4027.965)"/><path class="c" d="M215.583,607.622l1.425-.253a.433.433,0,0,1,.422.174l.364.528a1.216,1.216,0,0,1,.164.306l.638,1.784a.38.38,0,0,0,.364.253h1.857a.691.691,0,0,0,.528-.222l.923-1.018,1.229-.638a.877.877,0,0,0,.417-.475l.528-1.425a.111.111,0,0,1,.095-.074l1.694-.285a.723.723,0,0,0,.438-.258l.981-1.224a.955.955,0,0,0,.206-.591v-1.372H229.2a.206.206,0,0,0,.185-.111l1.768-3.4a2.348,2.348,0,0,1,.818-1.324,2.981,2.981,0,0,1,1.641-.448l3.725-.1a1.056,1.056,0,0,1,.443.084l1.477.617a.6.6,0,0,1,.232.164l3.783,4.057a2.075,2.075,0,0,0,.322.285l.5.343a1.458,1.458,0,0,0,.67.248l2,.216h.385l-.116,5.308a.448.448,0,0,0,.443.464l1.5.032a.085.085,0,0,1,.084.079l.1,1.372a.8.8,0,0,1-.137.528l-.248.364a.987.987,0,0,1-.369.322l-.528.264.084,2.76,1.783.037a.944.944,0,0,1,.475.132l2.723,1.583a1.086,1.086,0,0,0,.528.148l3.372.121-3.139,1.651-1.409,1.7a1.182,1.182,0,0,1-.612.391l-.945.243L247.574,623l-3.583,3.234a1.642,1.642,0,0,0-.232.274l-2.7,4.01a1.518,1.518,0,0,0-.137.259l-1.8,4.564a1,1,0,0,0-.069.274l-.433,3.968a1.794,1.794,0,0,0,.2,1.055l.654,1.24a.681.681,0,0,0,.712.353l1-.475c.106-.058.412.58.554.95a.8.8,0,0,1,.032.417l-.121.528a.739.739,0,0,1-.744.586l-1.419-.048-1.815,2.57a2.978,2.978,0,0,0-.19.306l-1.192,2.385a1.788,1.788,0,0,0-.2.807V653.6a2.28,2.28,0,0,0,.19.9l.343.765a1.758,1.758,0,0,1,.148.7v4.152a1.826,1.826,0,0,1-.09.559l-.718,2.253a2.5,2.5,0,0,1-.475.849l-4.1,4.838v2.469a1.135,1.135,0,0,1-.169.6l-.264.417a1.461,1.461,0,0,1-.8.623l-1.4.47-3.076.422a1,1,0,0,0-.565.274l-2.068,2.037a.834.834,0,0,0-.881-1.055l-3.081.29a.528.528,0,0,1-.364-.111L216.243,673a.527.527,0,0,1-.137-.6l.216-.454a2.153,2.153,0,0,0,.032-1.794c-.3-.7-.7-1.583-.823-1.847a.443.443,0,0,1-.037-.185V662.4a.528.528,0,0,0-.148-.354l-2.058-2.058a1.055,1.055,0,0,1-.3-.612l-.174-1.583a1.277,1.277,0,0,0-.232-.6l-1.092-1.525a.5.5,0,0,1-.032-.528l1.757-3.1a5.235,5.235,0,0,0,.39-1.62l.185-2.01a2.205,2.205,0,0,0,0-.7l-.58-3.34a1.161,1.161,0,0,1,.216-.908l2.264-3.018a.528.528,0,0,0,0-.607l-4.891-6.221a.527.527,0,0,0-.243-.169l-1.351-.433a.486.486,0,0,1-.3-.253L208,630.939a.528.528,0,0,0-.448-.274h-2.992a.528.528,0,0,1-.5-.528l.063-2.58a.5.5,0,0,1,.274-.433l.559-.28a.528.528,0,0,0,.274-.449v-1.008a.528.528,0,0,0-.148-.359l-1.161-1.124a.528.528,0,0,1-.1-.575l1.657-3.461a.528.528,0,0,1,.448-.285h.786a.528.528,0,0,0,.5-.528v-1.25a.412.412,0,0,0-.412-.4l-2.876.18a.528.528,0,0,1-.528-.528l.032-2.053a.527.527,0,0,1,.106-.3l2.554-3.382a.5.5,0,0,1,.76-.042l1.008,1.055a.527.527,0,0,0,.385.158l4.6-.227a1.219,1.219,0,0,0,.638-.216l1.287-.865a2.005,2.005,0,0,0,.876-1.4l.206-1.488a.839.839,0,0,0-.074-.47" transform="translate(1198.313 4001.164)"/><path class="a" d="M240.138,465a1.135,1.135,0,0,0-.137,1.43l.718,1.055a1.509,1.509,0,0,1,.232.565l.412,2.237a2.169,2.169,0,0,1-.048,1.008l-.528,1.831a.58.58,0,0,0,0,.095v2.037a1.826,1.826,0,0,0,.95,1.583l1.509.823a1.541,1.541,0,0,1,.412.327l1.214,1.33a1.583,1.583,0,0,1,.285,1.646l-.174.412-.032.063-1.055,1.477a1.857,1.857,0,0,0-.29,1.4l.232,1.156a1.715,1.715,0,0,0,.4.8l.38.438a2.142,2.142,0,0,1,.354,2.269l-.111.253a2.184,2.184,0,0,1-1.667,1.287l-1.752.269-2.6.475a3.651,3.651,0,0,0-2.432,1.652l-1.055,1.7h0l-.828,1.124a2.533,2.533,0,0,1-1.055.834l-1.715.728a2.823,2.823,0,0,1-1.214.211l-3.82-.19a.341.341,0,0,0-.142,0l-1.583.633h-.09l-3.5.412a.48.48,0,0,0-.39.306l-.29.718a.654.654,0,0,0,.058.586l.185.28a.659.659,0,0,0,.559.3h2.311l1.287.095a.4.4,0,0,1,.359.28l.185.591a1.657,1.657,0,0,1-.412,1.667l-.475.47a.327.327,0,0,1-.39.063l-1.952-.923a.412.412,0,0,0-.591.311l-.222,1.583a.3.3,0,0,1-.3.253l-1.319-.29a.66.66,0,0,0-.454.29,1.431,1.431,0,0,1-.174.454l-.433.48-.264.311a.892.892,0,0,1-.259.206l-1.546,1.43a.591.591,0,0,0-.185.427l-.026,3.467a.559.559,0,0,1-.528.559l-1.878.158a.913.913,0,0,0-.6.274,4.844,4.844,0,0,1-1,.981,6.85,6.85,0,0,1-1.551.47.343.343,0,0,0-.248.222l-.132.369a.454.454,0,0,1-.417.306l-1.81.068a.907.907,0,0,1-.47-.111l-1.161-.617a1.055,1.055,0,0,0-1.145.121l-1.361,1.119a.449.449,0,0,1-.443.084l-2.411-.844a.44.44,0,0,0-.116,0l-6.9.053a.353.353,0,0,1-.348-.327l-.069-1.826a.332.332,0,0,0,0-.1l-.153-.438a1.208,1.208,0,0,0-.844-.776l-.813-.211a.248.248,0,0,1-.079-.032l-.913-.528a.607.607,0,0,0-.733.1l-.66.623a1.456,1.456,0,0,1-.4.285l-.739.359a1.2,1.2,0,0,1-.528.121l-2.063-.037a.338.338,0,0,1-.248-.111l-.918-1.055a.929.929,0,0,0-.744-.311l-.776.037a.876.876,0,0,0-.776.528l-.259.6a.375.375,0,0,0-.032.148l.069,1.852a.733.733,0,0,1-.269.623,1.272,1.272,0,0,1-.76.248h-3.071a1.146,1.146,0,0,0-.591.164l-1.351.823a1.265,1.265,0,0,0-.485.554l-.222.528a3.25,3.25,0,0,0-.269,1.446v.443a1.8,1.8,0,0,1-.364,1.166c-.232.306-.259.28-.633.528a3.476,3.476,0,0,1-.528.169l-2.4.528,1.145-1.9a.316.316,0,0,0,.127-.137l1.377-2.754a.377.377,0,0,1,.053-.074l2.406-2.638a.164.164,0,0,0,.037-.048l1.055-1.71a2.96,2.96,0,0,0,.448-1.583v-.881a1.731,1.731,0,0,1,.528-1.235l.8-.8.048-.037,2.4-1.63a2.48,2.48,0,0,0,1-1.356l.528-1.725v-.042l.449-2.559a4.5,4.5,0,0,1,.4-1.224l1.2-2.448a1.8,1.8,0,0,1,.781-.807l.232-.127a1.689,1.689,0,0,0,.886-1.388h0a1.229,1.229,0,0,1,1.024-1.145h0a.6.6,0,0,0,.454-.375l.185-.5a2.321,2.321,0,0,0,.142-.828l-.037-2.828a1.483,1.483,0,0,1,.929-1.4l1.472-.6a1.614,1.614,0,0,0,.8-.707l.179-.322a1.393,1.393,0,0,1,1.2-.718l2.163-.032a2.148,2.148,0,0,0,1.409-.565l.881-.818a.3.3,0,0,1,.111-.069l1.746-.681a2.786,2.786,0,0,1,1.055-.19l4.8.079a1.266,1.266,0,0,0,1.293-1.245v-.886a1.3,1.3,0,0,1,1.055-1.261l1.3-.237a1.625,1.625,0,0,0,.749-.359l.1-.084a1.583,1.583,0,0,0,.528-.923l.2-1.15a1.124,1.124,0,0,1,.681-.849l2.385-.981a3.86,3.86,0,0,1,.417-.137l4.221-1.029a2.939,2.939,0,0,1,.86-.079l1.425.084a.243.243,0,0,1,.121.032l.491.222a1.857,1.857,0,0,1,.886.818l.348.638a.233.233,0,0,1,.037.1l.443,2.206.216,1.435a4,4,0,0,0,.227.844l.443,1.134a2.327,2.327,0,0,0,1.018,1.182l.707.406a3.208,3.208,0,0,0,2.031.385l.412-.058a.353.353,0,0,0,.158-.069l1.868-1.425a2.016,2.016,0,0,0,.649-.834l.786-1.873a.776.776,0,0,0,0-.106l.148-1.847a1.256,1.256,0,0,0-.412-1.256h0a.591.591,0,0,1-.042-.86l.834-.86a3.246,3.246,0,0,1,.565-.475l1.351-.9a2.242,2.242,0,0,0,.623-.638l.2-.317a2.971,2.971,0,0,0,.433-1.177l.253-1.815a2.411,2.411,0,0,0,0-.755l-.338-2.052" transform="translate(1213.36 4063.728)"/><path class="a" d="M155.434,482.547l1.166-.306,1.762-1.219a3.44,3.44,0,0,1,.981-.459l2.084-.633,1.615-.755a2.327,2.327,0,0,1,1.878-.037l1.087.454,5.044,1.219a1.435,1.435,0,0,1,.86.612l.4.607a.929.929,0,0,1-.385,1.345l-2.353,1.1a.559.559,0,0,0-.185.876l1.472,1.657a1.4,1.4,0,0,1,.353.765l.322,2.5a2.638,2.638,0,0,0,.375,1.055l.981,1.583-1.472.6a1.483,1.483,0,0,0-.929,1.4l.037,2.828a2.321,2.321,0,0,1-.142.828l-.185.5a.6.6,0,0,1-.464.375,1.24,1.24,0,0,0-1.013,1.171,1.657,1.657,0,0,1-.886,1.361l-.232.127a1.8,1.8,0,0,0-.781.807l-1.224,2.469a4.5,4.5,0,0,0-.4,1.224l-.454,2.58-.528,1.747a2.48,2.48,0,0,1-1,1.356l-2.427,1.646-.818.818a1.731,1.731,0,0,0-.528,1.235v.881a2.96,2.96,0,0,1-.448,1.583l-1.055,1.736-2.459,2.712-1.44,2.886-1.229,1.947c-.886.253-2.274.454-2.058.454a4.063,4.063,0,0,0-1.921,1.293l-1.224,1.023-1.372-1.725a1.583,1.583,0,0,1-.612-1.235l-.116-3.24-.454-.037a1.018,1.018,0,0,0-.929.438l-.881,1.266-.807-1.145a.728.728,0,0,0-1-.19l-1.4.934a1.912,1.912,0,0,1-1.055.317l-2.443-.048a2.063,2.063,0,0,1-1.055-.327l-2.163-1.382-.865-.649a1.631,1.631,0,0,1-.57-1.82l.475-1.43,1.356-2.485.084-1.62a1.9,1.9,0,0,1,.443-1.134l.528-.628a2.031,2.031,0,0,0,.464-1.324l-.037-2.058a.554.554,0,0,1,.248-.475h0a1.388,1.388,0,0,0,.485-1.688l-.433-1.008a2.153,2.153,0,0,1-.148-1.208l.237-1.467-.839-1.8a1.414,1.414,0,0,1,.026-1.245l.644-1.25,2.638-2.432.485-1.488a1.156,1.156,0,0,0-.206-1.087l-.66-.8a1.467,1.467,0,0,1-.338-.818l-.253-2.992a1.372,1.372,0,0,0-.47-.934l-1.557-1.382-1.1-1.446a1.024,1.024,0,0,1,.074-1.335l1.108-1.166a1.778,1.778,0,0,1,1.335-.528l1.81.037,6.026-.164a1.345,1.345,0,0,0,.48-.1l1.863-.749a1.757,1.757,0,0,1,1.15-.058l2.9.839a1.509,1.509,0,0,0,1.15-.132l1.979-1.108,1.657-.427" transform="translate(1232.134 4057.135)"/><path class="a" d="M143.134,440.658l.591-1.583a1.99,1.99,0,0,0,.121-.681v-3.124l2.031-1.361,1.414-.454a1.356,1.356,0,0,0,.944-1.314l-.069-3.166-.675-2.638-.074-3.815a1.166,1.166,0,0,0-.4-.844l-.886-.77v-.96a.987.987,0,0,1,1.055-.987l3.087.253.169-3.308,1.7-1.272-2.8-1.187v-1.24a1.192,1.192,0,0,1,.623-1.055l1.245-.686a1.4,1.4,0,0,0,.733-1.282v-.723a.987.987,0,0,1,.728-.987l2.607-.686a1.583,1.583,0,0,0,.818-.528l.633-.791a1.346,1.346,0,0,1,1.525-.417l1.8.681a1.319,1.319,0,0,0,.855.037l1.942-.554,2.512-2.3a1.52,1.52,0,0,1,1.055-.4l4.5.132a1.33,1.33,0,0,0,1.2-.7l1.266-2.374a.934.934,0,0,1,1.324-.359l.528.338a1.414,1.414,0,0,1,.66,1.419l-.528,3.546a.338.338,0,0,0,.433.375l1.193-.354,3.451-2.638a1.382,1.382,0,0,1,1.192-.232l1.192.332a1.583,1.583,0,0,1,.923.7l1.53,2.453a.876.876,0,0,0,1.287.232l.791-.617a1.272,1.272,0,0,1,.886-.274l7.134.475.237-1.055a1.024,1.024,0,0,1,.528-.7l1.182-.623.338-1.187.063-2.5a.813.813,0,0,0-.781-.834l-3.931-.121a.628.628,0,0,1-.607-.633h0a.95.95,0,0,1,.818-.944l2.147-.306,1.177-1.055a1.2,1.2,0,0,1,.818-.306l3.092.074,1.446,1.055a1.325,1.325,0,0,0,1.53,0l.913-.649a1.457,1.457,0,0,0,.528-.649L205.891,392a1.293,1.293,0,0,1,1.345-.8l3.256.375a.169.169,0,0,1,.079.3l-.707.528a1.208,1.208,0,0,0-.5.923l-.121,2.485a1.435,1.435,0,0,1-.259.744l-.707.981a1.678,1.678,0,0,0-.3,1.055l.29,6.115a1.583,1.583,0,0,1-.19.828l-1.124,2.084a1.366,1.366,0,0,0,.174,1.546l.765.881c.106.121.5.079.881,0a2.359,2.359,0,0,1,1.456.237l.828.438-.749,1.778c-.2.475.528,2.4.818,2.8l1,1.055a2.316,2.316,0,0,0,1.319.644h1.789a1.342,1.342,0,0,1,.5.1l1.9.813a2.11,2.11,0,0,1,1.15,2.638l-.665,1.789-.565,1.461a.934.934,0,0,0,.332,1.119l1.662,1.055a4.907,4.907,0,0,1,1.256,2.063l.1,1.583c.09.4.116.5.153.749l.338,2.053a2.412,2.412,0,0,1,0,.755L221.15,435a2.97,2.97,0,0,1-.433,1.177l-.2.317a2.242,2.242,0,0,1-.623.638l-1.351.9a3.243,3.243,0,0,0-.565.475l-.834.86a.6.6,0,0,0,.058.871,1.251,1.251,0,0,1,.4,1.24l-.148,1.852v.106l-.786,1.873a2.016,2.016,0,0,1-.649.834l-1.873,1.414a.354.354,0,0,1-.158.069l-.412.058a3.208,3.208,0,0,1-2.031-.385l-.707-.406a2.327,2.327,0,0,1-1.018-1.182l-.443-1.134a4,4,0,0,1-.227-.844l-.216-1.435-.443-2.206-.037-.1-.348-.638a1.857,1.857,0,0,0-.886-.818l-.491-.222-.121-.032-1.425-.084a2.941,2.941,0,0,0-.86.079L200.1,439.3a3.86,3.86,0,0,0-.417.137l-2.422,1a1.124,1.124,0,0,0-.681.849l-.2,1.15a1.583,1.583,0,0,1-.528.923l-.095.084a1.625,1.625,0,0,1-.749.359l-1.3.237a1.3,1.3,0,0,0-1.055,1.261v.886a1.266,1.266,0,0,1-1.293,1.245l-4.8-.079a2.785,2.785,0,0,0-1.055.19l-1.746.681-.111.069-.881.839a2.148,2.148,0,0,1-1.409.565l-2.163.032a1.393,1.393,0,0,0-1.2.718l-.179.322a1.615,1.615,0,0,1-.8.707l-.981-1.583a2.639,2.639,0,0,1-.375-1.055l-.322-2.5a1.4,1.4,0,0,0-.353-.765l-1.467-1.688a.559.559,0,0,1,.185-.876l2.353-1.1a.929.929,0,0,0,.385-1.346l-.4-.607a1.436,1.436,0,0,0-.86-.612l-5.044-1.219-1.087-.454a2.327,2.327,0,0,0-1.878.037l-1.615.755-2.068.638a3.438,3.438,0,0,0-.96.464l-1.762,1.219-1.166.306-1.657.427-1.979,1.108a1.509,1.509,0,0,1-1.15.132l-2.9-.839a1.757,1.757,0,0,0-1.15.058l-1.863.749a1.371,1.371,0,0,1-.48.1L142.4,443l-1.815-.169L142.5,441.5A1.741,1.741,0,0,0,143.134,440.658Z" transform="translate(1227.989 4098.59)"/><path class="c" d="M263.72,498H263.6l-1.2-.264a.565.565,0,0,0-.454.29l-.137.4-.47.528a.686.686,0,0,1,.892-.127l.237.158a1.583,1.583,0,0,0,1.055.248l2.053-.269a1.63,1.63,0,0,0,.528-.174l1.219-.644a1.054,1.054,0,0,1,.5-.127h2.992a1.334,1.334,0,0,1,.76.237l1.161.8a3.749,3.749,0,0,1,.559.475l.5.528a1.91,1.91,0,0,1,.528,1.356v.77a.876.876,0,0,0,.665.876h0a1.3,1.3,0,0,0,1.4-.554l.385-.591a1.055,1.055,0,0,1,1.266-.406h0a1.441,1.441,0,0,1,.9,1.14l.4,2.9a.454.454,0,0,0,.422.39l2.385.132a.907.907,0,0,1,.528.206l2.8,2.348a1.1,1.1,0,0,1,.39.739h3.941a2.284,2.284,0,0,1,1.055.248l2.638,1.34a2.354,2.354,0,0,0,.554.211l3.894.987a2.39,2.39,0,0,1,.918.459l3.05,2.464a.528.528,0,0,0,.728-.047l3.377-3.556a1.868,1.868,0,0,1,1.53-.485l5.276.048a.665.665,0,0,0,.406-.137l1.087-.834a.607.607,0,0,0,.232-.412l.174-1.367a.586.586,0,0,0-.063-.353l-1.715-3.287a1.942,1.942,0,0,1-.222-.955l.032-1.272a.528.528,0,0,0-.528-.528l-2.907-.037a.971.971,0,0,1-.96-.971v-8.178a1.5,1.5,0,0,0-.528-1.145l-1.324-1.1a.121.121,0,0,1,.048-.206l.86-.222a.575.575,0,0,0,.454-.554.4.4,0,0,1,.433-.422l5.086.528a.723.723,0,0,1,.654.7v.364a1.551,1.551,0,0,0,.485,1.087l.638.612a.834.834,0,0,1,.259.591l.042,1.757a1.118,1.118,0,0,0,.311.755l.586.6a1.272,1.272,0,0,1,.248,1.382l-.074.18a1.584,1.584,0,0,1-.274.422l-.733.8a.2.2,0,0,0,.137.322l1.171.032a1.778,1.778,0,0,0,.844-.185l.427-.216a2.112,2.112,0,0,1,.638-.2l1.4-.179a.528.528,0,0,0,.475-.528l.032-2.237a2.475,2.475,0,0,1-.528-1.055l-.8-3.382a.818.818,0,0,1,.417-.913l1.145-.6a1.847,1.847,0,0,0,.818-.86l.559-1.2a1.926,1.926,0,0,1,.981-.955l4.749-2.322.3-.364a3.772,3.772,0,0,0,.274-1.673l-.285-.707a1.288,1.288,0,0,0-.923-.776l-1.583-.332a1.582,1.582,0,0,1-.791-.417l-1.91-1.831a1.055,1.055,0,0,1-.2-1.266l.9-1.657a1.309,1.309,0,0,1,.528-.528l1.757-.918a.807.807,0,0,0,.427-.807l-.053-.454a1.055,1.055,0,0,0-1.029-.918h-1.863a1.615,1.615,0,0,1-1.2-.528l-.865-.976a1.546,1.546,0,0,0-1.155-.528h-1.467a1.887,1.887,0,0,1-.422-.053l-2.417-.665a1.694,1.694,0,0,1-1.219-1.182l-.322-1.166a1.235,1.235,0,0,0-.929-.871l-1.393-.3a.9.9,0,0,0-1.087.849l-.026.649a1.266,1.266,0,0,1-1.266,1.219h-.828a1.626,1.626,0,0,1-.422-.058l-1.752-.47a1.055,1.055,0,0,0-.987.227l-.554.491a.86.86,0,0,1-1.245-.111l-.417-.528a1.361,1.361,0,0,1-.28-.77l-.079-2.49a.892.892,0,0,0-.559-.8h0a1.176,1.176,0,0,1-.718-.86l-.306-1.461a1.277,1.277,0,0,0-.718-.9l-1.9-.865-1.208-.38a1.055,1.055,0,0,0-1.3.623l-.127.343a1.583,1.583,0,0,1-1.113.96h0a1.831,1.831,0,0,0-1.055.681l-2.638,3.482a1.546,1.546,0,0,1-1,.607h0a1.1,1.1,0,0,1-1.161-.612l-.454-.96a1.767,1.767,0,0,1-.153-.944l.095-.818a1.583,1.583,0,0,1,.528-1.013l1.741-1.535a1.815,1.815,0,0,0,.58-1.4l-.032-1.989a1.651,1.651,0,0,0-.449-1.092l-1.266-1.345a.855.855,0,0,1-.264-.992l.338-.844a1.055,1.055,0,0,0-.433-1.272l-.485-.29-.944-.38a.95.95,0,0,0-1.229.5l-.311.728.116.348a.728.728,0,0,1-.728.95l-.86-.053-1.1,1.024a2.01,2.01,0,0,0-.628,1.377l-.058,1.324a1.467,1.467,0,0,1-.427.976l-.464.464a1.134,1.134,0,0,0-.137,1.43l.718,1.055a1.509,1.509,0,0,1,.232.565l.412,2.237a2.168,2.168,0,0,1-.048,1.008l-.528,1.878v2.084a1.826,1.826,0,0,0,.95,1.583l1.509.823a1.657,1.657,0,0,1,.417.327l1.208,1.33a1.583,1.583,0,0,1,.285,1.646l-.185.443-1.055,1.509a1.857,1.857,0,0,0-.29,1.4l.232,1.156a1.715,1.715,0,0,0,.4.8l.38.438a2.142,2.142,0,0,1,.354,2.269l-.111.253a2.185,2.185,0,0,1-1.667,1.287l-1.752.269-2.6.475a3.651,3.651,0,0,0-2.432,1.652l-1.055,1.715-.828,1.134a2.586,2.586,0,0,1-1.055.834l-1.715.728a2.824,2.824,0,0,1-1.214.211l-3.894-.2-1.694.681-3.546.417a.48.48,0,0,0-.391.306l-.29.718a.654.654,0,0,0,.058.586l.185.28a.66.66,0,0,0,.559.3h2.311l1.287.095a.4.4,0,0,1,.359.28l.185.591a1.657,1.657,0,0,1-.412,1.667l-.5.5a.29.29,0,0,1-.338.053l-1.989-.971a.412.412,0,0,0-.591.311l-.222,1.583A.3.3,0,0,1,263.72,498Z" transform="translate(1170.945 4070.664)"/><path class="c" d="M428.93,238.655c2.111,3.166.4,4.437.4,4.437s0,.084-.85.681-2.374,2.374-3.815.591-2.459-2.374-3.73-2.374-2.638-.844-4.664-2.111-4.5-1.187-3.224,1.272a4.379,4.379,0,0,1,.559,1.736,1.055,1.055,0,0,1-1.1,1.087c-.76,0-1.625.364-2.169,1.926a2.148,2.148,0,0,0,.818,2.385.575.575,0,0,1,0,.9c-.76.575-.3,1.952-.3,1.952,2.037,4.664,1.44,5.767,0,5.086s-2.374-2.543-4.153-.844a13.482,13.482,0,0,1-5.757,3.134c-1.177.169-.944-.76-3.488-.929s-3.815,3.3-5.851,3.73-4.918.253-6.1-1.7-3.73-1.1-2.111-.084c.944.6,1.055,1.055.966,1.372a.57.57,0,0,1-.4.385,3.572,3.572,0,0,1-3-.327,1.667,1.667,0,0,0-2.111.269,2.29,2.29,0,0,1-1.794.675c-4.221.681-4.073,2.111-4.664,3.73a2.665,2.665,0,0,1-4.073,1.272s5.8,6.448,7.292,7.693,6.332.338,8.368.565,6.332.791,6.559,1.694,3.05,0,4.295,0,5.994.338,6.221-.792,1.356-2.485,4.976-1.467-.454,3.841,3.73,4.97h1.757a.855.855,0,0,1,.839.723l.227,1.541,2.554,1.456a1.055,1.055,0,0,1,.528,1.055,33.985,33.985,0,0,1-1.752,7.023.375.375,0,0,0,.575.443c.755-.565,1.609-1.055,2.179-.823,1.245.448,2.037-1.81,3.841-2.374s2.944-2.037,3.957-2.374a2.174,2.174,0,0,1,.728-.1,1.942,1.942,0,0,0,1.91-2.638,1.792,1.792,0,0,0-.264-.443c-.9-1.134,1.81-2.49,5.319-3.282s7.519-4.058,7.756-6.638c0,0,.111-1.62-3.055-1.377a.095.095,0,0,1-.095-.142c.327-.528,1.013-2.269-1-6.738a6.5,6.5,0,0,1-.464-3.778l.765-4.364a9,9,0,0,0,.132-1.356l.164-6.332a3.308,3.308,0,0,1,1.583-2.717h0a.332.332,0,0,0-.148-.612l-1.82-.148s-2.6,1.018-3.841.681c-.733-.2-.253-1.14.269-1.884a3.255,3.255,0,0,0,.565-2.306h0a.306.306,0,0,1,.29-.348c.918,0,3.43,0,4.073.918a6.568,6.568,0,0,0,1.7,1.7s1.24-2.939-1.7-3.282-4.749-.913-5.878-1.868A2.749,2.749,0,0,0,428.93,238.655Z" transform="translate(1120.416 4170.694)"/><path class="c" d="M415.917,328.3c-1.018,3.055-2.8,3.73-4.411,4.073s-6.358,5.086-8.057,6.7a7.387,7.387,0,0,1-6.02,2.206c-2.29-.253-1.778,1.1-4.411.934s-3.134,2.8-4.153,3.393-5,0-5,0c.084-2.374-2.971-3.562-3.9-4.5-.623-.623.5-.755,1.309-.77a.575.575,0,0,0,.528-.654,1.673,1.673,0,0,1,.776-1.715,3.048,3.048,0,0,0,1.44-4.152c.528-4.158,3.562-2.459,4.221-3.984s-.327-3.139.528-3.9-.681-1.863-.528-3.588,2.374.2,2.549-.48-.6-1.783.929-2.638.849-1.783.849-1.783c-1.187-2.712,1.356-1.018,1.187-2.8s-.765-1.868.6-2.459c1.018-.448,1.367-2.111,1.477-2.928a.2.2,0,0,1,.285-.153c.749.385,2.992-.285,4.058-.285,1.245,0,5.994.338,6.221-.791s1.356-2.485,4.976-1.467-.454,3.841,3.73,4.97h1.757a.855.855,0,0,1,.839.723l.227,1.541,2.554,1.456a1.055,1.055,0,0,1,.528,1.055,33.984,33.984,0,0,1-1.752,7.023.369.369,0,0,0,.237.5.153.153,0,0,1,.074.248Z" transform="translate(1114.997 4138.739)"/><path class="c" d="M314.871,428.38l-.037-.749a.471.471,0,0,1,.037-.211l.375-.823a.454.454,0,0,1,.5-.259l1.219.222a.4.4,0,0,0,.433-.216l.116-.232a.444.444,0,0,1,.28-.227l1.583-.443a.527.527,0,0,0,.354-.311l.575-1.393a.464.464,0,0,0-.106-.5l-.459-.438a1.208,1.208,0,0,1-.343-1.156l.174-.755a1.309,1.309,0,0,0-.127-.934l-.169-.3a1.525,1.525,0,0,0-1.229-.786h0a.839.839,0,0,0-.871.586c-.121.359-.259.8-.359,1.113a1.609,1.609,0,0,1-.427.681l-.9.839a.981.981,0,0,1-1.192.116l-.718-.448-.369-1.609a1.789,1.789,0,0,0-.612-.981l-.591-.485a1.683,1.683,0,0,1-.6-1.092L311.2,416l-.369-.886a1.667,1.667,0,0,1,.19-1.625l.686-.934,1.8-.744a2.668,2.668,0,0,0,.733-.443l1.082-.908.185-1.092a1.055,1.055,0,0,1,1.1-.86l.976.09.934.744a1.688,1.688,0,0,0,1.557.285l.649-.206a1.488,1.488,0,0,0,.923-.823l.686-1.53.96-1.462a.718.718,0,0,1,.9-.259l.2.09a1.055,1.055,0,0,1,.6.918v.612a2.523,2.523,0,0,0,.427,1.4l.19.285a.649.649,0,0,0,1.055.026l.327-.665.232-.433a4.464,4.464,0,0,1,.739-2.738h0a.918.918,0,0,1,1.177-.2l1.53,1.747a1.382,1.382,0,0,1,.5.681,4.28,4.28,0,0,0,.654,1.224h0a.306.306,0,0,1,.058.2c-.042.48.813,1.092,1.3,1.219h0c.691.185,2.5-.032,2.7-.723l.069-.127a2.237,2.237,0,0,1,.908-.981h0a1.985,1.985,0,0,1,1.055-.243l2.079.153a1.293,1.293,0,0,0,1.245-.77l.28-.633a.58.58,0,0,1,.813-.269l1.1.638a1.916,1.916,0,0,0,1.055.253l2.475-.137,2.828-1.646a1.757,1.757,0,0,1,1.314-.179l1.841.48a1.129,1.129,0,0,1,.528.285l1.815,1.794a1.372,1.372,0,0,1,.338.528l.6,1.768a.638.638,0,0,0,.612.438h2.2a.881.881,0,0,1,.617.253l4.575,4.469.67.828a1.055,1.055,0,0,1,.158,1.087l-.306.739a.86.86,0,0,1-.3.369l-.987.681-2.237,1.757a.712.712,0,0,0-.211.259l-.528,1.055a.528.528,0,0,0,.095.628l.4.406a.686.686,0,0,0,.528.216h3.1a.443.443,0,0,1,.438.5v.148a.76.76,0,0,1-.232.443l-.317.3a.76.76,0,0,1-.528.2h-1.4a.607.607,0,0,0-.607.58l-.253,5.129-1.414,2.548.285,2.258.406,3.873-1.493.528a.681.681,0,0,0-.427.823l.058.19a1.024,1.024,0,0,0,1.029.749l3.124-.116a1.414,1.414,0,0,1,1.024.38l.776.728a.955.955,0,0,1,.185,1.161h0a.8.8,0,0,1-.807.412l-2.242-.274a.6.6,0,0,0-.617.348v.042a1.134,1.134,0,0,0,.206,1.24l.718.77a1.229,1.229,0,0,0,.718.38l3.308.528a1.747,1.747,0,0,1,.528.169l.849.443a.929.929,0,0,1,.5.881l-.142,2.432a1.762,1.762,0,0,0,.607,1.425l1.324,1.134.918,1.055a1.551,1.551,0,0,1,.153,1.8l-.338.57-2.111.966a3.165,3.165,0,0,0-1.055.77l-3.1,3.466a2.276,2.276,0,0,0-.169.211l-2.638,3.6a4.666,4.666,0,0,0-.5.881l-1.214,2.9a.343.343,0,0,1-.422.185c-.406-.132-.781-.037-1.235-.179l-3.282-1.055a2.865,2.865,0,0,1-1.435-1.024l-.77-1.029a2.717,2.717,0,0,1-.475-1.119l-.4-1.852L352,462.544a2.327,2.327,0,0,1-.026-.385V460.9a1.582,1.582,0,0,0-.116-.58l-.169-.427a1.287,1.287,0,0,0-.923-.776l-1.583-.332a1.583,1.583,0,0,1-.791-.417l-1.91-1.831a1.055,1.055,0,0,1-.2-1.266l.9-1.657a1.309,1.309,0,0,1,.528-.528l1.757-.918a.807.807,0,0,0,.427-.807l-.053-.454a1.055,1.055,0,0,0-1.029-.918h-1.863a1.615,1.615,0,0,1-1.2-.528l-.865-.976a1.546,1.546,0,0,0-1.156-.528h-1.467a1.888,1.888,0,0,1-.422-.053l-2.48-.591a1.694,1.694,0,0,1-1.219-1.182l-.322-1.166a1.235,1.235,0,0,0-.929-.871l-1.393-.3a.9.9,0,0,0-1.087.849l-.026.649a1.266,1.266,0,0,1-1.266,1.219h-.828a1.63,1.63,0,0,1-.422-.058l-1.752-.47a1.055,1.055,0,0,0-.987.227l-.554.491a.86.86,0,0,1-1.245-.111l-.417-.528a1.361,1.361,0,0,1-.28-.77l-.079-2.443a.923.923,0,0,0-.528-.844,1.171,1.171,0,0,1-.728-.86l-.306-1.462a1.277,1.277,0,0,0-.718-.9l-1.9-.865-1.208-.38a1.055,1.055,0,0,0-1.3.623l-.127.338a1.583,1.583,0,0,1-1.113.966h0a1.815,1.815,0,0,0-1.055.681l-2.638,3.482a1.535,1.535,0,0,1-1.119.617,1.055,1.055,0,0,1-1.055-.623l-.454-.96a1.767,1.767,0,0,1-.153-.944l.095-.818a1.582,1.582,0,0,1,.528-1.013l1.741-1.536a1.815,1.815,0,0,0,.57-1.4l-.032-1.989a1.652,1.652,0,0,0-.449-1.092l-1.266-1.345a.855.855,0,0,1-.264-.992l.338-.844a1.008,1.008,0,0,0-.227-1.113l1.4-.749A.528.528,0,0,0,314.871,428.38Z" transform="translate(1147.628 4092.296)"/><path class="c" d="M322.441,360.321l-.28.633a1.293,1.293,0,0,1-1.245.77l-2.079-.153a1.984,1.984,0,0,0-1.055.243h0a2.237,2.237,0,0,0-.908.981l-.069.127c-.2.691-2.005.908-2.7.723h0c-.485-.127-1.34-.739-1.3-1.219a.306.306,0,0,0-.058-.2h0A4.28,4.28,0,0,1,312.1,361a1.382,1.382,0,0,0-.5-.681l-1.53-1.746a.918.918,0,0,0-1.177.2h0a4.464,4.464,0,0,0-.739,2.738l-.232.433-.327.665a.649.649,0,0,1-1.055-.026l-.19-.285a2.522,2.522,0,0,1-.427-1.4v-.612a1.055,1.055,0,0,0-.6-.934l-.2-.09a.717.717,0,0,0-.9.259l-.96,1.461-.686,1.53a1.488,1.488,0,0,1-.923.823l-.649.206a1.688,1.688,0,0,1-1.557-.285l-.934-.744-.976-.09a1.055,1.055,0,0,0-1.1.86l-.185,1.092-1.082.908a2.672,2.672,0,0,1-.733.443l-1.8.744-.686.934a1.667,1.667,0,0,0-.19,1.625l.369.886.2,1.583a1.684,1.684,0,0,0,.6,1.092l.591.485a1.789,1.789,0,0,1,.612.981l.369,1.609.718.449a.981.981,0,0,0,1.193-.116l.9-.839a1.61,1.61,0,0,0,.427-.681c.1-.311.237-.754.359-1.113a.839.839,0,0,1,.871-.586h0a1.525,1.525,0,0,1,1.245.8l.169.3a1.309,1.309,0,0,1,.127.934l-.174.754a1.208,1.208,0,0,0,.343,1.155l.459.438a.464.464,0,0,1,.106.5l-.575,1.393a.527.527,0,0,1-.353.311l-1.583.443a.443.443,0,0,0-.28.227l-.116.232a.4.4,0,0,1-.433.216l-1.219-.222a.454.454,0,0,0-.5.259l-.375.823a.47.47,0,0,0-.037.211l.037.749a.528.528,0,0,1-.274.475l-1.4.749a.973.973,0,0,0-.206-.158l-.485-.29-.945-.38a.95.95,0,0,0-1.229.5l-.311.728.116.348a.728.728,0,0,1-.728.95l-.86-.053-1.1,1.024a2.01,2.01,0,0,0-.628,1.377l-.058,1.324a1.467,1.467,0,0,1-.427.976l-.464.464-4.448.264c-.037-.253-.063-.348-.153-.749l-.1-1.583a4.906,4.906,0,0,0-1.256-2.063l-1.662-1.055a.934.934,0,0,1-.332-1.119l.565-1.4.665-1.789a2.111,2.111,0,0,0-1.15-2.638L277,377.358a1.34,1.34,0,0,0-.5-.1h-1.789a2.316,2.316,0,0,1-1.319-.644l-1-1.055a5.655,5.655,0,0,1-.818-2.8l.749-1.778s1.583,2.037,3.393,1.055,1.52-1.752,1.467-3.693c-.142-5.35.427-7.466,1.952-7.973s2.29,2.543,3.646.253,2.205-2.111,3.562-.849,1.44,3.562,2.459,3.477.849-.844,5-1.947,4.221-3.055,4.923-4.411-1.81-3.166-.908-3.62,2.147-1.356.565-3.393-6.084-3.91-6.084-3.91c-.227-4.385-5.767-4.221-5.767-4.221-10.289-1.361-8.933.565-12.1,1.013s-4.137-6.469-4.137-6.469,2.074.844.844-2.928c0,0-.633-1.9,3.435-.528,0,0,.892,1.1.765-2.417,0,0,.565-1.018,3.5,1.356,0,0,3.335.849,4.295,3.05,0,0,1.145.723.259-5.72a20.208,20.208,0,0,1,4.221-5.387c2.717-2.374,3.646-8.753,4.411-9.466s1.1-3-.85-2.913a6.593,6.593,0,0,0,2.459-4.073l1.488-.285a.491.491,0,0,1,.575.575l-.127.67a.675.675,0,0,0,.6.813,3.056,3.056,0,0,1,2.812,3.06l-.1,1.367a.739.739,0,0,0,.913.765l1-.253a1.625,1.625,0,0,0,1.055-.849l.3-.6a1.134,1.134,0,0,1,.971-.628l.9-.037a.96.96,0,0,0,.818-.528l1.256-2.385.48.2c1.921-.169,2.485.454,2.485.454-.449.791-2.374,1.694-2.823,2.432s-.058,1.836,3.081,1.5,4.575,1.947,2.712,4.153-.253,3.815-2.037,5.086a4.147,4.147,0,0,0-1.863,2.886c.084,3.815,4.042,9.329,4.042,9.329s-.343-3.562.448-4.807,4.638-2.037,5.092.338,2.258,2.543,3.219,1.245,2.264-1.129,6.617-1.055,4.749,3.451,4.749,3.451a3.048,3.048,0,0,1-1.44,4.153,1.673,1.673,0,0,0-.776,1.715.57.57,0,0,1-.528.654c-.813,0-1.936.148-1.314.77.934.934,3.989,2.111,3.9,4.5-3.846.253-3.788,1.1-8.2,2.928s-7.387.886-8.875,1.62,1.868,1.868,4.015,1.134,3.335-1.134,4.068-.285-.528,6.068-.528,6.068S323.19,359.835,322.441,360.321Z" transform="translate(1166.712 4138.374)"/><path class="a" d="M214.942,383.389a1.414,1.414,0,0,1,1.1-.174l1.192.332a1.583,1.583,0,0,1,.923.7l1.53,2.454a.876.876,0,0,0,1.287.232l.791-.617a1.267,1.267,0,0,1,.881-.274l6.933.459a.243.243,0,0,0,.253-.185l.19-.855a1.024,1.024,0,0,1,.528-.7l1.182-.623.338-1.187.063-2.5a.813.813,0,0,0-.781-.834l-3.91-.121a.649.649,0,0,1-.628-.644.955.955,0,0,1,.818-.934l2.147-.306,1.177-1.055a1.2,1.2,0,0,1,.818-.306l3.092.074,1.446,1.055a1.324,1.324,0,0,0,1.53,0l.913-.649a1.456,1.456,0,0,0,.528-.649l1.008-2.533a1.293,1.293,0,0,1,1.345-.8l3.256.375a.169.169,0,0,1,.079.3l-.707.528a1.208,1.208,0,0,0-.5.918l-.121,2.49a1.435,1.435,0,0,1-.259.744l-.707.981a1.678,1.678,0,0,0-.3,1.055l.29,6.115a1.583,1.583,0,0,1-.185.823l-1.129,2.111a1.367,1.367,0,0,0,.174,1.546l.765.881c.106.121.5.079.881,0a2.358,2.358,0,0,1,1.456.237l.828.438s1.583,2.037,3.393,1.055,1.52-1.752,1.467-3.693c-.142-5.35.427-7.466,1.952-7.973s2.29,2.543,3.646.253,2.206-2.111,3.562-.85,1.44,3.562,2.459,3.477.85-.844,5-1.947,4.221-3.055,4.923-4.411-1.81-3.166-.908-3.62,2.147-1.356.565-3.393-6.11-3.926-6.11-3.926c-.227-4.385-5.767-4.221-5.767-4.221-10.289-1.361-8.933.565-12.1,1.013s-4.137-6.469-4.137-6.469c-2.5-5.092-6.685-5.2-8.379-5.007a3.44,3.44,0,0,1-1.483-.153,7.424,7.424,0,0,0-7.271,1.52.264.264,0,0,1,.206.427,8.363,8.363,0,0,1-2.322,2.037,4.637,4.637,0,0,1-1.72.612,1.923,1.923,0,0,1-.332.026c-4.86-4.522-7.123-.681-7.8-2.374v1.166a.76.76,0,0,0,.211.528l.913.987a.406.406,0,0,1-.032.591l-1.583,1.4a.638.638,0,0,0-.222.485v2.833a1.255,1.255,0,0,0,.153.6l.834,1.546a.528.528,0,0,1,0,.528l-.992,1.7a1.525,1.525,0,0,0-.211.77v1.266a.311.311,0,0,0,.237.3l2.211.57a1.319,1.319,0,0,1,.823.638l.881,1.583a.528.528,0,0,0,.723.206l1.108-.628a.691.691,0,0,1,.886.174l.433.528a1.013,1.013,0,0,1,.216.633v.565a.623.623,0,0,0,.354.559l1.393.654a.575.575,0,0,1,.327.454l.095.85a.369.369,0,0,1-.322.406l-1.425.19a.7.7,0,0,1-.607-.232l-1.44-1.662a.527.527,0,0,0-.454-.174l-1.609.206a.67.67,0,0,0-.491.327l-.528.886a1.187,1.187,0,0,0,.264,1.509l.987.828.77.617a.528.528,0,0,1,.137.686l-.723,1.319-.037.063-.718.971a.865.865,0,0,1-.248.232Z" transform="translate(1193.598 4117.079)"/><path class="f" d="M126.425,398.908l-.332-.96a.527.527,0,0,0-.216-.274l-.528-.332a.527.527,0,0,1-.232-.343l-.259-1.293a.491.491,0,0,0-.069-.185l-.58-1.055a.565.565,0,0,1-.074-.332l.179-2.464a.839.839,0,0,0-.77-.9l-2.016-.142a.527.527,0,0,0-.158,0l-2.242.485a.9.9,0,0,0-.4.2L117,392.793a.6.6,0,0,1-.3.132l-2.163.317.121-5.662a.644.644,0,0,0-.2-.47l-2.754-2.686a.908.908,0,0,1-.095-1.187l1.583-2.169a1.277,1.277,0,0,0,.248-.654l.137-1.583v-.079l-.148-5.313a.839.839,0,0,1,.675-.85l1.108-.222a1.362,1.362,0,0,1,.206,0h4.385a1.224,1.224,0,0,0,1.166-.855l.422-1.372a1.087,1.087,0,0,0,.037-.47l-.185-1.15a1.119,1.119,0,0,0-.475-.749l-2.364-1.615a1.678,1.678,0,0,1-.728-1.351l-.063-3.414a1.583,1.583,0,0,1,.332-1l1.942-2.533a2.242,2.242,0,0,0,.132-2.538l-2.242-3.635a1.731,1.731,0,0,0-1.82-.781l-3.176.665a1.134,1.134,0,0,1-.528,0l-.5-.137a.66.66,0,0,1-.422-.923l.765-1.62.707-1.509a.865.865,0,0,0-.106-.9l-1.936-2.4a.728.728,0,0,1,0-.9l.707-.892a.918.918,0,0,0,.2-.6l-.111-3.968a.765.765,0,0,1,.211-.528l2.575-2.638a.449.449,0,0,0,0-.623l-1.71-1.884a1.533,1.533,0,0,0-.306-.248l-2.849-1.662a1.219,1.219,0,0,1-.4-.385l-.9-1.388a1.2,1.2,0,0,1,0-1.314l.528-.823a1.219,1.219,0,0,0,.2-.67v-3.535a1.2,1.2,0,0,1,.063-.385l.364-1.161a.886.886,0,0,1,.528-.528l.918-.385a1.1,1.1,0,0,1,.47-.074l1.272.084a.786.786,0,0,0,.649-.28l.633-.754,1.145-1.535a.8.8,0,0,1,.57-.322l2.369-.216.6.955,1.129,1.361s2.717-4.406,6.332,0c0,0,3.509-2.717,2.828,1.356s4.411,3.5,4.522,1.467-.227-3.166,1.356-1.467,2.374,3.957,1.472,5.989c0,0,4.411,1.7.454,7.123,0,0,1.467-.791,4.295.681s8.59,1.018,11.756-.565a7.727,7.727,0,0,1,7.128,2.374s4.068.448,4.749,2.147h0v1.166a.76.76,0,0,0,.211.528l.913.987a.406.406,0,0,1-.032.591l-1.583,1.4a.638.638,0,0,0-.222.485v2.833a1.256,1.256,0,0,0,.153.6l.834,1.546a.528.528,0,0,1,0,.528l-.992,1.7a1.525,1.525,0,0,0-.211.77v1.266a.311.311,0,0,0,.237.3l2.211.57a1.319,1.319,0,0,1,.823.638l.881,1.583a.528.528,0,0,0,.723.206l1.108-.628a.691.691,0,0,1,.886.174l.433.528a1.013,1.013,0,0,1,.216.633v.565a.623.623,0,0,0,.354.559l1.393.654a.575.575,0,0,1,.327.454l.095.85a.369.369,0,0,1-.322.406l-1.425.19a.7.7,0,0,1-.607-.232l-1.44-1.662a.528.528,0,0,0-.454-.174l-1.609.206a.67.67,0,0,0-.491.327l-.528.886a1.187,1.187,0,0,0,.264,1.509l.987.828.77.617a.528.528,0,0,1,.137.686l-.723,1.319-.037.063-.7.945a.865.865,0,0,1-.248.232l-1.7,1.082.095-.053c-.058.037-.127.069-.185.111L161.6,369.3l-1.192.353a.338.338,0,0,1-.433-.375l.528-3.546a1.414,1.414,0,0,0-.66-1.419l-.528-.338a.934.934,0,0,0-1.324.359l-1.266,2.374a1.33,1.33,0,0,1-1.2.7l-4.5-.132a1.52,1.52,0,0,0-1.055.4l-2.512,2.3-1.942.554a1.319,1.319,0,0,1-.855-.037l-1.8-.681a1.346,1.346,0,0,0-1.525.417l-.633.791a1.583,1.583,0,0,1-.818.528l-2.607.686a.987.987,0,0,0-.728.987v.723a1.4,1.4,0,0,1-.733,1.282l-1.245.686a1.192,1.192,0,0,0-.623,1.055v1.24l2.8,1.187-1.7,1.272-.169,3.308-3.087-.253a.987.987,0,0,0-1.055.987v.96l.886.77a1.166,1.166,0,0,1,.4.844l.074,3.815.675,2.638.069,3.166a1.356,1.356,0,0,1-.944,1.314l-1.414.454-2.031,1.361-1.736-.76A.527.527,0,0,1,126.425,398.908Z" transform="translate(1243.382 4133.888)"/><path class="a" d="M126.425,398.908l-.332-.96a.527.527,0,0,0-.216-.274l-.528-.332a.527.527,0,0,1-.232-.343l-.259-1.293a.491.491,0,0,0-.069-.185l-.58-1.055a.565.565,0,0,1-.074-.332l.179-2.464a.839.839,0,0,0-.77-.9l-2.016-.142a.527.527,0,0,0-.158,0l-2.242.485a.9.9,0,0,0-.4.2L117,392.793a.6.6,0,0,1-.3.132l-2.163.317.121-5.662a.644.644,0,0,0-.2-.47l-2.754-2.686a.908.908,0,0,1-.095-1.187l1.583-2.169a1.277,1.277,0,0,0,.248-.654l.137-1.583v-.079l-.148-5.313a.839.839,0,0,1,.675-.85l1.108-.222a1.362,1.362,0,0,1,.206,0h4.385a1.224,1.224,0,0,0,1.166-.855l.422-1.372a1.087,1.087,0,0,0,.037-.47l-.185-1.15a1.119,1.119,0,0,0-.475-.749l-2.364-1.615a1.678,1.678,0,0,1-.728-1.351l-.063-3.414a1.583,1.583,0,0,1,.332-1l1.942-2.533a2.242,2.242,0,0,0,.132-2.538l-2.242-3.635a1.731,1.731,0,0,0-1.82-.781l-3.176.665a1.134,1.134,0,0,1-.528,0l-.5-.137a.66.66,0,0,1-.422-.923l.765-1.62.707-1.509a.865.865,0,0,0-.106-.9l-1.936-2.4a.728.728,0,0,1,0-.9l.707-.892a.918.918,0,0,0,.2-.6l-.111-3.968a.765.765,0,0,1,.211-.528l2.575-2.638a.449.449,0,0,0,0-.623l-1.71-1.884a1.533,1.533,0,0,0-.306-.248l-2.849-1.662a1.219,1.219,0,0,1-.4-.385l-.9-1.388a1.2,1.2,0,0,1,0-1.314l.528-.823a1.219,1.219,0,0,0,.2-.67v-3.535a1.2,1.2,0,0,1,.063-.385l.364-1.161a.886.886,0,0,1,.528-.528l.918-.385a1.1,1.1,0,0,1,.47-.074l1.272.084a.786.786,0,0,0,.649-.28l.633-.754,1.145-1.535a.8.8,0,0,1,.57-.322l2.369-.216.6.955,1.129,1.361s2.717-4.406,6.332,0c0,0,3.509-2.717,2.828,1.356s4.411,3.5,4.522,1.467-.227-3.166,1.356-1.467,2.374,3.957,1.472,5.989c0,0,4.411,1.7.454,7.123,0,0,1.467-.791,4.295.681s8.59,1.018,11.756-.565a7.727,7.727,0,0,1,7.128,2.374s4.068.448,4.749,2.147h0v1.166a.76.76,0,0,0,.211.528l.913.987a.406.406,0,0,1-.032.591l-1.583,1.4a.638.638,0,0,0-.222.485v2.833a1.256,1.256,0,0,0,.153.6l.834,1.546a.528.528,0,0,1,0,.528l-.992,1.7a1.525,1.525,0,0,0-.211.77v1.266a.311.311,0,0,0,.237.3l2.211.57a1.319,1.319,0,0,1,.823.638l.881,1.583a.528.528,0,0,0,.723.206l1.108-.628a.691.691,0,0,1,.886.174l.433.528a1.013,1.013,0,0,1,.216.633v.565a.623.623,0,0,0,.354.559l1.393.654a.575.575,0,0,1,.327.454l.095.85a.369.369,0,0,1-.322.406l-1.425.19a.7.7,0,0,1-.607-.232l-1.44-1.662a.528.528,0,0,0-.454-.174l-1.609.206a.67.67,0,0,0-.491.327l-.528.886a1.187,1.187,0,0,0,.264,1.509l.987.828.77.617a.528.528,0,0,1,.137.686l-.723,1.319-.037.063-.7.945a.865.865,0,0,1-.248.232l-1.7,1.082.095-.053c-.058.037-.127.069-.185.111L161.6,369.3l-1.192.353a.338.338,0,0,1-.433-.375l.528-3.546a1.414,1.414,0,0,0-.66-1.419l-.528-.338a.934.934,0,0,0-1.324.359l-1.266,2.374a1.33,1.33,0,0,1-1.2.7l-4.5-.132a1.52,1.52,0,0,0-1.055.4l-2.512,2.3-1.942.554a1.319,1.319,0,0,1-.855-.037l-1.8-.681a1.346,1.346,0,0,0-1.525.417l-.633.791a1.583,1.583,0,0,1-.818.528l-2.607.686a.987.987,0,0,0-.728.987v.723a1.4,1.4,0,0,1-.733,1.282l-1.245.686a1.192,1.192,0,0,0-.623,1.055v1.24l2.8,1.187-1.7,1.272-.169,3.308-3.087-.253a.987.987,0,0,0-1.055.987v.96l.886.77a1.166,1.166,0,0,1,.4.844l.074,3.815.675,2.638.069,3.166a1.356,1.356,0,0,1-.944,1.314l-1.414.454-2.031,1.361-1.736-.76A.527.527,0,0,1,126.425,398.908Z" transform="translate(1243.382 4133.888)"/><path class="a" d="M88.742,390.622l-.528.865a4.118,4.118,0,0,1-.528.7l-.575.591a2.232,2.232,0,0,0-.617,1.266l-.063.454a2.169,2.169,0,0,1-1.425,1.757l-.6.211-.127.048-1.815.765a2.2,2.2,0,0,1-1.119.153l-1.651-.206a3.224,3.224,0,0,1-.85-.232l-1.789-.776a2.473,2.473,0,0,1-.939-.707l-.427-.528a1.937,1.937,0,0,1-.438-.929l-.317-2.111a.9.9,0,0,0-.892-.765h-.939a1.367,1.367,0,0,1-1.082-.528l-.6-.8a1.055,1.055,0,0,1-.058-1.187l.528-.865a1.4,1.4,0,0,0,.185-.565l.148-1.831a1.082,1.082,0,0,0-.206-.739l-.733-.981-.623-1.2a2.2,2.2,0,0,1-.079-1.873l.28-.66.85-2.675.776-3.071a1.193,1.193,0,0,1,.047-.222l.528-2.923a1.356,1.356,0,0,0-.528-1.324L70.892,368.5a1.4,1.4,0,0,1-.528-.776l-.227-.855a.369.369,0,0,1,.348-.459l2.406-.058a1.694,1.694,0,0,0,1.272-.612l.739-.876a1.414,1.414,0,0,0,.322-.807l.063-.934a1.456,1.456,0,0,0-.269-.939l-.2-.274a.96.96,0,0,1-.053-1.018l1.145-2.026a2.058,2.058,0,0,0,.253-.981v-1.266a1.245,1.245,0,0,1,.206-.681l.327-.491a1.256,1.256,0,0,0,.216-.76v-.607a1.055,1.055,0,0,0-1.055-1H74.733a.834.834,0,0,1-.844-.813v-.559a1.351,1.351,0,0,0-.28-.792l-1.055-1.335a1.43,1.43,0,0,0-.332-.311L70.2,347.878a1.5,1.5,0,0,0-.828-.269l-2.454-.063a1.992,1.992,0,0,1-.612-.111l-3.166-1.087-2.67-1.055a1.5,1.5,0,0,1-.765-.691l-.733-1.4a1.657,1.657,0,0,1-.047-1.43l1.124-2.58a2.053,2.053,0,0,1,.47-.67l1.472-1.425a1.81,1.81,0,0,1,1.43-.5l2.279.222a3.356,3.356,0,0,0,1.826-.332l.4-.2a1.055,1.055,0,0,0,.528-.6l.222-.628a.385.385,0,0,0-.375-.528l-1.24.063a1.335,1.335,0,0,1-1.192-.591l-.121-.19a1.219,1.219,0,0,1-.19-.633l-.063-2.786a1.541,1.541,0,0,0-.591-1.177L63.215,327.9a1.763,1.763,0,0,1-.459-.528l-.485-.813a1.7,1.7,0,0,1,.2-2.021l.781-.871a1.736,1.736,0,0,0,.311-1.841l-.158-.364a.818.818,0,0,1,.285-.987l4.131-2.891a4,4,0,0,1,2.158-.718l1.878-.058a1.33,1.33,0,0,0,1.25-1.008v-3.952a.876.876,0,0,1,.67-.855l.364-.09a.969.969,0,0,1,.39,0l4.416.644a1.525,1.525,0,0,0,1.145-.285l.528-.422,1.5-1.4a1.673,1.673,0,0,0,.058.554c0,.063.127.206.311.364a3.691,3.691,0,0,0,1.192.2c1.14,0,2.543,0,2.986.818,0,0,3.53-4.97,8,1.757l-2.369.216a.8.8,0,0,0-.57.322l-1.171,1.535-.633.755a.786.786,0,0,1-.649.28L88,316.157a1.1,1.1,0,0,0-.47.074l-.918.385a.887.887,0,0,0-.528.528l-.364,1.161a1.2,1.2,0,0,0-.063.385v3.551a1.219,1.219,0,0,1-.2.67l-.528.823a1.2,1.2,0,0,0,0,1.314l.9,1.388a1.219,1.219,0,0,0,.4.385l2.849,1.662a1.534,1.534,0,0,1,.306.248l1.694,1.847a.448.448,0,0,1,0,.623l-2.575,2.638a.765.765,0,0,0-.211.528l.111,3.968a.918.918,0,0,1-.2.6l-.707.892a.728.728,0,0,0,0,.9l1.936,2.4a.865.865,0,0,1,.106.9l-.707,1.509-.76,1.662a.66.66,0,0,0,.422.923l.5.137a1.135,1.135,0,0,0,.528,0l3.2-.67a1.73,1.73,0,0,1,1.82.781L96.788,352a2.242,2.242,0,0,1-.132,2.538l-1.942,2.533a1.583,1.583,0,0,0-.332,1l.063,3.414a1.678,1.678,0,0,0,.728,1.351l2.364,1.615a1.119,1.119,0,0,1,.475.749l.185,1.15a1.087,1.087,0,0,1-.037.47l-.422,1.372a1.224,1.224,0,0,1-1.166.855h-4.59l-1.108.222a.839.839,0,0,0-.675.849l.148,5.313v.079l-.137,1.583a1.277,1.277,0,0,1-.248.654l-1.583,2.168a.908.908,0,0,0,.095,1.187l2.754,2.686a.644.644,0,0,1,.2.47l-.121,5.677H89.882A1.382,1.382,0,0,0,88.742,390.622Z" transform="translate(1266.624 4137.208)"/><path class="a" d="M34.374,298.865,31.366,301.2a1.587,1.587,0,0,1-.232.148l-1.055.528a1.667,1.667,0,0,1-1.609-.111l-.485-.317a1.351,1.351,0,0,0-.839-.222l-1.952.148a1.583,1.583,0,0,0-1.055.528l-.359.417a1,1,0,0,1-.749.343H21.974a1.129,1.129,0,0,1-1.055-.691l-.216-.528a.945.945,0,0,0-.359-.427l-.67-.438a1.092,1.092,0,0,0-1.14-.042l-.127.069a.9.9,0,0,0-.464.707l-.042.433a.686.686,0,0,1-.929.575l-.638-.243a.992.992,0,0,1-.591-.607l-.327-.934a1.583,1.583,0,0,1,.7-1.873l1.53-.881,3.393-1.921a1.271,1.271,0,0,0,.554-.654l1-2.8a1.108,1.108,0,0,0-.417-1.3l-7.334-5.007a1.524,1.524,0,0,0-.317-.169l-9.782-3.815-3.1-1.055a1.52,1.52,0,0,1-1.029-1.256l-.106-.828a1.736,1.736,0,0,1,.148-.923l.807-1.72a1.14,1.14,0,0,0-.106-1.156l-.306-.427a1.245,1.245,0,0,1,.106-1.583l.744-.786a1.14,1.14,0,0,1,1.34-.227l2.111,1.082a.881.881,0,0,0,1-.132l.137-.127a.607.607,0,0,1,.348-.158l3.008-.338a1.229,1.229,0,0,0,1.055-.871l.332-1.156a1.583,1.583,0,0,1,1.583-1.156H14.4a.791.791,0,0,0,.807-.791v-1.762a1.372,1.372,0,0,1,.575-1.124l3.894-2.765a.807.807,0,0,1,1.1.153l2.638,3.266a.835.835,0,0,1,.127.206L25,269.5a1.688,1.688,0,0,0,.934.855l1.994.77a2.9,2.9,0,0,0,2.111,0l3.139-1.235a2.047,2.047,0,0,1,1.166-.105l6.268,1.256a2.068,2.068,0,0,1,.39.116l2.322.944a2.074,2.074,0,0,0,2.047-.285l.19-.142s10.516,1.155,11.418,4.775-1.356,3.73-.791,5.656,1.134,2.374-1.129,3.614a5.615,5.615,0,0,0-.48,1.683l-1.5,1.4-.528.422a1.525,1.525,0,0,1-1.145.285l-4.385-.675a.972.972,0,0,0-.39,0l-.364.09a.876.876,0,0,0-.691.855v3.968a1.33,1.33,0,0,1-1.25,1.008l-1.878.058a4,4,0,0,0-2.142.712l-4.131,2.891-1.282.243a1.139,1.139,0,0,0-.522.211Z" transform="translate(1294.154 4159.281)"/><path class="g" d="M216.854,411.17l-.084.026Z" transform="translate(1191.995 4089.155)"/><path class="c" d="M389.061,417.046a.939.939,0,0,0-.5-.992l-.855-.443a1.641,1.641,0,0,0-.528-.169l-3.319-.528a1.209,1.209,0,0,1-.707-.375l-.733-.786a1.113,1.113,0,0,1-.2-1.219v-.053a.6.6,0,0,1,.617-.348l2.227.274a.8.8,0,0,0,.733-.28.955.955,0,0,0-.1-1.293l-.786-.733a1.382,1.382,0,0,0-1-.375l-3.166.116a1,1,0,0,1-1.008-.733l-.069-.222a.659.659,0,0,1,.412-.8l1.514-.528-.4-3.846-.285-2.258,1.414-2.548.253-5.15a.591.591,0,0,1,.586-.559h1.414a.76.76,0,0,0,.528-.2l.322-.3a.76.76,0,0,0,.232-.443v-.148a.443.443,0,0,0-.438-.5h-3.108a.7.7,0,0,1-.5-.206l-.412-.427a.528.528,0,0,1-.09-.6l.528-1.055a.849.849,0,0,1,.206-.248l2.242-1.762.992-.686a.808.808,0,0,0,.29-.359l.317-.755a1.055,1.055,0,0,0-.153-1.055l-.681-.839-4.585-4.474a.85.85,0,0,0-.6-.248h-2.227a.628.628,0,0,1-.6-.427l-.6-1.783a1.308,1.308,0,0,0-.327-.528l-1.768-1.815a1.1,1.1,0,0,0-.5-.28l-1.852-.48a1.689,1.689,0,0,0-1.3.179l-2.839,1.636-2.485.137a1.91,1.91,0,0,1-1.055-.248l-1.108-.644a.57.57,0,0,0-.612.037,5.2,5.2,0,0,0,0-2.638s1.24-5.218.528-6.068-1.921-.454-4.068.285-5.487-.4-4.015-1.134,4.464.206,8.875-1.62,4.353-2.675,8.2-2.928c0,0,3.984.591,5,0s1.525-3.562,4.153-3.393,2.111-1.187,4.411-.934a7.387,7.387,0,0,0,6.02-2.206c1.7-1.609,6.448-6.358,8.057-6.7s3.393-1.018,4.411-4.073l3.662-4.221a.153.153,0,0,0-.074-.248h0a.359.359,0,0,0,.343-.058c.755-.565,1.609-1.055,2.179-.823l.987.528a2.225,2.225,0,0,1,.633,3.277.735.735,0,0,0-.063.148c-1.055,3.408,1.583,2.986.137,5.34s.565,3.166-.565,4.633a4.253,4.253,0,0,0-1.018,2.717l.063,1.24a.638.638,0,0,1-.528.649l-.712.148a1.056,1.056,0,0,0-.459.222l-.354.3a1.119,1.119,0,0,0-.385.749l-.047.638.069,2.638a.855.855,0,0,1-.417.765l-.359.216a.675.675,0,0,1-.765-.037l-.944-.723a1.056,1.056,0,0,0-.67-.216l-3.034.068a.912.912,0,0,1-.638-.237l-1.451-1.319a1.659,1.659,0,0,0-.216-.164l-2.111-1.361a.918.918,0,0,0-.95-.032l-2.058,1.171-1.367,1.583a.528.528,0,0,0,0,.686l.739.981a.834.834,0,0,1,.174.528l-.047,2.723a.845.845,0,0,1-.116.417l-.5.849a1.055,1.055,0,0,0-.142.67l.211,1.868a.886.886,0,0,0,.206.459l.559.6a1,1,0,0,1,.253.6l.063.791a.66.66,0,0,0,.311.528l.844.528,1.477,1.309a.769.769,0,0,1,.169.222l.322.607a.8.8,0,0,1-.079.855l-.306.391-.327.38a.7.7,0,0,0,.148,1.055l.686.449.765,1.583a1.54,1.54,0,0,1,.148.617l.042,2.934a.443.443,0,0,0,.422.433l1.931.084a1.587,1.587,0,0,1,.385.074l2.638.839a1.854,1.854,0,0,1,.343.158l.528.322a.644.644,0,0,1,.311.591L404.98,387a1.055,1.055,0,0,0,.3.8l2.253,2.3a1.1,1.1,0,0,1,.322.733l.074,1.815a.839.839,0,0,1-.3.681l-.132.116a.918.918,0,0,0-.322.744l.09,1.583.169.623v1.688a.39.39,0,0,0,.39.39h.9a.676.676,0,0,1,.6.359l.047.09a.617.617,0,0,1-.222.813l-1.324.813a.829.829,0,0,0-.39.7v1.129a.374.374,0,0,1-.39.375l-3.477-.137a1.762,1.762,0,0,0-.818.164l-1.557.686a2.67,2.67,0,0,0-.338.2l-2.638,1.831a1.187,1.187,0,0,1-.675.211h-2.153a.633.633,0,0,0-.528.269l-.169.243a1.22,1.22,0,0,1-.38.353l-.739.433a.707.707,0,0,0-.354.67l.053.665a.654.654,0,0,1-.19.528l-.2.2a.528.528,0,0,0-.153.359l-.042,1.541a.7.7,0,0,1-.359.6l-.723.406a.94.94,0,0,0-.359.359l-.886,1.583-.855,2.316Z" transform="translate(1126.938 4123.78)"/><path class="c" d="M444.472,366.449c0,.243,5.72-.754,7.139-1.008a1.224,1.224,0,0,0,.57-.274c3.076-2.607,4.021-2.48,7.213-1.7a4.416,4.416,0,0,0,2.374.074v.95a.528.528,0,0,0,.243.427l.2.121a.607.607,0,0,1,.29.528v.871a.4.4,0,0,1-.4.4h-.681a.528.528,0,0,1-.427-.227l-.485-.712a.311.311,0,0,0-.528,0l-.417.58a.528.528,0,0,0,.063.67l.5.475a.67.67,0,0,1,.2.475v1.166a.591.591,0,0,1-.29.528l-.633.369a1,1,0,0,1-.19.084l-1.894.617a1.055,1.055,0,0,0-.528.412l-.828,1.266a.786.786,0,0,0-.127.406v.528a.654.654,0,0,1-.211.443l-.369.343a.528.528,0,0,0,0,.8l.353.3a.628.628,0,0,1,.227.528v.675a.575.575,0,0,1-.137.348l-.528.617a.57.57,0,0,0-.142.38v.253a.3.3,0,0,0,.3.3h.913a.8.8,0,0,0,.29-.053l1.467-.528,1.646-.686a.375.375,0,0,1,.4.074l1.018.955a.438.438,0,0,1,.074.528l-.528.881a.667.667,0,0,1-.069.1l-1.377,1.694a.779.779,0,0,0-.111.179l-.575,1.25a.655.655,0,0,0-.053.285l.063,1.414a.491.491,0,0,1-.19.417l-1.546,1.192a.422.422,0,0,0-.116.528l.269.528a.875.875,0,0,1,.095.464l-.047.654a.7.7,0,0,1-.185.422l-1.055,1.1a.6.6,0,0,0-.053.069l-.554.755a.4.4,0,0,0,.079.554l.733.57a.9.9,0,0,1,.338.654l.09,1.514a.669.669,0,0,0,.185.422l.422.449a.554.554,0,0,1,.158.427l-.058,1.2a.411.411,0,0,1-.185.311l-.174.111a.755.755,0,0,0-.179,1.113l.179.222a.733.733,0,0,0,.565.269H459.7a.491.491,0,0,1,.5.5l-.026,1.055a.564.564,0,0,1-.206.427l-.417.359a.7.7,0,0,0-.248.5l-.095,1.451a.744.744,0,0,1-.169.427l-.3.364a.66.66,0,0,0-.148.39l-.053.971a.443.443,0,0,1-.443.422h-2.184a1.11,1.11,0,0,0-.3.037l-.96.264a.527.527,0,0,0-.369.375l-.2.781a1.6,1.6,0,0,0-.032.227l-.121,4.036v.169l.121.781a.849.849,0,0,0,.6.691l.322.095a.354.354,0,0,1,.2.528l-.3.5a.528.528,0,0,0,0,.528l.237.438a.47.47,0,0,0,.528.232l1.013-.269a.528.528,0,0,1,.591.274l.232.491a.623.623,0,0,0,.29.28l1.008.459a.775.775,0,0,1,.4.422l.153.4a.38.38,0,0,1-.142.459l-.158.106a.718.718,0,0,1-.485.116l-2.686-.338a.528.528,0,0,1-.2-.058l-.828-.385a.739.739,0,0,0-.369-.063l-.528.121a.39.39,0,0,1-.448-.2l-.2-.353a.248.248,0,0,0-.253-.253l-2.158.074a.531.531,0,0,1-.09,0l-3.166-.348a.385.385,0,0,1-.343-.322l-.079-.47a.47.47,0,0,1,.158-.427l.475-.4a.617.617,0,0,1,.4-.148h2.512a.843.843,0,0,0,.28-.047l.8-.274a.528.528,0,0,0,.343-.406l.132-.765a.137.137,0,0,0-.132-.164l-2.976-.037-1.989-.042h-.179l-.427.09a.528.528,0,0,0-.4.338l-.174.427a.822.822,0,0,0-.058.3v1.4a.258.258,0,0,1-.269.259l-2.359-.063a.528.528,0,0,1-.406-.206l-.111-.148a.527.527,0,0,0-.427-.211h-1.119a.4.4,0,0,0,.412-.4v-1.14a.85.85,0,0,1,.4-.718l1.314-.807a.617.617,0,0,0,.222-.813l-.048-.09a.675.675,0,0,0-.6-.359H442.1a.412.412,0,0,1-.412-.412V408.18l-.169-.623-.084-1.583a.928.928,0,0,1,.322-.76l.127-.111a.839.839,0,0,0,.3-.681l-.074-1.8a1.134,1.134,0,0,0-.327-.755l-2.237-2.279a1.092,1.092,0,0,1-.311-.823l.063-.987a.676.676,0,0,0-.322-.612l-.528-.311a2.071,2.071,0,0,0-.348-.158l-2.638-.839a1.639,1.639,0,0,0-.4-.074L433.2,395.7a.464.464,0,0,1-.443-.454l-.042-2.907a1.531,1.531,0,0,0-.153-.628l-.76-1.583-.665-.433a.723.723,0,0,1-.153-1.055l.311-.359.3-.38a.8.8,0,0,0,.084-.876l-.311-.591a.834.834,0,0,0-.179-.227l-1.472-1.309-.834-.528a.67.67,0,0,1-.322-.528l-.063-.77a1,1,0,0,0-.259-.612l-.528-.617a.839.839,0,0,1-.211-.464l-.211-1.857a1.134,1.134,0,0,1,.142-.681l.491-.839a.832.832,0,0,0,.121-.427l.048-2.707a.882.882,0,0,0-.174-.528l-.728-.96a.57.57,0,0,1,0-.718l1.356-1.556,2.047-1.166a.944.944,0,0,1,.971.032l2.079,1.351.222.174,1.44,1.3a.939.939,0,0,0,.654.248l3.018-.069a1.1,1.1,0,0,1,.681.222l.929.707a.7.7,0,0,0,.791.042l.332-.2a.892.892,0,0,0,.427-.786l-.069-2.591.047-.638a1.113,1.113,0,0,1,.4-.765l.338-.29a1.081,1.081,0,0,1,.47-.227l.691-.142a.654.654,0,0,0,.528-.67Z" transform="translate(1092.663 4111.921)"/><path class="c" d="M487.58,421.938a.761.761,0,0,1,.285.306l.855,1.667a.528.528,0,0,0,.375.29l1.351.317a.713.713,0,0,0,.185,0h2.5a1.085,1.085,0,0,0,.343-.053l1.477-.48a.559.559,0,0,0,.364-.364l.427-1.3a.883.883,0,0,0,.032-.332l-.2-1.994a.709.709,0,0,1,0-.106v-5.561a1.507,1.507,0,0,0-.069-.427l-.332-1.055a1.266,1.266,0,0,1-.058-.348l-.222-13.191-.385-5.64a1.892,1.892,0,0,0-.037-.248l-.39-1.8a1.942,1.942,0,0,1-.037-.343v-8.553a.322.322,0,0,0-.227-.311l-1.14-.369a.311.311,0,0,1-.216-.3V381a.428.428,0,0,0-.105-.28l-.781-.865a.527.527,0,0,1-.127-.338V378.17a.285.285,0,0,0-.269-.285L489.8,377.8a.364.364,0,0,1-.306-.216l-.364-.839a.3.3,0,0,0-.38-.164l-.406.142a.528.528,0,0,1-.243.037l-1.335-.095a1.055,1.055,0,0,1-.343-.074l-2.148-1-.058.058-.069.053-.211.121-.438.259a.993.993,0,0,1-.19.085l-1.894.617a1.055,1.055,0,0,0-.528.412l-.828,1.266a.786.786,0,0,0-.127.406v.528a.654.654,0,0,1-.211.443l-.369.343a.528.528,0,0,0,0,.8l.354.3a.628.628,0,0,1,.227.528v.675a.575.575,0,0,1-.137.348l-.528.617a.57.57,0,0,0-.142.38v.253a.3.3,0,0,0,.3.3h.913a.8.8,0,0,0,.29-.053l1.467-.528,1.646-.686a.374.374,0,0,1,.4.074l1.018.955a.438.438,0,0,1,.074.528l-.528.881a.668.668,0,0,1-.069.1l-1.377,1.694a.778.778,0,0,0-.111.179l-.575,1.251a.655.655,0,0,0-.053.285l.063,1.414a.491.491,0,0,1-.19.417l-1.546,1.192a.422.422,0,0,0-.116.528l.269.528a.876.876,0,0,1,.095.464l-.047.654a.7.7,0,0,1-.185.422l-1.055,1.1a.59.59,0,0,0-.053.069l-.554.755a.4.4,0,0,0,.079.554l.733.57a.9.9,0,0,1,.338.654l.09,1.514a.67.67,0,0,0,.185.422l.422.448a.554.554,0,0,1,.158.427l-.058,1.2a.411.411,0,0,1-.185.311l-.174.111a.755.755,0,0,0-.179,1.113l.179.222a.733.733,0,0,0,.565.269H483.8a.491.491,0,0,1,.5.5l-.026,1.055a.564.564,0,0,1-.206.427l-.417.359a.7.7,0,0,0-.248.5l-.095,1.451a.745.745,0,0,1-.169.427l-.3.364a.659.659,0,0,0-.148.39l-.053.971a.443.443,0,0,1-.443.422H480a1.11,1.11,0,0,0-.3.037l-.96.264a.527.527,0,0,0-.369.375l-.2.781a1.583,1.583,0,0,0-.032.227L478.03,417v.169l.121.781a.849.849,0,0,0,.6.691l.322.1a.353.353,0,0,1,.2.528l-.3.5a.527.527,0,0,0,0,.528l.237.438a.469.469,0,0,0,.528.232l1.013-.269a.527.527,0,0,1,.591.274l.232.491a.623.623,0,0,0,.29.28l1.008.459Z" transform="translate(1068.59 4105.962)"/><path class="c" d="M349.993,564.416a.528.528,0,0,0-.111-.776l-.786-.206h-5.229l-1.847-.681a.026.026,0,0,1-.026,0L335.167,557h0l-4.063-5.2h0l-.765-1.9a2.168,2.168,0,0,1-.137-.58l-.09-1.14a.943.943,0,0,1,0-.174l.037-1,.369-.876.8-.876a.433.433,0,0,0,.116-.29l.09-3.234a2.522,2.522,0,0,1,.375-1.24l5.377-8.643c.026-.037.047-.074.079-.111l7.788-9.64v-.042l-4.416-1.43a2.813,2.813,0,0,1-1.409-1l-1.008-1.346a1.055,1.055,0,0,1-.2-.422l-.623-3.229a.026.026,0,0,0-.037,0l-5.888,2.638a.391.391,0,0,0-.19.19l-1.024,2.2a.364.364,0,0,1-.142.153l-1.43.749a1.055,1.055,0,0,0-.528,1.192l.749,3.166a2.449,2.449,0,0,0,.528,1.055l-.032,2.2a.586.586,0,0,1-.528.565l-1.625.206a.736.736,0,0,0-.153.047l-1,.5a.243.243,0,0,1-.121.026l-1.551-.042a.19.19,0,0,1-.137-.317l.733-.807a1.583,1.583,0,0,0,.274-.422l.069-.164a1.287,1.287,0,0,0-.259-1.409l-.855-.918h0l-.053-2.221a.739.739,0,0,0-.232-.528l-.77-.718a1.34,1.34,0,0,1-.422-.934v-.4a.776.776,0,0,0-.7-.755l-5.039-.528a.4.4,0,0,0-.433.39.607.607,0,0,1-.454.586l-.86.221a.121.121,0,0,0-.047.206l1.34,1.119a1.451,1.451,0,0,1,.528,1.108v8.194a.971.971,0,0,0,.96.971l2.9.037a.528.528,0,0,1,.528.528l-.032,1.261a1.967,1.967,0,0,0,.222.966l1.778,3.4v.095l-.174,1.377a.892.892,0,0,1-.348.612l-1.013.781a.553.553,0,0,1-.348.116l-5.582-.048a1.8,1.8,0,0,0-1.319.559l-3.292,3.472a.554.554,0,0,1-.749.053l-3.271-2.622a.845.845,0,0,0-.327-.169l-4.385-1.108-.237-.09-3.118-1.583a.767.767,0,0,0-.343-.084h-4.311v.317a1.055,1.055,0,0,1-.306.586,14.243,14.243,0,0,1-2.274,2.232h0v2.775h0l-.77.865a.6.6,0,0,1-.427.19h-2.749l-.322,2.063a.355.355,0,0,1-.048.111l-1.3,1.673a.277.277,0,0,1-.058.053l-1.462.9a1.288,1.288,0,0,1-.681.19h-3.989a.306.306,0,0,0-.306.306v1.409a.865.865,0,0,0,.164.528l1.388,1.878a.765.765,0,0,0,.617.311h4.912a1.356,1.356,0,0,1,1.055.5l1.52,1.873a.464.464,0,0,1,.111.306v3.013h0l-.327,1.235a1.92,1.92,0,0,1-.755,1.055h0l-1.108.285h0l-4.168-.037-.116,5.276a.449.449,0,0,0,.443.464l1.557.032a.026.026,0,0,1,.026,0l.121,1.7-.528.792h0l-.744.369a.026.026,0,0,0,0,.026l.084,2.712a.026.026,0,0,0,.026,0l2.005.042h0l3.166,1.857h0l2.147.079h-.016l1.435.058a3.8,3.8,0,0,0,.375-.216l1.192-.443,1.715-.649h1.562l.675-.438a1.271,1.271,0,0,1,.5-.158l1.293-.137a.231.231,0,0,0,.1-.037l.464-.29a1.258,1.258,0,0,1,.359-.148l1.936-.459h.069l1.873.412a.206.206,0,0,1,.079.032l.807.57a.19.19,0,0,0,.3-.158v-.918h3.192l1.351-.216v-.032l-.216-1.177h0l-.422-.528h0l-.385-1.1V571.6l1.425-.67h0l5.187-.248v-1.514l.026-.026,4.042-.042h0l3.3-.8h0l1.583-1.583h0l6.089.169h0l2.443-2.026h4.749l2.021,1.266h0l3.287-.248h0l3.034-1.013h1.952a.95.95,0,0,0,.718-.322Z" transform="translate(1162.106 4040.291)"/><path class="c" d="M435.487,613.3a.4.4,0,0,0-.142-.227l-8.685-7.065-.222-.248a1.055,1.055,0,0,1,.074-1.462l.433-.385a1.4,1.4,0,0,0,.422-.754l.1-.528a.617.617,0,0,0-.19-.58l-.385-.364a.96.96,0,0,0-1.166-.105l-.849.528-2.4,1.356-.612.417a2.743,2.743,0,0,1-1.831.469l-1.852-.19a.776.776,0,0,0-.718.327l-.074.106a.86.86,0,0,0,.074,1.055l.86.929a1.288,1.288,0,0,0,1.055.406l2.469-.19a2.18,2.18,0,0,1,1.113.211l4.749,2.29,3.081,1.947,2.111,1.615,1.625,1.156a.806.806,0,0,0,.48.148h.438a.222.222,0,0,0,.216-.274Z" transform="translate(1097.302 3999.28)"/><path class="c" d="M414.194,615.707a.438.438,0,0,0-.311-.137H412.8a.427.427,0,0,0-.417.528l.206.881a.427.427,0,0,0,.2.274l.976.565a.422.422,0,0,0,.528-.1l.6-.7a.438.438,0,0,0,0-.57Z" transform="translate(1099.605 3992.604)"/><path class="c" d="M424.844,619.617l-.665-.153a.66.66,0,0,0-.712.29l-.617,1a.66.66,0,0,0,.222.918l.818.48a.676.676,0,0,0,.617.032l.628-.3a.67.67,0,0,0,.375-.707l-.164-1.018a.665.665,0,0,0-.5-.543Z" transform="translate(1094.699 3990.774)"/><path class="e" d="M517.357,78.994l-.907,6.442c-.448,8.822-.565,11.534-1.81,12.552s-3.73,11.983-4.633,14.927-4.184,1.583-2.712,2.823,1.24,2.147,1.129,3.509-5.2,4.068-6.332,7.572-5.313,6.332-5.313,6.332c-4.073-.791-5.092.908-5.092.908-4.749.111-5.313-4.865-7.271-6.9s-4.485.338-5.392.559-2.258-.559-4.068-.111a2.638,2.638,0,0,1-2.712-.675,25.852,25.852,0,0,1,1.467-4.184,4.827,4.827,0,0,1,4.976-2.939c1.245-1.134-1.018-5.313-1.018-5.313l2.6-2.037-2.828-.681a13.718,13.718,0,0,0-.791-3.957h-4.522a6.2,6.2,0,0,0-1.694-4.295c.791-.565.675-2.712.675-2.712s2.264.791,3.055,0,3.5-.565,4.068-1.134-.222-2.712-.222-2.712,2.147-.675-.681-2.712-3.393-.227-4.411-.681-.338-2.485-3.166-3.277a12.136,12.136,0,0,1-4.184-1.921c-.449-5.883,1.926-3.736,2.6-4.527s3.846-1.921,3.846-1.921c.227-2.374,1.81-3.166,3.73-3.957a29.613,29.613,0,0,0,5.086-3.335s2.037-.422,2.543,2.543,3.139,4.918,4.923,3.73a2.348,2.348,0,0,0,.929-2.965c2.459.422,5.007-.6,2.717-1.44a4.118,4.118,0,0,1-2.717-2.374s4.749-.084,6.7-.084,6.274.675,8.564.929,4.327-2.111,5.345-.675a3.024,3.024,0,0,0,2.638,1.272s.649,2.29.987,3.134S516.793,78.034,517.357,78.994Z" transform="translate(1074.5 4248.498)"/><path class="h" d="M561.211,52.72l-5.171.338-.765,1.018H553.3a17.246,17.246,0,0,1-.343,3.6,6.523,6.523,0,0,0,.322,5.408l.274.406.8,2.57s.1.939.966.818a10.757,10.757,0,0,1,2.57-.29,1.493,1.493,0,0,1,.57.311s.623-4.918,1.356-6.274A18.732,18.732,0,0,0,561.211,52.72Z" transform="translate(1033.409 4260.578)"/></g></svg>