<svg xmlns="http://www.w3.org/2000/svg" xmlns:xlink="http://www.w3.org/1999/xlink" width="1920" height="1985" viewBox="0 0 1920 1985"><defs><style>.a,.c{fill:none;stroke:#fff;stroke-width:2px;}.b{clip-path:url(#a);}.c{stroke-miterlimit:10;}</style><clipPath id="a"><rect class="a" width="1920" height="1985"/></clipPath></defs><g transform="translate(0)"><g transform="translate(0 0)"><g class="b"><g transform="translate(-395.183 -643.577)"><path class="c" d="M1333.346-52.3q-23.21,154.014-58.145,302.911c-10.241,44.027-21.814,88.61-41.759,123.785-51.027,89.921-140.305,92.7-216.5,73.167-70.271-18.014-138.909-48.933-204.467-92.1C747.6,312.741,684.844,257.6,615.331,239.495S464.964,250.611,427.506,343.072c-22.275,55.1-25.834,124.817-17.129,188.456s28.676,122.157,50.822,177.38c25.373,63.2,54.816,127.239,58.631,201.438,3.943,76.859-23.427,155.465-67.055,192.465-62.036,52.642-137.975,19.612-207.565,0-88.382-24.971-183.191-24.773-263.943,36.326S-161.9,1332.952-153.609,1471.664" transform="translate(154.349 488.246)"/><path class="c" d="M1314.17-57.53q-22.559,150.563-57.1,295.884c-10.241,42.956-21.532,86.387-40.965,120.847-49.7,88.055-136.081,92.9-210.176,76.145q-26.4-5.955-52.486-14.451c-50.142-16.255-99.26-39.344-146.783-69-63.393-39.7-124.841-91.31-192.792-107.865s-144.555,13.7-184.138,99.806C415,374.956,404.973,410.818,400.393,448.764a443.744,443.744,0,0,0-1.741,78.8q1.134,18.308,3.61,36.326c6.81,48.593,21.3,96.153,37.15,141.372,1.562,4.486,3.149,8.932,4.737,13.419,24.784,69.356,50.95,140.3,52.384,217.913,1.383,74.715-24.041,150.86-66.568,187.185-60.449,51.928-134.16,22.192-201.471,5.6-5.3-1.31-10.625-2.541-15.976-3.613-80.8-16.753-165.294-9.925-237.392,47.878-76.809,61.614-135.569,191.473-126.275,326.255" transform="translate(157.831 472.713)"/><path class="c" d="M1294.931-62.76c-14.649,98.066-33.387,194.555-56.1,288.857-10.062,41.884-21.25,84.244-40.2,117.949-48.262,86.149-131.882,93.017-203.852,79.043q-25.6-5-51.053-12.426c-48.782-14.229-96.658-35.113-143.07-62.408-61.909-36.4-122.05-84.561-188.388-99.687S473.095,264.884,431.9,344.562C415.257,376.719,401.688,408.439,394.442,445a411.882,411.882,0,0,0-7.681,78.606c-.046,12.675.451,25.34,1.485,37.914,4.3,51.372,18.69,103.22,34.231,152.408,1.562,4.883,3.1,9.727,4.66,14.57,24.195,75.43,47.161,153.123,46.086,234.23-.9,72.452-24.656,146.017-66,181.985-58.887,51.134-130.294,24.693-195.352,11.235-5.121-1.072-10.241-2.064-15.362-2.938-78.038-13.1-158.893-3.176-227.33,55.143-72.995,62.17-128.016,189.131-117.775,319.982" transform="translate(161.401 457.18)"/><path class="c" d="M1275.842-68c-14.265,95.763-32.664,189.932-55.072,281.87-9.96,40.812-20.995,82.02-39.429,115.13-47.187,84.164-127.683,93.1-197.554,81.861q-24.886-3.97-49.593-10.362c-47.408-12.152-94.033-30.764-139.332-55.62-60.424-33.229-119.26-77.891-184.036-91.548s-134.212,18.7-176.662,92.223c-18.486,32-35.384,60.423-45.548,95.876a374.224,374.224,0,0,0-13.749,78.13,393.642,393.642,0,0,0-.742,39.7c1.792,54.151,16.079,110.485,31.338,163.485,1.511,5.24,3.021,10.481,4.557,15.88,23.606,81.742,43.525,165.668,39.915,250.864-2.919,70.031-25.3,141.292-65.493,176.7-57.223,50.419-126.454,27.274-189.259,16.872-4.967-.794-9.934-1.548-14.9-2.183-75.248-9.488-152.492,3.533-217.294,62.369-69.129,62.726-120.335,186.59-109.069,313.63" transform="translate(164.82 441.617)"/><path class="c" d="M1256.728-73.21c-13.88,93.427-31.948,185.238-54.074,274.764-9.806,39.7-20.739,79.718-38.661,112.033-45.753,82.5-123.458,93.454-191.2,85q-24.169-2.978-48.134-8.3a570.793,570.793,0,0,1-135.7-49.228c-58.887-30.093-116.469-71.46-179.632-83.37S479.7,278.453,436.454,346.062c-20.482,31.76-40.53,56.969-53.767,91.31a340.126,340.126,0,0,0-19.766,78.249,349.48,349.48,0,0,0-2.868,41.05c-.743,56.93,13.467,117.671,28.419,174.68l4.455,16.873C416.049,836,432.844,926.079,426.623,1015.4c-4.685,67.49-25.91,136.608-64.981,171.5-55.61,49.665-122.588,29.815-183.139,22.51-4.788-.6-9.576-1.072-14.363-1.469-72.431-5.955-146.04,10.243-207.206,69.475-65.211,63.242-112.654,184.446-100.441,307.437" transform="translate(168.265 426.143)"/><path class="c" d="M1237.568-78.44c-13.491,91.119-31.229,180.6-53.075,267.737-9.678,38.668-20.482,77.613-37.841,109.175-44.473,80.551-119.285,93.573-184.932,87.9q-23.4-2.025-46.674-6.273a539.922,539.922,0,0,1-131.907-42.638c-57.454-26.917-113.678-64.632-175.279-75.43S482.4,284.736,438.673,346.707c-22.48,31.76-45.676,53.516-61.755,86.824-11.5,23.408-20.176,49.851-25.6,78.05a325.467,325.467,0,0,0-5.121,42.558c-3.252,59.55,10.856,124.817,25.6,185.6,1.434,6.034,2.893,11.91,4.327,18.063,22.48,94.049,36.356,190.163,27.447,283.736-6.2,65.068-26.5,131.923-64.443,166.3-54.253,49.029-118.952,32.474-177.148,28.227-4.583-.318-9.192-.556-13.8-.715-69.692-2.223-139.691,16.952-197.144,76.819-61.32,63.8-105.2,182.1-91.813,301.164" transform="translate(171.756 410.61)"/><path class="c" d="M1218.789-83.67a2590.079,2590.079,0,0,1-52.1,260.71c-9.576,37.636-20.176,75.43-37.074,106.277-43.167,78.765-115.086,93.811-178.608,90.913q-22.659-1.032-45.241-4.208a512.921,512.921,0,0,1-128.2-36.047C721.6,310.154,666.682,276.012,606.694,266.8S485.13,290.939,441.221,347.75c-24.656,31.76-50.848,49.9-69.9,82.1-13.657,22.587-24.391,49.029-31.62,77.891a303.065,303.065,0,0,0-7.374,44.107c-5.761,62.488,8.27,132,22.608,196.872q2.151,9.607,4.25,19.215c21.891,100.2,33,202.232,21.2,300.211-7.527,62.528-27.114,127.04-64.008,161.023-52.384,48.2-114.907,34.9-170.952,33.785H132.165c-66.927,1.429-133.29,23.82-187.159,84.045-57.453,64.354-97.625,179.762-83.236,294.892" transform="translate(174.917 395.077)"/><path class="c" d="M1199.816-88.9a2413.777,2413.777,0,0,1-51.027,253.683c-9.422,36.564-19.894,73.207-36.305,103.22-41.835,76.9-110.862,93.97-172.284,93.851q-21.891,0-43.756-2.183a484.083,484.083,0,0,1-124.482-29.457c-54.484-20.565-108.1-51.293-166.421-59.034S480.956,285.471,443.7,348.316c-30.084,23.78-55.994,46.727-77.936,77.772-15.779,21.721-28.578,48.143-37.637,77.693a285.934,285.934,0,0,0-9.6,45.695c-8.27,65.227,5.658,138.95,19.714,207.671q2.1,10.2,4.148,20.406c21.3,106.356,29.8,214.38,14.952,316.647-8.705,60.026-27.651,122.633-63.5,155.822-50.8,47.441-111.066,37.437-164.859,39.422-4.25,0-8.475.4-12.8.714-64.136,5.042-126.915,30.37-177.123,91.31-53.536,64.909-90.021,177.419-74.608,288.619" transform="translate(178.144 379.544)"/><path class="c" d="M1180.822-94.13a2254.255,2254.255,0,0,1-50.028,246.656c-9.294,35.452-19.612,71.023-35.512,100.441-40.53,74.914-106.663,94.089-165.96,96.709q-21.148.953-42.322,0a462.593,462.593,0,0,1-120.77-22.827c-53-17.587-105.306-44.821-162.119-51.253s-120.8,14.887-158,73.485c-32.516,22.47-61.192,43.194-86.052,73.405-17.844,20.86-32.671,47.286-43.525,77.574a273.412,273.412,0,0,0-11.829,47.2c-10.779,68.006,3.072,146.295,16.821,218.747q2.048,10.719,4.045,21.557c20.713,112.51,26.755,226.29,8.705,333.083-9.78,57.327-28.394,117.631-62.958,150.423-49.184,46.687-107.2,39.978-158.74,45.02-4.071.4-8.116.913-12.187,1.469-61.448,8.694-120.514,37.08-167.086,98.536-49.645,65.386-82.417,175.037-66,282.307" transform="translate(181.469 364.011)"/><path class="c" d="M1162-99.36a2100.275,2100.275,0,0,1-49,239.629c-9.166,34.38-19.381,68.8-34.743,97.5-39.224,73.207-102.464,94.248-159.661,99.647a408.035,408.035,0,0,1-40.965,1.906,439.769,439.769,0,0,1-117.058-16.237c-51.514-14.252-102.413-38.033-157.767-42.8S485.85,295.5,448.674,349.845c-34.923,21.2-66.338,39.7-94.143,68.681-19.933,19.951-36.85,46.345-49.593,77.375a262.981,262.981,0,0,0-14.031,48.752c-13.288,70.785.461,153.441,13.928,229.784q2,11.315,3.943,22.708c20.124,118.7,23.913,238.2,2.56,349.6-10.677,55.024-29.085,113.066-62.369,145.342-47.673,45.973-103.437,42.558-152.723,50.7-3.892.635-7.681,1.35-11.649,2.183-58.58,12.307-114.113,43.67-157.05,105.761-45.753,65.942-74.812,172.695-57.377,276.034" transform="translate(184.619 348.478)"/><path class="c" d="M1143.239-104.59a1951.584,1951.584,0,0,1-48.006,232.6c-9.038,33.348-19.1,66.656-33.95,94.605-37.918,71.46-98.265,94.565-153.363,102.744q-19.612,2.938-39.378,3.97A421.532,421.532,0,0,1,755.2,319.644c-50-11.235-99.673-31.522-153.44-34.817s-113.422,15.88-150.547,65.743c-37.329,19.85-71.484,36.326-102.259,64.155A227.455,227.455,0,0,0,293.5,491.942a256.938,256.938,0,0,0-16.258,50.3c-15.8,73.564-2.151,160.626,11.009,240.86,1.306,7.94,2.56,15.88,3.866,23.82,19.561,124.857,21.225,250.388-3.764,366.034-11.368,52.642-29.674,108.46-61.857,140.181C180.407,1358.315,127,1358.2,79.966,1369.471c-3.712.873-7.425,1.826-11.112,2.9-55.815,15.88-107.712,50.5-146.988,112.986-41.887,66.5-67.234,170.353-48.646,269.96" transform="translate(187.713 332.944)"/><path class="c" d="M1124.741-109.82a1813.844,1813.844,0,0,1-47.033,225.575c-8.91,32.276-18.818,64.433-33.156,91.707-36.613,69.475-94.066,94.724-147.039,105.681a379.512,379.512,0,0,1-37.944,5.995,407.249,407.249,0,0,1-109.581-3.216c-48.646-7.94-96.934-24.733-148.985-26.559S491.4,305.521,454.169,351.335c-39.736,18.619-76.656,32.872-110.35,59.55A221.622,221.622,0,0,0,282.372,487.9a252.788,252.788,0,0,0-18.485,51.848c-18.281,76.423-4.788,167.852,8.065,251.976q1.92,12.506,3.738,25.051c19,131.01,18.793,262.615-9.985,382.509-12.059,50.181-30.186,103.7-61.448,134.98-44.37,44.464-95.679,47.64-140.459,61.972-3.508,1.151-7.041,2.342-10.548,3.652C.225,1419.464-48.063,1457.1-83.7,1520.1c-38,67.053-59.63,168.01-40.171,263.489" transform="translate(190.542 317.411)"/><path class="c" d="M1106.2-115a1673.84,1673.84,0,0,1-46.086,218.35c-8.756,31.2-18.537,62.21-32.388,88.769-35.281,67.49-89.841,94.923-140.817,108.619a351.3,351.3,0,0,1-36.459,7.94,393.2,393.2,0,0,1-105.92,3.533c-47.033-4.8-94.143-18.064-144.607-18.421S494.1,310.346,457.029,351.951c-42.117,17.389-81.8,29.3-118.44,55.064a216.653,216.653,0,0,0-67.464,76.859,249.5,249.5,0,0,0-20.687,53.4c-20.815,79.162-7.348,174.958,5.121,262.973q1.869,13.022,3.636,26.2c18.409,137.163,16.565,275-16.232,398.945-12.674,47.839-30.724,99.012-60.808,129.66-42.757,43.67-91.813,50.181-134.34,67.49-3.354,1.39-6.682,2.819-10.011,4.367-50.259,23.185-94.911,63.957-126.915,127.437-34.1,67.49-52.026,165.668-31.543,257.216" transform="translate(193.392 302.027)"/><path class="c" d="M1087.856-120.28A1553.607,1553.607,0,0,1,1042.9,91.242c-8.654,30.093-18.281,60.026-31.62,85.831-33.975,65.743-85.643,95.28-134.391,111.6q-17.41,5.876-35.025,10.084a382.362,382.362,0,0,1-102.182,10.124c-45.574-1.628-91.352-11.434-140.229-10.282s-98.726,27.79-139.358,54.429c-42.092,27.79-87.051,25.964-126.556,50.538a213.888,213.888,0,0,0-73.43,76.661,246.873,246.873,0,0,0-23.043,54.945c-23.324,81.941-9.934,182.1,2.33,273.93q1.792,13.657,3.533,27.393c17.922,143.357,14.568,287.587-22.48,415.381-13.109,45.536-31.313,94.248-60.167,124.38-41.17,42.955-87.972,52.88-128.246,73.247-3.175,1.588-6.324,3.3-9.473,5.082-47.468,26.837-88.51,70.666-116.878,134.662-30.212,68.125-44.447,163.326-23.043,250.944" transform="translate(196.064 286.345)"/><path class="c" d="M1069.712-125.5a1437.527,1437.527,0,0,1-43.961,204.455c-8.526,29.06-17.922,57.843-30.724,82.933-32.67,63.917-81.444,95.28-128.016,114.535q-16.616,6.908-33.54,12.148A375.538,375.538,0,0,1,734.8,305.245c-44.063,1.548-88.561-4.764-135.85-2.144s-95.679,27.195-135.7,50.618C418.445,380,371.079,376.268,328.6,399.771a211.643,211.643,0,0,0-79.344,76.184,246.33,246.33,0,0,0-25.117,56.493c-25.859,84.839-12.571,189.409-.589,285.2q1.767,14.173,3.431,28.544c17.231,149.51,12.8,300.41-28.727,431.857-13.7,43.392-32.03,89.6-59.758,119.1-39.557,42.32-84.106,55.421-122.127,78.963-3,1.866-5.966,3.97-8.936,5.836-44.7,30.45-82.109,77.375-106.816,141.888-26.346,68.681-36.869,160.984-14.338,244.671" transform="translate(198.538 270.842)"/><path class="c" d="M1051.84-130.73A1322.307,1322.307,0,0,1,1008.878,66.7c-8.372,27.79-17.717,55.58-30.033,80.035-31.364,62.011-77.245,95.28-121.769,117.472q-15.9,7.94-32.106,14.173a374.281,374.281,0,0,1-94.732,23.344c-42.578,4.685-85.745,1.866-131.447,5.995s-92.632,26.6-131.907,46.806c-47.622,24.257-97.343,18.9-142.814,41.288a214.88,214.88,0,0,0-85.361,76.3,245.476,245.476,0,0,0-27.344,58.041C183,617.5,196.208,726.591,207.857,826.318q1.741,14.768,3.354,29.656c16.668,155.584,11.393,313.59-34.974,448.332-14.159,41.248-32.618,84.918-59.22,113.979-37.944,41.486-80.266,57.763-116.033,84.521-2.816,2.1-5.633,4.288-8.4,6.551-41.938,34.1-75.734,84.085-96.78,149.113-22.454,69.237-29.264,158.8-5.709,238.4" transform="translate(200.742 255.309)"/><path class="c" d="M1034.288-136A1218.486,1218.486,0,0,1,992.35,54.56a509.471,509.471,0,0,1-29.136,76.9c-30.058,60.185-73.046,95.637-115.47,120.45q-15.131,8.893-30.724,16.237a379.481,379.481,0,0,1-91.045,29.894c-40.965,7.94-82.98,8.536-127.094,14.133S509.27,338.1,470.711,355.208c-50.285,22.272-102.515,15.682-150.9,36.8a217.173,217.173,0,0,0-91.4,76.264c-11.9,17.2-21.888,37.319-29.572,59.55-30.8,90.476-17.692,203.621-6.273,307.238q1.69,15.364,3.252,30.847c16.079,161.857,10.241,327.049-41.2,464.768C140,1369.9,121.331,1410.91,95.881,1439.455c-36.459,40.732-76.477,60.185-109.966,90.119-2.56,2.382-5.274,4.8-7.86,7.265-39.147,37.755-69.333,90.834-86.744,156.379-18.562,69.792-21.66,156.3,2.893,232.126" transform="translate(202.624 239.657)"/><path class="c" d="M1017.109-141.19A1114.862,1114.862,0,0,1,976.144,41.986a523.055,523.055,0,0,1-28.5,74.16c-28.676,58.319-68.77,95.836-109.069,123.388q-14.4,9.885-29.188,18.3a386.613,386.613,0,0,1-87.358,36.484c-39.608,11.037-80.163,15.205-122.69,22.272s-86.36,25.09-124.457,39.224c-53.127,19.85-107.533,12.228-158.944,32.4A217.229,217.229,0,0,0,218.649,464.2c-12.719,17.494-23.467,38.157-31.8,61.138-33.284,93.057-20.483,210.767-9.294,318.275q1.664,15.88,3.124,32c15.516,168.01,9.217,340.944-47.417,481.243-15.055,37.239-33.873,75.43-58.2,103.5-34.743,40.018-72.585,62.925-103.821,95.8-2.56,2.58-4.916,5.28-7.322,7.94-36.112,40.548-62.968,97.86-76.681,163.643-14.7,70.269-14.082,153.917,11.5,225.814" transform="translate(204.109 224.242)"/><path class="c" d="M1000.392-146.42A1016.068,1016.068,0,0,1,960.477,29.689a546.31,546.31,0,0,1-27.7,71.46c-27.421,56.493-64.622,96.034-102.822,126.365q-13.634,10.9-27.728,20.326a401.253,401.253,0,0,1-83.62,43.074c-38.123,14.213-77.373,21.835-118.338,30.41s-83.108,24.138-120.693,35.452c-55.892,16.833-112.807,8.813-167.061,27.79a219.018,219.018,0,0,0-103.257,75.708c-13.535,17.764-25.039,38.944-34.027,62.647-35.844,95.836-23.043,217.913-12.187,329.312q1.575,16.5,3.021,33.189c14.927,174.164,8.551,355.315-53.767,497.679-15.362,35.373-34.487,70.785-57.684,98.3-33.028,39.263-68.616,65.426-97.574,101.433q-3.405,4.208-6.759,8.694c-33.285,44.54-56.594,104.314-66.568,170.71-10.8,70.825-6.478,151.575,20.1,219.541" transform="translate(205.157 208.709)"/><path class="c" d="M984.47-151.65A928.414,928.414,0,0,1,945.579,17.432,592.581,592.581,0,0,1,918.644,85.8c-26.115,54.588-60.423,96.193-96.5,129.3q-12.9,11.91-26.269,22.351a420.979,420.979,0,0,1-79.933,49.7c-36.612,17.349-74.582,28.465-113.934,38.509s-79.779,23.105-116.981,31.76C426.423,371,367.075,362.7,309.852,380.687a224.056,224.056,0,0,0-109.223,75.43c-14.36,18.1-26.613,39.877-36.228,64.393C126,619.125,138.8,745.61,149.295,860.9c1.05,11.354,2.023,22.828,2.944,34.341,14.338,180.318,8.167,370.163-59.911,514.115-16.261,34.877-35.483,66.192-57.146,93.1-31.518,38.509-64.878,68.006-91.634,107.19-2.1,3.1-4.173,6.233-6.222,9.449-30.555,48.573-50.376,110.933-56.609,178.094-6.913,71.46,1.127,149.232,28.727,213.268" transform="translate(205.409 193.176)"/><path class="c" d="M969.245-156.88A844.366,844.366,0,0,1,931.353,5.175,641.841,641.841,0,0,1,905.212,70.6a504.908,504.908,0,0,1-90.2,132.241Q802.876,215.7,790.2,227.257a445.893,445.893,0,0,1-76.195,56.295A508.684,508.684,0,0,1,604.426,330.2c-37.56,11.434-76.3,21.994-113.243,27.79-61.243,9.806-123.1,1.906-183.267,18.818A227.11,227.11,0,0,0,192.7,452.237c-15.123,18.389-28.089,40.683-38.328,65.9-40.965,101.354-28.163,232.205-17.922,351.385,1,11.91,1.971,23.82,2.842,35.73,13.749,186.59,8.039,385.566-66.159,530.59A531.175,531.175,0,0,1,16.5,1523.661c-29.9,37.755-61.012,70.547-85.515,112.708-1.92,3.335-3.815,6.709-5.684,10.163-27.781,52.505-44.145,117.287-46.751,185.081-3.021,71.937,8.731,146.89,37.355,207" transform="translate(204.965 177.643)"/><path class="c" d="M954.874-162.11C934.75-7.518,869.487,128.375,785.534,217.065s-185.776,132.6-287.319,141.808c-63.8,5.757-128.272-1.548-191.358,14.252s-127.12,59.55-161.838,142.6C101.495,619.861,114.3,755.119,124.128,878.189c16.258,202.47,16.028,428.76-69.666,583.59-42.68,77.1-103.053,128.668-140.664,211.839-52.128,115.328-48.083,284.252,9.422,393.268" transform="translate(203.642 162.11)"/></g><g transform="translate(230.275 1168.609)"><path class="c" d="M89.94,909.305A2743.489,2743.489,0,0,1,218.98,664.753c20.482-34.42,42.168-68.681,69.333-89.206,69.461-52.364,152.518-1.509,217.934,62.13,60.322,58.694,115.93,128.3,165.653,207.353,49.209,78.288,93.375,166.74,153,225.02s141.457,79.916,199.065,16.912c34.283-37.477,54.919-99.687,62.728-163.564s3.968-129.859-2.714-194.054c-7.681-73.524-18.87-150.185-3.917-220.931,15.516-73.247,60.347-129.343,109.786-137.362,70.332-11.434,132.164,64.513,191.46,124.3,75.3,75.986,162.811,132.558,252.5,124.539s180.349-93.057,207.258-225.972" transform="translate(-89.94 -70.007)"/><path class="c" d="M93.57,933.167A2519.117,2519.117,0,0,1,220.818,693.418c20.278-33.586,41.707-66.973,68.411-87.141,53.639-40.494,115.393-19.85,170.747,19.85A451.087,451.087,0,0,1,503.5,662.135c59.626,55.493,114.779,121.795,164.3,197.508,49.03,74.914,92.965,160.427,151.955,216.444,33.079,31.482,72.278,53.039,110.887,56.93,33.617,3.335,66.978-7.027,94.86-36.6a163.754,163.754,0,0,0,14.159-17.309c27.37-38.549,43.986-93.97,51.206-150.86,2.294-18.037,3.841-36.284,4.634-54.627,2.048-48.156-.359-96.868-3.917-144.508-5.607-75.43-13.083-152.885,3.789-223.471S1155.077,380.98,1203.339,372.8c68.693-11.712,129.27,59.867,187.236,115.447,4.583,4.407,9.192,8.694,13.851,12.942,70.358,63.8,149.984,108.1,230.889,97.94,86.257-10.838,172.745-95.28,197.733-225.377" transform="translate(-84.276 -65.166)"/><path class="c" d="M97.2,971.59A2330.176,2330.176,0,0,1,222.656,736.685c20.073-32.792,41.272-65.267,67.49-85.117,52.691-39.7,113.191-21.279,167.675,15.88a438.074,438.074,0,0,1,42.962,33.745c58.915,52.3,113.6,115.316,162.887,187.7,48.8,71.46,92.607,154.155,151.059,208.226,34.334,31.76,74.556,54.31,114.344,59.153,34.564,3.97,69.129-5.6,98.086-35.372a156.561,156.561,0,0,0,14.7-17.587c28.522-39.263,45.548-96.352,53.382-154.83,2.453-18.7,4.163-37.623,5.121-56.652,2.56-49.466,1.177-99.568-1.127-148.359-3.533-77.574-7.3-155.505,11.5-226.052,17.922-66.974,59.118-119.934,106.2-128.31,67-11.91,126.351,55.183,183.011,106.595q6.682,5.955,13.519,11.91c68.693,58.8,145.759,98.059,223.439,85.236,82.8-13.617,165.14-97.821,188.209-224.7" transform="translate(-78.612 -75.203)"/><path class="c" d="M100.82,1011.559A2157.312,2157.312,0,0,1,224.534,781.3c19.817-31.958,40.786-63.52,66.568-83.052,51.693-39.184,110.964-22.629,164.577,11.91a428.058,428.058,0,0,1,42.45,31.919c58.213,49.079,112.433,108.775,161.5,177.817,48.646,68.363,92.3,147.8,149.958,199.89,35.614,32.157,76.81,55.58,117.775,61.376,35.537,4.963,71.356-4.208,101.312-34.182a155.814,155.814,0,0,0,15.362-17.825c29.648-40.018,47.084-98.813,55.482-159.118q3.944-28.84,5.735-58.24c3.175-50.816,2.688-102.307,1.639-152.25-1.485-79.6-1.613-158.006,19.2-228.593,18.818-63.877,58.529-115.13,104.435-123.824,65.339-12.267,123.433,50.538,178.761,97.741q6.554,5.6,13.211,10.957c67.055,53.793,141.534,88.055,215.963,72.572,79.37-16.476,157.562-100.242,178.736-224.107" transform="translate(-72.964 -86.668)"/><path class="c" d="M104.45,1051.686A1989.372,1989.372,0,0,1,226.372,826.468c19.612-31.164,40.351-61.852,65.647-81.027,50.745-38.509,108.788-23.82,161.5,8.139a405.135,405.135,0,0,1,41.81,29.338c57.5,45.872,111.25,102.264,160.1,167.97,48.39,65.029,91.992,141.372,148.934,191.473,36.894,32.475,79.139,56.851,121.256,63.52,36.459,5.8,73.532-2.739,104.538-32.951a159.578,159.578,0,0,0,15.848-18.063c30.724-40.772,48.646-101.275,57.581-163.366q4.2-29.608,6.324-59.788c3.738-52.126,4.2-105.046,4.429-156.18.563-81.583,3.994-160.428,26.883-231.133,19.689-60.741,57.914-110.525,102.643-119.3,63.675-12.505,120.514,45.893,174.562,88.888,4.25,3.414,8.552,6.709,12.8,9.965,65.39,48.791,137.31,78.011,208.512,59.868,75.888-19.294,149.983-102.585,169.211-223.432" transform="translate(-67.3 -98.251)"/><path class="c" d="M108.08,1091.725C144.263,1013.4,184.435,939.69,228.21,871.31c19.382-30.331,39.864-60.106,64.7-78.963,49.8-37.834,106.586-25.329,158.432,4.169a382.309,382.309,0,0,1,41.221,27.155C549.373,866.3,602.669,919.379,651.3,981.755c48.185,61.773,91.736,134.98,147.935,183.136,38.174,32.752,81.392,58.081,124.713,65.823,37.406,6.59,75.708-1.35,107.738-31.76a162.7,162.7,0,0,0,16.437-18.3c31.927-41.487,50.182-103.7,59.681-167.574q4.473-30.409,6.887-61.416c4.327-53.436,5.658-107.746,7.22-160.031,2.56-83.648,9.525-162.77,34.615-233.674,20.483-57.684,57.3-105.84,100.851-114.813,61.985-12.783,117.6,41.248,170.312,80.035,4.173,3.057,8.347,6.074,12.571,8.972,63.726,43.67,133.136,68.006,201.036,47.2,72.457-22.153,142.4-105.007,159.712-222.836" transform="translate(-61.636 -109.745)"/><path class="c" d="M111.71,1131.822c35.456-76.926,75.052-149.054,118.364-215.611,19.177-29.5,39.429-58.4,63.777-76.938,48.825-37.159,104.384-26.639,155.36.278a393.785,393.785,0,0,1,40.632,24.892c56.106,39.437,108.94,89.223,157.357,148.279,47.955,58.438,91.454,128.35,146.911,174.68,39.48,33.031,83.671,59.55,128.169,68.046,38.4,7.424,77.885,0,110.939-30.529a157.841,157.841,0,0,0,17-18.54c33.079-42.241,51.744-106.158,61.806-171.782,3.2-20.922,5.607-42.042,7.476-63,4.89-54.786,7.143-110.485,10.011-163.961,4.557-85.633,14.952-165.192,42.3-236.215,21.1-54.548,56.685-101.076,99.059-110.128,60.346-13.061,114.7,36.6,166.113,71.222,4.045,2.7,8.142,5.36,12.238,7.94,62.088,38.747,128.861,57.962,193.585,34.5,69-24.932,134.8-107.19,150.214-222.32" transform="translate(-55.972 -121.298)"/><path class="c" d="M115.34,1171.85c34.728-75.49,73.74-146.014,116.571-210.728,18.946-28.7,38.968-56.691,62.856-74.914,47.878-36.484,102.208-28.028,152.288-3.692a367.934,367.934,0,0,1,40.069,22.708c55.385,36.232,107.747,82.7,155.949,138.394,47.75,55.144,91.224,121.8,145.938,166.383,40.811,33.269,85.975,60.582,131.651,70.269,39.275,8.218,80.061,1.469,114.164-29.338a157.359,157.359,0,0,0,17.564-18.818c34.231-42.956,53.28-108.54,64.008-175.99,3.354-21.438,5.94-43.114,8.014-64.592,5.479-56.1,8.679-113.185,12.8-167.812,6.606-87.7,20.3-167.613,50-238.8,21.558-51.61,56.1-96.392,97.292-105.761,58.657-13.339,111.758,31.76,161.889,62.369q5.914,3.573,11.906,6.948c60.423,33.745,124.636,47.958,186.135,21.835,65.544-27.79,127.2-109.77,140.817-221.566" transform="translate(-50.308 -132.821)"/><path class="c" d="M119,1211.918c34.018-74.084,72.465-143.031,114.83-205.924,18.716-27.79,38.4-54.984,61.908-72.849,46.931-35.73,99.852-29.219,149.19-7.622a360.355,360.355,0,0,1,39.506,20.485C539.121,979,591.023,1022.165,639,1074.556c47.545,51.848,91.019,115.13,144.888,157.966,42.117,33.507,88.254,61.853,135.082,72.492,40.248,9.052,82.263,2.9,117.391-28.147a152.453,152.453,0,0,0,18.153-19.016c35.358-43.67,54.842-111.16,66.031-180.2,3.533-21.994,6.3-44.226,8.6-66.18,6.042-57.446,10.241-115.884,15.567-171.742,8.68-89.682,25.6-170,57.71-241.3,21.968-48.712,55.482-91.707,95.525-101.275,56.993-13.617,108.839,27.314,157.639,53.516,3.84,2.064,7.681,3.97,11.6,5.955,58.887,28.7,120.335,37.913,178.659,9.131,62.113-30.609,119.618-112.113,131.191-220.891" transform="translate(-44.597 -144.345)"/><path class="c" d="M122.59,1251.927c33.3-72.657,71.164-140.014,113.038-201.081,18.588-27.035,38.046-53.277,60.987-70.7,45.958-35.135,97.778-30.569,146.117-11.593a349.562,349.562,0,0,1,38.942,18.3c53.973,29.773,105.405,69.634,153.158,118.7,47.34,48.513,90.84,108.46,143.864,149.589,43.525,33.666,90.558,63.123,138.564,74.716,41.2,9.846,84.49,4.327,120.616-26.956a157.408,157.408,0,0,0,18.716-19.255c36.51-44.464,56.327-113.462,68.13-184.406,3.713-22.55,6.657-45.3,9.192-67.768,6.606-58.8,11.7-118.624,18.358-175.633,10.7-91.747,30.724-172.457,65.416-243.877,22.275-45.854,54.868-86.983,93.708-96.749,55.328-13.895,105.946,22.669,153.44,44.662,3.738,1.707,7.5,3.375,11.266,4.962,57.12,23.82,116.187,27.79,171.208-3.533,58.657-33.428,112.039-114.535,121.692-220.3" transform="translate(-38.996 -155.809)"/><path class="c" d="M126.22,1292.291c32.568-71.271,69.862-137.056,111.271-196.277,18.255-26.242,37.56-51.61,60.039-68.761,45.01-34.5,95.577-31.76,143.045-15.523a381.781,381.781,0,0,1,38.4,15.88c53.272,26.56,104.25,63.117,151.8,108.858,47.11,45.218,90.635,101.791,142.84,141.213,44.806,33.864,92.811,64.393,142.021,76.939,42.143,10.679,86.615,5.757,123.817-25.726a156.863,156.863,0,0,0,19.279-19.493c37.662-45.179,57.94-115.884,70.255-188.654,3.892-23.066,7.015-46.37,9.755-69.356,7.194-60.066,13.237-121.323,21.148-179.523,12.8-93.771,35.844-175,73.123-246.378,22.531-43.074,54.279-82.3,91.941-92.263,53.766-14.173,103,18.024,149.19,35.73,3.661,1.39,7.3,2.7,10.984,3.97,55.431,18.7,111.937,17.865,163.732-16.237,55.175-36.246,104.435-116.877,112.167-219.66" transform="translate(-33.332 -167.63)"/><path class="c" d="M129.85,1332.141c31.851-69.837,68.565-134.022,109.479-191.394,17.922-25.447,37.125-49.863,59.118-66.736,44.063-33.824,93.4-33.269,139.972-19.453a362.693,362.693,0,0,1,37.765,13.815c52.562,23.345,103.078,56.6,150.419,99.012,46.905,41.923,90.456,95,141.841,132.836,46.086,33.983,95.09,65.624,145.477,79.162,43.065,11.473,88.792,7.146,127.017-24.534a158.045,158.045,0,0,0,19.868-19.85c38.789-45.854,59.476-118.227,72.354-192.743,4.071-23.82,7.374-47.64,10.241-70.944,7.681-61.416,14.747-124.063,23.939-183.414,14.824-95.8,40.683-177.658,80.8-248.959,22.71-40.335,53.767-77.574,90.149-87.7,52-14.451,100.108,13.339,144.99,26.917,3.533,1.072,7.092,2.064,10.651,2.977,53.767,13.7,107.713,7.94,156.179-28.9,51.744-39.1,96.857-119.3,102.669-219.025" transform="translate(-27.668 -178.975)"/><path class="c" d="M133.48,1372.071c31.126-68.439,67.263-131.054,107.687-186.59,17.922-24.614,36.664-48.116,58.221-64.711,43.065-33.11,91.173-34.579,136.874-23.383a327.646,327.646,0,0,1,37.2,11.632c51.846,20.09,101.894,50.025,149.01,89.126,46.7,38.628,90.3,88.253,140.817,124.459,47.545,34.063,97.292,66.894,148.934,81.385,44.037,12.307,90.994,8.575,130.269-23.3a154.833,154.833,0,0,0,20.483-19.85c39.941-46.647,61.038-120.727,74.454-197.071,4.225-24.138,7.681-48.513,10.933-72.532,8.321-62.726,16.335-126.722,26.7-187.265,17-97.781,45.548-180.476,88.51-251.539,22.838-37.715,53.075-72.889,88.382-83.172,50.336-14.729,97.292,8.655,140.818,18.064,3.456.715,6.887,1.389,10.241,1.985,52.128,8.655,103.462-2.183,148.806-41.606,48.287-41.923,89.252-121.641,93.17-218.35" transform="translate(-22.004 -190.44)"/><path class="c" d="M137.11,1412.307c30.4-67.048,65.97-128.082,105.92-181.747,17.615-23.82,36.2-46.449,57.274-62.686,42.117-32.475,89-35.73,133.8-27.314a311.388,311.388,0,0,1,36.612,9.409c51.139,16.893,100.727,43.563,147.628,79.4,46.5,35.293,90.174,81.385,139.819,116.083,48.9,34.1,99.673,68.125,152.39,83.608,44.985,13.1,93.17,9.965,133.469-22.113a156.6,156.6,0,0,0,21.02-20.247c40.965-47.4,62.574-123.07,76.553-201.279,4.4-24.693,8.091-49.625,11.5-74.12,8.91-64.076,17.922-129.462,29.495-191.2,19.074-99.806,50.285-183.454,96.217-254.08,23.043-35.174,52.461-68.2,86.615-78.685,48.646-15.007,94.271,3.97,136.516,9.211,3.328.4,6.657.715,10.011.992,50.49,3.652,99.238-12.188,141.33-54.27,44.857-44.9,81.674-124.3,83.748-217.834" transform="translate(-16.34 -202.052)"/><path class="c" d="M140.73,1452.345c29.695-65.646,64.7-125.112,104.154-176.943,17.384-22.947,35.844-44.7,56.327-60.622,41.17-31.76,86.795-37.278,130.73-31.284a283.868,283.868,0,0,1,36.049,7.186c50.418,13.682,99.544,37.033,146.245,69.515,46.291,32.038,90.021,74.557,138.82,107.706,50.285,34.142,101.952,69.4,155.846,85.831,45.906,13.935,95.346,11.394,136.7-20.882a158.036,158.036,0,0,0,21.558-20.485c42.22-48.156,64.136-125.65,78.678-205.487,4.583-25.249,8.449-50.737,12.085-75.748,9.473-65.386,19.382-132.161,32.286-195.046,21.123-101.831,54.919-186.59,103.923-256.621,22.915-32.713,51.846-63.52,84.8-74.16,47.007-15.284,91.352-.635,132.317.357h9.678c48.825-1.35,95.013-22.232,133.879-66.974,41.4-47.64,74.1-126.4,74.249-217.119" transform="translate(-10.692 -213.546)"/><path class="c" d="M144.36,1492.611c28.985-64.243,63.434-122.119,102.413-172.06,16.952-22.774,35.544-42.437,55.405-58.6,40.2-31.125,84.49-38.668,127.657-35.214a309.985,309.985,0,0,1,35.46,4.963c49.7,10.408,98.365,30.413,144.863,59.55,46.086,28.7,89.867,67.49,137.771,99.25,51.693,34.142,104.23,70.705,159.328,88.094,46.854,14.689,97.522,12.823,139.9-19.85a158.923,158.923,0,0,0,22.147-20.723c43.371-48.91,65.672-128.072,80.778-209.735,4.762-25.765,8.807-51.61,12.648-77.3,10.036-66.736,20.892-134.98,35.076-198.976,23.171-103.816,59.451-190.084,111.63-259.122,23.043-30.37,51.206-58.8,83.031-69.673,45.318-15.562,88.433-5.28,128.016-8.5,3.124-.238,6.247-.6,9.371-.992,47.161-6.352,90.789-32.236,126.428-79.638,37.944-50.419,66.568-128.826,64.648-216.484" transform="translate(-5.028 -225.307)"/><path class="c" d="M148,1532.53c28.266-62.843,62.134-119.156,100.595-167.256a334.016,334.016,0,0,1,54.483-56.533c39.25-30.45,82.416-40.018,124.585-39.184a317.2,317.2,0,0,1,34.871,2.779c48.948,7.181,97.118,23.88,143.378,49.7,45.855,25.408,89.739,60.78,136.772,90.952,53.1,34.063,106.509,71.936,162.759,90.278,47.827,15.523,99.724,14.253,143.122-18.461a160.761,160.761,0,0,0,22.736-20.961c44.5-49.506,67.311-130.534,82.9-213.943,4.941-26.321,9.192-52.88,13.237-78.884,10.6-68.046,22.4-137.6,37.867-202.867,25.219-105.88,63.88-193.815,119.311-261.7,23.043-28.068,50.643-54.071,81.239-65.148,43.679-15.88,85.54-9.925,123.868-17.349,3.021-.6,6.042-1.27,9.038-1.985,45.523-11.394,86.564-42.28,118.952-92.342,34.513-53.2,58.887-131.01,55.149-215.849" transform="translate(0.652 -236.683)"/><path class="c" d="M151.62,1572.995c27.528-61.59,60.838-116.453,98.828-162.77a343.984,343.984,0,0,1,53.536-54.468c38.4-29.815,80.215-41.407,121.512-43.114a296.252,296.252,0,0,1,34.308.556c48.249,3.874,95.986,17.214,142.072,39.7,45.65,22.113,89.611,53.833,135.7,82.536,54.535,33.943,108.813,73.207,166.241,92.541,48.774,16.317,101.9,15.642,146.348-17.269a161,161,0,0,0,23.3-21.239c45.651-50.34,68.77-132.916,84.977-218.151,5.121-26.837,9.55-53.952,13.826-80.472,11.163-69.356,23.913-140.3,40.632-206.757,27.293-107.865,68.232-197.865,127.017-264.2,23.043-25.884,50.054-49.387,79.37-60.662,41.989-16.118,82.6-14.57,119.618-26.2,2.919-.913,5.838-1.906,8.731-2.978,43.405-15.793,82.451-52.565,111.5-105.006,31.031-56.056,51.206-133.591,45.625-215.214" transform="translate(6.3 -248.444)"/><path class="c" d="M155.25,1612.626c26.838-60.062,59.58-113.23,97.036-157.569a356.849,356.849,0,0,1,52.614-52.483c37.329-29.1,78.038-42.836,118.44-47.005a301.306,301.306,0,0,1,33.719-1.707c47.529.718,94.806,10.817,140.689,30.053,45.445,18.778,89.611,46.846,134.749,74.16,55.943,33.784,111.092,74.6,169.723,94.724,49.7,17.151,104.077,17.071,149.548-16.079a158.964,158.964,0,0,0,23.862-21.438c46.8-51.094,70.332-135.377,87.051-222.32,5.274-27.393,9.908-55.024,14.389-82.06,11.752-70.706,25.45-142.92,43.525-210.648,29.341-109.89,72.508-202.271,134.75-266.784,23.723-25.217,49.97-44.185,77.68-56.136,40.325-16.356,79.677-19.215,115.394-35.055,2.816-1.231,5.607-2.58,8.4-3.97,41.852-21.126,78.285-62.351,104.026-117.711,27.6-58.875,43.73-135.932,36.126-214.578" transform="translate(11.964 -259.73)"/><path class="c" d="M158.87,1652.783c26.14-58.677,58.326-110.287,95.269-152.766a374.933,374.933,0,0,1,51.693-50.419c36.188-27.523,75.259-44.786,115.368-50.975a326.243,326.243,0,0,1,33.156-3.97c46.8-2.514,93.616,4.263,139.307,20.168,45.215,15.483,89.355,39.7,133.725,65.783,57.377,33.547,113.371,75.708,173.154,96.947,50.643,17.984,106.253,18.5,152.774-14.848a161.148,161.148,0,0,0,24.425-21.676c47.929-51.848,71.868-137.838,89.2-226.568,5.453-27.79,10.241-56.136,14.978-83.687,12.315-72.016,26.96-145.739,46.086-214.38,31.389-111.954,76.809-207.036,142.43-269.365,23.65-22.518,49.185-39.884,75.887-51.61,38.661-16.634,76.81-23.82,111.169-43.908,2.714-1.588,5.428-3.216,8.091-4.962,40.338-26.509,74.2-72.205,96.7-130.494,24.144-61.733,36.126-138.354,26.628-213.943" transform="translate(17.613 -271.342)"/><path class="c" d="M162.5,1692.525c25.417-57.293,57.034-107.338,93.452-147.922,48.033-54.71,104.04-90.167,163.041-103.22a301.622,301.622,0,0,1,32.567-6.114,350.1,350.1,0,0,1,137.924,10.322c45.01,12.188,89.227,32.832,132.7,57.406,58.887,33.229,115.675,76.939,176.662,99.25,51.59,18.778,108.429,19.85,155.974-13.657a161.06,161.06,0,0,0,25.014-21.915c49.081-52.6,73.43-140.26,91.3-230.816,5.633-28.465,10.625-57.208,15.541-85.236,12.8-73.365,28.5-148.438,49-218.35,33.463-113.939,80.855-212.157,150.137-271.866,23.563-19.874,48.462-35.677,74.249-47.124,37-16.912,73.839-28.5,106.944-52.761,2.56-1.906,5.12-3.97,7.681-5.955,38.676-31.88,69.862-81.9,89.1-142.92,20.687-64.512,28.548-140.737,17.1-213.308" transform="translate(23.276 -282.539)"/><path class="c" d="M166.13,1732.889c57.069-130.534,151.059-216.8,250.757-248.323s204.287-11.116,300.223,41.169c60.3,32.872,117.928,78.249,180.067,101.394s132.061,21.4,184.8-34.579c65.979-70.071,88-202.47,109.53-321.848,35.409-196.436,92.171-405.3,209.613-496.766,58.58-45.536,127.12-56.969,182.525-111.16,76.81-75.192,115.214-233.436,89.227-368.416" transform="translate(28.94 -294.36)"/></g><g transform="translate(-676.512 -592.483)"><path class="c" d="M-264.23,148.751A2197.447,2197.447,0,0,1-108.87-55.743C-84.7-83.851-59.4-111.324-30.294-124.067,44.109-156.3,119.894-82.9,176.733-2.03,229.274,72.576,275.908,156.6,315.656,248.279c39.3,90.754,72.457,190.084,124.329,264.124S569.818,630.55,633.826,584.7c38.072-27.274,65.6-82.7,80.7-143.357s19.023-126.6,19.919-191.632c1.024-74.438-1.1-153,21.84-218.35,23.76-67.49,74.4-110.326,123.945-104.411C950.768-64.6,1002.742,27.388,1054.1,102.779,1119.339,198.5,1198.837,278.61,1287.91,295.84s188.209-41.129,230.121-164.358" transform="translate(264.23 200.926)"/><path class="c" d="M-262,152A2026.084,2026.084,0,0,1-108.944-48.206C-85.108-75.6-60.119-102.4-31.52-114.783c57.479-24.852,115.8,12.664,165.627,67.49A579.675,579.675,0,0,1,172.742.347c52.243,71.19,98.827,151.78,138.769,240.066,39.429,87.419,72.713,183.811,124.227,255.549,28.88,40.256,64.9,72.413,102.413,87.022,32.67,12.7,66.7,11.91,97.574-9.449a128.764,128.764,0,0,0,15.925-13.1c31.415-30.251,54.151-80.115,67.976-133.908,4.369-17.243,8.012-34.907,10.907-52.88,7.681-46.767,10.907-95.28,12.93-143.2C746.739,154.581,748.4,76.412,773.187,11.7S846.437-94.219,894.853-88.78c68.924,7.7,120.181,95.042,170.748,165.946,3.968,5.558,8.014,11.116,12.11,16.555,61.78,82.457,135.031,148.279,215.706,160.9,86.1,13.5,181.014-45.576,220.7-166.343" transform="translate(267.71 228.325)"/><path class="c" d="M-259.69,155.33A1862.069,1862.069,0,0,1-108.939-40.629c23.529-26.639,48.159-52.682,76.272-64.83C23.788-129.915,81.139-94.741,130.374-42.853a563.382,563.382,0,0,1,38.4,45.258c51.871,67.945,98.327,145.245,138.385,230.26,39.608,84.005,73.1,177.419,124.2,247.053,30.161,40.812,67.029,74.16,105.587,90.04,33.515,13.776,68.668,13.816,100.595-7.384a125.265,125.265,0,0,0,16.514-13.141c32.618-30.688,55.994-82.1,70.511-137.481q6.908-26.547,11.649-54.27c8.347-47.918,12.8-97.622,16.156-146.255,5.53-77.256,10.907-154.83,37.585-219.1,25.347-60.9,72.1-101.433,119.388-96.55,67.311,6.987,117.775,89.643,167.6,156.061q5.914,7.94,11.931,15.483c60.731,77.1,131.959,137.243,209.946,146.374,83.031,9.727,173.82-50.062,211.277-168.407" transform="translate(271.314 255.684)"/><path class="c" d="M-257.41,170.685Q-187.687,66.7-108.911-21.026C-85.69-46.91-61.392-72.12-33.792-84.109,21.639-108.167,78.017-75.3,126.688-26.187a534.339,534.339,0,0,1,38.021,42.876C216.281,81.244,262.7,155.12,302.966,236.746c39.787,80.829,73.43,171.266,124.073,238.6,31.287,41.566,69.129,76.145,108.737,93.295,34.359,14.848,70.665,15.88,103.616-5.28a123.055,123.055,0,0,0,17.1-13.26c33.822-31.045,57.812-84.005,73.1-141.014q7.215-27.218,12.392-55.58c9.038-49.069,14.543-99.885,19.33-149.312,7.809-78.685,16.8-155.862,45.471-219.462,25.936-57.6,71.074-97.067,117.16-92.66,65.7,6.233,115.521,84.243,164.475,146.136q5.786,7.3,11.726,14.451c59.681,71.659,128.963,126.206,203.98,131.8,79.958,5.955,166.651-54.548,201.855-170.472" transform="translate(274.871 270.937)"/><path class="c" d="M-255.14,192.6Q-186.776,90.4-109.022,5.137C-86.108-20.033-62.169-44.409-35.055-56.2,19.351-80.02,74.757-49.371,122.865-3.041a523.74,523.74,0,0,1,37.713,40.573c51.234,61.184,97.548,131.679,137.95,209.973C338.546,325,372.5,412.3,422.755,477.488c32.49,42.281,71.2,78.05,111.86,96.471,35.179,15.88,72.636,17.865,106.637-3.176a122.358,122.358,0,0,0,17.692-13.339c35.051-31.482,59.63-85.99,75.657-144.548q7.568-27.973,13.16-57.089c9.755-50.221,16.335-102.148,22.531-152.369,10.036-80.115,22.582-156.7,53.331-219.819,26.422-54.23,69.82-92.5,114.83-88.65,64.008,5.479,113.192,78.844,161.3,136.25,3.789,4.526,7.681,9.012,11.521,13.379,58.631,66.3,125.968,115.13,198.117,117.234,76.81,2.223,159.457-58.994,192.433-172.457" transform="translate(278.413 279.75)"/><path class="c" d="M-252.87,214.444c44.7-66.935,92.794-128.2,143.813-183.216C-86.475,6.813-62.971-16.73-36.242-28.322,17.141-51.586,71.548-23.4,119.118,20.112A495.679,495.679,0,0,1,156.5,58.343c50.912,57.835,97.159,124.946,137.745,199.89,40.2,74.16,74.531,158.324,124.2,221.446,33.745,42.916,73.4,79.916,115.009,99.607,36.024,16.992,74.633,19.85,109.658-1.112A123.133,123.133,0,0,0,661.419,564.8c36.228-31.76,61.448-87.975,78.192-148.121Q747.518,388,753.539,358.2c10.472-51.372,18.076-104.411,25.6-155.425,12.264-81.464,28.394-157.49,61.32-220.176,26.781-50.975,68.668-88.055,112.654-84.72,62.472,4.764,110.862,73.485,158.227,126.4q5.607,6.233,11.317,12.307c57.607,60.86,122.9,104.093,192.254,102.664,73.84-1.509,152.262-63.52,183.011-174.68" transform="translate(281.955 288.555)"/><path class="c" d="M-250.6,236.246c43.83-65.726,91.168-125.583,141.509-178.928C-86.817,33.5-63.518,10.909-37.4-.525,14.956-23.431,68.39,2.413,115.4,43.145c12.8,11.076,25.3,23.264,37.073,35.73,50.592,54.528,96.755,118.324,137.489,190,40.376,70.864,75.043,151.813,124.1,212.792,35.076,43.67,75.5,81.941,118.235,102.942,36.869,17.984,76.6,21.835,112.654.953a123.938,123.938,0,0,0,18.87-13.5c37.457-32.276,63.24-89.921,80.778-151.654,5.581-19.85,10.241-39.7,14.645-59.907,11.189-52.483,19.894-106.634,28.932-158.443,14.44-82.973,33.9-158.324,69.129-220.533,27.037-47.64,67.515-83.37,110.273-80.75,60.859,3.97,108.532,68.086,155.1,116.48,3.661,3.97,7.374,7.583,11.112,11.235,56.557,55.5,120.053,93.057,186.391,87.936,70.767-5.24,145.068-67.887,173.589-176.546" transform="translate(285.497 297.401)"/><path class="c" d="M-248.33,258.153c42.95-64.546,89.537-123.005,139.2-174.68,21.968-22.947,44.908-44.9,70.511-56.1,51.36-22.51,103.8.992,150.214,38.946a449.606,449.606,0,0,1,36.792,33.547c50.276,51.087,96.374,111.434,137.284,179.722,40.555,67.49,75.58,145.3,124.15,204.415,36.28,44.146,77.5,83.648,121.308,105.959,37.714,19.056,78.6,23.82,115.726,3.057a122.377,122.377,0,0,0,19.458-13.577c38.661-32.673,65.032-91.905,83.338-155.227,5.812-20.168,10.856-40.772,15.362-61.3,11.957-53.635,21.865-108.9,32.106-161.5,16.693-84.4,39.454-159.157,76.963-220.851C901.328-64.211,940.5-98.591,982.132-96.288c59.246,3.3,106.2,62.686,151.98,106.594,3.584,3.454,7.246,6.868,10.907,10.163,55.508,50.1,117.006,82.06,180.528,73.564,67.695-9.012,137.9-72.373,164.167-178.65" transform="translate(289.039 306.182)"/><path class="c" d="M-246,291.631c42.024-63.352,87.809-120.415,136.746-170.432,21.66-22.192,44.268-43.313,69.385-54.349,50.31-22.113,101.721-.754,147.628,34.221a451.4,451.4,0,0,1,36.459,31.2c50,47.72,96.071,104.684,137.207,169.638,40.735,64.314,76.144,138.95,124.15,195.919,37.406,44.742,79.472,85.514,124.2,109.1,38.533,20.128,80.573,25.845,118.747,5.121a120.818,120.818,0,0,0,20.047-13.617c39.89-33.11,66.85-93.851,85.9-158.8,6.068-20.644,11.342-41.725,16.181-62.686,12.622-54.786,23.5-111.16,35.281-164.556,19.074-85.831,45.01-160.07,84.849-221.01C918.047-50.385,956.017-83.336,996.5-81.51,1054.231-79.167,1100.47-24.5,1145.429,15.2c3.559,3.1,7.118,6.114,10.728,9.091,54.458,44.7,114.011,70.984,174.665,58.954,64.648-12.744,130.7-76.819,154.745-180.6" transform="translate(292.675 303.353)"/><path class="c" d="M-243.78,334.248c41.2-62.16,86.274-117.815,134.57-166.145,21.353-21.438,43.525-41.764,68.232-52.6,49.286-21.716,99.724-2.7,145.067,29.457a438.187,438.187,0,0,1,36.152,28.862c49.629,44.377,95.585,97.97,136.849,159.594C318.056,394.394,353.9,465.5,401.215,520.8c38.84,45.258,81.7,87.34,127.58,112.232,39.378,21.2,82.57,27.79,121.769,7.225A120.526,120.526,0,0,0,671.2,626.639c40.965-33.547,68.668-95.836,88.484-162.373,6.273-21.12,11.8-42.678,16.924-64.076,13.339-55.937,25.3-113.423,38.4-167.613,21.2-87.34,50.259-161.063,92.709-221.566,27.242-38.866,64.008-70.229,103.437-68.959C1067.2-56.122,1112.7-6.06,1156.866,28.876c3.482,2.739,6.99,5.439,10.523,7.94,53.408,39.3,111.015,59.947,168.8,44.424,61.448-16.515,123.51-81.306,145.3-182.62" transform="translate(296.138 291.384)"/><path class="c" d="M-241.51,376.846c40.331-60.974,84.661-115.247,132.266-161.936,21.02-20.684,42.962-40.176,67.08-50.856,48.262-21.319,97.7-4.645,142.507,24.773a393.184,393.184,0,0,1,35.844,26.48c49.3,41.03,95.189,91.238,136.644,149.51C313.8,422.5,350.128,490.269,396.9,543.665c40.146,45.854,83.825,89.285,130.73,115.408,40.223,22.272,84.49,29.854,124.79,9.329a123.7,123.7,0,0,0,21.251-13.816c42.3-33.9,70.46-97.781,91.019-165.906,6.5-21.6,12.315-43.67,17.666-65.465,14.056-57.089,27.139-115.646,41.682-170.71,23.478-88.65,55.533-162.135,100.569-221.923C951.8-5.465,987.569-35.2,1025.795-34.406c54.432,1.072,99.238,46.489,142.584,76.9,3.431,2.382,6.862,4.724,10.241,6.987,52.384,33.9,108.02,48.871,162.938,29.815,58.5-20.207,116.315-85.752,135.876-184.684" transform="translate(299.68 279.474)"/><path class="c" d="M-239.24,419.2c39.458-59.786,83.041-112.654,129.962-157.649,20.713-19.85,42.3-38.628,65.928-49.109,47.238-20.962,95.7-6.59,139.921,19.85a393.4,393.4,0,0,1,35.537,24.177c49,37.721,94.824,84.641,136.439,139.7,41.247,54.23,77.936,118.624,124.047,170.194,41.477,46.33,85.924,91.31,133.879,118.544,40.965,23.344,86.539,31.76,127.811,11.394a124.509,124.509,0,0,0,21.84-13.855c43.525-34.34,72.278-99.766,93.58-169.479,6.759-22.073,12.8-44.583,18.434-66.855,14.773-58.28,28.932-117.909,44.882-173.727,25.731-90.079,60.705-163.366,108.429-222.32,27.037-33.348,61.832-61.3,98.879-61.059,52.845.318,96.934,41.129,139.486,67.014,3.354,2.064,6.734,3.97,10.113,5.915C1241.237,90.48,1295,99.849,1347,77.26c55.457-23.82,109.146-90.238,126.454-186.59" transform="translate(303.222 267.773)"/><path class="c" d="M-237,461.824c38.6-58.645,81.462-110.125,127.734-153.4,20.482-19.215,41.656-37.119,64.776-47.4,46.239-20.525,93.708-8.5,137.361,15.285a391.354,391.354,0,0,1,35.23,21.835c48.662,34.26,94.411,77.7,136.209,129.343,41.477,51.054,78.55,112.033,124.047,161.817,42.885,46.806,88,93.017,137.028,121.68,41.861,24.416,88.484,33.864,130.807,13.5a123.8,123.8,0,0,0,22.428-13.935c44.729-34.737,74.07-101.711,96.165-173.013,6.964-22.589,13.262-45.615,19.177-68.324,15.49-59.55,30.724-120.092,48.057-176.744,28.164-91.31,65.8-164.755,116.315-222.638,26.832-30.728,60.679-56.85,96.6-57.128,51.206-.4,94.6,35.73,136.362,57.168,3.277,1.667,6.605,3.3,9.908,4.8,50.285,23.145,102.054,26.837,151.212.715C1404.8,47.594,1454.37-19.3,1469.45-113.35" transform="translate(306.717 255.833)"/><path class="c" d="M-234.69,504.322C-196.983,446.883-154.9,396.8-109.362,355.169c20.1-18.46,40.965-35.531,63.624-45.615,45.215-20.168,91.71-10.441,134.8,10.521,11.905,5.836,23.657,12.545,34.923,19.493,48.332,30.9,94.007,70.97,135.978,119.3,41.631,47.719,79.216,105.284,124.15,153.242,44.012,47.283,89.969,94.923,140.049,124.857,42.706,25.487,90.482,35.73,133.853,15.6a124.9,124.9,0,0,0,23.043-14.054c45.932-35.135,75.888-103.657,98.726-176.546C787,538.9,793.533,515.4,799.729,492.253c16.207-60.542,32.618-122.316,51.206-179.8C881.275,219.634,921.779,146.03,975.11,89.5c26.6-28.227,59.527-52.4,94.322-53.2,49.619-1.151,92.171,30.331,133.136,47.243,3.252,1.31,6.478,2.581,9.729,3.772,49.235,17.706,99.059,15.88,145.349-13.855,49.312-31.482,94.732-99.25,107.533-190.8" transform="translate(310.322 243.983)"/><path class="c" d="M-232.42,546.91c36.8-56.235,78.105-104.921,122.9-144.865,19.765-17.746,40.35-33.983,62.471-43.67,44.191-19.85,89.611-12.426,132.24,5.8a352.009,352.009,0,0,1,34.59,17.15c47.982,27.506,93.566,64.181,135.7,109.175,42.015,44.107,80.061,98.178,124.2,144.428,45.5,47.64,92.171,96.789,143.378,127.993,43.525,26.559,92.453,37.914,136.874,17.706a127.68,127.68,0,0,0,23.606-14.133c47.135-35.73,77.68-105.642,101.286-180.119,7.425-23.542,14.21-47.64,20.662-71.1,16.872-61.694,34.385-124.579,54.407-182.739C892.634,238.163,935.621,164.2,991.948,109.1c26.346-25.805,58.375-47.958,92.171-49.268,48.006-1.866,89.944,24.971,130.09,37.358,3.175.993,6.35,1.906,9.524,2.7,48.185,12.347,96.063,4.724,139.486-28.386,46.239-35.254,87.563-103.657,98.188-192.823" transform="translate(313.864 232.162)"/><path class="c" d="M-230.15,589.389c35.981-55.084,76.586-102.4,120.719-140.657,19.369-17.661,39.988-31.8,61.447-42.121,43.167-19.374,87.716-14.332,129.654,1.072a353.236,353.236,0,0,1,34.308,14.808c47.675,24.183,93.21,57.526,135.543,99.25,41.861,41.05,80.419,91.548,123.842,136.052,46.879,47.918,94.322,98.694,146.476,131.288,44.37,27.79,94.45,39.7,139.9,19.85a124.928,124.928,0,0,0,24.2-14.173C734.27,758.789,765.3,687.13,789.777,611.065c7.681-23.82,14.7-48.474,21.43-72.492,17.641-63.123,36.254-127.04,57.633-186.193,34.9-95.637,80.6-170.353,139.947-223.67,26.09-23.423,57.249-43.472,89.765-45.3,46.393-2.62,87.614,19.532,126.966,27.433,3.1.635,6.221,1.191,9.345,1.667,47.135,6.908,93.042-6.312,133.6-43,43.193-38.946,80.394-108.1,88.766-194.848" transform="translate(317.406 220.253)"/><path class="c" d="M-227.87,631.828c35.1-53.916,74.963-99.83,118.389-136.37a262.23,262.23,0,0,1,60.167-40.375c42.143-18.977,85.719-16.317,127.094-3.692,11.521,3.533,22.864,7.94,34,12.466,47.338,20.749,92.8,50.667,135.313,89.047,42.168,37.794,81.213,84.839,123.97,127.675,48.262,48.355,96.4,100.441,149.6,134.345,45.215,28.624,96.421,41.883,142.917,21.835a125.613,125.613,0,0,0,24.784-14.292c49.568-36.325,81.316-109.532,106.407-187.225,7.911-24.495,15.183-49.427,22.2-73.882,18.357-64,38.046-129.1,60.833-188.972,37.125-97.066,85.387-172.774,147.807-224.027,25.808-21.2,56.1-39.025,87.486-41.367,44.78-3.335,85.284,14.173,123.842,17.587,3.047.278,6.094.437,9.14.556,46.086,1.548,90.046-17.349,127.734-57.525,40.12-42.717,73.2-112.589,79.37-196.912" transform="translate(320.963 208.462)"/><path class="c" d="M-225.6,674.6c34.242-52.758,73.367-97.3,116.085-132.161a272.414,272.414,0,0,1,58.887-38.628c41.119-18.58,83.722-18.262,124.534-8.416a330.234,330.234,0,0,1,33.668,10.163c47.054,17.311,92.5,43.832,135.236,78.924,42.348,34.5,81.93,78.01,123.945,119.1,49.67,48.632,98.5,102.386,152.748,137.481,46.086,29.7,98.419,43.908,145.938,23.82a127.457,127.457,0,0,0,25.373-14.371c50.771-36.762,83.133-111.517,108.992-190.8,8.142-24.971,15.644-50.379,23.043-75.43C841.9,519.179,862.688,453,886.857,392.3c39.4-98.456,90.123-175.514,155.693-224.384,25.6-19.016,54.944-34.539,85.207-37.4,43.192-3.97,82.954,8.734,120.719,7.662,2.97,0,5.94-.238,8.935-.516,44.526-3.388,87.2-28.635,121.871-72.1,37.048-46.449,66.005-117.036,69.922-198.937" transform="translate(324.505 196.374)"/><path class="c" d="M-223.33,716.836c33.388-51.576,71.78-94.723,113.781-127.874a280.162,280.162,0,0,1,57.863-36.881c40.12-18.222,81.725-20.366,121.973-13.141a273.434,273.434,0,0,1,33.284,7.94c46.7,13.9,92.057,37,134.98,68.721,42.5,31.164,82.57,71.1,123.894,110.6,51.206,48.871,100.62,104.292,155.9,140.657,46.879,30.767,100.39,45.893,148.959,26a127.454,127.454,0,0,0,25.987-14.411c51.974-37.2,84.9-113.5,111.527-194.53,8.372-25.448,16.13-51.372,23.709-76.7,19.766-66.259,41.656-133.551,67.208-195.046,41.631-99.885,94.732-178.65,163.553-224.742,26.256-18.1,54.258-29.351,82.877-33.308,41.58-4.843,80.624,3.374,117.57-2.223q4.378-.635,8.756-1.548c43.613-9.11,84.234-39.456,116.008-86.665,33.975-50.221,58.887-121.522,60.474-200.961" transform="translate(328.047 184.791)"/><path class="c" d="M-221.06,759.216c32.536-50.4,70.2-92.149,111.476-123.586A293.951,293.951,0,0,1-52.873,600.5c39.1-17.825,79.728-22.311,119.387-17.9a311.273,311.273,0,0,1,33.079,5.439c46.325,10.61,91.583,30.369,134.673,58.8,42.68,27.909,83.261,64.195,123.868,102.108,52.563,49.03,102.72,106.158,159.047,143.793,47.724,31.76,102.413,47.918,152.006,28.108a129.9,129.9,0,0,0,26.5-14.491c53.178-37.6,86.718-115.487,114.088-197.944,8.628-25.924,16.617-52.325,24.451-78.09,20.483-67.49,43.525-135.814,70.409-198.1,43.909-101.314,99.52-182.183,171.541-225.059,25.878-15.564,53.017-25.517,80.65-29.576,39.966-5.558,78.294-1.985,114.446-11.91,2.868-.794,5.71-1.707,8.551-2.66,42.68-14.84,81.225-50.284,110.094-101.235,30.929-53.952,51.616-125.968,51.053-202.986" transform="translate(331.589 173.059)"/><path class="c" d="M-218.78,801.873c31.67-49.255,68.6-89.644,109.146-119.378a313.5,313.5,0,0,1,55.559-33.388c37.941-16.957,77.362-24.592,116.827-22.629a311.569,311.569,0,0,1,32.746,3.1c45.983,7.24,91.176,23.612,134.468,48.712,42.86,24.614,83.953,57.287,123.868,93.613C407.934,821.048,458.628,880,516,918.829c48.646,32.911,104.358,49.9,155.027,30.212a128.825,128.825,0,0,0,27.139-14.61c54.381-37.993,88.536-117.393,116.674-201.477,8.833-26.4,17.077-53.277,25.193-79.4,21.225-68.562,45.292-138.077,73.609-201.16,46.086-102.7,104.179-186.074,179.222-225.417a258.447,258.447,0,0,1,78.448-25.845c38.4-6.312,75.965-7.424,111.323-21.994,2.791-1.151,5.581-2.382,8.347-3.732,41.762-20.492,78.267-60.961,104.281-115.606,27.856-57.684,44.447-130.454,41.631-205.05" transform="translate(335.146 161.09)"/><path class="c" d="M-216.51,844.213c71.3-112.272,173.845-170.71,275.516-173.926s202.265,46.131,290.519,124.42c55.482,49.228,106.893,109.929,165.32,150.106s127.4,57.962,185.776,17.627c73.071-50.459,110.094-174.481,145.2-285.84,57.684-183.414,137.668-372.981,263.943-430.07,62.907-28.425,131.651-20.485,192.459-58.319,84.311-52.483,140.408-197.388,130.576-337.45" transform="translate(338.688 149.24)"/></g><g transform="translate(-109.369 -300.529)"><path class="c" d="M-41.8,2253.5c-10.753-134.98,75.171-249.038,161.838-269.96S293.65,2005.85,379.548,2033.6s182.5,36.881,254.239-41.407C725.5,1892.11,746.7,1681.581,841.173,1587.571c73.532-73.246,169.262-51.332,244.587,3.176,42.6,30.807,78.832,82.655,119.541,118.782,184.675,163.762,197.144,498.473,354.015,548.376,169.749,54.111,261.92-74.318,293.975-163.207,40.965-114.058,109.556-410.1-58.222-615.826-68.181-83.568-135.466-172.655-185.6-282.7-75.094-164.715-74.582-416.612,21.43-552.743,65.8-93.295,166.856-127.437,211.559-247.053,30.032-80.392,25.936-184.049,0-267.935S1771.822-21.907,1722.895-75.7" transform="translate(42.717 75.7)"/><path class="c" d="M-40.565,2250.566c-7.425-138.95,78.038-258.844,167.291-282.743,87.051-23.3,175.51,19.652,261.408,50.26,84.874,30.291,179.222,43.987,250.6-27.155,91.352-91.072,117.032-290.922,211.277-383.7,75.068-73.485,169.262-59.828,246.4-12.188,44.319,27.393,83.594,76.264,126.224,112.867,180.784,155.306,195.762,479.14,349.125,528.367,165.063,52.841,256.748-68.681,290.058-156.339,42.219-111.16,107.533-396.285-51-599.47-65.365-83.846-130.167-174.68-179.5-283.974-72.867-160.864-73.532-403.749,17.077-538.729,62.7-93.374,160.122-131.407,204.62-249.475,30.545-80.75,28.676-182.9,6.119-267.38C1836.351,55.434,1794.771-14.636,1747.866-72.4" transform="translate(45.371 85.501)"/><path class="c" d="M-39.233,2247.534c-4.1-142.722,80.906-268.571,172.744-295.408,87.588-25.567,177.4,16.952,263.3,50.5,83.876,32.752,175.714,51.054,246.994-12.982,90.968-82.02,120.975-271.508,215.246-362.7,76.477-74.041,169.365-68.443,248.2-27.552,46.086,23.82,88.331,69.832,132.932,106.952,176.662,147.208,194.174,459.766,344.234,508.16,160.3,51.61,251.423-63,286.013-149.232,43.346-108.064,105.562-382.629-43.73-583.59-62.6-84.2-124.918-176.625-173.436-285.324-70.665-156.934-72.483-390.965,12.8-524.635,59.578-93.255,153.312-135.139,197.631-251.658C1894.752,339,1895.11,238.237,1875.78,153.2c-19.714-86.744-57.812-160.547-102.848-222.32" transform="translate(47.931 95.243)"/><path class="c" d="M-37.8,2244.393c-.768-146.612,83.774-278.3,178.2-308.112,88.049-27.79,179.222,14.213,265.2,50.737,82.852,35.174,172.309,58.121,243.358,1.231C739.566,1915.24,774,1736.312,868.2,1646.471c77.962-74.358,169.544-77.137,250.015-42.916,47.9,20.366,93.042,63.52,139.614,101.076,172.514,139.426,192.715,440.392,339.37,488.31,155.488,50.419,246.072-57.327,281.942-142.126,44.447-105.047,103.616-369.21-36.484-567.313-59.835-84.6-119.439-178.65-167.342-286.594-68.156-153.361-71.458-378.262,8.372-510.621,56.506-93.652,146.476-139.546,190.769-254.4,31.441-81.663,34.206-180.913,18.1-266.347C1875.911,77.249,1841.347-.166,1798.1-65.79" transform="translate(50.386 105.133)"/><path class="c" d="M-36.28,2241.43c2.56-150.5,86.641-287.984,183.677-320.776,88.459-29.934,181.117,11.433,267.066,50.9,81.93,37.6,168.981,65.227,239.748,15.443,90.226-63.957,129.091-232.324,223.208-320.816,79.37-74.715,169.8-85.951,251.807-58.28,49.773,16.793,97.779,57.089,146.3,95.28,168.213,132,191.256,421.058,334.505,468.222,150.7,49.267,240.67-51.61,277.9-134.98,45.523-102.029,101.7-356.029-29.213-551.155-57.1-85.077-114.113-180.833-161.3-287.9-65.877-149.51-70.434-365.637,4.02-496.528,53.459-94.01,139.716-143.714,183.882-257.1,31.9-81.822,37-179.841,24.093-265.791-13.544-89.921-44.831-170.71-86.052-240.463" transform="translate(52.761 114.845)"/><path class="c" d="M-34.76,2238.249c5.914-154.354,89.611-297.551,189.131-333.48,88.92-32.078,183.011,8.655,268.961,51.133,80.855,39.978,165.576,72.532,236.112,29.656,89.944-54.667,133.136-212.713,227.2-299.894,80.957-75.033,170.082-94.883,253.625-73.6,51.642,13.141,102.413,50.736,152.979,89.245,163.86,124.817,189.8,401.684,329.615,448.173,145.938,48.037,235.37-45.973,273.954-127.913,46.547-99.012,99.852-343.048-21.993-534.918-54.355-85.673-108.762-182.9-155.181-289.215-63.573-145.7-69.436-353.33-.307-482.514,50.31-94.129,132.829-147.565,176.815-259.241,32.414-82.179,39.915-178.928,30.084-265.275A698.369,698.369,0,0,0,1848.608-59.19" transform="translate(55.133 124.735)"/><path class="c" d="M-33.24,2235.227c9.243-158.244,92.376-307.159,194.584-346.145,89.381-34.142,184.88,5.8,270.856,51.372,79.856,42.281,162.17,79.638,232.5,43.67,89.611-45.576,137.233-193.061,231.171-278.932,82.442-75.43,170.415-103.935,255.417-88.968,53.562,9.449,107.123,44.424,159.687,83.37,159.3,117.949,188.337,382.47,324.75,428.284,141.1,46.965,229.942-40.375,269.806-120.807,47.571-96.074,97.983-330.383-14.747-518.76-54.5-90.687-104.352-187.823-149.113-290.524-61.448-141.809-68.463-340.745-4.66-468.46,47.238-94.565,126.147-151.654,169.979-261.742,32.875-82.536,42.757-178.094,36.075-264.72-7.22-93.374-31.825-181.27-69.128-258.765" transform="translate(57.504 134.506)"/><path class="c" d="M-31.72,2232.145c12.6-162.1,95.244-316.687,200.037-358.849,89.867-36.167,186.9,2.938,272.75,51.61,78.858,44.623,158.74,86.784,228.867,58.081,89.2-36.524,141.3-173.449,235.165-258.05,83.953-75.668,170.773-113.145,257.235-104.332,55.456,5.637,111.758,38.152,166.421,77.415,154.592,111.16,186.9,362.977,319.886,408.116,136.311,45.615,224.54-34.658,265.761-113.7,48.646-93.1,96.242-317.957-7.476-502.562A3075.072,3075.072,0,0,1,1763.906,1198c-59.041-137.957-67.515-328.477-9.012-454.366,44.166-95,119.387-155.664,163.067-264.164,31.436-79.117,46.135-171.493,42.04-264.2-3.968-95.28-25.322-186.59-60.807-267.856" transform="translate(59.876 144.337)"/><path class="c" d="M-30.2,2229.182c15.874-165.986,98.111-326.215,205.491-371.632,90.328-38.152,188.644,0,274.645,51.809,77.859,46.846,155.385,93.891,225.308,72.254,88.792-27.473,145.4-153.719,239.133-237.009,85.463-75.946,171.157-122.435,259.027-119.7,57.4,1.786,116.417,31.76,173.052,71.46,149.881,104.808,185.418,343.6,314.919,388.028,131.523,44.464,219.137-29.021,261.741-106.555,49.516-90.2,94.6-305.69-.256-486.4-46.086-87.975-92.786-188.972-136.926-293.145-56.788-134.107-66.568-316.329-13.365-440.313,40.965-95.558,112.654-159.713,156.179-266.665,32.007-78.909,48.69-170.435,48.057-263.648-1.01-97.975-19.122-193.7-52.409-276.987" transform="translate(62.248 154.049)"/><path class="c" d="M-28.68,2226.031c19.254-169.837,101-335.663,210.944-384.217,90.814-40.137,190.539-2.9,276.514,52.047,76.809,49.069,151.955,100.957,221.621,86.467,88.433-18.421,149.5-134.067,243.23-216.087,87.051-76.224,171.541-131.844,260.845-134.98,59.323-2.144,121,25.726,179.734,65.624,145.093,98.575,183.933,324.23,310.105,367.979,126.736,43.233,213.684-23.384,257.7-99.488,50.464-87.34,93.093-294.058,7.015-470.207-43.525-88.968-87.512-190.957-130.858-294.455-54.535-130.176-65.775-304.3-17.717-426.259,37.918-96.193,105.895-163.683,149.215-269.087,32.608-78.827,51.25-169.583,54.048-263.132,2.5-99.874-12.755-198.891-44.089-286.237" transform="translate(64.619 163.909)"/><path class="c" d="M-27.16,2223.1c22.582-173.727,103.9-345.112,216.4-397,91.3-42.042,192.459-5.836,278.434,52.245,75.913,51.292,148.5,108.1,218.011,100.679,88.024-9.369,153.619-114.336,247.1-195.125,88.51-76.462,171.9-141.332,262.663-150.384,61.217-6.114,125.583,19.612,186.391,59.55,140.28,92.541,182.5,304.9,305.266,347.971,121.922,42.042,208.2-17.825,253.625-92.382,51.411-84.363,91.71-282.624,14.261-454.009-40.709-90.159-82.186-192.982-124.764-295.765-52.307-126.325-65.007-292.391-22.07-412.205,34.744-96.908,99.161-167.693,142.277-271.548,34.846-83.886,54.816-174.878,60.04-262.576,6.069-101.645-6.255-203.9-35.589-295.289" transform="translate(66.991 173.591)"/><path class="c" d="M-25.64,2219.808C.3,2042.349,81.151,1865.287,196.186,1810.184c91.787-43.988,194.354-8.853,280.355,52.483,74.915,53.436,145.119,115.13,214.35,114.892,87.64-.357,157.716-94.645,251.09-174.2,90.046-76.7,172.232-150.86,264.455-165.708,63.163-10.163,130.192,13.538,193.1,53.793,135.39,86.665,181.014,285.522,300.376,327.882,117.16,40.851,202.726-12.188,249.579-85.236,52.307-81.5,90.533-271.469,21.532-437.851-37.918-91.31-76.809-194.967-118.7-297.075-50.08-122.4-64.315-280.6-26.423-398.151,31.518-97.7,92.427-171.7,135.364-273.93,35.358-84.243,57.94-174.084,66.031-262.02,9.628-103.419.2-208.951-27.191-304.42" transform="translate(69.363 183.63)"/><path class="c" d="M-24.12,2216.934c29.264-181.508,109.71-363.89,227.3-422.408,92.171-45.854,196.3-11.91,282.249,52.722,73.942,55.58,141.714,122.2,210.74,129.064,87.255,8.694,161.812-74.874,255.058-153.2,91.583-76.939,172.591-160.586,266.273-181.111,65.057-14.252,134.724,7.543,199.7,47.918,130.448,80.909,179.5,266.546,295.486,307.834,112.321,40.017,197.144-6.67,245.56-78.13,53.178-78.685,89.611-260.63,28.752-421.693-35-92.819-71.689-196.952-112.654-298.385-47.878-118.465-63.726-268.888-30.724-384.058,28.163-98.575,85.694-175.673,128.425-276.431C2007.9,454.493,2033.17,365.8,2044.1,277.51c13.206-105.179,6.684-214.024-18.793-313.63" transform="translate(71.734 193.253)"/><path class="c" d="M-22.6,2213.694C9.993,2028.335,90.054,1840.514,210.158,1778.7c92.786-47.64,198.22-14.967,284.195,52.92,72.995,57.724,138.257,129.3,207.1,143.317,86.872,17.666,165.934-55.143,259.053-132.281s172.9-170.273,268.065-196.475c66.952-18.381,139.281,1.667,206.464,42,125.455,75.43,178.044,247.212,290.647,287.825,107.533,38.787,191.691-1.151,241.489-71.023,54.048-75.906,88.741-250.11,36.024-405.5-32.081-94.407-66.389-198.937-106.586-299.7-45.676-114.574-63.214-257.335-35.128-370C1886.32,730.224,1940.47,650.11,1983,550.86c36.51-84.839,64.289-172.377,78.013-260.988,16.8-106.83,13.2-218.932-10.369-322.642" transform="translate(74.106 203.202)"/><path class="c" d="M-21.07,2210.642c36.024-189.25,115.521-382.509,238.289-447.776,93.3-49.546,200.165-18.063,286.038,53.158,72.073,59.788,134.9,136.33,203.494,157.49,86.487,26.678,170.031-35.333,263.021-111.16,94.732-77.336,173.18-180.04,269.883-211.8,68.821-22.629,143.787-4.168,213.146,36.087,120.514,69.912,176.662,227.839,285.757,267.777,102.72,37.556,186.186,4.327,237.444-63.957,54.919-73.088,88.228-239.709,43.269-389.3-28.881-96.074-61.064-200.882-100.441-301.005-43.525-110.6-62.856-245.822-39.454-355.95,21.327-100.56,72.252-183.652,114.574-281.354,36.894-85.157,67.49-171.5,84-260.472,20.4-108.509,19.725-223.936-1.946-331.852" transform="translate(76.493 213.003)"/><path class="c" d="M-19.55,2207.709c39.25-193.1,118.44-391.76,243.64-460.52,93.81-51.372,202.265-21.2,287.933,53.4,71.126,61.813,131.5,143.4,199.858,171.7,86.1,35.73,174.1-15.562,267.015-90.4,96.216-77.534,173.436-189.845,271.675-227.164,70.69-26.837,148.293-9.846,219.854,30.172,115.5,64.671,175.1,208.465,280.867,247.728,97.932,36.365,180.63,9.806,233.4-56.811,55.764-70.348,88-229.625,50.541-373.18-25.6-97.9-55.815-202.827-94.373-302.276-41.323-106.674-62.6-234.23-43.807-341.9,17.743-101.632,65.544-187.662,107.533-283.815,37.432-85.474,70.741-170.71,90.021-259.916,23.979-110.123,26.216-228.837,6.427-340.944" transform="translate(78.865 222.685)"/><path class="c" d="M-18,2204.587c42.5-196.952,121.308-400.97,249.016-473.144,94.322-53.238,204.108-24.415,289.828,53.555,70.229,63.877,128.016,150.463,196.248,185.915,85.719,44.623,178.3,4.248,270.984-69.435,97.779-77.653,173.692-199.691,273.493-242.488,72.508-31.125,152.749-15.443,226.537,24.257,110.452,59.55,173.641,189.091,276,227.679,93.119,35.135,175.074,15.205,229.353-49.7,56.583-67.688,88.024-219.62,57.761-356.943-21.993-99.845-50.566-204.812-88.254-303.626-39.173-102.7-62.5-222.876-48.185-327.843,14-102.7,58.887-191.592,100.723-286.237,37.944-85.792,73.993-169.638,95.986-259.4,27.595-111.7,32.771-233.73,14.85-350.075" transform="translate(81.284 232.516)"/><path class="c" d="M-16.51,2201.446c45.932-200.842,124.355-410.22,254.547-485.729,94.732-55.024,206.105-27.592,291.722,53.794,69.308,65.9,124.739,157.252,192.613,200.127,85.438,53.317,182.448,24.018,274.978-48.473,99.34-77.852,173.9-209.616,275.285-258.05,74.249-35.412,157.2-20.842,233.219,18.381,105.434,54.389,172.258,169.36,271.137,207.631,88.382,33.626,169.519,20.6,225.308-42.6,57.4-65.029,88.408-209.656,65.032-340.785-18.933-106.644-46.551-209.115-82.186-304.936-37.022-98.694-62.523-211.363-52.538-313.63,10.241-103.776,52.128-195.562,93.784-288.7,38.4-86.07,77.27-168.646,102-258.884,31.192-113.243,39.3-238.569,23.248-359.166" transform="translate(83.608 242.406)"/><path class="c" d="M-15,2198.394c49.286-204.772,127.324-419.43,260.026-498.552,95.372-56.811,208.128-30.807,293.617,54.032,68.437,67.887,121.359,164.358,189,214.38,85.054,62.369,186.57,43.868,279.074-27.512,100.9-77.971,174.1-219.5,277.1-273.215,76.118-39.7,161.607-26.123,239.9,12.426,100.364,49.466,170.773,150.026,266.273,187.622,83.594,32.435,163.86,25.924,221.262-35.492,58.222-62.408,89.125-199.572,72.277-324.627-14.97-107.57-40.641-210.873-76.092-306.206-34.9-94.724-62.651-199.85-56.89-299.735,6.042-104.768,45.446-199.492,86.871-291.16,39.019-86.347,80.547-167.574,107.994-258.328,34.771-114.777,45.823-243.408,31.646-368.3" transform="translate(85.965 252.207)"/><path class="c" d="M-13.47,2195.431c52.589-208.623,130.269-428.76,265.454-511.137,95.909-58.557,210.151-34.062,295.512,54.23,67.567,69.872,117.954,171.464,185.367,228.553,84.7,71.46,190.795,63.957,282.94-6.59,102.566-77.772,174.255-229.426,278.9-288.579,77.911-44.067,166.011-31.164,246.609,6.551,95.269,44.583,169.314,130.772,261.383,167.534,78.781,31.244,158.33,31.244,217.192-28.385s90.123-189.25,79.549-308.39c-9.4-105.761-34.974-210.41-70.025-307.556-32.8-90.715-62.907-188.138-61.243-285.641,1.818-105.721,38.865-203.343,79.933-293.78,39.685-86.506,83.85-166.74,113.985-257.812C2200.454,248.156,2214.462,116.21,2202.15-13" transform="translate(88.352 261.919)"/><path class="c" d="M-11.95,2192.34c55.917-212.593,133.316-437.534,270.907-524.04,96.5-60.106,212.2-37.358,297.406,54.468,66.568,71.857,114.574,178.65,181.783,242.726,84.311,80.432,194.891,83.687,286.909,14.371,104.1-77.971,174.383-239.352,280.713-303.943,79.677-48.394,170.338-35.928,253.266.675,90.3,39.7,167.854,111.16,256.518,147.485,74.019,30.053,152.749,36.484,213.172-21.279,59.835-57.208,91.378-178.65,86.769-292.232-4.353-107.428-29.8-212.4-64.008-308.826-30.724-86.745-63.265-176.308-65.6-271.627-2.56-106.475,32.132-207.313,73.02-296.043,40.2-86.864,87.051-165.43,119.977-257.256,41.97-117.716,58.947-252.948,48.518-386.48" transform="translate(90.723 271.839)"/><path class="c" d="M-10.43,2189.169C48.841,1972.8,125.8,1742.346,265.93,1652.663c97.01-62.051,214.273-40.653,299.3,54.707,65.851,73.8,111.169,185.6,178.172,256.819,83.953,89.444,198.988,103.419,290.9,35.333,105.613-78.249,174.511-249.316,282.505-319.307,81.444-52.8,174.69-40.454,259.974-5.28s166.421,91.985,251.628,127.477c69.129,28.822,147.167,41.725,209.127-14.173,60.654-54.707,92.914-167.256,94.04-276.034s-24.707-214.38-57.863-310.176c-28.6-82.695-63.726-164.2-69.948-257.534-7.118-107.19,25.4-211.323,66.082-298.5s90.43-164.318,125.968-256.74c45.525-119.186,65.43-257.731,56.839-395.61" transform="translate(93.095 281.64)"/></g><g transform="translate(923.071 -1144.63)"><path class="c" d="M425.741,3457.586c-74.608-71.46-78.115-246.894-34.359-364.764s120-195.88,187.748-282.267,132.88-197.468,138.462-333.2c7.169-173.529-85.387-331.1-73.532-504.19,9.243-134.742,80.24-236.731,154.848-293.78,42.168-32.2,90.917-43.472,134.6-70.07,198.117-120.251,374.164,74.4,497.546-83.728,133.572-171.425,126.761-363.295,102.08-457.82-31.62-121.125-137.515-389.338-346.052-315.456-84.7,30.013-171.541,55.58-258.361,47.2C798.856,786.848,672.581,628.366,664.286,427.087c-5.556-137.958,40.53-281.473,8.347-410.419-21.583-86.7-76.272-146.572-134.6-167.971S418.188-159.838,360.53-134.47" transform="translate(-360.53 663.155)"/><path class="c" d="M427.673,3468.682c-74.454-78.01-81.213-256.5-37.3-379.333,42.885-119.894,119.823-199.771,189.028-284.411,68.386-83.608,134.314-188.893,143.378-319.9,11.445-167.454-72.918-323.714-60.5-495.694,10.088-136.766,75.965-242.17,148.242-305.452,41.528-36.405,90.686-53.238,135.7-81.861,191.307-121.164,363.411,63.719,484.309-90.913,129.962-166.383,126.3-353.33,103.13-448.61C1504.26,941.9,1401.822,684.283,1200.273,748.438c-82.98,26.48-169.16,48.077-255.11,39.184-126.556-12.7-249.016-164.12-260.077-358.094-7.681-134.265,34.232-275.836,2.765-403.59-21.43-87.34-73.967-149.232-130.576-174.918-57.121-25.884-118.389-19.572-176.815.993" transform="translate(-356.547 651.583)"/><path class="c" d="M431.132,3481.39c-74.249-84.482-84.337-265.99-40.274-393.864,42.015-121.879,119.644-203.78,190.334-286.594,69-80.829,135.7-180.357,148.217-306.6,15.746-161.341-60.68-316.329-47.494-487.4,10.728-138.95,71.689-247.569,141.662-317.243,40.965-40.732,90.456-63,137.054-93.613,184.7-121.4,352.76,53.357,471.1-97.622,126.377-161.341,125.839-343.326,104.153-439.122-27.139-120.053-126.2-367.3-320.679-312.677-81.521,22.867-167.035,40.3-252.063,30.847-123.151-12.942-241.95-157.331-255.75-344.08-9.652-130.613,28.163-270.2-2.791-396.762-21.276-88.333-71.689-151.892-126.556-181.826-55.969-30.529-116.9-30.688-176.15-14.888" transform="translate(-354.169 638.398)"/><path class="c" d="M434.634,3495.583c-74.249-90.913-87.409-275.558-43.218-408.394,41.2-123.784,119.439-207.71,191.614-288.7,69.589-78.17,137.182-171.822,153.107-293.344,20.047-155.267-48.313-308.985-34.462-479.1,11.47-140.816,67.464-253.207,135.057-329.034,40.248-45.139,90.2-72.73,138.257-105.4,178.172-121.164,342.109,42.995,458.04-104.252,122.767-156.339,125.455-333.48,105.2-429.832-24.963-119.5-120.668-356.506-308.031-311.288-79.984,19.294-164.68,32.316-248.888,22.708C861.541,755.25,746.4,618.285,729.89,438.921c-11.675-127.04,21.609-264.481-8.347-389.933-21.276-89.047-69.461-154.83-122.537-188.734-54.816-35.214-115.445-41.8-175.458-30.767" transform="translate(-351.859 623.69)"/><path class="c" d="M438.132,3511.394c-74.044-97.384-90.482-285.086-46.086-422.924,40.376-125.69,119.234-211.76,192.92-290.882,70.178-75.43,138.615-163.286,157.946-280.044,24.374-149.153-35.844-301.72-21.43-470.762,12.238-142.92,63.189-259.082,128.5-340.864,39.608-49.625,89.918-82.377,139.46-117.194,171.721-120.609,331.484,32.633,444.932-110.922,119.157-151.257,124.867-323.277,106.253-420.463-22.787-118.9-115.214-345.906-295.358-309.938-78.525,15.88-162.375,24.614-245.79,14.53C883.089,747.878,771.613,617.979,752.436,445.959,738.687,322.571,767.8,187.194,738.508,62.894,717.36-26.947,671.274-94.517,619.991-132.748,566.224-172.726,506.006-185.628,445.2-179.4" transform="translate(-349.519 607.401)"/><path class="c" d="M441.673,3528.473c-73.891-103.855-93.5-294.574-49.132-437.454,39.608-127.6,119-215.769,194.2-293.065,70.767-72.651,140.2-154.632,162.836-266.784,28.855-142.92-23.5-294.177-8.4-462.426,13.006-144.865,58.887-265.037,121.9-352.655,38.942-54.151,89.611-92.025,140.817-128.985,165.345-119.7,320.833,22.271,431.8-117.592,115.547-146.215,124.354-313.233,107.277-411.094-20.483-118.306-109.915-335.545-282.659-308.588-77.117,11.91-160.071,16.912-242.616,6.352-113.038-14.411-221.007-137.322-242.718-301.72-15.823-119.854,9.063-253.127-19.51-376.237-21.02-90.675-64.955-160.309-114.472-202.47-52.563-44.861-112.526-64-174.1-62.528" transform="translate(-347.249 589.687)"/><path class="c" d="M445.254,3547.016c-73.763-110.326-96.549-304.062-52.1-452.024,38.84-129.422,118.747-219.819,195.506-295.169,71.279-69.991,141.637-146.1,167.7-253.524,33.284-136.806-11.086-286.792,4.609-454.128,13.8-146.89,54.535-271.111,115.214-364.446,38.4-58.8,89.432-101.632,141.918-140.736,159.021-118.584,310.182,11.91,418.663-124.261,111.963-141.213,123.817-303.189,108.327-401.8C1526.6,943.292,1440.423,735.383,1275.1,753.764a994.322,994.322,0,0,1-239.466-1.826C925.953,737.169,821.466,621.166,797.272,464.113c-17.922-116.361,2.791-247.49-25.091-369.448C751.288,3.355,709.453-68.582,661.729-114.753c-51.437-49.784-111.041-75.112-173.436-78.447" transform="translate(-344.992 570.826)"/><path class="c" d="M448.868,3565.34c-73.609-116.758-99.52-313.63-55.072-466.554,38.149-131.288,118.517-223.908,196.837-297.353,71.817-67.49,143.07-137.521,172.565-240.225,37.509-130.652,1.357-279.409,17.641-445.831,14.568-148.835,50.131-277.265,108.711-376.237,37.585-63.52,89.2-111.16,143.147-152.527,152.774-117.155,299.557,1.548,405.528-131.01C1546.578,1319.432,1561.5,1162.5,1547.6,1063.168c-16.386-117-101.8-348.169-257.337-305.69-73.353,19.85-155.437,1.469-236.291-10-106.33-15.046-207.386-124.182-234.038-273.731-20.1-112.907-3.456-241.852-30.724-362.62C769.128,23.576,731.908-52.055,682.753-105.2,632.469-159.989,573.2-191.392,510.009-199.53" transform="translate(-342.692 552.026)"/><path class="c" d="M452.423,3583.723c-73.481-123.07-102.413-322.959-58.042-481.124,37.432-132.955,118.235-227.957,198.245-299.457,72.329-64.75,144.53-128.985,177.455-226.965,41.81-124.539,13.8-272.064,30.724-437.494,15.362-150.86,45.676-283.577,102.131-388.068,36.843-68.244,88.945-120.688,144.351-164.318,146.578-115.487,288.88-8.813,392.394-137.6,104.743-131.01,122.69-282.981,110.4-383.065-14.286-116.361-96.37-341.42-244.638-304.459-72.252,17.984-153.132-6.193-233.142-18.143C969.325,727.665,871.547,625.359,842.59,483.312c-22.3-109.453-9.7-236.175-36.2-355.752C786.779,39.447,751.225-38.051,703.974-95.673,654.1-155.857,594.626-193.945,531.9-205.88" transform="translate(-340.512 533.167)"/><path class="c" d="M456.057,3602.185c-73.3-129.66-105.434-332.329-60.987-495.615,36.741-134.98,117.928-232.125,199.423-301.72,72.841-62.17,145.938-120.41,182.294-213.665,46.086-118.426,26.269-264.68,43.7-429.2,16.181-152.885,41.2-289.81,95.551-399.858,36.1-73.008,88.74-130.136,145.579-176.109,140.459-113.621,278.229-19.135,379.26-144.23,101.132-126.087,122.127-272.9,111.45-373.776-12.238-115.646-90.865-334.155-231.964-303.07-71.279,15.88-150.8-13.895-229.993-26.321C990.753,722.982,896.2,627.464,865.067,493c-24.6-106.078-15.951-230.538-41.784-348.923C804.117,55.231,770.168-24.2,724.865-86.183c-48.6-65.593-107.885-109.211-171.388-126.087" transform="translate(-338.333 514.188)"/><path class="c" d="M459.726,3620.331c-73.174-136.131-108.378-341.738-64.008-510.185,36.049-136.687,117.621-236.255,200.7-303.784,73.327-59.55,147.4-111.8,187.185-200.366,50.438-112.271,38.763-257.256,56.737-420.82,17-154.83,36.638-296.281,88.945-411.649,35.307-77.852,88.536-139.506,146.809-187.9,134.391-111.557,267.578-29.5,366.125-150.86,97.548-121.045,121.513-262.774,112.475-364.406-10.241-115.13-85.259-326.612-219.266-301.72-70.486,13.1-148.5-21.557-226.844-34.5-96.268-15.88-187.7-104.609-221.032-231.57-26.935-102.7-22.172-224.9-47.34-342.095-20.355-94.685-53.562-175.792-94.4-237.088C698.521-147.6,639.4-196.752,575.094-218.54" transform="translate(-336.165 495.567)"/><path class="c" d="M463.365,3638.743c-73.02-142.6-111.271-351.147-66.9-524.715,35.384-138.473,117.314-240.463,202.009-305.928,73.814-57.089,148.806-103.22,192.023-187.106,54.74-106.158,51.206-249.872,69.743-412.6,17.922-156.855,32.055-302.713,82.365-423.44,34.462-82.7,88.382-148.835,148.037-199.651,128.374-109.334,256.928-39.7,353.016-157.609,93.912-116,120.847-252.651,113.5-355.037-8.193-114.3-79.754-279.488-206.618-300.331-69.692-11.473-146.168-29.219-223.669-42.677-92.914-16.158-181.347-98.059-216.679-217.477C880.8,412.92,881.772,292.907,857.244,176.9c-20.175-95.479-51.206-179.047-90.354-244C720.946-143.506,662-198.214,596.86-224.9" transform="translate(-333.992 476.678)"/><path class="c" d="M467.055,3657.1c-72.892-149.073-114.164-360.515-69.871-539.284,34.744-140.26,116.981-244.671,203.315-308.072,74.249-54.548,150.214-94.724,196.914-173.807,58.887-100.044,63.726-242.488,82.775-404.265,18.69-158.8,27.4-309.184,75.785-435.271,33.591-87.578,88.2-158.125,149.241-211.442,122.409-107.19,246.43-49.943,339.882-164.278,90.456-110.644,120.207-242.527,114.548-345.708C1553.4,961.427,1484.7,803.54,1365.7,776.028c-68.591-15.88-143.864-36.842-220.52-50.856-89.611-16.356-175.1-91.31-212.353-203.423-31.876-95.836-34.641-213.626-58.5-328.4C854.3,97.039,825.525,10.97,787.99-57.553c-44.575-81.829-103.356-142.11-169.365-173.687" transform="translate(-331.845 457.848)"/><path class="c" d="M470.746,3675.45c-72.739-155.5-117.032-369.885-72.841-553.815,34.155-142.047,116.674-248.959,204.62-310.256,74.736-52.086,151.647-86.149,201.778-160.547,63.317-93.891,76.246-235.064,95.807-395.928s22.736-315.655,69.129-447.062c32.7-92.461,88.075-167.3,150.47-223.233,116.494-104.451,235.779-60.3,326.748-170.71,86.846-105.642,119.515-232.443,115.573-336.378-4.276-112.867-70.1-263.926-181.245-297.75-67.515-20.406-141.56-44.424-217.4-58.994-86.18-16.555-168.981-84.8-208-189.369-34.462-92.382-40.837-207.988-64.008-321.57-19.868-97.146-46.367-185.677-82.314-257.812-43.188-87.227-101.8-153.1-168.7-189.607" transform="translate(-329.724 439.018)"/><path class="c" d="M474.462,3694.032c-72.61-161.976-119.874-379.254-75.811-568.345,33.54-143.833,116.315-253.286,205.926-312.4,75.2-49.665,153.056-77.613,206.643-147.287,67.592-87.816,88.766-227.64,108.839-387.631,20.483-162.77,17.922-322.086,62.6-458.853,31.748-97.344,88-176.387,151.673-235.024,110.657-101.831,225.154-70.666,313.639-177.578,83.236-100.6,118.824-222.32,116.622-327.009-2.355-112.192-65.237-256.819-168.6-296.2-66.389-25.527-139.23-52.245-214.222-67.41-82.852-16.714-162.939-78.01-203.648-175.276-37.176-88.809-47.059-202.47-69.641-314.742-19.714-97.94-43.909-189.012-78.294-264.72-41.764-92.606-100.2-164.077-168.008-205.487" transform="translate(-327.603 420.158)"/><path class="c" d="M478.172,3712.147c-72.457-168.407-122.69-388.583-78.755-582.876,32.926-145.58,115.982-257.573,207.206-314.543,75.657-47.243,154.464-69.078,211.533-133.987C890.025,2599,919.443,2460.485,940,2301.447c21.327-164.874,13.237-328.6,56.02-470.683,30.724-102.227,87.947-185.4,152.9-246.775,104.973-99.25,214.5-81.067,300.5-184.287,79.626-95.558,118.082-212.157,117.775-317.6-.461-111.438-60.321-250.11-155.923-294.812-65.237-30.45-136.926-59.55-211.072-75.43-79.37-16.872-157.024-71.182-199.321-161.222-40.069-85.236-53.357-196.793-75.3-307.913C906.052,143.951,884.161,50.338,851.338-28.9,811.018-126.885,752.749-203.966,684-250.27" transform="translate(-325.501 401.329)"/><path class="c" d="M481.905,3730.5C409.576,3555.622,356.45,3332.548,400.18,3133.1c32.337-147.326,115.624-262.02,208.512-316.727,76.093-44.821,155.872-60.542,216.4-120.688,76.144-75.668,113.832-212.832,134.877-371,22.2-166.74,8.423-335.029,49.414-482.474,29.8-107.19,87.947-194.292,154.131-258.566,99.11-96.272,203.827-91.31,287.37-190.917,76.016-90.556,117.339-202.073,118.7-308.35,1.434-110.763-55.226-244-143.224-293.462-64.008-35.968-134.622-67.172-207.923-83.37-76.144-17.151-151.187-64.275-194.865-147.327C980.6,478.952,964.012,369.1,942.659,259.173c-19.33-99.607-38.891-195.721-70.229-278.535C833.566-122.691,775.466-205.39,705.753-256.61" transform="translate(-323.396 382.499)"/><path class="c" d="M485.674,3748.854c-72.2-181.35-128.3-407.243-84.7-611.976,31.774-149.073,115.214-266.347,209.792-318.831,76.553-42.519,157.254-52.086,221.262-107.428,80.317-69.833,126.377-205.408,147.884-362.7,23.043-168.8,3.61-341.42,42.86-494.265,28.778-111.994,88-203.066,155.334-270.357,93.4-93.335,193.048-102.029,274.235-197.587,72.3-85.752,116.571-191.87,119.772-299.06,3.277-110.128-49.977-238.2-130.576-292.113-65.48-43.949-134.312-74.753-204.825-91.667-72.739-17.19-145.349-56.89-190.564-133.035-45.83-77.216-65.621-185.518-86.359-294.217C940.642,175.179,923.437,76.565,893.584-9.823,856.2-118.47,798.279-206.795,727.6-262.95" transform="translate(-321.327 363.669)"/><path class="c" d="M489.431,3767.385c-72.047-187.821-131.063-416.612-87.64-626.506,31.185-150.86,114.881-270.833,211.1-321.014,76.989-40.176,158.74-43.67,226.127-94.129,84.644-63.718,138.948-198.023,160.941-354.4,24.016-170.71-1.28-347.891,36.254-506.056,27.7-116.877,88.178-211.76,156.538-282.148,87.742-90.317,182.4-112.391,261.152-204.256,68.668-80.71,115.752-181.866,120.77-289.81,5.121-109.453-44.473-232.721-117.775-290.684-63.452-49.306-131.465-83-201.6-99.885-69.487-17.19-139.691-49.466-186.289-119.1-48.9-72.969-71.689-179.92-91.941-287.388C958.122,190.733,943.3,89.538,914.878-.343c-35.912-113.942-93.652-207.9-165.32-269.007" transform="translate(-319.246 344.661)"/><path class="c" d="M493.2,3785.591c-71.919-194.252-133.828-425.942-90.61-641.076C433.315,2991.948,517.114,2869.2,615.1,2821.357c77.424-37.834,160.071-35.135,230.992-80.829,88.945-57.645,151.7-190.56,173.948-346.065,25.168-172.7-6.145-354.323,29.674-517.886,26.678-121.76,88.357-220.136,157.792-293.78,82.135-87.34,171.746-122.792,247.967-210.926,64.981-75.827,114.933-172.1,121.717-280.441S1538.5,863.948,1471.984,802.1c-58.887-54.905-127.734-89.643-198.45-108.063-66.158-17.19-133.981-41.8-181.91-104.967-52-68.4-77.859-174.323-97.5-280.52-18.639-102.188-31.185-205.686-58.2-299.258C901.54-109.965,843.983-209.58,771.3-275.64" transform="translate(-317.205 325.98)"/><path class="c" d="M496.915,3803.855c-71.689-200.723-136.337-435.191-93.58-655.606,30.263-154.274,114.19-279.845,213.71-325.3,77.91-35.73,161.5-26.639,235.882-67.49,93.247-51.61,164.167-183.1,186.9-337.728,26.013-174.68-11.061-360.714,23.043-529.677,25.6-126.643,88.664-228.394,159.021-305.69,76.6-84.164,161.095-133.114,234.832-217.6,61.448-70.626,114.062-161.778,122.895-270.953,8.705-108.182-32.49-222.32-92.53-287.984-56.737-62.051-125.456-97.027-195.3-116.2-62.83-17.23-128.246-33.983-177.635-90.913-55.124-63.52-84.081-168.685-103.053-273.692C992.618,222.042,982.53,116.043,956.927,18.817,924.06-105.659,866.722-210.9,793.067-281.95" transform="translate(-315.107 307.239)"/><path class="c" d="M500.77,3822.3c-71.689-207.194-139.256-444.64-96.55-670.176,29.572-156.1,113.832-284.411,215.067-327.446,78.346-33.348,162.938-18.063,240.67-54.31,97.548-45.417,176.662-175.672,199.986-329.51,26.858-176.665-15.976-367.066,16.514-541.468,24.477-131.486,89.1-236.453,160.225-317.6S1387.1,1438.511,1458.4,1357.721c57.863-65.584,113.166-151.734,123.894-261.623,10.5-107.587-25.859-217.04-79.831-286.594s-123.049-104.371-192.177-124.38c-59.5-17.23-122.486-25.845-173.282-76.82-58.273-58.438-90.328-163.088-108.634-266.863S1002.413,129.2,978.218,28.327C946.841-101.412,889.66-212.309,814.946-288.32" transform="translate(-313.124 288.32)"/></g></g></g></g></svg>