<svg xmlns="http://www.w3.org/2000/svg" xmlns:xlink="http://www.w3.org/1999/xlink" width="414" height="721" viewBox="0 0 414 721"><defs><style>.a{fill:#fff;stroke:#707070;opacity:0.195;}.b{fill:#f6f6f6;}.c{opacity:0.8;clip-path:url(#a);}.d{fill:none;stroke:#fff;stroke-miterlimit:10;stroke-width:2px;}</style><clipPath id="a"><rect class="a" width="414" height="721" transform="translate(0 0)"/></clipPath></defs><g transform="translate(0 -2535)"><rect class="b" width="414" height="721" transform="translate(0 2535)"/><g class="c" transform="translate(0 2535)"><g transform="translate(-49.461 -180.411)"><path class="d" d="M89.94,730.57q27.746-85.691,59.931-163.518c9.513-23.015,19.584-45.923,32.2-59.647,32.26-35.013,70.834-1.009,101.216,41.543,28.016,39.246,53.842,85.787,76.934,138.645,22.854,52.347,43.366,111.49,71.06,150.458s65.7,53.435,92.452,11.308C539.656,824.3,549.24,782.7,552.867,739.993s1.843-86.829-1.26-129.753c-3.567-49.161-8.764-100.42-1.819-147.724,7.206-48.976,28.027-86.484,50.988-91.846,32.664-7.645,61.381,43.136,88.92,83.113,34.971,50.808,75.615,88.635,117.269,83.272s83.76-62.222,96.257-151.095" transform="translate(-89.94 -169.379)"/><path class="d" d="M93.57,747.065q27.226-84.285,59.1-160.307c9.418-22.457,19.37-44.781,31.773-58.266,24.912-27.076,53.592-13.273,79.3,13.272a250.292,250.292,0,0,1,20.215,24.077c27.692,37.1,53.307,81.438,76.3,132.062,22.771,50.09,43.176,107.269,70.573,144.724,15.363,21.05,33.568,35.464,51.5,38.066,15.613,2.23,31.107-4.7,44.056-24.474a111.149,111.149,0,0,0,6.576-11.574c12.711-25.775,20.429-62.832,23.782-100.871,1.065-12.061,1.784-24.261,2.152-36.526.951-32.2-.167-64.77-1.819-96.624-2.6-50.436-6.076-102.226,1.76-149.423s27.73-83.352,50.144-88.82c31.9-7.831,60.037,40.03,86.958,77.193,2.128,2.946,4.269,5.814,6.433,8.654,32.676,42.658,69.657,72.283,107.233,65.487,40.061-7.247,80.228-63.708,91.834-150.7" transform="translate(-89.254 -166.682)"/><path class="d" d="M97.2,771.637c17.814-55.227,37.281-107.7,58.266-157.068,9.322-21.926,19.168-43.64,31.345-56.913,24.472-26.545,52.57-14.228,77.874,10.618a236.365,236.365,0,0,1,19.953,22.563C312,625.81,337.4,667.943,360.287,716.343c22.664,47.781,43.01,103.075,70.157,139.229,15.946,21.236,34.626,36.314,53.1,39.552,16.053,2.655,32.106-3.743,45.554-23.651a105.2,105.2,0,0,0,6.825-11.76c13.247-26.253,21.154-64.425,24.793-103.526,1.139-12.506,1.933-25.156,2.378-37.88,1.189-33.075.547-66.575-.523-99.2-1.641-51.869-3.389-103.977,5.339-151.148,8.324-44.782,27.456-80.193,49.324-85.794,31.119-7.963,58.682,36.9,85,71.274q3.1,3.982,6.278,7.964c31.9,39.313,67.7,65.567,103.772,56.993,38.455-9.105,76.7-65.407,87.41-150.246" transform="translate(-88.567 -172.273)"/><path class="d" d="M100.82,797.082C118.3,742.77,137.505,691.318,158.277,643.12c9.2-21.369,18.942-42.472,30.916-55.532,24.008-26.2,51.535-15.131,76.435,7.964a225.6,225.6,0,0,1,19.715,21.342c27.036,32.816,52.218,72.732,75.008,118.9C382.945,781.5,403.219,834.617,430,869.444c16.54,21.5,35.673,37.163,54.7,41.039,16.5,3.318,33.14-2.814,47.052-22.856a103.129,103.129,0,0,0,7.135-11.918c13.77-26.758,21.867-66.071,25.768-106.393q1.831-19.284,2.664-38.941c1.474-33.978,1.248-68.407.761-101.8-.69-53.223-.749-105.65,8.918-152.847,8.74-42.711,27.183-76.981,48.5-82.794,30.346-8.2,57.326,33.792,83.023,65.354q3.044,3.743,6.136,7.326c31.142,35.969,65.733,58.877,100.3,48.525,36.862-11.016,73.177-67.026,83.011-149.847" transform="translate(-87.883 -178.66)"/><path class="d" d="M104.45,822.621A1587.088,1587.088,0,0,1,161.075,672.03c9.109-20.838,18.74-41.357,30.488-54.179,23.568-25.749,50.525-15.927,75.008,5.442a205.855,205.855,0,0,1,19.418,19.617c26.706,30.672,51.668,68.378,74.354,112.312,22.474,43.481,42.724,94.527,69.17,128.027,17.135,21.714,36.755,38.013,56.316,42.472,16.933,3.876,34.151-1.831,48.551-22.033a104.658,104.658,0,0,0,7.361-12.078c14.269-27.262,22.593-67.717,26.743-109.234q1.949-19.8,2.937-39.977c1.736-34.854,1.95-70.239,2.057-104.429.262-54.551,1.855-107.269,12.486-154.546,9.144-40.614,26.9-73.9,47.671-79.768,29.573-8.362,55.971,30.686,81.073,59.435,1.974,2.283,3.972,4.486,5.945,6.663,30.369,32.624,63.771,52.161,96.84,40.03,35.245-12.9,69.657-68.593,78.587-149.4" transform="translate(-87.196 -185.113)"/><path class="d" d="M108.08,848.11a1464.754,1464.754,0,0,1,55.792-147.379c9-20.28,18.514-40.19,30.048-52.8,23.128-25.3,49.5-16.936,73.581,2.787a188.007,188.007,0,0,1,19.144,18.157c26.385,28.506,51.137,63.995,73.724,105.7,22.379,41.3,42.605,90.253,68.706,122.452,17.729,21.9,37.8,38.836,57.921,44.012,17.373,4.407,35.161-.9,50.037-21.236a105.484,105.484,0,0,0,7.634-12.237c14.828-27.74,23.306-69.336,27.718-112.047q2.077-20.333,3.2-41.065c2.009-35.73,2.628-72.044,3.353-107,1.189-55.931,4.424-108.835,16.077-156.245,9.513-38.57,26.612-70.769,46.839-76.769,28.788-8.548,54.615,27.58,79.1,53.515,1.938,2.044,3.877,4.061,5.838,6,29.6,29.2,61.833,45.472,93.368,31.562,33.651-14.812,66.138-70.212,74.176-149" transform="translate(-86.51 -191.516)"/><path class="d" d="M111.71,873.632a1350.057,1350.057,0,0,1,54.972-144.167c8.906-19.723,18.312-39.048,29.62-51.444,22.676-24.846,48.479-17.812,72.154.186a186.71,186.71,0,0,1,18.871,16.644c26.058,26.37,50.6,59.659,73.082,99.146,22.272,39.075,42.474,85.821,68.23,116.8,18.336,22.086,38.86,39.818,59.526,45.5,17.836,4.964,36.172,0,51.524-20.413a101.307,101.307,0,0,0,7.9-12.4c15.363-28.244,24.032-70.982,28.7-114.861,1.486-13.989,2.6-28.111,3.472-42.127,2.271-36.632,3.318-73.875,4.649-109.631,2.116-57.258,6.944-110.454,19.644-157.944,9.8-36.473,26.327-67.584,46.006-73.636,28.027-8.733,53.271,24.475,77.148,47.622,1.879,1.805,3.781,3.584,5.684,5.309,28.836,25.908,59.847,38.756,89.907,23.068,32.046-16.67,62.606-71.672,69.764-148.653" transform="translate(-85.823 -197.951)"/><path class="d" d="M115.34,899.111a1245.838,1245.838,0,0,1,54.139-140.9c8.8-19.192,18.1-37.906,29.192-50.091,22.236-24.395,47.469-18.741,70.727-2.469a168.068,168.068,0,0,1,18.609,15.184c25.723,24.226,50.041,55.3,72.428,92.536,22.177,36.871,42.367,81.441,67.778,111.251,18.954,22.245,39.93,40.508,61.143,46.985,18.241,5.495,37.183.982,53.022-19.617a100.073,100.073,0,0,0,8.157-12.582c15.9-28.722,24.745-72.574,29.727-117.675,1.558-14.335,2.759-28.828,3.722-43.189,2.545-37.508,4.031-75.68,5.945-112.206,3.068-58.638,9.43-112.074,23.223-159.669,10.012-34.509,26.053-64.451,45.186-70.716,27.242-8.919,51.9,21.236,75.186,41.7q2.747,2.389,5.529,4.645c28.063,22.563,57.885,32.066,86.447,14.6,30.441-18.582,59.074-73.4,65.4-148.148" transform="translate(-85.137 -204.371)"/><path class="d" d="M119,924.616c15.8-49.536,33.655-95.637,53.331-137.69,8.692-18.582,17.836-36.765,28.752-48.71,21.8-23.891,46.375-19.537,69.289-5.1a158.063,158.063,0,0,1,18.348,13.7c25.4,22.06,49.5,50.922,71.786,85.953,22.081,34.668,42.272,76.981,67.291,105.623,19.561,22.4,40.988,41.358,62.737,48.472,18.693,6.052,38.206,1.938,54.52-18.821a95.844,95.844,0,0,0,8.431-12.715C569.9,926.129,578.954,881,584.15,834.84c1.641-14.706,2.925-29.571,4-44.251,2.806-38.411,4.756-77.485,7.23-114.834,4.031-59.965,11.891-113.666,26.8-161.341,10.2-32.571,25.768-61.319,44.365-67.717,26.469-9.1,50.548,18.263,73.213,35.783,1.784,1.38,3.567,2.654,5.387,3.982,27.349,19.192,55.887,25.351,82.975,6.105,28.847-20.466,55.555-74.963,60.929-147.7" transform="translate(-84.445 -210.791)"/><path class="d" d="M122.59,950.089c15.465-48.582,33.051-93.619,52.5-134.452,8.633-18.077,17.67-35.623,28.324-47.276,21.344-23.493,45.412-20.44,67.862-7.751a147.218,147.218,0,0,1,18.086,12.237c25.067,19.908,48.954,46.561,71.132,79.37,21.986,32.438,42.189,72.521,66.815,100.022,20.215,22.51,42.058,42.207,64.354,49.958,19.133,6.584,39.24,2.894,56.018-18.024a98.046,98.046,0,0,0,8.692-12.875c16.956-29.73,26.16-75.866,31.642-123.3,1.724-15.078,3.091-30.288,4.269-45.313,3.068-39.313,5.434-79.317,8.526-117.436,4.97-61.346,14.269-115.312,30.381-163.067,10.345-30.66,25.482-58.161,43.521-64.691,25.7-9.291,49.2,15.157,71.263,29.863,1.736,1.142,3.484,2.256,5.232,3.318,26.529,15.927,53.961,18.582,79.515-2.362,27.242-22.351,52.035-76.583,56.518-147.3" transform="translate(-83.766 -217.177)"/><path class="d" d="M126.22,975.759C141.346,928.1,158.666,884.117,177.9,844.52c8.478-17.546,17.444-34.509,27.884-45.976,20.9-23.068,44.389-21.236,66.435-10.379a153.252,153.252,0,0,1,17.836,10.618c24.741,17.759,48.417,42.2,70.5,72.787,21.879,30.235,42.094,68.062,66.34,94.421,20.809,22.643,43.1,43.056,65.959,51.444,19.573,7.141,40.227,3.849,57.5-17.2a96.844,96.844,0,0,0,8.954-13.033c17.492-30.209,26.909-77.486,32.629-126.143,1.807-15.423,3.258-31,4.53-46.375,3.341-40.163,6.148-81.122,9.822-120.037,5.945-62.7,16.647-117.011,33.961-164.739,10.464-28.8,25.209-55.028,42.7-61.691,24.971-9.477,47.837,12.051,69.289,23.891,1.7.929,3.389,1.805,5.1,2.655,25.744,12.5,51.987,11.945,76.043-10.857,25.625-24.236,48.5-78.149,52.094-146.874" transform="translate(-83.08 -223.762)"/><path class="d" d="M129.85,1001.139c14.793-46.7,31.844-89.613,50.846-127.974,8.324-17.016,17.242-33.341,27.456-44.623,20.464-22.616,43.378-22.245,65.008-13.007a139.973,139.973,0,0,1,17.539,9.238c24.411,15.61,47.873,37.844,69.859,66.2,21.784,28.031,42.011,63.522,65.876,88.82,21.4,22.723,44.163,43.879,67.564,52.931,20,7.672,41.238,4.779,58.991-16.4a96.96,96.96,0,0,0,9.227-13.273c18.015-30.66,27.623-79.052,33.6-128.876,1.891-15.927,3.425-31.855,4.756-47.436,3.567-41.065,6.849-82.954,11.118-122.639,6.885-64.053,18.895-118.789,37.528-166.465,10.547-26.97,24.971-51.869,41.868-58.638,24.15-9.663,46.494,8.919,67.339,18,1.641.717,3.294,1.38,4.946,1.991,24.971,9.158,50.025,5.309,72.535-19.325,24.032-26.147,44.984-79.768,47.683-146.45" transform="translate(-82.393 -230.082)"/><path class="d" d="M133.48,1026.559c14.456-45.762,31.239-87.628,50.013-124.762,8.324-16.458,17.028-32.173,27.04-43.269,20-22.139,42.344-23.121,63.569-15.635a121.269,121.269,0,0,1,17.278,7.778c24.079,13.433,47.323,33.449,69.205,59.594,21.689,25.828,41.939,59.01,65.4,83.219,22.082,22.776,45.186,44.728,69.17,54.418,20.452,8.229,42.26,5.733,60.5-15.582a93.488,93.488,0,0,0,9.513-13.273c18.55-31.191,28.348-80.724,34.579-131.771,1.962-16.139,3.567-32.438,5.078-48.5,3.865-41.941,7.586-84.732,12.4-125.213,7.9-65.381,21.154-120.674,41.107-168.19,10.607-25.218,24.65-48.737,41.048-55.612,23.378-9.848,45.185,5.787,65.4,12.078,1.605.478,3.2.929,4.756,1.327,24.21,5.787,48.051-1.46,69.11-27.819,22.426-28.032,41.452-81.334,43.271-146" transform="translate(-81.707 -236.469)"/><path class="d" d="M137.11,1052.167c14.118-44.831,30.638-85.642,49.193-121.524,8.181-15.927,16.814-31.057,26.6-41.914,19.561-21.714,41.333-23.891,62.142-18.263a110.681,110.681,0,0,1,17,6.291c23.75,11.3,46.781,29.128,68.563,53.09,21.594,23.6,41.88,54.418,64.937,77.618,22.712,22.8,46.291,45.551,70.775,55.9,20.892,8.76,43.271,6.663,61.987-14.786a94.2,94.2,0,0,0,9.763-13.538c19.026-31.695,29.062-82.29,35.554-134.583,2.045-16.511,3.758-33.181,5.339-49.56,4.138-42.844,8.324-86.564,13.7-127.841,8.859-66.734,23.354-122.665,44.686-169.889,10.7-23.519,24.365-45.6,40.227-52.612,22.593-10.034,43.782,2.655,63.4,6.159,1.546.266,3.092.478,4.649.664,23.449,2.442,46.089-8.149,65.638-36.287,20.833-30.023,37.932-83.113,38.9-145.653" transform="translate(-81.02 -242.938)"/><path class="d" d="M140.73,1077.656C154.521,1033.762,170.778,994,189.1,959.344c8.074-15.343,16.647-29.89,26.16-40.535,19.121-21.236,40.31-24.926,60.715-20.918a97.366,97.366,0,0,1,16.742,4.8c23.416,9.149,46.231,24.762,67.921,46.481,21.5,21.422,41.809,49.852,64.473,72.017,23.354,22.828,47.35,46.4,72.38,57.391,21.32,9.317,44.282,7.619,63.486-13.963a94.411,94.411,0,0,0,10.012-13.7c19.608-32.2,29.787-84.016,36.541-137.4,2.129-16.883,3.924-33.925,5.613-50.648,4.4-43.72,9-88.369,14.994-130.416,9.81-68.088,25.506-124.762,48.265-171.588C687.048,539,700.485,518.4,715.788,511.288c21.832-10.22,42.427-.425,61.452.239h4.495c22.676-.9,44.127-14.865,62.178-44.782,19.228-31.854,34.412-84.52,34.484-145.175" transform="translate(-80.336 -249.341)"/><path class="d" d="M144.36,1103.267c13.462-42.956,29.461-81.654,47.564-115.047a206.1,206.1,0,0,1,25.732-39.18c18.669-20.812,39.24-25.855,59.288-23.545a103.21,103.21,0,0,1,16.469,3.318c23.082,6.959,45.684,20.335,67.279,39.818,21.4,19.192,41.737,45.127,63.985,66.363,24.008,22.829,48.408,47.277,74,58.9,21.76,9.822,45.293,8.573,64.972-13.273a94.156,94.156,0,0,0,10.286-13.857c20.143-32.7,30.5-85.635,37.516-140.238,2.212-17.228,4.09-34.509,5.874-51.683,4.661-44.622,9.7-90.254,16.291-133.044,10.761-69.416,27.611-127.1,51.845-173.26,10.7-20.307,23.782-39.314,38.562-46.587,21.047-10.406,41.071-3.53,59.455-5.681,1.451-.159,2.9-.4,4.352-.664,21.9-4.247,42.165-21.555,58.718-53.25,17.622-33.712,30.917-86.139,30.025-144.751" transform="translate(-79.649 -255.892)"/><path class="d" d="M148,1128.69c13.128-42.019,28.857-79.672,46.72-111.835a208.77,208.77,0,0,1,25.3-37.8c18.229-20.36,38.277-26.758,57.861-26.2a103.448,103.448,0,0,1,16.2,1.858c22.733,4.8,45.1,15.967,66.589,33.235,21.3,16.989,41.678,40.641,63.521,60.815,24.662,22.776,49.466,48.1,75.591,60.364,22.212,10.379,46.315,9.53,66.47-12.343a94.5,94.5,0,0,0,10.559-14.016c20.667-33.1,31.261-87.28,38.5-143.052,2.295-17.6,4.269-35.358,6.148-52.745,4.923-45.5,10.4-92.005,17.587-135.646,11.713-70.8,29.668-129.594,55.412-174.986,10.7-18.768,23.52-36.155,37.73-43.561,20.286-10.618,39.728-6.636,57.528-11.6,1.4-.4,2.806-.85,4.2-1.328,21.142-7.618,40.2-28.27,55.245-61.744,16.029-35.57,27.349-87.6,25.613-144.326" transform="translate(-78.961 -262.229)"/><path class="d" d="M151.62,1154.433c12.785-41.182,28.255-77.865,45.9-108.835a212.862,212.862,0,0,1,24.864-36.42c17.836-19.935,37.254-27.687,56.434-28.828a95.709,95.709,0,0,1,15.934.372c22.408,2.591,44.579,11.51,65.983,26.545,21.2,14.785,41.618,35.995,63.022,55.187,25.328,22.7,50.537,48.949,77.208,61.877,22.652,10.91,47.326,10.459,67.969-11.547a94.024,94.024,0,0,0,10.821-14.2c21.2-33.659,31.939-88.873,39.466-145.866,2.378-17.944,4.435-36.075,6.421-53.807,5.184-46.374,11.106-93.81,18.871-138.247C657.188,688.54,676.2,628.362,703.5,584c10.7-17.307,23.247-33.022,36.862-40.561,19.5-10.777,38.36-9.742,55.554-17.52,1.356-.611,2.711-1.274,4.055-1.991,20.159-10.56,38.293-35.147,51.785-70.212,14.412-37.482,23.782-89.324,21.19-143.9" transform="translate(-78.277 -268.781)"/><path class="d" d="M155.25,1179.674c12.464-40.16,27.671-75.711,45.067-105.358a218.607,218.607,0,0,1,24.436-35.093c17.337-19.457,36.244-28.642,55.008-31.429a97.675,97.675,0,0,1,15.66-1.141c22.074.48,44.031,7.232,65.341,20.095,21.106,12.556,41.618,31.323,62.582,49.586,25.982,22.59,51.595,49.878,78.825,63.336,23.08,11.468,48.337,11.414,69.455-10.751a92.166,92.166,0,0,0,11.082-14.334c21.737-34.164,32.664-90.519,40.429-148.653,2.45-18.316,4.6-36.792,6.683-54.869,5.458-47.277,11.82-95.562,20.215-140.849,13.627-73.477,33.675-135.248,62.582-178.383,11.018-16.861,23.207-29.544,36.077-37.535,18.728-10.937,37-12.848,53.593-23.44,1.308-.823,2.6-1.725,3.9-2.654,19.438-14.126,36.358-41.691,48.313-78.706,12.819-39.366,20.31-90.89,16.778-143.476" transform="translate(-77.59 -275.069)"/><path class="d" d="M158.87,1205.23c12.14-39.234,27.089-73.743,44.246-102.146a227.061,227.061,0,0,1,24.008-33.713c16.807-18.4,34.953-29.946,53.581-34.084a107.662,107.662,0,0,1,15.4-2.654c21.736-1.681,43.478,2.851,64.7,13.485,21,10.353,41.5,26.546,62.106,43.986,26.648,22.431,52.653,50.622,80.419,64.824,23.52,12.025,49.347,12.37,70.953-9.928a92.814,92.814,0,0,0,11.344-14.494c22.26-34.668,33.378-92.165,41.428-151.494,2.533-18.582,4.756-37.535,6.956-55.957,5.719-48.153,12.521-97.447,21.4-143.344,14.578-74.857,35.673-138.433,66.149-180.109,10.984-15.056,22.843-26.668,35.245-34.509,17.955-11.122,35.673-15.927,51.631-29.359,1.26-1.062,2.521-2.15,3.758-3.318,18.734-17.725,34.461-48.28,44.912-87.254,11.213-41.278,16.778-92.51,12.367-143.052" transform="translate(-76.906 -281.537)"/><path class="d" d="M162.5,1230.553c11.8-38.309,26.488-71.771,43.4-98.907,22.308-36.582,48.319-60.29,75.722-69.018a102.745,102.745,0,0,1,15.125-4.088c21.4-3.862,42.926-1.542,64.057,6.9,20.9,8.15,41.44,21.953,61.631,38.385,27.349,22.219,53.723,51.444,82.047,66.363,23.96,12.556,50.358,13.272,72.44-9.131a92.134,92.134,0,0,0,11.617-14.653c22.795-35.172,34.1-93.784,42.4-154.333,2.616-19.033,4.935-38.252,7.218-56.993,5.945-49.055,13.235-99.252,22.759-146C676.463,712.9,698.473,647.223,730.65,607.3c10.943-13.289,22.507-23.855,34.484-31.509,17.182-11.308,34.293-19.059,49.668-35.278,1.189-1.274,2.378-2.655,3.567-3.982,17.962-21.316,32.446-54.764,41.38-95.563a450.1,450.1,0,0,0,7.943-142.627" transform="translate(-76.219 -287.775)"/><path class="d" d="M166.13,1256.223c26.5-87.28,70.157-144.963,116.46-166.039s94.878-7.432,139.433,27.527c28,21.979,54.77,52.321,83.629,67.8s61.334,14.309,85.829-23.121c30.643-46.852,40.869-135.38,50.869-215.2,16.445-131.346,42.807-271,97.351-332.159,27.206-30.448,59.039-38.092,84.77-74.327,35.673-50.277,53.509-156.086,41.44-246.339" transform="translate(-75.533 -294.36)"/></g><g transform="translate(-202.559 -718.608)"><path class="d" d="M-42.292,957.149c-4.994-59.855,34.912-110.432,75.163-119.71s80.633,9.893,120.527,22.2,84.759,16.354,118.077-18.362c42.593-44.381,52.439-137.737,96.317-179.424,34.151-32.48,78.611-22.762,113.594,1.408C501.171,676.922,518,699.914,536.9,715.934c85.769,72.618,91.56,221.041,164.416,243.169,78.837,23.995,121.644-32.955,136.532-72.371,19.026-50.578,50.881-181.854-27.04-273.079-31.666-37.057-62.915-76.561-86.2-125.361-34.876-73.041-34.638-184.741,9.953-245.106,30.56-41.37,77.493-56.51,98.255-109.552,13.948-35.649,12.046-81.614,0-118.812S800.015-51.846,777.291-75.7" transform="translate(42.717 75.7)"/><path class="d" d="M-40.807,952.389c-3.448-61.3,36.244-114.19,77.7-124.734,40.429-10.281,81.512,8.669,121.407,22.173,39.419,13.363,83.237,19.405,116.389-11.979,42.427-40.177,54.354-128.342,98.124-169.272,34.864-32.418,78.611-26.393,114.439-5.377,20.583,12.085,38.824,33.644,58.622,49.792,83.962,68.514,90.918,211.375,162.145,233.092,76.661,23.312,119.242-30.3,134.712-68.969,19.608-49.038,49.942-174.823-23.687-264.459-30.357-36.989-60.454-77.061-83.367-125.277-33.842-70.966-34.151-178.116,7.931-237.663,29.121-41.193,74.366-57.971,95.033-110.057,14.186-35.623,13.318-80.686,2.842-117.956C830.9-16.005,811.584-46.917,789.8-72.4" transform="translate(43.039 81.16)"/><path class="d" d="M-39.309,951.449c-1.9-62.874,37.575-118.315,80.228-130.138,40.679-11.263,82.392,7.468,122.287,22.247,38.955,14.428,81.608,22.491,114.712-5.719,42.248-36.133,56.185-119.609,99.967-159.782,35.518-32.618,78.659-30.151,115.271-12.138,21.4,10.494,41.024,30.764,61.738,47.116,82.048,64.85,90.181,202.543,159.874,223.863,74.449,22.736,116.769-27.755,132.834-65.742,20.131-47.606,49.026-168.562-20.31-257.093-29.073-37.095-58.016-77.81-80.549-125.7-32.819-69.135-33.663-172.234,5.945-231.12,27.67-41.082,71.2-59.534,91.786-110.865,14.424-35.713,14.59-80.1,5.613-117.563-9.156-38.214-26.85-70.727-47.766-97.94" transform="translate(43.349 86.587)"/><path class="d" d="M-37.8,950.452c-.357-64.494,38.907-122.422,82.761-135.537,40.893-12.225,83.237,6.252,123.166,22.319,38.479,15.473,80.026,25.567,113.024.542,42.082-32.116,58.075-110.826,101.822-150.347,36.208-32.71,78.742-33.932,116.115-18.879,22.248,8.959,43.212,27.942,64.841,44.463,80.121,61.333,89.5,193.727,157.615,214.806C793.758,950,835.829,902.6,852.488,865.3c20.643-46.21,48.123-162.415-16.945-249.56-27.789-37.215-55.471-78.587-77.719-126.072-31.654-67.463-33.188-166.4,3.888-224.621,26.243-41.2,68.028-61.386,88.6-111.909,14.6-35.923,15.886-79.583,8.407-117.165C850.99-2.868,834.937-36.922,814.853-65.79" transform="translate(43.647 92.096)"/><path class="d" d="M-36.28,949.555c1.189-66.113,40.239-126.505,85.306-140.91C90.109,795.5,133.142,813.667,173.06,831c38.051,16.515,78.48,28.653,111.347,6.784,41.9-28.095,59.954-102.055,103.665-140.927,36.862-32.821,78.861-37.757,116.948-25.6,23.116,7.377,45.412,25.078,67.945,41.854C651.088,771.1,661.79,898.074,728.32,918.792,798.31,940.434,840.1,896.121,857.384,859.5c21.142-44.819,47.231-156.4-13.567-242.11-26.517-37.373-53-79.436-74.913-126.47-30.6-65.677-32.712-160.616,1.867-218.114,24.828-41.3,64.889-63.13,85.4-112.937,14.816-35.942,17.182-79,11.189-116.756A283.174,283.174,0,0,0,827.4-62.52" transform="translate(43.934 97.507)"/><path class="d" d="M-34.76,948.531c2.747-67.7,41.618-130.515,87.838-146.274,41.3-14.07,85,3.8,124.914,22.429,37.552,17.535,76.9,31.815,109.658,13.008,41.773-23.978,61.833-93.3,105.52-131.542,37.6-32.912,78.992-41.618,117.792-32.285,23.984,5.764,47.564,22.254,71.048,39.146,76.1,54.748,88.148,176.191,153.084,196.582,67.778,21.07,109.314-20.165,127.233-56.107,21.618-43.429,46.375-150.47-10.214-234.63C826.87,581.28,801.6,538.634,780.044,492c-29.525-63.908-32.248-154.98-.143-211.644,23.366-41.287,61.69-64.726,82.119-113.71,15.054-36.046,18.538-78.483,13.972-116.357A294.251,294.251,0,0,0,839.938-59.19" transform="translate(44.222 103.016)"/><path class="d" d="M-33.24,947.6c4.293-69.31,42.9-134.534,90.371-151.609,41.511-14.954,85.865,2.539,125.794,22.5,37.088,18.519,75.317,34.881,107.982,19.127,41.618-19.962,63.736-84.56,107.363-122.171,38.289-33.038,79.146-45.523,118.624-38.967,24.876,4.139,49.752,19.458,74.164,36.516,73.985,51.661,87.47,167.52,150.825,187.586,65.531,20.571,106.793-17.684,125.307-52.913,22.093-42.08,45.507-144.706-6.849-227.214a1079.522,1079.522,0,0,1-69.253-127.248c-28.538-62.112-31.8-149.245-2.164-205.183,21.939-41.419,58.587-66.424,78.944-114.642,15.268-36.15,19.858-78,16.754-115.946A304.329,304.329,0,0,0,852.517-55.9" transform="translate(44.509 108.459)"/><path class="d" d="M-31.72,946.637c5.85-70.892,44.234-138.5,92.9-156.942,41.737-15.817,86.8,1.285,126.674,22.571,36.624,19.516,73.724,37.955,106.293,25.4C335.58,821.694,359.778,761.81,403.37,724.81c38.99-33.094,79.313-49.484,119.468-45.629,25.756,2.466,51.9,16.685,77.291,33.857,71.8,48.615,86.8,158.748,148.566,178.489C812,911.477,852.979,876.37,872.123,841.8c22.593-40.716,44.7-139.058-3.472-219.8a1313.825,1313.825,0,0,1-66.423-127.651c-27.42-60.335-31.356-143.659-4.185-198.717,20.512-41.549,55.448-68.079,75.734-115.532,14.6-34.6,21.427-75,19.525-115.549A311.82,311.82,0,0,0,865.06-52.59" transform="translate(44.797 113.936)"/><path class="d" d="M-30.2,945.739c7.372-72.489,45.566-142.464,95.437-162.3,41.951-16.661,87.613,0,127.554,22.626,36.16,20.459,72.166,41,104.64,31.555,41.238-12,67.529-67.131,111.061-103.506,39.692-33.167,79.491-53.469,120.3-52.273,26.66.78,54.068,13.87,80.371,31.208,69.61,45.771,86.114,150.057,146.259,169.458,61.084,19.418,101.775-12.673,121.561-46.534,23-39.391,43.937-133.5-.119-212.421-21.4-38.42-43.093-82.527-63.593-128.021-26.374-58.567-30.916-138.146-6.207-192.292,19.026-41.732,52.32-69.749,72.535-116.457,14.865-34.461,22.613-74.432,22.319-115.139-.469-42.787-8.881-84.59-24.341-120.965" transform="translate(45.084 119.346)"/><path class="d" d="M-28.68,944.732c8.942-74.058,46.91-146.368,97.97-167.539,42.177-17.5,88.493-1.264,128.422,22.7,35.673,21.4,70.573,44.023,102.928,37.7,41.071-8.032,69.431-58.461,112.964-94.226,40.429-33.238,79.669-57.491,121.145-58.859,27.551-.935,56.2,11.218,83.474,28.616,67.386,42.984,85.424,141.382,144.023,160.459,58.86,18.852,99.242-10.2,119.682-43.383,23.437-38.085,43.235-128.225,3.258-205.036-20.215-38.795-40.643-83.268-60.775-128.4C799.085,440,793.865,364.073,816.184,310.892c17.61-41.946,49.181-71.375,69.3-117.337,15.144-34.373,23.8-73.948,25.1-114.74C911.746,35.265,904.662-7.912,890.11-46" transform="translate(45.371 124.839)"/><path class="d" d="M-27.16,943.851c10.488-75.644,48.253-150.269,100.5-172.862,42.4-18.306,89.384-2.541,129.314,22.749,35.257,22.334,68.967,47.07,101.251,43.837,40.881-4.079,71.346-49.784,114.76-84.961,41.107-33.293,79.836-61.539,121.989-65.48,28.431-2.662,58.325,8.539,86.566,25.929C692.373,753.357,711.982,845.821,769,864.577c56.625,18.306,96.7-7.762,117.792-40.225,23.877-36.733,42.593-123.06,6.623-197.685-18.907-39.257-38.17-84.028-57.945-128.782-24.293-55-30.191-127.313-10.25-179.482,16.136-42.2,46.054-73.017,66.078-118.237A338.051,338.051,0,0,0,919.182,85.835C922,41.576,916.277-2.948,902.653-42.74" transform="translate(45.659 130.233)"/><path class="d" d="M-25.64,942.772c12.046-77.147,49.6-154.121,103.023-178.077,42.629-19.123,90.264-3.849,130.206,22.816,34.793,23.23,67.4,50.051,99.551,49.947,40.7-.155,73.248-41.145,116.615-75.731,41.82-33.344,79.99-65.584,122.822-72.039,29.335-4.418,60.465,5.885,89.681,23.386,62.879,37.676,84.069,124.125,139.5,142.541,54.413,17.759,94.153-5.3,115.913-37.055,24.293-35.432,42.046-118.016,10-190.348-17.61-39.7-35.673-84.758-55.126-129.148-23.259-53.209-29.87-121.986-12.272-173.089,14.638-42.474,42.926-74.644,62.868-119.086A369.135,369.135,0,0,0,927.812,92.981c4.471-44.959.094-90.838-12.628-132.341" transform="translate(45.946 135.825)"/><path class="d" d="M-24.12,941.923C-10.529,863.131,26.833,783.96,81.448,758.557c42.807-19.9,91.168-5.17,131.086,22.886,34.341,24.127,65.816,53.045,97.874,56.026,40.524,3.774,75.151-32.5,118.458-66.5,42.534-33.4,80.157-69.71,123.666-78.62,30.215-6.187,62.57,3.274,92.749,20.8,60.584,35.122,83.367,115.707,137.233,133.63,52.166,17.371,91.56-2.9,114.046-33.916,24.7-34.157,41.618-113.139,13.354-183.056-16.255-40.292-33.295-85.5-52.32-129.528-22.236-51.425-29.6-116.723-14.269-166.718,13.08-42.791,39.8-76.259,59.645-120,16.647-36.708,28.384-75.208,33.461-113.535,6.133-45.658,3.1-92.907-8.728-136.146" transform="translate(46.234 141.186)"/><path class="d" d="M-22.6,940.867c15.137-80.336,52.32-161.74,108.1-188.53,43.093-20.648,92.06-6.487,131.99,22.936,33.9,25.018,64.211,56.041,96.186,62.115,40.346,7.657,77.065-23.9,120.313-57.331s80.3-73.8,124.5-85.154c31.095-7.967,64.687.723,95.889,18.2,58.266,32.692,82.69,107.144,134.986,124.746,49.942,16.811,89.027-.5,112.155-30.782,25.1-32.9,41.214-108.4,16.731-175.745-14.9-40.917-30.833-86.221-49.5-129.891-21.214-49.658-29.359-111.531-16.314-160.363,11.534-43.153,36.684-77.876,56.435-120.892,16.956-36.77,29.858-74.71,36.232-113.114A350.889,350.889,0,0,0,940.282-32.77" transform="translate(46.521 146.728)"/><path class="d" d="M-21.07,939.919C-4.339,858.023,32.582,774.392,89.6,746.148c43.331-21.44,92.963-7.817,132.846,23,33.473,25.873,62.653,59,94.509,68.152,40.168,11.545,78.968-15.29,122.156-48.1,44-33.466,80.43-77.911,125.343-91.655,31.963-9.793,66.78-1.8,98.992,15.617,55.971,30.253,82.048,98.6,132.715,115.878,47.706,16.252,86.471,1.872,110.277-27.677,25.506-31.628,40.976-103.732,20.1-168.466-13.413-41.575-28.36-86.93-46.648-130.257-20.215-47.863-29.192-106.378-18.324-154.034,9.905-43.517,33.556-79.474,53.212-121.753,17.135-36.851,31.345-74.217,39.014-112.717a355.453,355.453,0,0,0-.9-143.606" transform="translate(46.81 152.188)"/><path class="d" d="M-19.55,939.039C-1.321,855.6,35.458,769.764,93.6,740.054c43.568-22.2,93.938-9.16,133.726,23.072,33.033,26.709,61.072,61.96,92.821,74.19,39.989,15.438,80.858-6.724,124.011-39.059,44.686-33.5,80.549-82.03,126.175-98.154,32.831-11.6,68.872-4.254,102.108,13.037,53.64,27.944,81.322,90.075,130.444,107.04,45.483,15.713,83.891,4.237,108.4-24.547,25.9-30.4,40.869-99.218,23.473-161.246-11.891-42.3-25.922-87.639-43.83-130.61-19.192-46.092-29.073-101.208-20.345-147.729,8.24-43.914,30.441-81.086,49.942-122.633,17.385-36.932,32.855-73.762,41.808-112.306A359.606,359.606,0,0,0,965.318-26.21" transform="translate(47.098 157.582)"/><path class="d" d="M-18,938.049C1.739,853.082,38.339,765.068,97.651,733.932c43.806-22.967,94.795-10.533,134.606,23.1,32.617,27.557,59.455,64.91,91.144,80.2,39.811,19.251,82.809,1.833,125.854-29.955,45.412-33.5,80.668-86.148,127.019-104.61,33.675-13.427,70.941-6.662,105.211,10.464,51.3,25.69,80.644,81.575,128.185,98.222,43.247,15.157,81.31,6.56,106.519-21.443,26.279-29.2,40.881-94.745,26.826-153.987-10.214-43.074-23.485-88.357-40.988-130.986C883.833,460.64,873,408.8,879.648,363.514c6.5-44.307,27.349-82.654,46.779-123.484,17.622-37.011,34.365-73.183,44.579-111.906,12.816-48.189,15.22-100.832,6.9-151.024" transform="translate(47.391 163.058)"/><path class="d" d="M-16.51,937.051c21.332-86.505,57.754-176.687,118.22-209.21,44-23.7,95.722-11.884,135.485,23.17,32.189,28.385,57.933,67.73,89.456,86.2,39.68,22.964,84.735,10.345,127.709-20.878C500.5,782.8,535.123,726.046,582.211,705.185c34.484-15.253,73.01-8.977,108.315,7.917,48.967,23.426,80,72.946,125.925,89.429,41.048,14.483,78.73,8.875,104.64-18.348,26.66-28.009,41.06-90.3,30.2-146.781a714.185,714.185,0,0,0-38.17-131.34c-17.194-42.509-29.038-91.037-24.4-135.085,4.756-44.7,24.21-84.231,43.557-124.346,17.836-37.071,35.887-72.638,47.373-111.5,14.487-48.775,18.254-102.755,10.8-154.7" transform="translate(47.673 168.568)"/><path class="d" d="M-15,936.1C7.89,848.046,44.134,755.736,105.765,721.711c44.294-24.43,96.662-13.248,136.365,23.235,31.784,29.194,56.363,70.679,87.779,92.19,39.5,26.821,86.649,18.865,129.611-11.831,46.862-33.53,80.858-94.392,128.7-117.491,35.352-17.072,75.056-11.233,111.418,5.344,46.613,21.272,79.313,64.516,123.666,80.683,38.824,13.948,76.1,11.148,102.762-15.263,27.04-26.837,41.392-85.822,33.568-139.6A589.094,589.094,0,0,0,924.29,507.3c-16.207-40.734-29.1-85.942-26.422-128.9,2.806-45.054,21.106-85.788,40.346-125.208,18.122-37.132,37.409-72.062,50.156-111.089,16.149-49.358,21.282-104.673,14.7-158.379" transform="translate(47.958 174.028)"/><path class="d" d="M-13.47,935.207c24.424-89.574,60.5-184.091,123.285-219.461,44.543-25.142,97.6-14.625,137.245,23.284,31.38,30,54.782,73.62,86.09,98.131,39.335,30.682,88.611,27.461,131.407-2.83,47.635-33.392,80.93-98.505,129.528-123.9,36.184-18.92,77.1-13.381,114.534,2.813,44.246,19.142,78.635,56.148,121.395,71.932,36.589,13.415,73.534,13.415,100.871-12.188s41.856-81.256,36.945-132.409c-4.364-45.409-16.243-90.341-32.522-132.052-15.232-38.949-29.216-80.779-28.443-122.642.844-45.392,18.05-87.307,37.123-126.137,18.431-37.142,38.943-71.591,52.938-110.693C1014.75,99.129,1021.255,42.477,1015.537-13" transform="translate(48.248 179.438)"/><path class="d" d="M-11.95,949.984C14.02,857.335,49.966,759.3,113.868,721.6c44.817-26.195,98.552-16.281,138.125,23.738,30.916,31.316,53.212,77.857,84.426,105.781,39.157,35.053,90.514,36.471,133.25,6.263,48.349-33.98,80.989-104.311,130.372-132.46,37-21.091,79.111-15.658,117.625.294,41.939,17.3,77.957,48.444,119.135,64.275,34.377,13.1,70.941,15.9,99-9.274,27.789-24.931,42.439-77.857,40.3-127.356-2.022-46.818-13.841-92.563-29.727-134.588-14.269-37.8-29.383-76.836-30.465-118.377-1.189-46.4,14.923-90.348,33.913-129.017,18.669-37.856,40.429-72.1,55.721-112.114,19.492-51.3,27.377-110.236,22.533-168.43" transform="translate(48.535 169.227)"/><path class="d" d="M-10.43,1003.062C17.1,903.586,52.842,797.629,117.921,756.4c45.055-28.529,99.515-18.69,139.005,25.152,30.583,33.932,51.63,85.331,82.749,118.076,38.99,41.123,92.417,47.548,135.105,16.245,49.05-35.976,81.049-114.626,131.2-146.805,37.825-24.276,81.132-18.6,120.741-2.428s77.291,42.291,116.864,58.609c32.106,13.252,68.349,19.184,97.125-6.516,28.17-25.152,43.152-76.9,43.675-126.91s-11.475-98.564-26.874-142.607c-13.282-38.02-29.6-75.493-32.486-118.4-3.306-49.282,11.8-97.158,30.691-137.241s42-75.547,58.5-118.039c21.143-54.8,30.388-118.495,26.4-181.887" transform="translate(48.822 120.582)"/></g></g></g></svg>