<svg xmlns="http://www.w3.org/2000/svg" xmlns:xlink="http://www.w3.org/1999/xlink" width="1920" height="871" viewBox="0 0 1920 871"><defs><style>.a,.d{fill:none;stroke:#fff;stroke-width:2px;}.b{fill:#f6f6f6;}.c{clip-path:url(#a);}.d{stroke-miterlimit:10;}</style><clipPath id="a"><rect class="a" width="1920" height="871"/></clipPath></defs><g transform="translate(0 -1451.153)"><rect class="b" width="1920" height="871" transform="translate(0 1451.153)"/><g transform="translate(0 1451.153)"><g transform="translate(0 0)"><g class="c" transform="translate(0 0)"><g transform="translate(-395.158 -282.285)"><path class="d" d="M1333.254-52.3a905.333,905.333,0,0,1-58.141,132.92c-10.24,19.32-21.812,38.883-41.756,54.318-51.024,39.458-140.3,40.677-216.487,32.106a1234.983,1234.983,0,0,1-204.454-40.416c-64.874-18.745-127.624-42.942-197.132-50.886S464.925,80.62,427.47,121.193c-22.273,24.18-25.832,54.771-17.127,82.7s28.674,53.6,50.819,77.836c25.371,27.734,54.813,55.833,58.628,88.393,3.943,33.726-23.425,68.219-67.05,84.455-62.033,23.1-137.967,8.606-207.552,0C156.81,443.615,62.008,443.7-18.74,470.512S-161.9,555.56-153.609,616.428" transform="translate(154.349 243.597)"/><path class="d" d="M1314.079-57.53a847.427,847.427,0,0,1-57.092,129.836c-10.24,18.849-21.531,37.907-40.962,53.029-49.693,38.639-136.072,40.764-210.163,33.413q-26.4-2.613-52.483-6.341A1191.773,1191.773,0,0,1,806.6,122.13c-63.39-17.421-124.833-40.068-192.78-47.332s-144.546,6.01-184.126,43.8c-14.733,13.655-24.76,29.392-29.339,46.043a86.418,86.418,0,0,0-1.741,34.58,100,100,0,0,0,3.61,15.94c6.81,21.323,21.3,42.193,37.148,62.035,1.562,1.968,3.149,3.92,4.736,5.888,24.782,30.434,50.947,61.565,52.381,95.622,1.382,32.786-24.04,66.2-66.564,82.138-60.445,22.786-134.152,9.738-201.459,2.456-5.3-.575-10.625-1.115-15.975-1.585-80.8-7.351-165.284-4.355-237.378,21.009-76.8,27.037-135.56,84.02-126.267,143.163" transform="translate(157.83 239.715)"/><path class="d" d="M1294.841-62.76a798.114,798.114,0,0,1-56.093,126.753c-10.061,18.379-21.249,36.967-40.195,51.757-48.259,37.8-131.874,40.817-203.839,34.685q-25.6-2.2-51.05-5.453A1164.914,1164.914,0,0,1,800.6,117.6C738.7,101.622,678.56,80.49,612.226,73.853s-139.17,7.16-180.363,42.123c-16.641,14.111-30.21,28.03-37.455,44.074a84.8,84.8,0,0,0-7.68,34.493,86.34,86.34,0,0,0,1.485,16.637c4.3,22.542,18.689,45.294,34.229,66.878,1.562,2.143,3.1,4.268,4.659,6.393,24.193,33.1,47.158,67.192,46.083,102.782-.9,31.793-24.654,64.073-66,79.856-58.884,22.438-130.286,10.836-195.34,4.93q-7.68-.705-15.361-1.289c-78.034-5.749-158.883-1.394-227.316,24.2-72.99,27.281-128.008,82.992-117.767,140.411" transform="translate(161.4 235.835)"/><path class="d" d="M1275.754-68a753.785,753.785,0,0,1-55.069,123.687c-9.959,17.909-20.993,35.991-39.426,50.52-47.184,36.932-127.675,40.851-197.542,35.921q-24.885-1.742-49.59-4.547A1140.047,1140.047,0,0,1,794.8,113.175C734.383,98.594,675.55,79,610.779,73s-134.2,8.205-176.651,40.468c-18.484,14.041-35.381,26.514-45.545,42.071a86.821,86.821,0,0,0-13.748,34.284,76.173,76.173,0,0,0-.742,17.421c1.792,23.762,16.078,48.482,31.336,71.738,1.51,2.3,3.021,4.6,4.557,6.968,23.6,35.869,43.523,72.7,39.913,110.081-2.919,30.73-25.294,62-65.489,77.539-57.219,22.124-126.446,11.968-189.247,7.4-4.967-.348-9.933-.679-14.9-.958-75.243-4.164-152.483,1.551-217.281,27.368-69.124,27.525-120.327,81.878-109.063,137.624" transform="translate(164.819 231.946)"/><path class="d" d="M1256.641-73.21a709.2,709.2,0,0,1-54.071,120.569c-9.805,17.421-20.737,34.981-38.658,49.161-45.75,36.2-123.451,41.008-191.192,37.3q-24.168-1.307-48.131-3.641a1118.492,1118.492,0,0,1-135.688-21.6C730.017,95.37,672.439,77.218,609.28,71.991S479.659,81.1,436.418,110.77c-20.481,13.937-40.527,25-53.763,40.068-9.4,10.6-16.087,22.211-19.764,34.336a69.6,69.6,0,0,0-2.867,18.013c-.742,24.981,13.466,51.635,28.418,76.651l4.455,7.4c23.118,38.517,39.913,78.045,33.692,117.241-4.685,29.615-25.909,59.945-64.977,75.257C306,501.533,239.03,492.823,178.483,489.617q-7.181-.392-14.362-.645c-72.427-2.613-146.031,4.494-207.194,30.486C-108.281,547.21-155.72,600.4-143.508,654.365" transform="translate(168.263 228.08)"/><path class="d" d="M1237.482-78.44A666.247,666.247,0,0,1,1184.41,39.045c-9.677,16.968-20.481,34.057-37.839,47.907-44.47,35.347-119.278,41.061-184.92,38.569q-23.4-.888-46.672-2.752a1088.668,1088.668,0,0,1-131.9-18.71C725.63,92.248,669.409,75.7,607.812,70.96s-125.448,9.965-169.175,37.158c-22.478,13.937-45.673,23.483-61.751,38.1-11.5,10.272-20.174,21.875-25.6,34.249a68.647,68.647,0,0,0-5.12,18.675c-3.251,26.131,10.855,54.771,25.6,81.442,1.434,2.648,2.893,5.226,4.327,7.926,22.478,41.27,36.354,83.445,27.445,124.506-6.2,28.552-26.5,57.889-64.439,72.975-54.25,21.515-118.945,14.25-177.137,12.386-4.583-.139-9.191-.244-13.8-.314C78.474,497.087,8.479,505.5-48.971,531.772c-61.316,27.995-105.2,79.909-91.807,132.153" transform="translate(171.754 224.199)"/><path class="d" d="M1218.7-83.67a625.062,625.062,0,0,1-52.1,114.4c-9.575,16.515-20.174,33.1-37.071,46.635-43.164,34.563-115.079,41.165-178.6,39.893q-22.657-.453-45.238-1.847A1063.142,1063.142,0,0,1,777.513,99.6C721.548,89.143,666.632,74.161,606.648,70.12S485.092,80.712,441.185,105.641c-24.654,13.937-50.845,21.9-69.892,36.026-13.656,9.911-24.39,21.515-31.618,34.179A68.906,68.906,0,0,0,332.3,195.2c-5.76,27.42,8.269,57.924,22.606,86.389q2.151,4.216,4.25,8.432c21.889,43.97,33,88.741,21.2,131.735-7.527,27.438-27.112,55.746-64,70.658-52.381,21.149-114.9,15.313-170.942,14.825H132.148C65.226,507.867-1.133,517.692-55,544.119c-57.45,28.239-97.619,78.881-83.231,129.4" transform="translate(174.915 220.318)"/><path class="d" d="M1199.732-88.9a584.135,584.135,0,0,1-51.024,111.318c-9.422,16.044-19.892,32.124-36.3,45.294-41.833,33.744-110.855,41.235-172.273,41.182q-21.889,0-43.753-.958A1029.455,1029.455,0,0,1,771.905,95.01c-54.48-9.024-108.09-22.508-166.41-25.9s-124.577,6.271-161.828,33.848c-30.082,10.435-55.991,20.5-77.931,34.127-15.778,9.532-28.577,21.126-37.634,34.092a70.638,70.638,0,0,0-9.6,20.051c-8.269,28.622,5.658,60.972,19.713,91.128q2.1,4.477,4.147,8.954c21.3,46.67,29.8,94.072,14.951,138.947-8.7,26.34-27.65,53.812-63.492,68.376-50.794,20.817-111.06,16.428-164.849,17.3-4.25,0-8.474.174-12.8.314C52.04,518.454-10.735,529.569-60.94,556.31c-53.533,28.483-90.015,77.853-74.6,126.648" transform="translate(178.142 216.437)"/><path class="d" d="M1180.74-94.13A547.459,547.459,0,0,1,1130.714,14.1c-9.293,15.557-19.611,31.166-35.51,44.074-40.527,32.873-106.656,41.287-165.949,42.437q-21.147.418-42.319,0A1006.816,1006.816,0,0,1,766.174,90.6c-53-7.717-105.3-19.668-162.109-22.49s-120.788,6.533-157.987,32.246c-32.514,9.86-61.188,18.954-86.047,32.211-17.842,9.154-32.668,20.749-43.523,34.04a73.7,73.7,0,0,0-11.828,20.713c-10.778,29.842,3.072,64.2,16.82,95.988q2.048,4.7,4.045,9.459c20.712,49.37,26.754,99.3,8.7,146.159-9.78,25.156-28.392,51.618-62.954,66.007-49.181,20.487-107.194,17.542-158.73,19.755-4.071.174-8.116.4-12.186.645C38.936,529.147-20.127,541.6-66.7,568.57c-49.641,28.692-82.411,76.808-66,123.878" transform="translate(181.467 212.556)"/><path class="d" d="M1161.923-99.36a511.887,511.887,0,0,1-49,105.151c-9.165,15.086-19.38,30.19-34.741,42.785C1038.958,80.7,975.723,89.933,918.529,92.3q-20.481.871-40.962.836a975.7,975.7,0,0,1-117.05-7.125c-51.51-6.254-102.406-16.689-157.757-18.779S485.811,73.906,448.638,97.755c-34.921,9.3-66.334,17.421-94.137,30.138-19.931,8.755-36.847,20.337-49.59,33.953a77.191,77.191,0,0,0-14.03,21.393c-13.287,31.061.461,67.331,13.927,100.831q2,4.965,3.943,9.965c20.123,52.088,23.912,104.524,2.56,153.406-10.676,24.145-29.083,49.614-62.365,63.777-47.67,20.173-103.43,18.675-152.713,22.246-3.891.279-7.68.592-11.649.958-58.576,5.4-114.106,19.163-157.04,46.409-45.75,28.936-74.808,75.78-57.373,121.126" transform="translate(184.615 208.675)"/><path class="d" d="M1143.16-104.59a477.566,477.566,0,0,1-48,102.068c-9.037,14.633-19.1,29.249-33.948,41.514-37.916,31.357-98.259,41.5-153.353,45.085q-19.611,1.289-39.375,1.742a948.593,948.593,0,0,1-113.338-4.251c-50-4.93-99.667-13.832-153.43-15.278S488.3,73.258,451.176,95.138c-37.327,8.71-71.48,15.94-102.253,28.152-20.968,8.327-40.937,19.459-55.453,33.883a81.99,81.99,0,0,0-16.257,22.072c-15.8,32.281-2.151,70.484,11.009,105.691,1.306,3.484,2.56,6.968,3.866,10.452,19.56,54.788,21.224,109.872-3.763,160.619-11.367,23.1-29.672,47.593-61.853,61.512-46.083,19.825-99.488,19.772-146.518,24.72-3.712.383-7.424.8-11.111,1.272C13.03,550.48-38.864,565.67-78.137,593.091c-41.884,29.18-67.23,74.752-48.643,118.461" transform="translate(187.71 204.794)"/><path class="d" d="M1124.663-109.82a445.871,445.871,0,0,1-47.03,98.984c-8.909,14.163-18.817,28.274-33.154,40.242-36.61,30.486-94.06,41.566-147.03,46.374q-18.894,1.742-37.942,2.631A923.585,923.585,0,0,1,749.933,77c-48.643-3.484-96.928-10.853-148.976-11.654s-109.6,7.09-146.825,27.194c-39.734,8.17-76.651,14.424-110.343,26.131-23.041,8-45.187,19.163-61.444,33.8a87.342,87.342,0,0,0-18.484,22.751c-18.279,33.535-4.787,73.655,8.065,110.569q1.92,5.487,3.738,10.992c19,57.488,18.792,115.238-9.985,167.848-12.058,22.02-30.184,45.5-61.444,59.231-44.367,19.511-95.673,20.9-140.45,27.194-3.507.505-7.04,1.028-10.548,1.6C.217,561.242-48.068,577.757-83.705,605.4c-37.993,29.423-59.626,73.724-40.169,115.621" transform="translate(190.539 200.913)"/><path class="d" d="M1106.12-115a413.723,413.723,0,0,1-46.083,95.814c-8.756,13.693-18.536,27.3-32.386,38.953-35.279,29.615-89.836,41.653-140.808,47.663q-18.126,2.178-36.457,3.484a891.453,891.453,0,0,1-105.914,1.55c-47.03-2.108-94.137-7.926-144.6-8.083S494.064,71.645,456.993,89.9c-42.115,7.63-81.8,12.856-118.433,24.163-25.064,7.682-49.334,18.692-67.46,33.727a92.788,92.788,0,0,0-20.686,23.431c-20.814,34.737-7.348,76.773,5.12,115.394q1.869,5.714,3.635,11.5c18.407,60.188,16.564,120.673-16.231,175.061-12.673,20.992-30.722,43.447-60.8,56.9C139.38,549.233,90.327,552.09,47.8,559.685c-3.354.61-6.682,1.237-10.01,1.916-50.256,10.174-94.9,28.065-126.907,55.92-34.1,29.615-52.022,72.7-31.541,112.868" transform="translate(193.388 197.069)"/><path class="d" d="M1087.781-120.28a385.29,385.29,0,0,1-44.956,92.817c-8.653,13.2-18.28,26.34-31.618,37.664-33.973,28.849-85.637,41.81-134.383,48.97Q859.415,61.749,841.8,63.6a857.89,857.89,0,0,1-102.176,4.442c-45.571-.714-91.346-5.017-140.22-4.512S500.685,75.72,460.056,87.409C417.967,99.6,373.01,98.8,333.507,109.586c-27.086,7.352-53.507,18.292-73.425,33.639a98.987,98.987,0,0,0-23.041,24.11c-23.323,35.956-9.933,79.909,2.33,120.2q1.792,5.993,3.533,12.02c17.921,62.906,14.567,126.2-22.478,182.273-13.108,19.982-31.311,41.357-60.164,54.579-41.167,18.849-87.967,23.2-128.238,32.141-3.175.7-6.324,1.446-9.473,2.23-47.465,11.776-88.5,31.008-116.871,59.091-30.21,29.894-44.444,71.669-23.041,110.116" transform="translate(196.059 193.151)"/><path class="d" d="M1069.638-125.5a358.412,358.412,0,0,1-43.958,89.717C1017.155-23.032,1007.759-10.4,994.958.608,962.291,28.656,913.52,42.418,866.95,50.867Q850.335,53.9,833.412,56.2a824.176,824.176,0,0,1-98.668,7.317c-44.06.679-88.556-2.09-135.842-.941S503.229,74.507,463.214,84.785c-44.8,11.532-92.166,9.895-134.639,20.208-29.032,6.951-57.706,17.839-79.339,33.43a104.708,104.708,0,0,0-25.115,24.79c-25.858,37.228-12.57,83.114-.589,125.15q1.766,6.219,3.431,12.525c17.23,65.606,12.8,131.822-28.725,189.5-13.7,19.041-32.028,39.319-59.754,52.262-39.554,18.57-84.1,24.319-122.119,34.65-3,.819-5.965,1.742-8.935,2.561-44.7,13.362-82.1,33.953-106.81,62.261-26.344,30.138-36.866,70.641-14.337,107.364" transform="translate(198.534 189.277)"/><path class="d" d="M1051.767-130.73A331.6,331.6,0,0,1,1008.808-44.1c-8.372,12.194-17.716,24.389-30.031,35.12-31.362,27.211-77.24,41.81-121.761,51.548q-15.9,3.484-32.1,6.219a791.794,791.794,0,0,1-94.726,10.243c-42.576,2.056-85.74.819-131.438,2.63S506.121,73.336,466.848,82.2c-47.619,10.644-97.337,8.292-142.806,18.118-31.106,6.707-61.828,17.595-85.356,33.483a110.812,110.812,0,0,0-27.342,25.469c-28.367,38.325-15.156,86.2-3.507,129.958q1.741,6.48,3.354,13.013c16.667,68.272,11.393,137.606-34.972,196.732C162.061,517.076,143.6,536.238,117,548.99,79.061,567.195,36.742,574.337.976,586.079c-2.816.923-5.632,1.882-8.4,2.875-41.935,14.964-75.729,36.9-96.774,65.432C-126.648,684.767-133.458,724.068-109.9,759" transform="translate(200.737 185.396)"/><path class="d" d="M1034.216-136c-9.148,28.889-23.222,56.952-41.935,83.619a185.339,185.339,0,0,1-29.135,33.744C933.09,7.773,890.1,23.33,847.683,34.218q-15.13,3.9-30.722,7.125A762.528,762.528,0,0,1,725.922,54.46c-40.963,3.484-82.975,3.745-127.086,6.2S509.23,72.038,470.674,79.546c-50.281,9.773-102.509,6.881-150.9,16.149-33.1,6.446-65.975,17.194-91.4,33.465a117.515,117.515,0,0,0-29.57,26.131c-30.8,39.7-17.691,89.351-6.272,134.819q1.69,6.742,3.251,13.536C211.868,374.67,206.031,447.157,154.6,507.59c-14.618,17.212-33.282,35.207-58.73,47.733C59.411,573.2,19.4,581.732-14.091,594.867c-2.56,1.045-5.274,2.108-7.86,3.188-39.145,16.567-69.329,39.859-86.738,68.62C-127.25,697.3-130.348,735.26-105.8,768.534" transform="translate(202.619 181.485)"/><path class="d" d="M1017.038-141.19c-8.778,27.831-22.534,54.825-40.963,80.379a192.684,192.684,0,0,1-28.495,32.542C918.907-2.678,878.815,13.784,838.518,25.874c-9.6,2.892-19.355,5.575-29.186,8.031a725.388,725.388,0,0,1-87.352,16.01c-39.606,4.843-80.159,6.672-122.683,9.773S512.943,70.7,474.848,76.9c-53.123,8.71-107.527,5.366-158.935,14.215-35.125,6.062-70.148,16.759-97.286,33.343a124.312,124.312,0,0,0-31.8,26.828c-33.282,40.834-20.481,92.486-9.293,139.662q1.664,6.968,3.123,14.041c15.515,73.724,9.217,149.609-47.414,211.173-15.054,16.341-33.871,33.1-58.192,45.416C40.313,579.138,2.474,589.19-28.76,603.614c-2.56,1.132-4.915,2.317-7.322,3.484-36.11,17.793-62.964,42.942-76.677,71.808-14.7,30.835-14.081,67.54,11.5,99.089" transform="translate(204.104 177.634)"/><path class="d" d="M1000.322-146.42c-8.359,26.821-21.774,52.8-39.913,77.278a202.838,202.838,0,0,1-27.7,31.357c-27.419,24.79-64.618,42.141-102.816,55.45-9.089,3.188-18.356,6.149-27.727,8.919a690.626,690.626,0,0,1-83.615,18.9c-38.121,6.237-77.368,9.581-118.331,13.344s-83.1,10.592-120.686,15.557c-55.888,7.386-112.8,3.867-167.05,12.194-37.148,5.7-74.321,16.323-103.251,33.221a131.34,131.34,0,0,0-34.024,27.49c-35.842,42.054-23.041,95.622-12.186,144.5,1.05,4.826,2.074,9.686,3.021,14.564,14.926,76.424,8.551,155.915-53.763,218.386C96.92,540.268,77.8,555.807,54.6,567.88c-33.026,17.229-68.612,28.709-97.568,44.51q-3.4,1.846-6.759,3.815c-33.283,19.545-56.591,45.774-66.564,74.909-10.8,31.078-6.477,66.512,20.1,96.336" transform="translate(205.151 173.753)"/><path class="d" d="M984.4-151.65c-7.975,25.814-21.057,50.773-38.889,74.195a223.273,223.273,0,0,1-26.933,30C892.466-23.5,858.16-5.247,822.087,9.282c-8.6,3.484-17.383,6.742-26.267,9.808A653.036,653.036,0,0,1,715.892,40.9c-36.61,7.613-74.577,12.491-113.927,16.9S522.191,67.938,484.992,71.735c-58.6,5.958-117.946,2.317-175.166,10.209-39.145,5.4-78.469,15.975-109.216,33.1A137.739,137.739,0,0,0,164.383,143.3c-38.4,43.273-25.6,98.775-15.1,149.365,1.05,4.982,2.023,10.017,2.944,15.069,14.337,79.125,8.167,162.43-59.908,225.6a275.653,275.653,0,0,1-57.143,40.851c-31.516,16.9-64.874,29.842-91.628,47.036q-3.149,2.038-6.221,4.146c-30.553,21.314-50.373,48.678-56.605,78.149-6.912,31.358,1.127,65.484,28.725,93.584" transform="translate(205.404 169.872)"/><path class="d" d="M969.178-156.88c-7.593,24.81-20.352,48.755-37.89,71.111a244.992,244.992,0,0,1-26.139,28.709C880.34-33.907,848.825-14.779,814.954.969c-8.09,3.763-16.385,7.334-24.808,10.714a613.189,613.189,0,0,1-76.19,24.7A948.24,948.24,0,0,1,604.381,56.854c-37.558,5.017-76.293,9.651-113.236,12.194-61.239,4.3-123.092.836-183.256,8.257-41.167,5.069-82.616,15.574-115.207,33.1-15.122,8.069-28.087,17.852-38.326,28.918-40.963,44.475-28.162,101.894-17.921,154.19,1,5.226,1.971,10.452,2.842,15.679,13.748,81.877,8.039,169.19-66.154,232.827a341.062,341.062,0,0,1-56.631,38.535c-29.9,16.567-61.009,30.956-85.509,49.457q-2.88,2.195-5.684,4.46c-27.78,23.04-44.142,51.466-46.748,81.215-3.021,31.566,8.73,64.456,37.353,90.831" transform="translate(204.96 165.991)"/><path class="d" d="M954.807-162.11C934.684-94.274,869.426-34.643,785.478,4.275S599.713,62.46,498.177,66.5c-63.8,2.526-128.264-.679-191.346,6.254S179.719,98.887,145,135.331c-43.523,45.694-30.722,105.047-20.891,159.051,16.257,88.845,16.027,188.143-69.662,256.084C11.773,584.3-48.6,606.926-86.2,643.422c-52.125,50.607-48.08,124.732,9.421,172.569" transform="translate(203.637 162.11)"/></g><g transform="translate(230.261 512.916)"><path class="d" d="M89.94,606.6A1398.381,1398.381,0,0,1,218.972,499.283c20.481-15.1,42.165-30.138,69.329-39.144,69.457-22.978,152.509-.662,217.921,27.263,60.318,25.756,115.922,56.3,165.642,90.988,49.206,34.354,93.369,73.167,152.995,98.74s141.449,35.068,199.052,7.421c34.281-16.445,54.915-43.743,62.724-71.773s3.968-56.983-2.714-85.152c-7.681-32.263-18.868-65.9-3.917-96.946,15.514-32.141,60.343-56.757,109.779-60.276,70.327-5.017,132.155,28.309,191.448,54.544,75.294,33.343,162.8,58.168,252.483,54.649s180.338-40.834,207.245-99.158" transform="translate(-89.94 -238.304)"/><path class="d" d="M93.57,617.981a1292.445,1292.445,0,0,1,127.24-105.2c20.276-14.738,41.7-29.389,68.407-38.238,53.635-17.769,115.386-8.71,170.737,8.71q22.361,7.11,43.523,15.8C563.1,523.4,618.249,552.494,667.762,585.718c49.027,32.873,92.959,70.4,151.945,94.977a332.9,332.9,0,0,0,110.88,24.981c33.615,1.464,66.974-3.083,94.854-16.062a138.328,138.328,0,0,0,14.158-7.6c27.368-16.916,43.983-41.235,51.2-66.2a132.857,132.857,0,0,0,4.634-23.971c2.048-21.131-.359-42.507-3.917-63.411-5.607-33.1-13.083-67.087,3.789-98.061s59.7-54.7,107.962-58.289c68.689-5.139,129.262,26.27,187.224,50.659,4.583,1.934,9.191,3.815,13.85,5.679,70.353,27.995,149.974,47.436,230.875,42.977,86.252-4.756,172.734-41.81,197.721-98.9" transform="translate(-84.277 -237.095)"/><path class="d" d="M97.2,632.944A1203.921,1203.921,0,0,1,222.648,529.866c20.072-14.39,41.27-28.64,67.486-37.35,52.688-17.421,113.184-9.337,167.665,6.968q22.029,6.642,42.96,14.807c58.911,22.952,113.59,50.6,162.877,82.365,48.8,31.357,92.6,67.645,151.049,91.371,34.332,13.936,74.552,23.831,114.337,25.957,34.562,1.742,69.124-2.456,98.08-15.522a135.532,135.532,0,0,0,14.7-7.717c28.52-17.229,45.545-42.28,53.379-67.941a144.074,144.074,0,0,0,5.12-24.859c2.56-21.706,1.178-43.691-1.126-65.1-3.533-34.04-7.3-68.237,11.5-99.193,17.921-29.389,59.114-52.628,106.2-56.3,67-5.226,126.344,24.215,183,46.775q6.682,2.613,13.518,5.226c68.689,25.8,145.749,43.029,223.425,37.4,82.8-5.975,165.13-42.924,188.2-98.6" transform="translate(-78.613 -239.603)"/><path class="d" d="M100.82,648.317a1122.229,1122.229,0,0,1,123.707-101.04c19.816-14.023,40.783-27.873,66.564-36.444,51.69-17.194,110.957-9.93,164.567,5.226q21.733,6.266,42.448,14.006C556.315,551.6,610.531,577.8,659.6,608.092c48.643,30,92.294,64.857,149.948,87.713,35.612,14.111,76.8,24.389,117.767,26.932,35.535,2.178,71.352-1.846,101.305-15a139.525,139.525,0,0,0,15.361-7.822,123.4,123.4,0,0,0,55.479-69.822,159.581,159.581,0,0,0,5.735-25.556c3.174-22.3,2.688-44.893,1.638-66.808-1.485-34.928-1.613-69.334,19.2-100.308,18.817-28.03,58.525-50.52,104.429-54.335,65.335-5.383,123.425,22.177,178.75,42.89q6.554,2.456,13.21,4.808c67.051,23.6,141.526,38.639,215.949,31.845,79.365-7.23,157.552-43.987,178.725-98.34" transform="translate(-72.965 -242.467)"/><path class="d" d="M104.45,663.736a1043.723,1043.723,0,0,1,121.915-98.828c19.611-13.675,40.348-27.141,65.642-35.555,50.742-16.9,108.781-10.453,161.495,3.571q21.367,5.715,41.807,12.874c57.5,20.129,111.243,44.874,160.087,73.707,48.387,28.535,91.986,62.035,148.924,84.02,36.892,14.25,79.134,24.947,121.249,27.873,36.457,2.543,73.528-1.2,104.531-14.459a145.771,145.771,0,0,0,15.847-7.926c30.722-17.891,48.643-44.44,57.578-71.686a176,176,0,0,0,6.323-26.235c3.738-22.873,4.2-46.095,4.429-68.533.563-35.8,3.994-70.4,26.882-101.423,19.688-26.654,57.911-48.5,102.637-52.349,63.671-5.488,120.507,20.138,174.552,39,4.25,1.5,8.551,2.944,12.8,4.373,65.386,21.41,137.3,34.232,208.5,26.27,75.883-8.466,149.974-45.015,169.2-98.044" transform="translate(-67.302 -245.361)"/><path class="d" d="M108.08,679.134A972.79,972.79,0,0,1,228.2,582.414c19.38-13.309,39.862-26.375,64.7-34.65,49.8-16.6,106.579-11.115,158.423,1.829,14.183,3.484,28.008,7.6,41.219,11.916,56.807,18.707,110.1,42,158.73,69.369,48.182,27.107,91.731,59.23,147.926,80.362,38.172,14.372,81.387,25.487,124.705,28.883,37.4,2.892,75.7-.592,107.731-13.936a152.439,152.439,0,0,0,16.436-8.031c31.925-18.2,50.179-45.5,59.677-73.533a188.1,188.1,0,0,0,6.887-26.95c4.326-23.448,5.658-47.28,7.219-70.223,2.56-36.705,9.524-71.425,34.613-102.538,20.481-25.312,57.3-46.444,100.845-50.381,61.982-5.609,117.588,18.1,170.3,35.12,4.173,1.341,8.346,2.665,12.57,3.937,63.722,19.163,133.128,29.842,201.024,20.713,72.452-9.721,142.4-46.078,159.7-97.782" transform="translate(-61.639 -248.233)"/><path class="d" d="M111.71,694.545a906.162,906.162,0,0,1,118.356-94.612c19.175-12.943,39.426-25.625,63.773-33.761,48.822-16.306,104.378-11.689,155.35.122,13.953,3.205,27.573,6.968,40.63,10.923,56.1,17.305,108.933,39.152,157.347,65.066,47.952,25.643,91.449,56.321,146.9,76.651,39.478,14.494,83.666,26.131,128.161,29.859,38.4,3.258,77.88,0,110.932-13.4a151.23,151.23,0,0,0,17-8.136c33.077-18.536,51.741-46.583,61.8-75.379a212.261,212.261,0,0,0,7.476-27.647c4.89-24.041,7.143-48.482,10.01-71.947,4.557-37.576,14.951-72.487,42.294-103.653,21.1-23.936,56.682-44.353,99.052-48.325,60.343-5.731,114.695,16.062,166.1,31.253,4.045,1.185,8.141,2.352,12.237,3.484,62.084,17,128.853,25.434,193.573,15.139,69-10.94,134.792-47.036,150.2-97.556" transform="translate(-55.975 -251.119)"/><path class="d" d="M115.34,709.933A845.674,845.674,0,0,1,231.9,617.464c18.945-12.595,38.966-24.877,62.852-32.873,47.875-16.01,102.2-12.3,152.278-1.62,13.722,2.892,27.163,6.306,40.066,9.965,55.382,15.9,107.74,36.289,155.939,60.728,47.747,24.2,91.218,53.447,145.929,73.01,40.809,14.6,85.97,26.584,131.643,30.834,39.273,3.606,80.056.645,114.157-12.874a153.622,153.622,0,0,0,17.563-8.258c34.229-18.849,53.277-47.628,64-77.226a234.088,234.088,0,0,0,8.013-28.343c5.479-24.615,8.679-49.666,12.8-73.637,6.605-38.482,20.3-73.55,50-104.785,21.556-22.647,56.093-42.3,97.286-46.409,58.653-5.853,111.751,13.937,161.879,27.368q5.914,1.568,11.9,3.049c60.42,14.808,124.628,21.044,186.123,9.582,65.54-12.195,127.189-48.168,140.809-97.225" transform="translate(-50.312 -253.999)"/><path class="d" d="M119,725.338a790.339,790.339,0,0,1,114.823-90.361c18.714-12.194,38.4-24.128,61.9-31.967,46.928-15.679,99.846-12.822,149.18-3.345,13.518,2.6,26.754,5.662,39.5,8.989a877.981,877.981,0,0,1,154.557,56.408c47.542,22.751,91.013,50.52,144.879,69.317,42.115,14.7,88.249,27.141,135.074,31.81,40.246,3.972,82.258,1.272,117.383-12.351a152.423,152.423,0,0,0,18.151-8.344c35.356-19.163,54.839-48.778,66.026-79.073a260.8,260.8,0,0,0,8.6-29.04c6.042-25.208,10.241-50.851,15.566-75.362,8.679-39.353,25.6-74.6,57.706-105.883a163.19,163.19,0,0,1,95.519-44.44c56.989-5.975,108.833,11.986,157.629,23.483,3.84.906,7.681,1.742,11.6,2.613,58.884,12.6,120.327,16.637,178.648,4.007,62.109-13.431,119.61-49.2,131.182-96.929" transform="translate(-44.602 -256.878)"/><path class="d" d="M122.59,740.727c33.3-31.882,71.16-61.439,113.031-88.236,18.587-11.863,38.044-23.378,60.983-31.026,45.955-15.417,97.772-13.414,146.108-5.087,13.287,2.3,26.344,5.017,38.94,8.031A872.255,872.255,0,0,1,634.8,676.5c47.337,21.288,90.834,47.593,143.855,65.641,43.523,14.773,90.553,27.7,138.556,32.786,41.193,4.32,84.485,1.9,120.609-11.829a160.341,160.341,0,0,0,18.715-8.449c36.508-19.511,56.324-49.788,68.126-80.919a289.874,289.874,0,0,0,9.191-29.737c6.605-25.8,11.7-52.053,18.356-77.069,10.7-40.259,30.722-75.675,65.412-107.015,22.273-20.121,54.864-38.169,93.7-42.454,55.325-6.1,105.939,9.947,153.43,19.6,3.738.749,7.5,1.481,11.265,2.177,57.117,10.452,116.18,12.194,171.2-1.55,58.653-14.668,112.033-50.259,121.684-96.667" transform="translate(-39.001 -259.742)"/><path class="d" d="M126.22,756.206c32.566-31.274,69.858-60.141,111.265-86.128,18.254-11.515,37.557-22.647,60.035-30.173,45.008-15.139,95.571-13.937,143.036-6.812,13.082,1.986,25.909,4.373,38.4,6.968A867.751,867.751,0,0,1,630.75,687.83c47.107,19.842,90.63,44.667,142.831,61.965,44.8,14.86,92.806,28.256,142.012,33.761,42.14,4.686,86.61,2.526,123.809-11.289a162.636,162.636,0,0,0,19.278-8.554c37.66-19.825,57.936-50.851,70.251-82.783a313.573,313.573,0,0,0,9.754-30.434c7.194-26.357,13.236-53.237,21.147-78.776,12.8-41.148,35.842-76.79,73.118-108.113,22.529-18.9,54.275-36.113,91.935-40.486,53.763-6.219,103,7.909,149.18,15.679,3.661.61,7.3,1.185,10.983,1.742,55.427,8.205,111.93,7.839,163.722-7.125,55.171-15.905,104.429-51.287,112.16-96.389" transform="translate(-33.338 -262.696)"/><path class="d" d="M129.85,771.549c31.849-30.645,68.561-58.81,109.472-83.985,17.921-11.167,37.122-21.88,59.114-29.284,44.06-14.842,93.394-14.6,139.964-8.536,12.8,1.742,25.6,3.728,37.762,6.062a862.717,862.717,0,0,1,150.409,43.448c46.9,18.4,90.45,41.687,141.833,58.289,46.083,14.912,95.084,28.8,145.468,34.737,43.062,5.034,88.786,3.136,127.009-10.766a165.839,165.839,0,0,0,19.867-8.711c38.786-20.121,59.472-51.879,72.35-84.577,4.071-10.453,7.373-20.9,10.241-31.131,7.68-26.95,14.746-54.44,23.937-80.484,14.823-42.036,40.681-77.958,80.8-109.245,22.708-17.7,53.763-34.04,90.143-38.482,52-6.341,100.1,5.853,144.982,11.811,3.533.47,7.092.906,10.65,1.306,53.763,6.01,107.706,3.484,156.17-12.682,51.741-17.159,96.851-52.349,102.662-96.11" transform="translate(-27.674 -265.53)"/><path class="d" d="M133.48,786.9c31.124-30.032,67.259-57.507,107.68-81.877,17.921-10.8,36.661-21.114,58.218-28.4,43.062-14.529,91.167-15.173,136.866-10.261,12.622,1.359,25.064,3.1,37.2,5.1a854.976,854.976,0,0,1,149,39.109c46.7,16.95,90.3,38.726,140.809,54.614,47.542,14.947,97.286,29.354,148.924,35.712,44.035,5.4,90.988,3.763,130.261-10.226a167.494,167.494,0,0,0,20.481-8.71c39.938-20.469,61.034-52.976,74.449-86.476,4.224-10.592,7.68-21.288,10.932-31.828,8.321-27.525,16.334-55.607,26.7-82.173,17-42.907,45.545-79.194,88.5-110.377,22.836-16.55,53.072-31.984,88.377-36.5,50.333-6.463,97.286,3.8,140.809,7.926,3.456.314,6.887.61,10.241.871,52.125,3.8,103.456-.958,148.8-18.257,48.284-18.4,89.247-53.377,93.164-95.814" transform="translate(-22.011 -268.395)"/><path class="d" d="M137.11,802.366c30.4-29.421,65.966-56.2,105.914-79.752,17.614-10.452,36.2-20.382,57.271-27.507,42.115-14.25,88.991-15.679,133.794-11.985,12.391,1.045,24.654,2.439,36.61,4.129a847.6,847.6,0,0,1,147.619,34.841c46.492,15.487,90.169,35.712,139.81,50.938,48.9,14.964,99.667,29.894,152.38,36.688,44.982,5.749,93.164,4.373,133.461-9.7a170.418,170.418,0,0,0,21.019-8.884c40.963-20.8,62.57-54,76.549-88.323,4.4-10.836,8.09-21.776,11.495-32.524,8.909-28.117,17.921-56.809,29.493-83.9,19.073-43.8,50.281-80.5,96.211-111.492,23.041-15.435,52.458-29.929,86.61-34.528,48.643-6.585,94.265,1.742,136.507,4.042,3.328.174,6.656.314,10.01.435,50.486,1.6,99.232-5.348,141.321-23.814,44.854-19.7,81.669-54.544,83.743-95.587" transform="translate(-16.347 -271.296)"/><path class="d" d="M140.73,817.763c29.693-28.806,64.694-54.9,104.147-77.644,17.383-10.07,35.842-19.616,56.323-26.6,41.167-13.937,86.789-16.358,130.722-13.728,12.186.732,24.219,1.742,36.047,3.153a843.554,843.554,0,0,1,146.236,30.5c46.288,14.058,90.015,32.716,138.812,47.262,50.281,14.982,101.945,30.451,155.837,37.663,45.9,6.115,95.34,5,136.687-9.163a174.333,174.333,0,0,0,21.556-8.989c42.217-21.131,64.132-55.136,78.674-90.169,4.583-11.08,8.448-22.264,12.084-33.239,9.473-28.692,19.38-57.993,32.284-85.588,21.121-44.684,54.915-81.877,103.917-112.607,22.913-14.355,51.843-27.873,84.792-32.542,47-6.707,91.346-.279,132.309.157h9.677c48.822-.592,95.007-9.756,133.87-29.389,41.4-20.9,74.091-55.467,74.245-95.274" transform="translate(-10.7 -274.168)"/><path class="d" d="M144.36,833.21c28.983-28.19,63.43-53.587,102.406-75.5A322.976,322.976,0,0,1,302.168,732c40.194-13.658,84.485-16.968,127.649-15.452,11.956.418,23.809,1.167,35.458,2.177a835.89,835.89,0,0,1,144.854,26.131c46.083,12.6,89.861,29.615,137.762,43.552,51.69,14.982,104.224,31.026,159.319,38.657,46.851,6.446,97.516,5.627,139.887-8.71a177.972,177.972,0,0,0,22.146-9.094c43.369-21.462,65.668-56.2,80.773-92.033,4.762-11.306,8.807-22.647,12.647-33.918,10.036-29.284,20.891-59.23,35.074-87.312,23.169-45.555,59.447-83.41,111.623-113.7,23.042-13.327,51.2-25.8,83.026-30.573,45.315-6.829,88.428-2.317,128.008-3.728,3.123-.1,6.247-.261,9.37-.436,47.158-2.787,90.783-14.146,126.421-34.946,37.942-22.124,66.564-56.53,64.644-94.995" transform="translate(-5.036 -277.107)"/><path class="d" d="M148,848.577c28.264-27.576,62.13-52.286,100.589-73.393a337,337,0,0,1,54.48-24.807c39.247-13.362,82.411-17.56,124.577-17.194,11.726.122,23.4.54,34.869,1.22a827.049,827.049,0,0,1,143.369,21.811c45.852,11.149,89.733,26.671,136.764,39.911,53.1,14.947,106.5,31.566,162.749,39.615,47.824,6.812,99.718,6.254,143.113-8.1a182.5,182.5,0,0,0,22.734-9.2c44.5-21.724,67.306-57.279,82.9-93.88,4.941-11.55,9.191-23.2,13.236-34.615,10.6-29.859,22.4-60.38,37.865-89.02,25.218-46.461,63.876-85.048,119.3-114.837,23.042-12.316,50.64-23.727,81.234-28.587,43.676-6.968,85.535-4.355,123.861-7.613,3.021-.261,6.042-.558,9.037-.871,45.52-5,86.559-18.553,118.945-40.521,34.511-23.344,58.884-57.488,55.146-94.716" transform="translate(0.643 -279.949)"/><path class="d" d="M151.62,864.111c27.526-27.026,60.835-51.1,98.822-71.425a354.224,354.224,0,0,1,53.533-23.9c38.4-13.083,80.21-18.17,121.5-18.919q17.281-.314,34.306.244a817.388,817.388,0,0,1,142.063,17.421c45.648,9.7,89.605,23.622,135.688,36.217,54.531,14.895,108.807,32.124,166.231,40.607,48.771,7.16,101.894,6.864,146.339-7.578a184.8,184.8,0,0,0,23.3-9.32c45.648-22.089,68.766-58.324,84.972-95.726,5.12-11.776,9.549-23.675,13.825-35.312,11.162-30.434,23.912-61.565,40.63-90.727,27.291-47.332,68.228-86.825,127.009-115.935,23.042-11.358,50.051-21.671,79.365-26.619,41.987-7.073,82.591-6.393,119.61-11.5,2.919-.4,5.837-.836,8.73-1.307,43.4-6.93,82.446-23.066,111.495-46.078,31.029-24.6,51.2-58.621,45.622-94.438" transform="translate(6.29 -282.888)"/><path class="d" d="M155.25,879.369c26.836-26.356,59.577-49.686,97.03-69.143a374.993,374.993,0,0,1,52.611-23.03c37.327-12.769,78.034-18.8,118.433-20.626,11.29-.54,22.555-.767,33.717-.749a808.816,808.816,0,0,1,140.681,13.187c45.443,8.24,89.605,20.556,134.741,32.542,55.939,14.825,111.085,32.734,169.713,41.566,49.693,7.526,104.07,7.491,149.539-7.056a184.933,184.933,0,0,0,23.861-9.407c46.8-22.42,70.327-59.4,87.045-97.556,5.274-12.02,9.908-24.145,14.388-36.008,11.751-31.026,25.448-62.714,43.523-92.434,29.339-48.221,72.5-88.758,134.741-117.067a328.867,328.867,0,0,1,77.675-24.633c40.323-7.177,79.672-8.431,115.386-15.382,2.816-.54,5.607-1.132,8.4-1.742,41.85-9.27,78.28-27.36,104.019-51.652,27.6-25.835,43.728-59.648,36.124-94.159" transform="translate(11.954 -285.707)"/><path class="d" d="M158.87,894.8c26.139-25.748,58.323-48.395,95.263-67.035a403.017,403.017,0,0,1,51.69-22.124,464.97,464.97,0,0,1,115.361-22.368c11.06-.854,22.12-1.394,33.154-1.742a799.672,799.672,0,0,1,139.3,8.85c45.212,6.794,89.35,17.421,133.717,28.866,57.373,14.721,113.364,33.221,173.143,42.541,50.64,7.892,106.247,8.118,152.765-6.515a189.692,189.692,0,0,0,24.424-9.512c47.926-22.751,71.864-60.485,89.2-99.42,5.453-12.195,10.241-24.633,14.977-36.723,12.314-31.6,26.958-63.951,46.083-94.072,31.387-49.126,76.8-90.849,142.422-118.2a387.275,387.275,0,0,1,75.883-22.647c38.658-7.3,76.8-10.452,111.162-19.267,2.714-.7,5.428-1.411,8.09-2.178,40.335-11.633,74.2-31.684,96.7-57.262,24.142-27.089,36.124-60.711,26.626-93.88" transform="translate(17.602 -288.609)"/><path class="d" d="M162.5,910.12c25.416-25.141,57.03-47.1,93.446-64.91,48.03-24.007,104.033-39.566,163.031-45.294,10.829-1.167,21.71-2.056,32.565-2.683a786.1,786.1,0,0,1,137.916,4.529c45.007,5.348,89.221,14.407,132.693,25.19C781.034,841.534,837.818,860.715,898.8,870.5c51.587,8.24,108.423,8.71,155.965-5.993a191.794,191.794,0,0,0,25.013-9.616c49.078-23.082,73.425-61.547,91.3-101.284,5.632-12.491,10.625-25.1,15.54-37.4,12.8-32.193,28.495-65.136,49-95.814,33.461-50,80.85-93.1,150.128-119.3a476.75,476.75,0,0,1,74.245-20.678c36.994-7.421,73.835-12.508,106.938-23.152,2.56-.836,5.12-1.742,7.68-2.613,38.674-13.989,69.857-35.94,89.094-62.714,20.686-28.309,28.546-61.756,17.1-93.6" transform="translate(23.265 -291.406)"/><path class="d" d="M166.13,925.6c57.066-57.279,151.049-95.134,250.742-108.966s204.275-4.878,300.2,18.065C777.367,849.121,835,869.033,897.132,879.19s132.053,9.39,184.792-15.174c65.975-30.747,87.993-88.845,109.524-141.229,35.407-86.2,92.166-177.848,209.6-217.985,58.576-19.982,127.112-25,182.513-48.778,76.8-32.995,115.207-102.434,89.221-161.664" transform="translate(28.928 -294.36)"/></g><g transform="translate(-676.469 -259.865)"><path class="d" d="M-264.23-8.713A1707.094,1707.094,0,0,1-108.88-98.447c24.168-12.334,49.462-24.389,78.571-29.981,74.4-14.146,150.179,18.065,207.014,53.551C229.243-42.139,275.875-5.268,315.62,34.961c39.3,39.824,72.452,83.41,124.321,115.9s129.826,51.844,193.83,31.723c38.07-11.968,65.591-36.287,80.7-62.906s19.022-55.555,19.918-84.09c1.024-32.664-1.1-67.139,21.838-95.814,23.758-29.615,74.4-48.412,123.937-45.816,70.532,3.711,122.5,44.074,173.86,77.156,65.233,42,144.726,77.156,233.793,84.717s188.2-18.048,230.107-72.122" transform="translate(264.23 162.154)"/><path class="d" d="M-262-2.11A1585.293,1585.293,0,0,1-108.954-89.962c23.835-12.02,48.822-23.779,77.419-29.214,57.476-10.905,115.8,5.557,165.617,29.615q20.113,9.752,38.633,20.9c52.239,31.239,98.821,66.6,138.76,105.343,39.426,38.36,72.708,80.658,124.219,112.137A295.969,295.969,0,0,0,538.1,187.009c32.668,5.575,66.692,5.226,97.568-4.146a162.284,162.284,0,0,0,15.924-5.749c31.413-13.275,54.147-35.155,67.972-58.76a149.346,149.346,0,0,0,10.906-23.2c7.68-20.522,10.906-41.81,12.929-62.836,3.277-33.291,4.941-67.592,29.723-95.988s73.246-46.478,121.659-44.092c68.919,3.38,120.174,41.705,170.737,72.818,3.968,2.439,8.013,4.878,12.109,7.264C1139.4,8.5,1212.65,37.383,1293.321,42.923c86.1,5.923,181-20,220.686-72.993" transform="translate(267.709 169)"/><path class="d" d="M-259.69,4.521A1467.459,1467.459,0,0,1-108.948-81.468c23.528-11.689,48.156-23.117,76.267-28.448,56.451-10.731,113.8,4.7,163.031,27.472q19.94,9.251,38.4,19.86C220.62-32.769,267.073,1.151,307.129,38.456c39.606,36.862,73.092,77.853,124.193,108.409A323.422,323.422,0,0,0,536.9,186.375c33.512,6.045,68.663,6.062,100.589-3.24A162.39,162.39,0,0,0,654,177.369a146.855,146.855,0,0,0,70.507-60.328A161.955,161.955,0,0,0,736.16,93.227c8.346-21.027,12.8-42.837,16.155-64.178,5.53-33.9,10.906-67.941,37.583-96.145,25.346-26.723,72.094-44.51,119.38-42.367,67.307,3.066,117.767,39.336,167.588,68.481q5.914,3.484,11.93,6.794c60.727,33.831,131.951,60.223,209.933,64.23,83.026,4.268,173.809-21.967,211.264-73.9" transform="translate(271.313 175.836)"/><path class="d" d="M-257.41,14.141A1366.019,1366.019,0,0,1-108.921-69.984C-85.7-81.342-61.4-92.4-33.806-97.665,21.621-108.222,78-93.8,126.665-72.248q19.707,8.736,38.018,18.814c51.569,28.327,97.98,60.744,138.248,96.563C342.716,78.6,376.357,118.282,427,147.827a349.414,349.414,0,0,0,108.73,40.939c34.357,6.515,70.66,6.968,103.609-2.317a162.966,162.966,0,0,0,17.1-5.819,151.368,151.368,0,0,0,73.092-61.878,183.342,183.342,0,0,0,12.391-24.389c9.037-21.532,14.542-43.83,19.329-65.519,7.808-34.528,16.795-68.394,45.468-96.3,25.934-25.277,71.07-42.594,117.153-40.66,65.694,2.735,115.514,36.967,164.464,64.126q5.786,3.205,11.725,6.341c59.677,31.444,128.955,55.38,203.968,57.837,79.954,2.613,166.641-23.936,201.843-74.8" transform="translate(274.87 179.647)"/><path class="d" d="M-255.14,25.423A1269.864,1269.864,0,0,1-109.031-56.838c22.913-11.045,46.85-21.741,73.963-26.915,54.4-10.452,109.805,3,157.91,23.326,13.159,5.54,25.781,11.585,37.711,17.8,51.231,26.848,97.542,57.782,137.941,92.138,40.015,34.005,73.963,72.313,124.219,100.918,32.488,18.553,71.2,34.249,111.853,42.332,35.177,6.968,72.632,7.839,106.631-1.394a165.677,165.677,0,0,0,17.691-5.853c35.049-13.815,59.626-37.733,75.653-63.429A202.25,202.25,0,0,0,747.7,97.039C757.453,75,764.033,52.216,770.228,30.179c10.036-35.155,22.581-68.759,53.328-96.458,26.421-23.8,69.815-40.59,114.823-38.9,64,2.4,113.184,34.6,161.29,59.788,3.789,1.986,7.681,3.954,11.521,5.871,58.628,29.093,125.96,50.52,198.1,51.443,76.8.976,159.447-25.887,192.421-75.675" transform="translate(278.412 181.849)"/><path class="d" d="M-252.87,36.671a1184.161,1184.161,0,0,1,143.8-80.4c22.58-10.714,46.083-21.044,72.811-26.131C17.124-80.065,71.527-67.7,119.1-48.6c13.031,5.226,25.6,10.905,37.378,16.776C207.383-6.448,253.626,23,294.21,55.886,334.4,88.428,368.736,125.36,418.4,153.059c33.743,18.832,73.4,35.068,115,43.708,36.021,7.456,74.629,8.71,109.652-.488a170.8,170.8,0,0,0,18.305-5.871c36.226-13.936,61.444-38.6,78.187-65a225.478,225.478,0,0,0,13.927-25.661c10.471-22.542,18.075-45.816,25.6-68.2C791.341-4.2,807.47-37.558,840.394-65.065c26.779-22.368,68.663-38.639,112.647-37.176,62.468,2.09,110.855,32.246,158.217,55.467q5.607,2.735,11.316,5.4c57.6,26.706,122.888,45.677,192.242,45.05,73.835-.662,152.252-27.873,183-76.651" transform="translate(281.953 184.049)"/><path class="d" d="M-250.6,47.91A1104.894,1104.894,0,0,1-109.1-30.605C-86.827-41.057-63.529-50.97-37.416-55.987,14.939-66.039,68.37-54.7,115.374-36.824c12.8,4.86,25.294,10.209,37.071,15.679,50.589,23.927,96.749,51.922,137.48,83.375,40.374,31.1,75.038,66.617,124.091,93.375,35.074,19.163,75.5,35.956,118.228,45.172,36.866,7.892,76.6,9.581,112.647.418a174.723,174.723,0,0,0,18.868-5.923c37.455-14.163,63.236-39.458,80.773-66.547a273.3,273.3,0,0,0,14.644-26.288c11.188-23.03,19.892-46.792,28.93-69.526C802.546-3.5,822-36.563,857.231-63.861c27.035-20.9,67.511-36.583,110.266-35.434,60.855,1.742,108.525,29.876,155.094,51.112,3.661,1.742,7.373,3.327,11.111,4.93,56.554,24.354,120.046,40.834,186.38,38.587,70.763-2.3,145.058-29.789,173.579-77.47" transform="translate(285.495 186.259)"/><path class="d" d="M-248.33,59.182a1029.307,1029.307,0,0,1,139.2-76.651c21.966-10.069,44.905-19.7,70.507-24.616,51.357-9.878,103.789.436,150.2,17.09,12.8,4.529,25.064,9.529,36.789,14.72,50.273,22.417,96.368,48.9,137.276,78.863,40.553,29.615,75.576,63.76,124.142,89.7,36.277,19.372,77.5,36.705,121.3,46.5,37.711,8.362,78.6,10.452,115.719,1.341a175.7,175.7,0,0,0,19.457-5.958c38.658-14.337,65.028-40.329,83.333-68.115a264.159,264.159,0,0,0,15.361-26.9c11.956-23.535,21.864-47.785,32.1-70.867,16.692-37.036,39.452-69.839,76.958-96.911,27.24-19.651,66.41-34.737,108.039-33.726,59.242,1.446,106.2,27.507,151.971,46.774,3.584,1.516,7.245,3.014,10.906,4.46,55.5,21.985,117,36.009,180.517,32.281,67.691-3.954,137.89-31.758,164.157-78.393" transform="translate(289.037 188.453)"/><path class="d" d="M-246,73.338A959.459,959.459,0,0,1-109.262-1.449C-87.6-11.187-65-20.455-39.882-25.3,10.425-35,61.833-25.629,107.737-10.281c12.6,4.216,24.808,8.85,36.457,13.693,49.995,20.94,96.065,45.936,137.2,74.439,40.732,28.221,76.139,60.972,124.142,85.971,37.4,19.633,79.467,37.524,124.193,47.872,38.53,8.832,80.568,11.341,118.74,2.247a176.826,176.826,0,0,0,20.046-5.975c39.887-14.529,66.846-41.183,85.893-69.683a300.65,300.65,0,0,0,16.18-27.507c12.622-24.041,23.5-48.778,35.279-72.209C824.939.9,850.874-31.674,890.71-58.415,917.975-76.741,955.942-91.2,996.419-90.4c57.731,1.028,103.968,25.016,148.924,42.437,3.559,1.359,7.117,2.683,10.727,3.989,54.454,19.616,114,31.148,174.654,25.87,64.644-5.592,130.7-33.709,154.736-79.247" transform="translate(292.672 187.746)"/><path class="d" d="M-243.78,89.777A896.925,896.925,0,0,1-109.218,16.872C-87.866,7.464-65.7-1.455-40.99-6.211,8.293-15.74,58.728-7.4,104.068,6.715c12.468,3.885,24.552,8.17,36.149,12.665,49.626,19.473,95.579,42.99,136.84,70.031,40.962,26.758,76.8,57.959,124.116,82.226,38.838,19.86,81.695,38.326,127.573,49.248,39.375,9.3,82.565,12.194,121.761,3.171a179.928,179.928,0,0,0,20.635-5.975c40.962-14.721,68.663-42.054,88.479-71.251,6.272-9.268,11.8-18.727,16.923-28.117,13.338-24.546,25.294-49.771,38.4-73.55,21.2-38.325,50.256-70.676,92.7-97.225,27.24-17.055,64-30.817,103.43-30.26,56.042.8,101.536,22.769,145.7,38.1,3.482,1.2,6.989,2.387,10.522,3.484,53.405,17.246,111.008,26.305,168.791,19.494,61.444-7.247,123.5-35.678,145.289-80.135" transform="translate(296.135 184.755)"/><path class="d" d="M-241.51,106.219A839.643,839.643,0,0,1-109.252,35.16c21.019-9.076,42.959-17.63,67.076-22.316,48.259-9.355,97.7-2.038,142.5,10.871,12.314,3.484,24.322,7.473,35.842,11.62,49.3,18,95.183,40.036,136.635,65.606,40.963,25.312,77.291,55.049,124.065,78.48,40.143,20.121,83.82,39.179,130.722,50.642,40.22,9.773,84.485,13.1,124.782,4.094a186.532,186.532,0,0,0,21.249-6.062c42.294-14.877,70.456-42.907,91.014-72.8,6.5-9.477,12.314-19.163,17.665-28.727,14.055-25.051,27.138-50.746,41.679-74.909,23.477-38.9,55.53-71.146,100.563-97.382,27.189-15.818,62.954-28.866,101.177-28.518,54.429.47,99.232,20.4,142.575,33.744,3.431,1.045,6.861,2.073,10.241,3.066,52.381,14.877,108.013,21.445,162.928,13.083,58.5-8.867,116.308-37.629,135.868-81.041" transform="translate(299.677 181.78)"/><path class="d" d="M-239.24,122.592A783.7,783.7,0,0,1-109.286,53.414c20.712-8.71,42.294-16.95,65.924-21.549,47.235-9.2,95.7-2.892,139.913,8.71,12.186,3.205,24.091,6.794,35.535,10.609,49,16.552,94.818,37.141,136.431,61.3,41.244,23.8,77.931,52.053,124.04,74.682,41.475,20.33,85.919,40.068,133.871,52.018,40.962,10.243,86.533,13.936,127.8,5a190.758,190.758,0,0,0,21.838-6.08c43.523-15.069,72.273-43.778,93.574-74.369,6.759-9.686,12.8-19.563,18.433-29.336,14.772-25.574,28.93-51.739,44.88-76.233,25.73-39.528,60.7-71.686,108.423-97.556,27.035-14.633,61.828-26.9,98.873-26.793,52.842.139,96.928,18.048,139.477,29.406,3.354.906,6.733,1.742,10.113,2.6,51.306,12.525,105.069,16.637,157.066,6.724,55.453-10.452,109.14-39.6,126.446-81.877" transform="translate(303.218 178.856)"/><path class="d" d="M-237,139.041c38.593-25.734,81.457-48.324,127.726-67.314C-88.793,63.3-67.62,55.439-44.5,50.927,1.735,41.921,49.2,47.2,92.851,57.634c12.058,2.892,23.835,6.115,35.228,9.581a751.29,751.29,0,0,1,136.2,56.757c41.474,22.4,78.546,49.161,124.04,71.007,42.883,20.539,87.993,40.817,137.02,53.394,41.859,10.714,88.479,14.86,130.8,5.923a192.181,192.181,0,0,0,22.427-6.115c44.726-15.243,74.065-44.632,96.159-75.919,6.964-9.912,13.262-20.016,19.176-29.981,15.489-26.131,30.722-52.7,48.054-77.557,28.162-40.068,65.8-72.3,116.308-97.7,26.83-13.484,60.676-24.946,96.595-25.068,51.2-.174,94.6,15.679,136.354,25.086,3.277.732,6.6,1.446,9.908,2.108,50.281,10.156,102.048,11.776,151.2.314,52.381-12.194,101.945-41.548,117.025-82.818" transform="translate(306.713 175.873)"/><path class="d" d="M-234.69,155.451c37.7-25.2,79.789-47.184,125.32-65.45,20.1-8.1,40.962-15.591,63.62-20.016C-.538,61.135,45.954,65.4,89.042,74.6c11.9,2.561,23.656,5.5,34.921,8.554A752.513,752.513,0,0,1,259.932,135.5c41.628,20.94,79.211,46.2,124.142,67.244,44.009,20.748,89.964,41.653,140.041,54.788,42.7,11.184,90.476,15.679,133.845,6.846A196.135,196.135,0,0,0,681,258.215c45.929-15.417,75.883-45.485,98.719-77.47,7.22-10.121,13.748-20.434,19.944-30.591,16.206-26.567,32.616-53.673,51.2-78.9,30.338-40.73,70.84-73.027,124.168-97.835,26.6-12.386,59.524-23,94.316-23.344,49.616-.505,92.166,13.309,133.128,20.731,3.251.575,6.477,1.132,9.729,1.655,49.232,7.77,99.053,6.968,145.34-6.08,49.309-13.815,94.726-43.552,107.527-83.724" transform="translate(310.317 172.912)"/><path class="d" d="M-232.42,171.9c36.8-24.677,78.1-46.04,122.888-63.568,19.764-7.787,40.348-14.912,62.468-19.163,44.188-8.71,89.605-5.453,132.232,2.543,11.777,2.212,23.349,4.738,34.588,7.526A753.068,753.068,0,0,1,255.443,147.15c42.012,19.354,80.056,43.081,124.193,63.376,45.494,20.9,92.166,42.472,143.369,56.164,43.523,11.654,92.447,16.637,136.866,7.77a202.746,202.746,0,0,0,23.6-6.2c47.133-15.679,77.675-46.356,101.28-79.038,7.424-10.33,14.209-20.9,20.66-31.2,16.871-27.072,34.383-54.666,54.4-80.187C892.564,36.424,935.549,3.97,991.872-20.21c26.344-11.323,58.372-21.044,92.166-21.619,48-.819,89.938,10.958,130.082,16.393q4.762.653,9.524,1.185c48.182,5.418,96.057,2.073,139.477-12.456,46.236-15.47,87.557-45.485,98.182-84.612" transform="translate(313.859 169.959)"/><path class="d" d="M-230.15,188.294c35.979-24.171,76.581-44.932,120.711-61.721A373.085,373.085,0,0,1-47.995,108.09c43.164-8.5,87.711-6.289,129.646.47,11.649,1.881,23.041,4.059,34.306,6.5A755.3,755.3,0,0,1,251.492,158.61c41.859,18.013,80.414,40.172,123.835,59.7,46.876,21.027,94.316,43.308,146.467,57.61,44.368,12.194,94.444,17.421,139.887,8.71a200.9,200.9,0,0,0,24.194-6.219c48.336-15.783,79.365-47.228,103.84-80.606,7.68-10.452,14.7-21.271,21.429-31.81,17.64-27.7,36.252-55.746,57.629-81.7,34.895-41.966,80.594-74.752,139.938-98.148,26.088-10.278,57.245-19.076,89.759-19.877,46.39-1.15,87.609,8.571,126.958,12.038,3.1.279,6.221.523,9.345.732,47.132,3.031,93.036-2.77,133.589-18.867,43.19-17.09,80.389-47.437,88.761-85.5" transform="translate(317.4 166.983)"/><path class="d" d="M-227.87,204.689c35.1-23.659,74.958-43.806,118.382-59.84a386.491,386.491,0,0,1,60.164-17.717c42.14-8.327,85.714-7.16,127.086-1.62,11.521,1.55,22.862,3.484,34,5.47a755.205,755.205,0,0,1,135.3,39.075c42.166,16.584,81.208,37.228,123.963,56.025,48.259,21.218,96.39,44.074,149.59,58.952,45.212,12.56,96.415,18.379,142.908,9.581a203.823,203.823,0,0,0,24.782-6.271c49.565-15.94,81.311-48.064,106.4-82.156,7.911-10.749,15.182-21.689,22.2-32.42,18.356-28.082,38.044-56.652,60.829-82.922,37.122-42.594,85.381-75.815,147.8-98.3,25.806-9.3,56.093-17.125,87.481-18.152,44.777-1.463,85.279,6.219,123.835,7.717,3.047.122,6.093.192,9.14.244,46.083.679,90.041-7.613,127.726-25.243,40.118-18.745,73.195-49.405,79.365-86.407" transform="translate(320.957 164.037)"/><path class="d" d="M-225.6,221.176c34.24-23.151,73.363-42.7,116.077-57.993a407.9,407.9,0,0,1,58.884-16.95c41.116-8.153,83.717-8.013,124.526-3.693q17.051,1.829,33.666,4.46a754.228,754.228,0,0,1,135.227,34.632c42.345,15.139,81.925,34.232,123.937,52.262,49.667,21.34,98.489,44.928,152.739,60.328,46.083,13.031,98.412,19.267,145.929,10.452a208.867,208.867,0,0,0,25.371-6.306c50.768-16.132,83.128-48.935,108.986-83.724,8.141-10.958,15.643-22.107,23.041-33.1,19.048-28.57,39.836-57.61,64-84.246,39.4-43.2,90.117-77.017,155.683-98.462,25.6-8.345,54.941-15.156,85.2-16.41,43.19-1.742,82.949,3.833,120.711,3.362,2.97,0,5.94-.1,8.935-.226,44.523-1.487,87.2-12.565,121.863-31.636,37.046-20.382,66-51.356,69.918-87.3" transform="translate(324.499 161.017)"/><path class="d" d="M-223.33,237.519c33.386-22.632,71.776-41.565,113.774-56.112A427.644,427.644,0,0,1-51.7,165.223c40.118-8,81.72-8.937,121.966-5.766,11.239.854,22.376,2.021,33.282,3.484A755.641,755.641,0,0,1,238.522,193.1c42.5,13.675,82.565,31.2,123.886,48.534,51.2,21.445,100.614,45.764,155.888,61.721,46.876,13.5,100.384,20.138,148.95,11.411a211.3,211.3,0,0,0,25.986-6.324c51.971-16.323,84.895-49.806,111.52-85.361,8.372-11.167,16.129-22.542,23.707-33.657,19.764-29.075,41.654-58.6,67.2-85.588C937.291,60,990.389,25.439,1059.206,5.214A363.188,363.188,0,0,1,1142.078-9.4c41.577-2.125,80.619,1.481,117.562-.976q4.378-.279,8.756-.679c43.61-4,84.229-17.314,116-38.029,33.973-22.037,58.884-53.325,60.471-88.183" transform="translate(328.04 158.122)"/><path class="d" d="M-221.06,253.9c32.534-22.114,70.194-40.435,111.469-54.23a457,457,0,0,1,56.708-15.417c39.094-7.822,79.723-9.79,119.38-7.857,11.111.523,22.145,1.341,33.077,2.387a757.65,757.65,0,0,1,134.664,25.8c42.678,12.247,83.256,28.169,123.86,44.806,52.56,21.515,102.713,46.583,159.037,63.1,47.721,13.937,102.406,21.027,152,12.334a216.945,216.945,0,0,0,26.5-6.358c53.174-16.5,86.712-50.677,114.081-86.86,8.628-11.376,16.615-22.96,24.449-34.267,20.481-29.615,43.523-59.6,70.4-86.929,43.907-44.458,99.513-79.943,171.53-98.758A423.523,423.523,0,0,1,1156.74-1.332c39.964-2.439,78.289-.871,114.439-5.226,2.867-.348,5.709-.749,8.551-1.167,42.677-6.512,81.22-22.065,110.087-44.423,30.927-23.675,51.613-55.276,51.05-89.072" transform="translate(331.582 155.191)"/><path class="d" d="M-218.78,270.355c31.668-21.614,68.592-39.336,109.14-52.384A496.76,496.76,0,0,1-54.085,203.32a546.916,546.916,0,0,1,116.82-9.93q16.475.287,32.744,1.359a758.466,758.466,0,0,1,134.459,21.375c42.857,10.8,83.947,25.138,123.86,41.078,54.1,21.567,104.787,47.436,162.16,64.474,48.643,14.442,104.352,21.9,155.018,13.257a216.892,216.892,0,0,0,27.138-6.411c54.378-16.672,88.53-51.513,116.666-88.41,8.832-11.585,17.076-23.379,25.192-34.841,21.224-30.086,45.289-60.589,73.6-88.271C959.66,71.934,1017.75,35.35,1092.788,18.086a517.98,517.98,0,0,1,78.443-11.341c38.4-2.77,75.96-3.258,111.316-9.651,2.791-.505,5.581-1.045,8.346-1.638,41.759-8.992,78.262-26.75,104.275-50.729,27.855-25.312,44.444-57.244,41.628-89.978" transform="translate(335.139 152.201)"/><path class="d" d="M-216.51,286.695c71.3-49.266,173.835-74.909,275.5-76.32s202.252,20.243,290.5,54.6c55.479,21.6,106.887,48.238,165.309,65.868s127.393,25.434,185.765,7.735C773.63,316.432,810.65,262.01,845.75,213.145c57.68-80.484,137.66-163.667,263.927-188.718,62.9-12.473,131.643-8.989,192.447-25.591,84.306-23.03,140.4-86.616,130.568-148.076" transform="translate(338.681 149.24)"/></g><g transform="translate(-109.362 -131.753)"><path class="d" d="M-41.8,946.371c-10.753-59.23,75.166-109.28,161.827-118.461s173.6,9.791,259.5,21.968,182.488,16.184,254.224-18.17c91.7-43.917,112.9-136.3,207.373-177.552,73.528-32.141,169.252-22.525,244.572,1.394,42.6,13.518,78.827,36.27,119.534,52.123,184.664,71.86,197.132,218.734,353.993,240.632,169.739,23.744,261.9-32.611,293.957-71.617,40.963-50.049,109.549-179.955-58.218-270.229-68.177-36.67-135.458-75.763-185.586-124.053-75.089-72.279-74.577-182.813,21.428-242.548,65.8-40.939,166.845-55.92,211.546-108.409,30.031-35.277,25.934-80.762,0-117.572S1771.71-52.095,1722.785-75.7" transform="translate(42.717 75.7)"/><path class="d" d="M-40.565,946.936c-7.424-60.972,78.034-113.583,167.281-124.07,87.045-10.226,175.5,8.623,261.392,22.055,84.869,13.292,179.211,19.3,250.588-11.916C730.042,793.042,755.72,705.346,849.96,664.634c75.064-32.246,169.252-26.253,246.389-5.348,44.316,12.02,83.589,33.465,126.216,49.527,180.773,68.15,195.75,210.25,349.1,231.852,165.053,23.187,256.733-30.138,290.04-68.6,42.217-48.778,107.527-173.893-51-263.052-65.361-36.792-130.158-76.651-179.493-124.61-72.862-70.589-73.527-177.168,17.076-236.4,62.7-40.973,160.112-57.662,204.608-109.472,30.543-35.434,28.674-80.257,6.119-117.328-22.786-37.507-64.362-68.254-111.265-93.6" transform="translate(45.371 78.149)"/><path class="d" d="M-39.233,947.446c-4.1-62.627,80.9-117.851,172.734-129.627,87.583-11.219,177.393,7.439,263.286,22.159,83.871,14.372,175.7,22.4,246.978-5.7C734.728,798.29,764.733,715.142,859,675.126c76.472-32.49,169.354-30.033,248.181-12.09,46.083,10.452,88.326,30.643,132.923,46.931,176.651,64.6,194.162,201.749,344.213,222.985,160.291,22.647,251.407-27.647,286-65.484,43.344-47.419,105.555-167.9-43.727-256.084-62.6-36.949-124.91-77.5-173.425-125.2-70.66-68.864-72.478-171.559,12.8-230.214,59.575-40.921,153.3-59.3,197.618-110.43,31.055-35.573,31.413-79.787,12.084-117.1-19.713-38.064-57.808-70.449-102.842-97.556" transform="translate(47.93 80.583)"/><path class="d" d="M-37.8,947.937c-.768-64.335,83.768-122.119,178.187-135.2C228.434,800.54,319.6,818.971,405.571,835c82.847,15.434,172.3,25.5,243.343.54,90.6-32.037,125.038-110.552,219.226-149.975,77.957-32.629,169.534-33.848,250-18.832,47.9,8.937,93.036,27.873,139.605,44.353,172.5,61.182,192.7,193.248,339.349,214.274,155.478,22.124,246.057-25.156,281.925-62.366,44.444-46.1,103.61-162.012-36.482-248.942C1782.7,576.929,1723.1,535.659,1675.2,488.292c-68.151-67.3-71.454-165.984,8.372-224.065,56.5-41.1,146.467-61.234,190.757-111.632,31.438-35.834,34.2-79.386,18.1-116.875-16.641-38.744-51.2-72.714-94.444-101.51" transform="translate(50.385 83.054)"/><path class="d" d="M-36.28,948.472c2.56-66.042,86.636-126.37,183.666-140.759,88.453-13.135,181.105,5.017,267.05,22.333,81.925,16.5,168.97,28.622,239.733,6.777,90.22-28.065,129.083-101.946,223.194-140.776,79.365-32.786,169.79-37.716,251.792-25.574,49.77,7.369,97.772,25.051,146.287,41.81,168.2,57.924,191.244,184.764,334.484,205.459,150.691,21.619,240.655-22.647,277.879-59.23,45.52-44.771,101.69-156.229-29.211-241.851-57.092-37.333-114.106-79.351-161.29-126.335-65.873-65.606-70.43-160.445,4.02-217.881,53.456-41.252,139.708-63.063,183.87-112.816,31.9-35.9,36.994-78.916,24.091-116.631-13.543-39.458-44.828-74.909-86.047-105.517" transform="translate(52.76 85.48)"/><path class="d" d="M-34.76,948.945c5.914-67.731,89.605-130.568,189.119-146.333,88.914-14.076,183,3.8,268.944,22.438,80.85,17.543,165.565,31.828,236.1,13.013,89.938-23.988,133.128-93.34,227.188-131.6,80.952-32.925,170.071-41.635,253.609-32.3,51.638,5.766,102.406,22.264,152.969,39.161,163.85,54.771,189.784,176.263,329.594,196.662,145.929,21.079,235.355-20.173,273.937-56.129,46.544-43.447,99.846-150.532-21.992-234.726-54.352-37.594-108.755-80.257-155.171-126.91-63.569-63.934-69.432-155.044-.307-211.731,50.307-41.3,132.821-64.753,176.8-113.757,32.412-36.061,39.913-78.515,30.082-116.4-10.394-40.19-38.4-77.243-77.624-109.524" transform="translate(55.131 87.952)"/><path class="d" d="M-33.24,949.465C-24,880.026,59.13,814.681,161.332,797.574c89.375-14.982,184.869,2.544,270.839,22.542,79.851,18.553,162.16,34.946,232.488,19.163,89.605-20,137.224-84.717,231.156-122.4a569.294,569.294,0,0,1,255.4-39.04c53.559,4.146,107.117,19.494,159.677,36.583,159.293,51.757,188.325,167.831,324.73,187.935,141.09,20.609,229.928-17.717,269.789-53.011,47.568-42.158,97.977-144.975-14.747-227.636a1243.131,1243.131,0,0,1-149.1-127.484C1680.119,432,1673.1,344.706,1736.9,288.664c47.235-41.5,126.139-66.547,169.969-114.854,32.873-36.218,42.755-78.149,36.073-116.161-7.22-40.973-31.823-79.543-69.124-113.548" transform="translate(57.503 90.393)"/><path class="d" d="M-31.72,949.97c12.6-71.129,95.238-138.965,200.025-157.466,89.861-15.87,186.891,1.289,272.734,22.647,78.853,19.581,158.73,38.081,228.852,25.486,89.2-16.027,141.295-76.111,235.15-113.234,83.948-33.2,170.762-49.649,257.219-45.782,55.453,2.474,111.751,16.741,166.41,33.971,154.582,48.778,186.891,159.277,319.866,179.085,136.3,20.016,224.526-15.208,265.744-49.893,48.643-40.852,96.236-139.522-7.476-220.528a1444.622,1444.622,0,0,1-143.011-128.077c-59.037-60.537-67.511-144.139-9.011-199.38,44.163-41.688,119.38-68.307,163.056-115.917,31.434-34.717,46.132-75.253,42.038-115.935-3.968-41.81-25.32-81.877-60.8-117.537" transform="translate(59.874 92.849)"/><path class="d" d="M-30.2,950.5c15.873-72.836,98.105-143.146,205.478-163.075,90.322-16.741,188.632,0,274.628,22.734,77.854,20.557,155.376,41.2,225.294,31.706,88.786-12.055,145.391-67.453,239.119-104,85.458-33.326,171.147-53.725,259.011-52.523,57.4.784,116.41,13.937,173.041,31.357,149.872,45.99,185.407,150.776,314.9,170.27,131.515,19.511,219.124-12.735,261.725-46.757,49.513-39.58,94.6-134.139-.256-213.438-46.083-38.6-92.78-82.923-136.917-128.634-56.784-58.847-66.564-138.808-13.364-193.213C1813.42,263,1885.1,234.846,1928.627,187.915c32-34.626,48.687-74.788,48.054-115.691-1.01-42.992-19.121-85-52.406-121.544" transform="translate(62.246 95.276)"/><path class="d" d="M-28.68,950.986c19.252-74.526,101-147.292,210.931-168.6,90.809-17.612,190.527-1.272,276.5,22.838,76.8,21.532,151.945,44.3,221.607,37.942,88.428-8.083,149.487-58.83,243.215-94.821,87.045-33.448,171.531-57.854,260.829-59.23,59.319-.941,120.993,11.289,179.723,28.8,145.084,43.256,183.921,142.275,310.086,161.472,126.728,18.971,213.671-10.261,257.68-43.656,50.461-38.325,93.087-129.035,7.015-206.33-43.523-39.04-87.506-83.793-130.85-129.209-54.531-57.122-65.77-133.529-17.716-187.046,37.916-42.21,105.888-71.825,149.206-118.077,32.606-34.59,51.246-74.414,54.045-115.464,2.5-43.826-12.755-87.275-44.086-125.6" transform="translate(64.617 97.739)"/><path class="d" d="M-27.16,951.528C-4.579,875.295,76.731,800.09,189.224,777.321c91.3-18.449,192.447-2.561,278.417,22.926,75.909,22.507,148.489,47.436,218,44.179,88.018-4.111,153.609-50.172,247.081-85.623,88.5-33.552,171.889-62.017,262.646-65.989,61.214-2.683,125.576,8.606,186.38,26.131,140.271,40.608,182.488,133.791,305.247,152.692,121.915,18.449,208.192-7.822,253.609-40.538,51.408-37.019,91.7-124.018,14.26-199.223-40.706-39.562-82.181-84.682-124.756-129.784-52.3-55.433-65-128.3-22.069-180.879,34.741-42.524,99.155-73.585,142.268-119.157,34.844-36.81,54.813-76.738,60.036-115.22,6.069-44.6-6.254-89.474-35.586-129.575" transform="translate(66.989 100.159)"/><path class="d" d="M-25.64,951.981C.294,874.111,81.144,796.415,196.172,772.235c91.782-19.3,194.341-3.885,280.337,23.03,74.91,23.448,145.11,50.52,214.336,50.415,87.634-.157,157.706-41.531,251.075-76.442,90.041-33.657,172.222-66.2,264.438-72.714,63.159-4.46,130.184,5.94,193.087,23.6,135.381,38.029,181,125.289,300.358,143.877,117.153,17.926,202.713-5.348,249.564-37.4,52.3-35.765,90.527-119.123,21.531-192.133-37.916-40.067-76.8-85.553-118.689-130.359-50.077-53.708-64.311-123.13-26.421-174.712,31.516-42.872,92.422-75.344,135.355-120.2,35.356-36.967,57.937-76.39,66.026-114.977,9.627-45.381.2-91.689-27.189-133.582" transform="translate(69.36 102.667)"/><path class="d" d="M-24.12,952.539C5.143,872.891,85.583,792.86,203.171,767.182c92.166-20.121,196.287-5.226,282.232,23.135,73.937,24.389,141.7,53.621,210.726,56.635,87.25,3.815,161.8-32.855,255.043-67.226,91.577-33.761,172.58-70.467,266.256-79.473,65.054-6.254,134.716,3.31,199.692,21.027,130.44,35.5,179.492,116.963,295.468,135.08,112.314,17.56,197.132-2.927,245.545-34.284,53.174-34.528,89.606-114.367,28.751-185.043-35-40.73-71.684-86.424-112.647-130.934-47.875-51.983-63.722-117.99-30.722-168.528,28.162-43.256,85.688-77.087,128.417-121.3,35.842-37.106,61.111-76.024,72.043-114.767,13.205-46.153,6.683-93.915-18.792-137.623" transform="translate(71.731 105.071)"/><path class="d" d="M-22.6,953C9.991,871.66,90.047,789.242,210.144,762.118c92.78-20.9,198.207-6.568,284.177,23.222,72.99,25.33,138.248,56.739,207.091,62.889,86.866,7.752,165.924-24.2,259.037-58.046s172.887-74.717,268.048-86.215c66.948-8.066,139.273.732,206.451,18.431,125.447,33.1,178.033,108.479,290.629,126.3,107.527,17.02,191.679-.505,241.474-31.166,54.045-33.308,88.735-109.75,36.021-177.935-32.079-41.426-66.385-87.3-106.579-131.509-45.673-50.276-63.21-112.921-35.125-162.361,24.834-43.691,78.981-78.846,121.505-122.4,36.508-37.228,64.286-75.641,78.008-114.524,16.8-46.878,13.2-96.069-10.368-141.578" transform="translate(74.103 107.557)"/><path class="d" d="M-21.07,953.509C14.951,870.465,94.444,785.661,217.2,757.021c93.292-21.741,200.153-7.926,286.021,23.326,72.068,26.236,134.895,59.823,203.481,69.108,86.482,11.707,170.02-15.5,263-48.778,94.726-33.936,173.169-79,269.866-92.939,68.817-9.93,143.778-1.829,213.133,15.835,120.506,30.678,176.651,99.977,285.739,117.5,102.714,16.48,186.175,1.9,237.429-28.065,54.915-32.071,88.223-105.186,43.267-170.827-28.879-42.158-61.06-88.149-100.435-132.084-43.523-48.534-62.852-107.869-39.452-156.194,21.326-44.127,72.248-80.588,114.567-123.46,36.892-37.367,67.486-75.257,84-114.3,20.4-47.615,19.724-98.265-1.946-145.619" transform="translate(76.49 110.006)"/><path class="d" d="M-19.55,954.052C19.7,869.317,98.883,782.144,224.075,751.972c93.8-22.542,202.252-9.3,287.915,23.431,71.121,27.124,131.49,62.923,199.846,75.344,86.1,15.679,174.091-6.829,267-39.667,96.211-34.023,173.425-83.306,271.658-99.681,70.686-11.776,148.284-4.32,219.841,13.24,115.489,28.378,175.089,91.476,280.849,108.705,97.926,15.957,180.619,4.3,233.384-24.929,55.76-30.869,87.992-100.761,50.537-163.754-25.6-42.96-55.811-89-94.367-132.641-41.321-46.809-62.6-102.782-43.8-150.027,17.742-44.6,65.54-82.348,107.527-124.541,37.429-37.507,70.737-74.909,90.015-114.053,23.977-48.323,26.215-100.415,6.426-149.609" transform="translate(78.861 112.425)"/><path class="d" d="M-18,954.539c42.5-86.424,121.3-175.949,249-207.62,94.316-23.361,204.1-10.714,289.81,23.5C591.036,798.45,648.818,836.445,717.047,852c85.714,19.581,178.289,1.864,270.967-30.469,97.772-34.075,173.681-87.626,273.476-106.405,72.5-13.658,152.739-6.776,226.523,10.644,110.445,26.131,173.63,82.975,275.985,99.908,93.113,15.417,175.064,6.672,229.339-21.811,56.579-29.7,88.018-96.371,57.757-156.629-21.991-43.813-50.563-89.873-88.248-133.233-39.17-45.067-62.493-97.8-48.182-143.86,14-45.067,58.884-84.072,100.717-125.6,37.941-37.646,73.989-74.439,95.98-113.827,27.594-49.016,32.77-102.563,14.849-153.616" transform="translate(81.28 114.881)"/><path class="d" d="M-16.51,955.03C29.419,866.9,107.837,775.022,238.021,741.888c94.726-24.145,206.093-12.107,291.7,23.605,69.3,28.918,124.731,69,192.6,87.817,85.432,23.4,182.437,10.54,274.961-21.271,99.334-34.162,173.886-91.981,275.268-113.234,74.245-15.539,157.194-9.146,233.2,8.066,105.427,23.866,172.247,74.317,271.121,91.11,88.377,14.755,169.508,9.041,225.294-18.693,57.4-28.535,88.4-92,65.028-149.539-18.932-46.8-46.548-91.761-82.181-133.808-37.02-43.308-62.519-92.748-52.534-137.623,10.241-45.538,52.125-85.814,93.778-126.683,38.4-37.768,77.266-74,102-113.6,31.19-49.692,39.3-104.686,23.246-157.6" transform="translate(83.604 117.352)"/><path class="d" d="M-15,955.543c49.283-89.856,127.317-184.05,260.01-218.769,95.366-24.929,208.115-13.518,293.6,23.709C607.041,790.273,659.96,832.6,727.6,854.555c85.048,27.368,186.559,19.25,279.057-12.072,100.9-34.214,174.091-96.319,277.086-119.889,76.114-17.421,161.6-11.463,239.887,5.453,100.358,21.706,170.762,65.833,266.256,82.33,83.589,14.233,163.85,11.376,221.249-15.574,58.218-27.385,89.119-87.573,72.273-142.449-14.969-47.2-40.638-92.533-76.087-134.366-34.9-41.566-62.647-87.7-56.887-131.526,6.042-45.973,45.443-87.539,86.866-127.763,39.016-37.89,80.542-73.533,107.987-113.356,34.768-50.365,45.82-106.809,31.644-161.612" transform="translate(85.96 119.801)"/><path class="d" d="M-13.47,956.078c52.586-91.546,130.261-188.144,265.437-224.292,95.9-25.7,210.138-14.947,295.493,23.8,67.563,30.66,117.946,75.24,185.355,100.291,84.69,31.357,190.783,28.065,282.923-2.892,102.56-34.127,174.244-100.674,278.878-126.631,77.906-19.337,166-13.675,246.594,2.874,95.264,19.563,169.3,57.384,261.367,73.515,78.776,13.71,158.32,13.71,217.178-12.456s90.117-83.044,79.544-135.324c-9.4-46.409-34.972-92.33-70.02-134.958-32.8-39.806-62.9-82.557-61.239-125.342,1.818-46.391,38.863-89.229,79.928-128.913,39.682-37.96,83.845-73.167,113.978-113.13C2200.316,101.6,2214.323,43.7,2202.012-13" transform="translate(88.347 122.228)"/><path class="d" d="M-11.95,956.6C43.964,863.308,121.357,764.6,258.94,726.642c96.492-26.375,212.186-16.393,297.388,23.9,66.564,31.531,114.567,78.393,181.771,106.51,84.306,35.295,194.879,36.723,286.891,6.306,104.1-34.214,174.372-105.03,280.7-133.373,79.672-21.236,170.327-15.766,253.25.3,90.3,17.421,167.844,48.778,256.5,64.718,74.014,13.188,152.739,16.009,213.159-9.338,59.831-25.1,91.372-78.393,86.764-128.234-4.352-47.14-29.8-93.2-64-135.515-30.722-38.064-63.262-77.365-65.591-119.192-2.56-46.722,32.13-90.971,73.016-129.906,40.195-38.116,87.046-72.592,119.969-112.886,41.968-51.655,58.944-111,48.515-169.59" transform="translate(90.719 124.706)"/><path class="d" d="M-10.43,957.056C48.838,862.113,125.8,760.986,265.913,721.633c97-27.229,214.26-17.839,299.282,24.006,65.847,32.385,111.162,81.442,178.161,112.694,83.948,39.249,198.975,45.381,290.885,15.5,105.606-34.336,174.5-109.4,282.488-140.114,81.439-23.17,174.68-17.752,259.958-2.317S1743.1,771.77,1828.3,787.344c69.124,12.648,147.158,18.309,209.114-6.219,60.65-24.006,92.908-73.393,94.035-121.126s-24.706-94.072-57.859-136.108c-28.6-36.287-63.723-72.052-69.944-113.008-7.117-47.036,25.4-92.73,66.078-130.986s90.425-72.1,125.96-112.659c45.522-52.3,65.427-113.094,56.835-173.6" transform="translate(93.09 127.155)"/></g><g transform="translate(923.014 -502.152)"><path class="d" d="M425.737,1426.24c-74.6-31.357-78.11-108.339-34.357-160.061s119.995-85.953,187.736-123.861,132.872-86.65,138.453-146.212c7.168-76.146-85.381-145.289-73.528-221.243,9.242-59.126,80.235-103.88,154.838-128.913,42.166-14.128,90.911-19.076,134.587-30.748,198.1-52.767,374.141,32.646,497.515-36.74,133.563-75.223,126.753-159.417,102.073-200.9-31.618-53.151-137.506-170.845-346.031-138.425-84.69,13.17-171.531,24.389-258.346,20.713-129.851-5.557-256.118-75.1-264.413-163.423C658.711,35.9,704.794-27.08,672.613-83.662c-21.582-38.047-76.267-64.317-134.588-73.707s-119.841-3.745-177.5,7.386" transform="translate(-360.53 381.974)"/><path class="d" d="M427.669,1428.923c-74.449-34.232-81.208-112.555-37.3-166.455,42.883-52.61,119.815-87.66,189.016-124.8,68.382-36.688,134.306-82.888,143.369-140.376,11.444-73.481-72.913-142.048-60.5-217.514,10.087-60.015,75.96-106.266,148.233-134.035,41.526-15.975,90.681-23.361,135.688-35.922,191.295-53.168,363.389,27.96,484.279-39.893,129.953-73.01,126.292-155.044,103.123-196.854-29.39-52.924-131.822-165.967-333.358-137.815-82.975,11.62-169.15,21.1-255.094,17.194-126.549-5.575-249-72.017-260.061-157.135-7.68-58.917,34.229-121.039,2.765-177.1-21.428-38.325-73.963-65.484-130.568-76.756-57.117-11.358-118.382-8.588-176.8.436" transform="translate(-356.547 379.083)"/><path class="d" d="M431.128,1432.008c-74.245-37.072-84.332-116.719-40.271-172.831,42.012-53.482,119.636-89.42,190.322-125.76,69-35.468,135.688-79.142,148.207-134.54C745.131,928.08,668.711,860.069,681.9,785c10.727-60.972,71.684-108.635,141.653-139.209,40.963-17.874,90.45-27.647,137.045-41.078,184.69-53.272,352.738,23.413,471.069-42.837,126.369-70.8,125.832-150.654,104.147-192.69-27.137-52.68-126.19-161.176-320.66-137.205-81.515,10.034-167.025,17.682-252.047,13.536C839.96,239.841,721.168,176.482,707.369,94.535c-9.652-57.314,28.162-118.565-2.791-174.1-21.275-38.761-71.684-66.652-126.549-79.787-55.965-13.4-116.9-13.466-176.139-6.533" transform="translate(-354.17 375.789)"/><path class="d" d="M434.629,1435.456c-74.245-39.893-87.4-120.917-43.215-179.207,41.193-54.318,119.431-91.145,191.6-126.683,69.585-34.3,137.173-75.4,153.1-128.722,20.046-68.132-48.31-135.585-34.46-210.233C713.123,728.821,769.114,679.5,836.7,646.23c40.246-19.807,90.194-31.915,138.248-46.252,178.161-53.168,342.088,18.867,458.012-45.747,122.759-68.6,125.447-146.334,105.2-188.614-24.961-52.436-120.66-156.438-308.012-136.6-79.979,8.466-164.669,14.18-248.873,9.965C861.51,232.976,746.38,172.875,729.867,94.168c-11.674-55.746,21.608-116.057-8.346-171.106-21.275-39.075-69.457-67.941-122.529-82.818-54.813-15.452-115.437-18.344-175.448-13.5" transform="translate(-351.86 372.114)"/><path class="d" d="M438.127,1439.317c-74.04-42.733-90.476-125.1-46.083-185.582,40.374-55.154,119.227-92.922,192.908-127.642,70.174-33.1,138.607-71.651,157.936-122.886,24.373-65.45-35.842-132.4-21.429-206.574,12.238-62.714,63.185-113.687,128.494-149.574,39.606-21.776,89.913-36.148,139.452-51.426,171.71-52.924,331.463,14.32,444.9-48.673,119.149-66.373,124.859-141.856,106.246-184.5-22.785-52.175-115.207-151.787-295.34-136-78.52,6.968-162.365,10.8-245.775,6.376-116.385-6.167-227.854-63.167-247.029-138.651C738.664,40.036,767.773-19.369,738.485-73.913c-21.147-39.423-67.23-69.073-118.51-85.849C566.212-177.3,506-182.966,445.193-180.231" transform="translate(-349.52 368.044)"/><path class="d" d="M441.669,1443.464c-73.886-45.573-93.5-129.262-49.129-191.959,39.606-55.99,119-94.682,194.188-128.6,70.763-31.88,140.194-67.853,162.826-117.067,28.853-62.714-23.5-129.087-8.4-202.916,13.006-63.568,58.884-116.3,121.889-154.748,38.94-23.762,89.605-40.381,140.809-56.6,165.335-52.524,320.813,9.773,431.77-51.6,115.54-64.16,124.347-137.449,107.271-180.391-20.481-51.914-109.907-147.24-282.641-135.411-77.112,5.226-160.061,7.421-242.6,2.787-113.031-6.324-220.993-60.258-242.7-132.4-15.822-52.593,9.063-111.074-19.508-165.1-21.019-39.789-64.951-70.345-114.465-88.845-52.56-19.685-112.519-28.082-174.091-27.438" transform="translate(-347.25 363.618)"/><path class="d" d="M445.249,1448.037c-73.758-48.412-96.543-133.425-52.1-198.352,38.838-56.791,118.74-96.458,195.494-129.523,71.275-30.712,141.628-64.108,167.69-111.248,33.282-60.031-11.086-125.847,4.608-199.275,13.8-64.456,54.531-118.966,115.207-159.922,38.4-25.8,89.426-44.6,141.909-61.756,159.011-52.035,310.163,5.226,418.637-54.527,111.956-61.965,123.809-133.042,108.32-176.315-18.484-51.617-104.659-142.85-269.969-134.784a2258.852,2258.852,0,0,1-239.451-.8c-109.677-6.481-214.157-57.384-238.351-126.3-17.921-51.06,2.791-108.6-25.09-162.117-20.891-40.068-62.724-71.634-110.445-91.894-51.434-21.845-111.034-32.96-173.425-34.423" transform="translate(-344.993 358.906)"/><path class="d" d="M448.864,1452.525c-73.6-51.234-99.513-137.623-55.069-204.727,38.146-57.61,118.51-98.253,196.825-130.481,71.812-29.615,143.061-60.345,172.555-105.412,37.506-57.331,1.357-122.607,17.639-195.634,14.567-65.31,50.128-121.666,108.7-165.1,37.583-27.873,89.2-48.778,143.138-66.93,152.765-51.408,299.538.679,405.5-57.488,108.346-59.753,123.272-128.617,109.37-172.2-16.385-51.339-101.792-152.779-257.321-134.139-73.349,8.71-155.427.645-236.277-4.39-106.323-6.6-207.373-54.492-234.024-120.116-20.1-49.544-3.456-106.127-30.722-159.12-20.082-38.416-57.3-71.6-106.451-94.925C632.453-182.179,573.185-195.959,510-199.53" transform="translate(-342.694 354.208)"/><path class="d" d="M452.418,1457.029c-73.477-54-102.406-141.717-58.039-211.121,37.43-58.342,118.228-100.029,198.233-131.4,72.324-28.413,144.521-56.6,177.444-99.594,41.807-54.649,13.8-119.384,30.722-191.976C816.14,756.735,846.452,698.5,902.9,652.646c36.841-29.946,88.94-52.959,144.342-72.1,146.569-50.677,288.862-3.867,392.37-60.38,104.736-57.488,122.683-124.175,110.394-168.092-14.285-51.06-96.364-149.818-244.623-133.6-72.248,7.892-153.123-2.718-233.128-7.961-102.97-6.742-200.742-51.635-229.7-113.966-22.3-48.029-9.7-103.636-36.2-156.107C786.753-98.229,751.2-132.235,703.953-157.52c-49.875-26.41-109.341-43.122-172.068-48.36" transform="translate(-340.514 349.496)"/><path class="d" d="M456.052,1461.544c-73.3-56.9-105.427-145.828-60.983-217.48,36.738-59.23,117.921-101.858,199.411-132.4,72.836-27.281,145.929-52.838,182.283-93.758,46.083-51.966,26.267-116.144,43.7-188.335,16.18-67.087,41.193-127.171,95.545-175.461,36.1-32.036,88.735-57.1,145.57-77.278,140.45-49.858,278.212-8.4,379.236-63.289,101.126-55.328,122.119-119.75,111.443-164.016-12.238-50.746-90.86-146.63-231.95-132.989-71.275,6.968-150.793-6.1-229.979-11.55-99.616-6.864-194.162-48.778-225.294-107.782C840.434,50.66,849.087-3.953,823.255-55.9c-19.165-38.986-53.112-73.84-98.412-101.04-48.593-28.783-107.878-47.923-171.377-55.328" transform="translate(-338.336 344.754)"/><path class="d" d="M459.721,1465.987c-73.169-59.735-108.371-149.957-64-223.873,36.047-59.98,117.614-103.671,200.691-133.3,73.323-26.131,147.388-49.057,187.173-87.922C834.016,971.623,822.341,908,840.314,836.23c17-67.941,36.636-130.01,88.94-180.635,35.3-34.162,88.53-61.216,146.8-82.452,134.382-48.952,267.562-12.943,366.1-66.2,97.542-53.115,121.505-115.307,112.468-159.9-10.241-50.52-85.253-143.32-219.252-132.4-70.481,5.749-148.489-9.459-226.83-15.139-96.262-6.968-187.685-45.9-221.018-101.615C860.59,52.822,865.352-.8,840.186-52.225c-20.353-41.548-53.558-77.139-94.393-104.036C698.5-187.413,639.385-208.979,575.081-218.54" transform="translate(-336.168 340.101)"/><path class="d" d="M463.36,1470.5c-73.016-62.575-111.264-154.086-66.9-230.249,35.381-60.763,117.306-105.517,202-134.244,73.809-25.051,148.8-45.294,192.012-82.1,54.736-46.583,51.2-109.646,69.739-181.054,17.921-68.829,32.053-132.833,82.36-185.809,34.46-36.287,88.376-65.31,148.028-87.608,128.366-47.977,256.912-17.421,352.995-69.16,93.906-50.9,120.839-110.865,113.492-155.793-8.193-50.154-79.749-122.642-206.6-131.788-69.687-5.035-146.159-12.822-223.655-18.727-92.908-7.09-181.336-43.029-216.666-95.43C880.768,54.981,881.74,2.318,857.214-48.585c-20.174-41.9-51.2-78.567-90.348-107.068-45.942-33.531-104.883-57.537-170.02-69.247" transform="translate(-333.995 335.382)"/><path class="d" d="M467.049,1474.994c-72.888-65.414-114.157-158.2-69.867-236.642,34.741-61.547,116.974-107.364,203.3-135.185,74.245-23.936,150.2-41.565,196.9-76.267,58.884-43.9,63.722-106.406,82.77-177.4,18.689-69.682,27.394-135.672,75.781-191,33.589-38.43,88.2-69.387,149.231-92.782,122.4-47.036,246.415-21.915,339.861-72.087,90.45-48.551,120.2-106.423,114.541-151.7-6.247-49.823-74.936-119.105-193.932-131.178-68.586-6.968-143.855-16.166-220.506-22.316-89.605-7.177-175.089-40.068-212.339-89.264-31.874-42.054-34.639-93.741-58.5-144.1-20.02-42.263-48.8-80.031-86.329-110.1-44.572-35.907-103.349-62.359-169.354-76.215" transform="translate(-331.847 330.677)"/><path class="d" d="M470.74,1479.49c-72.734-68.237-117.025-162.308-72.837-243.019,34.153-62.331,116.666-109.245,204.608-136.143,74.731-22.856,151.638-37.8,201.766-70.449,63.313-41.2,76.242-103.148,95.8-173.737S922.813,717.631,969.2,659.968c32.693-40.573,88.069-73.411,150.46-97.957,116.487-45.834,235.765-26.462,326.727-74.909,86.841-46.356,119.508-102,115.565-147.605-4.276-49.527-70.1-115.813-181.233-130.655-67.511-8.954-141.551-19.494-217.383-25.887-86.175-7.264-168.97-37.211-207.987-83.1-34.46-40.538-40.835-91.267-64-141.108-19.867-42.628-46.364-81.477-82.309-113.13-43.185-38.276-101.793-67.183-168.689-83.2" transform="translate(-329.727 325.972)"/><path class="d" d="M474.457,1484.079C401.851,1413,354.59,1317.66,398.651,1234.685c33.538-63.115,116.308-111.144,205.913-137.083,75.192-21.793,153.046-34.057,206.63-64.631,67.588-38.534,88.761-99.89,108.832-170.1,20.481-71.424,17.921-141.334,62.6-201.348,31.746-42.716,87.992-77.4,151.664-103.13,110.65-44.684,225.14-31.009,313.619-77.923,83.231-44.144,118.817-97.556,116.615-143.494-2.355-49.231-65.233-112.694-168.586-129.976-66.385-11.2-139.221-22.926-214.208-29.58-82.847-7.334-162.928-34.232-203.635-76.912C940.917,61.542,931.035,11.666,908.454-37.6c-19.713-42.977-43.907-82.94-78.29-116.161-41.762-40.636-100.194-72-168-90.169" transform="translate(-327.606 321.26)"/><path class="d" d="M478.166,1488.471c-72.453-73.9-122.683-170.513-78.751-255.77,32.924-63.882,115.975-113.025,207.193-138.024,75.653-20.73,154.454-30.312,211.52-58.794,71.864-35.869,101.28-96.651,121.838-166.438C961.294,797.1,953.2,725.253,995.984,662.9c30.722-44.858,87.941-81.355,152.892-108.287,104.966-43.552,214.49-35.573,300.486-80.867,79.621-41.932,118.074-93.1,117.767-139.365-.461-48.9-60.317-109.75-155.914-129.366-65.233-13.362-136.917-26.131-211.059-33.1-79.365-7.4-157.015-31.235-199.308-70.745-40.066-37.4-53.354-86.354-75.294-135.115-19.534-43.343-41.423-84.421-74.245-119.192-40.317-43-98.583-76.819-167.332-97.138" transform="translate(-325.504 316.556)"/><path class="d" d="M481.9,1492.966c-72.325-76.738-125.448-174.625-81.72-262.146,32.335-64.649,115.617-114.976,208.5-138.982,76.088-19.668,155.862-26.567,216.384-52.959,76.139-33.2,113.825-93.392,134.869-162.8,22.2-73.167,8.423-147.013,49.411-211.714,29.8-47.036,87.941-85.257,154.121-113.461,99.1-42.245,203.814-40.067,287.352-83.776,76.011-39.736,117.332-88.671,118.689-135.306,1.434-48.6-55.223-107.067-143.215-128.774-64-15.783-134.613-29.476-207.91-36.583-76.139-7.526-151.177-28.2-194.853-64.648-42.96-35.66-59.549-83.863-80.9-132.1C923.3-73.989,903.736-116.164,872.4-152.5c-38.861-45.341-96.958-81.63-166.666-104.106" transform="translate(-323.4 311.851)"/><path class="d" d="M485.668,1497.462c-72.2-79.577-128.29-178.7-84.69-268.54,31.772-65.414,115.207-116.875,209.779-139.905,76.549-18.658,157.245-22.856,221.249-47.14,80.312-30.643,126.369-90.135,147.875-159.155,23.042-74.073,3.61-149.818,42.857-216.888,28.776-49.144,87.992-89.107,155.325-118.635,93.394-40.956,193.036-44.771,274.219-86.7,72.3-37.629,116.564-84.194,119.764-131.23,3.277-48.325-49.974-104.524-130.568-128.181a1153.85,1153.85,0,0,0-204.812-40.224c-72.734-7.543-145.34-24.964-190.553-58.377-45.827-33.883-65.617-81.407-86.354-129.1C940.608-70.7,923.4-113.968,893.552-151.876c-37.384-47.675-95.3-86.433-165.975-111.074" transform="translate(-321.331 307.146)"/><path class="d" d="M489.424,1502c-72.043-82.417-131.054-182.812-87.634-274.916,31.183-66.2,114.874-118.844,211.085-140.863,76.984-17.63,158.73-19.163,226.113-41.3,84.639-27.96,138.94-86.894,160.931-155.514,24.014-74.909-1.28-152.658,36.251-222.061,27.7-51.287,88.172-92.922,156.528-123.809,87.737-39.632,182.385-49.318,261.136-89.629,68.663-35.416,115.745-79.8,120.762-127.171,5.12-48.029-44.469-102.12-117.767-127.554-63.448-21.636-131.457-36.423-201.587-43.83-69.483-7.543-139.682-21.706-186.277-52.262-48.9-32.019-71.684-78.951-91.935-126.108-18.945-44.44-33.768-88.845-62.186-128.286-35.91-50-93.646-91.226-165.309-118.043" transform="translate(-319.25 302.397)"/><path class="d" d="M493.194,1506.461c-71.915-85.24-133.819-186.907-90.6-281.309,30.722-66.948,114.516-120.812,212.493-141.8,77.419-16.6,160.061-15.418,230.977-35.469C935,1022.584,997.75,964.259,1020,896.023c25.166-75.78-6.145-155.48,29.672-227.253,26.677-53.429,88.351-96.6,157.783-128.913,82.13-38.325,171.735-53.882,247.951-92.556,64.977-33.274,114.925-75.519,121.71-123.06s-38.684-99.821-105.2-126.962c-58.884-24.093-127.726-39.336-198.438-47.419-66.154-7.543-133.973-18.344-181.9-46.06-52-30.016-77.854-76.494-97.491-123.095-18.638-44.841-31.183-90.257-58.192-131.317-34.389-52.329-91.942-96.041-164.618-125.028" transform="translate(-317.209 297.729)"/><path class="d" d="M496.909,1510.934c-71.684-88.079-136.328-190.966-93.574-287.685,30.261-67.7,114.183-122.8,213.7-142.745,77.906-15.678,161.495-11.689,235.867-29.615,93.241-22.647,164.157-80.344,186.891-148.2,26.011-76.651-11.06-158.284,23.042-232.427,25.6-55.572,88.658-100.221,159.011-134.139,76.6-36.932,161.085-58.412,234.818-95.483,61.444-30.991,114.055-70.989,122.887-118.9,8.7-47.471-32.488-97.556-92.524-126.37-56.733-27.229-125.448-42.576-195.289-50.99-62.826-7.561-128.238-14.912-177.624-39.893-55.12-27.873-84.076-74.02-103.046-120.1-18.484-45.189-28.571-91.7-54.173-134.366-32.865-54.621-90.2-100.8-163.85-131.979" transform="translate(-315.112 293.047)"/><path class="d" d="M500.763,1515.452c-71.684-90.918-139.247-195.112-96.544-294.078,29.57-68.5,113.824-124.8,215.053-143.686,78.341-14.634,162.928-7.926,240.655-23.832,97.542-19.929,176.651-77.087,199.974-144.592,26.856-77.522-15.975-161.072,16.513-237.6,24.475-57.7,89.093-103.758,160.215-139.366s150.409-62.871,221.71-98.322c57.859-28.779,113.159-66.582,123.886-114.8,10.5-47.21-25.858-95.239-79.826-125.76s-123.041-45.8-192.165-54.579c-59.5-7.561-122.478-11.341-173.271-33.709-58.269-25.643-90.322-71.564-108.627-117.1s-25.96-93.131-50.153-137.4C946.807-206.3,889.629-254.966,814.92-288.32" transform="translate(-313.129 288.32)"/></g></g></g></g></g></svg>