<svg xmlns="http://www.w3.org/2000/svg" xmlns:xlink="http://www.w3.org/1999/xlink" width="418" height="747" viewBox="0 0 418 747"><defs><style>.a,.e{fill:none;stroke:#fff;}.b{fill:#f6f6f6;}.c{isolation:isolate;}.d{clip-path:url(#a);}.e{stroke-miterlimit:10;}</style><clipPath id="a"><rect class="a" width="418" height="747"/></clipPath></defs><g transform="translate(0 -4016)"><rect class="b" width="418" height="747" transform="translate(0 4016)"/><g class="c" transform="translate(0 4016)"><g transform="translate(0 0)"><g class="d"><g transform="translate(-85.96 -242.009)"><path class="e" d="M169.253-52.3Q164.2,5.615,156.605,61.606c-2.228,16.556-4.745,33.321-9.083,46.548-11.1,33.813-30.519,34.858-47.093,27.514-15.285-6.774-30.215-18.4-44.475-34.635-14.112-16.063-27.762-36.8-42.883-43.607s-32.708,4.18-40.855,38.949C-32.63,117.1-33.4,143.31-31.51,167.241s6.237,45.936,11.055,66.7c5.519,23.766,11.924,47.846,12.753,75.748.858,28.9-5.1,58.461-14.586,72.374-13.494,19.8-30.012,7.375-45.149,0-19.225-9.39-39.847-9.315-57.413,13.66s-31.143,72.882-29.338,125.043" transform="translate(154.349 216.232)"/><path class="e" d="M166.827-57.53c-3.271,37.745-7.419,74.905-12.419,111.263-2.228,16.153-4.684,32.485-8.911,45.443-10.81,33.112-29.6,34.933-45.717,28.633a89.773,89.773,0,0,1-11.417-5.434c-10.907-6.113-21.591-14.795-31.928-25.946C42.646,81.5,29.28,62.094,14.5,55.868S-16.944,61.019-25.554,93.4a205.712,205.712,0,0,0-6.382,39.456,287.948,287.948,0,0,0-.379,29.633q.247,6.885.785,13.66c1.481,18.273,4.634,36.157,8.081,53.161.34,1.687.685,3.359,1.03,5.046,5.391,26.08,11.083,52.758,11.395,81.943.3,28.1-5.229,56.729-14.48,70.389-13.149,19.527-29.182,8.345-43.824,2.105-1.153-.493-2.311-.955-3.475-1.359-17.576-6.3-35.955-3.732-51.637,18-16.708,23.169-29.489,72-27.467,122.684" transform="translate(153.361 213.654)"/><path class="e" d="M164.433-62.76c-3.186,36.876-7.262,73.16-12.2,108.621-2.189,15.75-4.622,31.679-8.744,44.353-10.5,32.4-28.687,34.978-44.342,29.723a85.243,85.243,0,0,1-11.1-4.673c-10.611-5.351-21.025-13.2-31.121-23.468C43.454,78.107,30.372,60,15.942,54.311s-30.274,6.136-39.235,36.1a212.329,212.329,0,0,0-8.148,37.77,264.815,264.815,0,0,0-1.671,29.559c-.01,4.766.1,9.529.323,14.257.936,19.318,4.066,38.815,7.446,57.311.34,1.836.674,3.658,1.014,5.479,5.263,28.364,10.258,57.58,10.025,88.079-.195,27.245-5.363,54.908-14.357,68.433-12.809,19.228-28.342,9.286-42.493,4.225-1.114-.4-2.228-.776-3.342-1.1-16.975-4.927-34.562-1.194-49.449,20.736-15.878,23.378-27.846,71.12-25.618,120.325" transform="translate(152.347 211.076)"/><path class="e" d="M162-68c-3.1,36.011-7.105,71.422-11.979,105.994-2.166,15.347-4.567,30.843-8.577,43.293-10.264,31.649-27.773,35.008-42.972,30.783a75.724,75.724,0,0,1-10.787-3.9C77.368,103.6,67.227,96.605,57.373,87.258c-13.143-12.5-25.941-29.29-40.031-34.426s-29.194,7.031-38.427,34.679c-4.021,12.033-7.7,22.721-9.908,36.053a235.54,235.54,0,0,0-2.991,29.38c-.2,4.957-.253,9.949-.162,14.929.39,20.363,3.5,41.547,6.817,61.476.329,1.971.657,3.941.991,5.971,5.135,30.738,9.468,62.3,8.682,94.334-.635,26.334-5.5,53.131-14.246,66.447-12.447,18.959-27.506,10.256-41.167,6.345-1.08-.3-2.161-.582-3.241-.821-16.368-3.568-33.17,1.329-47.266,23.453-15.037,23.587-26.175,70.165-23.725,117.937" transform="translate(151.376 208.494)"/><path class="e" d="M159.565-73.21C156.546-38.078,152.616-3.554,147.8,30.111c-2.133,14.929-4.511,29.977-8.409,42.129-9.952,31.022-26.855,35.142-41.591,31.962a69.753,69.753,0,0,1-10.47-3.12c-10.022-3.842-19.9-10.036-29.517-18.512C45.008,71.255,32.482,55.7,18.743,51.221s-28.2,7.808-37.6,33.231c-4.455,11.943-8.816,21.423-11.7,34.336a207.44,207.44,0,0,0-4.3,29.424c-.382,5.084-.59,10.251-.624,15.436-.162,21.408,2.929,44.249,6.182,65.686l.969,6.345c5.029,33.007,8.682,66.88,7.329,100.47-1.019,25.379-5.636,51.369-14.135,64.492-12.1,18.676-26.665,11.211-39.836,8.465-1.041-.224-2.083-.4-3.124-.552-15.755-2.239-31.767,3.852-45.071,26.125-14.185,23.781-24.5,69.359-21.848,115.608" transform="translate(150.398 205.926)"/><path class="e" d="M157.148-78.44c-2.935,34.264-6.793,67.912-11.545,100.679-2.105,14.541-4.455,29.186-8.231,41.054C127.7,93.583,111.426,98.48,97.146,96.345a66.3,66.3,0,0,1-10.153-2.359C77.273,90.908,67.671,85.543,58.3,77.953c-12.5-10.122-24.727-24.3-38.127-28.364s-27.289,8.539-36.8,31.843c-4.89,11.943-9.935,20.124-13.433,32.649a182.108,182.108,0,0,0-5.569,29.35c-.57,5.221-.943,10.583-1.114,16-.707,22.393,2.361,46.936,5.569,69.792.312,2.269.629,4.479.941,6.793,4.89,35.366,7.908,71.508,5.97,106.7-1.348,24.468-5.764,49.608-14.018,62.536-11.8,18.437-25.874,12.212-38.533,10.614-1-.12-2-.209-3-.269-15.159-.836-30.385,6.375-42.883,28.887-13.338,23.99-22.884,68.478-19.971,113.249" transform="translate(149.406 203.348)"/><path class="e" d="M154.649-83.67c-2.851,33.4-6.64,66.17-11.333,98.037-2.083,14.152-4.389,28.365-8.064,39.964-9.39,29.619-25.033,35.276-38.851,34.187a62.3,62.3,0,0,1-9.841-1.582A79.46,79.46,0,0,1,58.675,73.38C46.5,64.422,34.555,51.584,21.507,48.12S-4.936,57.2-14.487,78.56c-5.363,11.943-11.06,18.765-15.2,30.873a158.718,158.718,0,0,0-6.878,29.29c-.761,5.354-1.3,10.916-1.6,16.586-1.253,23.5,1.8,49.638,4.918,74.031q.468,3.613.924,7.225c4.762,37.68,7.179,76.047,4.611,112.891-1.637,23.513-5.9,47.772-13.923,60.551-11.395,18.123-24.994,13.122-37.185,12.7h-2.885c-14.558.537-28.993,8.957-40.711,31.6-12.5,24.2-21.235,67.6-18.105,110.89" transform="translate(148.509 200.771)"/><path class="e" d="M152.14-88.9c-2.759,32.531-6.47,64.428-11.1,95.394-2.049,13.749-4.327,27.529-7.9,38.815-9.1,28.917-24.114,35.336-37.475,35.291a55.85,55.85,0,0,1-9.518-.821A71.159,71.159,0,0,1,59.074,68.7c-11.851-7.733-23.513-19.288-36.2-22.2s-27.1,5.374-35.2,29.006c-6.544,8.942-12.18,17.571-16.953,29.245a139.264,139.264,0,0,0-8.187,29.215c-.949,5.484-1.651,11.252-2.088,17.183-1.8,24.528,1.231,52.25,4.288,78.092q.457,3.837.9,7.673c4.634,39.994,6.483,80.615,3.252,119.071-1.894,22.572-6.015,46.115-13.812,58.6-11.049,17.84-24.159,14.078-35.86,14.824a22.262,22.262,0,0,0-2.785.269c-13.951,1.9-27.606,11.42-38.528,34.336-11.645,24.408-19.581,66.716-16.229,108.532" transform="translate(147.592 198.193)"/><path class="e" d="M149.676-94.13C147-62.467,143.362-31.445,138.794-1.378c-2.022,13.331-4.266,26.707-7.724,37.77-8.816,28.17-23.2,35.381-36.1,36.366a59.227,59.227,0,0,1-9.206,0,64.7,64.7,0,0,1-26.27-8.584C47.966,57.56,36.589,47.319,24.231,44.9S-2.045,50.5-10.137,72.534c-7.073,8.45-13.31,16.242-18.718,27.6-3.881,7.844-7.106,17.781-9.468,29.171a167.106,167.106,0,0,0-2.573,17.75c-2.345,25.573.668,55.012,3.659,82.257q.446,4.031.88,8.106c4.505,42.308,5.82,85.094,1.894,125.252-2.127,21.557-6.176,44.234-13.695,56.565-10.7,17.556-23.318,15.033-34.529,16.929-.885.149-1.765.343-2.651.552-13.366,3.269-26.214,13.943-36.344,37.053-10.8,24.587-17.927,65.821-14.357,106.158" transform="translate(146.648 195.615)"/><path class="e" d="M147.162-99.36c-2.588,30.8-6.154,60.943-10.659,90.109-1.994,12.928-4.216,25.871-7.557,36.665-8.532,27.528-22.288,35.441-34.729,37.471a51.735,51.735,0,0,1-8.911.717A58.921,58.921,0,0,1,59.843,59.5C48.638,54.137,37.566,45.194,25.526,43.4S.086,49.121-8,69.558c-7.6,7.972-14.43,14.929-20.478,25.827-4.336,7.5-8.016,17.428-10.787,29.1a157.783,157.783,0,0,0-3.052,18.332c-2.89,26.618.1,57.7,3.03,86.407q.434,4.255.858,8.539c4.377,44.637,5.2,89.572.557,131.462C-40.2,389.912-44.2,411.738-51.44,423.875c-10.37,17.287-22.5,16-33.22,19.064-.847.239-1.671.508-2.534.821-12.742,4.628-24.822,16.421-34.161,39.77-9.952,24.8-16.273,64.94-12.481,103.8" transform="translate(145.754 193.037)"/><path class="e" d="M144.633-104.59c-2.5,29.931-6,59.2-10.442,87.467-1.966,12.54-4.155,25.065-7.385,35.575-8.248,26.872-21.374,35.56-33.359,38.635a53.2,53.2,0,0,1-8.565,1.493,54.651,54.651,0,0,1-24.655-3.643C49.35,50.713,38.545,43.084,26.85,41.845S2.179,47.817-5.9,66.567c-8.12,7.464-15.549,13.66-22.243,24.125-4.561,7.136-8.905,16.675-12.063,29.036a151.183,151.183,0,0,0-3.536,18.915c-3.436,27.663-.468,60.4,2.395,90.572.284,2.986.557,5.972.841,8.957,4.255,46.951,4.617,94.155-.819,137.642-2.473,19.8-6.455,40.785-13.455,52.713C-64.8,445.517-76.419,445.472-86.65,449.712c-.808.328-1.615.687-2.417,1.09-12.141,5.971-23.43,18.989-31.973,42.487-9.111,25.006-14.625,64.059-10.581,101.515" transform="translate(144.875 190.46)"/><path class="e" d="M142.028-109.82C139.607-80.755,136.182-52.357,131.8-25,129.859-12.858,127.7-.766,124.585,9.49,116.621,35.615,104.124,45.11,92.6,49.23a51.314,51.314,0,0,1-8.254,2.254,51.835,51.835,0,0,1-23.836-1.209c-10.581-2.986-21.085-9.3-32.407-9.987S4.263,46.364-3.835,63.591c-8.643,7-16.674,12.361-24,22.393-5.012,6.852-9.83,16.422-13.366,28.962a145.823,145.823,0,0,0-4.021,19.5c-3.976,28.738-1.041,63.119,1.754,94.752q.418,4.7.813,9.42c4.132,49.265,4.088,98.753-2.172,143.838-2.623,18.87-6.566,38.994-13.366,50.758-9.651,16.72-20.812,17.914-30.552,23.3-.763.433-1.532.881-2.295,1.373-11.534,7.36-22.037,21.512-29.79,45.2-8.265,25.215-12.971,63.178-8.738,99.082" transform="translate(144.072 187.882)"/><path class="e" d="M139.423-115c-2.337,28.178-5.694,55.678-10.024,82.108-1.9,11.734-4.032,23.393-7.045,33.381-7.674,25.379-19.542,35.694-30.63,40.845a50.35,50.35,0,0,1-7.93,2.986,50.084,50.084,0,0,1-23.04,1.329C50.522,43.841,40.275,38.855,29.3,38.721S6.281,44.946-1.784,60.591C-10.945,67.13-19.577,71.608-27.547,81.3-33,87.881-38.278,97.316-42.221,110.2a141.13,141.13,0,0,0-4.5,20.079c-4.528,29.768-1.6,65.791,1.114,98.888q.407,4.9.791,9.853c4,51.579,3.6,103.411-3.531,150.018-2.757,17.989-6.683,37.232-13.227,48.757-9.3,16.422-19.971,18.87-29.221,25.379-.73.523-1.454,1.06-2.178,1.642-10.932,8.718-20.645,24.05-27.606,47.921-7.418,25.379-11.317,62.3-6.861,96.723" transform="translate(143.262 185.329)"/><path class="e" d="M136.773-120.28c-2.244,27.335-5.521,53.985-9.779,79.54-1.882,11.316-3.976,22.572-6.878,32.276-7.39,24.722-18.629,35.829-29.233,41.965a62.356,62.356,0,0,1-7.619,3.792A49.92,49.92,0,0,1,61.038,41.1c-9.913-.612-19.871-4.3-30.5-3.867S9.061,47.683.223,57.7c-9.156,10.45-18.935,9.763-27.528,19C-33.2,83-38.945,92.379-43.278,105.531a136.7,136.7,0,0,0-5.012,20.661c-5.074,30.813-2.161,68.478.507,103.008q.39,5.135.769,10.3c3.9,53.908,3.169,108.143-4.89,156.2-2.851,17.123-6.811,35.441-13.088,46.771-8.955,16.153-19.136,19.885-27.9,27.544-.691.6-1.376,1.239-2.061,1.911-10.325,10.092-19.253,26.573-25.423,50.638-6.572,25.618-9.668,61.417-5.012,94.364" transform="translate(142.504 182.727)"/><path class="e" d="M134.068-125.5c-2.162,26.464-5.367,52.236-9.562,76.883-1.855,10.928-3.9,21.751-6.683,31.186C110.716,6.6,100.107,18.4,89.977,25.638a65.4,65.4,0,0,1-7.3,4.568,51.568,51.568,0,0,1-21.464,6.27c-9.585.582-19.264-1.791-29.55-.806S10.855,45.9,2.151,54.7C-7.6,64.587-17.9,63.184-27.138,72.021c-6.315,5.957-12.553,15.287-17.259,28.648a134.021,134.021,0,0,0-5.463,21.243c-5.625,31.9-2.734,71.225-.128,107.248q.384,5.33.746,10.734c3.748,56.221,2.785,112.965-6.249,162.394-2.98,16.317-6.967,33.694-13,44.786-8.6,15.914-18.295,20.84-26.565,29.693-.652.7-1.3,1.493-1.944,2.194-9.724,11.45-17.86,29.1-23.235,53.355-5.731,25.827-8.02,60.536-3.119,92.005" transform="translate(141.801 180.154)"/><path class="e" d="M131.285-130.73c-2.076,25.6-5.21,50.5-9.345,74.24a286.359,286.359,0,0,1-6.533,30.1C108.585-3.075,98.605,9.435,88.92,17.78a70.1,70.1,0,0,1-6.984,5.33,55.626,55.626,0,0,1-20.606,8.778c-9.262,1.762-18.651.7-28.592,2.254s-20.149,10-28.692,17.6c-10.359,9.121-21.174,7.106-31.065,15.526-6.767,5.748-13.45,15.078-18.568,28.693a131.031,131.031,0,0,0-5.948,21.826c-6.171,32.843-3.3,73.867-.763,111.368q.379,5.553.73,11.152c3.626,58.505,2.478,117.922-7.607,168.589-3.08,15.511-7.1,31.933-12.882,42.86-8.254,15.6-17.459,21.721-25.24,31.783-.613.791-1.225,1.612-1.827,2.463-9.122,12.824-16.474,31.619-21.051,56.072-4.884,26.036-6.366,59.715-1.242,89.647" transform="translate(141.175 177.576)"/><path class="e" d="M128.411-136c-1.99,24.756-5.051,48.8-9.122,71.658a290.176,290.176,0,0,1-6.338,28.917C106.413-12.794,97.062.538,87.834,9.868a82.4,82.4,0,0,1-6.683,6.106,62.428,62.428,0,0,1-19.8,11.241C52.437,30.2,43.3,30.425,33.7,32.53S14.21,42.278,5.823,48.713c-10.938,8.375-22.3,5.9-32.825,13.839-7.2,5.524-14.352,14.735-19.882,28.678a128.894,128.894,0,0,0-6.432,22.393c-6.7,34.022-3.848,76.569-1.364,115.533q.368,5.777.707,11.6c3.5,60.864,2.228,122.983-8.961,174.77-3.18,14.75-7.24,30.171-12.776,40.9-7.931,15.317-16.635,22.632-23.92,33.888-.557.9-1.147,1.806-1.71,2.732-8.515,14.2-15.081,34.157-18.868,58.8-4.038,26.245-4.712,58.774.629,87.288" transform="translate(140.641 174.979)"/><path class="e" d="M125.419-141.19a689.648,689.648,0,0,1-8.911,68.881c-1.715,9.825-3.791,19.167-6.2,27.887-6.237,21.93-14.959,36.038-23.725,46.4q-3.133,3.717-6.349,6.882a71.781,71.781,0,0,1-19,13.719C52.619,26.728,43.8,28.3,34.547,30.953S15.762,40.388,7.475,45.7C-4.081,53.166-15.916,50.3-27.1,57.884c-7.641,5.2-15.26,14.361-21.163,28.573a127.311,127.311,0,0,0-6.917,22.99c-7.24,34.993-4.455,79.256-2.022,119.683q.362,5.971.679,12.032c3.375,63.178,2,128.208-10.314,180.966-3.275,14-7.368,28.364-12.659,38.919-7.557,15.048-15.789,23.662-22.583,36.023-.557.97-1.069,1.986-1.593,2.986-7.855,15.248-13.7,36.8-16.68,61.536-3.2,26.424-3.063,57.878,2.5,84.914" transform="translate(140.219 172.421)"/><path class="e" d="M122.308-146.42A627.644,627.644,0,0,1,113.626-80.2c-1.7,9.434-3.714,18.429-6.026,26.872C101.635-32.081,93.543-17.212,85.234-5.807,83.257-3.075,81.241-.537,79.2,1.837a85.12,85.12,0,0,1-18.189,16.2c-8.293,5.344-16.83,8.211-25.741,11.435S17.2,38.546,9.02,42.8c-12.158,6.33-24.538,3.314-36.339,10.45C-35.4,58.133-43.486,67.239-49.779,81.72a125.906,125.906,0,0,0-7.4,23.557c-7.8,36.038-5.012,81.944-2.651,123.833q.343,6.2.657,12.48c3.247,65.492,1.86,133.612-11.7,187.146-3.342,13.3-7.5,26.618-12.547,36.963-7.184,14.764-14.925,24.6-21.224,38.143q-.741,1.582-1.47,3.269c-7.24,16.749-12.31,39.226-14.48,64.193-2.35,26.633-1.409,57,4.372,82.556" transform="translate(139.922 169.843)"/><path class="e" d="M118.972-151.65a572.586,572.586,0,0,1-8.46,63.581c-1.691,8.979-3.65,17.576-5.859,25.707C98.973-41.835,91.51-26.189,83.663-13.739c-1.871,2.986-3.781,5.777-5.714,8.4A102.52,102.52,0,0,1,60.562,13.357c-7.964,6.524-16.223,10.7-24.783,14.481S18.426,36.526,10.334,39.78c-12.748,5.106-25.657,1.986-38.1,8.748-8.515,4.628-17.07,13.69-23.758,28.364a124.968,124.968,0,0,0-7.88,24.214c-8.354,37.083-5.569,84.646-3.286,128,.228,4.27.44,8.584.64,12.913,3.119,67.806,1.777,139.2-13.032,193.326a217.844,217.844,0,0,1-12.43,35.008c-6.856,14.481-14.112,25.573-19.932,40.308-.457,1.164-.908,2.344-1.353,3.553-6.646,18.265-10.958,41.715-12.313,66.97-1.5,26.872.245,56.117,6.249,80.2" transform="translate(139.85 167.265)"/><path class="e" d="M115.437-156.88a519.8,519.8,0,0,1-8.242,60.939c-1.675,8.553-3.575,16.775-5.686,24.6a228.429,228.429,0,0,1-19.62,49.727q-2.64,4.837-5.4,9.181A124.362,124.362,0,0,1,59.918,8.739,95.492,95.492,0,0,1,36.082,26.28c-8.17,4.3-16.6,8.27-24.632,10.45-13.321,3.687-26.777.717-39.864,7.076C-37.37,48.15-46.386,57.152-53.476,72.171a124.7,124.7,0,0,0-8.337,24.782c-8.911,38.113-6.126,87.318-3.9,132.134q.326,6.718.618,13.436c2.991,70.165,1.749,144.987-14.391,199.522A248.607,248.607,0,0,1-91.8,475.066c-6.5,14.2-13.271,26.528-18.6,42.383-.418,1.254-.83,2.523-1.236,3.822-6.043,19.744-9.6,44.1-10.169,69.6-.657,27.051,1.9,55.236,8.125,77.838" transform="translate(139.976 164.688)"/><path class="e" d="M111.647-162.11C107.27-103.978,93.074-52.877,74.813-19.526S34.4,30.336,12.316,33.8c-13.878,2.165-27.9-.582-41.624,5.359s-27.651,22.393-35.2,53.624c-9.468,39.158-6.683,90.02-4.544,136.3,3.536,76.136,3.486,161.23-15.154,219.452-9.284,28.991-22.416,48.384-30.6,79.659-11.339,43.368-10.459,106.89,2.049,147.884" transform="translate(140.352 162.11)"/></g><g transform="translate(50.089 439.441)"><path class="e" d="M89.94,572.736q12.995-48.192,28.069-91.961c4.455-12.943,9.172-25.827,15.081-33.545,15.109-19.691,33.176-.567,47.4,23.363,13.121,22.071,25.217,48.246,36.033,77.973,10.7,29.439,20.311,62.7,33.281,84.616s30.77,30.051,43.3,6.36c7.457-14.093,11.946-37.486,13.644-61.506s.863-48.832-.59-72.972c-1.671-27.648-4.1-56.475-.852-83.078,3.375-27.543,13.127-48.638,23.881-51.653,15.3-4.3,28.748,24.259,41.646,46.742,16.379,28.574,35.414,49.847,54.923,46.831s39.229-34.993,45.082-84.974" transform="translate(-89.94 -257.129)"/><path class="e" d="M93.57,582.726q12.751-47.4,27.679-90.155c4.411-12.629,9.072-25.184,14.881-32.768,11.667-15.227,25.1-7.464,37.141,7.464a137.879,137.879,0,0,1,9.468,13.54c12.97,20.867,24.967,45.8,35.737,74.27,10.665,28.17,20.222,60.327,33.053,81.391,7.2,11.838,15.722,19.945,24.12,21.408,7.312,1.254,14.569-2.643,20.634-13.764a66.769,66.769,0,0,0,3.08-6.509c5.953-14.5,9.568-35.336,11.138-56.729.5-6.783.836-13.644,1.008-20.542.445-18.108-.078-36.426-.852-54.34-1.22-28.364-2.846-57.49.824-84.034s12.987-46.876,23.485-49.951c14.942-4.4,28.119,22.512,40.727,43.413,1,1.657,2,3.269,3.013,4.867,15.3,23.99,32.624,40.651,50.223,36.829,18.763-4.076,37.575-35.829,43.011-84.75" transform="translate(-91.548 -256.326)"/><path class="e" d="M97.2,595.066c8.343-31.059,17.461-60.571,27.289-88.333,4.366-12.331,8.977-24.543,14.68-32.007,11.461-14.929,24.621-8,36.473,5.971a128.474,128.474,0,0,1,9.345,12.69c12.815,19.668,24.709,43.363,35.431,70.583,10.615,26.872,20.144,57.968,32.858,78.3,7.468,11.943,16.217,20.422,24.872,22.244,7.518,1.493,15.037-2.1,21.336-13.3a62.938,62.938,0,0,0,3.2-6.614c6.2-14.764,9.908-36.232,11.612-58.222.534-7.033.906-14.148,1.114-21.3.557-18.6.256-37.441-.245-55.788-.769-29.171-1.587-58.476,2.5-85,3.9-25.185,12.859-45.1,23.1-48.249,14.575-4.479,27.484,20.751,39.808,40.084q1.453,2.239,2.941,4.479c14.942,22.109,31.705,36.874,48.6,32.052,18.011-5.121,35.921-36.784,40.939-84.5" transform="translate(-93.157 -257.991)"/><path class="e" d="M100.82,607.687c8.189-30.545,17.182-59.481,26.91-86.586,4.311-12.018,8.872-23.886,14.48-31.231,11.244-14.735,24.137-8.509,35.8,4.479a121.227,121.227,0,0,1,9.234,12c12.663,18.455,24.456,40.9,35.13,66.866,10.581,25.707,20.077,55.579,32.619,75.166,7.747,12.092,16.708,20.9,25.618,23.08,7.73,1.866,15.521-1.582,22.037-12.854a61.331,61.331,0,0,0,3.342-6.7c6.449-15.048,10.242-37.157,12.068-59.834q.858-10.845,1.247-21.9c.691-19.109.585-38.471.356-57.252-.323-29.932-.351-59.416,4.177-85.959,4.093-24.02,12.731-43.293,22.717-46.562,14.213-4.613,26.849,19,38.884,36.754q1.426,2.1,2.874,4.12c14.586,20.228,30.786,33.112,46.976,27.29,17.264-6.2,34.273-37.695,38.878-84.272" transform="translate(-94.761 -259.894)"/><path class="e" d="M104.45,620.343c8.029-29.985,16.895-58.3,26.52-84.691,4.266-11.719,8.777-23.259,14.279-30.469,11.038-14.481,23.663-8.957,35.13,3.06a108.565,108.565,0,0,1,9.094,11.032c12.508,17.25,24.2,38.455,34.824,63.163,10.526,24.453,20.01,53.161,32.4,72,8.025,12.212,17.214,21.378,26.376,23.886,7.931,2.18,15.995-1.03,22.739-12.391a62.051,62.051,0,0,0,3.447-6.792c6.683-15.332,10.581-38.083,12.525-61.432q.913-11.134,1.376-22.483c.813-19.6.913-39.5.964-58.729.122-30.678.869-60.327,5.848-86.915,4.283-22.841,12.6-41.561,22.327-44.861,13.851-4.7,26.214,17.258,37.971,33.425.924,1.284,1.86,2.523,2.785,3.747,14.224,18.347,29.868,29.335,45.355,22.512,16.507-7.255,32.624-38.576,36.807-84.019" transform="translate(-96.369 -261.816)"/><path class="e" d="M108.08,632.985c7.871-29.454,16.609-57.171,26.131-82.884,4.216-11.405,8.671-22.6,14.073-29.693,10.832-14.227,23.184-9.524,34.462,1.568a97.492,97.492,0,0,1,8.966,10.211c12.357,16.031,23.95,35.99,34.529,59.446,10.481,23.229,19.954,50.757,32.179,68.866,8.3,12.316,17.7,21.841,27.127,24.752,8.137,2.478,16.468-.508,23.435-11.943a62.24,62.24,0,0,0,3.575-6.882c6.945-15.6,10.916-38.994,12.982-63.014q.973-11.435,1.5-23.095c.941-20.094,1.231-40.516,1.57-60.177.557-31.455,2.072-61.208,7.53-87.87,4.455-21.691,12.464-39.8,21.937-43.174,13.483-4.807,25.579,15.511,37.046,30.1.908,1.149,1.816,2.284,2.734,3.374,13.862,16.422,28.96,25.573,43.729,17.75,15.761-8.33,30.976-39.486,34.741-83.795" transform="translate(-97.978 -263.723)"/><path class="e" d="M111.71,645.635c7.712-28.927,16.325-56.05,25.746-81.078,4.171-11.092,8.576-21.96,13.873-28.932,10.62-13.973,22.706-10.017,33.794.1a94.931,94.931,0,0,1,8.838,9.36c12.2,14.83,23.7,33.551,34.228,55.759,10.431,21.975,19.893,48.264,31.956,65.686,8.588,12.421,18.2,22.393,27.879,25.588,8.354,2.792,16.941,0,24.131-11.48a59.512,59.512,0,0,0,3.7-6.972c7.2-15.884,11.255-39.919,13.444-64.6.7-7.867,1.22-15.81,1.626-23.692,1.064-20.6,1.554-41.547,2.178-61.656.991-32.2,3.252-62.118,9.2-88.826,4.589-20.512,12.33-38.009,21.547-41.412,13.126-4.912,24.95,13.764,36.133,26.782.88,1.015,1.771,2.015,2.662,2.986,13.505,14.57,28.03,21.8,42.109,12.973,15.009-9.375,29.322-40.307,32.674-83.6" transform="translate(-99.586 -265.641)"/><path class="e" d="M115.34,658.266A791.757,791.757,0,0,1,140.7,579.025c4.121-10.793,8.476-21.318,13.672-28.17,10.414-13.72,22.232-10.54,33.125-1.388a83.622,83.622,0,0,1,8.716,8.539c12.047,13.625,23.437,31.1,33.922,52.041,10.387,20.736,19.843,45.8,31.744,62.566,8.877,12.51,18.7,22.781,28.637,26.424,8.543,3.09,17.415.552,24.833-11.032a58.572,58.572,0,0,0,3.82-7.076c7.446-16.153,11.589-40.815,13.923-66.179.73-8.062,1.292-16.213,1.743-24.289,1.192-21.094,1.888-42.562,2.785-63.1,1.437-32.977,4.416-63.029,10.877-89.8,4.689-19.407,12.2-36.247,21.163-39.77,12.759-5.016,24.309,11.943,35.214,23.453q1.287,1.344,2.59,2.612c13.143,12.689,27.111,18.034,40.488,8.211,14.257-10.45,27.668-41.278,30.63-83.317" transform="translate(-101.194 -267.553)"/><path class="e" d="M119,670.913a730.568,730.568,0,0,1,24.978-77.435c4.071-10.45,8.354-20.676,13.466-27.394,10.208-13.436,21.72-10.987,32.452-2.866a76.834,76.834,0,0,1,8.593,7.7c11.9,12.406,23.185,28.638,33.621,48.339,10.342,19.5,19.8,43.293,31.516,59.4,9.161,12.6,19.2,23.259,29.383,27.26,8.755,3.4,17.894,1.09,25.535-10.584a55.821,55.821,0,0,0,3.949-7.151c7.691-16.422,11.929-41.8,14.363-67.761.769-8.27,1.37-16.631,1.871-24.886,1.314-21.6,2.228-43.577,3.386-64.582,1.888-33.724,5.569-63.925,12.553-90.737,4.778-18.317,12.068-34.485,20.779-38.083,12.4-5.121,23.675,10.271,34.289,20.124.835.776,1.671,1.493,2.523,2.239,12.809,10.793,26.175,14.257,38.862,3.434,13.511-11.51,26.019-42.159,28.536-83.063" transform="translate(-102.816 -269.465)"/><path class="e" d="M122.59,683.549a674.953,674.953,0,0,1,24.588-75.614c4.043-10.166,8.276-20.034,13.266-26.588,10-13.212,21.269-11.5,31.783-4.359a69.758,69.758,0,0,1,8.471,6.882c11.74,11.2,22.928,26.185,33.315,44.637,10.3,18.243,19.759,40.785,31.293,56.251,9.468,12.66,19.7,23.737,30.14,28.1,8.961,3.7,18.378,1.627,26.236-10.137a56.856,56.856,0,0,0,4.071-7.24c7.942-16.72,12.252-42.666,14.82-69.344.808-8.479,1.448-17.034,2-25.483,1.437-22.109,2.545-44.607,3.993-66.044,2.328-34.5,6.683-64.85,14.229-91.707,4.845-17.243,11.935-32.709,20.383-36.381,12.035-5.225,23.045,8.524,33.376,16.795.813.642,1.632,1.269,2.45,1.866,12.425,8.957,25.273,10.45,37.241-1.329,12.759-12.57,24.371-43.069,26.47-82.839" transform="translate(-104.407 -271.368)"/><path class="e" d="M126.22,696.244a620.623,620.623,0,0,1,24.2-73.807c3.971-9.868,8.17-19.407,13.06-25.857,9.791-12.973,20.79-11.943,31.115-5.837a70.429,70.429,0,0,1,8.354,5.971c11.588,9.987,22.676,23.734,33.02,40.935,10.247,17,19.715,38.277,31.07,53.1,9.746,12.734,20.188,24.214,30.892,28.932,9.167,4.016,18.841,2.165,26.933-9.674a55.963,55.963,0,0,0,4.194-7.33c8.192-16.989,12.6-43.577,15.282-70.941.847-8.674,1.526-17.437,2.122-26.08,1.565-22.587,2.879-45.622,4.6-67.507,2.785-35.262,7.8-65.806,15.906-92.648,4.9-16.2,11.807-30.947,20-34.694,11.7-5.33,22.4,6.778,32.452,13.436.8.523,1.587,1.015,2.389,1.493,12.057,7.031,24.348,6.718,35.615-6.106,12-13.63,22.717-43.95,24.4-82.6" transform="translate(-106.015 -273.329)"/><path class="e" d="M129.85,708.846a572.653,572.653,0,0,1,23.814-71.971c3.9-9.569,8.075-18.75,12.859-25.1,9.585-12.719,20.316-12.51,30.447-7.315a62.646,62.646,0,0,1,8.215,5.2c11.433,8.779,22.421,21.283,32.719,37.232,10.2,15.764,19.676,35.724,30.853,49.951,10.025,12.779,20.684,24.677,31.644,29.768,9.367,4.314,19.314,2.687,27.629-9.226a55.875,55.875,0,0,0,4.322-7.464c8.437-17.243,12.937-44.458,15.738-72.479.885-8.957,1.6-17.914,2.228-26.678,1.671-23.095,3.208-46.652,5.207-68.971,3.225-36.023,8.849-66.806,17.576-93.618,4.94-15.168,11.7-29.171,19.609-32.977,11.311-5.434,21.775,5.016,31.538,10.122q1.153.6,2.317,1.12c11.7,5.15,23.43,2.986,33.972-10.868,11.255-14.7,21.068-44.861,22.332-82.361" transform="translate(-107.623 -275.212)"/><path class="e" d="M133.48,721.452A527.716,527.716,0,0,1,156.9,651.287c3.9-9.256,7.975-18.094,12.664-24.334,9.367-12.451,19.832-13,29.773-8.793a52.672,52.672,0,0,1,8.092,4.374c11.277,7.555,22.164,18.811,32.413,33.515,10.158,14.526,19.642,33.186,30.63,46.8,10.342,12.809,21.163,25.155,32.4,30.6,9.579,4.628,19.793,3.224,28.336-8.763a53.482,53.482,0,0,0,4.455-7.464c8.688-17.541,13.277-45.4,16.2-74.106.919-9.077,1.671-18.243,2.378-27.275,1.81-23.587,3.553-47.652,5.809-70.419,3.7-36.769,9.908-67.866,19.253-94.588,4.968-14.182,11.545-27.409,19.225-31.276,10.949-5.539,21.163,3.254,30.63,6.793.752.269,1.5.522,2.228.746,11.339,3.254,22.505-.821,32.368-15.645,10.5-15.765,19.414-45.741,20.266-82.108" transform="translate(-109.232 -277.115)"/><path class="e" d="M137.11,734.142A484.6,484.6,0,0,1,160.15,665.8c3.832-8.957,7.875-17.467,12.458-23.572,9.161-12.212,19.358-13.436,29.1-10.271a46.683,46.683,0,0,1,7.964,3.538c11.124,6.352,21.91,16.381,32.112,29.857C251.9,678.623,261.4,695.955,272.2,709c10.637,12.824,21.681,25.618,33.148,31.44,9.785,4.926,20.266,3.747,29.032-8.315a53.845,53.845,0,0,0,4.572-7.614c8.911-17.825,13.611-46.279,16.652-75.688.958-9.286,1.76-18.661,2.5-27.872,1.938-24.095,3.9-48.682,6.416-71.9,4.149-37.531,10.938-68.985,20.929-95.544,5.012-13.227,11.411-25.647,18.841-29.589,10.581-5.643,20.506,1.493,29.695,3.464.724.149,1.448.269,2.177.373,10.982,1.374,21.586-4.583,30.742-20.408,9.757-16.884,17.766-46.742,18.217-81.914" transform="translate(-110.84 -279.042)"/><path class="e" d="M140.73,746.784a446.768,446.768,0,0,1,22.655-66.537c3.781-8.629,7.8-16.81,12.252-22.8,8.955-11.943,18.879-14.018,28.436-11.764a39.922,39.922,0,0,1,7.841,2.7c10.967,5.145,21.653,13.926,31.811,26.14,10.069,12.047,19.581,28.036,30.2,40.5,10.938,12.839,22.176,26.1,33.9,32.276,9.986,5.24,20.74,4.284,29.734-7.852a53.786,53.786,0,0,0,4.689-7.7c9.184-18.109,13.951-47.249,17.114-77.271,1-9.495,1.838-19.079,2.629-28.484,2.061-24.587,4.216-49.7,7.023-73.344,4.595-38.292,11.946-70.165,22.605-96.5,4.984-12.3,11.278-23.886,18.445-27.887,10.225-5.748,19.871-.239,28.781.134h2.105c10.62-.508,20.667-8.36,29.121-25.185,9.005-17.914,16.117-47.533,16.151-81.645" transform="translate(-112.444 -280.949)"/><path class="e" d="M144.36,759.454c6.3-24.158,13.8-45.921,22.277-64.7a120.182,120.182,0,0,1,12.052-22.034c8.744-11.7,18.378-14.541,27.768-13.242a41.323,41.323,0,0,1,7.713,1.866c10.811,3.914,21.4,11.437,31.51,22.393,10.024,10.794,19.548,25.379,29.968,37.322,11.244,12.839,22.672,26.588,34.657,33.127,10.192,5.524,21.213,4.822,30.43-7.464a53.451,53.451,0,0,0,4.817-7.793c9.434-18.392,14.285-48.16,17.571-78.868,1.036-9.689,1.916-19.407,2.751-29.066,2.183-25.1,4.544-50.757,7.63-74.823,5.04-39.038,12.932-71.479,24.282-97.439,5.012-11.42,11.138-22.109,18.061-26.2,9.857-5.852,19.236-1.985,27.846-3.195.679-.09,1.359-.224,2.038-.373,10.258-2.389,19.748-12.122,27.5-29.947,8.254-18.959,14.48-48.444,14.062-81.406" transform="translate(-114.053 -282.901)"/><path class="e" d="M148,772.076c6.148-23.631,13.515-44.807,21.881-62.895a121.256,121.256,0,0,1,11.851-21.258c8.538-11.45,17.927-15.048,27.1-14.735a40.711,40.711,0,0,1,7.585,1.045c10.647,2.7,21.125,8.98,31.187,18.691,9.974,9.555,19.52,22.856,29.75,34.2,11.55,12.809,23.168,27.051,35.4,33.948,10.4,5.837,21.692,5.36,31.132-6.942a53.435,53.435,0,0,0,4.945-7.882c9.679-18.616,14.641-49.085,18.033-80.451,1.075-9.9,2-19.885,2.879-29.663,2.306-25.588,4.873-51.743,8.237-76.286,5.486-39.815,13.9-72.882,25.952-98.41,5.012-10.555,11.016-20.333,17.671-24.5,9.5-5.971,18.607-3.732,26.944-6.524.657-.224,1.314-.478,1.966-.746,9.9-4.285,18.829-15.9,25.874-34.724,7.507-20,12.809-49.265,12-81.167" transform="translate(-115.665 -284.789)"/><path class="e" d="M151.62,784.821c5.988-23.16,13.234-43.791,21.5-61.208a123.12,123.12,0,0,1,11.645-20.482c8.354-11.211,17.448-15.571,26.431-16.213a37.36,37.36,0,0,1,7.463.209c10.5,1.457,20.879,6.473,30.9,14.929,9.93,8.315,19.492,20.243,29.517,31.037,11.862,12.764,23.669,27.528,36.161,34.8,10.609,6.136,22.165,5.882,31.833-6.494a53.046,53.046,0,0,0,5.068-7.987c9.93-18.93,14.959-49.981,18.484-82.033,1.114-10.092,2.077-20.288,3.007-30.26,2.428-26.08,5.2-52.758,8.838-77.749,5.937-40.561,14.842-74.4,27.629-99.35,5.012-9.733,10.888-18.571,17.264-22.811,9.133-6.061,17.966-5.479,26.019-9.853.635-.343,1.27-.717,1.9-1.12,9.441-5.939,17.935-19.766,24.254-39.486,6.75-21.079,11.138-50.235,9.924-80.928" transform="translate(-117.269 -286.74)"/><path class="e" d="M155.25,797.353c5.838-22.585,12.96-42.579,21.107-59.252A125.911,125.911,0,0,1,187.8,718.365c8.12-10.943,16.975-16.108,25.763-17.676a38.26,38.26,0,0,1,7.335-.642c10.338.27,20.622,4.068,30.6,11.3,9.885,7.061,19.492,17.616,29.311,27.887,12.169,12.7,24.165,28.051,36.918,35.62,10.81,6.449,22.639,6.419,32.53-6.046a51.782,51.782,0,0,0,5.19-8.061c10.18-19.213,15.3-50.907,18.935-83.6,1.147-10.3,2.155-20.691,3.13-30.858,2.556-26.588,5.536-53.743,9.468-79.212,6.382-41.322,15.772-76.062,29.311-100.321,5.16-9.483,10.869-16.615,16.9-21.109,8.771-6.15,17.331-7.225,25.1-13.182.613-.463,1.22-.97,1.827-1.493,9.1-7.944,17.028-23.446,22.628-44.264,6-22.139,9.512-51.116,7.858-80.689" transform="translate(-118.878 -288.613)"/><path class="e" d="M158.87,810.013c5.686-22.065,12.687-41.472,20.723-57.446a130.109,130.109,0,0,1,11.244-18.959c7.872-10.35,16.37-16.841,25.095-19.169a42.839,42.839,0,0,1,7.212-1.493c10.18-.946,20.363,1.6,30.3,7.584,9.835,5.822,19.436,14.929,29.088,24.737,12.481,12.615,24.66,28.469,37.664,36.456,11.016,6.763,23.112,6.957,33.231-5.583a52,52,0,0,0,5.313-8.151c10.425-19.5,15.633-51.832,19.4-85.2,1.186-10.45,2.228-21.109,3.258-31.47,2.679-27.081,5.864-54.8,10.025-80.615,6.828-42.1,16.707-77.853,30.981-101.291,5.144-8.467,10.7-15,16.507-19.407,8.409-6.255,16.708-8.957,24.181-16.511.59-.6,1.181-1.209,1.76-1.866,8.774-9.969,16.14-27.152,21.035-49.071a283.538,283.538,0,0,0,5.792-80.451" transform="translate(-120.482 -290.54)"/><path class="e" d="M162.5,822.605c5.529-21.544,12.406-40.363,20.327-55.624,10.448-20.573,22.631-33.906,35.465-38.815a41.894,41.894,0,0,1,7.084-2.3c10.021-2.172,20.1-.867,30,3.881,9.791,4.583,19.409,12.346,28.865,21.587,12.809,12.5,25.162,28.932,38.427,37.322,11.222,7.061,23.585,7.464,33.927-5.135a51.447,51.447,0,0,0,5.441-8.241c10.676-19.78,15.972-52.743,19.86-86.8,1.225-10.7,2.311-21.512,3.38-32.052,2.785-27.588,6.2-55.818,10.659-82.108,7.279-42.845,17.587-79.779,32.658-102.232a77.05,77.05,0,0,1,16.151-17.72c8.047-6.36,16.061-10.719,23.262-19.84.557-.717,1.114-1.493,1.671-2.239,8.413-11.988,15.2-30.8,19.381-53.743a302.914,302.914,0,0,0,3.72-80.212" transform="translate(-122.09 -292.398)"/><path class="e" d="M166.13,835.3c12.414-49.086,32.858-81.525,54.545-93.379s44.436-4.18,65.3,15.481c13.115,12.361,25.652,29.424,39.168,38.128s28.726,8.047,40.2-13C379.7,756.179,384.486,706.391,389.17,661.5c7.7-73.867,20.049-152.407,45.595-186.8,12.742-17.123,27.651-21.423,39.7-41.8,16.708-28.275,25.061-87.781,19.409-138.538" transform="translate(-123.698 -294.36)"/></g><g transform="translate(-147.154 -222.796)"><path class="e" d="M-264.23-26.326q16.023-41.127,33.794-76.9c5.257-10.57,10.76-20.9,17.092-25.692,16.184-12.122,32.669,15.481,45.032,45.891C-156.884-54.97-146.74-23.373-138.094,11.1c8.549,34.127,15.761,71.478,27.044,99.32s28.241,44.428,42.164,27.185C-60.6,127.35-54.617,106.51-51.332,83.7S-47.194,36.091-47,11.638c.223-27.991-.239-57.535,4.751-82.108,5.168-25.379,16.184-41.487,26.96-39.262,15.343,3.18,26.648,37.77,37.82,66.119C36.723-7.62,54.015,22.506,73.39,28.985s40.939-15.466,50.056-61.8" transform="translate(264.23 157.817)"/><path class="e" d="M-262-19.347q15.737-40.442,33.293-75.285c5.185-10.3,10.62-20.378,16.841-25.035,12.5-9.345,25.189,4.762,36.027,25.379q4.375,8.357,8.4,17.914C-156.072-49.6-145.939-19.3-137.25,13.9c8.577,32.873,15.816,69.12,27.022,96.1,6.282,15.138,14.118,27.23,22.277,32.724,7.106,4.777,14.508,4.479,21.224-3.553a39.166,39.166,0,0,0,3.464-4.926c6.833-11.376,11.779-30.126,14.786-50.354.95-6.484,1.743-13.126,2.372-19.885,1.671-17.586,2.372-35.829,2.812-53.848.713-28.529,1.075-57.923,6.466-82.257s15.933-39.83,26.465-37.784c14.992,2.9,26.142,35.739,37.141,62.4.863,2.09,1.743,4.18,2.634,6.225C42.851-10.256,58.784,14.5,76.333,19.243c18.729,5.076,39.374-17.138,48.006-62.551" transform="translate(263.242 162.364)"/><path class="e" d="M-259.69-12.348A789.505,789.505,0,0,1-226.9-86.036c5.118-10.017,10.476-19.81,16.591-24.379,12.28-9.2,24.755,4.031,35.464,23.543q4.338,7.927,8.354,17.019c11.283,25.55,21.388,54.618,30.1,86.586,8.616,31.589,15.9,66.716,27.016,92.9,6.56,15.347,14.58,27.887,22.967,33.858,7.29,5.18,14.937,5.2,21.881-2.777a37.1,37.1,0,0,0,3.592-4.941c7.1-11.54,12.18-30.873,15.338-51.7,1-6.655,1.848-13.471,2.534-20.408,1.816-18.019,2.785-36.71,3.514-55,1.2-29.051,2.372-58.222,8.176-82.391,5.514-22.9,15.683-38.143,25.969-36.307C9.24-107.4,20.217-76.317,31.054-51.341q1.286,2.986,2.6,5.822C46.86-16.528,62.353,6.089,79.317,9.523,97.378,13.18,117.126-9.3,125.274-53.8" transform="translate(262.218 166.904)"/><path class="e" d="M-257.41-3.369a725.979,725.979,0,0,1,32.3-72.091c5.051-9.733,10.336-19.213,16.34-23.722,12.057-9.047,24.321,3.314,34.908,21.781q4.287,7.486,8.27,16.123C-154.373-37-144.277-9.222-135.518,21.472c8.655,30.395,15.972,64.4,26.988,89.721,6.806,15.63,15.037,28.633,23.652,35.082,7.474,5.583,15.371,5.971,22.538-1.985a35.692,35.692,0,0,0,3.72-4.986c7.357-11.674,12.575-31.589,15.9-53.027q1.569-10.235,2.7-20.9c1.966-18.452,3.163-37.561,4.2-56.147,1.7-29.589,3.653-58.61,9.891-82.526,5.642-21.662,15.46-36.5,25.485-34.844,14.29,2.344,25.128,31.679,35.776,54.952q1.259,2.747,2.551,5.434C50.866-20.806,65.936-.294,82.254,1.811c17.393,2.239,36.25-20.512,43.907-64.1" transform="translate(261.208 169.436)"/><path class="e" d="M-255.14,6.723A667.38,667.38,0,0,1-223.357-63.77c4.984-9.465,10.191-18.631,16.089-23.065,11.834-8.957,23.886,2.568,34.351,19.99,2.863,4.747,5.608,9.928,8.2,15.257,11.144,23.007,21.219,49.516,30.007,78.958,8.7,29.141,16.089,61.969,27.022,86.482,7.067,15.9,15.488,29.35,24.332,36.277,7.652,5.971,15.8,6.718,23.2-1.194a34.7,34.7,0,0,0,3.848-5.016c7.624-11.838,12.971-32.335,16.457-54.355Q-38.206,79.044-36.99,68.1c2.122-18.885,3.553-38.411,4.9-57.3,2.183-30.126,4.912-58.923,11.6-82.66C-14.741-92.254-5.3-106.645,4.489-105.2c13.923,2.06,24.621,29.648,35.086,51.235.824,1.7,1.671,3.389,2.506,5.031C54.835-24,69.482-5.638,85.176-4.846c16.708.836,34.685-22.184,41.858-64.85" transform="translate(260.202 170.898)"/><path class="e" d="M-252.87,16.787a614.561,614.561,0,0,1,31.282-68.9c4.912-9.181,10.024-18.034,15.839-22.393,11.612-8.748,23.446,1.851,33.794,18.213,2.835,4.479,5.569,9.345,8.131,14.376,11.074,21.748,21.134,46.984,29.962,75.166,8.744,27.887,16.212,59.535,27.016,83.272,7.34,16.138,15.967,30.051,25.017,37.456,7.836,6.389,16.234,7.464,23.853-.418a34.061,34.061,0,0,0,3.982-5.031c7.88-11.943,13.366-33.082,17.008-55.7q1.72-10.784,3.03-21.99c2.278-19.318,3.932-39.262,5.569-58.446C-25.72-18.236-22.211-46.824-15.05-70.4c5.825-19.168,14.937-33.112,24.5-31.858,13.589,1.791,24.115,27.633,34.417,47.533q1.22,2.344,2.462,4.628C58.865-27.208,73.066-10.95,88.153-11.488c16.062-.567,33.12-23.886,39.808-65.686" transform="translate(259.197 172.359)"/><path class="e" d="M-250.6,26.844a565.737,565.737,0,0,1,30.781-67.284c4.845-8.957,9.913-17.452,15.594-21.751,11.389-8.614,23.012,1.1,33.237,16.422,2.785,4.165,5.5,8.748,8.064,13.436,11,20.5,21.046,44.494,29.906,71.449,8.783,26.648,16.323,57.087,26.994,80.018,7.63,16.422,16.423,30.813,25.718,38.71,8.02,6.763,16.663,8.211,24.5.358a33.7,33.7,0,0,0,4.1-5.076c8.148-12.137,13.756-33.813,17.571-57.028,1.214-7.464,2.228-14.929,3.186-22.527,2.434-19.736,4.327-40.1,6.293-59.58,3.141-31.2,7.374-59.536,15.037-82.929C-3.73-86.853,5.075-100.289,14.376-99.3,27.614-97.81,37.983-73.7,48.114-55.5c.8,1.493,1.6,2.851,2.417,4.225,12.3,20.87,26.114,34.993,40.544,33.067,15.393-1.971,31.555-25.528,37.759-66.388" transform="translate(258.191 173.827)"/><path class="e" d="M-248.33,36.927a519.877,519.877,0,0,1,30.28-65.686c4.778-8.629,9.768-16.884,15.338-21.094,11.172-8.465,22.577.373,32.674,14.645a148.419,148.419,0,0,1,8,12.615c10.936,19.211,20.963,41.9,29.862,67.582,8.822,25.379,16.44,54.639,27,76.868,7.892,16.6,16.858,31.455,26.387,39.845,8.2,7.166,17.1,8.957,25.173,1.149a32.622,32.622,0,0,0,4.233-5.106c8.409-12.286,14.146-34.56,18.128-58.371,1.264-7.584,2.361-15.332,3.341-23.05,2.6-20.169,4.756-40.949,6.984-60.73,3.631-31.738,8.582-59.849,16.741-83.048,5.926-16.84,14.446-29.768,23.5-28.9,12.887,1.239,23.1,23.572,33.059,40.083.78,1.3,1.576,2.583,2.372,3.822C66.824-33.611,80.2-21.594,94.018-24.788c14.725-3.389,30-27.215,35.71-67.179" transform="translate(257.185 175.284)"/><path class="e" d="M-246,48.921a478.693,478.693,0,0,1,29.745-64.089c4.712-8.345,9.629-16.287,15.092-20.437,10.943-8.315,22.126-.284,32.112,12.869,2.74,3.613,5.4,7.584,7.931,11.734,10.876,17.945,20.9,39.365,29.845,63.79,8.861,24.184,16.563,52.25,27,73.673,8.137,16.825,17.287,32.156,27.016,41.024,8.382,7.569,17.526,9.719,25.83,1.926a31.528,31.528,0,0,0,4.361-5.121C-38.387,151.84-32.522,129-28.379,104.575c1.32-7.763,2.467-15.69,3.52-23.572,2.746-20.6,5.112-41.8,7.674-61.879,4.149-32.276,9.791-60.192,18.456-83.108,5.931-15.7,14.19-28.1,23-27.409,12.558.881,22.616,21.438,32.4,36.366.774,1.164,1.548,2.3,2.333,3.419C70.841-34.8,83.8-24.916,96.989-29.439c14.062-4.792,28.431-28.887,33.66-67.911" transform="translate(256.153 174.815)"/><path class="e" d="M-243.78,62.432A439.963,439.963,0,0,1-214.508-.044c4.645-8.061,9.468-15.7,14.842-19.78,10.721-8.166,21.692-1.015,31.555,11.077a130.236,130.236,0,0,1,7.864,10.853c10.8,16.687,20.792,36.841,29.767,60.013,8.911,22.93,16.708,49.668,27,70.463,8.448,17.019,17.771,32.843,27.751,42.2,8.565,7.972,17.961,10.45,26.487,2.717a30.74,30.74,0,0,0,4.489-5.121c8.911-12.615,14.937-36.038,19.247-61.058,1.364-7.942,2.567-16.048,3.681-24.095,2.9-21.035,5.5-42.651,8.354-63.029C-8.861-8.643-2.54-36.366,6.694-59.117c5.926-14.615,13.923-26.409,22.5-25.931C41.384-84.361,51.28-65.536,60.887-52.4c.757,1.03,1.52,2.045,2.289,2.986C74.793-34.634,87.324-26.871,99.894-32.708c13.366-6.21,26.866-30.574,31.605-68.672" transform="translate(255.169 172.829)"/><path class="e" d="M-241.51,75.949c8.773-22.929,18.415-43.337,28.77-60.894,4.572-7.778,9.345-15.108,14.591-19.124,10.5-8.017,21.252-1.747,31,9.316a109.818,109.818,0,0,1,7.8,9.957c10.724,15.429,20.705,34.309,29.723,56.221,8.911,21.691,16.813,47.175,26.988,67.254,8.732,17.243,18.233,33.575,28.436,43.4,8.749,8.375,18.378,11.226,27.144,3.508a31.187,31.187,0,0,0,4.622-5.2c9.2-12.749,15.326-36.769,19.8-62.387,1.415-8.121,2.679-16.422,3.843-24.617,3.057-21.467,5.9-43.487,9.067-64.193C-4.625-4.144,2.347-31.777,12.144-54.259,18.058-67.815,25.838-79,34.153-78.7c11.84.4,21.586,17.481,31.015,28.917.746.9,1.493,1.777,2.228,2.627C78.79-34.4,90.892-28.776,102.838-35.942c12.726-7.6,25.3-32.246,29.556-69.448" transform="translate(254.163 170.852)"/><path class="e" d="M-239.24,89.415c8.583-22.482,18.063-42.362,28.269-59.282,4.505-7.464,9.2-14.526,14.341-18.467,10.275-7.882,20.818-2.478,30.436,7.464a102.908,102.908,0,0,1,7.73,9.092c10.659,14.184,20.626,31.828,29.678,52.534,8.972,20.393,16.953,44.607,26.983,64,9.022,17.422,18.69,34.336,29.121,44.577,8.911,8.778,18.824,11.943,27.8,4.285a30.8,30.8,0,0,0,4.751-5.21c9.468-12.913,15.722-37.516,20.355-63.731,1.47-8.3,2.785-16.765,4.01-25.14C-12.552,77.622-9.473,55.2-6,34.209-.406.336,7.2-27.222,17.583-49.391c5.881-12.54,13.45-23.05,21.508-22.96,11.495.119,21.085,15.466,30.341,25.2.73.776,1.465,1.493,2.2,2.224C82.792-34.194,94.487-30.671,105.8-39.165,117.861-48.122,129.54-73.1,133.3-109.33" transform="translate(253.157 168.91)"/><path class="e" d="M-237,102.937c8.4-22.053,17.72-41.411,27.785-57.684,4.455-7.225,9.061-13.958,14.09-17.825,10.058-7.718,20.383-3.195,29.879,5.748a95.182,95.182,0,0,1,7.663,8.211C-147,54.269-137.047,70.6-127.956,90.023c9.022,19.2,17.086,42.129,26.983,60.849,9.328,17.6,19.141,34.978,29.806,45.756,9.106,9.181,19.247,12.734,28.453,5.076a30.134,30.134,0,0,0,4.879-5.24c9.729-13.063,16.112-38.247,20.918-65.059,1.515-8.494,2.885-17.153,4.171-25.692C-9.377,83.32-6.063,60.554-2.293,39.251,3.833,4.915,12.02-22.7,23.008-44.469c5.836-11.555,13.2-21.378,21.012-21.482C55.159-66.1,64.6-52.516,73.682-44.454c.713.627,1.437,1.239,2.155,1.806,10.938,8.7,22.2,10.092,32.892.269,11.395-10.45,22.176-35.6,25.457-70.971" transform="translate(252.165 166.929)"/><path class="e" d="M-234.69,116.428c8.2-21.6,17.357-40.434,27.261-56.087,4.372-6.942,8.911-13.361,13.839-17.153,9.835-7.584,19.949-3.926,29.322,3.956a93.507,93.507,0,0,1,7.6,7.33c10.513,11.619,20.448,26.687,29.578,44.861,9.055,17.944,17.231,39.591,27,57.625,9.573,17.78,19.57,35.695,30.463,46.951,9.289,9.584,19.681,13.436,29.116,5.867a29.971,29.971,0,0,0,5.012-5.285c9.991-13.212,16.507-38.979,21.475-66.388,1.571-8.674,2.991-17.511,4.338-26.215,3.525-22.766,7.1-46,11.138-67.612,6.6-34.9,15.41-62.581,27.01-83.839,5.786-10.614,12.948-19.706,20.517-20C59.775-60,69.031-48.161,77.941-41.8c.707.493,1.409.97,2.116,1.418,10.71,6.658,21.547,5.971,31.616-5.21C122.4-57.431,132.28-82.914,135.064-117.34" transform="translate(251.141 164.962)"/><path class="e" d="M-232.42,129.959c8.005-21.147,16.989-39.454,26.732-54.475,4.3-6.673,8.777-12.779,13.589-16.421,9.612-7.464,19.492-4.673,28.765,2.18a72.777,72.777,0,0,1,7.524,6.449c10.437,10.343,20.352,24.134,29.517,41.054,9.139,16.586,17.415,36.919,27.016,54.311,9.9,17.914,20.049,36.4,31.187,48.13,9.468,9.987,20.11,14.257,29.773,6.658a30.214,30.214,0,0,0,5.135-5.315c10.253-13.436,16.9-39.725,22.032-67.731,1.615-8.853,3.091-17.914,4.494-26.737,3.67-23.2,7.479-46.846,11.835-68.717C12.3,13.859,21.651-13.953,33.9-34.674c5.731-9.7,12.7-18.034,20.049-18.526,10.442-.7,19.564,9.39,28.3,14.048.691.373,1.381.717,2.072,1.015,10.481,4.643,20.9,1.777,30.341-10.674C124.72-62.068,133.709-87.79,136.02-121.32" transform="translate(250.136 163.001)"/><path class="e" d="M-230.15,143.431c7.827-20.713,16.659-38.5,26.259-52.892A67.444,67.444,0,0,1-190.525,74.7c9.39-7.285,19.08-5.389,28.2.4a66.821,66.821,0,0,1,7.463,5.568c10.37,9.094,20.275,21.632,29.483,37.322,9.106,15.436,17.493,34.426,26.938,51.161,10.2,18.019,20.517,37.113,31.861,49.369,9.651,10.45,20.545,14.929,30.43,7.464a29.081,29.081,0,0,0,5.263-5.33C-20.37,207.132-13.62,180.185-8.3,151.582c1.671-8.957,3.2-18.228,4.661-27.26C.2,100.586,4.251,76.55,8.9,54.307,16.492,18.344,26.433-9.752,39.342-29.8,45.017-38.609,51.8-46.148,58.868-46.835c10.091-.985,19.058,7.345,27.618,10.316.674.239,1.353.448,2.033.627,10.253,2.6,20.238-2.374,29.06-16.168,9.4-14.645,17.487-40.651,19.308-73.27" transform="translate(249.13 161.024)"/><path class="e" d="M-227.87,156.913c7.635-20.274,16.306-37.54,25.752-51.28A67.693,67.693,0,0,1-189.031,90.45c9.167-7.136,18.646-6.136,27.645-1.388a71.055,71.055,0,0,1,7.4,4.688c10.3,7.8,20.186,19.053,29.433,33.485,9.172,14.212,17.665,31.9,26.966,48.011,10.5,18.183,20.968,37.77,32.541,50.519,9.835,10.764,20.974,15.75,31.087,8.211a28.9,28.9,0,0,0,5.391-5.374c10.782-13.66,17.688-41.188,23.146-70.4,1.721-9.211,3.3-18.586,4.828-27.782C3.4,106.349,7.678,81.866,12.635,59.354c8.075-36.5,18.573-64.97,32.151-84.243,5.614-7.972,12.2-14.675,19.03-15.556,9.74-1.254,18.551,5.33,26.938,6.613.663.1,1.325.164,1.988.209,10.025.582,19.587-6.524,27.785-21.632,8.727-16.063,15.922-42.338,17.264-74.046" transform="translate(248.12 159.068)"/><path class="e" d="M-225.6,170.458c7.448-19.839,15.959-36.589,25.251-49.7a69.106,69.106,0,0,1,12.809-14.526c8.944-6.987,18.211-6.867,27.088-3.165a52.357,52.357,0,0,1,7.323,3.822c10.235,6.51,20.12,16.482,29.416,29.678,9.211,12.973,17.821,29.335,26.96,44.786,10.8,18.288,21.425,38.5,33.226,51.7,10.024,11.167,21.408,16.511,31.744,8.957a28.934,28.934,0,0,0,5.519-5.4c11.044-13.824,18.083-41.935,23.708-71.747,1.771-9.39,3.4-18.944,5.012-28.364C6.6,112.013,11.123,87.127,16.381,64.3c8.571-37.023,19.6-66,33.866-84.377C55.816-27.227,62.2-33.064,68.781-34.139c9.4-1.493,18.044,3.284,26.259,2.881a12.315,12.315,0,0,0,1.944-.194c9.685-1.274,18.969-10.768,26.509-27.11,8.059-17.467,14.357-44.01,15.209-74.808" transform="translate(247.114 157.062)"/><path class="e" d="M-223.33,183.906c7.263-19.394,15.614-35.619,24.749-48.085a69.52,69.52,0,0,1,12.586-13.869c8.727-6.852,17.777-7.658,26.532-4.941a40.124,40.124,0,0,1,7.24,2.986c10.157,5.228,20.024,13.912,29.361,25.842,9.245,11.719,17.961,26.737,26.949,41.591C-84.775,205.806-74.026,226.646-62,240.321c10.2,11.57,21.837,17.257,32.4,9.778a28.489,28.489,0,0,0,5.653-5.419C-12.643,230.692-5.481,202,.311,171.53c1.821-9.569,3.509-19.318,5.157-28.842,4.3-24.916,9.061-50.22,14.619-73.345C29.143,31.782,40.693,2.164,55.663-15.168c5.711-6.805,11.8-11.037,18.027-12.525,9.044-1.821,17.537,1.269,25.574-.836a19.861,19.861,0,0,0,1.9-.582c9.487-3.426,18.322-14.837,25.234-32.589,7.39-18.885,12.809-45.7,13.154-75.569" transform="translate(246.108 155.14)"/><path class="e" d="M-221.06,197.377c7.077-18.951,15.269-34.651,24.248-46.473a71.381,71.381,0,0,1,12.336-13.212c8.5-6.7,17.342-8.39,25.969-6.733a42.329,42.329,0,0,1,7.2,2.045c10.077,3.99,19.921,11.42,29.294,22.109,9.284,10.495,18.111,24.14,26.944,38.4,11.434,18.437,22.344,39.919,34.6,54.072C-50.1,259.525-38.2,265.6-27.414,258.152A28.744,28.744,0,0,0-21.65,252.7c11.567-14.137,18.863-43.428,24.816-74.434,1.877-9.748,3.614-19.676,5.319-29.365C12.94,123.525,17.952,97.833,23.8,74.41,33.351,36.312,45.447,5.9,61.113-10.221c5.629-5.853,11.532-9.6,17.543-11.122,8.693-2.09,17.031-.746,24.894-4.479.624-.3,1.242-.642,1.86-1,9.284-5.58,17.668-18.909,23.947-38.068,6.728-20.288,11.227-47.369,11.1-76.33" transform="translate(245.102 153.193)"/><path class="e" d="M-218.78,210.9c6.889-18.522,14.921-33.709,23.741-44.891a74.4,74.4,0,0,1,12.085-12.555c8.253-6.376,16.828-9.248,25.412-8.509a40.3,40.3,0,0,1,7.123,1.164c10,2.723,19.832,8.879,29.249,18.318,9.323,9.256,18.261,21.542,26.944,35.2,11.768,18.482,22.795,40.651,35.275,55.251,10.581,12.376,22.7,18.765,33.721,11.361a28.189,28.189,0,0,0,5.9-5.494C-7.5,246.464-.067,216.606,6.053,184.987c1.921-9.928,3.715-20.034,5.48-29.857,4.617-25.782,9.852-51.922,16.011-75.644C37.569,40.866,50.206,9.516,66.529-5.279c5.538-4.907,11.26-8.166,17.064-9.719,8.354-2.374,16.524-2.792,24.215-8.27.607-.433,1.214-.9,1.816-1.4,9.084-7.706,17.025-22.924,22.683-43.472,6.059-21.691,9.668-49.056,9.056-77.107" transform="translate(244.092 151.207)"/><path class="e" d="M-216.51,224.335c15.51-42.218,37.815-64.193,59.93-65.4s44,17.347,63.193,46.786c12.068,18.512,23.251,41.338,35.96,56.445s27.712,21.8,40.41,6.628c15.894-18.974,23.947-65.612,31.583-107.487C27.114,92.336,44.512,21.051,71.979-.416c13.683-10.689,28.637-7.7,41.863-21.93,18.339-19.736,30.541-74.225,28.4-126.894" transform="translate(243.086 149.24)"/></g><g transform="translate(-23.79 -113.01)"><path class="e" d="M-42.518,800.166c-2.339-50.758,16.351-93.648,35.2-101.515s37.765,8.39,56.449,18.825,39.7,13.869,55.3-15.57c19.949-37.635,24.56-116.8,45.11-152.153,15.995-27.543,36.818-19.3,53.2,1.194,9.267,11.585,17.147,31.081,26,44.667,40.17,61.581,42.883,187.444,77,206.21,36.924,20.348,56.973-27.946,63.945-61.372,8.911-42.89,23.83-154.213-12.664-231.574-14.831-31.425-29.466-64.925-40.371-106.307-16.334-61.939-16.223-156.662,4.661-207.852,14.313-35.082,36.294-47.921,46.018-92.9,6.533-30.231,5.642-69.209,0-100.754A261.408,261.408,0,0,0,341.337-75.7" transform="translate(42.717 75.7)"/><path class="e" d="M-40.918,801.122c-1.615-52.25,16.975-97.335,36.389-106.322,18.935-8.763,38.177,7.39,56.861,18.9,18.462,11.391,38.984,16.541,54.511-10.211C126.714,669.242,132.3,594.091,152.8,559.2c16.329-27.633,36.818-22.5,53.6-4.583,9.64,10.3,18.183,28.678,27.456,42.442,39.324,58.4,42.582,180.174,75.941,198.686,35.9,19.87,55.848-25.827,63.093-58.789,9.184-41.8,23.391-149.018-11.094-225.423-14.218-31.529-28.314-65.686-39.045-106.785-15.85-60.491-15.995-151.825,3.715-202.582,13.639-35.112,34.83-49.414,44.509-93.812C377.617,77.991,377.21,39.58,372.3,7.812A291.152,291.152,0,0,0,348.1-72.4" transform="translate(41.963 77.326)"/><path class="e" d="M-39.345,802.028c-.891-53.669,17.6-100.992,37.575-111.084,19.052-9.614,38.589,6.374,57.273,18.989,18.245,12.316,38.221,19.2,53.726-4.882,19.787-30.843,26.314-102.1,46.82-136.388,16.635-27.842,36.84-25.737,53.988-10.36,10.025,8.957,19.214,26.259,28.915,40.218,38.427,55.356,42.237,172.889,74.878,191.087,34.869,19.407,54.689-23.692,62.213-56.117,9.429-40.636,22.962-143.883-9.512-219.452-13.617-31.664-27.172-66.418-37.726-107.292-15.371-59.013-15.766-147.018,2.785-197.283,12.959-35.067,33.348-50.817,42.988-94.633,6.755-30.484,6.833-68.373,2.629-100.351a322.261,322.261,0,0,0-22.371-83.6" transform="translate(41.237 78.943)"/><path class="e" d="M-37.8,802.925c-.167-55.132,18.222-104.65,38.761-115.862,19.152-10.45,38.984,5.344,57.686,19.079,18.022,13.227,37.481,21.856,52.935.463,19.709-27.454,27.2-94.737,47.689-128.521,16.958-27.961,36.879-29.006,54.383-16.138,10.42,7.658,20.238,23.886,30.369,38.009,37.525,52.429,41.919,165.6,73.819,183.623,33.822,18.959,53.525-21.557,61.328-53.445,9.668-39.5,22.538-138.837-7.936-213.331-13.015-31.813-25.98-67.179-36.4-107.77-14.825-57.669-15.544-142.24,1.821-192.013,12.291-35.217,31.861-52.474,41.5-95.663,6.839-30.708,7.44-68.03,3.937-100.157A351.064,351.064,0,0,0,361.542-65.79" transform="translate(40.539 80.584)"/><path class="e" d="M-36.28,803.851c.557-56.595,18.846-108.293,39.953-120.624,19.241-11.256,39.4,4.3,58.092,19.138,17.821,14.138,36.757,24.528,52.15,5.807,19.626-24.05,28.08-87.362,48.552-120.639,17.264-28.1,36.935-32.321,54.773-21.915,10.827,6.315,21.269,21.467,31.822,35.829,36.59,49.638,41.6,158.333,72.761,176.069,32.78,18.526,52.35-19.407,60.448-50.758,9.9-38.367,22.121-133.88-6.354-207.255a937.266,937.266,0,0,1-35.086-108.263c-14.329-56.221-15.321-137.493.874-186.713,11.628-35.351,30.391-54.042,40-96.678,6.939-30.768,8.047-67.627,5.241-99.948A382.828,382.828,0,0,0,368.226-62.52" transform="translate(39.865 82.196)"/><path class="e" d="M-34.76,804.733c1.286-58.043,19.492-111.89,41.139-125.4,19.342-12.063,39.808,3.254,58.5,19.228,17.587,15.033,36.016,27.275,51.359,11.152,19.565-20.557,28.96-79.988,49.421-112.771,17.61-28.215,37-35.68,55.168-27.678,11.233,4.941,22.277,19.079,33.276,33.56,35.643,46.936,41.284,151.048,71.7,168.53,31.744,18.063,51.2-17.287,59.59-48.1,10.125-37.232,21.72-129-4.784-201.149a1092.765,1092.765,0,0,1-33.755-108.756c-13.828-54.788-15.1-132.865-.067-181.443,10.943-35.4,28.893-55.49,38.461-97.484,7.051-30.9,8.682-67.284,6.544-99.753A411.81,411.81,0,0,0,374.908-59.19" transform="translate(39.191 83.837)"/><path class="e" d="M-33.24,805.649c2.01-59.506,20.094-115.5,42.326-130.163C28.528,662.647,49.3,677.665,68,694.8c17.37,15.9,35.275,29.947,50.574,16.422,19.492-17.138,29.851-72.6,50.284-104.889,17.933-28.364,37.068-39.083,55.558-33.455,11.651,3.553,23.3,16.705,34.735,31.35,34.651,44.353,40.967,143.823,70.639,161.051,30.692,17.661,50.017-15.182,58.688-45.428,10.348-36.128,21.313-124.237-3.208-195.073-11.854-34.1-22.7-70.628-32.435-109.248-13.366-53.325-14.892-128.133-1.014-176.158,10.275-35.56,27.439-57.028,36.974-98.425,7.151-31.037,9.3-66.97,7.847-99.544A438.706,438.706,0,0,0,381.608-55.9" transform="translate(38.518 85.459)"/><path class="e" d="M-31.72,806.556C-28.98,745.6-11,687.469,11.792,671.615c19.548-13.6,40.655,1.1,59.328,19.407,17.153,16.78,34.529,32.634,49.783,21.84,19.4-13.734,30.736-65.223,51.153-97.036,18.261-28.454,37.146-42.547,55.953-39.233,12.063,2.12,24.309,14.346,36.2,29.111,33.627,41.8,40.655,136.493,69.581,153.467,29.65,17.153,48.842-13.033,57.808-42.756,10.581-35.008,20.935-119.564-1.626-188.982Q373.114,475.3,358.863,417.678C346.02,365.8,344.177,294.158,356.9,246.82c9.607-35.724,25.969-58.535,35.47-99.335,6.838-29.751,10.035-64.488,9.145-99.35C400.654,12.3,396.009-22.031,388.29-52.59" transform="translate(37.844 87.09)"/><path class="e" d="M-30.2,807.482c3.453-62.417,21.341-122.669,44.7-139.748,19.648-14.346,41.034,0,59.741,19.482,16.936,17.616,33.8,35.306,49.009,27.17,19.314-10.331,31.627-57.8,52.016-89.124,18.59-28.559,37.23-46.04,56.343-45.01,12.486.672,25.323,11.943,37.642,26.872,32.6,39.412,40.332,129.208,68.5,145.913,28.609,16.72,47.667-10.913,56.934-40.069,10.771-33.918,20.578-114.951-.056-182.906C384.6,496.98,374.445,459,364.844,419.829c-12.352-50.429-14.48-118.952-2.907-165.574,8.911-35.933,24.5-60.058,33.972-100.276,6.962-29.673,10.591-64.09,10.453-99.141C406.142,18,402.2-18,394.962-49.32" transform="translate(37.171 88.702)"/><path class="e" d="M-28.68,808.368C-24.492,744.5-6.71,682.146,17.2,663.889,36.958,648.8,58.65,662.8,77.352,683.46c16.708,18.452,33.053,37.964,48.207,32.515,19.236-6.927,32.518-50.414,52.907-81.257C197.4,606.055,215.779,585.14,235.2,583.96c12.9-.806,26.32,9.674,39.1,24.677,31.561,37.068,40.009,121.922,67.454,138.374,27.567,16.258,46.48-8.793,56.054-37.411,10.977-32.843,20.25-110.577,1.526-176.815-9.468-33.455-19.035-71.807-28.464-110.726-11.862-48.951-14.307-114.428-3.854-160.289,8.248-36.172,23.034-61.551,32.457-101.187,7.093-29.642,11.148-63.769,11.757-98.947.543-37.556-2.775-74.79-9.59-107.636" transform="translate(36.498 90.338)"/><path class="e" d="M-27.16,809.3c4.912-65.328,22.6-129.775,47.071-149.287,19.86-15.81,41.863-2.195,60.565,19.646,16.513,19.288,32.3,40.651,47.422,37.859,19.147-3.523,33.415-42.994,53.748-73.374,19.253-28.753,37.391-53.146,57.134-56.55,13.316-2.3,27.317,7.375,40.544,22.393,30.514,34.8,39.7,114.652,66.4,130.85,26.52,15.81,45.289-6.7,55.168-34.739,11.183-31.723,19.949-106.277,3.1-170.724-8.855-33.9-17.877-72.568-27.139-111.219-11.378-47.5-14.14-109.95-4.8-155,7.557-36.441,21.569-63.059,30.948-102.112A504.068,504.068,0,0,0,416.063,68.3c1.32-38.222-1.361-76.675-7.741-111.039" transform="translate(35.824 91.945)"/><path class="e" d="M-25.64,810.171C-20,743.44-2.411,676.858,22.611,656.137c19.965-16.541,42.276-3.329,60.982,19.736,16.3,20.094,31.566,43.293,46.625,43.2,19.063-.134,34.306-35.59,54.617-65.507,19.587-28.842,37.464-56.729,57.524-62.312,13.739-3.822,28.319,5.091,42,20.228,29.45,32.589,39.374,107.367,65.338,123.3,25.485,15.361,44.1-4.583,54.288-32.052,11.378-30.648,19.693-102.082,4.684-164.648-8.248-34.336-16.708-73.315-25.819-111.711-10.893-46.025-13.99-105.516-5.747-149.72,6.856-36.74,20.1-64.567,29.444-103.008a545.627,545.627,0,0,0,14.363-98.529C423.007,36.224,420.957-3.46,415-39.36" transform="translate(35.151 93.611)"/><path class="e" d="M-24.12,811.113c6.366-68.254,23.864-136.836,49.443-158.841,20.049-17.243,42.7-4.478,61.395,19.825,16.084,20.9,30.825,45.95,45.84,48.533,18.98,3.27,35.2-28.156,55.48-57.61,19.921-28.932,37.542-60.387,57.919-68.1,14.151-5.359,29.305,2.836,43.44,18.019,28.375,30.425,39.045,100.231,64.274,115.757,24.432,15.048,42.883-2.508,53.414-29.38,11.567-29.589,19.492-98.007,6.254-158.572-7.613-34.9-15.594-74.061-24.5-112.2-10.414-44.547-13.862-101.112-6.683-144.42,6.126-37.068,18.64-66.059,27.935-103.948a594.368,594.368,0,0,0,15.672-98.35A548.8,548.8,0,0,0,421.67-36.12" transform="translate(34.477 95.208)"/><path class="e" d="M-22.6,811.984c7.09-69.7,24.5-140.329,50.629-163.573,20.183-17.914,43.117-5.628,61.818,19.9,15.878,21.706,30.074,48.623,45.049,53.893,18.9,6.643,36.094-20.736,56.349-49.742s37.609-64.029,58.309-73.882c14.563-6.912,30.3.627,44.91,15.795,27.289,28.365,38.728,92.961,63.221,108.233,23.391,14.585,41.7-.433,52.528-26.707,11.757-28.543,19.3-94.051,7.836-152.481-6.978-35.5-14.441-74.808-23.185-112.7-9.935-43.084-13.75-96.768-7.641-139.135,5.4-37.441,17.181-67.567,26.431-104.889a646.045,646.045,0,0,0,16.969-98.141A559.244,559.244,0,0,0,428.369-32.77" transform="translate(33.804 96.859)"/><path class="e" d="M-21.07,812.9c7.836-71.165,25.128-143.838,51.832-168.38,20.294-18.631,43.54-6.793,62.219,19.989,15.677,22.483,29.344,51.265,44.264,59.222,18.813,10.032,36.985-13.287,57.212-41.8,20.606-29.081,37.67-67.7,58.7-79.644,14.97-8.509,31.276-1.568,46.363,13.57,26.214,26.289,38.427,85.676,62.158,100.694,22.344,14.123,40.5,1.627,51.649-24.05,11.946-27.484,19.191-90.139,9.412-146.391-6.282-36.127-13.283-75.539-21.848-113.189-9.468-41.591-13.672-92.438-8.582-133.851,4.639-37.814,15.716-69.06,24.922-105.8,8.025-32.022,14.68-64.492,18.272-97.947a568.86,568.86,0,0,0-.423-124.789" transform="translate(33.126 98.485)"/><path class="e" d="M-19.55,813.827c8.538-72.613,25.763-147.316,53-173.173,20.405-19.318,44-7.972,62.631,20.079,15.471,23.244,28.6,53.922,43.473,64.566,18.729,13.436,37.87-5.852,58.081-33.993,20.929-29.156,37.726-71.389,59.095-85.422,15.376-10.092,32.257-3.7,47.822,11.346,25.123,24.319,38.088,78.39,61.094,93.155,21.3,13.675,39.291,3.687,50.769-21.363,12.13-26.454,19.141-86.348,10.994-140.33-5.569-36.814-12.141-76.271-20.528-113.667-8.989-40.113-13.617-88.079-9.529-128.566,3.859-38.217,14.257-70.568,23.391-106.725,8.142-32.141,15.388-64.193,19.581-97.738a576.89,576.89,0,0,0,1.4-128.207" transform="translate(32.452 100.092)"/><path class="e" d="M-18,814.718c9.245-74.061,26.387-150.78,54.166-177.92,20.517-20.019,44.4-9.181,63.043,20.139,15.276,24.02,27.846,56.58,42.688,69.911,18.646,16.78,38.784,1.6,58.944-26.11,21.269-29.2,37.781-75.091,59.49-91.185,15.772-11.7,33.226-5.807,49.276,9.122,24.025,22.393,37.77,71.105,60.036,85.616,20.255,13.212,38.082,5.718,49.889-18.691,12.308-25.453,19.147-82.585,12.564-134.224-4.784-37.546-11-77.017-19.2-114.175-8.521-38.62-13.594-83.81-10.481-123.281,3.046-38.621,12.809-72.046,21.909-107.636,8.253-32.261,16.095-63.79,20.879-97.544A583.266,583.266,0,0,0,448.435-22.9" transform="translate(31.765 101.723)"/><path class="e" d="M-16.51,815.615c9.991-75.524,27.049-154.258,55.369-182.652,20.606-20.691,44.832-10.375,63.455,20.228,15.076,24.781,27.133,59.133,41.9,75.255,18.584,20.049,39.686,9.032,59.813-18.228,21.608-29.275,37.826-78.824,59.88-97.037,16.151-13.316,34.195-7.837,50.73,6.912,22.934,20.452,37.469,63.686,58.978,78.077,19.225,12.645,36.874,7.748,49.009-16.019C435.105,657.7,441.85,603.314,436.765,554a1064.961,1064.961,0,0,0-17.877-114.667c-8.053-37.113-13.6-79.48-11.428-117.937,2.228-39.024,11.339-73.539,20.4-108.561,8.354-32.365,16.808-63.417,22.188-97.35,6.785-42.584,8.549-89.711,5.057-135.06" transform="translate(31.105 103.365)"/><path class="e" d="M-15,816.526c10.721-77,27.7-157.721,56.561-187.474,20.745-21.363,45.272-11.585,63.867,20.318,14.886,25.528,26.4,61.8,41.112,80.615,18.5,23.453,40.583,16.5,60.7-10.346,21.948-29.32,37.87-82.54,60.275-102.739,16.557-14.929,35.153-9.823,52.183,4.673,21.831,18.6,37.146,56.415,57.919,70.553,18.183,12.2,35.643,9.748,48.129-13.346,12.664-23.468,19.386-75.047,15.722-122.072A891.056,891.056,0,0,0,424.92,441.563c-7.591-35.62-13.628-75.151-12.375-112.712,1.314-39.4,9.885-75.017,18.9-109.487,8.487-32.47,17.521-63.014,23.491-97.141,7.563-43.16,9.967-91.53,6.884-138.493" transform="translate(30.436 104.991)"/><path class="e" d="M-13.47,817.453C-2.031,739,14.866,656.223,44.271,625.246c20.862-22.02,45.712-12.809,64.279,20.393,14.7,26.274,25.657,64.477,40.321,85.944,18.423,26.871,41.5,24.05,61.545-2.478,22.31-29.245,37.9-86.273,60.665-108.517,16.947-16.571,36.111-11.719,53.642,2.463,20.723,16.765,36.829,49.175,56.856,63,17.136,11.749,34.44,11.749,47.243-10.674s19.6-71.165,17.3-115.966a762.537,762.537,0,0,0-15.232-115.652c-7.134-34.112-13.683-70.747-13.321-107.412.4-39.755,8.454-76.465,17.387-110.472,8.632-32.53,18.239-62.7,24.794-96.947C468.1,85.2,471.148,35.588,468.47-13" transform="translate(29.758 106.603)"/><path class="e" d="M-11.95,818.374c12.163-79.943,29-164.529,58.927-197.059,20.99-22.6,46.157-14.048,64.692,20.482,14.48,27.021,24.922,67.179,39.541,91.274,18.339,30.245,42.393,31.47,62.408,5.4,22.644-29.32,37.932-90.005,61.06-114.294,17.331-18.2,37.052-13.51,55.09.254,19.643,14.929,36.512,41.8,55.8,55.46,16.1,11.3,33.226,13.719,46.369-8,13.015-21.512,19.876-67.179,18.874-109.89-.947-40.4-6.482-79.868-13.923-116.13-6.683-32.619-13.761-66.3-14.268-102.142-.557-40.039,6.989-77.958,15.883-111.323,8.744-32.664,18.935-62.208,26.1-96.738,9.129-44.266,12.822-95.118,10.553-145.331" transform="translate(29.085 108.249)"/><path class="e" d="M-10.43,819.241C2.463,737.879,19.2,651.219,49.684,617.495c21.1-23.334,46.608-15.287,65.1,20.572,14.324,27.753,24.181,69.792,38.756,96.574,18.261,33.634,43.284,38.889,63.277,13.287,22.973-29.424,37.959-93.752,61.45-120.071,17.716-19.855,38-15.212,56.549-1.985s36.2,34.59,54.734,47.936c15.037,10.838,32.012,15.69,45.489-5.33,13.193-20.572,20.211-62.894,20.456-103.8s-5.374-80.615-12.586-116.638c-6.221-31.1-13.862-61.745-15.215-96.842-1.548-40.307,5.525-79.465,14.374-112.249s19.67-61.79,27.4-96.544c9.9-44.818,14.232-96.916,12.363-148.764" transform="translate(28.411 109.875)"/></g><g transform="translate(200.785 -430.424)"><path class="e" d="M374.715,1199.029c-16.229-26.872-16.992-92.842-7.474-137.165s26.1-73.658,40.839-106.143,28.9-74.255,30.118-125.3c1.559-65.253-18.573-124.505-15.995-189.594,2.01-50.668,17.454-89.02,33.682-110.472,9.172-12.107,19.776-16.347,29.277-26.349,43.094-45.219,81.388,27.976,108.226-31.485,29.054-64.462,27.573-136.612,22.2-172.158-6.878-45.547-29.912-146.406-75.273-118.623-18.423,11.286-37.313,20.9-56.2,17.75-28.247-4.762-55.714-64.358-57.518-140.046C425.394,7.571,435.419-46.4,428.418-94.885c-4.695-32.6-16.591-55.117-29.277-63.163s-26.069-3.21-38.611,6.33" transform="translate(-360.53 350.523)"/><path class="e" d="M377.132,1200.77c-16.2-29.335-17.665-96.454-8.114-142.643,9.328-45.085,26.064-75.121,41.117-106.949,14.875-31.44,29.216-71.031,31.187-120.3,2.489-62.969-15.861-121.729-13.16-186.4,2.194-51.429,16.524-91.065,32.246-114.861,9.033-13.69,19.726-20.019,29.517-30.783,41.613-45.562,79.049,23.96,105.346-34.187,28.269-62.566,27.473-132.865,22.433-168.694-6.393-45.353-28.676-142.225-72.516-118.1-18.05,9.957-36.8,18.079-55.491,14.735-27.528-4.777-54.166-61.715-56.572-134.657-1.671-50.489,7.446-103.724.6-151.765-4.661-32.843-16.089-56.117-28.4-65.776-12.425-9.734-25.752-7.36-38.461.373" transform="translate(-361.661 348.603)"/><path class="e" d="M379.077,1202.778c-16.151-31.768-18.345-100.022-8.76-148.107,9.139-45.831,26.025-76.629,41.4-107.77,15.009-30.395,29.517-67.821,32.24-115.294,3.425-60.67-13.2-118.952-10.331-183.28,2.333-52.25,15.594-93.095,30.814-119.295,8.911-15.317,19.676-23.692,29.812-35.2,40.176-45.652,76.732,20.064,102.473-36.71,27.49-60.67,27.373-129.1,22.655-165.126-5.9-45.144-27.45-138.12-69.754-117.578-17.732,8.6-36.333,15.153-54.829,11.6-26.788-4.867-52.629-59.162-55.63-129.387-2.1-49.115,6.126-101.6-.607-149.2-4.628-33.216-15.594-57.117-27.528-68.373-12.174-11.48-25.429-11.54-38.316-5.6" transform="translate(-362.336 346.415)"/><path class="e" d="M381,1205.026c-16.151-34.187-19.013-103.62-9.4-153.572,8.961-46.547,25.98-78.107,41.68-108.561,15.137-29.395,29.84-64.611,33.3-110.308,4.361-58.386-10.509-116.19-7.5-180.159,2.495-52.952,14.675-95.215,29.377-123.729,8.755-16.974,19.62-27.349,30.074-39.636,38.756-45.562,74.415,16.168,99.633-39.2,26.7-58.789,27.289-125.4,22.884-161.633-5.43-44.935-26.248-134.06-67-117.056-17.4,7.255-35.821,12.152-54.138,8.539-26.053-5.15-51.1-56.654-54.689-124.1-2.54-47.772,4.7-99.455-1.816-146.629-4.628-33.485-15.109-58.222-26.654-70.971-11.924-13.242-25.111-15.72-38.166-11.57" transform="translate(-362.992 343.974)"/><path class="e" d="M382.932,1207.549c-16.106-36.62-19.681-107.2-10.025-159.035,8.783-47.264,25.936-79.63,41.964-109.383,15.265-28.364,30.151-61.4,34.356-105.307,5.3-56.087-7.8-113.458-4.661-177.024,2.662-53.743,13.745-97.424,27.952-128.177,8.615-18.661,19.559-30.977,30.335-44.069,37.352-45.353,72.1,12.271,96.781-41.711,25.919-56.878,27.161-121.564,23.112-158.11-4.957-44.711-25.061-130.074-64.246-116.548-17.081,5.972-35.32,9.256-53.464,5.464-25.317-5.285-49.566-54.131-53.737-118.817-2.991-46.4,3.341-97.305-3.03-144.047-4.6-33.784-14.625-59.192-25.78-73.569-11.7-15.033-24.794-19.885-38.021-17.541" transform="translate(-363.657 341.271)"/><path class="e" d="M384.841,1210.25c-16.073-39.053-20.339-110.771-10.687-164.5,8.616-47.981,25.885-81.137,42.242-110.2,15.393-27.319,30.5-58.147,35.42-100.321,6.276-53.743-5.112-110.621-1.827-173.889,2.829-54.475,12.809-99.664,26.515-132.611,8.471-20.363,19.492-34.6,30.63-48.5C543.1,435.213,576.921,488.6,601.058,436c25.134-54.982,27.049-117.787,23.335-154.586-4.455-44.488-23.909-126.177-61.484-116.041-16.774,4.479-34.819,6.36-52.774,2.389-24.588-5.419-48.073-51.638-52.8-113.458C453.9,9.238,459.312-40.877,453.1-87.171c-4.572-34.1-14.129-60.282-24.9-76.136-11.434-16.869-24.477-24.065-37.87-23.513" transform="translate(-364.301 338.331)"/><path class="e" d="M386.751,1213.26c-16.045-41.487-21-114.339-11.333-169.978,8.448-48.668,25.83-82.66,42.526-110.995,15.5-26.319,30.809-54.937,36.478-95.335,7.24-51.444-2.411-107.845,1-170.769,3-55.236,11.862-101.948,25.061-137.045,8.354-22.109,19.453-38.217,30.87-52.922,34.59-44.592,67.471,4.478,91.067-46.727,24.354-53.1,26.932-114.01,23.563-151.093-4.021-44.234-22.767-122.415-58.727-115.5a126.036,126.036,0,0,1-52.088-.687c-23.858-5.554-46.586-49.175-51.849-108.233-3.9-43.756.607-93.065-5.458-138.926-4.544-34.336-13.644-61.387-24.025-78.749-11.188-18.721-24.154-28.245-37.726-29.5" transform="translate(-364.942 335.202)"/><path class="e" d="M388.691,1216.2c-16.011-43.905-21.647-117.936-11.979-175.442,8.3-49.369,25.78-84.2,42.816-111.816,15.622-25.379,31.121-51.713,37.536-90.333,8.159-49.13.3-105.068,3.837-167.649,3.169-55.968,10.9-104.262,23.647-141.479,8.176-23.886,19.4-41.8,31.137-57.356,33.231-44.055,65.159.582,88.21-49.265,23.569-51.205,26.816-110.219,23.792-147.57-3.564-43.995-22.143-130.925-55.976-114.951-15.956,7.464-33.81.552-51.4-3.762-23.129-5.658-45.11-46.7-50.908-102.933-4.372-42.457-.752-90.945-6.683-136.359-4.369-32.921-12.464-61.361-23.157-81.346-10.938-20.6-23.83-32.41-37.575-35.471" transform="translate(-365.595 332.082)"/><path class="e" d="M390.557,1219.152c-15.984-46.279-22.277-121.445-12.625-180.921,8.142-50,25.718-85.72,43.122-112.607,15.733-24.349,31.438-48.5,38.6-85.347,9.094-46.831,3-102.306,6.683-164.514,3.341-56.729,9.935-106.636,22.215-145.928a205.968,205.968,0,0,1,31.4-61.79c31.884-43.427,62.837-3.314,85.353-51.743,22.784-49.265,26.688-106.412,24.014-144.047-3.108-43.756-20.962-128.387-53.213-114.488-15.716,6.763-33.309-2.329-50.713-6.822-22.4-5.777-43.668-44.249-49.967-97.663-4.851-41.158-2.111-88.811-7.875-133.776-4.265-33.134-12-62.276-22.277-83.944-10.849-22.632-23.785-36.954-37.43-41.442" transform="translate(-366.215 328.952)"/><path class="e" d="M392.44,1222.107c-15.945-48.757-22.934-124.968-13.266-186.37,7.992-50.758,25.652-87.288,43.378-113.458C438.4,898.9,454.3,877,462.205,841.933c10.025-44.532,5.714-99.53,9.507-161.394,3.52-57.49,8.961-108.979,20.784-150.362a212.865,212.865,0,0,1,31.666-66.224c30.553-42.726,60.52-7.2,82.5-54.236,22-47.414,26.565-102.62,24.243-140.554-2.662-43.487-19.765-125.655-50.457-113.966-15.5,5.971-32.8-5.225-50.028-9.9-21.67-5.882-42.237-41.8-49.009-92.364-5.352-39.889-3.47-86.691-9.089-131.208-4.169-33.409-11.554-63.278-21.408-86.586-10.571-24.666-23.467-41.068-37.28-47.413" transform="translate(-366.833 325.803)"/><path class="e" d="M394.326,1225.019c-15.917-51.19-23.574-128.506-13.923-191.849,7.841-51.4,25.585-88.841,43.657-114.234,15.95-22.393,32.062-42.039,40.716-75.345,10.971-42.218,8.432-96.738,12.341-158.244,3.7-58.222,7.969-111.413,19.347-154.8,7.68-29.275,19.258-52.459,31.934-70.657,29.233-41.949,58.2-11.092,79.639-56.729,21.219-45.517,26.431-98.813,24.465-137.03-2.228-43.293-18.545-122.818-47.694-113.458-15.332,4.926-32.3-8.106-49.343-12.973-20.94-5.971-40.828-39.337-48.079-87.079-5.859-38.62-4.823-84.571-10.3-128.64-4.428-35.6-11.651-66.1-20.534-89.154-10.288-26.7-23.147-45.177-37.135-53.37" transform="translate(-367.449 322.712)"/><path class="e" d="M396.207,1227.974c-15.883-53.624-24.2-132.044-14.552-197.312,7.7-52.071,25.518-90.423,43.941-115.04,16.056-21.467,32.368-38.815,41.769-70.359,11.907-39.919,11.138-93.961,15.17-155.154,3.9-58.983,6.973-113.831,17.916-159.229,7.5-31.1,19.225-55.968,32.2-75.076,27.924-41.114,55.887-14.929,76.788-59.267,20.428-43.622,26.286-95.006,24.688-133.507-1.782-42.98-17.348-105.1-44.943-112.935-15.159-4.314-31.794-10.988-48.652-16.048-20.211-6.076-39.446-36.874-47.132-81.779-6.393-37.322-6.182-82.451-11.517-126.073-4.389-35.9-11.138-67.328-19.654-91.752-9.994-28.734-22.816-49.307-36.985-59.341" transform="translate(-368.066 319.578)"/><path class="e" d="M398.087,1230.92c-15.855-56.057-24.833-135.568-15.2-202.791,7.557-52.743,25.446-92.005,44.225-115.847,16.151-20.512,32.674-35.62,42.833-65.358,12.809-37.62,13.862-91.184,18.005-152.019,4.066-59.715,5.959-116.265,16.485-163.678,7.307-32.933,19.186-59.461,32.463-79.51,26.626-40.307,53.6-18.78,73.931-61.775,19.676-41.606,26.147-91.2,24.916-130-1.359-42.7-16.3-102.067-42.186-112.413-14.92-5.971-31.293-13.854-47.967-19.124C526.1,122.256,507.5,94.071,499.4,51.912c-6.934-36.038-7.535-80.331-12.726-123.49-4.355-36.217-10.615-68.582-18.779-94.349-9.7-30.771-22.482-53.439-36.84-65.313" transform="translate(-368.676 316.453)"/><path class="e" d="M399.953,1233.865c-15.822-58.476-25.457-139.09-15.844-208.255,7.429-53.415,25.379-93.618,44.509-116.668,16.256-19.586,32.986-32.4,43.891-60.372,13.773-35.306,16.585-88.393,20.84-148.884s4.945-118.7,15.037-168.112c7.112-34.769,19.158-62.909,32.73-83.944,25.34-39.277,51.286-22.677,71.074-64.193,18.891-39.725,26-87.407,25.139-126.491-.93-42.442-15.248-99.246-39.424-111.965-14.686-7.673-30.792-16.705-47.288-22.184-18.746-6.225-36.757-31.888-45.244-71.21-7.5-34.739-8.883-78.211-13.923-120.922-4.322-36.53-10.086-69.821-17.9-96.947-9.394-32.8-22.143-57.573-36.7-71.3" transform="translate(-369.278 313.328)"/><path class="e" d="M401.825,1236.891c-15.794-60.909-26.075-142.614-16.49-213.719,7.3-54.086,25.3-95.245,44.793-117.473,16.357-18.676,33.293-29.186,44.949-55.386,14.7-33.022,19.308-85.6,23.675-145.763,4.455-61.208,3.9-121.116,13.617-172.546,6.906-36.605,19.141-66.328,32.992-88.378,24.07-38.292,48.975-26.573,68.222-66.776,18.105-37.829,25.847-83.6,25.368-122.967-.512-42.189-14.19-96.574-36.673-111.383-14.441-9.6-30.285-19.646-46.6-25.349-18.022-6.285-35.442-29.335-44.3-65.91C503.3,17.844,501.146-24.9,496.234-67.115c-4.288-36.829-9.551-71.075-17.031-99.544-9.085-34.823-21.8-61.7-36.545-77.271" transform="translate(-369.88 310.198)"/><path class="e" d="M403.686,1239.746c-15.761-63.327-26.687-146.122-17.131-219.183,7.162-54.743,25.228-96.857,45.071-118.28,16.457-17.765,33.6-25.976,46.013-50.384,15.633-30.738,22.032-82.824,26.5-142.629,4.639-62,2.879-123.565,12.185-176.994,6.683-38.441,19.13-69.717,33.259-92.8,22.834-37.322,46.659-30.484,65.365-69.3,17.32-35.933,25.685-79.779,25.618-119.429-.1-41.9-13.121-94.051-33.916-110.86-14.19-11.45-29.784-22.393-45.912-28.364-17.264-6.345-34.156-26.767-43.356-60.625-8.716-32.052-11.606-74-16.379-115.787-4.249-37.143-9.011-72.344-16.151-102.142-8.77-36.845-21.445-65.83-36.4-83.242" transform="translate(-370.477 307.074)"/><path class="e" d="M405.554,1242.692c-15.733-65.761-27.289-149.645-17.777-224.647,7.034-55.4,25.15-98.529,45.355-119.1,16.552-16.854,33.905-22.766,47.071-45.383,16.563-28.454,24.761-80.033,29.338-139.508,4.828-62.7,1.832-125.983,10.749-181.428,6.482-40.308,19.13-73.061,33.526-97.231,21.558-36.2,44.336-34.336,62.508-71.792,16.535-34.052,25.524-75.987,25.819-115.951C642.455,206,630.131,155.9,610.989,137.3c-13.923-13.525-29.283-25.259-45.227-31.35-16.563-6.449-32.886-24.17-42.387-55.4-9.345-30.559-12.954-71.867-17.6-113.2-4.2-37.456-8.46-73.6-15.276-104.74-8.454-38.855-21.091-69.953-36.255-89.214" transform="translate(-371.075 303.949)"/><path class="e" d="M407.411,1245.638c-15.705-68.194-27.907-153.138-18.423-230.125,6.911-56.057,25.061-100.157,45.634-119.892,16.652-15.989,34.206-19.586,48.129-40.4,17.471-26.26,27.489-77.241,32.168-136.388,5.012-63.477.785-128.387,9.323-185.862,6.26-42.114,19.141-76.36,33.788-101.664,20.316-35.1,41.992-38.367,59.651-74.3,15.727-32.246,25.356-72.15,26.053-112.458.713-41.412-10.871-89.572-28.4-109.845-14.243-16.526-29.216-28.11-44.553-34.47-15.822-6.464-31.616-21.393-41.451-50.026-9.969-29.036-14.274-69.762-18.785-110.636-4.166-37.77-7.908-74.852-14.4-107.337-8.132-40.856-20.73-74.069-36.1-95.185" transform="translate(-371.662 300.824)"/><path class="e" d="M409.272,1248.613c-15.672-70.628-28.509-156.662-19.063-235.59,6.783-56.729,24.989-101.843,45.918-120.713,16.747-15.108,34.529-16.422,49.187-35.4,18.412-23.961,30.224-74.464,35.008-133.268,5.224-64.194-.278-130.82,7.886-190.3,6.026-43.95,19.18-79.63,34.05-106.1,19.086-33.963,39.675-42.263,56.806-76.808,14.937-30.35,25.178-68.388,26.27-108.979,1.114-41.158-9.674-87.512-25.618-109.308-13.8-18.541-28.6-31.213-43.852-37.561C560.748,88.132,545.477,76,535.341,49.81c-10.637-27.439-15.594-67.657-20-108.069-4.121-38.083-7.346-76.136-13.528-109.935C494-211.04,481.443-246.37,465.854-269.35" transform="translate(-372.253 297.67)"/><path class="e" d="M411.116,1251.534c-15.644-73.046-29.11-160.17-19.709-241.069,6.683-57.371,24.911-103.53,46.224-121.519,16.841-14.227,34.818-13.212,50.245-30.395,19.347-21.677,33-71.658,37.837-130.133,5.474-64.94-1.337-133.238,6.455-194.745,5.8-45.786,19.219-82.779,34.323-110.472,17.866-32.843,37.358-46.174,53.938-79.316A260.255,260.255,0,0,0,646.9,238.429c1.476-40.74-8.415-85.541-22.884-108.8-12.809-20.646-27.785-33.709-43.167-40.636-14.391-6.464-29.143-15.72-39.569-39.471C529.973,23.8,524.348-16.03,520.076-55.964c-4.054-38.426-6.783-77.345-12.659-112.532-7.481-44.843-20-82.3-35.81-107.143" transform="translate(-372.833 294.57)"/><path class="e" d="M412.975,1254.465c-15.594-75.479-29.656-163.648-20.355-246.532C399.2,949.92,417.459,902.7,439.106,885.607c16.947-13.436,35.13-10.017,51.309-25.379,20.283-19.407,35.71-68.851,40.655-127,5.658-65.686-2.406-135.642,5.012-199.178,5.569-47.622,19.286-85.885,34.59-114.951,16.663-31.649,35.041-50.056,51.081-81.824a252.005,252.005,0,0,0,26.732-101.888c1.894-40.681-7.067-83.6-20.127-108.293-12.341-23.333-27.289-36.486-42.482-43.7-13.667-6.479-27.9-12.779-38.639-34.187-11.99-23.886-18.289-63.432-22.416-102.918C520.8-92.43,518.606-132.29,513.037-168.85c-7.149-46.808-19.621-86.383-35.643-113.1" transform="translate(-373.429 291.46)"/><path class="e" d="M414.808,1257.425c-15.594-77.913-30.291-167.2-21-252.011,6.432-58.7,24.761-106.949,46.781-123.131,17.042-12.54,35.442-6.793,52.35-20.423,21.219-17.078,38.427-66.059,43.5-123.908,5.842-66.433-3.475-138.031,3.592-203.612,5.324-49.444,19.381-88.915,34.852-119.43s32.719-53.878,48.229-84.257a243.1,243.1,0,0,0,26.949-98.38c2.283-40.457-5.625-81.615-17.365-107.77s-26.765-39.247-41.8-46.772c-12.943-6.479-26.643-9.719-37.692-28.887-12.675-21.975-19.648-61.327-23.63-100.351s-5.647-79.809-10.91-117.743c-6.825-48.787-19.263-90.488-35.515-119.071" transform="translate(-373.992 288.32)"/></g></g></g></g></g></svg>