<svg xmlns="http://www.w3.org/2000/svg" xmlns:xlink="http://www.w3.org/1999/xlink" width="1920" height="810" viewBox="0 0 1920 810"><defs><style>.a,.f{fill:none;stroke:#fff;stroke-width:2px;}.b{fill:#f6f6f6;}.c{opacity:0.559;}.d{fill:#ececec;opacity:0.5;}.e{clip-path:url(#a);}.f{stroke-miterlimit:10;}</style><clipPath id="a"><rect class="a" width="1920" height="810"/></clipPath></defs><g transform="translate(0 -1993)"><g transform="translate(0 -10)"><rect class="b" width="1920" height="810" transform="translate(0 2003)"/><g class="c" transform="translate(0 2003)"><rect class="d" width="1919" height="810" transform="translate(1)"/><g class="e"><g transform="translate(-395.183 -262.565)"><path class="f" d="M1333.345-52.3A812.437,812.437,0,0,1,1275.2,71.281c-10.241,17.962-21.814,36.151-41.759,50.5-51.027,36.686-140.305,37.819-216.5,29.85a1317.986,1317.986,0,0,1-204.467-37.576C747.6,96.629,684.843,74.132,615.331,66.746S464.963,71.281,427.506,109c-22.275,22.481-25.834,50.922-17.129,76.886s28.676,49.837,50.822,72.367c25.373,25.785,54.816,51.911,58.631,82.182,3.943,31.357-23.427,63.426-67.055,78.522-62.036,21.477-137.975,8-207.565,0-88.382-10.188-183.191-10.107-263.943,14.82S-161.9,512.852-153.609,569.443" transform="translate(154.349 230.156)"/><path class="f" d="M1314.169-57.53a760.727,760.727,0,0,1-57.095,120.714c-10.241,17.525-21.532,35.244-40.965,49.3-49.7,35.924-136.081,37.9-210.176,31.065q-26.4-2.43-52.486-5.9a1271.212,1271.212,0,0,1-146.783-28.15C743.271,93.31,681.823,72.254,613.872,65.5s-144.555,5.588-184.138,40.719c-14.734,12.7-24.762,27.327-29.341,42.808a74.859,74.859,0,0,0-1.741,32.15,87.456,87.456,0,0,0,3.61,14.82c6.81,19.825,21.3,39.228,37.15,57.676,1.562,1.83,3.149,3.644,4.737,5.475,24.784,28.3,50.95,57.239,52.384,88.9,1.383,30.482-24.041,61.548-66.568,76.367C369.516,445.6,295.8,433.473,228.494,426.7c-5.3-.535-10.625-1.037-15.976-1.474-80.8-6.835-165.294-4.049-237.392,19.533-76.809,25.137-135.569,78.117-126.275,133.1" transform="translate(157.831 226.915)"/><path class="f" d="M1294.93-62.76a716.7,716.7,0,0,1-56.1,117.847c-10.062,17.088-21.25,34.37-40.2,48.121-48.262,35.147-131.882,37.949-203.852,32.248q-25.6-2.041-51.053-5.07a1243.915,1243.915,0,0,1-143.07-25.461c-61.909-14.852-122.05-34.5-188.388-40.67S473.095,70.911,431.9,103.418c-16.642,13.119-30.212,26.061-37.457,40.978a73.8,73.8,0,0,0-6.2,47.537c4.3,20.959,18.69,42.111,34.231,62.179,1.562,1.992,3.1,3.968,4.66,5.944,24.195,30.774,47.161,62.471,46.086,95.561-.9,29.559-24.656,59.571-66,74.246-58.887,20.861-130.294,10.074-195.352,4.584q-7.681-.656-15.362-1.2c-78.038-5.345-158.893-1.3-227.33,22.5-72.995,25.364-128.016,77.161-117.774,130.545" transform="translate(161.401 223.674)"/><path class="f" d="M1275.842-68a677.211,677.211,0,0,1-55.072,115c-9.96,16.65-20.995,33.462-39.429,46.971-47.187,34.337-127.683,37.981-197.554,33.4q-24.886-1.62-49.593-4.227a1218.762,1218.762,0,0,1-139.332-22.692C734.437,86.889,675.6,68.668,610.825,63.1s-134.212,7.629-176.662,37.625c-18.486,13.054-35.384,24.651-45.548,39.115a77.581,77.581,0,0,0-13.749,31.875,65.9,65.9,0,0,0-.742,16.2c1.792,22.092,16.079,45.075,31.338,66.7,1.511,2.138,3.021,4.276,4.557,6.479,23.606,33.349,43.525,67.589,39.915,102.347-2.919,28.571-25.3,57.644-65.493,72.092-57.223,20.57-126.454,11.127-189.258,6.884-4.967-.324-9.934-.632-14.9-.891-75.248-3.871-152.492,1.442-217.294,25.445-69.128,25.591-120.335,76.124-109.069,127.954" transform="translate(164.82 220.427)"/><path class="f" d="M1256.728-73.21a637.434,637.434,0,0,1-54.074,112.1c-9.806,16.2-20.739,32.523-38.661,45.707-45.753,33.657-123.458,38.127-191.2,34.677q-24.169-1.215-48.134-3.385A1196.964,1196.964,0,0,1,788.958,95.8C730.071,83.526,672.49,66.649,609.327,61.79S479.7,70.26,436.454,97.843c-20.482,12.957-40.53,23.242-53.767,37.252-9.4,9.855-16.088,20.65-19.766,31.924a60.549,60.549,0,0,0-2.868,16.747c-.743,23.226,13.467,48.007,28.419,71.266l4.455,6.884c23.12,35.811,39.915,72.561,33.694,109-4.685,27.534-25.91,55.733-64.981,69.97-55.61,20.262-122.588,12.164-183.139,9.184q-7.182-.365-14.363-.6c-72.431-2.429-146.04,4.179-207.206,28.344-65.211,25.8-112.654,75.25-100.441,125.427" transform="translate(168.265 217.199)"/><path class="f" d="M1237.568-78.44a599.116,599.116,0,0,1-53.075,109.231c-9.678,15.776-20.482,31.665-37.841,44.541-44.473,32.863-119.285,38.176-184.932,35.86q-23.4-.826-46.674-2.559a1166.24,1166.24,0,0,1-131.907-17.4C725.684,80.255,669.459,64.869,607.858,60.463S482.4,69.728,438.673,95.011c-22.48,12.957-45.676,21.833-61.755,35.422-11.5,9.55-20.176,20.338-25.6,31.843a60.351,60.351,0,0,0-5.121,17.363c-3.252,24.3,10.856,50.922,25.6,75.72,1.434,2.462,2.893,4.859,4.327,7.369,22.48,38.37,36.356,77.582,27.447,115.758-6.2,26.547-26.5,53.822-64.443,67.848-54.253,20-118.952,13.249-177.148,11.516-4.583-.129-9.192-.227-13.8-.292C78.488,456.651,8.489,464.474-48.965,488.9c-61.32,26.028-105.2,74.294-91.813,122.868" transform="translate(171.756 213.958)"/><path class="f" d="M1218.789-83.67a562.389,562.389,0,0,1-52.1,106.364c-9.576,15.355-20.176,30.774-37.074,43.359-43.167,32.134-115.086,38.273-178.608,37.09q-22.659-.421-45.241-1.717A1139.983,1139.983,0,0,1,777.569,86.719C721.6,77,666.682,63.072,606.694,59.315S485.13,69.162,441.221,92.34c-24.656,12.957-50.848,20.359-69.9,33.495-13.657,9.215-24.391,20-31.62,31.778a61.378,61.378,0,0,0-7.374,17.995c-5.761,25.494,8.27,53.854,22.608,80.319q2.151,3.92,4.25,7.839c21.891,40.881,33,82.506,21.2,122.479-7.527,25.51-27.114,51.83-64.008,65.694C264,471.6,201.473,466.176,145.428,465.722H132.165c-66.927.583-133.29,9.718-187.159,34.288-57.453,26.255-97.625,73.339-83.236,120.309" transform="translate(174.917 210.717)"/><path class="f" d="M1199.815-88.9a525.782,525.782,0,0,1-51.027,103.5c-9.422,14.917-19.894,29.867-36.305,42.111C1070.648,88.081,1001.621,95.046,940.2,95q-21.891,0-43.756-.891A1104.829,1104.829,0,0,1,771.961,82.089C717.478,73.7,663.865,61.163,605.541,58S480.956,63.835,443.7,89.474c-30.084,9.7-55.994,19.064-77.936,31.729-15.779,8.862-28.578,19.641-37.637,31.7a63.784,63.784,0,0,0-9.6,18.642c-8.27,26.611,5.658,56.689,19.714,84.725q2.1,4.163,4.148,8.325c21.3,43.391,29.8,87.462,14.952,129.185-8.705,24.489-27.651,50.032-63.5,63.572-50.8,19.355-111.066,15.273-164.859,16.083-4.25,0-8.475.162-12.8.291-64.136,2.057-126.915,12.39-177.123,37.253-53.536,26.482-90.021,72.383-74.608,117.75" transform="translate(178.144 207.476)"/><path class="f" d="M1180.821-94.13A493.052,493.052,0,0,1,1130.793,6.5c-9.294,14.464-19.612,28.976-35.512,40.978-40.53,30.563-106.663,38.386-165.96,39.455q-21.148.389-42.322,0a1081.4,1081.4,0,0,1-120.77-9.313c-53-7.175-105.306-18.286-162.119-20.91s-120.8,6.074-158,29.98c-32.516,9.167-61.192,17.622-86.052,29.948-17.844,8.51-32.671,19.291-43.525,31.648a67.441,67.441,0,0,0-11.829,19.258c-10.779,27.745,3.072,59.685,16.821,89.244q2.048,4.373,4.045,8.795c20.713,45.9,26.755,92.321,8.705,135.89-9.78,23.388-28.394,47.991-62.958,61.369-49.184,19.048-107.2,16.31-158.74,18.367-4.071.162-8.116.373-12.187.6-61.448,3.547-120.514,15.128-167.086,40.2-49.645,26.676-82.417,71.412-66,115.175" transform="translate(181.469 204.235)"/><path class="f" d="M1162-99.36A461.272,461.272,0,0,1,1113-1.6c-9.166,14.026-19.381,28.069-34.743,39.779-39.224,29.867-102.464,38.451-159.661,40.654q-20.482.81-40.965.777a1048.647,1048.647,0,0,1-117.058-6.624C709.058,67.175,658.159,57.473,602.8,55.529s-116.955,6.2-154.131,28.377c-34.923,8.649-66.338,16.2-94.143,28.02-19.933,8.14-36.85,18.908-49.593,31.567a71.507,71.507,0,0,0-14.031,19.89c-13.288,28.879.461,62.6,13.928,93.747q2,4.616,3.943,9.264c20.124,48.428,23.913,97.18,2.56,142.628-10.677,22.449-29.085,46.128-62.369,59.3C201.3,487.074,145.532,485.681,96.246,489c-3.892.259-7.681.551-11.649.891-58.58,5.021-114.113,17.817-157.05,43.148-45.753,26.9-74.812,70.456-57.377,112.616" transform="translate(184.618 200.994)"/><path class="f" d="M1143.239-104.59a430.616,430.616,0,0,1-48.006,94.9c-9.038,13.605-19.1,27.194-33.95,38.6C1023.365,58.057,963.018,67.484,907.92,70.82q-19.612,1.2-39.378,1.62A1019.993,1019.993,0,0,1,755.2,68.488c-50-4.584-99.673-12.86-153.44-14.2S488.336,60.762,451.212,81.105c-37.329,8.1-71.484,14.82-102.259,26.174-20.969,7.742-40.939,18.092-55.456,31.5A76.815,76.815,0,0,0,277.238,159.3c-15.8,30.013-2.151,65.532,11.009,98.265,1.306,3.239,2.56,6.479,3.866,9.718,19.561,50.938,21.225,102.153-3.764,149.334-11.368,21.477-29.674,44.25-61.857,57.191C180.407,492.243,127,492.194,79.966,496.794c-3.712.356-7.425.745-11.112,1.182-55.815,6.479-107.712,20.6-146.988,46.1-41.887,27.13-67.234,69.5-48.646,110.138" transform="translate(187.713 197.753)"/><path class="f" d="M1124.741-109.82a402.322,402.322,0,0,1-47.033,92.03C1068.8-4.622,1058.89,8.5,1044.552,19.624c-36.613,28.344-94.066,38.645-147.039,43.116q-18.9,1.62-37.944,2.446a993.368,993.368,0,0,1-109.581-1.312C701.341,60.634,653.054,53.783,601,53.038S491.4,59.63,454.169,78.321c-39.736,7.6-76.656,13.411-110.35,24.3-23.043,7.434-45.19,17.816-61.448,31.422a82.654,82.654,0,0,0-18.485,21.153c-18.281,31.179-4.788,68.48,8.065,102.8q1.92,5.1,3.738,10.22c19,53.449,18.793,107.141-9.985,156.055-12.059,20.473-30.186,42.306-61.448,55.069-44.37,18.14-95.679,19.436-140.459,25.283-3.508.47-7.041.956-10.548,1.49C.225,514.094-48.063,529.448-83.7,555.152c-38,27.356-59.63,68.544-40.171,107.5" transform="translate(190.542 194.513)"/><path class="f" d="M1106.2-115c-10.743,30.572-26.178,60.407-46.086,89.082-8.756,12.731-18.537,25.38-32.388,36.216-35.281,27.534-89.841,38.726-140.817,44.314q-18.127,2.025-36.459,3.239a958.786,958.786,0,0,1-105.92,1.442c-47.033-1.96-94.143-7.37-144.607-7.515S494.1,58.532,457.029,75.506c-42.117,7.094-81.8,11.953-118.44,22.465-25.065,7.143-49.337,17.379-67.464,31.357a88.588,88.588,0,0,0-20.687,21.785c-20.815,32.3-7.348,71.379,5.121,107.287q1.869,5.313,3.636,10.69c18.409,55.96,16.565,112.194-16.232,162.761-12.674,19.517-30.724,40.395-60.807,52.9-42.757,17.816-91.813,20.473-134.34,27.534-3.354.567-6.682,1.15-10.011,1.782-50.259,9.459-94.911,26.093-126.915,51.992-34.1,27.534-52.026,67.589-31.543,104.938" transform="translate(193.392 191.303)"/><path class="f" d="M1087.856-120.28c-10.316,29.656-25.38,58.571-44.959,86.3-8.654,12.277-18.281,24.489-31.62,35.017C977.3,27.855,925.634,39.906,876.886,46.562q-17.41,2.4-35.025,4.114a922.372,922.372,0,0,1-102.182,4.13c-45.574-.664-91.352-4.665-140.228-4.195S500.724,61.949,460.092,72.817C418,84.155,373.041,83.41,333.536,93.436c-27.088,6.835-53.511,17.007-73.43,31.276a95.319,95.319,0,0,0-23.043,22.416c-23.324,33.43-9.934,74.294,2.33,111.757q1.792,5.572,3.533,11.176c17.922,58.486,14.568,117.329-22.48,169.466-13.109,18.578-31.313,38.451-60.167,50.744-41.17,17.525-87.972,21.574-128.246,29.883-3.175.648-6.324,1.344-9.473,2.073-47.468,10.949-88.51,28.83-116.878,54.939-30.212,27.794-44.447,66.633-23.043,102.379" transform="translate(196.064 188.031)"/><path class="f" d="M1069.712-125.5c-9.939,28.711-24.675,56.673-43.961,83.413-8.526,11.856-17.922,23.6-30.724,33.835-32.67,26.077-81.444,38.872-128.016,46.728q-16.616,2.818-33.54,4.956a885.473,885.473,0,0,1-98.674,6.8c-44.063.632-88.561-1.944-135.85-.875s-95.679,11.095-135.7,20.651C418.445,80.733,371.079,79.21,328.6,88.8c-29.034,6.463-57.71,16.585-79.344,31.081a101.464,101.464,0,0,0-25.117,23.048c-25.859,34.612-12.571,77.275-.589,116.357q1.767,5.782,3.431,11.646c17.231,61,12.8,122.561-28.727,176.188-13.7,17.7-32.03,36.556-59.758,48.59-39.557,17.266-84.106,22.611-122.127,32.215-3,.761-5.966,1.62-8.935,2.381-44.7,12.423-82.109,31.567-106.816,57.887-26.346,28.02-36.869,65.678-14.338,99.82" transform="translate(198.538 184.796)"/><path class="f" d="M1051.839-130.73c-9.542,27.776-23.952,54.792-42.962,80.546-8.372,11.338-17.717,22.675-30.033,32.653C947.481,7.768,901.6,21.341,857.076,30.395q-15.9,3.239-32.106,5.782A849.623,849.623,0,0,1,730.238,45.7c-42.578,1.911-85.745.761-131.447,2.446S506.16,59,466.884,67.242c-47.622,9.9-97.343,7.71-142.814,16.845-31.108,6.236-61.832,16.359-85.361,31.13a108.052,108.052,0,0,0-27.344,23.68c-28.368,35.633-15.157,80.141-3.508,120.828q1.741,6.025,3.354,12.1c16.668,63.475,11.393,127.938-34.974,182.91-14.159,16.828-32.618,34.645-59.22,46.5C79.074,518.159,36.752,524.8.984,535.716c-2.816.858-5.633,1.749-8.4,2.672-41.938,13.913-75.734,34.3-96.78,60.835-22.454,28.247-29.264,64.787-5.709,97.261" transform="translate(200.741 181.555)"/><path class="f" d="M1034.288-136c-9.149,26.859-23.223,52.95-41.938,77.744a176.555,176.555,0,0,1-29.136,31.373c-30.058,24.554-73.046,39.018-115.47,49.141q-15.131,3.628-30.724,6.624a816.746,816.746,0,0,1-91.045,12.2c-40.965,3.239-82.98,3.482-127.094,5.766S509.269,57.421,470.711,64.4c-50.285,9.086-102.515,6.4-150.9,15.014-33.1,5.993-65.979,15.986-91.4,31.114a115.233,115.233,0,0,0-29.572,24.295c-30.8,36.912-17.692,83.073-6.273,125.346q1.69,6.268,3.252,12.585c16.079,66.034,10.241,133.429-41.2,189.615-14.619,16-33.284,32.733-58.734,44.379C59.422,523.368,19.4,531.3-14.084,543.517c-2.56.972-5.274,1.96-7.86,2.964-39.147,15.4-69.333,37.058-86.743,63.8-18.562,28.474-21.66,63.766,2.893,94.7" transform="translate(202.624 178.29)"/><path class="f" d="M1017.109-141.19c-8.778,25.876-22.536,50.973-40.965,74.732a183.83,183.83,0,0,1-28.5,30.255C918.972-12.41,878.877,2.9,838.578,14.137c-9.6,2.689-19.356,5.183-29.188,7.467a775.045,775.045,0,0,1-87.358,14.885c-39.608,4.5-80.163,6.2-122.69,9.086s-86.36,10.236-124.457,16c-53.127,8.1-107.533,4.989-158.944,13.217-35.128,5.636-70.153,15.581-97.292,31a122.49,122.49,0,0,0-31.8,24.943c-33.284,37.965-20.483,85.988-9.294,129.849q1.664,6.479,3.124,13.055c15.516,68.544,9.217,139.1-47.417,196.337-15.055,15.192-33.873,30.773-58.2,42.225C40.323,528.528,2.481,537.873-28.754,551.284c-2.56,1.053-4.916,2.154-7.322,3.24-36.112,16.543-62.968,39.925-76.681,66.763-14.7,28.668-14.082,62.795,11.5,92.127" transform="translate(204.109 175.073)"/><path class="f" d="M1000.392-146.42c-8.359,24.937-21.775,49.086-39.915,71.849a193.708,193.708,0,0,1-27.7,29.154C905.353-22.369,868.151-6.237,829.951,6.137c-9.089,2.964-18.357,5.717-27.728,8.293A735.478,735.478,0,0,1,718.6,32c-38.123,5.8-77.373,8.908-118.338,12.407s-83.108,9.848-120.693,14.464c-55.892,6.867-112.807,3.6-167.061,11.338-37.15,5.3-74.326,15.176-103.257,30.887-13.535,7.247-25.039,15.888-34.027,25.558-35.844,39.1-23.043,88.9-12.187,134.352,1.05,4.486,2.074,9.005,3.021,13.54,14.927,71.055,8.551,144.961-53.767,203.042a232.332,232.332,0,0,1-57.684,40.1c-33.028,16.018-68.616,26.692-97.574,41.382q-3.405,1.717-6.759,3.547c-33.285,18.172-56.594,42.558-66.568,69.646-10.8,28.9-6.478,61.839,20.1,89.568" transform="translate(205.157 171.833)"/><path class="f" d="M984.47-151.65c-7.975,24-21.058,47.206-38.891,68.982a213.608,213.608,0,0,1-26.935,27.891c-26.115,22.27-60.423,39.245-96.5,52.753-8.6,3.239-17.385,6.268-26.269,9.119a692.5,692.5,0,0,1-79.933,20.278C679.331,34.45,641.362,38.985,602.01,43.083S522.23,52.51,485.029,56.04c-58.606,5.539-117.954,2.154-175.177,9.491C270.7,70.553,231.379,80.384,200.629,96.305c-14.36,7.383-26.613,16.269-36.228,26.271-38.4,40.233-25.6,91.835-15.106,138.871,1.05,4.632,2.023,9.313,2.944,14.01,14.338,73.565,8.167,151.018-59.911,209.747a276.219,276.219,0,0,1-57.146,37.981C3.664,538.9-29.7,550.931-56.452,566.917c-2.1,1.263-4.173,2.543-6.222,3.855-30.555,19.817-50.376,45.258-56.609,72.658-6.913,29.154,1.127,60.884,28.727,87.009" transform="translate(205.409 168.592)"/><path class="f" d="M969.245-156.88c-7.593,23.067-20.353,45.33-37.893,66.115a234.745,234.745,0,0,1-26.141,26.692c-24.809,21.525-56.327,39.309-90.2,53.951C806.921-6.623,798.626-3.3,790.2-.161a646.8,646.8,0,0,1-76.195,22.967A1012.913,1012.913,0,0,1,604.426,41.838c-37.56,4.665-76.3,8.973-113.243,11.338-61.243,4-123.1.777-183.267,7.677-41.17,4.713-82.621,14.48-115.214,30.774-15.123,7.5-28.089,16.6-38.328,26.887-40.965,41.35-28.163,94.735-17.922,143.357,1,4.859,1.971,9.718,2.842,14.577,13.749,76.125,8.039,157.3-66.159,216.469A343.413,343.413,0,0,1,16.5,528.743c-29.9,15.4-61.012,28.781-85.515,45.983q-2.88,2.041-5.684,4.146c-27.781,21.421-44.145,47.85-46.751,75.509-3.021,29.349,8.731,59.928,37.355,84.45" transform="translate(204.965 165.351)"/><path class="f" d="M954.873-162.11C934.749-99.04,869.487-43.6,785.534-7.415s-185.776,54.1-287.319,57.855c-63.8,2.349-128.272-.632-191.358,5.815s-127.12,24.3-161.838,58.179C101.495,156.917,114.3,212.1,124.128,262.309c16.258,82.6,16.028,174.925-69.666,238.092C11.781,531.854-48.591,552.894-86.2,586.826c-52.128,47.052-48.083,115.969,9.422,160.445" transform="translate(203.642 162.11)"/></g><g transform="translate(230.274 476.766)"><path class="f" d="M89.94,589.965a1380.592,1380.592,0,0,1,129.04-99.772c20.482-14.042,42.168-28.02,69.333-36.394,69.461-21.363,152.518-.616,217.934,25.348,60.322,23.946,115.93,52.344,165.652,84.6,49.209,31.94,93.375,68.026,153,91.8s141.457,32.6,199.064,6.9c34.283-15.29,54.919-40.67,62.728-66.73s3.968-52.979-2.714-79.17c-7.681-30-18.87-61.272-3.917-90.135,15.516-29.883,60.347-52.769,109.786-56.041,70.332-4.665,132.163,26.32,191.46,50.712,75.3,31,162.811,54.081,252.5,50.809s180.348-37.965,207.257-92.192" transform="translate(-89.94 -247.55)"/><path class="f" d="M93.57,600.665a1276.871,1276.871,0,0,1,127.248-97.812c20.278-13.7,41.707-27.324,68.411-35.552,53.639-16.521,115.393-8.1,170.747,8.1q22.363,6.611,43.525,14.691c59.626,22.64,114.779,49.69,164.3,80.579,49.03,30.563,92.965,65.451,151.955,88.3A354.229,354.229,0,0,0,930.639,682.2c33.617,1.36,66.978-2.867,94.86-14.933a142.064,142.064,0,0,0,14.159-7.062c27.37-15.727,43.986-38.338,51.206-61.548a115.829,115.829,0,0,0,4.634-22.287c2.048-19.646-.359-39.52-3.917-58.956-5.607-30.774-13.083-62.374,3.789-91.171s59.707-50.858,107.969-54.194c68.693-4.778,129.27,24.425,187.236,47.1,4.583,1.8,9.192,3.547,13.851,5.28,70.358,26.028,149.984,44.1,230.889,39.957,86.257-4.422,172.744-38.872,197.733-91.949" transform="translate(-84.276 -246.54)"/><path class="f" d="M97.2,614.34A1190.165,1190.165,0,0,1,222.656,518.5c20.073-13.378,41.272-26.627,67.49-34.726,52.691-16.2,113.191-8.681,167.675,6.479q22.03,6.175,42.962,13.767c58.915,21.339,113.6,47.046,162.887,76.578,48.8,29.154,92.607,62.892,151.059,84.952,34.334,12.957,74.556,22.157,114.344,24.133,34.564,1.62,69.129-2.283,98.086-14.431a139.358,139.358,0,0,0,14.7-7.175c28.522-16.019,45.548-39.309,53.382-63.167a125.774,125.774,0,0,0,5.121-23.113c2.56-20.181,1.177-40.621-1.127-60.527-3.533-31.648-7.3-63.442,11.5-92.224,17.922-27.324,59.118-48.93,106.2-52.348,67-4.859,126.351,22.514,183.011,43.488q6.682,2.43,13.519,4.859c68.693,23.987,145.759,40.006,223.439,34.774,82.8-5.555,165.14-39.909,188.209-91.673" transform="translate(-78.612 -248.634)"/><path class="f" d="M100.82,628.361A1110.026,1110.026,0,0,1,224.534,534.42c19.817-13.038,40.786-25.915,66.568-33.884C342.8,484.551,402.067,491.3,455.68,505.4q21.734,5.825,42.45,13.022c58.213,20.023,112.433,44.378,161.5,72.545,48.646,27.891,92.3,60.3,149.958,81.551,35.614,13.119,76.81,22.675,117.775,25.04,35.537,2.025,71.356-1.717,101.312-13.945a143.941,143.941,0,0,0,15.362-7.272c29.648-16.326,47.084-40.314,55.482-64.917a139.513,139.513,0,0,0,5.735-23.76c3.175-20.732,2.688-41.739,1.639-62.114-1.485-32.474-1.613-64.463,19.2-93.261,18.818-26.061,58.529-46.971,104.435-50.517,65.339-5,123.433,20.618,178.761,39.876q6.554,2.284,13.211,4.47c67.055,21.947,141.534,35.924,215.963,29.608,79.37-6.722,157.562-40.9,178.735-91.43" transform="translate(-72.964 -251.026)"/><path class="f" d="M104.45,642.423a1033.2,1033.2,0,0,1,121.922-91.884c19.612-12.714,40.351-25.234,65.647-33.058,50.745-15.711,108.788-9.718,161.5,3.32q21.369,5.315,41.81,11.969c57.5,18.715,111.25,41.721,160.1,68.528,48.39,26.53,91.992,57.677,148.934,78.117,36.894,13.249,79.139,23.194,121.256,25.915,36.459,2.365,73.532-1.117,104.538-13.443a150.467,150.467,0,0,0,15.848-7.369c30.724-16.634,48.646-41.318,57.581-66.65a154.157,154.157,0,0,0,6.324-24.392c3.738-21.266,4.2-42.857,4.429-63.718.563-33.284,3.994-65.451,26.883-94.3,19.689-24.781,57.914-45.092,102.643-48.671,63.675-5.1,120.514,18.723,174.562,36.265,4.25,1.393,8.552,2.737,12.8,4.065,65.39,19.906,137.31,31.827,208.512,24.425,75.888-7.872,149.983-41.852,169.211-91.155" transform="translate(-67.3 -253.443)"/><path class="f" d="M108.08,656.467a963.669,963.669,0,0,1,120.13-89.925c19.382-12.374,39.864-24.522,64.7-32.215,49.8-15.435,106.586-10.333,158.432,1.7,14.184,3.239,28.01,7.062,41.221,11.078C549.373,564.5,602.669,586.154,651.3,611.6c48.185,25.2,91.736,55.069,147.935,74.715,38.174,13.362,81.392,23.7,124.713,26.854,37.406,2.689,75.708-.551,107.738-12.957a157.633,157.633,0,0,0,16.437-7.466c31.927-16.926,50.182-42.306,59.681-68.367a164.965,164.965,0,0,0,6.887-25.056c4.327-21.8,5.658-43.958,7.22-65.289,2.56-34.127,9.525-66.407,34.615-95.334,20.483-23.534,57.3-43.18,100.851-46.841,61.985-5.215,117.6,16.828,170.312,32.653,4.173,1.247,8.347,2.478,12.571,3.66,63.726,17.816,133.136,27.745,201.036,19.258,72.457-9.038,142.4-42.84,159.712-90.912" transform="translate(-61.636 -255.841)"/><path class="f" d="M111.71,670.522a898.272,898.272,0,0,1,118.364-87.964c19.177-12.034,39.429-23.825,63.777-31.389,48.825-15.16,104.384-10.868,155.36.113,13.954,2.98,27.575,6.479,40.632,10.155,56.106,16.09,108.94,36.4,157.357,60.495,47.955,23.842,91.454,52.364,146.911,71.266,39.48,13.476,83.671,24.3,128.169,27.761,38.4,3.028,77.885,0,110.939-12.455a156.565,156.565,0,0,0,17-7.564c33.079-17.233,51.744-43.31,61.806-70.083a186.426,186.426,0,0,0,7.476-25.7c4.89-22.351,7.143-45.075,10.011-66.892,4.557-34.936,14.952-67.394,42.3-96.37,21.1-22.254,56.685-41.237,99.059-44.93,60.346-5.329,114.7,14.933,166.113,29.057,4.045,1.1,8.142,2.187,12.238,3.239,62.088,15.808,128.861,23.647,193.585,14.075,69-10.172,134.8-43.731,150.214-90.7" transform="translate(-55.972 -258.252)"/><path class="f" d="M115.34,684.556a838.959,838.959,0,0,1,116.571-85.972c18.946-11.71,38.968-23.129,62.856-30.563,47.878-14.885,102.208-11.435,152.288-1.506,13.723,2.689,27.165,5.863,40.069,9.264,55.385,14.782,107.747,33.74,155.949,56.462,47.75,22.5,91.224,49.692,145.938,67.88,40.811,13.573,85.975,24.716,131.651,28.668,39.275,3.353,80.061.6,114.164-11.969a159.191,159.191,0,0,0,17.564-7.677c34.231-17.525,53.28-44.282,64.008-71.8a205.871,205.871,0,0,0,8.014-26.352c5.479-22.886,8.679-46.177,12.8-68.463,6.606-35.779,20.3-68.383,50-97.423,21.558-21.056,56.1-39.325,97.292-43.148,58.657-5.442,111.758,12.957,161.889,25.445q5.914,1.458,11.906,2.835c60.423,13.767,124.636,19.566,186.135,8.908,65.544-11.338,127.2-44.784,140.817-90.394" transform="translate(-50.308 -260.656)"/><path class="f" d="M119,698.606c34.018-30.225,72.465-58.353,114.83-84.012,18.716-11.338,38.4-22.433,61.908-29.721,46.931-14.577,99.852-11.921,149.19-3.11,13.518,2.413,26.755,5.264,39.506,8.357A921.676,921.676,0,0,1,639,642.565c47.545,21.153,91.019,46.97,144.888,64.447,42.117,13.67,88.254,25.234,135.082,29.575,40.248,3.693,82.263,1.182,117.391-11.484a158.116,158.116,0,0,0,18.153-7.758c35.358-17.817,54.842-45.351,66.031-73.517a229.794,229.794,0,0,0,8.6-27c6.042-23.437,10.241-47.278,15.567-70.067,8.68-36.588,25.6-69.354,57.71-98.444,21.968-19.873,55.482-37.414,95.525-41.318,56.993-5.555,108.839,11.143,157.639,21.833,3.84.842,7.681,1.62,11.6,2.43,58.887,11.71,120.335,15.468,178.659,3.725,62.113-12.488,119.618-45.739,131.191-90.119" transform="translate(-44.597 -263.06)"/><path class="f" d="M122.59,712.644c33.3-29.642,71.164-57.122,113.038-82.036,18.588-11.03,38.046-21.736,60.987-28.846,45.958-14.334,97.778-12.472,146.117-4.73,13.288,2.138,26.346,4.665,38.942,7.467a918.345,918.345,0,0,1,153.158,48.428c47.34,19.792,90.84,44.25,143.864,61.029,43.525,13.735,90.558,25.753,138.564,30.482,41.2,4.017,84.49,1.765,120.616-11a166.469,166.469,0,0,0,18.716-7.855c36.51-18.14,56.327-46.29,68.13-75.233a255.746,255.746,0,0,0,9.192-27.648c6.606-23.987,11.7-48.4,18.358-71.654,10.7-37.431,30.724-70.358,65.416-99.5a175.261,175.261,0,0,1,93.707-39.471c55.328-5.669,105.946,9.248,153.44,18.221,3.738.7,7.5,1.377,11.266,2.025,57.12,9.718,116.187,11.338,171.208-1.442,58.657-13.638,112.039-46.727,121.692-89.876" transform="translate(-38.996 -265.452)"/><path class="f" d="M126.22,726.755c32.568-29.077,69.862-55.916,111.271-80.076,18.255-10.706,37.56-21.056,60.039-28.053,45.01-14.075,95.577-12.957,143.045-6.333,13.083,1.847,25.91,4.065,38.4,6.479a916.119,916.119,0,0,1,151.8,44.412c47.11,18.448,90.635,41.528,142.84,57.612,44.806,13.816,92.811,26.271,142.021,31.389,42.143,4.357,86.615,2.349,123.817-10.5a169.067,169.067,0,0,0,19.279-7.953c37.662-18.432,57.94-47.278,70.255-76.966a277.025,277.025,0,0,0,9.755-28.3c7.194-24.506,13.237-49.5,21.148-73.242,12.8-38.257,35.844-71.4,73.123-100.517,22.531-17.573,54.279-33.576,91.941-37.641,53.766-5.782,103,7.353,149.19,14.577,3.661.567,7.3,1.1,10.984,1.62,55.431,7.629,111.937,7.289,163.732-6.624,55.175-14.788,104.435-47.683,112.167-89.616" transform="translate(-33.332 -267.919)"/><path class="f" d="M129.85,740.752c31.851-28.492,68.565-54.678,109.479-78.084,17.922-10.382,37.125-20.343,59.118-27.227,44.063-13.8,93.4-13.573,139.972-7.936,12.8,1.62,25.6,3.466,37.765,5.636A913.29,913.29,0,0,1,626.6,673.535c46.9,17.1,90.456,38.759,141.841,54.194,46.086,13.864,95.09,26.773,145.477,32.3,43.065,4.681,88.792,2.915,127.017-10.009a172.581,172.581,0,0,0,19.868-8.1c38.789-18.707,59.476-48.234,72.354-78.635a295.359,295.359,0,0,0,10.241-28.944c7.681-25.056,14.747-50.615,23.939-74.829,14.824-39.083,40.683-72.48,80.8-101.57,22.71-16.456,53.767-31.648,90.149-35.778,52-5.9,100.108,5.442,144.99,10.981,3.533.437,7.092.842,10.651,1.215,53.767,5.588,107.713,3.239,156.179-11.791,51.744-15.954,96.857-48.671,102.669-89.357" transform="translate(-27.668 -270.286)"/><path class="f" d="M133.48,754.757c31.126-27.922,67.263-53.467,107.687-76.125,17.922-10.042,36.664-19.63,58.221-26.4,43.064-13.508,91.173-14.107,136.874-9.54,12.622,1.263,25.065,2.883,37.2,4.746A907.408,907.408,0,0,1,622.475,683.8c46.7,15.76,90.3,36.005,140.817,50.777,47.545,13.9,97.292,27.291,148.933,33.2,44.037,5.021,90.994,3.5,130.269-9.508a174.57,174.57,0,0,0,20.483-8.1c39.941-19.031,61.038-49.254,74.454-80.4,4.225-9.848,7.681-19.792,10.933-29.591,8.321-25.591,16.335-51.7,26.7-76.4,17-39.892,45.548-73.63,88.51-102.622,22.838-15.387,53.075-29.737,88.382-33.932,50.336-6.009,97.292,3.531,140.818,7.37,3.456.291,6.887.567,10.241.81,52.128,3.531,103.462-.891,148.806-16.974,48.287-17.1,89.252-49.627,93.17-89.082" transform="translate(-22.004 -272.678)"/><path class="f" d="M137.11,768.857c30.4-27.354,65.97-52.255,105.92-74.148,17.615-9.718,36.2-18.95,57.274-25.574,42.117-13.249,89-14.577,133.8-11.143,12.392.972,24.656,2.267,36.612,3.838a901.734,901.734,0,0,1,147.628,32.394c46.5,14.4,90.174,33.2,139.819,47.359,48.9,13.913,99.673,27.794,152.39,34.11,44.985,5.345,93.17,4.066,133.469-9.021a177.74,177.74,0,0,0,21.02-8.26c40.965-19.339,62.574-50.21,76.553-82.117,4.4-10.074,8.091-20.246,11.5-30.239,8.91-26.141,17.922-52.817,29.495-78,19.074-40.718,50.285-74.845,96.217-103.659,23.043-14.35,52.461-27.826,86.615-32.1,48.646-6.122,94.271,1.62,136.516,3.758,3.328.162,6.657.292,10.011.4,50.49,1.49,99.238-4.972,141.33-22.141,44.857-18.319,81.674-50.712,83.748-88.871" transform="translate(-16.34 -275.101)"/><path class="f" d="M140.73,782.9c29.695-26.782,64.7-51.043,104.154-72.189,17.384-9.362,35.844-18.237,56.327-24.732,41.17-12.957,86.795-15.209,130.73-12.763,12.187.68,24.221,1.62,36.049,2.932a899.494,899.494,0,0,1,146.245,28.361c46.291,13.07,90.021,30.417,138.82,43.942C803.34,762.38,855.007,776.762,908.9,783.468c45.906,5.685,95.346,4.648,136.7-8.52a181.811,181.811,0,0,0,21.558-8.358c42.22-19.647,64.136-51.262,78.678-83.834,4.583-10.3,8.449-20.7,12.085-30.9,9.473-26.676,19.382-53.919,32.286-79.574,21.123-41.545,54.919-76.125,103.923-104.7,22.915-13.346,51.846-25.915,84.8-30.256,47.007-6.236,91.352-.259,132.317.146h9.678c48.825-.551,95.013-9.07,133.879-27.324,41.4-19.436,74.1-51.57,74.249-88.58" transform="translate(-10.692 -277.499)"/><path class="f" d="M144.36,796.984c28.985-26.209,63.434-49.822,102.413-70.2a334.915,334.915,0,0,1,55.405-23.906c40.2-12.7,84.49-15.776,127.657-14.366,11.957.389,23.811,1.085,35.46,2.025a893.171,893.171,0,0,1,144.863,24.295c46.086,11.711,89.867,27.535,137.77,40.492,51.693,13.929,104.23,28.846,159.328,35.94,46.854,5.993,97.522,5.231,139.9-8.1a185.791,185.791,0,0,0,22.147-8.455c43.371-19.954,65.672-52.25,80.778-85.567,4.762-10.512,8.807-21.056,12.648-31.535,10.036-27.227,20.892-55.069,35.076-81.178,23.171-42.354,59.451-77.55,111.63-105.716,23.043-12.391,51.206-23.988,83.031-28.425,45.318-6.349,88.433-2.154,128.016-3.466,3.124-.1,6.247-.243,9.371-.4,47.161-2.591,90.789-13.152,126.428-32.491,37.944-20.57,66.568-52.558,64.648-88.321" transform="translate(-5.028 -279.953)"/><path class="f" d="M148,811c28.266-25.639,62.134-48.613,100.595-68.237A349.84,349.84,0,0,1,303.078,719.7c39.25-12.423,82.416-16.326,124.585-15.986,11.726.114,23.4.5,34.871,1.134a885.33,885.33,0,0,1,143.378,20.278c45.855,10.366,89.739,24.8,136.772,37.107,53.1,13.9,106.509,29.348,162.759,36.831,47.827,6.333,99.724,5.814,143.122-7.532a190.681,190.681,0,0,0,22.736-8.552c44.5-20.2,67.311-53.255,82.9-87.284,4.941-10.738,9.192-21.574,13.237-32.183,10.6-27.761,22.4-56.138,37.867-82.765,25.219-43.2,63.88-79.072,119.311-106.769,23.043-11.451,50.643-22.06,81.239-26.579,43.679-6.479,85.54-4.049,123.868-7.078,3.021-.243,6.042-.518,9.038-.81,45.523-4.648,86.564-17.25,118.952-37.674,34.513-21.7,58.887-53.449,55.149-88.062" transform="translate(0.652 -282.326)"/><path class="f" d="M151.62,825.167c27.528-25.127,60.838-47.51,98.828-66.406a368.113,368.113,0,0,1,53.536-22.222c38.4-12.164,80.215-16.893,121.512-17.59q17.282-.292,34.308.227a876.446,876.446,0,0,1,142.072,16.2c45.65,9.022,89.611,21.963,135.7,33.673,54.535,13.848,108.813,29.867,166.241,37.755,48.774,6.657,101.9,6.382,146.348-7.046a193.2,193.2,0,0,0,23.3-8.665c45.651-20.538,68.77-54.227,84.977-89,5.121-10.949,9.55-22.011,13.826-32.831,11.163-28.3,23.913-57.239,40.632-84.352,27.293-44.007,68.232-80.724,127.017-107.789,23.043-10.56,50.054-20.149,79.37-24.749,41.989-6.576,82.6-5.944,119.618-10.69,2.919-.373,5.838-.777,8.731-1.215,43.405-6.443,82.451-21.445,111.5-42.84,31.031-22.87,51.206-54.5,45.625-87.8" transform="translate(6.3 -284.78)"/><path class="f" d="M155.25,839.086c26.838-24.5,59.58-46.2,97.036-64.285A390.151,390.151,0,0,1,304.9,753.39c37.329-11.872,78.038-17.476,118.44-19.177,11.291-.5,22.556-.712,33.719-.7a868.225,868.225,0,0,1,140.689,12.261c45.445,7.661,89.611,19.112,134.749,30.255,55.943,13.783,111.092,30.434,169.723,38.645,49.7,7,104.077,6.965,149.548-6.56a193.506,193.506,0,0,0,23.862-8.746c46.8-20.845,70.332-55.231,87.051-90.7,5.274-11.176,9.908-22.449,14.389-33.479,11.752-28.847,25.45-58.308,43.525-85.94,29.341-44.832,72.508-82.523,134.749-108.842a347.022,347.022,0,0,1,77.68-22.9c40.325-6.673,79.677-7.839,115.394-14.3,2.816-.5,5.607-1.053,8.4-1.62,41.852-8.619,78.285-25.438,104.026-48.023,27.6-24.02,43.73-55.457,36.126-87.543" transform="translate(11.964 -287.135)"/><path class="f" d="M158.87,853.154c26.14-23.939,58.326-44.995,95.269-62.325a419.877,419.877,0,0,1,51.693-20.57,496.215,496.215,0,0,1,115.368-20.8c11.06-.794,22.121-1.3,33.156-1.62a859.249,859.249,0,0,1,139.307,8.228c45.215,6.317,89.355,16.2,133.725,26.838C784.765,796.6,840.759,813.8,900.542,822.461c50.643,7.337,106.253,7.548,152.774-6.057a198.556,198.556,0,0,0,24.425-8.844c47.929-21.153,71.868-56.235,89.2-92.435,5.453-11.337,10.241-22.9,14.978-34.142,12.315-29.381,26.96-59.458,46.086-87.462,31.389-45.675,76.809-84.466,142.43-109.895a409.532,409.532,0,0,1,75.887-21.056c38.661-6.786,76.81-9.718,111.169-17.913,2.714-.648,5.428-1.312,8.091-2.025,40.338-10.815,74.2-29.458,96.7-53.238,24.144-25.186,36.126-56.445,26.628-87.284" transform="translate(17.612 -289.557)"/><path class="f" d="M162.5,867.136c25.417-23.374,57.034-43.792,93.451-60.349,48.033-22.32,104.04-36.786,163.041-42.111,10.83-1.085,21.711-1.911,32.567-2.494a845.175,845.175,0,0,1,137.924,4.211c45.01,4.973,89.227,13.394,132.7,23.42C781.072,803.37,837.86,821.2,898.846,830.3c51.59,7.661,108.429,8.1,155.974-5.572a200.848,200.848,0,0,0,25.014-8.941c49.081-21.461,73.43-57.223,91.3-94.168,5.633-11.613,10.625-23.339,15.541-34.774,12.8-29.931,28.5-60.559,49-89.082,33.463-46.484,80.855-86.555,150.137-110.915a505.247,505.247,0,0,1,74.249-19.226c37-6.9,73.839-11.629,106.944-21.526,2.56-.777,5.12-1.619,7.681-2.429,38.676-13.006,69.862-33.415,89.1-58.308,20.687-26.32,28.548-57.417,17.1-87.025" transform="translate(23.276 -291.894)"/><path class="f" d="M166.13,881.248c57.069-53.255,151.059-88.45,250.757-101.31s204.287-4.535,300.222,16.8c60.3,13.411,117.928,31.924,180.067,41.366s132.061,8.73,184.8-14.107c65.979-28.588,88-82.6,109.53-131.307,35.409-80.141,92.171-165.352,209.613-202.669,58.58-18.578,127.12-23.242,182.525-45.351,76.81-30.676,115.214-95.237,89.227-150.306" transform="translate(28.94 -294.36)"/></g><g transform="translate(-676.512 -241.72)"><path class="f" d="M-264.23-17.363a1743.468,1743.468,0,0,1,155.36-83.429C-84.7-112.26-59.4-123.468-30.294-128.667c74.4-13.152,150.188,16.8,207.027,49.789,52.541,30.437,99.175,64.718,138.923,102.12,39.3,37.026,72.457,77.55,124.329,107.757s129.834,48.2,193.842,29.494c38.072-11.127,65.6-33.738,80.7-58.486s19.023-51.651,19.919-78.182c1.024-30.369-1.1-62.422,21.84-89.082,23.76-27.534,74.4-45.011,123.945-42.6,70.537,3.45,122.511,40.978,173.871,71.735,65.237,39.05,144.735,71.735,233.808,78.765s188.209-16.78,230.121-67.054" transform="translate(264.23 160.024)"/><path class="f" d="M-262-10.576a1619.849,1619.849,0,0,1,153.056-81.68c23.836-11.176,48.825-22.108,77.424-27.162,57.479-10.139,115.8,5.167,165.627,27.534q20.114,9.067,38.635,19.436C224.984-43.4,271.569-10.525,311.511,25.494c39.429,35.665,72.713,74.991,124.226,104.258,28.88,16.423,64.9,29.543,102.413,35.5,32.67,5.183,66.7,4.859,97.574-3.855,5.493-1.552,10.813-3.338,15.925-5.345,31.415-12.342,54.151-32.685,67.976-54.632A134.643,134.643,0,0,0,730.532,79.85c7.681-19.08,10.907-38.872,12.93-58.422,3.277-30.952,4.941-62.843,29.725-89.244s73.251-43.213,121.666-40.994c68.924,3.142,120.181,38.775,170.748,67.7,3.968,2.268,8.014,4.535,12.11,6.754,61.78,33.641,135.031,60.495,215.706,65.645,86.1,5.507,181.014-18.594,220.7-67.864" transform="translate(267.71 165.741)"/><path class="f" d="M-259.69-3.764A1500.188,1500.188,0,0,1-108.939-83.711c23.529-10.868,48.159-21.493,76.272-26.449,56.455-9.977,113.806,4.373,163.041,25.542q19.941,8.6,38.4,18.464C220.649-38.434,267.106-6.9,307.164,27.787c39.608,34.272,73.1,72.383,124.2,100.792a338.893,338.893,0,0,0,105.587,36.734c33.515,5.62,68.668,5.636,100.595-3.013a170.8,170.8,0,0,0,16.514-5.361c32.618-12.52,55.994-33.495,70.511-56.089a146.413,146.413,0,0,0,11.649-22.141c8.347-19.549,12.8-39.828,16.156-59.669,5.53-31.519,10.907-63.167,37.585-89.39,25.347-24.846,72.1-41.383,119.387-39.39,67.311,2.851,117.774,36.572,167.6,63.669q5.914,3.239,11.931,6.317C1149.61-8.3,1220.838,16.239,1298.825,19.964c83.031,3.968,173.82-20.424,211.277-68.706" transform="translate(271.314 171.449)"/><path class="f" d="M-257.41,5.541a1397.192,1397.192,0,0,1,148.5-78.214C-85.69-83.233-61.392-93.518-33.792-98.41c55.431-9.815,111.809,3.6,160.481,23.631q19.709,8.122,38.021,17.492C216.281-30.949,262.7-.81,302.966,32.492c39.787,32.977,73.43,69.873,124.073,97.342A366.063,366.063,0,0,0,535.776,167.9c34.359,6.058,70.665,6.479,103.616-2.154a171.569,171.569,0,0,0,17.1-5.41c33.822-12.666,57.812-34.272,73.1-57.531a166.193,166.193,0,0,0,12.392-22.675c9.038-20.019,14.543-40.751,19.33-60.916,7.809-32.1,16.8-63.588,45.471-89.535,25.936-23.5,71.074-39.6,117.16-37.8,65.7,2.543,115.521,34.369,164.475,59.62q5.786,2.98,11.726,5.9c59.681,29.235,128.963,51.489,203.98,53.773,79.958,2.429,166.651-22.254,201.855-69.549" transform="translate(274.871 174.631)"/><path class="f" d="M-255.14,16.238A1299.452,1299.452,0,0,1-109.022-60.243c22.914-10.269,46.853-20.213,73.967-25.024,54.407-9.718,109.812,2.786,157.92,21.687,13.16,5.151,25.782,10.771,37.713,16.553C211.812-22.064,258.126,6.7,298.528,38.638c40.018,31.616,73.967,67.233,124.226,93.828,32.49,17.249,71.2,31.843,111.86,39.358,35.179,6.479,72.636,7.289,106.637-1.3a174.638,174.638,0,0,0,17.692-5.442A153.542,153.542,0,0,0,734.6,106.114a183.806,183.806,0,0,0,13.16-23.291c9.755-20.489,16.335-41.674,22.531-62.163,10.036-32.685,22.582-63.928,53.331-89.681,26.422-22.125,69.82-37.738,114.83-36.167,64.008,2.235,113.192,32.167,161.3,55.587,3.789,1.846,7.681,3.677,11.521,5.458,58.631,27.049,125.968,46.97,198.117,47.829,76.81.907,159.457-24.068,192.433-70.359" transform="translate(278.413 176.47)"/><path class="f" d="M-252.87,26.905A1212.382,1212.382,0,0,1-109.057-47.843c22.582-9.961,46.085-19.566,72.815-24.3,53.383-9.491,107.789,2.008,155.36,19.76,13.032,4.859,25.6,10.139,37.381,15.6,50.912,23.6,97.159,50.975,137.745,81.55,40.2,30.255,74.531,64.592,124.2,90.345,33.745,17.509,73.4,32.6,115.009,40.638,36.024,6.932,74.633,8.1,109.658-.453a180.229,180.229,0,0,0,18.306-5.458,157.807,157.807,0,0,0,78.192-60.43,205.46,205.46,0,0,0,13.928-23.858c10.472-20.958,18.076-42.6,25.6-63.41,12.264-33.236,28.394-64.252,61.32-89.827,26.781-20.8,68.668-35.924,112.654-34.564,62.472,1.944,110.862,29.98,158.227,51.57q5.607,2.543,11.317,5.021c57.607,24.83,122.9,42.468,192.254,41.885,73.84-.615,152.262-25.915,183.011-71.266" transform="translate(281.955 178.307)"/><path class="f" d="M-250.6,37.563a1131.852,1131.852,0,0,1,141.509-73c22.274-9.718,45.573-18.934,71.689-23.6,52.358-9.345,105.792,1.2,152.8,17.816,12.8,4.519,25.3,9.491,37.073,14.577,50.592,22.246,96.755,48.274,137.489,77.517,40.376,28.911,75.043,61.936,124.1,86.814,35.076,17.816,75.5,33.43,118.235,42,36.869,7.337,76.6,8.908,112.654.389a184.514,184.514,0,0,0,18.87-5.507c37.457-13.168,63.24-36.686,80.778-61.871a249.54,249.54,0,0,0,14.645-24.441c11.189-21.412,19.894-43.5,28.932-64.641,14.44-33.851,33.9-64.593,69.129-89.973,27.037-19.436,67.515-34.013,110.273-32.944,60.859,1.62,108.532,27.777,155.1,47.521,3.661,1.62,7.374,3.094,11.112,4.584,56.557,22.643,120.053,37.965,186.391,35.876,70.767-2.138,145.068-27.7,173.589-72.027" transform="translate(285.497 180.153)"/><path class="f" d="M-248.33,48.251a1055.006,1055.006,0,0,1,139.2-71.265C-87.158-32.376-64.218-41.333-38.615-45.9c51.36-9.184,103.8.4,150.214,15.889,12.8,4.211,25.065,8.86,36.792,13.686C198.667,4.517,244.764,29.138,285.675,57c40.555,27.534,75.58,59.28,124.15,83.4,36.28,18.011,77.5,34.126,121.308,43.229,37.714,7.775,78.6,9.718,115.726,1.247a185.727,185.727,0,0,0,19.458-5.539c38.661-13.33,65.032-37.5,83.338-63.329a241.667,241.667,0,0,0,15.362-25.008c11.957-21.882,21.865-44.428,32.106-65.888C813.817-9.328,836.578-39.826,874.086-65c27.242-18.27,66.414-32.3,108.045-31.357,59.246,1.344,106.2,25.575,151.981,43.488,3.584,1.409,7.246,2.8,10.907,4.146,55.508,20.44,117.006,33.479,180.528,30.013,67.695-3.677,137.9-29.527,164.167-72.885" transform="translate(289.039 181.985)"/><path class="f" d="M-246,61.345A983.892,983.892,0,0,1-109.254-8.187c21.66-9.054,44.268-17.671,69.385-22.173,50.31-9.022,101.721-.308,147.628,13.962,12.6,3.92,24.809,8.228,36.459,12.731,50,19.469,96.071,42.709,137.207,69.209,40.735,26.239,76.144,56.688,124.15,79.931,37.406,18.254,79.472,34.888,124.2,44.509,38.533,8.212,80.573,10.544,118.747,2.089a187.006,187.006,0,0,0,20.047-5.555c39.89-13.508,66.85-38.289,85.9-64.787A275.755,275.755,0,0,0,770.65,96.152c12.622-22.351,23.5-45.351,35.281-67.135C825.005-6,850.941-36.288,890.78-61.15,918.047-78.189,956.017-91.633,996.5-90.887c57.735.956,103.974,23.258,148.933,39.455,3.559,1.263,7.118,2.494,10.728,3.709,54.458,18.237,114.011,28.96,174.665,24.052,64.648-5.2,130.7-31.341,154.745-73.679" transform="translate(292.675 181.395)"/><path class="f" d="M-243.78,76.347A920.387,920.387,0,0,1-109.21,8.563C-87.857-.183-65.685-8.476-40.978-12.9,8.309-21.757,58.747-14,104.09-.879c12.469,3.612,24.553,7.6,36.152,11.775C189.871,29,235.826,50.865,277.09,76.006c40.965,24.878,76.809,53.886,124.124,76.449,38.84,18.464,81.7,35.633,127.58,45.788,39.378,8.649,82.57,11.338,121.768,2.948a190.5,190.5,0,0,0,20.636-5.556c40.965-13.686,68.668-39.1,88.484-66.245,6.273-8.617,11.8-17.412,16.924-26.142,13.339-22.821,25.3-46.274,38.4-68.383,21.2-35.633,50.259-65.71,92.709-90.394,27.242-15.857,64.008-28.652,103.437-28.134,56.045.745,101.542,21.169,145.708,35.422,3.482,1.118,6.99,2.219,10.523,3.239,53.408,16.035,111.015,24.457,168.8,18.124,61.448-6.738,123.51-33.171,145.3-74.5" transform="translate(296.138 178.897)"/><path class="f" d="M-241.51,91.351A862.114,862.114,0,0,1-109.244,25.285c21.02-8.438,42.962-16.391,67.08-20.748,48.262-8.7,97.7-1.9,142.507,10.107,12.315,3.239,24.323,6.948,35.844,10.8,49.3,16.739,95.189,37.223,136.644,61,40.965,23.534,77.3,51.182,124.073,72.966,40.146,18.707,83.825,36.427,130.73,47.084,40.223,9.086,84.49,12.18,124.79,3.806a197.554,197.554,0,0,0,21.251-5.636c42.3-13.832,70.46-39.893,91.019-67.686,6.5-8.811,12.315-17.816,17.666-26.708,14.056-23.291,27.139-47.181,41.682-69.646,23.478-36.167,55.533-66.147,100.569-90.54C951.8-64.623,987.569-76.754,1025.795-76.43c54.432.437,99.238,18.966,142.584,31.373,3.431.972,6.862,1.927,10.241,2.851C1231-28.375,1286.639-22.268,1341.558-30.043c58.5-8.244,116.315-34.985,135.876-75.347" transform="translate(299.68 176.413)"/><path class="f" d="M-239.24,106.3c39.458-24.391,83.041-45.96,129.962-64.317,20.713-8.1,42.3-15.759,65.928-20.035,47.238-8.552,95.7-2.689,139.921,8.1,12.187,2.98,24.093,6.317,35.537,9.864,49,15.389,94.824,34.532,136.439,57,41.247,22.125,77.936,48.4,124.047,69.435,41.477,18.9,85.924,37.252,133.879,48.363,40.965,9.524,86.539,12.957,127.811,4.648a202.164,202.164,0,0,0,21.84-5.653c43.525-14.01,72.278-40.7,93.58-69.144,6.759-9.005,12.8-18.189,18.434-27.275C802.911,93.5,817.069,69.174,833.02,46.4c25.731-36.75,60.705-66.65,108.429-90.7,27.037-13.605,61.832-25.008,98.879-24.911,52.845.13,96.934,16.78,139.486,27.34,3.354.842,6.734,1.62,10.113,2.413C1241.237-27.812,1295-23.99,1347-33.205c55.457-9.718,109.146-36.815,126.454-76.125" transform="translate(303.222 173.971)"/><path class="f" d="M-237,121.308c38.6-23.926,81.462-44.928,127.734-62.584C-88.783,50.885-67.61,43.58-44.49,39.385c46.239-8.374,93.707-3.466,137.361,6.236,12.059,2.689,23.837,5.685,35.23,8.908,48.662,13.977,94.411,31.7,136.209,52.769,41.477,20.829,78.55,45.707,124.047,66.018,42.885,19.1,88,37.949,137.028,49.643,41.861,9.961,88.484,13.816,130.806,5.507a203.8,203.8,0,0,0,22.428-5.685c44.729-14.172,74.07-41.5,96.165-70.585,6.964-9.216,13.262-18.61,19.177-27.875,15.49-24.3,30.724-49,48.057-72.108C870.183,14.96,907.819-15,958.334-38.618c26.832-12.536,60.679-23.194,96.6-23.307,51.206-.162,94.6,14.577,136.362,23.323,3.277.68,6.605,1.344,9.908,1.96,50.285,9.443,102.054,10.949,151.212.292,52.384-11.338,101.952-38.629,117.032-77" transform="translate(306.717 171.48)"/><path class="f" d="M-234.69,136.284c37.707-23.434,79.794-43.869,125.328-60.851,20.1-7.531,40.965-14.5,63.624-18.61,45.215-8.228,91.71-4.26,134.8,4.292,11.905,2.381,23.657,5.118,34.923,7.953a788.053,788.053,0,0,1,135.978,48.671c41.631,19.468,79.216,42.954,124.15,62.519,44.012,19.29,89.969,38.726,140.049,50.939,42.706,10.4,90.482,14.577,133.853,6.365a208.067,208.067,0,0,0,23.043-5.734c45.932-14.334,75.888-42.29,98.726-72.027,7.22-9.41,13.749-19,19.945-28.441,16.207-24.7,32.618-49.9,51.206-73.355,30.34-37.868,70.844-67.9,124.175-90.961,26.6-11.516,59.527-21.38,94.322-21.7,49.619-.47,92.171,12.374,133.136,19.274,3.252.534,6.478,1.053,9.729,1.539,49.235,7.224,99.059,6.479,145.349-5.653,49.312-12.844,94.732-40.492,107.533-77.841" transform="translate(310.322 169.007)"/><path class="f" d="M-232.42,151.3c36.8-22.943,78.105-42.805,122.9-59.1,19.765-7.24,40.35-13.864,62.471-17.816,44.191-8.1,89.611-5.07,132.24,2.365,11.777,2.057,23.35,4.406,34.59,7a791.619,791.619,0,0,1,135.7,44.541c42.015,17.995,80.061,40.054,124.2,58.924,45.5,19.436,92.171,39.488,143.378,52.218,43.525,10.836,92.453,15.468,136.874,7.224a215.227,215.227,0,0,0,23.606-5.766c47.135-14.577,77.68-43.1,101.286-73.485,7.425-9.6,14.21-19.436,20.662-29.008,16.872-25.17,34.385-50.825,54.407-74.553,32.746-38.5,75.734-68.674,132.061-91.155,26.346-10.528,58.375-19.566,92.171-20.1,48.006-.761,89.944,10.188,130.09,15.241q4.762.607,9.524,1.1c48.185,5.037,96.063,1.927,139.486-11.581,46.239-14.383,87.563-42.29,98.188-78.667" transform="translate(313.864 166.541)"/><path class="f" d="M-230.15,166.259c35.981-22.473,76.586-41.775,120.719-57.385A394.47,394.47,0,0,1-47.984,91.69c43.167-7.9,87.716-5.847,129.654.437,11.649,1.749,23.043,3.774,34.308,6.041A796.806,796.806,0,0,1,251.522,138.66c41.861,16.747,80.419,37.35,123.842,55.506,46.879,19.549,94.322,40.265,146.476,53.563,44.37,11.338,94.45,16.2,139.9,8.1a213.358,213.358,0,0,0,24.2-5.782c48.339-14.674,79.37-43.909,103.846-74.942,7.681-9.718,14.7-19.776,21.43-29.575,17.641-25.753,36.254-51.829,57.633-75.963,34.9-39.018,80.6-69.5,139.947-91.252,26.09-9.556,57.249-17.735,89.765-18.48,46.393-1.069,87.614,7.969,126.966,11.192,3.1.259,6.221.486,9.345.68,47.135,2.818,93.042-2.575,133.6-17.541,43.193-15.889,80.394-44.1,88.766-79.493" transform="translate(317.406 164.056)"/><path class="f" d="M-227.87,181.223c35.1-22,74.963-40.729,118.389-55.636a408.916,408.916,0,0,1,60.167-16.472c42.143-7.742,85.719-6.657,127.094-1.506,11.521,1.441,22.864,3.239,34,5.086a799.435,799.435,0,0,1,135.313,36.329c42.168,15.419,81.213,34.612,123.97,52.089,48.262,19.728,96.4,40.978,149.6,54.81,45.215,11.678,96.421,17.088,142.917,8.908A216.521,216.521,0,0,0,688.364,259c49.568-14.82,81.316-44.687,106.407-76.384,7.911-9.993,15.183-20.165,22.2-30.142,18.357-26.109,38.046-52.672,60.833-77.1,37.125-39.6,85.387-70.488,147.807-91.4,25.808-8.649,56.1-15.921,87.486-16.877,44.78-1.361,85.284,5.782,123.842,7.175,3.047.113,6.094.178,9.14.227,46.086.632,90.046-7.078,127.734-23.469,40.12-17.428,73.2-45.934,79.37-80.336" transform="translate(320.963 161.596)"/><path class="f" d="M-225.6,196.266c34.242-21.524,73.367-39.7,116.085-53.919a431.878,431.878,0,0,1,58.887-15.759c41.119-7.58,83.722-7.451,124.534-3.434q17.052,1.7,33.668,4.146A800.948,800.948,0,0,1,242.81,159.5c42.348,14.075,81.93,31.826,123.945,48.59,49.67,19.841,98.5,41.771,152.748,56.089,46.086,12.115,98.419,17.914,145.938,9.718a222.035,222.035,0,0,0,25.373-5.863c50.771-15,83.133-45.5,108.992-77.842,8.142-10.188,15.644-20.554,23.043-30.774,19.049-26.563,39.839-53.563,64.008-78.327,39.4-40.168,90.123-71.606,155.693-91.544,25.6-7.758,54.944-14.091,85.207-15.257,43.192-1.62,82.954,3.563,120.719,3.126,2.97,0,5.94-.1,8.935-.211,44.526-1.382,87.2-11.683,121.871-29.413,37.048-18.95,66.005-47.748,69.922-81.162" transform="translate(324.505 159.074)"/><path class="f" d="M-223.33,211.186c33.388-21.042,71.78-38.645,113.781-52.17A453.143,453.143,0,0,1-51.686,143.97c40.12-7.434,81.725-8.309,121.973-5.361,11.24.794,22.377,1.879,33.284,3.239a804.747,804.747,0,0,1,134.98,28.036c42.5,12.714,82.57,29.008,123.893,45.124,51.206,19.938,100.62,42.549,155.9,57.385C565.221,284.946,618.732,291.117,667.3,283a224.655,224.655,0,0,0,25.987-5.879c51.974-15.176,84.9-46.306,111.527-79.364,8.372-10.382,16.13-20.959,23.709-31.292,19.766-27.032,41.656-54.486,67.208-79.574,41.631-40.751,94.732-72.885,163.553-91.69a388.1,388.1,0,0,1,82.877-13.589c41.58-1.976,80.624,1.377,117.57-.907q4.378-.259,8.756-.632c43.613-3.717,84.234-16.1,116.008-35.357,33.975-20.489,58.887-49.578,60.474-81.988" transform="translate(328.047 156.657)"/><path class="f" d="M-221.06,226.138c32.536-20.56,70.2-37.595,111.476-50.42a484.678,484.678,0,0,1,56.711-14.334c39.1-7.272,79.728-9.1,119.387-7.3,11.112.486,22.147,1.247,33.079,2.219a808.924,808.924,0,0,1,134.673,23.987c42.68,11.386,83.261,26.19,123.868,41.658,52.563,20,102.72,43.31,159.047,58.665,47.724,12.957,102.413,19.549,152.006,11.467a230.735,230.735,0,0,0,26.5-5.912c53.178-15.338,86.718-47.116,114.088-80.757,8.628-10.577,16.617-21.347,24.451-31.859,20.483-27.534,43.525-55.409,70.409-80.822C948.543,51.391,1004.153,18.4,1076.175.906a453.1,453.1,0,0,1,80.65-12.067c39.966-2.268,78.294-.81,114.446-4.859,2.868-.324,5.71-.7,8.551-1.085,42.679-6.054,81.225-20.515,110.093-41.3,30.929-22.011,51.616-51.392,51.053-82.814" transform="translate(331.589 154.21)"/><path class="f" d="M-218.78,241.155c31.67-20.1,68.6-36.573,109.146-48.7A527.264,527.264,0,0,1-54.075,178.83,587.225,587.225,0,0,1,62.752,169.6q16.476.267,32.746,1.263a811.569,811.569,0,0,1,134.468,19.873c42.86,10.042,83.953,23.372,123.868,38.192,54.1,20.052,104.794,44.1,162.17,59.944C564.651,302.3,620.363,309.23,671.032,301.2a230.769,230.769,0,0,0,27.139-5.96c54.381-15.5,88.536-47.894,116.674-82.2,8.833-10.771,17.077-21.736,25.193-32.393,21.225-27.972,45.292-56.332,73.609-82.069,46.086-41.9,104.179-75.914,179.222-91.965a554.757,554.757,0,0,1,78.448-10.544c38.4-2.575,75.965-3.029,111.323-8.973,2.791-.47,5.581-.972,8.347-1.523,41.762-8.36,78.267-24.871,104.281-47.165,27.856-23.534,44.447-53.222,41.631-83.656" transform="translate(335.146 151.712)"/><path class="f" d="M-216.51,256.067c71.3-45.8,173.845-69.646,275.515-70.958s202.265,18.821,290.519,50.76c55.482,20.084,106.893,44.849,165.32,61.24s127.4,23.647,185.776,7.191c73.071-20.586,110.094-71.185,145.2-116.616C903.5,112.855,983.484,35.516,1109.759,12.225c62.907-11.6,131.651-8.357,192.459-23.793,84.311-21.412,140.408-80.53,130.576-137.672" transform="translate(338.688 149.24)"/></g><g transform="translate(-109.37 -122.61)"><path class="f" d="M-41.8,874.562c-10.753-55.069,75.171-101.6,161.837-110.138s173.615,9.1,259.514,20.424,182.5,15.047,254.239-16.893C725.5,727.123,746.7,641.231,841.173,602.878c73.532-29.883,169.262-20.942,244.587,1.3,42.6,12.569,78.832,33.722,119.541,48.461C1389.976,719.445,1402.445,856,1559.316,876.359c169.749,22.076,261.92-30.32,293.975-66.585,40.965-46.533,109.556-167.312-58.222-251.244-68.181-34.094-135.466-70.439-185.6-115.337-75.094-67.2-74.582-169.968,21.43-225.507,65.8-38.062,166.856-51.991,211.559-100.792,30.032-32.8,25.936-75.088,0-109.312S1771.822-53.753,1722.894-75.7" transform="translate(42.717 75.7)"/><path class="f" d="M-40.565,875.318c-7.425-56.689,78.038-105.6,167.291-115.353,87.051-9.507,175.51,8.018,261.408,20.505,84.874,12.358,179.222,17.946,250.6-11.078C730.09,732.237,755.77,650.7,850.015,612.85c75.068-29.98,169.262-24.408,246.4-4.972,44.319,11.176,83.594,31.114,126.224,46.047C1403.427,717.287,1418.4,849.4,1571.768,869.487c165.063,21.558,256.748-28.02,290.058-63.783,42.219-45.351,107.533-161.676-51-244.57-65.365-34.208-130.166-71.266-179.5-115.855-72.867-65.629-73.532-164.72,17.077-219.789,62.7-38.095,160.122-53.611,204.62-101.78,30.545-32.944,28.676-74.618,6.119-109.085-22.787-34.872-64.366-63.459-111.271-87.025" transform="translate(45.371 77.745)"/><path class="f" d="M-39.233,876.023C-43.33,817.8,41.673,766.452,133.511,755.5c87.588-10.431,177.4,6.916,263.3,20.6,83.876,13.363,175.714,20.829,246.994-5.3,90.968-33.462,120.975-110.769,215.246-147.973,76.477-30.207,169.365-27.923,248.2-11.24,46.086,9.718,88.331,28.49,132.932,43.634,176.662,60.057,194.174,187.574,344.234,207.318,160.3,21.055,251.423-25.7,286.013-60.884,43.346-44.087,105.562-156.1-43.73-238.092-62.6-34.353-124.918-72.059-173.436-116.406-70.665-64.026-72.483-159.505,12.8-214.039,59.578-38.046,153.311-55.134,197.63-102.671,31.057-33.074,31.415-74.181,12.085-108.874-19.714-35.39-57.812-65.5-102.848-90.7" transform="translate(47.931 79.777)"/><path class="f" d="M-37.8,876.713c-.768-59.814,83.774-113.539,178.2-125.7,88.049-11.338,179.222,5.8,265.2,20.7,82.852,14.35,172.309,23.712,243.358.5C739.566,742.426,774,669.427,868.2,632.774c77.962-30.336,169.544-31.47,250.015-17.509,47.9,8.309,93.042,25.915,139.614,41.237,172.514,56.883,192.715,179.67,339.37,199.219,155.488,20.57,246.072-23.388,281.942-57.984,44.447-42.857,103.616-150.629-36.484-231.451-59.835-34.515-119.439-72.885-167.342-116.924-68.156-62.568-71.458-154.322,8.372-208.322,56.506-38.208,146.476-56.931,190.769-103.789,31.441-33.317,34.206-73.808,18.1-108.664-16.642-36.021-51.206-67.605-94.45-94.378" transform="translate(50.386 81.841)"/><path class="f" d="M-36.28,877.44c2.56-61.4,86.641-117.491,183.677-130.87,88.459-12.212,181.117,4.665,267.066,20.764,81.93,15.338,168.981,26.611,239.748,6.3C744.437,747.542,783.3,678.852,877.419,642.75c79.37-30.482,169.8-35.066,251.807-23.777,49.773,6.851,97.779,23.291,146.3,38.872,168.213,53.854,191.255,171.782,334.505,191.024,150.7,20.1,240.67-21.056,277.9-55.069,45.523-41.625,101.7-145.252-29.213-224.859-57.1-34.71-114.113-73.776-161.3-117.459-65.877-61-70.434-149.172,4.02-202.572,53.459-38.354,139.716-58.632,183.882-104.89,31.9-33.381,37-73.371,24.093-108.437-13.544-36.686-44.831-69.646-86.052-98.1" transform="translate(52.761 83.867)"/><path class="f" d="M-34.76,878.114c5.914-62.973,89.611-121.395,189.13-136.052,88.92-13.087,183.011,3.531,268.961,20.861,80.855,16.31,165.576,29.591,236.112,12.1,89.944-22.3,133.136-86.782,227.2-122.35,80.957-30.612,170.082-38.71,253.625-30.029,51.642,5.361,102.413,20.7,152.979,36.41,163.86,50.923,189.8,163.878,329.615,182.845,145.938,19.6,235.37-18.756,273.954-52.186,46.547-40.394,99.852-139.955-21.993-218.234-54.355-34.952-108.762-74.618-155.181-117.993-63.573-59.442-69.436-144.151-.307-196.855,50.31-38.4,132.829-60.2,176.815-105.764,32.414-33.527,39.915-73,30.084-108.226-10.395-37.366-38.4-71.816-77.629-101.829" transform="translate(55.133 85.931)"/><path class="f" d="M-33.24,878.829C-24,814.269,59.136,753.515,161.344,737.61c89.381-13.929,184.88,2.365,270.856,20.959,79.856,17.25,162.17,32.491,232.5,17.817,89.611-18.594,137.233-78.765,231.171-113.8,82.442-30.774,170.415-42.4,255.417-36.3,53.562,3.855,107.123,18.124,159.687,34.013,159.3,48.121,188.337,156.039,324.75,174.73,141.1,19.161,229.942-16.472,269.806-49.287,47.571-39.2,97.983-134.789-14.747-211.643-54.5-37-104.352-76.628-149.113-118.527-61.448-57.855-68.463-139.017-4.66-191.121,47.238-38.58,126.146-61.871,169.979-106.785,32.875-33.673,42.757-72.658,36.075-108-7.22-38.095-31.825-73.954-69.128-105.57" transform="translate(57.504 87.969)"/><path class="f" d="M-31.72,879.531c12.6-66.131,95.244-129.2,200.037-146.4,89.867-14.755,186.9,1.2,272.75,21.056,78.858,18.2,158.74,35.406,228.867,23.7,89.2-14.9,141.3-70.763,235.165-105.278,83.953-30.871,170.773-46.161,257.235-42.565,55.456,2.3,111.758,15.565,166.42,31.584,154.592,45.351,186.9,148.086,319.886,166.5,136.311,18.61,224.54-14.14,265.761-46.387,48.646-37.981,96.242-129.719-7.476-205.034a1415.2,1415.2,0,0,1-143.019-119.079c-59.041-56.283-67.515-134.011-9.012-185.371,44.165-38.759,119.387-63.507,163.066-107.773C1949.4,132.2,1964.095,94.513,1960,56.689c-3.968-38.872-25.322-76.125-60.807-109.279" transform="translate(59.876 90.021)"/><path class="f" d="M-30.2,880.258c15.874-67.719,98.111-133.089,205.491-151.617,90.328-15.565,188.644,0,274.645,21.136,77.859,19.112,155.385,38.305,225.308,29.478,88.792-11.208,145.4-62.714,239.133-96.695,85.463-30.984,171.157-49.95,259.027-48.833,57.4.729,116.417,12.957,173.052,29.154,149.881,42.759,185.418,140.183,314.919,158.306,131.523,18.14,219.137-11.84,261.741-43.472,49.516-36.8,94.6-124.715-.256-198.442-46.086-35.892-92.786-77.1-136.926-119.6-56.788-54.712-66.568-129.055-13.365-179.638,40.965-38.986,112.654-65.159,156.179-108.793,32.007-32.193,48.69-69.534,48.057-107.562-1.01-39.972-19.122-79.023-52.409-113" transform="translate(62.248 92.047)"/><path class="f" d="M-28.68,880.938c19.254-69.29,101-136.943,210.944-156.752C273.079,707.811,372.8,723,458.778,745.42,535.588,765.439,610.733,786.608,680.4,780.7c88.433-7.515,149.5-54.7,243.23-88.159,87.051-31.1,171.541-53.789,260.845-55.069,59.323-.874,121,10.5,179.734,26.773,145.093,40.216,183.933,132.278,310.105,150.127,126.735,17.638,213.684-9.54,257.7-40.589,50.464-35.633,93.093-119.969,7.015-191.834-43.525-36.3-87.512-77.906-130.858-120.131-54.535-53.109-65.774-124.148-17.717-173.9,37.918-39.244,105.894-66.779,149.215-109.781,32.608-32.16,51.25-69.186,54.048-107.352,2.5-40.746-12.755-81.143-44.089-116.778" transform="translate(64.619 94.104)"/><path class="f" d="M-27.16,881.671c22.582-70.877,103.9-140.8,216.4-161.967,91.3-17.153,192.459-2.381,278.434,21.315,75.913,20.926,148.5,44.1,218.011,41.075,88.024-3.822,153.619-46.647,247.1-79.607,88.51-31.195,171.9-57.66,262.663-61.353,61.217-2.494,125.583,8,186.391,24.295,140.28,37.755,182.5,124.391,305.266,141.964,121.922,17.152,208.2-7.272,253.625-37.69,51.411-34.418,91.71-115.3,14.261-185.226-40.709-36.783-82.186-78.732-124.764-120.666-52.307-51.538-65.006-119.289-22.07-168.171,34.744-39.536,99.161-68.415,142.277-110.785,34.846-34.224,54.816-71.347,60.04-107.125,6.069-41.469-6.255-83.187-35.589-120.471" transform="translate(66.991 96.124)"/><path class="f" d="M-25.64,882.33C.3,809.931,81.151,737.694,196.186,715.213c91.787-17.946,194.354-3.612,280.354,21.412,74.915,21.8,145.119,46.97,214.349,46.873,87.64-.146,157.716-38.613,251.09-71.071,90.046-31.292,172.232-61.547,264.455-67.6,63.163-4.146,130.192,5.523,193.1,21.947,135.39,35.357,181.014,116.487,300.376,133.768,117.16,16.667,202.726-4.972,249.579-34.774,52.307-33.252,90.533-110.753,21.532-178.633-37.918-37.253-76.809-79.542-118.7-121.2-50.08-49.934-64.315-114.478-26.423-162.437,31.518-39.86,92.427-70.051,135.364-111.757,35.358-34.369,57.94-71.023,66.031-106.9,9.628-42.193.2-85.247-27.191-124.2" transform="translate(69.363 98.219)"/><path class="f" d="M-24.12,883.076c29.264-74.052,109.709-148.459,227.3-172.333,92.171-18.707,196.3-4.859,282.249,21.509,73.942,22.675,141.714,49.854,210.74,52.656,87.255,3.547,161.812-30.547,255.058-62.5,91.583-31.389,172.591-65.516,266.273-73.889,65.057-5.815,134.724,3.077,199.7,19.55,130.448,33.009,179.5,108.745,295.486,125.589,112.321,16.326,197.144-2.721,245.56-31.875,53.178-32.1,89.611-106.332,28.752-172.042-35-37.868-71.689-80.352-112.654-121.734-47.878-48.331-63.726-109.7-30.724-156.687,28.163-40.217,85.694-71.67,128.425-112.778,35.844-34.5,61.115-70.682,72.047-106.7,13.206-42.911,6.684-87.317-18.793-127.954" transform="translate(71.734 100.227)"/><path class="f" d="M-22.6,883.737C9.993,808.115,90.054,731.488,210.158,706.27c92.786-19.436,198.22-6.106,284.195,21.59,72.995,23.55,138.257,52.753,207.1,58.47,86.872,7.208,165.934-22.5,259.053-53.967s172.9-69.468,268.065-80.157c66.952-7.5,139.281.68,206.464,17.136,125.455,30.774,178.044,100.857,290.647,117.426,107.533,15.824,191.691-.47,241.489-28.976,54.048-30.968,88.741-102.039,36.024-165.433-32.081-38.516-66.389-81.162-106.586-122.269-45.676-46.744-63.214-104.987-35.128-150.953,24.835-40.621,78.986-73.306,121.513-113.8,36.51-34.612,64.289-70.326,78.013-106.477,16.8-43.584,13.2-89.319-10.369-131.631" transform="translate(74.106 102.302)"/><path class="f" d="M-21.07,884.446C14.954,807.236,94.451,728.39,217.219,701.763c93.3-20.214,200.165-7.37,286.038,21.688,72.073,24.392,134.9,55.619,203.494,64.252,86.487,10.884,170.031-14.415,263.021-45.351,94.732-31.551,173.18-73.452,269.883-86.41,68.821-9.232,143.787-1.7,213.146,14.723,120.514,28.523,176.662,92.953,285.757,109.247,102.72,15.322,186.186,1.765,237.444-26.093,54.919-29.818,88.228-97.8,43.269-158.825-28.881-39.2-61.064-81.955-100.441-122.8-43.525-45.124-62.856-100.29-39.454-145.22,21.327-41.026,72.252-74.926,114.574-114.786,36.894-34.742,67.49-69.97,84-106.267,20.4-44.269,19.725-91.361-1.946-135.388" transform="translate(76.493 104.347)"/><path class="f" d="M-19.55,885.179C19.7,806.4,98.89,725.35,224.09,697.3c93.81-20.959,202.265-8.649,287.933,21.785,71.126,25.218,131.5,58.5,199.858,70.05,86.1,14.578,174.1-6.349,267.015-36.879,96.216-31.632,173.436-77.453,271.675-92.678,70.69-10.949,148.293-4.017,219.854,12.31,115.5,26.385,175.1,85.049,280.867,101.067,97.932,14.836,180.63,4,233.4-23.177,55.764-28.7,88-93.682,50.541-152.249-25.6-39.941-55.815-82.749-94.373-123.322-41.323-43.52-62.6-95.561-43.807-139.486,17.743-41.463,65.544-76.562,107.533-115.79,37.432-34.871,70.741-69.646,90.021-106.04,23.979-44.928,26.216-93.36,6.427-139.1" transform="translate(78.865 106.368)"/><path class="f" d="M-18,885.865c42.5-80.352,121.308-163.587,249.016-193.032,94.322-21.72,204.108-9.961,289.828,21.849,70.229,26.061,128.016,61.386,196.248,75.849,85.719,18.205,178.3,1.733,270.984-28.328,97.779-31.681,173.692-81.469,273.493-98.93,72.508-12.7,152.748-6.3,226.537,9.9,110.452,24.3,173.641,77.145,276,92.888,93.119,14.334,175.074,6.2,229.353-20.279,56.583-27.615,88.024-89.6,57.761-145.625-21.993-40.735-50.566-83.559-88.254-123.872-39.173-41.9-62.5-90.928-48.185-133.752,14-41.9,58.887-78.165,100.723-116.778,37.944-35,73.993-69.209,95.986-105.829,27.595-45.572,32.771-95.357,14.85-142.823" transform="translate(81.284 108.419)"/><path class="f" d="M-16.51,886.555c45.932-81.939,124.354-167.36,254.546-198.166,94.732-22.449,206.105-11.257,291.722,21.946,69.308,26.887,124.738,64.155,192.613,81.647,85.438,21.752,182.448,9.8,274.978-19.776,99.34-31.762,173.9-85.519,275.285-105.279,74.249-14.447,157.2-8.5,233.219,7.5,105.434,22.19,172.258,69.1,271.137,84.709,88.382,13.718,169.518,8.406,225.308-17.379,57.4-26.53,88.408-85.534,65.032-139.032-18.933-43.509-46.551-85.314-82.186-124.407-37.022-40.265-62.523-86.231-52.538-127.954,10.241-42.338,52.128-79.785,93.784-117.783,38.4-35.115,77.27-68.8,102-105.619,31.192-46.2,39.3-97.331,23.248-146.532" transform="translate(83.608 110.482)"/><path class="f" d="M-15,887.264c49.286-83.543,127.324-171.118,260.026-203.4C340.4,660.688,453.154,671.3,538.643,705.909c68.437,27.7,121.359,67.054,189,87.462,85.054,25.446,186.57,17.9,279.074-11.224,100.9-31.81,174.1-89.552,277.1-111.466,76.118-16.2,161.607-10.657,239.9,5.07C1624.088,695.932,1694.5,736.958,1790,752.3c83.594,13.233,163.86,10.576,221.262-14.48,58.222-25.461,89.125-81.421,72.277-132.44-14.97-43.886-40.641-86.032-76.092-124.925-34.9-38.645-62.651-81.534-56.89-122.285,6.042-42.743,45.446-81.389,86.871-118.787,39.019-35.228,80.547-68.366,107.994-105.392,34.771-46.826,45.823-99.305,31.646-150.257" transform="translate(85.964 112.527)"/><path class="f" d="M-13.47,887.99C39.119,802.877,116.8,713.066,251.983,679.458c95.909-23.89,210.151-13.9,295.512,22.125,67.567,28.506,117.954,69.954,185.367,93.245,84.7,29.154,190.795,26.093,282.94-2.689,102.566-31.729,174.255-93.6,278.9-117.734,77.911-17.978,166.011-12.714,246.609,2.672,95.269,18.189,169.314,53.352,261.382,68.35,78.781,12.747,158.33,12.747,217.192-11.581S2110,656.637,2099.43,608.03c-9.4-43.148-34.974-85.842-70.025-125.476-32.8-37.01-62.907-76.756-61.243-116.535,1.818-43.132,38.865-82.959,79.933-119.856,39.685-35.293,83.85-68.026,113.985-105.182C2200.453,93.546,2214.461,39.715,2202.149-13" transform="translate(88.352 114.553)"/><path class="f" d="M-11.95,888.707c55.917-86.734,133.316-178.5,270.907-213.8,96.5-24.522,212.2-15.241,297.406,22.222,66.568,29.316,114.574,72.885,181.782,99.027,84.311,32.815,194.891,34.143,286.909,5.863,104.1-31.81,174.383-97.65,280.713-124,79.677-19.743,170.338-14.658,253.266.276,90.3,16.2,167.854,45.351,256.518,60.171,74.019,12.261,152.749,14.884,213.172-8.682,59.835-23.339,91.378-72.885,86.769-119.224-4.353-43.828-29.8-86.652-64.008-125.994-30.724-35.39-63.265-71.929-65.6-110.818-2.56-43.44,32.132-84.579,73.02-120.779,40.2-35.438,87.051-67.492,119.977-104.955,41.97-48.025,58.947-103.2,48.518-157.675" transform="translate(90.723 116.623)"/><path class="f" d="M-10.43,889.367C48.841,801.094,125.8,707.073,265.93,670.484c97.01-25.315,214.273-16.585,299.3,22.319C631.082,722.913,676.4,768.523,743.4,797.58c83.953,36.491,198.988,42.193,290.9,14.415,105.613-31.924,174.511-101.715,282.505-130.27,81.444-21.542,174.69-16.5,259.974-2.154s166.421,37.528,251.628,52.007c69.129,11.759,147.167,17.023,209.127-5.782,60.654-22.319,92.914-68.237,94.04-112.616s-24.707-87.462-57.863-126.545c-28.6-33.738-63.726-66.99-69.948-105.068-7.118-43.731,25.4-86.215,66.082-121.783s90.43-67.038,125.968-104.744c45.525-48.625,65.43-105.148,56.839-161.4" transform="translate(93.095 118.668)"/></g><g transform="translate(923.07 -466.984)"><path class="f" d="M425.741,1314.643c-74.608-29.154-78.115-100.727-34.359-148.816s120-79.915,187.748-115.159S712.01,970.107,717.592,914.73c7.169-70.8-85.387-135.081-73.532-205.7,9.243-54.971,80.24-96.581,154.848-119.855,42.168-13.135,90.917-17.736,134.6-28.587,198.117-49.06,374.164,30.353,497.546-34.159,133.572-69.937,126.761-148.216,102.08-186.781-31.62-49.416-137.515-158.841-346.052-128.7-84.7,12.245-171.541,22.675-258.361,19.258-129.859-5.167-256.134-69.824-264.429-151.941-5.556-56.284,40.53-114.835,8.347-167.442-21.583-35.374-76.272-59.8-134.6-68.528s-119.848-3.482-177.507,6.867" transform="translate(-360.53 366.527)"/><path class="f" d="M427.673,1316.864c-74.454-31.826-81.213-104.647-37.3-154.759,42.885-48.914,119.823-81.5,189.028-116.034,68.386-34.11,134.314-77.064,143.378-130.513,11.445-68.318-72.918-132.068-60.5-202.232,10.088-55.8,75.965-98.8,148.242-124.618,41.528-14.852,90.686-21.72,135.7-33.4,191.307-49.432,363.411,26,484.309-37.09,129.962-67.88,126.3-144.151,103.13-183.023-29.392-49.206-131.831-154.306-333.379-128.132-82.98,10.8-169.16,19.614-255.11,15.986-126.556-5.183-249.016-66.957-260.077-146.094C677.406,22.179,719.318-35.578,687.852-87.7c-21.43-35.633-73.967-60.883-130.576-71.363-57.121-10.56-118.389-7.985-176.815.4" transform="translate(-356.547 364.112)"/><path class="f" d="M431.132,1319.42c-74.249-34.467-84.337-108.518-40.274-160.687,42.015-49.724,119.644-83.138,190.334-116.924,69-32.976,135.7-73.581,148.217-125.087,15.746-65.823-60.68-129.055-47.494-198.847,10.728-56.689,71.689-101,141.662-129.428,40.965-16.618,90.456-25.7,137.054-38.192,184.7-49.529,352.76,21.768,471.1-39.828,126.377-65.823,125.839-140.069,104.153-179.152-27.139-48.979-126.2-149.852-320.679-127.565-81.521,9.329-167.035,16.44-252.063,12.585-123.151-5.28-241.95-64.188-255.75-140.377C697.738,22.63,735.554-34.317,704.6-85.953c-21.276-36.038-71.689-61.969-126.556-74.181-55.969-12.455-116.9-12.52-176.15-6.074" transform="translate(-354.169 361.361)"/><path class="f" d="M434.634,1322.278c-74.249-37.091-87.409-112.421-43.218-166.616,41.2-50.5,119.439-84.741,191.614-117.783,69.589-31.891,137.182-70.1,153.107-119.677,20.047-63.345-48.313-126.059-34.462-195.462,11.47-57.449,67.464-103.3,135.057-134.238,40.248-18.416,90.2-29.672,138.257-43,178.172-49.432,342.109,17.541,458.04-42.533,122.767-63.783,125.455-136.052,105.2-175.362-24.963-48.752-120.668-145.447-308.031-127-79.984,7.872-164.68,13.184-248.888,9.264C861.541,204.284,746.4,148.405,729.889,75.229,718.214,23.4,751.5-32.674,721.543-83.855c-21.276-36.329-69.461-63.167-122.537-77-54.816-14.366-115.445-17.055-175.458-12.552" transform="translate(-351.859 358.293)"/><path class="f" d="M438.132,1325.483c-74.044-39.731-90.482-116.309-46.086-172.544,40.376-51.278,119.234-86.393,192.92-118.673,70.178-30.774,138.615-66.617,157.946-114.252,24.374-60.851-35.844-123.095-21.43-192.061,12.238-58.308,63.189-105.7,128.5-139.065,39.608-20.246,89.918-33.608,139.46-47.813,171.721-49.206,331.484,13.313,444.932-45.254,119.157-61.71,124.867-131.89,106.253-171.539-22.787-48.509-115.214-141.122-295.358-126.448-78.525,6.479-162.375,10.042-245.79,5.928-116.392-5.734-227.868-58.729-247.045-128.91C738.687,24.514,767.8-30.717,738.508-81.429c-21.148-36.653-67.234-64.22-118.517-79.817-53.766-16.31-113.985-21.574-174.793-19.031" transform="translate(-349.519 354.894)"/><path class="f" d="M441.673,1328.919c-73.891-42.37-93.5-120.179-49.132-178.471,39.608-52.057,119-88.029,194.2-119.564,70.767-29.64,140.2-63.086,162.836-108.842,28.855-58.308-23.5-120.018-8.4-188.659,13.006-59.1,58.887-108.129,121.9-143.875,38.942-22.093,89.611-37.544,140.817-52.623,165.345-48.833,320.833,9.086,431.8-47.975,115.547-59.653,124.354-127.792,107.277-167.717-20.483-48.266-109.915-136.895-282.659-125.9-77.117,4.859-160.071,6.9-242.616,2.591-113.038-5.879-221.006-56.024-242.718-123.1-15.823-48.9,9.063-103.27-19.51-153.5-21.02-36.993-64.955-65.4-114.472-82.6-52.563-18.3-112.526-26.109-174.1-25.51" transform="translate(-347.249 351.198)"/><path class="f" d="M445.254,1332.724c-73.763-45.01-96.549-124.051-52.1-184.415,38.84-52.8,118.747-89.681,195.506-120.423,71.279-28.554,141.637-59.6,167.7-103.432,33.284-55.814-11.086-117.005,4.609-185.274,13.8-59.928,54.535-110.607,115.214-148.686,38.4-23.987,89.432-41.464,141.918-57.417,159.021-48.38,310.182,4.859,418.663-50.7,111.963-57.612,123.817-123.694,108.327-163.927C1526.6,270.463,1440.423,185.641,1275.1,193.14c-79.731,3.688-159.8,3.439-239.466-.745C925.953,186.37,821.466,139.043,797.271,74.969,779.349,27.5,800.062-26,772.18-75.758c-20.892-37.252-62.728-66.6-110.452-85.438-51.437-20.311-111.041-30.644-173.436-32" transform="translate(-344.992 347.263)"/><path class="f" d="M448.868,1336.453c-73.609-47.635-99.52-127.954-55.072-190.344,38.149-53.562,118.517-91.35,196.837-121.313C662.45,997.261,733.7,968.69,763.2,926.789c37.509-53.3,1.357-113.992,17.641-181.889,14.568-60.722,50.131-113.118,108.711-153.5,37.585-25.915,89.2-45.351,143.147-62.228,152.774-47.8,299.557.632,405.528-53.449,108.352-55.555,123.279-119.58,109.376-160.1-16.386-47.732-101.8-142.045-257.337-124.715-73.353,8.1-155.437.6-236.291-4.082-106.33-6.139-207.386-50.663-234.038-111.676-20.1-46.063-3.456-98.67-30.724-147.941-20.083-35.717-57.3-66.573-106.458-88.256C632.469-183.4,573.2-196.21,510.009-199.53" transform="translate(-342.692 343.341)"/><path class="f" d="M452.423,1340.194c-73.481-50.21-102.413-131.76-58.042-196.288,37.432-54.243,118.235-93,198.245-122.172,72.329-26.417,144.53-52.623,177.455-92.6,41.81-50.809,13.8-111,30.724-178.488,15.362-61.547,45.676-115.693,102.131-158.323,36.843-27.842,88.945-49.238,144.351-67.038,146.578-47.116,288.88-3.6,392.394-56.138,104.743-53.449,122.69-115.45,110.4-156.282-14.286-47.473-96.37-139.292-244.638-124.213-72.252,7.337-153.132-2.527-233.142-7.4C969.325,174.986,871.547,133.247,842.59,75.295c-22.3-44.654-9.7-96.354-36.2-145.139-19.608-35.948-55.162-67.565-102.413-91.074C654.1-185.472,594.626-201.011,531.9-205.88" transform="translate(-340.512 339.406)"/><path class="f" d="M456.057,1343.942c-73.3-52.9-105.434-135.582-60.987-202.2,36.741-55.069,117.928-94.7,199.423-123.094,72.841-25.364,145.938-49.125,182.294-87.171,46.086-48.315,26.269-107.983,43.7-175.1,16.181-62.373,41.2-118.236,95.551-163.133,36.1-29.786,88.74-53.093,145.579-71.848,140.459-46.355,278.229-7.807,379.259-58.843,101.132-51.441,122.127-111.336,111.45-152.492-12.238-47.181-90.865-136.328-231.964-123.646-71.279,6.479-150.8-5.669-229.993-10.738C990.753,169.292,896.2,130.323,865.067,75.465c-24.6-43.278-15.951-94.054-41.784-142.353-19.166-36.247-53.115-68.652-98.418-93.941-48.6-26.761-107.885-44.556-171.388-51.441" transform="translate(-338.333 335.446)"/><path class="f" d="M459.726,1347.634c-73.174-55.539-108.378-139.422-64.008-208.144,36.049-55.765,117.621-96.387,200.7-123.937,73.327-24.3,147.4-45.61,187.184-81.745,50.438-45.8,38.763-104.955,56.737-171.685,17-63.167,36.638-120.876,88.945-167.944,35.307-31.762,88.536-56.915,146.809-76.659,134.391-45.513,267.578-12.034,366.125-61.548,97.548-49.384,121.513-107.206,112.475-148.67-10.241-46.97-85.259-133.25-219.266-123.095-70.485,5.345-148.5-8.795-226.844-14.075-96.268-6.479-187.7-42.678-221.032-94.475C860.62,33.756,865.382-16.1,840.214-63.91c-20.355-38.629-53.562-71.719-94.4-96.727C698.521-189.6,639.4-209.651,575.094-218.54" transform="translate(-336.165 331.561)"/><path class="f" d="M463.365,1351.38c-73.02-58.179-111.271-143.26-66.9-214.072,35.384-56.494,117.314-98.1,202.009-124.812,73.814-23.291,148.806-42.111,192.023-76.335,54.74-43.31,51.206-101.942,69.743-168.332,17.922-63.993,32.055-123.5,82.365-172.754,34.462-33.738,88.382-60.721,148.037-81.453,128.374-44.606,256.927-16.2,353.016-64.3,93.912-47.327,120.847-103.076,113.5-144.847-8.193-46.63-79.754-114.025-206.618-122.528-69.692-4.681-146.168-11.921-223.669-17.411-92.914-6.592-181.347-40.006-216.68-88.726C880.8,35.316,881.772-13.646,857.244-60.973c-20.175-38.953-51.206-73.047-90.354-99.545C720.945-191.693,662-214.013,596.86-224.9" transform="translate(-333.992 327.62)"/><path class="f" d="M467.055,1355.115C394.163,1294.3,352.89,1208.033,397.184,1135.1c34.744-57.223,116.981-99.82,203.315-125.686,74.249-22.254,150.214-38.645,196.914-70.909,58.887-40.816,63.726-98.929,82.775-164.931,18.69-64.787,27.4-126.14,75.785-177.581,33.591-35.73,88.2-64.511,149.241-86.263,122.409-43.731,246.43-20.376,339.882-67.022,90.456-45.14,120.207-98.946,114.548-141.041C1553.4,255.342,1484.7,190.927,1365.7,179.7c-68.591-6.479-143.864-15.031-220.52-20.748-89.611-6.673-175.1-37.253-212.353-82.992-31.876-39.1-34.641-87.155-58.5-133.979A292.622,292.622,0,0,0,787.99-160.379c-44.575-33.385-103.356-57.978-169.365-70.861" transform="translate(-331.845 323.691)"/><path class="f" d="M470.746,1358.849c-72.739-63.442-117.032-150.9-72.841-225.944,34.155-57.952,116.674-101.57,204.62-126.578,74.736-21.25,151.647-35.147,201.778-65.5,63.317-38.3,76.246-95.9,95.807-161.529s22.736-128.78,69.129-182.391c32.7-37.722,88.075-68.253,150.47-91.074,116.494-42.614,235.779-24.6,326.747-69.646,86.846-43.1,119.515-94.832,115.573-137.235-4.276-46.047-70.1-107.676-181.245-121.475-67.515-8.325-141.56-18.124-217.4-24.068-86.18-6.754-168.981-34.6-208-77.258C920.926,38.461,914.551-8.7,891.38-55.043c-19.868-39.633-46.367-75.752-82.314-105.181-43.188-35.587-101.8-62.463-168.7-77.355" transform="translate(-329.724 319.762)"/><path class="f" d="M474.462,1362.67c-72.61-66.083-119.874-154.727-75.811-231.872,33.54-58.681,116.315-103.335,205.926-127.452,75.2-20.262,153.056-31.664,206.643-60.09,67.592-35.827,88.766-92.872,108.839-158.145,20.483-66.406,17.922-131.4,62.6-187.2,31.748-39.714,88-71.962,151.673-95.885,110.657-41.544,225.154-28.83,313.638-72.448,83.236-41.042,118.824-90.7,116.622-133.412-2.355-45.772-65.237-104.777-168.6-120.844-66.389-10.414-139.23-21.315-214.222-27.5-82.852-6.819-162.939-31.827-203.648-71.509C940.952,40.079,931.069-6.292,908.487-52.1c-19.714-39.957-43.909-77.113-78.294-108-41.764-37.781-100.2-66.94-168.008-83.834" transform="translate(-327.603 315.827)"/><path class="f" d="M478.172,1366.307c-72.457-68.706-122.69-158.533-78.755-237.8,32.926-59.394,115.982-105.085,207.206-128.327C682.28,980.907,761.087,972,818.156,945.517,890.025,912.168,919.442,855.658,940,790.774c21.327-67.265,13.237-134.06,56.02-192.028,30.724-41.707,87.947-75.639,152.9-100.679,104.973-40.492,214.5-33.074,300.5-75.185,79.626-38.985,118.082-86.555,117.775-129.574-.461-45.464-60.321-102.039-155.923-120.277-65.237-12.423-136.925-24.3-211.072-30.774-79.37-6.884-157.024-29.041-199.321-65.775C960.817,41.708,947.529-3.8,925.587-49.139c-19.535-40.3-41.426-78.489-74.249-110.818-40.32-39.974-98.59-71.422-167.342-90.313" transform="translate(-325.501 311.898)"/><path class="f" d="M481.9,1370.042c-72.329-71.347-125.455-162.356-81.725-243.728,32.337-60.106,115.624-106.9,208.512-129.217,76.092-18.286,155.872-24.7,216.4-49.238,76.144-30.871,113.832-86.831,134.877-151.358,22.2-68.027,8.423-136.684,49.414-196.839,29.8-43.731,87.947-79.267,154.131-105.489,99.11-39.277,203.827-37.252,287.37-77.89,76.016-36.945,117.339-82.441,118.7-125.8,1.434-45.189-55.226-99.545-143.224-119.726-64.008-14.674-134.622-27.4-207.923-34.013-76.144-7-151.187-26.223-194.865-60.106C980.6,43.483,964.012-1.334,942.659-46.182c-19.33-40.638-38.891-79.85-70.229-113.636-38.864-42.156-96.964-75.9-166.677-96.792" transform="translate(-323.396 307.97)"/><path class="f" d="M485.674,1373.776c-72.2-73.986-128.3-166.146-84.7-249.672,31.774-60.818,115.214-108.663,209.792-130.076,76.553-17.347,157.254-21.25,221.262-43.828,80.317-28.49,126.377-83.8,147.884-147.973,23.043-68.869,3.61-139.292,42.86-201.649,28.778-45.691,88-82.846,155.334-110.3,93.4-38.078,193.048-41.625,274.235-80.611,72.3-34.985,116.571-78.279,119.772-122.01,3.277-44.93-49.977-97.18-130.576-119.175a1231.482,1231.482,0,0,0-204.825-37.4c-72.739-7.013-145.349-23.21-190.564-54.275-45.83-31.5-65.621-75.687-86.359-120.034-19.151-40.978-36.356-81.21-66.21-116.454-37.387-44.326-95.3-80.36-165.985-103.27" transform="translate(-321.327 304.041)"/><path class="f" d="M489.431,1377.547c-72.047-76.626-131.063-169.968-87.64-255.6,31.185-61.547,114.881-110.493,211.1-130.966,76.989-16.391,158.739-17.816,226.127-38.4,84.644-26,138.948-80.789,160.941-144.588,24.016-69.646-1.28-141.932,36.254-206.459,27.7-47.683,88.178-86.394,156.538-115.11,87.742-36.848,182.4-45.853,261.152-83.332,68.668-32.928,115.752-74.2,120.77-118.236,5.121-44.654-44.473-94.945-117.775-118.592-63.452-20.116-131.465-33.864-201.6-40.751-69.487-7.013-139.691-20.181-186.289-48.59-48.9-29.77-71.689-73.4-91.941-117.248-18.946-41.318-33.771-82.6-62.19-119.273-35.912-46.486-93.652-84.817-165.32-109.749" transform="translate(-319.246 300.075)"/><path class="f" d="M493.2,1381.252c-71.919-79.251-133.828-173.775-90.609-261.545,30.724-62.244,114.523-112.324,212.506-131.841,77.424-15.435,160.071-14.334,230.992-32.977,88.945-23.517,151.7-77.744,173.948-141.187,25.168-70.456-6.145-144.556,29.674-211.286,26.678-49.675,88.357-89.811,157.792-119.856,82.135-35.633,171.746-50.1,247.966-86.053,64.981-30.936,114.933-70.213,121.717-114.414s-38.686-92.807-105.2-118.042c-58.887-22.4-127.734-36.572-198.45-44.087-66.158-7.013-133.981-17.055-181.91-42.824-52-27.907-77.859-71.12-97.5-114.446C975.487-79,962.942-121.221,935.931-159.4,901.54-208.048,843.983-248.689,771.3-275.64" transform="translate(-317.205 296.177)"/><path class="f" d="M496.915,1384.967c-71.689-81.89-136.337-177.547-93.58-267.472,30.263-62.94,114.19-114.171,213.71-132.716,77.91-14.577,161.5-10.868,235.882-27.534,93.246-21.056,164.167-74.7,186.9-137.786,26.013-71.265-11.061-147.163,23.043-216.1,25.6-51.667,88.664-93.18,159.021-124.715,76.6-34.337,161.095-54.308,234.832-88.774,61.448-28.814,114.062-66,122.895-110.542,8.705-44.136-32.49-90.7-92.53-117.491-56.737-25.315-125.456-39.585-195.3-47.408-62.83-7.029-128.246-13.864-177.635-37.09-55.124-25.915-84.081-68.82-103.053-111.66-18.485-42.014-28.573-85.259-54.176-124.925-32.867-50.783-90.2-93.72-163.86-122.706" transform="translate(-315.107 292.267)"/><path class="f" d="M500.77,1388.719c-71.689-84.531-139.256-181.4-96.55-273.417,29.572-63.685,113.832-116.033,215.067-133.59,78.346-13.605,162.938-7.369,240.669-22.157,97.548-18.529,176.662-71.67,199.986-134.433,26.858-72.075-15.976-149.755,16.514-220.907,24.477-53.643,89.1-96.468,160.225-129.574S1387.1,416.188,1458.4,383.228c57.863-26.757,113.166-61.9,123.894-106.736,10.5-43.893-25.859-88.547-79.831-116.924s-123.049-42.581-192.177-50.744c-59.5-7.029-122.485-10.544-173.282-31.341-58.273-23.842-90.328-66.536-108.634-108.874s-25.962-86.588-50.157-127.743c-31.376-52.931-88.557-98.174-163.271-129.185" transform="translate(-313.125 288.32)"/></g></g></g></g></g></svg>