<svg xmlns="http://www.w3.org/2000/svg" xmlns:xlink="http://www.w3.org/1999/xlink" width="1920" height="1551" viewBox="0 0 1920 1551"><defs><style>.a,.f{fill:none;stroke:#fff;stroke-width:2px;}.b{fill:#f6f6f6;}.c{opacity:0.559;}.d{fill:#ececec;opacity:0.5;}.e{clip-path:url(#a);}.f{stroke-miterlimit:10;}</style><clipPath id="a"><rect class="a" width="1920" height="1551"/></clipPath></defs><g transform="translate(0 -1226)"><g transform="translate(0 1226)"><rect class="b" width="1920" height="1551"/><g class="c"><rect class="d" width="1919" height="1551" transform="translate(1)"/><g class="e"><g transform="translate(-395.183 -503.138)"><path class="f" d="M1333.345-52.3A2410.517,2410.517,0,0,1,1275.2,184.51c-10.241,34.42-21.814,69.274-41.759,96.772-51.027,70.3-140.305,72.471-216.5,57.2a782.4,782.4,0,0,1-204.467-72.005c-64.878-33.4-127.632-76.505-197.144-90.658s-150.367,8.69-187.825,80.975c-22.275,43.079-25.834,97.58-17.129,147.331s28.676,95.5,50.822,138.672c25.373,49.41,54.816,99.473,58.631,157.48,3.943,60.087-23.427,121.54-67.055,150.466-62.036,41.155-137.975,15.332-207.565,0-88.382-19.522-183.191-19.367-263.943,28.4S-161.9,1030.665-153.609,1139.107" transform="translate(154.349 393.114)"/><path class="f" d="M1314.169-57.53a2252.449,2252.449,0,0,1-57.095,231.317c-10.241,33.582-21.532,67.536-40.965,94.476-49.7,68.839-136.081,72.626-210.176,59.528q-26.4-4.656-52.486-11.3a761.288,761.288,0,0,1-146.783-53.942c-63.393-31.037-124.841-71.384-192.792-84.327s-144.555,10.708-184.138,78.026a224.813,224.813,0,0,0-29.341,82.03,271.677,271.677,0,0,0-1.741,61.608q1.134,14.313,3.61,28.4c6.81,37.989,21.3,75.171,37.15,110.522,1.562,3.507,3.149,6.983,4.737,10.49,24.784,54.221,50.95,109.684,52.384,170.361C497.916,778.072,472.492,837.6,429.965,866c-60.449,40.6-134.16,17.35-201.471,4.376-5.3-1.024-10.625-1.986-15.976-2.824-80.8-13.1-165.294-7.759-237.392,37.43-76.809,48.169-135.569,149.69-126.275,255.06" transform="translate(157.831 382.112)"/><path class="f" d="M1294.93-62.76a2116.8,2116.8,0,0,1-56.1,225.823c-10.062,32.744-21.25,65.86-40.2,92.21-48.262,67.35-131.882,72.719-203.852,61.794q-25.6-3.911-51.053-9.715a731.982,731.982,0,0,1-143.07-48.79c-61.909-28.461-122.05-66.108-188.388-77.933S473.095,193.386,431.9,255.677c-16.642,25.14-30.212,49.938-37.457,78.523a254.378,254.378,0,0,0-7.681,61.453,271.37,271.37,0,0,0,1.485,29.64c4.3,40.161,18.69,80.7,34.231,119.15,1.562,3.817,3.1,7.6,4.66,11.391C451.332,614.8,474.3,675.542,473.223,738.95c-.9,56.642-24.656,114.153-66,142.272-58.887,39.975-130.294,19.3-195.352,8.784-5.121-.838-10.241-1.614-15.362-2.3-78.038-10.242-158.893-2.483-227.33,43.11-72.995,48.6-128.016,147.859-117.774,250.156" transform="translate(161.401 371.11)"/><path class="f" d="M1275.842-68a1995.388,1995.388,0,0,1-55.072,220.361c-9.96,31.906-20.995,64.122-39.429,90.007-47.187,65.8-127.683,72.781-197.554,64q-24.886-3.1-49.593-8.1a704.323,704.323,0,0,1-139.332-43.483C734.437,228.8,675.6,193.888,610.825,183.211a182.994,182.994,0,0,0-176.662,72.1c-18.486,25.015-35.384,47.238-45.548,74.954a235.714,235.714,0,0,0-13.749,61.08,240.763,240.763,0,0,0-.742,31.037c1.792,42.334,16.079,86.375,31.338,127.809,1.511,4.1,3.021,8.194,4.557,12.415,23.606,63.9,43.525,129.516,39.915,196.121-2.919,54.749-25.3,110.46-65.493,138.145-57.223,39.417-126.454,21.322-189.258,13.191-4.967-.621-9.934-1.21-14.9-1.707-75.248-7.417-152.492,2.762-217.294,48.759-69.128,49.038-120.335,145.872-109.069,245.19" transform="translate(164.82 360.087)"/><path class="f" d="M1256.728-73.21A1872.785,1872.785,0,0,1,1202.654,141.6c-9.806,31.037-20.739,62.322-38.661,87.586-45.753,64.494-123.458,73.06-191.2,66.45q-24.169-2.328-48.134-6.487a680.352,680.352,0,0,1-135.7-38.486c-58.887-23.526-116.469-55.866-179.632-65.177S479.7,201.713,436.454,254.569c-20.482,24.829-40.53,44.538-53.767,71.384a220.345,220.345,0,0,0-19.766,61.173,214.705,214.705,0,0,0-2.868,32.092c-.743,44.507,13.467,91.993,28.419,136.562l4.455,13.191c23.12,68.622,39.915,139.044,33.694,208.877-4.685,52.762-25.91,106.8-64.981,134.078-55.61,38.827-122.588,23.309-183.139,17.6-4.788-.466-9.576-.838-14.363-1.149-72.431-4.656-146.04,8.008-207.206,54.314-65.211,49.442-112.654,144.2-100.441,240.349" transform="translate(168.265 349.126)"/><path class="f" d="M1237.568-78.44a1755.05,1755.05,0,0,1-53.075,209.312c-9.678,30.23-20.482,60.677-37.841,85.351-44.473,62.974-119.285,73.154-184.932,68.715q-23.4-1.583-46.674-4.9A652.035,652.035,0,0,1,783.138,246.7c-57.454-21.043-113.678-50.528-175.279-58.97s-125.455,17.753-169.186,66.2C416.193,278.762,393,295.77,376.918,321.81a208.328,208.328,0,0,0-25.6,61.018,201.772,201.772,0,0,0-5.121,33.271c-3.252,46.555,10.856,97.579,25.6,145.1,1.434,4.718,2.893,9.311,4.327,14.121,22.48,73.526,36.356,148.666,27.447,221.82-6.2,50.869-26.5,103.135-64.443,130.013-54.253,38.33-118.952,25.388-177.148,22.067-4.583-.248-9.192-.434-13.8-.559C78.488,946.92,8.489,961.911-48.965,1008.715c-61.32,49.876-105.2,142.365-91.813,235.444" transform="translate(171.756 338.124)"/><path class="f" d="M1218.789-83.67a1642.037,1642.037,0,0,1-52.1,203.818c-9.576,29.423-20.176,58.97-37.074,83.085-43.167,61.577-115.086,73.34-178.608,71.074q-22.659-.807-45.241-3.29a627.37,627.37,0,0,1-128.195-28.181c-55.969-18.622-110.887-45.314-170.875-52.514s-121.564,18.87-165.473,63.284c-24.656,24.829-50.848,39.013-69.9,64.184a198.447,198.447,0,0,0-31.62,60.894,190.22,190.22,0,0,0-7.374,34.482c-5.761,48.852,8.27,103.2,22.608,153.911q2.151,7.511,4.25,15.022c21.891,78.337,33,158.1,21.2,234.7-7.527,48.883-27.114,99.318-64.008,125.885C264,980.362,201.473,969.965,145.428,969.1H132.165c-66.927,1.117-133.29,18.622-187.159,65.7-57.453,50.311-97.625,140.535-83.236,230.541" transform="translate(174.917 327.122)"/><path class="f" d="M1199.815-88.9a1531,1531,0,0,1-51.027,198.325c-9.422,28.585-19.894,57.232-36.305,80.7-41.835,60.118-110.862,73.464-172.284,73.371q-21.891,0-43.756-1.707a599.23,599.23,0,0,1-124.482-23.029c-54.484-16.077-108.1-40.1-166.421-46.152s-124.585,11.173-161.838,60.3c-30.084,18.591-55.994,36.53-77.936,60.8a192.067,192.067,0,0,0-37.637,60.739,182.037,182.037,0,0,0-9.6,35.723c-8.27,50.993,5.658,108.629,19.714,162.353q2.1,7.977,4.148,15.953c21.3,83.148,29.8,167.6,14.952,247.549-8.705,46.928-27.651,95.873-63.5,121.819-50.8,37.089-111.066,29.268-164.859,30.82-4.25,0-8.475.31-12.8.559-64.136,3.941-126.915,23.743-177.123,71.385-53.536,50.745-90.021,138.7-74.608,225.637" transform="translate(178.144 316.12)"/><path class="f" d="M1180.821-94.13A1430.709,1430.709,0,0,1,1130.793,98.7c-9.294,27.716-19.612,55.525-35.512,78.523-40.53,58.566-106.663,73.557-165.96,75.606q-21.148.745-42.322,0a578.924,578.924,0,0,1-120.77-17.846c-53-13.749-105.306-35.04-162.119-40.068s-120.8,11.639-158,57.449c-32.516,17.567-61.192,33.768-86.052,57.387-17.844,16.308-32.671,36.967-43.525,60.646a176.818,176.818,0,0,0-11.829,36.9c-10.779,53.166,3.072,114.37,16.821,171.012q2.048,8.38,4.045,16.853c20.713,87.958,26.755,176.909,8.705,260.4-9.78,44.818-28.394,91.962-62.958,117.6-49.184,36.5-107.2,31.254-158.74,35.2-4.071.311-8.116.715-12.187,1.149-61.448,6.8-120.514,28.988-167.086,77.033-49.645,51.118-82.417,136.841-66,220.7" transform="translate(181.469 305.118)"/><path class="f" d="M1162-99.36a1333.821,1333.821,0,0,1-49,187.338c-9.166,26.878-19.381,53.787-34.743,76.226-39.224,57.232-102.464,73.681-159.661,77.9q-20.482,1.552-40.965,1.49A555.391,555.391,0,0,1,760.571,230.9C709.058,219.76,658.159,201.169,602.8,197.444s-116.955,11.887-154.131,54.376c-34.923,16.574-66.338,31.037-94.143,53.693-19.933,15.6-36.85,36.232-49.593,60.491a172.831,172.831,0,0,0-14.031,38.113c-13.288,55.339.461,119.957,13.928,179.641q2,8.845,3.943,17.753c20.124,92.8,23.913,186.221,2.56,273.309-10.677,43.017-29.085,88.393-62.369,113.626-47.673,35.94-103.437,33.271-152.723,39.634-3.892.5-7.681,1.055-11.649,1.707-58.58,9.622-114.113,34.141-157.05,82.682-45.753,51.552-74.812,135.01-57.377,215.8" transform="translate(184.618 294.115)"/><path class="f" d="M1143.239-104.59a1240.27,1240.27,0,0,1-48.006,181.844c-9.038,26.071-19.1,52.111-33.95,73.961-37.918,55.866-98.265,73.929-153.363,80.323q-19.612,2.3-39.378,3.1A535.982,535.982,0,0,1,755.2,227.069c-50-8.783-99.673-24.643-153.44-27.219s-113.422,12.415-150.547,51.4c-37.329,15.518-71.484,28.4-102.259,50.155-20.969,14.836-40.939,34.668-55.456,60.367a171.669,171.669,0,0,0-16.258,39.323c-15.8,57.511-2.151,125.575,11.009,188.3,1.306,6.207,2.56,12.415,3.866,18.622,19.561,97.61,21.225,195.748-3.764,286.158-11.368,41.155-29.674,84.793-61.857,109.591-46.086,35.32-99.494,35.227-146.527,44.041-3.712.683-7.425,1.427-11.112,2.266-55.815,12.415-107.712,39.479-146.988,88.33-41.887,51.987-67.234,133.179-48.646,211.05" transform="translate(187.713 283.113)"/><path class="f" d="M1124.741-109.82a1153.656,1153.656,0,0,1-47.033,176.351c-8.91,25.233-18.818,50.373-33.156,71.695-36.613,54.314-94.066,74.054-147.039,82.62q-18.9,3.1-37.944,4.687a519.745,519.745,0,0,1-109.581-2.514c-48.646-6.207-96.934-19.336-148.985-20.764S491.4,214.886,454.169,250.7c-39.736,14.556-76.656,25.7-110.35,46.555-23.043,14.246-45.19,34.141-61.448,60.211A171.689,171.689,0,0,0,263.886,398c-18.281,59.746-4.788,131.223,8.065,196.99q1.92,9.777,3.738,19.584c19,102.421,18.793,205.308-9.985,299.039-12.059,39.23-30.186,81.068-61.448,105.525-44.37,34.761-95.679,37.244-140.459,48.448-3.508.9-7.041,1.831-10.548,2.855-53.024,15.3-101.312,44.724-136.951,93.979-38,52.421-59.63,131.348-40.171,205.991" transform="translate(190.542 272.111)"/><path class="f" d="M1106.2-115a1065.649,1065.649,0,0,1-46.086,170.7c-8.756,24.395-18.537,48.635-32.388,69.4-35.281,52.762-89.841,74.209-140.817,84.917q-18.127,3.88-36.459,6.207a501.739,501.739,0,0,1-105.92,2.762c-47.033-3.755-94.143-14.122-144.607-14.4S494.1,217.528,457.029,250.054c-42.117,13.594-81.8,22.905-118.44,43.048-25.065,13.687-49.337,33.3-67.464,60.087a172.159,172.159,0,0,0-20.687,41.745c-20.815,61.887-7.348,136.779,5.121,205.587q1.869,10.18,3.636,20.484C277.6,728.237,275.759,836,242.961,932.893c-12.674,37.4-30.724,77.406-60.807,101.366-42.757,34.141-91.813,39.23-134.34,52.762-3.354,1.086-6.682,2.2-10.011,3.414-50.259,18.125-94.911,50-126.915,99.628-34.1,52.762-52.026,129.516-31.543,201.086" transform="translate(193.392 261.214)"/><path class="f" d="M1087.856-120.28A989.694,989.694,0,0,1,1042.9,45.084c-8.654,23.526-18.281,46.928-31.62,67.1-33.975,51.4-85.643,74.488-134.391,87.244q-17.41,4.593-35.025,7.883a485.479,485.479,0,0,1-102.182,7.914c-45.574-1.273-91.352-8.939-140.228-8.039s-98.726,21.726-139.358,42.551c-42.092,21.726-87.051,20.3-126.556,39.51-27.088,13.1-53.511,32.589-73.43,59.932a173.239,173.239,0,0,0-23.043,42.955c-23.324,64.06-9.934,142.365,2.33,214.153q1.792,10.677,3.533,21.415c17.922,112.073,14.568,224.83-22.48,324.737-13.109,35.6-31.313,73.681-60.167,97.238-41.17,33.582-87.972,41.341-128.246,57.263-3.175,1.241-6.324,2.576-9.473,3.972-47.468,20.981-88.51,55.245-116.878,105.277-30.212,53.259-44.447,127.685-23.043,196.183" transform="translate(196.064 250.107)"/><path class="f" d="M1069.712-125.5a916.627,916.627,0,0,1-43.961,159.839c-8.526,22.719-17.922,45.221-30.724,64.836-32.67,49.969-81.444,74.488-128.016,89.541q-16.616,5.4-33.54,9.5A471.829,471.829,0,0,1,734.8,211.249c-44.063,1.21-88.561-3.724-135.85-1.676s-95.679,21.26-135.7,39.572c-44.806,20.546-92.171,17.629-134.647,36-29.034,12.384-57.71,31.782-79.344,59.56a175.2,175.2,0,0,0-25.117,44.165c-25.859,66.325-12.571,148.076-.589,222.968q1.767,11.08,3.431,22.316c17.231,116.884,12.8,234.855-28.727,337.617-13.7,33.923-32.03,70.051-59.758,93.11-39.557,33.085-84.106,43.328-122.127,61.732-3,1.459-5.966,3.1-8.935,4.563-44.7,23.8-82.109,60.49-106.816,110.925-26.346,53.693-36.869,125.854-14.338,191.279" transform="translate(198.538 239.125)"/><path class="f" d="M1051.839-130.73a844.027,844.027,0,0,1-42.962,154.346c-8.372,21.726-17.717,43.451-30.033,62.57-31.364,48.479-77.245,74.488-121.768,91.838q-15.9,6.207-32.106,11.08a462.181,462.181,0,0,1-94.732,18.25c-42.578,3.662-85.745,1.459-131.447,4.687s-92.632,20.795-131.907,36.592C419.263,267.6,369.541,263.406,324.07,280.91c-31.108,11.949-61.832,31.347-85.361,59.653a177.115,177.115,0,0,0-27.344,45.376c-28.368,68.281-15.157,153.57-3.508,231.534q1.741,11.545,3.354,23.184c16.668,121.633,11.393,245.159-34.974,350.5-14.159,32.247-32.618,66.388-59.22,89.106C79.074,1112.695,36.752,1125.42.984,1146.339c-2.816,1.645-5.633,3.352-8.4,5.121-41.938,26.661-75.734,65.736-96.78,116.574-22.454,54.128-29.264,124.147-5.709,186.375" transform="translate(200.741 228.123)"/><path class="f" d="M1034.288-136A778.537,778.537,0,0,1,992.35,12.976a349.711,349.711,0,0,1-29.136,60.118c-30.058,47.052-73.046,74.767-115.47,94.165q-15.131,6.952-30.724,12.694a457.545,457.545,0,0,1-91.045,23.371c-40.965,6.207-82.98,6.673-127.094,11.049s-89.611,20.267-128.17,33.644c-50.285,17.412-102.515,12.26-150.9,28.771-33.1,11.484-65.979,30.633-91.4,59.622a180,180,0,0,0-29.572,46.555c-30.8,70.733-17.692,159.187-6.273,240.193q1.69,12.011,3.252,24.115c16.079,126.537,10.241,255.681-41.2,363.347-14.619,30.664-33.284,62.725-58.734,85.04-36.459,31.844-76.477,47.052-109.966,70.454-2.56,1.862-5.274,3.755-7.86,5.68-39.147,29.516-69.333,71.012-86.743,122.254-18.562,54.563-21.66,122.191,2.893,181.472" transform="translate(202.624 217.037)"/><path class="f" d="M1017.109-141.19a713.344,713.344,0,0,1-40.965,143.2,359.99,359.99,0,0,1-28.5,57.977c-28.676,45.593-68.77,74.923-109.069,96.462-9.6,5.152-19.356,9.932-29.188,14.308a451.862,451.862,0,0,1-87.358,28.523c-39.608,8.628-80.163,11.887-122.69,17.412s-86.36,19.615-124.457,30.664c-53.127,15.518-107.533,9.559-158.944,25.326-35.128,10.8-70.153,29.857-97.292,59.4a183.318,183.318,0,0,0-31.8,47.8c-33.284,72.75-20.483,164.774-9.294,248.821q1.664,12.415,3.124,25.016c15.516,131.347,9.217,266.543-47.417,376.228-15.055,29.112-33.873,58.969-58.2,80.912-34.743,31.285-72.585,49.193-103.821,74.892-2.56,2.017-4.916,4.128-7.322,6.208-36.112,31.7-62.968,76.5-76.681,127.933-14.7,54.935-14.082,120.329,11.5,176.538" transform="translate(204.109 206.119)"/><path class="f" d="M1000.392-146.42A650.948,650.948,0,0,1,960.476-8.741a376.613,376.613,0,0,1-27.7,55.866c-27.421,44.165-64.622,75.078-102.822,98.79-9.089,5.68-18.357,10.956-27.728,15.891a451.449,451.449,0,0,1-83.62,33.675c-38.123,11.111-77.373,17.07-118.338,23.774s-83.108,18.87-120.693,27.716c-55.892,13.16-112.807,6.89-167.061,21.726-37.15,10.149-74.326,29.081-103.257,59.187a186.852,186.852,0,0,0-34.027,48.976c-35.844,74.923-23.043,170.361-12.187,257.45,1.05,8.6,2.074,17.256,3.021,25.947,14.927,136.158,8.551,277.779-53.767,389.077-15.362,27.654-34.487,55.338-57.684,76.847-33.028,30.695-68.616,51.148-97.574,79.3q-3.405,3.29-6.759,6.8c-33.285,34.821-56.594,81.55-66.568,133.458-10.8,55.37-6.478,118.5,20.1,171.633" transform="translate(205.157 195.117)"/><path class="f" d="M984.47-151.65A595.628,595.628,0,0,1,945.578-19.465a409.791,409.791,0,0,1-26.935,53.445c-26.115,42.676-60.423,75.2-96.5,101.087-8.6,6.207-17.385,12.011-26.269,17.474A453.125,453.125,0,0,1,715.944,191.4c-36.612,13.563-74.582,22.253-113.934,30.106s-79.779,18.063-116.981,24.829c-58.606,10.614-117.954,4.128-175.177,18.187-39.147,9.621-78.474,28.461-109.223,58.97A190.3,190.3,0,0,0,164.4,373.833c-38.4,77.1-25.6,175.978-15.106,266.109,1.05,8.876,2.023,17.846,2.944,26.847,14.338,140.969,8.167,289.386-59.911,401.925A353.937,353.937,0,0,1,35.182,1141.5c-31.518,30.105-64.878,53.166-91.634,83.8-2.1,2.421-4.173,4.873-6.222,7.387-30.555,37.973-50.376,86.724-56.609,139.23-6.913,55.867,1.127,116.668,28.727,166.73" transform="translate(205.409 184.114)"/><path class="f" d="M969.245-156.88A542.582,542.582,0,0,1,931.352-30.188,445.1,445.1,0,0,1,905.212,20.96c-24.809,41.248-56.327,75.326-90.2,103.383-8.091,6.7-16.386,13.066-24.809,19.088a456.927,456.927,0,0,1-76.195,44.01A592.8,592.8,0,0,1,604.426,223.91c-37.56,8.938-76.3,17.194-113.243,21.726-61.243,7.666-123.1,1.49-183.267,14.711-41.17,9.032-82.621,27.747-115.214,58.97a194.722,194.722,0,0,0-38.328,51.521c-40.965,79.237-28.163,181.534-17.922,274.706,1,9.311,1.971,18.622,2.842,27.933,13.749,145.873,8.039,301.429-66.159,414.806A420.118,420.118,0,0,1,16.5,1156.936c-29.9,29.516-61.012,55.152-85.515,88.114-1.92,2.607-3.815,5.245-5.684,7.945-27.781,41.048-44.145,91.693-46.751,144.693-3.021,56.239,8.731,114.836,37.355,161.825" transform="translate(204.965 173.112)"/><path class="f" d="M954.873-162.11c-20.124,120.857-85.386,227.1-169.339,296.432S599.758,237.985,498.216,245.185c-63.8,4.5-128.272-1.21-191.358,11.142S179.738,302.882,145.02,367.811c-43.525,81.409-30.724,187.151-20.892,283.365,16.258,158.288,16.028,335.2-69.666,456.24C11.781,1167.69-48.591,1208.007-86.2,1273.028c-52.128,90.162-48.083,222.224,9.422,307.45" transform="translate(203.642 162.11)"/></g><g transform="translate(230.274 913.596)"><path class="f" d="M89.94,791.6A2037.533,2037.533,0,0,1,218.98,600.41c20.482-26.909,42.168-53.693,69.333-69.739,69.461-40.938,152.518-1.18,217.934,48.572,60.322,45.886,115.93,100.3,165.652,162.105,49.209,61.2,93.375,130.354,153,175.916s141.457,62.477,199.064,13.222c34.283-29.3,54.919-77.934,62.728-127.872s3.968-101.521-2.714-151.707c-7.681-57.48-18.87-117.412-3.917-172.72,15.516-57.263,60.347-101.118,109.786-107.387,70.332-8.939,132.163,50.435,191.46,97.176,75.3,59.4,162.811,103.632,252.5,97.362s180.348-72.75,207.257-176.661" transform="translate(-89.94 -135.449)"/><path class="f" d="M93.57,810.608A1874.164,1874.164,0,0,1,220.818,623.176c20.278-26.256,41.707-52.359,68.411-68.125,53.639-31.658,115.393-15.519,170.747,15.518A445.8,445.8,0,0,1,503.5,598.72c59.626,43.383,114.779,95.217,164.3,154.408,49.03,58.566,92.965,125.419,151.955,169.212,33.079,24.612,72.278,41.465,110.887,44.507,33.617,2.607,66.978-5.494,94.86-28.616a140.681,140.681,0,0,0,14.159-13.532c27.37-30.137,43.986-73.464,51.206-117.94a405.55,405.55,0,0,0,4.634-42.707c2.048-37.647-.359-75.73-3.917-112.974-5.607-58.97-13.083-119.523,3.789-174.706s59.707-97.455,107.969-103.849c68.693-9.156,129.27,46.8,187.236,90.255,4.583,3.445,9.192,6.8,13.851,10.118,70.358,49.876,149.984,84.513,230.889,76.568,86.257-8.473,172.744-74.488,197.733-176.2" transform="translate(-84.276 -132.02)"/><path class="f" d="M97.2,839.908A1736.763,1736.763,0,0,1,222.656,656.263c20.073-25.636,41.272-51.024,67.49-66.543,52.691-31.037,113.191-16.635,167.675,12.415a440.352,440.352,0,0,1,42.962,26.381c58.915,40.89,113.6,90.152,162.887,146.741,48.8,55.867,92.607,120.516,151.059,162.788,34.334,24.829,74.556,42.458,114.344,46.245,34.564,3.1,69.129-4.375,98.086-27.653a135.594,135.594,0,0,0,14.7-13.749c28.522-30.7,45.548-75.326,53.382-121.043a437.784,437.784,0,0,0,5.121-44.29c2.56-38.672,1.177-77.84-1.127-115.984-3.533-60.646-7.3-121.571,11.5-176.723,17.922-52.359,59.118-93.762,106.2-100.311,67-9.311,126.351,43.141,183.011,83.334q6.682,4.656,13.519,9.311c68.693,45.965,145.759,76.661,223.439,66.635,82.8-10.645,165.14-76.474,188.209-175.668" transform="translate(-78.612 -139.13)"/><path class="f" d="M100.82,870.313A1610.734,1610.734,0,0,1,224.534,690.3c19.817-24.984,40.786-49.658,66.568-64.929,51.693-30.633,110.964-17.691,164.577,9.311a436.426,436.426,0,0,1,42.45,24.953c58.213,38.369,112.433,85.038,161.5,139.013,48.646,53.446,92.3,115.55,149.958,156.271,35.614,25.139,76.81,43.451,117.775,47.982,35.537,3.88,71.356-3.289,101.312-26.722a136.61,136.61,0,0,0,15.362-13.935c29.648-31.285,47.084-77.251,55.482-124.4q3.944-22.546,5.735-45.531c3.175-39.727,2.688-79.982,1.639-119.026-1.485-62.229-1.613-123.526,19.2-178.71,18.818-49.938,58.529-90.007,104.435-96.8,65.339-9.59,123.433,39.51,178.761,76.412q6.554,4.377,13.211,8.566c67.055,42.055,141.534,68.84,215.963,56.735,79.37-12.88,157.562-78.368,178.735-175.2" transform="translate(-72.964 -147.25)"/><path class="f" d="M104.45,900.832A1488.687,1488.687,0,0,1,226.372,724.761c19.612-24.364,40.351-48.355,65.647-63.346,50.745-30.105,108.788-18.622,161.5,6.362a421.841,421.841,0,0,1,41.81,22.936c57.5,35.862,111.25,79.948,160.1,131.316,48.39,50.839,91.992,110.522,148.934,149.69,36.894,25.389,79.139,44.445,121.256,49.659,36.459,4.532,73.532-2.141,104.538-25.76a140.772,140.772,0,0,0,15.848-14.121c30.724-31.875,48.646-79.175,57.581-127.717q4.2-23.147,6.324-46.742c3.738-40.751,4.2-82.123,4.429-122.1.563-63.78,3.994-125.419,26.883-180.7,19.689-47.486,57.914-86.407,102.643-93.266,63.675-9.776,120.514,35.879,174.562,69.492,4.25,2.669,8.552,5.245,12.8,7.79,65.39,38.144,137.31,60.987,208.512,46.8,75.888-15.084,149.983-80.2,169.211-174.675" transform="translate(-67.3 -155.454)"/><path class="f" d="M108.08,931.29A1379.763,1379.763,0,0,1,228.21,758.973c19.382-23.711,39.864-46.989,64.7-61.732,49.8-29.578,106.586-19.8,158.432,3.259a405.093,405.093,0,0,1,41.221,21.229c56.811,33.329,110.107,74.823,158.739,123.588,48.185,48.293,91.736,105.525,147.935,143.172,38.174,25.606,81.392,45.407,124.713,51.459,37.406,5.152,75.708-1.056,107.738-24.83a144.778,144.778,0,0,0,16.437-14.307c31.927-32.434,50.182-81.068,59.681-131.007q4.473-23.773,6.887-48.014c4.327-41.775,5.658-84.234,7.22-125.109,2.56-65.4,9.525-127.251,34.615-182.683,20.483-45.1,57.3-82.744,100.851-89.758,61.985-9.994,117.6,32.247,170.312,62.57,4.173,2.389,8.347,4.748,12.571,7.014,63.726,34.14,133.136,53.166,201.036,36.9,72.457-17.318,142.4-82.092,159.712-174.209" transform="translate(-61.636 -163.596)"/><path class="f" d="M111.71,961.787a1277.444,1277.444,0,0,1,118.364-168.56c19.177-23.06,39.429-45.655,63.777-60.149,48.825-29.05,104.384-20.826,155.36.217a425.436,425.436,0,0,1,40.632,19.46c56.106,30.831,108.94,69.753,157.357,115.922,47.955,45.686,91.454,100.342,146.911,136.562,39.48,25.822,83.671,46.555,128.169,53.2,38.4,5.8,77.885,0,110.939-23.868a141.518,141.518,0,0,0,17-14.494c33.079-33.023,51.744-82.992,61.806-134.3,3.2-16.357,5.607-32.868,7.476-49.255,4.89-42.83,7.143-86.375,10.011-128.182,4.557-66.946,14.952-129.144,42.3-184.668,21.1-42.645,56.685-79.02,99.059-86.1,60.346-10.211,114.7,28.616,166.113,55.68,4.045,2.11,8.142,4.19,12.238,6.207,62.088,30.292,128.861,45.313,193.585,26.971,69-19.491,134.8-83.8,150.214-173.805" transform="translate(-55.972 -171.779)"/><path class="f" d="M115.34,992.235A1184.582,1184.582,0,0,1,231.911,827.492c18.946-22.44,38.968-44.321,62.856-58.566,47.878-28.523,102.208-21.912,152.288-2.887a405.509,405.509,0,0,1,40.069,17.753c55.385,28.326,107.747,64.653,155.949,108.194C690.822,935.1,734.3,987.206,789.01,1022.06c40.811,26.009,85.975,47.362,131.651,54.935,39.275,6.425,80.061,1.148,114.164-22.936a141.971,141.971,0,0,0,17.564-14.711c34.231-33.582,53.28-84.854,64.008-137.586,3.354-16.76,5.94-33.706,8.014-50.5,5.479-43.854,8.679-88.486,12.8-131.192,6.606-68.561,20.3-131.037,50-186.686,21.558-40.348,56.1-75.357,97.292-82.682,58.657-10.428,111.758,24.829,161.889,48.759q5.914,2.794,11.906,5.432c60.423,26.381,124.636,37.492,186.135,17.07,65.544-21.726,127.2-85.816,140.817-173.216" transform="translate(-50.308 -179.941)"/><path class="f" d="M119,1022.712A1099.675,1099.675,0,0,1,233.83,861.725c18.716-21.726,38.4-42.986,61.908-56.952,46.931-27.933,99.852-22.843,149.19-5.959a405,405,0,0,1,39.506,16.015c54.688,25.792,106.589,59.538,154.566,100.5,47.545,40.534,91.019,90.006,144.888,123.5,42.117,26.194,88.254,48.355,135.082,56.673,40.248,7.076,82.263,2.265,117.391-22.005a138.687,138.687,0,0,0,18.153-14.867c35.358-34.141,54.842-86.9,66.031-140.875,3.533-17.195,6.3-34.575,8.6-51.738,6.042-44.91,10.241-90.6,15.567-134.265,8.68-70.112,25.6-132.9,57.71-188.641,21.968-38.082,55.482-71.7,95.525-79.175,56.993-10.646,108.839,21.353,157.639,41.838,3.84,1.614,7.681,3.1,11.6,4.655,58.887,22.44,120.335,29.64,178.659,7.139,62.113-23.93,119.618-87.648,131.191-172.689" transform="translate(-44.597 -188.103)"/><path class="f" d="M122.59,1053.148a1022.244,1022.244,0,0,1,113.038-157.2c18.588-21.135,38.046-41.651,60.987-55.276,45.958-27.468,97.778-23.9,146.117-9.063a400.851,400.851,0,0,1,38.942,14.308,665.892,665.892,0,0,1,153.158,92.8c47.34,37.927,90.84,84.793,143.864,116.947,43.525,26.319,90.558,49.349,138.564,58.412,41.2,7.7,84.49,3.382,120.616-21.075a144.084,144.084,0,0,0,18.716-15.053c36.51-34.761,56.327-88.7,68.13-144.165,3.713-17.629,6.657-35.413,9.192-52.98,6.606-45.966,11.7-92.738,18.358-137.307,10.7-71.726,30.724-134.823,65.416-190.659,22.275-35.848,54.868-68,93.707-75.637,55.328-10.863,105.946,17.722,153.44,34.916,3.738,1.335,7.5,2.638,11.266,3.88,57.12,18.622,116.187,21.725,171.208-2.763C1705.965,487.1,1759.348,423.692,1769,341.01" transform="translate(-38.996 -196.224)"/><path class="f" d="M126.22,1083.835A946.126,946.126,0,0,1,237.491,930.391c18.255-20.516,37.56-40.349,60.039-53.756,45.01-26.971,95.577-24.83,143.045-12.135,13.083,3.538,25.91,7.79,38.4,12.414a638.733,638.733,0,0,1,151.8,85.1c47.11,35.351,90.635,79.578,142.84,110.4,44.806,26.474,92.811,50.342,142.021,60.149,42.143,8.349,86.615,4.5,123.817-20.111a144.513,144.513,0,0,0,19.279-15.239c37.662-35.32,57.94-90.6,70.255-147.486,3.892-18.032,7.015-36.251,9.755-54.221,7.194-46.959,13.237-94.849,21.148-140.348,12.8-73.309,35.844-136.81,73.123-192.614,22.531-33.675,54.279-64.339,91.941-72.129,53.766-11.08,103,14.091,149.19,27.933,3.661,1.086,7.3,2.111,10.984,3.1,55.431,14.618,111.937,13.966,163.732-12.694,55.175-28.336,104.435-91.372,112.167-171.726" transform="translate(-33.332 -204.596)"/><path class="f" d="M129.85,1114.156A879.115,879.115,0,0,1,239.329,964.528c17.922-19.894,37.125-38.982,59.118-52.173,44.063-26.443,93.4-26.009,139.972-15.208,12.8,3.1,25.6,6.642,37.765,10.8A612.607,612.607,0,0,1,626.6,985.354c46.9,32.775,90.456,74.271,141.841,103.849,46.086,26.567,95.09,51.3,145.477,61.887,43.065,8.97,88.792,5.586,127.017-19.18a146.244,146.244,0,0,0,19.868-15.519c38.789-35.848,59.476-92.428,72.354-150.683,4.071-18.622,7.374-37.244,10.241-55.463,7.681-48.014,14.747-96.99,23.939-143.389,14.824-74.892,40.683-138.89,80.8-194.632,22.71-31.533,53.767-60.646,90.149-68.56,52-11.3,100.108,10.428,144.99,21.043,3.533.838,7.092,1.614,10.651,2.328,53.767,10.708,107.713,6.207,156.179-22.595,51.744-30.571,96.857-93.265,102.669-171.23" transform="translate(-27.668 -212.632)"/><path class="f" d="M133.48,1144.53A815.9,815.9,0,0,1,241.167,998.657c17.922-19.243,36.664-37.616,58.221-50.59,43.064-25.884,91.173-27.033,136.874-18.28,12.622,2.42,25.065,5.524,37.2,9.094a586.013,586.013,0,0,1,149.01,69.677c46.7,30.2,90.3,69,140.817,97.3,47.545,26.63,97.292,52.3,148.933,63.625,44.037,9.621,90.994,6.7,130.269-18.219a144.832,144.832,0,0,0,20.483-15.518c39.941-36.468,61.038-94.382,74.454-154.067,4.225-18.87,7.681-37.927,10.933-56.7,8.321-49.038,16.335-99.069,26.7-146.4,17-76.443,45.548-141.093,88.51-196.648,22.838-29.485,53.075-56.984,88.382-65.022,50.336-11.514,97.292,6.767,140.818,14.122,3.456.559,6.887,1.086,10.241,1.552,52.128,6.766,103.462-1.707,148.806-32.526,48.287-32.775,89.252-95.1,93.17-170.7" transform="translate(-22.004 -220.753)"/><path class="f" d="M137.11,1175.132a755.084,755.084,0,0,1,105.92-142.086c17.615-18.622,36.2-36.313,57.274-49.007,42.117-25.388,89-27.934,133.8-21.353,12.392,1.862,24.656,4.345,36.612,7.355a561.744,561.744,0,0,1,147.628,62.074c46.5,27.591,90.174,63.625,139.819,90.751,48.9,26.66,99.673,53.259,152.39,65.363,44.985,10.242,93.17,7.791,133.469-17.287a146.845,146.845,0,0,0,21.02-15.829c40.965-37.058,62.574-96.214,76.553-157.357,4.4-19.3,8.091-38.8,11.5-57.945,8.91-50.093,17.922-101.211,29.495-149.473,19.074-78.026,50.285-143.42,96.217-198.635,23.043-27.5,52.461-53.321,86.615-61.515,48.646-11.732,94.271,3.1,136.516,7.2,3.328.311,6.657.559,10.011.776,50.49,2.856,99.238-9.528,141.33-42.427,44.857-35.1,81.674-97.176,83.748-170.3" transform="translate(-16.34 -228.978)"/><path class="f" d="M140.73,1205.589a701.787,701.787,0,0,1,104.154-138.33c17.384-17.939,35.844-34.948,56.327-47.393,41.17-24.829,86.795-29.143,130.73-24.457a354.712,354.712,0,0,1,36.049,5.617,541.15,541.15,0,0,1,146.245,54.346c46.291,25.046,90.021,58.287,138.82,84.2,50.285,26.692,101.952,54.252,155.846,67.1,45.906,10.894,95.346,8.907,136.7-16.326a148.847,148.847,0,0,0,21.558-16.015c42.22-37.648,64.136-98.231,78.678-160.646,4.583-19.739,8.449-39.665,12.085-59.218,9.473-51.118,19.382-103.321,32.286-152.483,21.123-79.609,54.919-145.873,103.923-200.622,22.915-25.574,51.846-49.659,84.8-57.977,47.007-11.949,91.352-.5,132.317.28h9.678c48.825-1.055,95.013-17.381,133.879-52.359,41.4-37.244,74.1-98.821,74.249-169.74" transform="translate(-10.692 -237.119)"/><path class="f" d="M144.36,1236.2c28.985-50.224,63.434-95.47,102.413-134.514a296.111,296.111,0,0,1,55.405-45.809c40.2-24.333,84.49-30.229,127.657-27.529,11.957.745,23.811,2.079,35.46,3.88a520.063,520.063,0,0,1,144.863,46.554c46.086,22.441,89.867,52.763,137.77,77.592,51.693,26.691,104.23,55.276,159.328,68.871,46.854,11.483,97.522,10.024,139.9-15.519a150.556,150.556,0,0,0,22.147-16.2c43.371-38.237,65.672-100.124,80.778-163.967,4.762-20.143,8.807-40.348,12.648-60.429,10.036-52.173,20.892-105.525,35.076-155.556,23.171-81.161,59.451-148.6,111.63-202.577,23.043-23.743,51.206-45.966,83.031-54.469,45.318-12.167,88.433-4.128,128.016-6.642,3.124-.186,6.247-.466,9.371-.776,47.161-4.966,90.789-25.2,126.428-62.26,37.944-39.417,66.568-100.714,64.648-169.243" transform="translate(-5.028 -245.449)"/><path class="f" d="M148,1266.577c28.266-49.13,62.134-93.154,100.595-130.759a304.934,304.934,0,0,1,54.483-44.2c39.25-23.8,82.416-31.285,124.585-30.633,11.726.218,23.4.963,34.871,2.173a500.765,500.765,0,0,1,143.378,38.858c45.855,19.864,89.739,47.517,136.772,71.106,53.1,26.629,106.509,56.238,162.759,70.577,47.827,12.135,99.724,11.142,143.122-14.433a153.04,153.04,0,0,0,22.736-16.387c44.5-38.7,67.311-102.048,82.9-167.257,4.941-20.577,9.192-41.34,13.237-61.67,10.6-53.2,22.4-107.573,37.867-158.6,25.219-82.775,63.88-151.521,119.311-204.594,23.043-21.943,50.643-42.273,81.239-50.932,43.679-12.415,85.54-7.759,123.868-13.563,3.021-.466,6.042-.993,9.038-1.552,45.523-8.908,86.564-33.054,118.952-72.192,34.513-41.589,58.887-102.421,55.149-168.747" transform="translate(0.652 -253.507)"/><path class="f" d="M151.62,1297.346c27.528-48.15,60.838-91.04,98.828-127.25a316.242,316.242,0,0,1,53.536-42.582c38.4-23.308,80.215-32.371,121.512-33.706q17.282-.558,34.308.435a483.045,483.045,0,0,1,142.072,31.036c45.65,17.288,89.611,42.085,135.7,64.525,54.535,26.536,108.813,57.231,166.241,72.346,48.774,12.756,101.9,12.229,146.348-13.5a153.887,153.887,0,0,0,23.3-16.6c45.651-39.355,68.77-103.911,84.977-170.547,5.121-20.981,9.55-42.179,13.826-62.912,11.163-54.221,23.913-109.684,40.632-161.639,27.293-84.327,68.232-154.687,127.017-206.55,23.043-20.236,50.054-38.61,79.37-47.424,41.989-12.6,82.6-11.391,119.618-20.484,2.919-.714,5.838-1.49,8.731-2.328,43.405-12.347,82.451-41.094,111.5-82.092,31.031-43.824,51.206-104.439,45.625-168.25" transform="translate(6.3 -261.837)"/><path class="f" d="M155.25,1327.5c26.838-46.955,59.58-88.521,97.036-123.184a330.4,330.4,0,0,1,52.614-41.03c37.329-22.75,78.038-33.489,118.44-36.748,11.291-.962,22.556-1.365,33.719-1.335a468.8,468.8,0,0,1,140.689,23.5c45.445,14.681,89.611,36.623,134.749,57.976,55.943,26.412,111.092,58.318,169.723,74.053,49.7,13.408,104.077,13.346,149.548-12.57a152.724,152.724,0,0,0,23.862-16.76c46.8-39.943,70.332-105.835,87.051-173.8,5.274-21.416,9.908-43.017,14.389-64.153,11.752-55.277,25.45-111.732,43.525-164.681,29.341-85.909,72.508-158.133,134.749-208.567a243.439,243.439,0,0,1,77.68-43.886c40.325-12.787,79.677-15.022,115.394-27.405,2.816-.962,5.607-2.017,8.4-3.1,41.852-16.516,78.285-48.745,104.026-92.024,27.6-46.027,43.73-106.27,36.126-167.753" transform="translate(11.964 -269.831)"/><path class="f" d="M158.87,1358.042c26.14-45.873,58.326-86.221,95.269-119.43a349.978,349.978,0,0,1,51.693-39.417c36.188-21.517,75.259-35.013,115.368-39.851,11.06-1.521,22.121-2.483,33.156-3.1a456.618,456.618,0,0,1,139.307,15.767c45.215,12.1,89.355,31.037,133.725,51.428,57.377,26.226,113.371,59.187,173.154,75.791,50.643,14.06,106.253,14.463,152.774-11.607a155.485,155.485,0,0,0,24.425-16.947c47.929-40.534,71.868-107.759,89.2-177.127,5.453-21.725,10.241-43.886,14.978-65.425,12.315-56.3,26.96-113.936,46.086-167.6,31.389-87.523,76.809-161.856,142.43-210.584a278.848,278.848,0,0,1,75.887-40.348c38.661-13,76.81-18.622,111.169-34.326,2.714-1.241,5.428-2.514,8.091-3.88,40.338-20.724,74.2-56.448,96.7-102.017,24.144-48.262,36.126-108.163,26.628-167.257" transform="translate(17.612 -278.056)"/><path class="f" d="M162.5,1388.288c25.417-44.791,57.034-83.915,93.451-115.644,48.033-42.77,104.04-70.491,163.041-80.7,10.83-2.079,21.711-3.662,32.567-4.779a444.664,444.664,0,0,1,137.924,8.07c45.01,9.528,89.227,25.666,132.7,44.879,58.887,25.978,115.675,60.149,176.662,77.592,51.59,14.68,108.429,15.518,155.974-10.676a156.06,156.06,0,0,0,25.014-17.133c49.081-41.124,73.43-109.653,91.3-180.447,5.633-22.253,10.625-44.724,15.541-66.636,12.8-57.356,28.5-116.046,49-170.7,33.463-89.075,80.855-165.86,150.137-212.54a333.624,333.624,0,0,1,74.249-36.841c37-13.222,73.839-22.284,106.944-41.248,2.56-1.49,5.12-3.1,7.681-4.655,38.676-24.923,69.862-64.031,89.1-111.732,20.687-50.435,28.548-110.025,17.1-166.761" transform="translate(23.276 -285.987)"/><path class="f" d="M166.13,1418.976c57.069-102.049,151.059-169.492,250.757-194.135s204.287-8.691,300.222,32.186c60.3,25.7,117.928,61.173,180.067,79.267s132.061,16.729,184.8-27.033c65.979-54.781,88-158.288,109.53-251.615,35.409-153.57,92.171-316.854,209.613-388.363,58.58-35.6,127.12-44.537,182.525-86.9,76.81-58.783,115.214-182.5,89.227-288.021" transform="translate(28.94 -294.36)"/></g><g transform="translate(-676.512 -463.193)"><path class="f" d="M-264.23,87.522A1838.747,1838.747,0,0,1-108.87-72.348C-84.7-94.323-59.4-115.8-30.294-125.763c74.4-25.2,150.188,32.185,207.027,95.407,52.541,58.325,99.175,124.015,138.923,195.687,39.3,70.95,72.457,148.6,124.329,206.487s129.834,92.365,193.842,56.518c38.072-21.322,65.6-64.65,80.7-112.074s19.023-98.976,19.919-149.814c1.024-58.194-1.1-119.616,21.84-170.7,23.76-52.762,74.4-86.251,123.945-81.627C950.767-79.27,1002.742-7.358,1054.1,51.581c65.237,74.83,144.735,137.462,233.808,150.932s188.209-32.154,230.121-128.492" transform="translate(264.23 185.85)"/><path class="f" d="M-262,92.075A1699.208,1699.208,0,0,1-108.944-64.443c23.836-21.415,48.825-42.365,77.424-52.049,57.479-19.429,115.8,9.9,165.627,52.762a496.641,496.641,0,0,1,38.635,37.244C224.984,29.17,271.569,92.174,311.511,161.194c39.429,68.343,72.713,143.7,124.226,199.783,28.88,31.471,64.9,56.611,102.413,68.033,32.67,9.932,66.7,9.311,97.574-7.387a127.508,127.508,0,0,0,15.925-10.242c31.415-23.65,54.151-62.632,67.976-104.687a388.3,388.3,0,0,0,10.907-41.341c7.681-36.561,10.907-74.488,12.93-111.95,3.277-59.311,4.941-120.422,29.725-171.012s73.251-82.806,121.666-78.554c68.924,6.021,120.181,74.3,170.748,129.734,3.968,4.345,8.014,8.69,12.11,12.942,61.78,64.463,135.031,115.922,215.706,125.792,86.1,10.553,181.014-35.63,220.7-130.044" transform="translate(267.71 205.257)"/><path class="f" d="M-259.69,96.688a1565.244,1565.244,0,0,1,150.751-153.2C-85.409-77.335-60.779-97.7-32.667-107.192c56.455-19.119,113.806,8.38,163.041,48.945a490.718,490.718,0,0,1,38.4,35.382c51.871,53.118,98.327,113.55,138.385,180.013,39.608,65.674,73.1,138.7,124.2,193.142,30.16,31.906,67.029,57.977,105.587,70.391,33.515,10.77,68.668,10.8,100.595-5.773a125.391,125.391,0,0,0,16.514-10.273c32.618-23.992,55.994-64.184,70.511-107.48a415.143,415.143,0,0,0,11.649-42.427c8.347-37.461,12.8-76.319,16.156-114.339,5.53-60.4,10.907-121.043,37.585-171.292,25.347-47.61,72.1-79.3,119.387-75.481,67.311,5.463,117.774,70.081,167.6,122.005q5.914,6.207,11.931,12.1C1149.61,88,1220.838,135.018,1298.825,142.157c83.031,7.6,173.82-39.137,211.277-131.658" transform="translate(271.314 224.635)"/><path class="f" d="M-257.41,109.814a1449.267,1449.267,0,0,1,148.5-149.877C-85.69-60.3-61.392-80.007-33.792-89.38,21.639-108.188,78.017-82.49,126.688-44.1a473.028,473.028,0,0,1,38.021,33.52C216.281,39.89,262.7,97.644,302.966,161.459c39.787,63.191,73.43,133.892,124.073,186.531,31.287,32.5,69.128,59.528,108.737,72.936,34.359,11.608,70.665,12.415,103.616-4.128a124.206,124.206,0,0,0,17.1-10.366c33.822-24.271,57.812-65.674,73.1-110.242q7.215-21.279,12.392-43.451c9.038-38.361,14.543-78.088,19.33-116.729,7.809-61.515,16.8-121.85,45.471-171.571C832.721-80.6,877.859-111.447,923.945-108c65.7,4.873,115.521,65.86,164.475,114.246q5.786,5.711,11.726,11.3c59.681,56.021,128.963,98.666,203.98,103.042,79.958,4.655,166.651-42.645,201.855-133.272" transform="translate(274.871 235.439)"/><path class="f" d="M-255.14,127.594A1340.765,1340.765,0,0,1-109.022-18.962C-86.108-38.639-62.169-57.7-35.055-66.913c54.407-18.622,109.812,5.338,157.92,41.558a471.656,471.656,0,0,1,37.713,31.72c51.234,47.832,97.548,102.944,137.95,164.153,40.018,60.584,73.967,128.833,124.226,179.8,32.49,33.054,71.2,61.018,111.86,75.419,35.179,12.415,72.636,13.967,106.637-2.483a124.6,124.6,0,0,0,17.692-10.428c35.051-24.612,59.63-67.226,75.657-113q7.568-21.869,13.16-44.631c9.755-39.262,16.335-79.858,22.531-119.119,10.036-62.632,22.582-122.5,53.331-171.85,26.422-42.4,69.82-72.316,114.83-69.305,64.008,4.283,113.192,61.639,161.3,106.518,3.789,3.538,7.681,7.045,11.521,10.459,58.631,51.831,125.968,90.007,198.117,91.651,76.81,1.738,159.457-46.121,192.433-134.824" transform="translate(278.413 241.681)"/><path class="f" d="M-252.87,145.317A1243.518,1243.518,0,0,1-109.057,2.083C-86.475-17-62.971-35.41-36.242-44.472,17.141-62.66,71.548-40.624,119.118-6.608A454.7,454.7,0,0,1,156.5,23.281c50.912,45.214,97.159,97.68,137.745,156.27,40.2,57.976,74.531,123.774,124.2,173.123,33.745,33.551,73.4,62.477,115.009,77.871,36.024,13.284,74.633,15.518,109.658-.869a126.589,126.589,0,0,0,18.306-10.459c36.228-24.829,61.448-68.777,78.192-115.8Q747.517,281,753.539,257.7c10.472-40.161,18.076-81.626,25.6-121.509,12.264-63.687,28.394-123.123,61.32-172.13,26.781-39.851,68.668-68.84,112.654-66.232,62.472,3.724,110.862,57.449,158.227,98.821q5.607,4.873,11.317,9.621c57.607,47.579,122.9,81.378,192.254,80.261,73.84-1.179,152.262-49.659,183.011-136.562" transform="translate(281.955 247.918)"/><path class="f" d="M-250.6,163.012A1153.586,1153.586,0,0,1-109.091,23.129C-86.817,4.508-63.518-13.152-37.4-22.091,14.956-40,68.39-19.794,115.4,12.05c12.8,8.659,25.3,18.188,37.073,27.933,50.592,42.629,96.755,92.5,137.489,148.542,40.376,55.4,75.043,118.684,124.1,166.357,35.076,34.14,75.5,64.06,118.235,80.478,36.869,14.06,76.6,17.07,112.654.745a128.259,128.259,0,0,0,18.87-10.553c37.457-25.233,63.24-70.3,80.778-118.56,5.581-15.519,10.241-31.037,14.645-46.834,11.189-41.031,19.894-83.365,28.932-123.868C802.611,71.423,822.07,12.515,857.3-36.12c27.037-37.244,67.515-65.177,110.273-63.129,60.859,3.1,108.532,53.228,155.1,91.062,3.661,3.1,7.374,5.928,11.112,8.783,56.557,43.389,120.053,72.75,186.391,68.746,70.767-4.1,145.068-53.073,173.589-138.02" transform="translate(285.497 254.184)"/><path class="f" d="M-248.33,180.784a1068.448,1068.448,0,0,1,139.2-136.562C-87.158,26.283-64.218,9.12-38.615.367c51.36-17.6,103.8.776,150.214,30.447A429.735,429.735,0,0,1,148.391,57.04c50.276,39.939,96.374,87.117,137.284,140.5,40.555,52.762,75.58,113.595,124.15,159.808,36.28,34.513,77.5,65.394,121.308,82.837,37.714,14.9,78.6,18.622,115.726,2.39a127.605,127.605,0,0,0,19.458-10.614c38.661-25.543,65.032-71.85,83.338-121.354,5.812-15.767,10.856-31.875,15.362-47.921,11.957-41.931,21.865-85.134,32.106-126.257,16.693-65.984,39.454-124.426,76.963-172.657C901.328-71.234,940.5-98.112,982.132-96.312c59.246,2.576,106.2,49.007,151.981,83.334,3.584,2.7,7.246,5.369,10.907,7.945,55.508,39.168,117.006,64.153,180.528,57.511,67.695-7.045,137.9-56.58,164.167-139.665" transform="translate(289.039 260.403)"/><path class="f" d="M-246,206.748A990.819,990.819,0,0,1-109.254,73.507c21.66-17.35,44.268-33.861,69.385-42.489,50.31-17.287,101.721-.59,147.628,26.754,12.6,7.511,24.809,15.767,36.459,24.395,50,37.307,96.071,81.84,137.207,132.62,40.735,50.28,76.144,108.629,124.15,153.166,37.406,34.978,79.472,66.853,124.2,85.289,38.533,15.736,80.573,20.2,118.747,4A126.936,126.936,0,0,0,668.57,446.6c39.89-25.884,66.85-73.371,85.9-124.147,6.068-16.139,11.342-32.62,16.181-49.007,12.622-42.831,23.5-86.9,35.281-128.647,19.074-67.1,45.01-125.14,84.849-172.781C918.047-60.634,956.017-86.394,996.5-84.966,1054.23-83.135,1100.47-40.4,1145.429-9.361c3.559,2.421,7.118,4.78,10.728,7.107,54.458,34.947,114.011,55.494,174.665,46.09,64.648-9.963,130.7-60.056,154.745-141.186" transform="translate(292.675 258.4)"/><path class="f" d="M-243.78,239.186A919.649,919.649,0,0,1-109.21,109.3c21.353-16.76,43.525-32.651,68.232-41.124C8.309,51.2,58.747,66.063,104.09,91.2c12.469,6.921,24.553,14.556,36.152,22.564,49.629,34.693,95.585,76.591,136.849,124.768,40.965,47.672,76.809,103.259,124.124,146.493,38.84,35.382,81.7,68.281,127.58,87.741,39.378,16.574,82.57,21.726,121.768,5.649A127.7,127.7,0,0,0,671.2,467.772c40.965-26.226,68.668-74.923,88.484-126.94,6.273-16.512,11.8-33.365,16.924-50.093,13.339-43.731,25.3-88.672,38.4-131.037,21.2-68.281,50.259-125.916,92.709-173.216,27.242-30.385,64.008-54.9,103.437-53.911C1067.2-66,1112.7-26.861,1156.866.452c3.482,2.142,6.99,4.252,10.523,6.207,53.408,30.726,111.015,46.865,168.8,34.73,61.448-12.911,123.51-63.563,145.3-142.769" transform="translate(296.138 249.922)"/><path class="f" d="M-241.51,271.613a855.516,855.516,0,0,1,132.266-126.6c21.02-16.17,42.962-31.409,67.08-39.758,48.262-16.667,97.7-3.631,142.507,19.367a402.973,402.973,0,0,1,35.844,20.7c49.3,32.076,95.189,71.328,136.644,116.884,40.965,45.1,77.3,98.076,124.073,139.82,40.146,35.848,83.825,69.8,130.73,90.224,40.223,17.412,84.49,23.34,124.79,7.294a131.585,131.585,0,0,0,21.251-10.8c42.3-26.505,70.46-76.444,91.019-129.7,6.5-16.884,12.315-34.14,17.666-51.179,14.056-44.631,27.139-90.41,41.682-133.458C847.52,105.1,879.575,47.652,924.611.911,951.8-27.271,987.569-50.517,1025.795-49.9c54.432.838,99.238,36.344,142.584,60.118,3.431,1.862,6.862,3.693,10.241,5.462C1231,42.19,1286.639,53.89,1341.558,38.993c58.5-15.8,116.315-67.039,135.876-144.383" transform="translate(299.68 241.486)"/><path class="f" d="M-239.24,303.862A793.03,793.03,0,0,1-109.278,180.615c20.713-15.518,42.3-30.2,65.928-38.392,47.238-16.387,95.7-5.152,139.921,15.518,12.187,5.711,24.093,12.1,35.537,18.9,49,29.489,94.824,66.171,136.439,109.218,41.247,42.4,77.936,92.738,124.047,133.054,41.477,36.22,85.924,71.385,133.879,92.676,40.965,18.25,86.539,24.829,127.811,8.907a133.307,133.307,0,0,0,21.84-10.832c43.525-26.847,72.278-77.995,93.58-132.5,6.759-17.256,12.8-34.854,18.434-52.266,14.773-45.562,28.932-92.179,44.882-135.817,25.731-70.422,60.705-127.716,108.429-173.806,27.037-26.071,61.832-47.921,98.879-47.734,52.845.248,96.934,32.154,139.486,52.39,3.354,1.614,6.734,3.1,10.113,4.624C1241.237,46.878,1295,54.2,1347,36.543,1402.459,17.921,1456.149-34,1473.457-109.33" transform="translate(303.222 233.198)"/><path class="f" d="M-237,336.31A732.728,732.728,0,0,1-109.266,216.384c20.482-15.022,41.656-29.019,64.776-37.058,46.239-16.046,93.707-6.642,137.361,11.949,12.059,5.152,23.837,10.894,35.23,17.07,48.662,26.784,94.411,60.746,136.209,101.118,41.477,39.913,78.55,87.586,124.047,126.506,42.885,36.592,88,72.719,137.028,95.128,41.861,19.088,88.484,26.474,130.806,10.552a133.287,133.287,0,0,0,22.428-10.894c44.729-27.157,74.07-79.516,96.165-135.258,6.964-17.66,13.262-35.661,19.177-53.414,15.49-46.555,30.724-93.886,48.057-138.176,28.164-71.384,65.8-128.8,116.315-174.054,26.832-24.022,60.679-44.445,96.6-44.662,51.206-.31,94.6,27.933,136.362,44.693,3.277,1.3,6.605,2.576,9.908,3.755,50.285,18.094,102.054,20.981,151.212.559C1404.8,12.473,1454.37-39.824,1469.45-113.35" transform="translate(306.717 224.741)"/><path class="f" d="M-234.69,368.664A681.768,681.768,0,0,1-109.362,252.059c20.1-14.432,40.965-27.778,63.624-35.661,45.215-15.767,91.71-8.163,134.8,8.225,11.905,4.562,23.657,9.808,34.923,15.239a613.621,613.621,0,0,1,135.978,93.265c41.631,37.306,79.216,82.31,124.15,119.8,44.012,36.965,89.969,74.209,140.049,97.611,42.706,19.925,90.482,27.933,133.853,12.2a135.1,135.1,0,0,0,23.043-10.987c45.932-27.467,75.888-81.037,98.726-138.02,7.22-18.033,13.749-36.406,19.945-54.5,16.207-47.331,32.618-95.624,51.206-140.565,30.34-72.564,70.844-130.106,124.175-174.3,26.6-22.067,59.527-40.968,94.322-41.589,49.619-.9,92.171,23.712,133.136,36.934,3.252,1.024,6.478,2.017,9.729,2.948,49.235,13.842,99.059,12.415,145.349-10.832,49.312-24.612,94.732-77.592,107.533-149.163" transform="translate(310.322 216.347)"/><path class="f" d="M-232.42,401.09c36.8-43.964,78.105-82.025,122.9-113.253,19.765-13.873,40.35-26.567,62.471-34.14,44.191-15.518,89.611-9.714,132.24,4.531,11.777,3.942,23.35,8.442,34.59,13.408a585.873,585.873,0,0,1,135.7,85.351c42.015,34.482,80.061,76.754,124.2,112.912,45.5,37.244,92.171,75.668,143.378,100.063,43.525,20.764,92.453,29.64,136.874,13.842a138.793,138.793,0,0,0,23.606-11.049c47.135-27.933,77.68-82.589,101.286-140.814,7.425-18.4,14.21-37.244,20.662-55.587,16.872-48.231,34.385-97.393,54.407-142.862,32.746-73.774,75.734-131.6,132.061-174.675,26.346-20.174,58.375-37.492,92.171-38.517,48.006-1.459,89.944,19.522,130.09,29.206,3.175.776,6.35,1.49,9.524,2.111,48.185,9.652,96.063,3.693,139.486-22.191,46.239-27.561,87.563-81.037,98.188-150.746" transform="translate(313.864 207.975)"/><path class="f" d="M-230.15,433.424c35.981-43.063,76.586-80.051,120.719-109.963a269.244,269.244,0,0,1,61.447-32.93c43.167-15.146,87.716-11.2,129.654.838,11.649,3.352,23.043,7.232,34.308,11.577a561.3,561.3,0,0,1,135.543,77.592c41.861,32.092,80.419,71.571,123.842,106.363,46.879,37.461,94.322,77.157,146.476,102.638,44.37,21.725,94.45,31.037,139.9,15.518a136.529,136.529,0,0,0,24.2-11.08c48.339-28.12,79.37-84.141,103.846-143.607,7.681-18.622,14.7-37.9,21.43-56.673,17.641-49.348,36.254-99.317,57.633-145.562,34.9-74.768,80.6-133.179,139.947-174.861,26.09-18.312,57.249-33.985,89.765-35.413,46.393-2.048,87.614,15.27,126.966,21.446,3.1.5,6.221.931,9.345,1.3,47.135,5.4,93.042-4.935,133.6-33.613,43.193-30.447,80.394-84.513,88.766-152.328" transform="translate(317.406 199.539)"/><path class="f" d="M-227.87,465.736c35.1-42.15,74.963-78.046,118.389-106.611a276.4,276.4,0,0,1,60.167-31.564C-7.171,312.725,36.406,314.8,77.78,324.674c11.521,2.762,22.864,6.207,34,9.746a536.275,536.275,0,0,1,135.313,69.615c42.168,29.547,81.213,66.325,123.97,99.814,48.262,37.8,96.4,78.523,149.6,105.028,45.215,22.378,96.421,32.744,142.917,17.07a137.781,137.781,0,0,0,24.784-11.173c49.568-28.4,81.316-85.63,106.407-146.369,7.911-19.15,15.183-38.641,22.2-57.759,18.357-50.031,38.046-100.931,60.833-147.735,37.125-75.885,85.387-135.072,147.807-175.14,25.808-16.574,56.1-30.509,87.486-32.34,44.78-2.607,85.284,11.08,123.842,13.749,3.047.217,6.094.341,9.14.435,46.086,1.21,90.046-13.563,127.734-44.972,40.12-33.4,73.2-88.02,79.37-153.942" transform="translate(320.963 191.187)"/><path class="f" d="M-225.6,498.29c34.242-41.245,73.367-76.069,116.085-103.321a288.984,288.984,0,0,1,58.887-30.2c41.119-14.525,83.722-14.277,124.534-6.58q17.052,3.259,33.668,7.945a512.794,512.794,0,0,1,135.236,61.7c42.348,26.971,81.93,60.987,123.945,93.11,49.67,38.02,98.5,80.044,152.748,107.48,46.086,23.215,98.419,34.327,145.938,18.622a140.416,140.416,0,0,0,25.373-11.235c50.771-28.74,83.133-87.182,108.992-149.163,8.142-19.522,15.644-39.386,23.043-58.97,19.049-50.9,39.839-102.639,64.008-150.094,39.4-76.971,90.123-137.213,155.693-175.419,25.6-14.867,54.944-27,85.207-29.237,43.192-3.1,82.954,6.828,120.719,5.99,2.97,0,5.94-.186,8.935-.4,44.526-2.648,87.2-22.386,121.871-56.363,37.048-36.313,66.005-91.5,69.922-155.525" transform="translate(324.505 182.625)"/><path class="f" d="M-223.33,530.454c33.388-40.321,71.78-74.053,113.781-99.969a299.544,299.544,0,0,1,57.863-28.833c40.12-14.246,81.725-15.922,121.973-10.273,11.24,1.521,22.377,3.6,33.284,6.207a493.29,493.29,0,0,1,134.98,53.725c42.5,24.364,82.57,55.587,123.893,86.468,51.206,38.206,100.62,81.534,155.9,109.963,46.879,24.053,100.39,35.878,148.959,20.329A141.081,141.081,0,0,0,693.288,656.8c51.974-29.081,84.9-88.734,111.527-152.08,8.372-19.895,16.13-40.162,23.709-59.963,19.766-51.8,41.656-104.408,67.208-152.483,41.631-78.088,94.732-139.665,163.553-175.7a225.622,225.622,0,0,1,82.877-26.04c41.58-3.786,80.624,2.638,117.57-1.738q4.378-.5,8.756-1.21c43.613-7.122,84.234-30.846,116.008-67.753,33.975-39.261,58.887-95,60.474-157.108" transform="translate(328.047 174.421)"/><path class="f" d="M-221.06,562.724c32.536-39.4,70.2-72.04,111.476-96.617a316.693,316.693,0,0,1,56.711-27.467c39.1-13.936,79.728-17.443,119.387-14,11.112.931,22.147,2.39,33.079,4.252a477.066,477.066,0,0,1,134.673,45.965c42.68,21.819,83.261,50.186,123.868,79.826,52.563,38.33,102.72,82.992,159.047,112.415,47.724,24.829,102.413,37.461,152.006,21.974a144.235,144.235,0,0,0,26.5-11.328C748.864,648.354,782.4,587.46,809.774,523c8.628-20.267,16.617-40.906,24.451-61.049,20.483-52.762,43.525-106.177,70.409-154.873,43.909-79.206,99.52-142.428,171.541-175.947A258.7,258.7,0,0,1,1156.825,108c39.966-4.345,78.294-1.552,114.446-9.311,2.868-.621,5.71-1.335,8.551-2.079,42.679-11.6,81.225-39.311,110.093-79.144a267.3,267.3,0,0,0,51.053-158.691" transform="translate(331.589 166.111)"/><path class="f" d="M-218.78,595.193c31.67-38.507,68.6-70.082,109.146-93.328a340.452,340.452,0,0,1,55.559-26.1A316.1,316.1,0,0,1,62.752,458.073c10.984.341,21.891,1.179,32.746,2.421a462.184,462.184,0,0,1,134.468,38.082c42.86,19.243,83.953,44.786,123.868,73.185,54.1,38.424,104.794,84.513,162.17,114.867,48.646,25.729,104.358,39.013,155.027,23.619a143.575,143.575,0,0,0,27.139-11.422c54.381-29.7,88.536-91.776,116.674-157.512,8.833-20.639,17.077-41.651,25.193-62.073,21.225-53.6,45.292-107.946,73.609-157.263,46.086-80.292,104.179-145.469,179.222-176.227a311.269,311.269,0,0,1,78.448-20.2c38.4-4.935,75.965-5.8,111.323-17.194,2.791-.9,5.581-1.862,8.347-2.917,41.762-16.02,78.267-47.658,104.281-90.379,27.856-45.1,44.447-101.987,41.631-160.3" transform="translate(335.146 157.633)"/><path class="f" d="M-216.51,627.423A366.683,366.683,0,0,1,59.005,491.451c101.67-2.514,202.265,36.065,290.519,97.269,55.482,38.486,106.893,85.941,165.32,117.35s127.4,45.314,185.776,13.78c73.071-39.448,110.094-136.406,145.2-223.464C903.5,353,983.484,204.8,1109.759,160.165c62.907-22.222,131.651-16.015,192.459-45.593,84.311-41.031,140.408-154.315,130.576-263.812" transform="translate(338.688 149.24)"/></g><g transform="translate(-109.37 -234.949)"><path class="f" d="M-41.8,1745.226c-10.753-105.525,75.171-194.694,161.837-211.05s173.615,17.443,259.514,39.137,182.5,28.833,254.239-32.372C725.5,1462.7,746.7,1298.11,841.173,1224.615c73.532-57.263,169.262-40.13,244.587,2.483,42.6,24.084,78.832,64.618,119.541,92.862,184.675,128.026,197.144,389.7,354.015,428.71,169.749,42.3,261.92-58.1,293.975-127.592,40.965-89.168,109.556-320.61-58.222-481.442-68.181-65.333-135.466-134.978-185.6-221.012-75.094-128.771-74.582-325.7,21.43-432.125,65.8-72.936,166.856-99.628,211.559-193.142,30.032-62.849,25.936-143.886,0-209.467S1771.822-33.645,1722.894-75.7" transform="translate(42.717 75.7)"/><path class="f" d="M-40.565,1743.653c-7.425-108.629,78.038-202.36,167.291-221.044,87.051-18.218,175.51,15.364,261.408,39.293,84.874,23.681,179.222,34.389,250.6-21.229,91.352-71.2,117.032-227.438,211.277-299.971,75.068-57.449,169.262-46.772,246.4-9.528,44.319,21.416,83.594,59.621,126.224,88.238,180.784,121.416,195.762,374.582,349.125,413.068,165.063,41.31,256.748-53.693,290.058-122.222,42.219-86.9,107.533-309.809-51-468.655-65.365-65.55-130.166-136.562-179.5-222.006-72.867-125.761-73.532-315.643,17.077-421.168,62.7-73,160.122-102.732,204.62-195.035,30.545-63.129,28.676-142.986,6.119-209.032-22.787-66.822-64.366-121.6-111.271-166.76" transform="translate(45.371 82.642)"/><path class="f" d="M-39.233,1742c-4.1-111.577,80.906-209.964,172.744-230.944,87.588-19.988,177.4,13.252,263.3,39.478,83.876,25.606,175.714,39.913,246.994-10.149,90.968-64.121,120.975-212.26,215.246-283.552,76.477-57.883,169.365-53.507,248.2-21.539,46.086,18.622,88.331,54.593,132.932,83.613,176.662,115.084,194.174,359.437,344.234,397.271,160.3,40.347,251.423-49.256,286.013-116.668,43.346-84.482,105.562-299.132-43.73-456.24-62.6-65.829-124.918-138.083-173.436-223.061-70.665-122.688-72.483-305.649,12.8-410.15,59.578-72.905,153.311-105.649,197.63-196.742,31.057-63.377,31.415-142.148,12.085-208.629C1856.065,36.87,1817.968-20.827,1772.932-69.12" transform="translate(47.931 89.542)"/><path class="f" d="M-37.8,1740.268c-.768-114.619,83.774-217.567,178.2-240.876,88.049-21.726,179.222,11.111,265.2,39.665,82.852,27.5,172.309,45.438,243.358.962,90.609-57.077,125.046-196.959,219.24-267.2,77.962-58.132,169.544-60.3,250.015-33.551,47.9,15.922,93.042,49.659,139.614,79.02,172.514,109,192.715,344.29,339.37,381.751,155.488,39.417,246.072-44.817,281.942-111.111,44.447-82.123,103.616-288.641-36.484-443.514-59.835-66.14-119.439-139.665-167.342-224.054-68.156-119.895-71.458-295.718,8.372-399.194,56.506-73.216,146.476-109.094,190.769-198.883,31.441-63.843,34.206-141.435,18.1-208.226-16.642-69.026-51.206-129.547-94.45-180.851" transform="translate(50.386 96.547)"/><path class="f" d="M-36.28,1738.666c2.56-117.661,86.641-225.141,183.677-250.778,88.459-23.4,181.117,8.939,267.066,39.79,81.93,29.392,168.981,50.993,239.748,12.073,90.226-50,129.091-181.627,223.208-250.808,79.37-58.411,169.8-67.195,251.807-45.562,49.773,13.129,97.779,44.631,146.3,74.488,168.213,103.2,191.255,329.176,334.505,366.047,150.7,38.516,240.67-40.348,277.9-105.526,45.523-79.764,101.7-278.336-29.213-430.882-57.1-66.512-114.113-141.372-161.3-225.078-65.877-116.884-70.434-285.849,4.02-388.177,53.459-73.495,139.716-112.353,183.882-200.994,31.9-63.967,37-140.6,24.093-207.791-13.544-70.3-44.831-133.458-86.052-187.989" transform="translate(52.761 103.426)"/><path class="f" d="M-34.76,1736.906c5.914-120.671,89.611-232.62,189.13-260.708,88.92-25.077,183.011,6.766,268.961,39.975,80.855,31.254,165.576,56.7,236.112,23.185,89.944-42.738,133.136-166.294,227.2-234.451,80.957-58.66,170.082-74.178,253.625-57.542,51.642,10.273,102.413,39.665,152.979,69.77,163.86,97.58,189.8,314.029,329.615,350.374,145.938,37.555,235.37-35.941,273.954-100,46.547-77.4,99.852-268.188-21.993-418.188-54.355-66.977-108.762-142.986-155.181-226.1-63.573-113.9-69.436-276.227-.307-377.221,50.31-73.588,132.829-115.364,176.815-202.67,32.414-64.246,39.915-139.883,30.084-207.388-10.395-71.6-38.4-137.617-77.629-195.128" transform="translate(55.133 110.432)"/><path class="f" d="M-33.24,1735.262c9.243-123.713,92.376-240.132,194.584-270.61,89.381-26.692,184.88,4.531,270.856,40.161,79.856,33.055,162.17,62.26,232.5,34.142,89.611-35.631,137.233-150.933,231.171-218.066,82.442-58.97,170.415-81.254,255.417-69.553,53.562,7.387,107.123,34.73,159.687,65.177,159.3,92.21,188.337,299.008,324.75,334.825,141.1,36.717,229.942-31.564,269.806-94.445,47.571-75.109,97.983-258.288-14.747-405.557A1853.545,1853.545,0,0,1,1741.673,924.21c-61.448-110.864-68.463-266.389-4.66-366.234,47.238-73.929,126.146-118.56,169.979-204.625,32.875-64.525,42.757-139.231,36.075-206.953-7.22-73-31.825-141.714-69.128-202.3" transform="translate(57.504 117.353)"/><path class="f" d="M-31.72,1733.574c12.6-126.723,95.244-247.58,200.037-280.541,89.867-28.274,186.9,2.3,272.75,40.348,78.858,34.885,158.74,67.846,228.867,45.406,89.2-28.553,141.3-135.6,235.165-201.738,83.953-59.156,170.773-88.455,257.235-81.564,55.456,4.407,111.758,29.826,166.42,60.521,154.592,86.9,186.9,283.769,319.886,319.057,136.311,35.662,224.54-27.095,265.761-88.889,48.646-72.78,96.242-248.572-7.476-392.893A2237.83,2237.83,0,0,1,1763.905,925.1c-59.041-107.852-67.515-256.8-9.012-355.215,44.165-74.271,119.387-121.695,163.066-206.518,31.436-61.852,46.135-134.07,42.04-206.549a481.865,481.865,0,0,0-60.807-209.4" transform="translate(59.876 124.316)"/><path class="f" d="M-30.2,1731.971c15.874-129.765,98.111-255.029,205.491-290.535,90.328-29.826,188.644,0,274.645,40.5,77.859,36.623,155.385,73.4,225.308,56.487,88.792-21.477,145.4-120.174,239.133-185.29,85.463-59.373,171.157-95.717,259.027-93.575,57.4,1.4,116.417,24.829,173.052,55.866,149.881,81.937,185.418,268.623,314.919,303.352,131.523,34.761,219.137-22.687,261.741-83.3,49.516-70.516,94.6-238.983-.256-380.262-46.086-68.777-92.786-147.735-136.926-229.175-56.788-104.842-66.568-247.3-13.365-344.228,40.965-74.706,112.654-124.861,156.179-208.474,32.007-61.69,48.69-133.243,48.057-206.115-1.01-76.6-19.122-151.428-52.409-216.543" transform="translate(62.248 131.195)"/><path class="f" d="M-28.68,1730.232c19.254-132.775,101-262.416,210.944-300.373,90.814-31.378,190.539-2.266,276.514,40.689,76.809,38.362,151.955,78.926,221.621,67.6,88.433-14.4,149.5-104.811,243.23-168.932,87.051-59.591,171.541-103.073,260.845-105.525,59.323-1.676,121,20.112,179.734,51.3,145.093,77.064,183.933,253.477,310.105,287.679,126.735,33.8,213.684-18.281,257.7-77.777,50.464-68.281,93.093-229.889,7.015-367.6-43.525-69.553-87.512-149.287-130.858-230.2-54.535-101.769-65.774-237.9-17.717-333.242,37.918-75.2,105.894-127.964,149.215-210.367,32.608-61.626,51.25-132.577,54.048-205.712,2.5-78.08-12.755-155.489-44.089-223.775" transform="translate(64.619 138.179)"/><path class="f" d="M-27.16,1728.65c22.582-135.816,103.9-269.8,216.4-310.367,91.3-32.868,192.459-4.563,278.434,40.844,75.913,40.1,148.5,84.513,218.011,78.709,88.024-7.324,153.619-89.386,247.1-152.546,88.51-59.777,171.9-110.49,262.663-117.567,61.217-4.779,125.583,15.332,186.391,46.555,140.28,72.347,182.5,238.363,305.266,272.037,121.922,32.868,208.2-13.935,253.625-72.222,51.411-65.954,91.71-220.951,14.261-354.936-40.709-70.485-82.186-150.87-124.764-231.224-52.307-98.759-65.006-228.586-22.07-322.255,34.744-75.761,99.161-131.1,142.277-212.291,34.846-65.581,54.816-136.717,60.04-205.277,6.069-79.465-6.255-159.407-35.589-230.851" transform="translate(66.991 145.037)"/><path class="f" d="M-25.64,1726.816C.3,1588.082,81.151,1449.659,196.186,1406.58c91.787-34.389,194.354-6.921,280.354,41.031,74.915,41.775,145.119,90.006,214.349,89.82,87.64-.28,157.716-73.992,251.09-136.19,90.046-59.963,172.232-117.94,264.455-129.547,63.163-7.945,130.192,10.584,193.1,42.055,135.39,67.753,181.014,223.216,300.376,256.332,117.16,31.937,202.726-9.528,249.579-66.636,52.307-63.719,90.533-212.229,21.532-342.3-37.918-71.385-76.809-152.422-118.7-232.248-50.08-95.686-64.315-219.368-26.423-311.268,31.518-76.381,92.427-134.234,135.364-214.154,35.358-65.86,57.94-136.1,66.031-204.842,9.628-80.851.2-163.354-27.191-237.99" transform="translate(69.363 152.147)"/><path class="f" d="M-24.12,1725.277c29.264-141.9,109.709-284.483,227.3-330.231,92.171-35.847,196.3-9.311,282.249,41.217,73.942,43.452,141.714,95.531,210.74,100.9,87.255,6.8,161.812-58.535,255.058-119.771,91.583-60.149,172.591-125.543,266.273-141.589,65.057-11.143,134.724,5.9,199.7,37.462,130.448,63.253,179.5,208.381,295.486,240.658,112.321,31.285,197.144-5.214,245.56-61.08,53.178-61.515,89.611-203.757,28.752-329.673-35-72.564-71.689-153.973-112.654-233.272-47.878-92.613-63.726-210.212-30.724-300.249,28.163-77.065,85.694-137.338,128.425-216.109C2007.9,347.432,2033.17,278.1,2044.1,209.07c13.206-82.227,6.684-167.32-18.793-245.19" transform="translate(71.734 158.963)"/><path class="f" d="M-22.6,1723.474c32.593-144.91,112.654-291.745,232.758-340.069,92.786-37.244,198.22-11.7,284.195,41.372,72.995,45.127,138.257,101.087,207.1,112.042,86.872,13.812,165.934-43.11,259.053-103.414s172.9-133.117,268.065-153.6c66.952-14.37,139.281,1.3,206.464,32.837,125.455,58.969,178.044,193.266,290.647,225.016,107.533,30.323,191.691-.9,241.489-55.524,54.048-59.342,88.741-195.532,36.024-317.009-32.081-73.805-66.389-155.525-106.586-234.3-45.676-89.572-63.214-201.18-35.128-289.262C1886.319,563.725,1940.47,501.093,1983,423.5c36.51-66.326,64.289-134.762,78.013-204.035,16.8-83.517,13.2-171.157-10.369-252.236" transform="translate(74.106 166.011)"/><path class="f" d="M-21.07,1721.809c36.024-147.953,115.521-299.039,238.289-350.064,93.3-38.734,200.165-14.122,286.038,41.558,72.073,46.741,134.9,106.58,203.494,123.122,86.487,20.856,170.031-27.623,263.021-86.9,94.732-60.46,173.18-140.751,269.883-165.581,68.821-17.691,143.787-3.259,213.146,28.212,120.514,54.656,176.662,178.12,285.757,209.343,102.72,29.361,186.186,3.383,237.444-50,54.919-57.139,88.228-187.4,43.269-304.346-28.881-75.109-61.064-157.045-100.441-235.321-43.525-86.468-62.856-192.179-39.454-278.275,21.327-78.616,72.252-143.576,114.574-219.957,36.894-66.574,67.49-134.079,84-203.632a541.137,541.137,0,0,0-1.946-259.436" transform="translate(76.493 172.953)"/><path class="f" d="M-19.55,1720.227C19.7,1569.264,98.89,1413.957,224.09,1360.2c93.81-40.161,202.265-16.573,287.933,41.744,71.126,48.324,131.5,112.1,199.858,134.233,86.1,27.934,174.1-12.166,267.015-70.669,96.216-60.615,173.436-148.418,271.675-177.593,70.69-20.981,148.293-7.7,219.854,23.588,115.5,50.559,175.1,162.973,280.867,193.669,97.932,28.43,180.63,7.666,233.4-44.413,55.764-55,88-179.517,50.541-291.745-25.6-76.537-55.815-158.567-94.373-236.314-41.323-83.4-62.6-183.117-43.807-267.289,17.743-79.454,65.544-146.71,107.533-221.881,37.432-66.822,70.741-133.458,90.021-203.2a549.289,549.289,0,0,0,6.427-266.544" transform="translate(78.865 179.811)"/><path class="f" d="M-18,1718.509c42.5-153.973,121.308-313.471,249.016-369.9,94.322-41.62,204.108-19.087,289.828,41.869,70.229,49.938,128.016,117.629,196.248,145.345,85.719,34.885,178.3,3.321,270.984-54.283,97.779-60.708,173.692-156.115,273.493-189.573,72.508-24.332,152.748-12.073,226.537,18.964,110.452,46.555,173.641,147.828,276,178,93.119,27.467,175.074,11.887,229.353-38.859,56.583-52.917,88.024-171.7,57.761-279.051-21.993-78.057-50.566-160.118-88.254-237.369-39.173-80.292-62.5-174.24-48.185-256.3,14-80.292,58.887-149.783,100.723-223.775,37.944-67.07,73.993-132.62,95.986-202.794,27.595-87.327,32.771-182.726,14.85-273.682" transform="translate(81.284 186.774)"/><path class="f" d="M-16.51,1716.779c45.932-157.015,124.354-320.7,254.546-379.734,94.732-43.017,206.105-21.57,291.722,42.054,69.308,51.521,124.738,122.936,192.613,156.455,85.438,41.683,182.448,18.778,274.978-37.9,99.34-60.863,173.9-163.874,275.285-201.739,74.249-27.684,157.2-16.294,233.219,14.37,105.434,42.52,172.258,132.4,271.137,162.322,88.382,26.288,169.518,16.108,225.308-33.3,57.4-50.838,88.408-163.9,65.032-266.419A1146.139,1146.139,0,0,0,1985.144,934.5c-37.022-77.158-62.523-165.24-52.538-245.19,10.241-81.13,52.128-152.887,93.784-225.7,38.4-67.288,77.27-131.844,102-202.391,31.192-88.532,39.3-186.509,23.248-280.789" transform="translate(83.608 193.779)"/><path class="f" d="M-15,1715.114c49.286-160.088,127.324-327.9,260.026-389.76,95.372-44.414,208.128-24.084,293.617,42.242,68.437,53.073,121.359,128.492,189,167.6,85.054,48.76,186.57,34.3,279.074-21.507,100.9-60.956,174.1-171.6,277.1-213.6,76.118-31.037,161.607-20.421,239.9,9.715,100.364,38.672,170.773,117.288,266.273,146.68,83.594,25.357,163.86,20.267,221.262-27.747,58.222-48.789,89.125-156.022,72.277-253.787-14.97-84.1-40.641-164.857-76.092-239.387-34.9-74.053-62.651-156.239-56.89-234.327,6.042-81.906,45.446-155.96,86.871-227.623,39.019-67.5,80.547-131.006,107.994-201.956,34.771-89.731,45.823-190.292,31.646-287.928" transform="translate(85.964 200.721)"/><path class="f" d="M-13.47,1713.511c52.589-163.1,130.269-335.2,265.453-399.6,95.909-45.779,210.151-26.63,295.512,42.4,67.567,54.625,117.954,134.048,185.367,178.679,84.7,55.866,190.795,50,282.94-5.153,102.566-60.8,174.255-179.361,278.9-225.606,77.911-34.451,166.011-24.363,246.609,5.121,95.269,34.854,169.314,102.235,261.382,130.975,78.781,24.426,158.33,24.426,217.192-22.191s90.123-147.952,79.549-241.093c-9.4-82.682-34.974-164.494-70.025-240.441-32.8-70.919-62.907-147.083-61.243-223.31,1.818-82.651,38.865-158.97,79.933-229.672,39.685-67.629,83.85-130.354,113.985-201.553,38.373-90.9,52.381-194.053,40.069-295.066" transform="translate(88.352 207.6)"/><path class="f" d="M-11.95,1711.823c55.917-166.2,133.316-342.056,270.907-409.685,96.5-46.99,212.2-29.206,297.406,42.582,66.568,56.177,114.574,139.665,181.782,189.759,84.311,62.88,194.891,65.426,286.909,11.235,104.1-60.956,174.383-187.121,280.713-237.618,79.677-37.833,170.338-28.088,253.266.529,90.3,31.037,167.854,86.9,256.518,115.3,74.019,23.494,152.749,28.522,213.172-16.637,59.835-44.723,91.378-139.665,86.769-228.461-4.353-83.986-29.8-166.046-64.008-241.435-30.724-67.815-63.265-137.834-65.6-212.353-2.56-83.241,32.132-162.074,73.02-231.441,40.2-67.909,87.051-129.33,119.977-201.118,41.97-92.028,58.947-197.75,48.518-302.143" transform="translate(90.723 214.627)"/><path class="f" d="M-10.43,1710.065c59.271-169.151,136.234-349.319,276.36-419.431,97.01-48.51,214.273-31.781,299.3,42.769C631.082,1391.1,676.4,1478.5,743.4,1534.18c83.953,69.926,198.988,80.851,290.9,27.623,105.613-61.173,174.511-194.911,282.505-249.629,81.444-41.279,174.69-31.626,259.974-4.127s166.421,71.912,251.628,99.658c69.129,22.533,147.167,32.62,209.127-11.08,60.654-42.769,92.914-130.758,94.04-215.8s-24.707-167.6-57.863-242.49c-28.6-64.649-63.726-128.368-69.948-201.335-7.118-83.8,25.4-165.208,66.082-233.365s90.43-128.461,125.968-200.715c45.525-93.177,65.43-201.489,56.839-309.281" transform="translate(93.095 221.569)"/></g><g transform="translate(923.07 -894.852)"><path class="f" d="M425.741,2667.7c-74.608-55.867-78.115-193.018-34.359-285.166s120-153.136,187.748-220.671,132.88-154.377,138.462-260.491c7.169-135.662-85.387-258.846-73.532-394.167,9.243-105.338,80.24-185.072,154.848-229.671,42.168-25.171,90.917-33.985,134.6-54.78,198.117-94.011,374.164,58.163,497.546-65.457,133.572-134.017,126.761-284.017,102.08-357.916-31.62-94.693-137.515-304.377-346.052-246.618-84.7,23.464-171.541,43.451-258.361,36.9-129.859-9.9-256.134-133.8-264.429-291.155-5.556-107.853,40.53-220.051,8.347-320.858-21.583-67.784-76.272-114.588-134.6-131.316S418.188-160.335,360.53-140.5" transform="translate(-360.53 553.818)"/><path class="f" d="M427.673,2675.527c-74.454-60.987-81.213-200.528-37.3-296.556,42.885-93.731,119.823-156.177,189.028-222.348,68.386-65.364,134.314-147.674,143.378-250.1,11.445-130.913-72.918-253.074-60.5-387.525,10.088-106.922,75.965-189.324,148.242-238.8,41.528-28.461,90.686-41.62,135.7-64,191.307-94.724,363.411,49.814,484.309-71.074,129.962-130.075,126.3-276.227,103.13-350.715-29.392-94.29-131.831-295.687-333.379-245.532-82.98,20.7-169.16,37.585-255.11,30.633C818.607,569.59,696.147,451.216,685.087,299.571,677.406,194.6,719.318,83.927,687.852-15.949,666.422-84.23,613.884-132.616,557.276-152.7c-57.121-20.236-118.389-15.3-176.815.776" transform="translate(-356.547 545.622)"/><path class="f" d="M431.132,2684.491c-74.249-66.046-84.337-207.946-40.274-307.915,42.015-95.283,119.644-159.312,190.334-224.055,69-63.19,135.7-141,148.217-239.7,15.746-126.133-60.68-247.3-47.494-381.037,10.728-108.629,71.689-193.545,141.662-248.015,40.965-31.844,90.456-49.255,137.054-73.185,184.7-94.91,352.76,41.713,471.1-76.319,126.377-126.133,125.839-268.406,104.153-343.3-27.139-93.855-126.2-287.152-320.679-244.445-81.521,17.877-167.035,31.5-252.063,24.116-123.151-10.118-241.95-123-255.75-269C697.738,199.536,735.554,90.411,704.6-8.534c-21.276-69.057-71.689-118.747-126.556-142.148-55.969-23.867-116.9-23.991-176.15-11.639" transform="translate(-354.169 536.283)"/><path class="f" d="M434.634,2694.507c-74.249-71.074-87.409-215.426-43.218-319.275,41.2-96.772,119.439-162.384,191.614-225.7,69.589-61.111,137.182-134.326,153.107-229.33,20.047-121.385-48.313-241.559-34.462-374.552,11.47-110.087,67.464-197.952,135.057-257.232,40.248-35.289,90.2-56.859,138.257-82.4,178.172-94.724,342.109,33.613,458.04-81.5,122.767-122.223,125.455-260.709,105.2-336.035-24.963-93.421-120.668-278.71-308.031-243.359-79.984,15.084-164.68,25.264-248.888,17.753C861.541,552.165,746.4,445.089,729.889,304.865,718.214,205.547,751.5,98.1,721.543.022c-21.276-69.615-69.461-121.043-122.537-147.549-54.816-27.53-115.445-32.682-175.458-24.053" transform="translate(-351.859 525.865)"/><path class="f" d="M438.132,2705.672c-74.044-76.134-90.482-222.875-46.086-330.636,40.376-98.261,119.234-165.549,192.92-227.406,70.178-58.97,138.615-127.655,157.946-218.933,24.374-116.605-35.844-235.879-21.43-368.033,12.238-111.732,63.189-202.545,128.5-266.481,39.608-38.8,89.918-64.4,139.46-91.62,171.721-94.289,331.484,25.511,444.932-86.717,119.157-118.25,124.867-252.732,106.253-328.71-22.787-92.955-115.214-270.423-295.358-242.3-78.525,12.415-162.375,19.243-245.79,11.359C883.089,545.2,771.613,443.652,752.436,309.17,738.687,212.708,767.8,106.873,738.508,9.7c-21.148-70.236-67.234-123.061-118.517-152.949C566.224-174.506,506.006-184.593,445.2-179.72" transform="translate(-349.519 514.327)"/><path class="f" d="M441.673,2717.722c-73.891-81.192-93.5-230.292-49.132-341.993,39.608-99.753,119-168.685,194.2-229.113,70.767-56.8,140.2-120.888,162.836-208.568,28.855-111.732-23.5-229.982-8.4-361.516,13.006-113.253,58.887-207.2,121.9-275.7,38.942-42.335,89.611-71.943,140.817-100.838,165.345-93.576,320.833,17.412,431.8-91.931,115.547-114.308,124.354-244.88,107.277-321.386-20.483-92.49-109.915-262.323-282.659-241.248-77.117,9.311-160.071,13.222-242.616,4.966C904.654,539.13,796.686,443.04,774.975,314.517c-15.823-93.7,9.063-197.89-19.51-294.135-21.02-70.888-64.955-125.326-114.472-158.287-52.563-35.071-112.526-50.031-174.1-48.883" transform="translate(-347.249 501.78)"/><path class="f" d="M445.254,2730.832c-73.763-86.249-96.549-237.71-52.1-353.383,38.84-101.18,118.747-171.85,195.506-230.759,71.279-54.717,141.637-114.214,167.7-198.2,33.284-106.953-11.086-224.209,4.609-355.03,13.8-114.836,54.535-211.949,115.214-284.917,38.4-45.965,89.432-79.455,141.918-110.025,159.021-92.707,310.182,9.311,418.663-97.145,111.963-110.4,123.817-237.027,108.327-314.123-18.486-91.962-104.666-254.5-269.985-240.131a1270,1270,0,0,1-239.466-1.427C925.953,534.146,821.466,443.457,797.271,320.675c-17.922-90.969,2.791-193.483-25.091-288.828C751.288-39.537,709.453-95.776,661.728-131.871c-51.437-38.92-111.041-58.722-173.436-61.329" transform="translate(-344.992 488.421)"/><path class="f" d="M448.868,2743.777c-73.609-91.28-99.52-245.19-55.072-364.744,38.149-102.638,118.517-175.048,196.837-232.465,71.817-52.763,143.07-107.512,172.565-187.8,37.509-102.141,1.357-218.436,17.641-348.542,14.568-116.357,50.131-216.761,108.711-294.135,37.585-49.659,89.2-86.9,143.147-119.243,152.774-91.589,299.557,1.21,405.528-102.421,108.352-106.456,123.279-229.144,109.376-306.8-16.386-91.465-101.8-272.192-257.337-238.983-73.353,15.518-155.437,1.148-236.291-7.821-106.33-11.763-207.386-97.083-234.038-214-20.1-88.268-3.456-189.076-30.724-283.49-20.083-68.442-57.3-127.569-106.458-169.119A311.812,311.812,0,0,0,510.009-199.53" transform="translate(-342.692 475.105)"/><path class="f" d="M452.423,2756.763c-73.481-96.214-102.413-252.485-58.042-376.135,37.432-103.942,118.235-178.214,198.245-234.11,72.329-50.621,144.53-100.839,177.455-177.437,41.81-97.362,13.8-212.694,30.724-342.024,15.362-117.94,45.676-221.7,102.131-303.384,36.843-53.352,88.945-94.352,144.351-128.462,146.578-90.285,288.88-6.89,392.394-107.573,104.743-102.421,122.69-221.23,110.4-299.473-14.286-90.969-96.37-266.916-244.638-238.021-72.252,14.06-153.132-4.842-233.142-14.184C969.325,523.949,871.547,443.967,842.59,332.918c-22.3-85.568-9.7-184.638-36.2-278.12C786.779-14.088,751.225-74.674,703.974-119.722,654.1-166.773,594.626-196.549,531.9-205.88" transform="translate(-340.512 461.747)"/><path class="f" d="M456.057,2769.8c-73.3-101.365-105.434-259.808-60.987-387.462C431.811,2276.813,513,2200.866,594.493,2146.46c72.841-48.6,145.938-94.135,182.294-167.04,46.086-92.583,26.269-206.922,43.7-335.538,16.181-119.522,41.2-226.568,95.551-312.6,36.1-57.076,88.74-101.738,145.579-137.679,140.459-88.827,278.229-14.96,379.259-112.756,101.132-98.573,122.127-213.347,111.45-292.211-12.238-90.41-90.865-261.237-231.964-236.935-71.279,12.415-150.8-10.863-229.993-20.577C990.753,518.893,896.2,444.219,865.067,339.1c-24.6-82.93-15.951-180.23-41.784-272.782C804.117-3.143,770.168-65.238,724.865-113.7c-48.6-51.28-107.885-85.379-171.388-98.573" transform="translate(-338.333 448.305)"/><path class="f" d="M459.726,2782.619c-73.174-106.425-108.378-267.165-64.008-398.853,36.049-106.859,117.621-184.7,200.7-237.492,73.327-46.555,147.4-87.4,187.184-156.644,50.438-87.772,38.763-201.118,56.737-328.989,17-121.043,36.638-231.627,88.945-321.82,35.307-60.863,88.536-109.063,146.809-146.9,134.391-87.213,267.578-23.061,366.125-117.94,97.548-94.631,121.513-205.432,112.475-284.886-10.241-90.006-85.259-255.339-219.266-235.879-70.485,10.242-148.5-16.853-226.844-26.971-96.268-12.415-187.7-81.782-221.032-181.037-26.935-80.292-22.172-175.823-47.34-267.444-20.355-74.023-53.562-137.431-94.4-185.352-47.295-55.5-106.414-93.923-170.722-110.956" transform="translate(-336.165 435.114)"/><path class="f" d="M463.365,2795.625c-73.02-111.484-111.271-274.519-66.9-410.212,35.384-108.256,117.314-187.99,202.009-239.17,73.814-44.63,148.806-80.694,192.023-146.276,54.74-82.993,51.206-195.345,69.743-322.565,17.922-122.626,32.055-236.655,82.365-331.038,34.462-64.649,88.382-116.357,148.037-156.084,128.374-85.475,256.927-31.036,353.016-123.215,93.912-90.69,120.847-197.518,113.5-277.561-8.193-89.355-79.754-218.5-206.618-234.793-69.692-8.97-146.168-22.843-223.669-33.364-92.914-12.632-181.347-76.661-216.68-170.019C880.8,273.736,881.772,179.912,857.244,89.223,837.069,14.579,806.037-50.753,766.89-101.529,720.945-161.268,662-204.037,596.86-224.9" transform="translate(-333.992 421.735)"/><path class="f" d="M467.055,2808.591c-72.892-116.543-114.164-281.844-69.871-421.6,34.744-109.654,116.981-191.28,203.315-240.845,74.249-42.644,150.214-74.053,196.914-135.879,58.887-78.213,63.726-189.572,82.775-316.047,18.69-124.147,27.4-241.714,75.785-340.287,33.591-68.467,88.2-123.619,149.241-165.3,122.409-83.8,246.43-39.044,339.882-128.43,90.456-86.5,120.207-189.6,114.548-270.268-6.247-88.765-74.94-212.2-193.944-233.707-68.591-12.415-143.864-28.8-220.52-39.758-89.611-12.787-175.1-71.385-212.353-159.032-31.876-74.923-34.641-167.009-58.5-256.736C854.3,25.4,825.525-41.885,787.99-95.454c-44.575-63.973-103.356-111.1-169.365-135.786" transform="translate(-331.845 408.398)"/><path class="f" d="M470.746,2821.555c-72.739-121.571-117.032-289.169-72.841-432.962,34.155-111.05,116.674-194.631,204.62-242.552,74.736-40.72,151.647-67.349,201.778-125.513,63.317-73.4,76.246-183.768,95.807-309.529s22.736-246.773,69.129-349.5c32.7-72.284,88.075-130.789,150.47-174.52,116.494-81.657,235.779-47.145,326.747-133.458,86.846-82.589,119.515-181.72,115.573-262.974-4.276-88.238-70.1-206.332-181.245-232.776-67.515-15.953-141.56-34.73-217.4-46.12-86.18-12.942-168.981-66.295-208-148.045C920.926,291.379,914.551,201,891.38,112.2,871.512,36.257,845.013-32.955,809.066-89.349c-43.188-68.193-101.8-119.693-168.7-148.231" transform="translate(-329.724 395.06)"/><path class="f" d="M474.462,2834.7c-72.61-126.629-119.874-296.493-75.811-444.322,33.54-112.446,116.315-198.014,205.926-244.228,75.2-38.827,153.056-60.677,206.643-115.146,67.592-68.653,88.766-177.964,108.839-303.042,20.483-127.25,17.922-251.8,62.6-358.723,31.748-76.1,88-137.9,151.673-183.738,110.657-79.609,225.154-55.245,313.638-138.827,83.236-78.647,118.824-173.806,116.622-255.649-2.355-87.71-65.237-200.777-168.6-231.565-66.389-19.957-139.23-40.844-214.222-52.7-82.852-13.067-162.939-60.987-203.648-137.027-37.176-69.429-47.059-158.287-69.641-246.059C888.773,47.1,864.578-24.1,830.193-83.284c-41.764-72.4-100.2-128.273-168.008-160.646" transform="translate(-327.603 381.702)"/><path class="f" d="M478.172,2847.475c-72.457-131.658-122.69-303.787-78.755-455.681,32.926-113.812,115.982-201.367,207.206-245.9,75.657-36.933,154.464-54,211.533-104.748C890.025,1977.236,919.442,1868.95,940,1744.617c21.327-128.9,13.237-256.892,56.02-367.971,30.724-79.921,87.947-144.942,152.9-192.926,104.973-77.592,214.5-63.377,300.5-144.072,79.626-74.705,118.082-165.861,117.775-248.294-.461-87.12-60.321-195.531-155.923-230.479-65.237-23.805-136.925-46.555-211.072-58.97-79.37-13.191-157.024-55.649-199.321-126.04-40.069-66.636-53.357-153.849-75.3-240.721-19.535-77.219-41.426-150.4-74.249-212.353C811.018-153.81,752.748-214.071,684-250.27" transform="translate(-325.501 368.365)"/><path class="f" d="M481.9,2860.44C409.576,2723.724,356.45,2549.328,400.18,2393.4c32.337-115.177,115.624-204.842,208.512-247.611,76.092-35.041,155.872-47.331,216.4-94.352,76.144-59.156,113.832-166.388,134.877-290.038,22.2-130.355,8.423-261.92,49.414-377.19,29.8-83.8,87.947-151.894,154.131-202.142,99.11-75.264,203.827-71.384,287.37-149.255,76.016-70.795,117.339-157.977,118.7-241.062,1.434-86.592-55.226-190.751-143.224-229.423-64.008-28.119-134.622-52.514-207.923-65.177-76.144-13.408-151.187-50.249-194.865-115.178C980.6,318.439,964.012,232.56,942.659,146.619,923.329,68.748,903.768-6.392,872.43-71.134c-38.864-80.78-96.964-145.433-166.677-185.476" transform="translate(-323.396 355.028)"/><path class="f" d="M485.674,2873.4c-72.2-141.775-128.3-318.375-84.7-478.431,31.774-116.542,115.214-208.225,209.792-249.256,76.553-33.241,157.254-40.72,221.262-83.985,80.317-54.594,126.377-160.584,147.884-283.551,23.043-131.968,3.61-266.916,42.86-386.408,28.778-87.554,88-158.752,155.334-211.36,93.4-72.967,193.048-79.764,274.235-154.47,72.3-67.039,116.571-150,119.772-233.8,3.277-86.1-49.977-186.22-130.576-228.368-65.48-34.358-134.312-58.441-204.825-71.664-72.739-13.439-145.349-44.476-190.564-104-45.83-60.366-65.621-145.035-86.359-230.013C940.642,79.571,923.437,2.476,893.584-65.06,856.2-150,798.279-219.049,727.6-262.95" transform="translate(-321.327 341.69)"/><path class="f" d="M489.431,2886.5c-72.047-146.834-131.063-325.7-87.64-489.791,31.185-117.939,114.881-211.731,211.1-250.962,76.989-31.409,158.739-34.14,226.127-73.587,84.644-49.814,138.948-154.811,160.941-277.065,24.016-133.458-1.28-271.975,36.254-395.624,27.7-91.373,88.178-165.551,156.538-220.579,87.742-70.609,182.4-87.865,261.152-159.684,68.668-63.1,115.752-142.179,120.77-226.568,5.121-85.568-44.473-181.937-117.775-227.251-63.452-38.546-131.465-64.891-201.6-78.088-69.487-13.439-139.691-38.672-186.289-93.11-48.9-57.046-71.689-140.659-91.941-224.675C958.122,90.335,943.3,11.222,914.878-59.045c-35.912-89.078-93.652-162.529-165.32-210.305" transform="translate(-319.246 328.227)"/><path class="f" d="M493.2,2899.356c-71.919-151.864-133.828-332.994-90.609-501.182,30.724-119.274,114.523-215.24,212.506-252.639,77.424-29.578,160.071-27.467,230.992-63.191,88.945-45.065,151.7-148.976,173.948-270.547,25.168-135.01-6.145-277,29.674-404.874,26.678-95.19,88.357-172.1,157.792-229.672,82.135-68.281,171.746-96,247.966-164.9,64.981-59.28,114.933-134.544,121.717-219.243s-38.686-177.84-105.2-226.2c-58.887-42.924-127.734-70.081-198.45-84.482-66.158-13.439-133.981-32.682-181.91-82.061-52-53.476-77.859-136.282-97.5-219.306-18.639-79.889-31.185-160.8-58.2-233.955C901.54-146.119,843.983-224,771.3-275.64" transform="translate(-317.205 314.995)"/><path class="f" d="M496.915,2912.257c-71.689-156.921-136.337-340.223-93.58-512.54,30.263-120.608,114.19-218.777,213.71-254.315,77.91-27.932,161.5-20.825,235.882-52.762,93.246-40.348,164.167-143.141,186.9-264.03,26.013-136.561-11.061-282,23.043-414.092,25.6-99.007,88.664-178.554,159.021-238.983,76.6-65.8,161.095-104.066,234.832-170.113,61.448-55.214,114.062-126.475,122.895-211.826,8.705-84.575-32.49-173.806-92.53-225.141-56.737-48.51-125.456-75.854-195.3-90.844-62.83-13.47-128.246-26.568-177.635-71.074-55.124-49.659-84.081-131.875-103.053-213.967C992.618,112.061,982.53,29.193,956.927-46.816c-32.867-97.313-90.2-179.59-163.86-235.134" transform="translate(-315.107 301.72)"/><path class="f" d="M500.77,2925.285c-71.689-161.981-139.256-347.611-96.55-523.931,29.572-122.036,113.832-222.347,215.067-255.991,78.346-26.07,162.938-14.121,240.669-42.458,97.548-35.506,176.662-137.338,199.986-257.6,26.858-138.114-15.976-286.965,16.514-423.31,24.477-102.794,89.1-184.855,160.225-248.294S1387.1,1061.685,1458.4,998.525C1516.267,947.253,1571.57,879.9,1582.3,793.993c10.5-84.11-25.859-169.678-79.831-224.055s-123.049-81.6-192.177-97.238c-59.5-13.47-122.485-20.2-173.282-60.056-58.273-45.686-90.328-127.5-108.634-208.629S1002.413,38.093,978.218-40.771C946.841-142.2,889.66-228.9,814.946-288.32" transform="translate(-313.125 288.32)"/></g></g></g></g></g></svg>