<svg xmlns="http://www.w3.org/2000/svg" xmlns:xlink="http://www.w3.org/1999/xlink" width="414" height="467" viewBox="0 0 414 467"><defs><style>.a,.f{fill:none;stroke:#fff;stroke-width:2px;}.b{fill:#f6f6f6;}.c{opacity:0.559;}.d{fill:#ececec;opacity:0.5;}.e{clip-path:url(#a);}.f{stroke-miterlimit:10;}</style><clipPath id="a"><rect class="a" width="414" height="467"/></clipPath></defs><g transform="translate(0 -1993)"><g transform="translate(0 1993)"><rect class="b" width="414" height="467"/><g class="c"><rect class="d" width="413" height="467" transform="translate(1)"/><g class="e"><g transform="translate(-85.194 -151.189)"><path class="f" d="M166.37-52.3q-5,36.181-12.535,71.16c-2.208,10.343-4.7,20.816-9,29.079-11,21.124-30.247,21.777-46.673,17.188A140.691,140.691,0,0,1,54.08,43.49C40.093,33.455,26.565,20.5,11.579,16.248S-20.837,18.86-28.912,40.581c-4.8,12.945-5.569,29.322-3.693,44.272s6.182,28.7,10.956,41.67c5.47,14.847,11.817,29.891,12.64,47.322.85,18.056-5.05,36.522-14.456,45.214-13.374,12.367-29.745,4.607-44.747,0-19.054-5.866-39.492-5.82-56.9,8.534s-30.865,45.531-29.077,78.117" transform="translate(154.349 154.712)"/><path class="f" d="M163.986-57.53q-4.863,35.37-12.309,69.509c-2.208,10.091-4.642,20.294-8.831,28.389-10.714,20.686-29.336,21.824-45.31,17.888q-5.691-1.4-11.315-3.395A138.263,138.263,0,0,1,54.577,38.652C40.911,29.326,27.664,17.2,13.015,13.313s-31.163,3.218-39.7,23.446a86.089,86.089,0,0,0-6.325,24.649,113.547,113.547,0,0,0-.375,18.513q.244,4.3.778,8.534c1.468,11.415,4.592,22.588,8.009,33.211.337,1.054.679,2.1,1.021,3.152,5.343,16.293,10.984,32.959,11.293,51.192.3,17.552-5.183,35.44-14.351,43.973-13.032,12.2-28.922,5.213-43.433,1.315-1.143-.308-2.291-.6-3.444-.849-17.42-3.936-35.634-2.332-51.177,11.248-16.559,14.474-29.226,44.981-27.222,76.643" transform="translate(153.35 155.064)"/><path class="f" d="M161.633-62.76c-3.158,23.038-7.2,45.7-12.093,67.858-2.169,9.839-4.581,19.79-8.666,27.708-10.4,20.238-28.431,21.852-43.947,18.569q-5.52-1.175-11.006-2.919A130.466,130.466,0,0,1,55.078,33.8C41.732,25.243,28.766,13.93,14.465,10.377s-30,3.833-38.885,22.551a92.485,92.485,0,0,0-8.075,23.6,105.165,105.165,0,0,0-1.656,18.466c-.01,2.978.1,5.953.32,8.907.927,12.068,4.029,24.248,7.38,35.8.337,1.147.668,2.285,1,3.423,5.216,17.72,10.167,35.972,9.935,55.025-.193,17.02-5.315,34.3-14.229,42.752-12.695,12.012-28.089,5.8-42.114,2.639-1.1-.252-2.208-.485-3.312-.69-16.824-3.078-34.254-.746-49.008,12.954-15.736,14.6-27.6,44.43-25.39,75.17" transform="translate(152.325 155.417)"/><path class="f" d="M159.237-68c-3.075,22.5-7.042,44.619-11.873,66.217-2.147,9.587-4.526,19.268-8.5,27.046-10.173,19.772-27.526,21.87-42.589,19.231A106.793,106.793,0,0,1,85.584,42.06,123.07,123.07,0,0,1,55.547,28.994C42.52,21.187,29.837,10.7,15.872,7.487S-13.061,11.88-22.213,29.152c-3.985,7.517-7.628,14.195-9.819,22.523A95.074,95.074,0,0,0-35,70.029c-.2,3.1-.251,6.215-.16,9.326.386,12.721,3.466,25.955,6.756,38.406.326,1.231.651,2.462.982,3.731,5.089,19.2,9.383,38.919,8.6,58.933-.629,16.452-5.453,33.192-14.119,41.511-12.336,11.844-27.261,6.407-40.8,3.964-1.071-.187-2.142-.364-3.212-.513-16.222-2.229-32.874.83-46.844,14.652-14.9,14.736-25.942,43.834-23.513,73.678" transform="translate(151.343 155.77)"/><path class="f" d="M156.848-73.21c-2.992,21.948-6.887,43.516-11.657,64.547-2.114,9.326-4.471,18.727-8.335,26.319-9.863,19.38-26.615,21.954-41.22,19.968A101.6,101.6,0,0,1,85.26,35.675,116.688,116.688,0,0,1,56.006,24.11C43.311,17.041,30.9,7.323,17.281,4.525S-10.665,9.4-19.987,25.285c-4.416,7.461-8.737,13.383-11.591,21.451A85.785,85.785,0,0,0-35.84,65.118a89.349,89.349,0,0,0-.618,9.643c-.16,13.374,2.9,27.643,6.127,41.036l.96,3.964c4.984,20.62,8.6,41.782,7.264,62.766-1.01,15.855-5.586,32.092-14.009,40.29-11.988,11.667-26.428,7-39.481,5.288-1.032-.14-2.064-.252-3.1-.345-15.615-1.4-31.484,2.406-44.67,16.321-14.058,14.857-24.286,43.33-21.653,72.223" transform="translate(150.353 156.121)"/><path class="f" d="M154.473-78.44c-2.908,21.406-6.732,42.426-11.442,62.9C140.944-6.46,138.615,2.69,134.873,10.1,125.285,29.027,109.157,32.086,95,30.752a99.375,99.375,0,0,1-10.062-1.474A109.726,109.726,0,0,1,56.506,19.262C44.12,12.939,32,4.079,18.719,1.542S-8.327,6.877-17.754,21.435C-22.6,28.9-27.6,34.007-31.067,41.832a77.679,77.679,0,0,0-5.52,18.335,83.021,83.021,0,0,0-1.1,10c-.7,13.989,2.34,29.322,5.52,43.6.309,1.418.624,2.8.933,4.243,4.846,22.094,7.838,44.673,5.917,66.655-1.336,15.286-5.713,30.991-13.893,39.068-11.7,11.518-25.644,7.629-38.19,6.631-.988-.075-1.982-.13-2.975-.168-15.024-.522-30.115,3.982-42.5,18.046-13.219,14.987-22.68,42.78-19.793,70.749" transform="translate(149.351 156.473)"/><path class="f" d="M152.014-83.67c-2.826,20.864-6.581,41.338-11.232,61.246-2.064,8.841-4.349,17.72-7.992,24.967-9.306,18.5-24.81,22.038-38.5,21.357a95.637,95.637,0,0,1-9.753-.989,103.632,103.632,0,0,1-27.636-8.468C44.829,8.847,32.99.826,20.057-1.337S-6.149,4.333-15.615,17.679C-20.931,25.14-26.577,29.4-30.684,36.966a70.348,70.348,0,0,0-6.817,18.3,77.067,77.067,0,0,0-1.59,10.362c-1.242,14.68,1.783,31.01,4.874,46.249q.464,2.257.916,4.514c4.719,23.54,7.115,47.508,4.57,70.525-1.623,14.689-5.845,29.844-13.8,37.828-11.293,11.322-24.772,8.2-36.854,7.937h-2.859c-14.428.336-28.735,5.6-40.348,19.744-12.386,15.118-21.046,42.23-17.944,69.276" transform="translate(148.443 156.826)"/><path class="f" d="M149.546-88.9c-2.734,20.323-6.412,40.25-11,59.6-2.031,8.59-4.289,17.2-7.827,24.248-9.019,18.065-23.9,22.075-37.141,22.047a87.13,87.13,0,0,1-9.433-.513,97.263,97.263,0,0,1-26.836-6.92C45.563,4.727,34-2.492,21.431-4.31S-5.427-.953-13.458,13.811c-6.485,5.586-12.071,10.977-16.8,18.27a64.5,64.5,0,0,0-8.114,18.252,72.443,72.443,0,0,0-2.07,10.735c-1.783,15.323,1.22,32.642,4.25,48.786q.453,2.4.894,4.794c4.592,24.985,6.425,50.362,3.223,74.386-1.877,14.1-5.961,28.809-13.689,36.606-10.951,11.145-23.944,8.795-35.54,9.261-.916,0-1.827.093-2.76.168-13.826,1.184-27.36,7.135-38.184,21.451-11.541,15.249-19.407,41.679-16.084,67.8" transform="translate(147.517 157.178)"/><path class="f" d="M147.123-94.13a571.6,571.6,0,0,1-10.785,57.944c-2,8.328-4.228,16.685-7.656,23.6-8.737,17.6-22.994,22.1-35.778,22.719q-4.559.224-9.124,0A92.473,92.473,0,0,1,57.744,4.766C46.319.635,35.042-5.763,22.794-7.274S-3.247-3.777-11.267,9.989c-7.01,5.279-13.192,10.147-18.551,17.244A59.821,59.821,0,0,0-39.2,45.457a68.991,68.991,0,0,0-2.55,11.089c-2.324,15.976.662,34.367,3.626,51.388q.442,2.518.872,5.064c4.465,26.431,5.768,53.16,1.877,78.248-2.108,13.467-6.121,27.634-13.573,35.337-10.6,10.968-23.11,9.392-34.221,10.576-.878.093-1.75.215-2.627.345-13.247,2.042-25.981,8.711-36.021,23.148-10.7,15.361-17.767,41.12-14.229,66.32" transform="translate(146.562 157.53)"/><path class="f" d="M144.649-99.36a532.474,532.474,0,0,1-10.564,56.294c-1.976,8.077-4.178,16.162-7.49,22.905-8.456,17.2-22.089,22.141-34.42,23.409a80.784,80.784,0,0,1-8.831.448A87.532,87.532,0,0,1,58.108-.119C47-3.467,36.029-9.053,24.1-10.173A34.79,34.79,0,0,0-9.132,6.167c-7.529,4.98-14.3,9.326-20.3,16.134A56.176,56.176,0,0,0-40.118,40.479a66.079,66.079,0,0,0-3.025,11.453c-2.865,16.629.1,36.046,3,53.981q.431,2.658.85,5.335c4.338,27.886,5.155,55.958.552,82.127-2.3,12.926-6.27,26.561-13.446,34.144-10.277,10.8-22.3,10-32.924,11.91-.839.149-1.656.317-2.511.513-12.629,2.891-24.6,10.259-33.857,24.845-9.863,15.491-16.128,40.569-12.369,64.846" transform="translate(145.658 157.883)"/><path class="f" d="M142.16-104.59A494.688,494.688,0,0,1,131.81-49.947c-1.948,7.834-4.118,15.659-7.319,22.225C116.317-10.935,103.307-5.507,91.429-3.586a81.35,81.35,0,0,1-8.489.933A83.634,83.634,0,0,1,58.505-4.929c-10.78-2.639-21.488-7.405-33.079-8.179S.975-9.378-7.029,2.336C-15.076,7-22.439,10.87-29.074,17.407a53.508,53.508,0,0,0-11.955,18.14,64.278,64.278,0,0,0-3.5,11.816C-47.94,64.645-45,85.1-42.161,103.946c.282,1.865.552,3.731.833,5.6,4.217,29.331,4.576,58.821-.811,85.988-2.451,12.367-6.4,25.48-13.335,32.931-9.935,10.613-21.449,10.585-31.588,13.234-.8.205-1.6.429-2.4.681-12.033,3.731-23.221,11.863-31.688,26.543-9.03,15.622-14.494,40.019-10.487,63.419" transform="translate(144.769 158.235)"/><path class="f" d="M139.594-109.82a459.681,459.681,0,0,1-10.139,52.992c-1.921,7.582-4.057,15.137-7.148,21.544-7.893,16.321-20.279,22.253-31.7,24.827a75.6,75.6,0,0,1-8.18,1.408A80.657,80.657,0,0,1,58.8-9.8c-10.487-1.865-20.9-5.81-32.118-6.239S3.057-12.248-4.969-1.486C-13.535,2.888-21.494,6.237-28.758,12.5A51.5,51.5,0,0,0-42.005,30.6a62.958,62.958,0,0,0-3.985,12.18c-3.941,17.953-1.032,39.432,1.739,59.194q.414,2.938.806,5.885c4.1,30.777,4.051,61.693-2.153,89.859-2.6,11.788-6.508,24.36-13.247,31.709-9.565,10.446-20.627,11.192-30.28,14.558-.756.27-1.518.55-2.274.858-11.431,4.6-21.841,13.439-29.524,28.24-8.191,15.752-12.855,39.469-8.66,61.9" transform="translate(143.956 158.587)"/><path class="f" d="M137.029-115a424.1,424.1,0,0,1-9.935,51.295c-1.888,7.331-4,14.614-6.982,20.854C112.505-27,100.743-20.552,89.754-17.335a70.4,70.4,0,0,1-7.86,1.865,77.879,77.879,0,0,1-22.834.83c-10.139-1.128-20.3-4.243-31.174-4.327S5.072-15.078-2.92-5.3C-12-1.219-20.555,1.579-28.453,7.632A49.764,49.764,0,0,0-43,25.687a61.871,61.871,0,0,0-4.46,12.544c-4.487,18.6-1.584,41.1,1.1,61.777q.4,3.059.784,6.155c3.969,32.222,3.571,64.6-3.5,93.72-2.732,11.238-6.623,23.26-13.109,30.46C-71.4,240.6-81.971,242.132-91.139,246.2c-.723.326-1.441.662-2.158,1.026-10.835,5.447-20.461,15.025-27.36,29.938-7.352,15.855-11.216,38.919-6.8,60.425" transform="translate(143.138 158.936)"/><path class="f" d="M134.418-120.28a393.568,393.568,0,0,1-9.692,49.691c-1.866,7.069-3.941,14.1-6.817,20.163C110.584-34.982,99.446-28.043,88.937-24.21q-3.753,1.38-7.551,2.369a75.913,75.913,0,0,1-22.029,2.378c-9.825-.382-19.694-2.686-30.231-2.416S7.843-15.35-.916-9.092C-9.99-2.563-19.683-2.992-28.2,2.781A48.594,48.594,0,0,0-44.029,20.79,60.936,60.936,0,0,0-49,33.7c-5.028,19.25-2.142,42.78.5,64.351q.386,3.208.762,6.435c3.864,33.677,3.141,67.56-4.846,97.581-2.826,10.7-6.75,22.141-12.971,29.219-8.875,10.091-18.965,12.423-27.647,17.207-.684.373-1.363.774-2.042,1.194-10.233,6.3-19.081,16.6-25.2,31.635-6.513,16-9.582,38.368-4.968,58.952" transform="translate(142.371 159.292)"/><path class="f" d="M131.751-125.5a364.077,364.077,0,0,1-9.477,48.03,120.51,120.51,0,0,1-6.623,19.483c-7.043,15.015-17.558,22.383-27.6,26.906q-3.582,1.623-7.231,2.854A74.931,74.931,0,0,1,59.549-24.31c-9.5.364-19.092-1.119-29.287-.5S9.636-18.425,1.009-12.922C-8.651-6.748-18.862-7.625-28.019-2.1a47.579,47.579,0,0,0-17.105,17.9,60.57,60.57,0,0,0-5.415,13.271c-5.575,19.93-2.71,44.5-.127,67q.381,3.33.74,6.706c3.715,35.123,2.76,70.572-6.193,101.451-2.953,10.194-6.9,21.05-12.883,27.979-8.528,9.942-18.132,13.02-26.328,18.55-.646.438-1.286.933-1.926,1.371-9.637,7.153-17.7,18.177-23.028,33.332-5.68,16.135-7.948,37.818-3.091,57.478" transform="translate(141.66 159.644)"/><path class="f" d="M129.005-130.73a334.8,334.8,0,0,1-9.262,46.38,124.656,124.656,0,0,1-6.474,18.8c-6.761,14.568-16.653,22.383-26.251,27.6A75.664,75.664,0,0,1,80.1-34.622a75.289,75.289,0,0,1-20.422,5.484c-9.179,1.1-18.485.438-28.337,1.408s-19.97,6.249-28.437,11c-10.266,5.7-20.985,4.439-30.788,9.7A47.876,47.876,0,0,0-46.29,10.89a60.113,60.113,0,0,0-5.895,13.635C-58.3,45.043-55.453,70.672-52.942,94.1q.375,3.469.723,6.967c3.593,36.55,2.456,73.669-7.54,105.322-3.052,9.69-7.032,19.949-12.767,26.776-8.18,9.746-17.3,13.57-25.015,19.856-.607.494-1.214,1.007-1.81,1.539-9.041,8.011-16.327,19.753-20.864,35.03-4.841,16.265-6.309,37.305-1.231,56" transform="translate(141.028 159.996)"/><path class="f" d="M126.168-136a308.437,308.437,0,0,1-9.041,44.766,126.526,126.526,0,0,1-6.281,18.065,64.132,64.132,0,0,1-24.893,28.3q-3.262,2.089-6.623,3.814A77.176,77.176,0,0,1,59.7-34.035c-8.831,1.865-17.889,2.005-27.4,3.32s-19.318,6.09-27.631,10.11c-10.84,5.232-22.1,3.684-32.532,8.645a47.975,47.975,0,0,0-19.7,17.916,60.016,60.016,0,0,0-6.375,13.989c-6.64,21.255-3.814,47.835-1.352,72.176q.364,3.609.7,7.247c3.466,38.023,2.208,76.83-8.881,109.183-3.152,9.214-7.175,18.848-12.662,25.554-7.86,9.569-16.487,14.139-23.707,21.171-.552.56-1.137,1.128-1.694,1.707-8.439,8.869-14.947,21.339-18.7,36.736-4,16.4-4.67,36.718.624,54.531" transform="translate(140.487 160.351)"/><path class="f" d="M123.211-141.19a282.1,282.1,0,0,1-8.831,43.032,129.808,129.808,0,0,1-6.143,17.422A72.21,72.21,0,0,1,84.723-51.751q-3.1,2.322-6.292,4.3A79.728,79.728,0,0,1,59.6-38.88c-8.539,2.593-17.282,3.572-26.45,5.232S14.53-27.754,6.317-24.434c-11.453,4.663-23.182,2.873-34.265,7.61A47.606,47.606,0,0,0-48.922,1.027a60.118,60.118,0,0,0-6.855,14.362c-7.175,21.861-4.416,49.513-2,74.769q.359,3.731.673,7.517c3.345,39.469,1.987,80.094-10.222,113.054-3.245,8.748-7.3,17.72-12.546,24.314-7.49,9.4-15.648,14.782-22.382,22.5-.552.606-1.06,1.24-1.579,1.865-7.785,9.525-13.575,22.989-16.531,38.443-3.168,16.508-3.036,36.158,2.478,53.048" transform="translate(140.061 160.701)"/><path class="f" d="M120.134-146.42a257.017,257.017,0,0,1-8.6,41.372,135.516,135.516,0,0,1-5.972,16.787A83.226,83.226,0,0,1,83.39-58.576c-1.959,1.707-3.958,3.292-5.978,4.775A84.124,84.124,0,0,1,59.385-43.681c-8.219,3.339-16.68,5.129-25.511,7.144s-17.916,5.67-26.019,8.328c-12.049,3.954-24.319,2.07-36.015,6.528A47.643,47.643,0,0,0-50.421-3.9a60.294,60.294,0,0,0-7.335,14.717c-7.727,22.514-4.968,51.192-2.627,77.362q.339,3.875.651,7.8c3.218,40.915,1.844,83.47-11.591,116.915-3.312,8.31-7.435,16.629-12.436,23.092-7.12,9.224-14.792,15.37-21.035,23.829q-.734.989-1.457,2.042c-7.176,10.463-12.2,24.505-14.351,40.1-2.329,16.638-1.4,35.608,4.333,51.575" transform="translate(139.76 161.053)"/><path class="f" d="M116.828-151.65a234.76,234.76,0,0,1-8.384,39.721,146.869,146.869,0,0,1-5.807,16.06,98.265,98.265,0,0,1-20.8,30.376c-1.855,1.865-3.748,3.609-5.663,5.251A89.905,89.905,0,0,1,58.939-48.566c-7.893,4.076-16.078,6.687-24.562,9.047s-17.2,5.428-25.219,7.461c-12.634,3.19-25.429,1.24-37.765,5.465A48.412,48.412,0,0,0-52.153-8.874a60.573,60.573,0,0,0-7.81,15.127c-8.279,23.167-5.52,52.88-3.257,79.964.226,2.667.436,5.363.635,8.067,3.091,42.36,1.761,86.958-12.916,120.776a108.861,108.861,0,0,1-12.32,21.87c-6.795,9.047-13.987,15.976-19.755,25.181-.453.728-.9,1.464-1.341,2.22-6.587,11.411-10.86,26.06-12.2,41.838-1.49,16.787.243,35.058,6.193,50.1" transform="translate(139.687 161.405)"/><path class="f" d="M113.323-156.88a213.419,213.419,0,0,1-8.169,38.07,158.962,158.962,0,0,1-5.635,15.37A119.542,119.542,0,0,1,80.073-72.374q-2.616,3.022-5.348,5.736A97.109,97.109,0,0,1,58.3-53.414,105.039,105.039,0,0,1,34.674-42.456a171.162,171.162,0,0,1-24.413,6.528c-13.2,2.3-26.538.448-39.509,4.421a48.788,48.788,0,0,0-24.838,17.72A61.168,61.168,0,0,0-62.348,1.7c-8.831,23.81-6.072,54.55-3.864,82.547.215,2.8.425,5.6.613,8.394,2.964,43.834,1.733,90.577-14.263,124.646a126.587,126.587,0,0,1-12.209,20.63c-6.447,8.869-13.153,16.573-18.435,26.477-.414.783-.822,1.576-1.225,2.388-5.989,12.334-9.517,27.553-10.079,43.479-.651,16.9,1.882,34.507,8.053,48.627" transform="translate(139.815 161.758)"/><path class="f" d="M109.559-162.11c-4.338,36.317-18.408,68.241-36.506,89.076S33-41.885,11.112-39.721c-13.755,1.352-27.653-.364-41.253,3.348s-27.4,13.989-34.889,33.5c-9.383,24.463-6.623,56.238-4.5,85.149,3.5,47.564,3.455,100.724-15.019,137.1-9.2,18.112-22.216,30.227-30.324,49.765-11.238,27.093-10.366,66.776,2.031,92.386" transform="translate(140.195 162.11)"/></g><g transform="translate(49.643 274.529)"><path class="f" d="M89.94,496.616q12.879-30.107,27.819-57.45c4.416-8.086,9.091-16.134,14.947-20.956,14.975-12.3,32.88-.354,46.982,14.6A260.988,260.988,0,0,1,215.4,481.517c10.609,18.391,20.13,39.17,32.985,52.861s30.5,18.774,42.915,3.973c7.391-8.8,11.839-23.418,13.523-38.424s.855-30.506-.585-45.587c-1.656-17.272-4.068-35.282-.844-51.9,3.345-17.207,13.01-30.385,23.668-32.269,15.162-2.686,28.492,15.155,41.275,29.2,16.233,17.85,35.1,31.14,54.434,29.257s38.88-21.861,44.681-53.085" transform="translate(-89.94 -299.449)"/><path class="f" d="M93.57,503.469A611.542,611.542,0,0,1,121,447.147c4.371-7.89,8.991-15.733,14.748-20.471,11.563-9.513,24.877-4.663,36.81,4.663a99.614,99.614,0,0,1,9.383,8.459,246.743,246.743,0,0,1,35.419,46.4c10.57,17.6,20.042,37.687,32.759,50.847,7.131,7.4,15.582,12.46,23.905,13.374,7.247.783,14.439-1.651,20.45-8.6a37.984,37.984,0,0,0,3.052-4.066c5.9-9.056,9.483-22.075,11.039-35.44.494-4.237.828-8.524,1-12.833a317.54,317.54,0,0,0-.845-33.948c-1.209-17.72-2.82-35.916.817-52.5s12.872-29.285,23.276-31.206c14.809-2.751,27.868,14.064,40.365,27.121.988,1.035,1.981,2.042,2.986,3.04,15.168,14.987,32.334,25.4,49.775,23.008,18.6-2.546,37.24-22.383,42.628-52.945" transform="translate(-91.566 -299.559)"/><path class="f" d="M97.2,509.91a565.347,565.347,0,0,1,27.046-55.184c4.327-7.7,8.9-15.332,14.55-20,11.359-9.326,24.4-5,36.148,3.73a96.112,96.112,0,0,1,9.262,7.927,232.8,232.8,0,0,1,35.115,44.095c10.52,16.787,19.964,36.214,32.565,48.917,7.4,7.461,16.073,12.758,24.65,13.9,7.451.933,14.9-1.315,21.145-8.31a36.25,36.25,0,0,0,3.168-4.132c6.149-9.224,9.819-22.635,11.508-36.372.529-4.394.9-8.839,1.1-13.309.552-11.621.254-23.39-.243-34.852-.762-18.224-1.573-36.531,2.478-53.1,3.864-15.733,12.745-28.175,22.9-30.143,14.445-2.8,27.239,12.964,39.454,25.041q1.441,1.4,2.914,2.8c14.809,13.812,31.423,23.036,48.169,20.024,17.85-3.2,35.6-22.98,40.574-52.787" transform="translate(-93.193 -299.331)"/><path class="f" d="M100.82,516.346a523.128,523.128,0,0,1,26.671-54.093c4.272-7.508,8.793-14.922,14.351-19.511,11.144-9.205,23.922-5.316,35.48,2.8a93.442,93.442,0,0,1,9.151,7.5,218.878,218.878,0,0,1,34.817,41.772c10.487,16.06,19.9,34.722,32.328,46.958,7.678,7.554,16.559,13.057,25.39,14.418,7.661,1.166,15.383-.988,21.841-8.03a35.951,35.951,0,0,0,3.312-4.187c6.392-9.4,10.15-23.213,11.961-37.38q.85-6.775,1.236-13.682c.684-11.938.58-24.034.353-35.766-.32-18.7-.348-37.119,4.14-53.7,4.057-15.006,12.618-27.046,22.514-29.089,14.086-2.882,26.61,11.872,38.538,22.961q1.413,1.315,2.848,2.574c14.456,12.637,30.512,20.686,46.558,17.049,17.111-3.87,33.967-23.549,38.532-52.647" transform="translate(-94.815 -299.071)"/><path class="f" d="M104.45,522.789a482.1,482.1,0,0,1,26.284-52.908c4.228-7.321,8.7-14.53,14.152-19.035,10.94-9.046,23.453-5.6,34.817,1.912a87.706,87.706,0,0,1,9.013,6.892,205.469,205.469,0,0,1,34.514,39.459c10.432,15.277,19.832,33.211,32.107,44.981,7.954,7.629,17.061,13.356,26.141,14.922,7.86,1.362,15.852-.643,22.536-7.741a36.708,36.708,0,0,0,3.417-4.243c6.623-9.578,10.487-23.792,12.413-38.378q.9-6.956,1.363-14.045c.806-12.245.905-24.677.955-36.69.121-19.166.861-37.688,5.8-54.3,4.244-14.269,12.485-25.965,22.128-28.026,13.727-2.938,25.981,10.781,37.632,20.882.916.8,1.844,1.576,2.76,2.341,14.1,11.462,29.6,18.326,44.951,14.064,16.36-4.533,32.334-24.1,36.479-52.489" transform="translate(-96.441 -298.808)"/><path class="f" d="M108.08,529.234a445.642,445.642,0,0,1,25.9-51.78c4.178-7.125,8.594-14.12,13.948-18.55,10.736-8.888,22.978-5.95,34.155.979a82.143,82.143,0,0,1,8.887,6.379A192.1,192.1,0,0,1,225.188,503.4c10.388,14.512,19.777,31.71,31.892,43.022,8.23,7.694,17.547,13.644,26.886,15.463a24.559,24.559,0,0,0,23.226-7.461,37.347,37.347,0,0,0,3.544-4.3c6.883-9.746,10.818-24.36,12.866-39.367q.964-7.144,1.485-14.428c.933-12.553,1.22-25.312,1.556-37.594.552-19.651,2.053-38.238,7.462-54.895,4.416-13.551,12.353-24.864,21.742-26.972,13.363-3,25.351,9.69,36.716,18.8.9.718,1.8,1.427,2.71,2.108,13.738,10.259,28.7,15.976,43.34,11.089,15.62-5.2,30.7-24.668,34.431-52.348" transform="translate(-98.068 -298.548)"/><path class="f" d="M111.71,535.677a411.434,411.434,0,0,1,25.517-50.651c4.134-6.929,8.5-13.719,13.749-18.074,10.526-8.729,22.5-6.258,33.493.065a83.931,83.931,0,0,1,8.76,5.847A179.615,179.615,0,0,1,227.152,507.7c10.338,13.728,19.716,30.152,31.671,41.036,8.511,7.759,18.038,13.989,27.631,15.985a25.049,25.049,0,0,0,23.916-7.172,36.134,36.134,0,0,0,3.665-4.355c7.131-9.923,11.155-24.939,13.324-40.355.69-4.915,1.209-9.876,1.612-14.8,1.054-12.87,1.54-25.955,2.158-38.518.982-20.117,3.223-38.807,9.118-55.491,4.548-12.814,12.22-23.745,21.355-25.871,13.01-3.068,24.728,8.6,35.811,16.731.872.634,1.755,1.259,2.638,1.865,13.385,9.1,27.78,13.616,41.733,8.1,14.875-5.857,29.06-25.181,32.383-52.227" transform="translate(-99.694 -298.286)"/><path class="f" d="M115.34,542.112a380.371,380.371,0,0,1,25.131-49.5c4.084-6.743,8.4-13.318,13.551-17.6,10.322-8.571,22.034-6.584,32.83-.867a77.83,77.83,0,0,1,8.638,5.335,167.74,167.74,0,0,1,33.62,32.511c10.294,12.954,19.666,28.613,31.461,39.087,8.8,7.816,18.535,14.232,28.382,16.508,8.467,1.931,17.26.345,24.612-6.892a35.931,35.931,0,0,0,3.786-4.421c7.38-10.091,11.486-25.5,13.8-41.344.723-5.036,1.281-10.128,1.728-15.174,1.181-13.178,1.871-26.589,2.76-39.422,1.424-20.6,4.377-39.376,10.78-56.1,4.647-12.124,12.093-22.644,20.974-24.845,12.645-3.134,24.093,7.461,34.9,14.652q1.275.839,2.567,1.632c13.026,7.927,26.869,11.266,40.127,5.129,14.13-6.528,27.421-25.787,30.358-52.05" transform="translate(-101.32 -298.024)"/><path class="f" d="M119,548.556a351.976,351.976,0,0,1,24.755-48.375c4.035-6.529,8.279-12.917,13.346-17.114,10.117-8.394,21.526-6.864,32.162-1.791a75.6,75.6,0,0,1,8.517,4.812,155.67,155.67,0,0,1,33.322,30.2c10.25,12.18,19.622,27.046,31.235,37.109,9.08,7.871,19.026,14.53,29.121,17.03,8.677,2.127,17.734.681,25.307-6.612a34.7,34.7,0,0,0,3.913-4.467c7.623-10.259,11.823-26.113,14.235-42.332.762-5.167,1.358-10.39,1.855-15.547,1.3-13.5,2.208-27.224,3.356-40.345,1.871-21.068,5.52-39.935,12.441-56.685,4.736-11.443,11.961-21.544,20.593-23.791,12.287-3.2,23.464,6.416,33.984,12.572.828.485,1.656.933,2.5,1.4,12.695,6.743,25.942,8.907,38.515,2.145,13.39-7.191,25.787-26.337,28.282-51.892" transform="translate(-102.96 -297.763)"/><path class="f" d="M122.59,555a326.137,326.137,0,0,1,24.369-47.238c4.007-6.351,8.2-12.516,13.148-16.61,9.908-8.254,21.079-7.181,31.5-2.723a72.743,72.743,0,0,1,8.4,4.3,144.5,144.5,0,0,1,33.018,27.886c10.206,11.4,19.583,25.48,31.014,35.142,9.383,7.909,19.523,14.829,29.872,17.552,8.881,2.313,18.215,1.016,26-6.333a35.739,35.739,0,0,0,4.035-4.523c7.871-10.445,12.143-26.655,14.688-43.321.8-5.3,1.435-10.641,1.982-15.92,1.424-13.812,2.522-27.867,3.958-41.26,2.307-21.553,6.623-40.514,14.1-57.292,4.8-10.772,11.828-20.434,20.2-22.728,11.928-3.264,22.84,5.325,33.079,10.492.806.4,1.617.793,2.429,1.166,12.314,5.6,25.048,6.528,36.909-.83,12.645-7.853,24.154-26.906,26.234-51.752" transform="translate(-104.569 -297.503)"/><path class="f" d="M126.22,561.439a300.81,300.81,0,0,1,23.988-46.109c3.935-6.165,8.1-12.125,12.943-16.153,9.7-8.1,20.6-7.461,30.838-3.647a78.7,78.7,0,0,1,8.279,3.73,134.079,134.079,0,0,1,32.725,25.573c10.156,10.623,19.539,23.913,30.794,33.174,9.659,7.956,20.008,15.127,30.617,18.074,9.085,2.509,18.673,1.352,26.693-6.043a35.537,35.537,0,0,0,4.156-4.579c8.119-10.613,12.491-27.223,15.146-44.318.839-5.419,1.512-10.893,2.1-16.293,1.551-14.111,2.854-28.5,4.559-42.174,2.76-22.029,7.727-41.11,15.764-57.879,4.857-10.119,11.7-19.333,19.821-21.674,11.591-3.329,22.205,4.234,32.162,8.394.789.326,1.573.634,2.368.933,11.95,4.393,24.132,4.2,35.3-3.814,11.895-8.515,22.514-27.457,24.181-51.6" transform="translate(-106.195 -297.235)"/><path class="f" d="M129.85,567.878a278.486,278.486,0,0,1,23.6-44.962c3.864-5.978,8-11.714,12.745-15.678,9.5-7.946,20.135-7.815,30.175-4.57a74.226,74.226,0,0,1,8.141,3.245,124.244,124.244,0,0,1,32.427,23.26c10.112,9.849,19.5,22.318,30.578,31.206,9.935,7.983,20.5,15.416,31.362,18.6,9.284,2.7,19.142,1.679,27.383-5.764a35.765,35.765,0,0,0,4.283-4.663c8.362-10.772,12.822-27.774,15.6-45.279.878-5.6,1.59-11.192,2.208-16.666,1.656-14.428,3.179-29.145,5.161-43.087,3.2-22.5,8.771-41.735,17.42-58.485,4.9-9.475,11.591-18.224,19.434-20.6,11.21-3.395,21.581,3.134,31.257,6.323.762.252,1.529.485,2.3.7,11.591,3.218,23.221,1.865,33.669-6.79,11.155-9.186,20.881-28.025,22.133-51.453" transform="translate(-107.821 -296.977)"/><path class="f" d="M133.48,574.305A257.506,257.506,0,0,1,156.7,530.472c3.864-5.782,7.9-11.3,12.551-15.2,9.284-7.778,19.655-8.123,29.508-5.493a66.4,66.4,0,0,1,8.02,2.733A114.722,114.722,0,0,1,238.9,533.447c10.068,9.075,19.467,20.732,30.358,29.238,10.25,8,20.974,15.715,32.107,19.119,9.494,2.891,19.617,2.014,28.083-5.475a34.89,34.89,0,0,0,4.416-4.663c8.61-10.958,13.159-28.361,16.051-46.3.911-5.67,1.656-11.4,2.357-17.039,1.794-14.736,3.522-29.77,5.757-43.992,3.665-22.971,9.819-42.4,19.081-59.091,4.923-8.86,11.442-17.123,19.054-19.539,10.851-3.46,20.974,2.033,30.358,4.243.745.168,1.485.326,2.208.466,11.238,2.033,22.3-.513,32.08-9.774,10.41-9.849,19.241-28.576,20.086-51.295" transform="translate(-109.448 -296.717)"/><path class="f" d="M137.11,580.766a237.349,237.349,0,0,1,22.834-42.7c3.8-5.6,7.8-10.912,12.347-14.726,9.08-7.629,19.186-8.394,28.845-6.417a62.709,62.709,0,0,1,7.893,2.21,106.161,106.161,0,0,1,31.826,18.653c10.024,8.291,19.44,19.119,30.142,27.27,10.542,8.011,21.488,16,32.852,19.641,9.7,3.078,20.086,2.341,28.773-5.195a35.273,35.273,0,0,0,4.532-4.756c8.831-11.136,13.49-28.912,16.5-47.284.949-5.8,1.744-11.658,2.478-17.412C358.058,495,360,479.641,362.5,465.139c4.112-23.446,10.84-43.1,20.743-59.688,4.968-8.263,11.31-16.023,18.673-18.485,10.487-3.525,20.323.933,29.43,2.164.718.093,1.435.168,2.158.233,10.885.858,21.394-2.863,30.468-12.749,9.67-10.548,17.607-29.2,18.054-51.173" transform="translate(-111.074 -296.454)"/><path class="f" d="M140.73,587.211a219.668,219.668,0,0,1,22.454-41.567c3.748-5.391,7.727-10.5,12.143-14.241,8.875-7.461,18.711-8.757,28.183-7.349a56.732,56.732,0,0,1,7.772,1.688,98.686,98.686,0,0,1,31.528,16.33c9.979,7.526,19.407,17.515,29.927,25.3,10.84,8.021,21.979,16.3,33.6,20.163,9.9,3.274,20.555,2.677,29.469-4.906a35.511,35.511,0,0,0,4.647-4.812c9.1-11.313,13.826-29.518,16.962-48.273.988-5.932,1.821-11.919,2.605-17.795,2.042-15.36,4.178-31.047,6.96-45.82,4.554-23.922,11.839-43.834,22.4-60.285,4.94-7.685,11.177-14.922,18.281-17.422,10.134-3.591,19.694-.149,28.525.084h2.086c10.526-.317,20.483-5.223,28.862-15.733,8.925-11.192,15.974-29.695,16.007-51.006" transform="translate(-112.696 -296.193)"/><path class="f" d="M144.36,593.641a202.413,202.413,0,0,1,22.078-40.421,74.416,74.416,0,0,1,11.944-13.765c8.666-7.312,18.215-9.084,27.521-8.272a61.677,61.677,0,0,1,7.645,1.166,91.581,91.581,0,0,1,31.23,13.989c9.935,6.743,19.374,15.855,29.7,23.316,11.144,8.02,22.47,16.61,34.348,20.7,10.1,3.451,21.024,3.012,30.159-4.663a35.645,35.645,0,0,0,4.774-4.868c9.35-11.49,14.158-30.087,17.414-49.271,1.027-6.053,1.9-12.124,2.727-18.158,2.164-15.678,4.5-31.709,7.562-46.743,5-24.388,12.816-44.654,24.065-60.873,4.968-7.135,11.039-13.812,17.9-16.368,9.77-3.656,19.065-1.24,27.6-2,.673-.056,1.347-.14,2.02-.233,10.167-1.492,19.572-7.573,27.256-18.709,8.18-11.844,14.351-30.264,13.937-50.856" transform="translate(-114.323 -295.926)"/><path class="f" d="M148,600.088A187.086,187.086,0,0,1,169.686,560.8a75.925,75.925,0,0,1,11.746-13.281c8.461-7.153,17.767-9.4,26.858-9.205a62.905,62.905,0,0,1,7.518.653,85.357,85.357,0,0,1,30.91,11.677c9.886,5.969,19.346,14.278,29.485,21.367,11.448,8,22.961,16.9,35.088,21.208,10.311,3.647,21.5,3.348,30.854-4.337a35.974,35.974,0,0,0,4.9-4.924c9.593-11.63,14.511-30.665,17.872-50.259,1.065-6.183,1.982-12.422,2.854-18.531,2.285-15.985,4.83-32.325,8.163-47.657,5.437-24.873,13.771-45.531,25.721-61.479,4.968-6.594,10.918-12.7,17.514-15.3,9.416-3.73,18.441-2.332,26.7-4.076.651-.14,1.3-.3,1.948-.466,9.814-2.677,18.662-9.933,25.644-21.693,7.44-12.5,12.7-30.777,11.889-50.707" transform="translate(-115.953 -295.668)"/><path class="f" d="M151.62,606.564a172.344,172.344,0,0,1,21.306-38.238,77.991,77.991,0,0,1,11.541-12.8,42.3,42.3,0,0,1,26.2-10.128,58.612,58.612,0,0,1,7.4.131,79.905,79.905,0,0,1,30.628,9.326c9.841,5.195,19.318,12.646,29.254,19.389,11.757,7.974,23.458,17.2,35.838,21.74,10.515,3.833,21.968,3.675,31.55-4.057a35.986,35.986,0,0,0,5.023-4.989c9.841-11.826,14.826-31.224,18.319-51.248,1.1-6.3,2.059-12.675,2.981-18.9,2.407-16.293,5.155-32.959,8.76-48.571,5.884-25.34,14.71-46.482,27.382-62.067,4.968-6.081,10.791-11.6,17.111-14.251,9.052-3.787,17.806-3.423,25.787-6.155.629-.215,1.259-.448,1.882-.7,9.357-3.71,17.775-12.348,24.038-24.668,6.69-13.169,11.039-31.383,9.836-50.558" transform="translate(-117.575 -295.402)"/><path class="f" d="M155.25,612.967a158.661,158.661,0,0,1,20.919-37.016,80.7,80.7,0,0,1,11.343-12.329,46.712,46.712,0,0,1,25.533-11.042,59.694,59.694,0,0,1,7.269-.4,75.663,75.663,0,0,1,30.33,7.06c9.8,4.411,19.318,11.005,29.049,17.421,12.06,7.937,23.949,17.524,36.589,22.253,10.713,4.029,22.437,4.01,32.24-3.777a35.468,35.468,0,0,0,5.144-5.036c10.09-12,15.162-31.8,18.767-52.227,1.137-6.435,2.136-12.926,3.1-19.277,2.533-16.61,5.486-33.575,9.383-49.485,6.325-25.815,15.631-47.518,29.049-62.673a51.281,51.281,0,0,1,16.746-13.188c8.693-3.842,17.177-4.514,24.877-8.235.607-.289,1.209-.606,1.81-.933,9.023-4.963,16.877-14.647,22.426-27.653a106.913,106.913,0,0,0,7.788-50.409" transform="translate(-119.202 -295.146)"/><path class="f" d="M158.87,619.409a146.224,146.224,0,0,1,20.538-35.888,84.552,84.552,0,0,1,11.144-11.844c7.8-6.466,16.224-10.521,24.871-11.975a64.792,64.792,0,0,1,7.148-.933,72.265,72.265,0,0,1,30.032,4.738c9.748,3.637,19.263,9.326,28.829,15.454,12.369,7.881,24.441,17.785,37.329,22.775,10.918,4.225,22.906,4.346,32.935-3.488a35.913,35.913,0,0,0,5.266-5.092c10.333-12.18,15.493-32.381,19.23-53.225,1.176-6.528,2.208-13.187,3.229-19.66,2.655-16.918,5.812-34.237,9.935-50.362,6.767-26.3,16.559-48.637,30.705-63.279a57.294,57.294,0,0,1,16.36-12.124c8.335-3.908,16.559-5.6,23.966-10.315.585-.373,1.17-.755,1.744-1.166,8.7-6.227,16-16.962,20.847-30.655a113.884,113.884,0,0,0,5.74-50.26" transform="translate(-120.824 -294.882)"/><path class="f" d="M162.5,625.861a134.306,134.306,0,0,1,20.146-34.75c10.355-12.852,22.429-21.182,35.149-24.248a60.236,60.236,0,0,1,7.021-1.436,69.5,69.5,0,0,1,29.734,2.425c9.7,2.863,19.236,7.713,28.608,13.486,12.695,7.806,24.937,18.075,38.085,23.316,11.122,4.411,23.375,4.663,33.625-3.208a35.82,35.82,0,0,0,5.393-5.148c10.581-12.357,15.83-32.95,19.683-54.223,1.214-6.687,2.291-13.439,3.35-20.024a510.8,510.8,0,0,1,10.564-51.295c7.214-26.766,17.431-49.84,32.367-63.867a66.721,66.721,0,0,1,16.007-11.07c7.976-3.973,15.918-6.7,23.055-12.395.552-.448,1.1-.932,1.656-1.4,8.338-7.489,15.061-19.241,19.208-33.575a120.684,120.684,0,0,0,3.687-50.11" transform="translate(-122.45 -294.628)"/><path class="f" d="M166.13,632.3c12.3-30.665,32.565-50.931,54.059-58.336s44.041-2.611,64.722,9.672c13,7.722,25.423,18.382,38.819,23.819s28.47,5.027,39.84-8.123c14.224-16.461,18.971-47.564,23.613-75.609,7.634-46.147,19.87-95.212,45.189-116.7,12.629-10.7,27.4-13.383,39.349-26.114,16.559-17.664,24.838-54.839,19.236-86.548" transform="translate(-124.076 -294.36)"/></g><g transform="translate(-145.843 -139.186)"><path class="f" d="M-264.23-65.921a514.427,514.427,0,0,1,33.493-48.04c5.21-6.6,10.664-13.057,16.94-16.051,16.04-7.573,32.378,9.671,44.631,28.669a339.9,339.9,0,0,1,29.949,58.8c8.473,21.32,15.62,44.654,26.8,62.048s27.99,27.755,41.789,16.983c8.208-6.407,14.141-19.427,17.4-33.677s4.1-29.742,4.294-45.018c.221-17.487-.237-35.944,4.708-51.295,5.122-15.855,16.04-25.918,26.72-24.528,15.206,1.987,26.411,23.6,37.483,41.306,14.064,22.486,31.2,41.306,50.4,45.354s40.574-9.662,49.61-38.611" transform="translate(264.23 148.068)"/><path class="f" d="M-262-58.1a473.957,473.957,0,0,1,33-47.033c5.139-6.435,10.526-12.73,16.691-15.64,12.391-5.838,24.965,2.975,35.706,15.855a134.657,134.657,0,0,1,8.329,11.192,322.121,322.121,0,0,1,29.916,56.4c8.5,20.537,15.676,43.181,26.781,60.033,6.226,9.457,13.992,17.011,22.078,20.443,7.043,2.984,14.378,2.8,21.035-2.22a28.418,28.418,0,0,0,3.433-3.078c6.773-7.107,11.674-18.821,14.654-31.458.942-4.051,1.727-8.2,2.351-12.423a307.016,307.016,0,0,0,2.787-33.64c.707-17.823,1.065-36.186,6.408-51.388s15.791-24.883,26.229-23.6C2.254-112.855,13.3-92.337,24.206-75.68c.856,1.306,1.728,2.611,2.611,3.889,13.319,19.371,29.11,34.834,46.5,37.8C91.881-30.821,112.342-44.7,120.9-73.069" transform="translate(263.231 147.446)"/><path class="f" d="M-259.69-50.27a435.275,435.275,0,0,1,32.5-46.035c5.072-6.258,10.382-12.376,16.443-15.23,12.171-5.745,24.534,2.518,35.149,14.708A130.155,130.155,0,0,1-167.32-86.2,305.839,305.839,0,0,1-137.487-32.1c8.539,19.734,15.758,41.679,26.775,58.038,6.5,9.587,14.45,17.422,22.763,21.152,7.225,3.236,14.8,3.246,21.686-1.735a27.529,27.529,0,0,0,3.56-3.087c7.032-7.209,12.071-19.287,15.2-32.3q1.489-6.236,2.511-12.749c1.8-11.257,2.76-22.933,3.483-34.358,1.192-18.149,2.351-36.373,8.1-51.472,5.464-14.307,15.543-23.829,25.738-22.682,14.511,1.641,25.39,21.059,36.131,36.662q1.275,1.865,2.572,3.637C44.129-52.882,59.484-38.752,76.3-36.607c17.9,2.285,37.472-11.76,45.547-39.562" transform="translate(262.196 146.825)"/><path class="f" d="M-257.41-42.734A401.678,401.678,0,0,1-225.4-87.77c5.006-6.081,10.244-12,16.194-14.819,11.95-5.652,24.1,2.07,34.6,13.607a122.77,122.77,0,0,1,8.2,10.072,289.062,289.062,0,0,1,29.806,51.7c8.577,18.988,15.83,40.234,26.748,56.051,6.745,9.765,14.9,17.888,23.442,21.917,7.407,3.488,15.234,3.731,22.338-1.24A26.955,26.955,0,0,0-60.389,46.4C-53.1,39.1-47.926,26.663-44.631,13.271Q-43.076,6.877-41.96.214c1.948-11.527,3.135-23.465,4.167-35.076,1.683-18.485,3.621-36.615,9.8-51.556,5.591-13.532,15.322-22.8,25.258-21.768,14.163,1.464,24.9,19.79,35.458,34.33q1.247,1.716,2.528,3.395C48.12-53.627,63.056-40.812,79.228-39.5c17.238,1.4,35.927-12.814,43.516-40.047" transform="translate(261.174 146.479)"/><path class="f" d="M-255.14-35.315a370.479,370.479,0,0,1,31.5-44.039c4.94-5.913,10.1-11.639,15.946-14.409,11.729-5.6,23.673,1.6,34.045,12.488a119.627,119.627,0,0,1,8.13,9.531,271.892,271.892,0,0,1,29.739,49.327C-127.152-4.212-119.834,16.3-109,31.61c7,9.933,15.35,18.336,24.115,22.663,7.584,3.731,15.659,4.2,22.989-.746a26.712,26.712,0,0,0,3.814-3.134c7.556-7.4,12.855-20.2,16.31-33.957q1.631-6.571,2.837-13.411c2.1-11.8,3.521-24,4.857-35.794,2.164-18.82,4.868-36.811,11.5-51.64,5.7-12.74,15.052-21.73,24.755-20.826,13.8,1.287,24.4,18.522,34.773,32.008.817,1.063,1.656,2.117,2.484,3.143,12.64,15.575,27.156,27.046,42.71,27.541C98.7-42.021,116.52-56.4,123.629-83.057" transform="translate(260.157 146.28)"/><path class="f" d="M-252.87-27.916a342.433,342.433,0,0,1,31-43.041c4.868-5.736,9.935-11.266,15.7-13.989,11.508-5.465,23.237,1.156,33.493,11.378a112.494,112.494,0,0,1,8.059,8.981,255.868,255.868,0,0,1,29.7,46.958c8.666,17.421,16.067,37.193,26.775,52.022,7.275,10.082,15.825,18.774,24.794,23.4,7.766,3.992,16.09,4.663,23.64-.261a26.777,26.777,0,0,0,3.946-3.143c7.81-7.461,13.247-20.667,16.857-34.8q1.7-6.737,3-13.738c2.257-12.068,3.9-24.528,5.52-36.512,2.644-19.138,6.121-37,13.219-51.724,5.773-11.975,14.8-20.686,24.286-19.9,13.468,1.119,23.9,17.263,34.111,29.695q1.209,1.464,2.44,2.891C56.087-55.4,70.162-45.244,85.115-45.58c15.918-.354,32.825-14.922,39.454-41.036" transform="translate(259.14 146.08)"/><path class="f" d="M-250.6-20.515a316.5,316.5,0,0,1,30.507-42.034c4.8-5.6,9.825-10.9,15.455-13.588,11.287-5.381,22.807.69,32.941,10.259,2.76,2.6,5.453,5.465,7.992,8.394a239.8,239.8,0,0,1,29.64,44.636c8.7,16.647,16.178,35.664,26.753,49.989C-99.75,47.4-91.035,56.39-81.823,61.323c7.948,4.225,16.515,5.129,24.286.224a26.886,26.886,0,0,0,4.068-3.171c8.075-7.582,13.633-21.124,17.414-35.626,1.2-4.663,2.208-9.326,3.157-14.073,2.412-12.329,4.289-25.05,6.237-37.221,3.113-19.492,7.308-37.193,14.9-51.808C-5.929-91.544,2.8-99.938,12.015-99.322c13.12.933,23.4,15.995,33.437,27.363.789.933,1.59,1.781,2.4,2.639C60.041-56.281,73.729-47.459,88.03-48.662c15.256-1.231,31.274-15.948,37.423-41.474" transform="translate(258.123 145.879)"/><path class="f" d="M-248.33-13.107a292.048,292.048,0,0,1,30.01-41.036c4.736-5.391,9.681-10.548,15.2-13.178,11.072-5.288,22.376.233,32.383,9.149a100.536,100.536,0,0,1,7.932,7.881,223.585,223.585,0,0,1,29.6,42.22c8.743,15.855,16.294,34.134,26.764,48.021,7.821,10.371,16.708,19.65,26.152,24.892,8.13,4.477,16.945,5.6,24.948.718a26.477,26.477,0,0,0,4.195-3.19c8.335-7.676,14.02-21.59,17.966-36.466,1.253-4.738,2.34-9.578,3.312-14.4,2.578-12.6,4.714-25.582,6.922-37.939,3.6-19.828,8.506-37.389,16.592-51.882,5.873-10.52,14.318-18.6,23.293-18.056C29.707-95.6,39.83-81.646,49.7-71.331c.773.811,1.562,1.613,2.351,2.388,11.966,11.77,25.224,19.277,38.918,17.282,14.594-2.117,29.728-17,35.391-41.968" transform="translate(257.106 145.68)"/><path class="f" d="M-246-5.971a269.921,269.921,0,0,1,29.48-40.038c4.67-5.213,9.543-10.175,14.958-12.768,10.846-5.195,21.929-.177,31.826,8.039a100.134,100.134,0,0,1,7.86,7.33A208.536,208.536,0,0,1-132.3-3.555c8.782,15.109,16.415,32.642,26.764,46.025C-97.469,52.981-88.4,62.559-78.757,68.1c8.307,4.728,17.37,6.071,25.6,1.2a26.054,26.054,0,0,0,4.322-3.2c8.6-7.778,14.412-22.047,18.518-37.305,1.308-4.85,2.445-9.8,3.488-14.726,2.721-12.87,5.067-26.114,7.606-38.658,4.112-20.163,9.7-37.6,18.292-51.92,5.878-9.811,14.064-17.552,22.79-17.123,12.447.55,22.415,13.393,32.107,22.719.767.727,1.534,1.436,2.313,2.136,11.74,10.5,24.579,16.675,37.654,13.85,13.937-2.994,28.177-18.046,33.36-42.425" transform="translate(256.062 145.744)"/><path class="f" d="M-243.78.958a249.372,249.372,0,0,1,29.011-39.031c4.6-5.036,9.383-9.811,14.71-12.357,10.625-5.1,21.5-.634,31.274,6.92a96.352,96.352,0,0,1,7.794,6.78A193.936,193.936,0,0,1-131.49.762c8.831,14.325,16.559,31.029,26.759,44.02,8.373,10.632,17.613,20.518,27.5,26.365,8.489,4.98,17.8,6.528,26.251,1.7a25.911,25.911,0,0,0,4.449-3.2c8.831-7.881,14.8-22.514,19.076-38.145C-26.1,26.54-24.907,21.475-23.8,16.449-20.928,3.308-18.35-10.2-15.524-22.927c4.57-20.518,10.835-37.837,19.986-52.05,5.873-9.13,13.8-16.5,22.3-16.2,12.082.429,21.891,12.189,31.412,20.4.751.644,1.507,1.278,2.269,1.865,11.514,9.233,23.933,14.083,36.39,10.436,13.247-3.88,26.626-19.1,31.323-42.9" transform="translate(255.068 146.016)"/><path class="f" d="M-241.51,7.9A231.023,231.023,0,0,1-213-30.145c4.532-4.859,9.262-9.438,14.461-11.947,10.4-5.008,21.063-1.091,30.722,5.82a85.632,85.632,0,0,1,7.727,6.221A180.188,180.188,0,0,1-130.628,5.071c8.831,13.551,16.664,29.471,26.748,42.015C-95.225,57.858-85.809,68.061-75.7,74.2c8.671,5.232,18.215,7.013,26.9,2.192a26.547,26.547,0,0,0,4.581-3.246c9.118-7.965,15.19-22.971,19.622-38.975,1.4-5.073,2.655-10.259,3.808-15.379,3.03-13.411,5.851-27.168,8.986-40.1C-6.736-42.139.175-59.4,9.884-73.447,15.746-81.916,23.456-88.9,31.7-88.715c11.735.252,21.394,10.921,30.738,18.065.74.56,1.479,1.11,2.208,1.641C75.936-61.043,87.93-57.527,99.77-62c12.612-4.747,25.075-20.145,29.292-43.386" transform="translate(254.05 146.286)"/><path class="f" d="M-239.24,14.831A213.166,213.166,0,0,1-211.223-22.2c4.465-4.663,9.118-9.074,14.213-11.537,10.184-4.924,20.632-1.548,30.164,4.663a84.857,84.857,0,0,1,7.661,5.68A166.343,166.343,0,0,1-129.771,9.422c8.892,12.74,16.8,27.867,26.742,39.982C-94.087,60.287-84.5,70.854-74.167,77.252c8.831,5.484,18.656,7.461,27.554,2.677A26.647,26.647,0,0,0-41.9,76.674c9.383-8.067,15.582-23.437,20.174-39.814,1.457-5.185,2.76-10.473,3.974-15.705,3.185-13.691,6.237-27.7,9.676-40.812C-2.534-40.819,5.006-58.035,15.294-71.885c5.829-7.834,13.33-14.4,21.317-14.344,11.392.075,20.9,9.662,30.071,15.743.723.485,1.452.933,2.18,1.39,11.061,6.706,22.652,8.907,33.862,3.6,11.955-5.6,23.53-21.2,27.261-43.834" transform="translate(253.033 146.551)"/><path class="f" d="M-237,21.77a195.977,195.977,0,0,1,27.537-36.037c4.416-4.514,8.98-8.72,13.964-11.136,9.968-4.822,20.2-2,29.612,3.591a83.546,83.546,0,0,1,7.595,5.129A153.1,153.1,0,0,1-128.927,13.7c8.942,11.994,16.934,26.319,26.742,38.014,9.245,11,18.971,21.852,29.541,28.585,9.024,5.736,19.076,7.955,28.2,3.171A26.436,26.436,0,0,0-39.61,80.2c9.643-8.16,15.968-23.894,20.731-40.644,1.5-5.307,2.859-10.716,4.134-16.051C-11.4,9.515-8.12-4.708-4.384-18.017c6.072-21.45,14.185-38.7,25.075-52.3,5.784-7.219,13.081-13.355,20.825-13.421,11.039-.093,20.395,8.394,29.4,13.43.706.392,1.424.774,2.136,1.128,10.84,5.437,22,6.3,32.6.168,11.293-6.528,21.979-22.243,25.23-44.337" transform="translate(252.03 146.822)"/><path class="f" d="M-234.69,28.7A181.526,181.526,0,0,1-207.672-6.338c4.333-4.337,8.831-8.347,13.716-10.716,9.748-4.738,19.771-2.453,29.06,2.471A87.846,87.846,0,0,1-157.367-10a140.89,140.89,0,0,1,29.314,28.026c8.975,11.21,17.077,24.733,26.764,36,9.488,11.108,19.4,22.3,30.192,29.331,9.207,5.987,19.506,8.394,28.856,3.665a26.618,26.618,0,0,0,4.968-3.3c9.9-8.254,16.36-24.351,21.283-41.474,1.557-5.419,2.964-10.94,4.3-16.377C-8.195,11.643-4.657-2.869-.65-16.373c6.541-21.8,15.273-39.1,26.77-52.377,5.735-6.631,12.833-12.311,20.334-12.5,10.7-.27,19.87,7.125,28.7,11.1.7.308,1.4.606,2.1.886,10.614,4.16,21.355,3.731,31.335-3.255,10.631-7.4,20.422-23.316,23.182-44.822" transform="translate(250.995 147.091)"/><path class="f" d="M-232.42,35.66A167.645,167.645,0,0,1-205.926,1.629c4.261-4.169,8.7-7.983,13.468-10.259,9.527-4.663,19.318-2.919,28.509,1.362a73.542,73.542,0,0,1,7.457,4.029,129.266,129.266,0,0,1,29.254,25.647c9.058,10.362,17.26,23.064,26.775,33.929,9.808,11.192,19.87,22.738,30.91,30.068,9.383,6.239,19.931,8.907,29.508,4.16a27.163,27.163,0,0,0,5.089-3.32C-24.8,78.85-18.211,62.427-13.122,44.931c1.6-5.53,3.063-11.192,4.454-16.7C-5.031,13.734-1.255-1.039,3.061-14.7,10.12-36.87,19.388-54.245,31.531-67.19c5.68-6.062,12.585-11.266,19.87-11.574C61.75-79.2,70.791-72.9,79.446-69.988c.684.233,1.369.448,2.053.634,10.388,2.9,20.709,1.11,30.071-6.668,9.968-8.282,18.877-24.351,21.167-45.3" transform="translate(249.978 147.359)"/><path class="f" d="M-230.15,42.571A154.667,154.667,0,0,1-204.125,9.528a55.481,55.481,0,0,1,13.247-9.9c9.306-4.551,18.91-3.367,27.951.252a73,73,0,0,1,7.4,3.479,118.859,118.859,0,0,1,29.221,23.316c9.024,9.643,17.337,21.506,26.7,31.961C-89.506,69.9-79.278,81.826-68.035,89.483c9.565,6.528,20.362,9.326,30.159,4.663a26.514,26.514,0,0,0,5.216-3.329c10.421-8.45,17.111-25.284,22.387-43.153,1.656-5.6,3.168-11.387,4.62-17.03C-1.85,15.8,2.163.79,6.772-13.107c7.523-22.467,17.376-40.019,30.17-52.544,5.624-5.5,12.342-10.212,19.352-10.641,10-.616,18.888,4.589,27.372,6.444.668.149,1.341.28,2.015.392,10.162,1.623,20.058-1.483,28.8-10.1,9.312-9.149,17.331-25.4,19.136-45.773" transform="translate(248.961 147.629)"/><path class="f" d="M-227.87,49.5a142.213,142.213,0,0,1,25.522-32.036,56.471,56.471,0,0,1,12.971-9.485c9.085-4.458,18.479-3.833,27.4-.867,2.484.83,4.929,1.865,7.33,2.928a108.759,108.759,0,0,1,29.171,20.919c9.091,8.879,17.508,19.93,26.726,29.993,10.4,11.359,20.781,23.6,32.251,31.56,9.748,6.724,20.787,9.839,30.81,5.129a26.616,26.616,0,0,0,5.343-3.357c10.686-8.534,17.53-25.731,22.939-43.983C-5.7,44.552-4.135,38.695-2.622,32.95,1.335,17.916,5.58,2.621,10.492-11.443c8-22.8,18.408-40.588,31.864-52.628,5.564-4.98,12.093-9.168,18.86-9.718,9.654-.783,18.386,3.329,26.7,4.132.657.065,1.314.1,1.97.131,9.935.364,19.412-4.076,27.537-13.514,8.649-10.035,15.78-26.449,17.111-46.258" transform="translate(247.939 147.897)"/><path class="f" d="M-225.6,56.439a131.078,131.078,0,0,1,25.026-31.047,58.517,58.517,0,0,1,12.695-9.074c8.864-4.365,18.049-4.29,26.847-1.977a66.88,66.88,0,0,1,7.258,2.388A99.543,99.543,0,0,1-124.62,35.268c9.129,8.1,17.663,18.326,26.72,27.979,10.708,11.425,21.234,24.053,32.93,32.3,9.935,6.976,21.217,10.315,31.461,5.6a26.962,26.962,0,0,0,5.47-3.376c10.945-8.636,17.922-26.2,23.5-44.822,1.755-5.866,3.372-11.835,4.968-17.72,4.107-15.3,8.588-30.842,13.8-45.1C22.719-33.01,33.654-51.112,47.789-62.593c5.52-4.467,11.845-8.114,18.369-8.785,9.311-.933,17.883,2.052,26.025,1.8a19.17,19.17,0,0,0,1.926-.121c9.6-.8,18.8-6.727,26.273-16.937,7.987-10.912,14.229-27.494,15.074-46.734" transform="translate(246.922 148.171)"/><path class="f" d="M-223.33,63.376c7.2-12.116,15.474-22.252,24.529-30.04a59.989,59.989,0,0,1,12.474-8.664c8.649-4.281,17.618-4.784,26.3-3.087a54.924,54.924,0,0,1,7.175,1.865,91.7,91.7,0,0,1,29.1,16.144c9.162,7.321,17.8,16.7,26.709,25.983,11.039,11.481,21.692,24.5,33.609,33.043,10.106,7.228,21.642,10.781,32.113,6.109a26.9,26.9,0,0,0,5.6-3.385c11.2-8.739,18.3-26.664,24.043-45.7C.124,49.666,1.8,43.576,3.43,37.626,7.691,22.061,12.41,6.253,17.919-8.194c8.975-23.465,20.422-41.968,35.259-52.8a39.624,39.624,0,0,1,17.867-7.825c8.964-1.138,17.381.793,25.346-.522q.944-.149,1.888-.364c9.4-2.14,18.159-9.269,25.009-20.359,7.324-11.8,12.695-28.548,13.037-47.21" transform="translate(245.905 148.434)"/><path class="f" d="M-221.06,70.31c7.014-11.839,15.133-21.647,24.032-29.033A62.753,62.753,0,0,1-184.8,33.023a44.769,44.769,0,0,1,25.738-4.206,62.04,62.04,0,0,1,7.131,1.278A85.169,85.169,0,0,1-122.9,43.907c9.2,6.556,17.95,15.081,26.7,23.987,11.332,11.518,22.144,24.939,34.287,33.78,10.288,7.461,22.078,11.257,32.77,6.6a27.38,27.38,0,0,0,5.713-3.4c11.464-8.832,18.695-27.13,24.6-46.5,1.86-6.09,3.582-12.292,5.271-18.345A472.687,472.687,0,0,1,21.618-6.511c9.466-23.8,21.455-42.8,36.981-52.871A44.562,44.562,0,0,1,75.986-66.33c8.616-1.306,16.879-.466,24.672-2.8.618-.187,1.231-.4,1.844-.625,9.2-3.486,17.511-11.813,23.734-23.782,6.668-12.674,11.127-29.592,11.006-47.685" transform="translate(244.888 148.7)"/><path class="f" d="M-218.78,77.248c6.827-11.571,14.788-21.059,23.53-28.044a66.713,66.713,0,0,1,11.977-7.843,50.818,50.818,0,0,1,25.186-5.316,61.813,61.813,0,0,1,7.06.727,79.4,79.4,0,0,1,28.989,11.443c9.24,5.782,18.1,13.458,26.7,21.991,11.663,11.546,22.592,25.4,34.961,34.517,10.487,7.731,22.5,11.723,33.421,7.1a27.116,27.116,0,0,0,5.851-3.432C-9.379,99.463-2.016,80.81,4.05,61.057c1.9-6.2,3.682-12.516,5.431-18.653A445.85,445.85,0,0,1,25.35-4.852c9.935-24.127,22.459-43.712,38.637-52.955A52.586,52.586,0,0,1,80.9-63.878c8.279-1.483,16.377-1.744,24-5.167.6-.27,1.2-.56,1.8-.877,9-4.814,16.873-14.321,22.481-27.158a111.891,111.891,0,0,0,8.975-48.17" transform="translate(243.866 148.971)"/><path class="f" d="M-216.51,84.141c15.372-26.375,37.478-40.1,59.4-40.859s43.6,10.837,62.63,29.229c11.961,11.565,23.044,25.825,35.64,35.263s27.465,13.616,40.05,4.141c15.753-11.854,23.734-40.989,31.3-67.149C24.943,1.678,42.186-42.855,69.409-56.266c13.562-6.678,28.382-4.812,41.49-13.7,18.176-12.329,30.269-46.37,28.15-79.274" transform="translate(242.849 149.24)"/></g><g transform="translate(-23.578 -70.6)"><path class="f" d="M-42.52,471.474c-2.318-31.71,16.205-58.5,34.889-63.419S29.8,413.3,48.315,419.816s39.343,8.664,54.809-9.727c19.771-23.512,24.341-72.969,44.708-95.054,15.852-17.207,36.49-12.059,52.728.746,9.184,7.237,16.995,19.417,25.771,27.9,39.813,38.471,42.5,117.1,76.319,128.824,36.595,12.712,56.465-17.459,63.376-38.34,8.831-26.794,23.618-96.341-12.551-144.67-14.7-19.632-29.2-40.56-40.011-66.413-16.189-38.695-16.078-97.87,4.62-129.85C332.269,71.32,354.055,63.3,363.692,35.2c6.474-18.886,5.591-43.237,0-62.943A129.2,129.2,0,0,0,337.916-75.7" transform="translate(42.717 75.7)"/><path class="f" d="M-40.919,473.31C-42.52,440.668-24.1,412.5-4.854,406.888,13.912,401.414,32.982,411.5,51.5,418.7c18.3,7.116,38.637,10.334,54.025-6.379,19.694-21.395,25.23-68.343,45.547-90.139,16.183-17.263,36.49-14.055,53.12-2.863,9.554,6.435,18.021,17.916,27.211,26.515,38.974,36.485,42.2,112.559,75.265,124.124,35.585,12.413,55.35-16.134,62.531-36.727,9.1-26.114,23.182-93.1-10.995-140.827-14.091-19.7-28.061-41.036-38.7-66.711C303.8,187.9,303.656,130.839,323.19,99.129c13.517-21.935,34.519-30.87,44.112-58.607,6.585-18.97,6.182-42.966,1.319-62.813A138.25,138.25,0,0,0,344.633-72.4" transform="translate(41.955 75.478)"/><path class="f" d="M-39.345,475.107c-.883-33.528,17.442-63.093,37.24-69.4,18.882-6.006,38.245,3.982,56.763,11.863,18.082,7.694,37.881,11.994,53.247-3.05,19.611-19.268,26.08-63.783,46.4-85.205,16.487-17.393,36.512-16.078,53.507-6.472,9.935,5.6,19.042,16.4,28.658,25.125,38.085,34.582,41.86,108.008,74.21,119.377,34.558,12.124,54.2-14.8,61.659-35.058,9.345-25.386,22.757-89.887-9.427-137.1-13.5-19.781-26.93-41.493-37.389-67.028-15.234-36.867-15.626-91.845,2.76-123.247,12.844-21.907,33.051-31.747,42.605-59.119,6.7-19.044,6.772-42.714,2.605-62.691A147.759,147.759,0,0,0,351.324-69.12" transform="translate(41.22 75.257)"/><path class="f" d="M-37.8,476.917c-.166-34.442,18.06-65.377,38.416-72.381,18.982-6.528,38.637,3.339,57.172,11.919,17.861,8.263,37.147,13.654,52.463.289,19.534-17.151,26.957-59.185,47.264-80.29,16.807-17.468,36.551-18.121,53.9-10.082,10.327,4.784,20.058,14.922,30.1,23.745,37.191,32.754,41.546,103.457,73.162,114.713,33.52,11.844,53.048-13.467,60.781-33.388,9.582-24.677,22.338-86.735-7.865-133.273-12.9-19.874-25.749-41.968-36.076-67.327-14.693-36.027-15.405-88.861,1.8-119.955,12.182-22,31.577-32.782,41.126-59.763,6.778-19.184,7.374-42.5,3.9-62.57A156.218,156.218,0,0,0,357.985-65.79" transform="translate(40.515 75.032)"/><path class="f" d="M-36.28,478.723c.552-35.356,18.678-67.653,39.6-75.357,19.07-7.032,39.045,2.686,57.575,11.956,17.663,8.832,36.429,15.323,51.685,3.628,19.451-15.025,27.83-54.578,48.12-75.366,17.111-17.552,36.606-20.192,54.285-13.691,10.73,3.945,21.079,13.411,31.539,22.383,36.264,31.01,41.231,98.915,72.113,109.994,32.488,11.574,51.884-12.124,59.909-31.71,9.814-23.969,21.924-83.638-6.3-129.477a452.53,452.53,0,0,1-34.773-67.634c-14.2-35.123-15.184-85.9.867-116.644,11.525-22.085,30.12-33.761,39.642-60.4,6.877-19.222,7.976-42.248,5.194-62.44A166.041,166.041,0,0,0,364.622-62.52" transform="translate(39.833 74.812)"/><path class="f" d="M-34.76,480.523c1.275-36.261,19.318-69.9,40.773-78.341,19.169-7.536,39.454,2.033,57.983,12.012,17.431,9.392,35.695,17.039,50.9,6.967,19.39-12.842,28.7-49.97,48.981-70.451,17.453-17.627,36.666-22.29,54.677-17.291,11.133,3.087,22.078,11.919,32.979,20.966,35.325,29.322,40.917,94.363,71.059,105.285,31.461,11.285,50.741-10.8,59.059-30.049,10.035-23.26,21.526-80.588-4.741-125.662a519.907,519.907,0,0,1-33.454-67.942c-13.705-34.228-14.969-83-.066-113.352,10.846-22.113,28.635-34.666,38.118-60.9,6.988-19.305,8.605-42.034,6.485-62.318A174.81,174.81,0,0,0,371.259-59.19" transform="translate(39.152 74.588)"/><path class="f" d="M-33.24,482.331c1.993-37.175,19.915-72.158,41.949-81.316,19.269-8.021,39.857,1.362,58.391,12.068,17.216,9.933,34.961,18.709,50.123,10.259,19.318-10.707,29.585-45.354,49.836-65.527,17.773-17.72,36.738-24.416,55.063-20.9,11.547,2.22,23.094,10.436,34.425,19.585,34.343,27.709,40.6,89.85,70.01,100.612,30.418,11.033,49.571-9.485,58.165-28.38,10.255-22.569,21.123-77.614-3.179-121.867a612.13,612.13,0,0,1-32.146-68.25c-13.247-33.314-14.759-80.048-1-110.05,10.184-22.215,27.195-35.626,36.644-61.488,7.087-19.389,9.218-41.838,7.777-62.188a182.919,182.919,0,0,0-14.9-60.789" transform="translate(38.471 74.366)"/><path class="f" d="M-31.72,484.139c2.716-38.079,20.533-74.4,43.124-84.3,19.374-8.5,40.293.69,58.8,12.124,17,10.483,34.221,20.387,49.339,13.644,19.23-8.58,30.462-40.746,50.7-60.621,18.1-17.776,36.815-26.58,55.455-24.51,11.955,1.324,24.093,8.963,35.877,18.186,33.327,26.114,40.293,85.27,68.961,95.874,29.386,10.716,48.406-8.142,57.293-26.711,10.487-21.87,20.748-74.694-1.612-118.062A751.282,751.282,0,0,1,355.383,241.2c-12.728-32.409-14.555-77.166-1.943-106.739,9.521-22.318,25.738-36.568,35.154-62.057,6.777-18.586,9.946-40.287,9.063-62.067A189.335,189.335,0,0,0,384.549-52.59" transform="translate(37.79 74.143)"/><path class="f" d="M-30.2,485.944c3.422-38.993,21.151-76.634,44.3-87.3,19.473-8.963,40.668,0,59.208,12.171,16.785,11.005,33.5,22.057,48.572,16.974,19.142-6.454,31.346-36.112,51.553-55.678,18.424-17.841,36.9-28.762,55.841-28.119,12.375.42,25.1,7.461,37.307,16.787,32.312,24.621,39.973,80.719,67.891,91.155,28.354,10.446,47.242-6.817,56.426-25.032,10.675-21.189,20.395-71.813-.055-114.266-9.935-20.667-20-44.393-29.519-68.865-12.242-31.5-14.351-74.312-2.881-103.438,8.831-22.448,24.286-37.52,33.669-62.645,6.9-18.537,10.5-40.038,10.36-61.936-.218-23.016-4.122-45.5-11.3-65.07" transform="translate(37.109 73.923)"/><path class="f" d="M-28.68,487.744c4.151-39.9,21.775-78.854,45.476-90.26,19.578-9.429,41.077-.681,59.611,12.227,16.559,11.527,32.759,23.717,47.777,20.313,19.065-4.327,32.229-31.495,52.436-50.763,18.766-17.907,36.981-30.973,56.233-31.709,12.789-.5,26.085,6.044,38.747,15.416,31.279,23.157,39.653,76.168,66.853,86.445,27.322,10.156,46.066-5.493,55.554-23.372,10.879-20.518,20.069-69.08,1.512-110.461-9.383-20.9-18.866-44.86-28.21-69.173-11.757-30.581-14.18-71.486-3.819-100.137,8.174-22.6,22.829-38.452,32.168-63.214,7.03-18.518,11.048-39.838,11.652-61.815.538-23.462-2.75-46.723-9.5-67.243" transform="translate(36.428 73.699)"/><path class="f" d="M-27.16,489.549c4.868-40.812,22.4-81.074,46.651-93.263,19.683-9.877,41.491-1.371,60.025,12.273,16.366,12.049,32.013,25.4,47,23.652,18.976-2.2,33.117-26.86,53.269-45.839,19.081-17.962,37.058-33.2,56.625-35.328,13.2-1.436,27.073,4.607,40.182,13.989,30.242,21.74,39.343,71.626,65.81,81.745,26.284,9.876,44.885-4.187,54.677-21.7,11.083-19.819,19.771-66.394,3.074-106.656-8.776-21.18-17.718-45.335-26.9-69.481-11.276-29.676-14.014-68.688-4.758-96.835,7.49-22.765,21.377-39.394,30.672-63.792a207.013,207.013,0,0,0,12.943-61.684,208.222,208.222,0,0,0-7.672-69.369" transform="translate(35.747 73.48)"/><path class="f" d="M-25.64,491.363c5.591-41.689,23.022-83.284,47.821-96.229,19.788-10.334,41.9-2.08,60.439,12.329,16.15,12.553,31.285,27.046,46.21,26.99,18.893-.084,34-22.234,54.13-40.924,19.412-18.018,37.13-35.44,57.012-38.928,13.617-2.387,28.067,3.18,41.628,12.637,29.187,20.359,39.023,67.075,64.756,77.026,25.257,9.6,43.7-2.863,53.8-20.024,11.276-19.147,19.517-63.773,4.642-102.86-8.174-21.451-16.559-45.8-25.589-69.789-10.8-28.753-13.865-65.918-5.7-93.534,6.795-22.952,19.926-40.336,29.182-64.351a225.75,225.75,0,0,0,14.235-61.554,213.188,213.188,0,0,0-5.862-71.514" transform="translate(35.066 73.252)"/><path class="f" d="M-24.12,493.167c6.309-42.64,23.651-85.485,49-99.232,19.87-10.772,42.318-2.8,60.848,12.385,15.94,13.057,30.551,28.706,45.431,30.32,18.811,2.042,34.884-17.589,54.986-35.99,19.743-18.074,37.207-37.725,57.4-42.546,14.025-3.348,29.044,1.772,43.053,11.257,28.122,19.007,38.7,62.617,63.7,72.316,24.214,9.4,42.5-1.567,52.938-18.354,11.464-18.485,19.319-61.227,6.2-99.064-7.545-21.8-15.455-46.268-24.286-70.1-10.322-27.83-13.738-63.167-6.624-90.223C384.6,140.781,397.006,122.67,406.218,99A247.942,247.942,0,0,0,421.75,37.558,217.66,217.66,0,0,0,417.7-36.12" transform="translate(34.385 73.033)"/><path class="f" d="M-22.6,494.968C-15.574,451.424,1.686,407.3,27.578,392.78c20-11.192,42.732-3.516,61.267,12.432,15.736,13.56,29.806,30.376,44.648,33.668,18.728,4.15,35.772-12.954,55.847-31.075s37.274-40,57.79-46.156c14.434-4.318,30.026.392,44.51,9.867,27.046,17.72,38.383,58.075,62.658,67.616,23.182,9.112,41.325-.27,52.06-16.685,11.652-17.832,19.131-58.756,7.766-95.259-6.916-22.178-14.312-46.734-22.978-70.4-9.847-26.916-13.628-60.453-7.573-86.921,5.354-23.39,17.028-42.211,26.2-65.527,7.871-19.93,13.86-40.495,16.818-61.311a221.387,221.387,0,0,0-2.235-75.795" transform="translate(33.704 72.808)"/><path class="f" d="M-21.07,496.776c7.766-44.459,24.9-89.859,51.371-105.192,20.113-11.639,43.152-4.244,61.665,12.488,15.538,14.045,29.083,32.026,43.869,37,18.645,6.267,36.655-8.3,56.7-26.114,20.422-18.168,37.334-42.295,58.182-49.756,14.837-5.316,31-.979,45.95,8.478,25.981,16.424,38.085,53.524,61.6,62.906,22.144,8.823,40.138,1.016,51.188-15.025,11.839-17.17,19.02-56.312,9.328-91.454-6.226-22.57-13.164-47.191-21.653-70.712-9.383-25.983-13.551-57.748-8.506-83.62,4.6-23.623,15.576-43.143,24.7-66.1,7.954-20,14.55-40.29,18.11-61.19a225.042,225.042,0,0,0-.42-77.959" transform="translate(33.018 72.585)"/><path class="f" d="M-19.55,498.581c8.461-45.363,25.533-92.032,52.524-108.185,20.224-12.068,43.6-4.98,62.073,12.544,15.333,14.521,28.348,33.687,43.086,40.336,18.562,8.394,37.533-3.656,57.564-21.236,20.742-18.214,37.389-44.6,58.568-53.365,15.239-6.3,31.969-2.313,47.4,7.088,24.9,15.193,37.748,48.972,60.55,58.2,21.112,8.543,38.94,2.3,50.316-13.346,12.022-16.526,18.971-53.943,10.9-87.667-5.52-23-12.033-47.648-20.345-71.011-8.909-25.06-13.5-55.025-9.444-80.318,3.825-23.875,14.13-44.085,23.182-66.674,8.07-20.079,15.251-40.1,19.407-61.059a228.3,228.3,0,0,0,1.385-80.094" transform="translate(32.337 72.366)"/><path class="f" d="M-18,500.38c9.162-46.268,26.152-94.2,53.683-111.151,20.334-12.507,44-5.736,62.481,12.581,15.14,15.006,27.6,35.347,42.307,43.675,18.479,10.483,38.438,1,58.419-16.312,21.079-18.242,37.445-46.911,58.96-56.965,15.631-7.312,32.93-3.628,48.837,5.7,23.811,13.989,37.434,44.421,59.5,53.486,20.075,8.254,37.743,3.572,49.444-11.677,12.2-15.9,18.976-51.593,12.452-83.853-4.741-23.456-10.9-48.114-19.026-71.328-8.445-24.127-13.473-52.358-10.388-77.017,3.019-24.127,12.7-45.009,21.714-67.243,8.18-20.154,15.952-39.851,20.693-60.938a231.118,231.118,0,0,0,3.2-82.239" transform="translate(31.643 72.143)"/><path class="f" d="M-16.51,502.19c9.9-47.182,26.808-96.369,54.875-114.107,20.422-12.926,44.432-6.482,62.89,12.637,14.941,15.482,26.891,36.941,41.524,47.014,18.419,12.525,39.332,5.643,59.28-11.387,21.416-18.289,37.489-49.243,59.346-60.621,16.007-8.319,33.89-4.9,50.278,4.318,22.73,12.777,37.136,39.786,58.452,48.777,19.053,7.9,36.545,4.84,48.572-10.007,12.375-15.276,19.059-49.252,14.02-80.057a442.746,442.746,0,0,0-17.718-71.635c-7.981-23.185-13.479-49.653-11.326-73.678,2.208-24.379,11.238-45.941,20.218-67.821C432.18,105.4,440.559,86,445.891,64.805A233.776,233.776,0,0,0,450.9-19.57" transform="translate(30.975 71.919)"/><path class="f" d="M-15,504c10.625-48.105,27.449-98.532,56.057-117.12,20.56-13.346,44.869-7.237,63.3,12.693,14.754,15.948,26.163,38.611,40.745,50.362,18.336,14.652,40.221,10.306,60.163-6.463C227.016,425.153,242.8,391.9,265,379.286c16.41-9.326,34.839-6.137,51.718,2.919,21.637,11.621,36.815,35.244,57.4,44.076,18.021,7.62,35.325,6.09,47.7-8.338,12.551-14.661,19.214-46.883,15.582-76.261A367.814,367.814,0,0,0,421,269.749c-7.523-22.253-13.506-46.949-12.264-70.414,1.3-24.612,9.8-46.865,18.728-68.4,8.412-20.285,17.364-39.366,23.281-60.686,7.5-26.963,9.879-57.181,6.822-86.52" transform="translate(30.299 71.696)"/><path class="f" d="M-13.47,505.8c11.337-49.01,28.084-100.724,57.227-120.076,20.676-13.756,45.3-8,63.707,12.74,14.566,16.414,25.429,40.28,39.962,53.692,18.259,16.787,41.132,15.025,61-1.548,22.111-18.27,37.566-53.9,60.125-67.793,16.8-10.352,35.789-7.321,53.164,1.539,20.538,10.473,36.5,30.721,56.349,39.357,16.984,7.34,34.133,7.34,46.822-6.668s19.429-44.459,17.149-72.447a312.691,312.691,0,0,0-15.1-72.251c-7.071-21.311-13.562-44.2-13.2-67.1.392-24.836,8.379-47.769,17.232-69.015,8.555-20.322,18.077-39.171,24.573-60.565C463.81,48.351,466.83,17.354,464.176-13" transform="translate(29.613 71.476)"/><path class="f" d="M-11.95,507.633C.1,457.69,16.79,404.848,46.452,384.525c20.8-14.12,45.746-8.776,64.115,12.8,14.351,16.881,24.7,41.968,39.189,57.021,18.176,18.9,42.015,19.66,61.852,3.376,22.443-18.317,37.594-56.228,60.516-71.4,17.177-11.369,36.722-8.44,54.6.159,19.467,9.326,36.186,26.113,55.3,34.647,15.957,7.06,32.93,8.571,45.956-5,12.9-13.439,19.7-41.968,18.706-68.651-.938-25.237-6.425-49.9-13.8-72.549-6.623-20.378-13.639-41.418-14.141-63.81-.552-25.013,6.927-48.7,15.742-69.546,8.666-20.406,18.767-38.863,25.865-60.434C469.4,53.478,473.061,21.709,470.813-9.66" transform="translate(28.932 71.251)"/><path class="f" d="M-10.43,509.413C2.348,458.584,18.94,404.445,49.148,383.377c20.914-14.577,46.193-9.55,64.524,12.852,14.2,17.338,23.966,43.6,38.411,60.332,18.1,21.012,42.9,24.3,62.713,8.3,22.768-18.382,37.621-58.569,60.9-75.012,17.558-12.4,37.66-9.5,56.046-1.24s35.877,21.609,54.246,29.947c14.9,6.771,31.727,9.8,45.084-3.329,13.076-12.852,20.03-39.292,20.273-64.846s-5.326-50.362-12.474-72.866c-6.165-19.427-13.738-38.574-15.079-60.5-1.534-25.181,5.475-49.644,14.246-70.125s19.5-38.6,27.156-60.313c9.814-28,14.106-60.546,12.253-92.937" transform="translate(28.251 71.029)"/></g><g transform="translate(198.997 -268.896)"><path class="f" d="M374.588,688.225c-16.084-16.787-16.84-58-7.407-85.69s25.87-46.016,40.475-66.31,28.647-46.389,29.85-78.276c1.545-40.765-18.408-77.781-15.852-118.444,1.993-31.653,17.3-55.613,33.382-69.014,9.091-7.564,19.6-10.212,29.016-16.461,42.71-28.249,80.663,17.477,107.262-19.669,28.8-40.271,27.327-85.345,22.007-107.551-6.817-28.455-29.646-91.463-74.6-74.107-18.259,7.051-36.981,13.057-55.7,11.089-28-2.975-55.218-40.206-57.006-87.49-1.2-32.409,8.738-66.123,1.8-96.415-4.653-20.369-16.443-34.433-29.016-39.46s-25.837-2.005-38.267,3.954" transform="translate(-360.53 279.817)"/><path class="f" d="M377.007,687.851c-16.051-18.326-17.508-60.257-8.042-89.113,9.245-28.166,25.832-46.93,40.751-66.814,14.743-19.641,28.956-44.375,30.909-75.152,2.467-39.338-15.72-76.047-13.043-116.448,2.175-32.129,16.377-56.891,31.958-71.757,8.953-8.552,19.55-12.507,29.254-19.231,41.242-28.464,78.345,14.969,104.408-21.357,28.017-39.086,27.228-83,22.233-105.387-6.336-28.333-28.42-88.852-71.87-73.78-17.889,6.221-36.468,11.294-55,9.205-27.283-2.984-53.683-38.555-56.068-84.123-1.656-31.542,7.38-64.8.6-94.811-4.62-20.518-15.946-35.058-28.15-41.092-12.314-6.081-25.522-4.6-38.118.233" transform="translate(-361.674 280.08)"/><path class="f" d="M378.948,687.439c-16.007-19.846-18.181-62.486-8.682-92.526,9.058-28.632,25.793-47.872,41.032-67.327,14.875-18.988,29.254-42.369,31.953-72.027,3.395-37.9-13.081-74.312-10.239-114.5,2.313-32.642,15.455-58.159,30.54-74.527,8.831-9.569,19.5-14.8,29.546-21.991,39.818-28.52,76.048,12.535,101.56-22.933,27.245-37.9,27.129-80.654,22.454-103.158-5.851-28.2-27.206-86.287-69.132-73.454-17.574,5.372-36.01,9.466-54.34,7.247-26.549-3.04-52.16-36.96-55.135-80.831-2.081-30.684,6.071-63.475-.6-93.207-4.587-20.751-15.455-35.682-27.283-42.714-12.066-7.172-25.2-7.209-37.975-3.5" transform="translate(-362.356 280.379)"/><path class="f" d="M380.865,686.985c-16.007-21.357-18.844-64.734-9.317-95.94,8.881-29.079,25.749-48.795,41.308-67.821,15-18.364,29.574-40.364,33.007-68.912,4.322-36.475-10.415-72.587-7.429-112.55,2.473-33.08,14.544-59.483,29.116-77.3,8.677-10.6,19.445-17.086,29.806-24.761,38.411-28.464,73.752,10.1,98.745-24.491,26.466-36.727,27.046-78.341,22.68-100.976-5.382-28.072-26.014-83.75-66.406-73.128-17.243,4.533-35.5,7.592-53.656,5.335-25.82-3.218-50.642-35.393-54.2-77.53-2.517-29.844,4.659-62.132-1.8-91.6-4.587-20.919-14.975-36.373-26.417-44.337-11.817-8.272-24.888-9.821-37.826-7.228" transform="translate(-363.02 280.713)"/><path class="f" d="M382.795,686.5c-15.963-22.878-19.506-66.972-9.935-99.353,8.7-29.527,25.7-49.746,41.59-68.334,15.129-17.72,29.883-38.359,34.05-65.788,5.255-35.039-7.727-70.88-4.62-110.591,2.638-33.575,13.622-60.863,27.7-80.075,8.539-11.658,19.385-19.352,30.065-27.531,37.02-28.333,71.462,7.666,95.919-26.058,25.688-35.533,26.919-75.944,22.906-98.775-4.912-27.932-24.838-81.26-63.674-72.81-16.928,3.731-35,5.782-52.988,3.413-25.092-3.3-49.124-33.817-53.258-74.228-2.964-28.986,3.312-60.789-3-89.989-4.559-21.105-14.494-36.979-25.55-45.96a49.317,49.317,0,0,0-37.682-10.958" transform="translate(-363.692 281.082)"/><path class="f" d="M384.7,685.952c-15.929-24.4-20.157-69.2-10.592-102.766,8.539-29.975,25.655-50.689,41.866-68.847,15.256-17.067,30.225-36.326,35.1-62.673,6.221-33.575-5.067-69.108-1.81-108.633,2.8-34.032,12.7-62.262,26.279-82.846,8.4-12.721,19.318-21.618,30.358-30.3,35.645-28.119,69.166,5.232,93.087-27.624,24.91-34.349,26.808-73.585,23.127-96.574-4.416-27.792-23.7-78.826-60.936-72.493-16.625,2.8-34.508,3.973-52.3,1.492-24.369-3.385-47.645-32.26-52.325-70.88-3.411-28.156,1.954-59.465-4.206-88.385-4.532-21.3-14-37.66-24.678-47.564-11.332-10.539-24.258-15.034-37.533-14.689" transform="translate(-364.344 281.484)"/><path class="f" d="M386.606,685.449c-15.9-25.917-20.814-71.43-11.232-106.189,8.373-30.4,25.6-51.64,42.147-69.341,15.366-16.442,30.534-34.32,36.153-59.558,7.175-32.138-2.39-67.373.994-106.684,2.975-34.507,11.757-63.689,24.838-85.615,8.279-13.812,19.28-23.875,30.595-33.062,34.282-27.858,66.87,2.8,90.256-29.191,24.137-33.174,26.693-71.225,23.353-94.392-3.985-27.634-22.564-76.476-58.2-72.158a196.847,196.847,0,0,1-51.624-.429c-23.646-3.469-46.171-30.721-51.387-67.616-3.864-27.335.6-58.14-5.409-86.791-4.5-21.45-13.523-38.35-23.811-49.2-11.089-11.7-23.938-17.645-37.39-18.429" transform="translate(-364.992 281.912)"/><path class="f" d="M388.542,684.911c-15.869-27.429-21.455-73.678-11.873-109.6,8.224-30.842,25.55-52.6,42.434-69.854,15.482-15.855,30.843-32.306,37.2-56.434,8.086-30.693.293-65.639,3.8-104.734,3.141-34.964,10.807-65.135,23.436-88.385,8.1-14.922,19.23-26.114,30.86-35.832,32.935-27.522,64.579.364,87.424-30.777,23.359-31.989,26.577-68.856,23.579-92.19-3.533-27.485-21.946-81.792-55.477-71.813-15.814,4.663-33.509.345-50.94-2.35-22.923-3.535-44.708-29.173-50.454-64.3-4.333-26.524-.745-56.816-6.623-85.186-4.33-20.566-12.353-38.334-22.95-50.819-10.84-12.87-23.618-20.247-37.24-22.159" transform="translate(-365.652 282.338)"/><path class="f" d="M390.4,684.372c-15.841-28.912-22.078-75.87-12.513-113.026,8.07-31.234,25.489-53.552,42.738-70.348,15.593-15.211,31.158-30.3,38.256-53.319,9.013-29.257,2.975-63.913,6.624-102.776,3.312-35.44,9.847-66.618,22.018-91.165,7.943-16.032,19.175-28.352,31.119-38.6,31.6-27.13,62.277-2.07,84.593-32.325,22.581-30.777,26.45-66.478,23.8-89.989C623.959,65.487,606.263,12.617,574.3,21.3c-15.576,4.225-33.012-1.455-50.261-4.262-22.2-3.609-43.279-27.643-49.522-61.013-4.808-25.713-2.092-55.482-7.8-83.573-4.227-20.7-11.892-38.905-22.078-52.442-10.753-14.139-23.573-23.086-37.1-25.89" transform="translate(-366.278 282.766)"/><path class="f" d="M392.283,683.819c-15.8-30.459-22.73-78.07-13.148-116.429,7.921-31.709,25.423-54.531,42.992-70.88,15.7-14.6,31.461-28.287,39.3-50.194,9.935-27.821,5.663-62.178,9.422-100.827,3.488-35.915,8.881-68.082,20.6-93.934,7.783-17.151,19.131-30.572,31.384-41.371,30.28-26.692,59.981-4.5,81.761-33.882,21.8-29.62,26.328-64.109,24.027-87.807-2.638-27.168-19.589-78.5-50.007-71.2-15.366,3.731-32.51-3.264-49.582-6.183-21.477-3.675-41.86-26.114-48.572-57.7-5.3-24.92-3.439-54.158-9.008-81.969-4.132-20.872-11.451-39.531-21.217-54.093-10.476-15.409-23.258-25.656-36.948-29.62" transform="translate(-366.904 283.197)"/><path class="f" d="M394.164,683.286c-15.775-31.98-23.364-80.281-13.8-119.852a138.248,138.248,0,0,1,43.268-71.365c15.808-13.99,31.776-26.263,40.353-47.07,10.874-26.375,8.357-60.434,12.231-98.859,3.665-36.373,7.9-69.6,19.175-96.7a123.409,123.409,0,0,1,31.649-44.141c28.972-26.207,57.685-6.929,78.93-35.44,21.029-28.436,26.2-61.731,24.247-85.606-2.208-27.046-18.38-76.727-47.27-70.88-15.2,3.078-32.013-5.064-48.9-8.1-20.754-3.731-40.464-24.575-47.65-54.4-5.807-24.127-4.78-52.834-10.206-80.365-4.388-22.243-11.547-41.3-20.351-55.7-10.2-16.677-22.941-28.223-36.8-33.341" transform="translate(-367.526 283.619)"/><path class="f" d="M396.041,682.745c-15.742-33.5-23.988-82.491-14.423-123.266a133.457,133.457,0,0,1,43.549-71.869c15.913-13.411,32.08-24.248,41.4-43.955,11.8-24.939,11.039-58.7,15.035-96.928,3.864-36.848,6.91-71.113,17.756-99.474a124.686,124.686,0,0,1,31.914-46.9c27.675-25.685,55.389-9.326,76.1-37.025,20.246-27.252,26.052-59.353,24.468-83.405-1.766-26.85-17.193-65.657-44.543-70.554C572.275,6.672,555.788,2.5,539.08-.658c-20.03-3.8-39.1-23.036-46.712-51.09-6.336-23.316-6.127-51.509-11.414-78.761-4.349-22.43-11.039-42.062-19.479-57.32-9.9-17.951-22.612-30.8-36.655-37.072" transform="translate(-368.15 284.047)"/><path class="f" d="M397.916,682.206c-15.714-35.02-24.612-84.692-15.063-126.688,7.49-32.95,25.219-57.478,43.831-72.372,16.007-12.814,32.383-22.252,42.451-40.831,12.7-23.5,13.738-56.965,17.845-94.97,4.029-37.305,5.906-72.633,16.338-102.254a126.481,126.481,0,0,1,32.173-49.672c26.389-25.181,53.126-11.733,73.272-38.592,19.5-25.992,25.914-56.974,24.694-81.213C632.111,48.941,617.3,11.85,591.647,5.387,576.86,1.656,560.632-3.268,544.107-6.56c-19.318-3.842-37.748-21.451-45.779-47.788-6.872-22.514-7.468-50.185-12.612-77.147C481.4-154.121,475.2-174.34,467.1-190.437c-9.61-19.223-22.282-33.384-36.512-40.8" transform="translate(-368.767 284.475)"/><path class="f" d="M399.778,681.667c-15.681-36.531-25.23-86.893-15.7-130.1,7.363-33.37,25.153-58.485,44.112-72.885,16.112-12.236,32.692-20.238,43.5-37.716,13.65-22.057,16.437-55.221,20.654-93.011s4.9-74.154,14.9-105.024a128.856,128.856,0,0,1,32.438-52.442c25.114-24.537,50.83-14.167,70.441-40.1a126.493,126.493,0,0,0,24.915-79.022c-.922-26.515-15.113-62-39.073-69.947C581.41-3.378,565.447-9.02,549.1-12.443c-18.579-3.889-36.429-19.921-44.841-44.487-7.429-21.7-8.8-48.86-13.8-75.543-4.283-22.821-10-43.619-17.745-60.565C463.4-213.529,450.767-229,436.345-237.58" transform="translate(-369.376 284.902)"/><path class="f" d="M401.645,681.174C385.992,643.123,375.8,592.08,385.3,547.659c7.231-33.789,25.075-59.5,44.394-73.389,16.211-11.667,33-18.233,44.548-34.6,14.572-20.63,19.136-53.477,23.464-91.062,4.416-38.238,3.864-75.664,13.5-107.793A131.681,131.681,0,0,1,543.9,185.6c23.856-23.922,48.539-16.6,67.615-41.716a125.43,125.43,0,0,0,25.142-76.821c-.508-26.356-14.064-60.332-36.346-69.584C586-8.515,570.3-14.792,554.129-18.355,536.267-22.281,519-36.681,510.226-59.53c-8.014-20.863-10.145-47.564-15.013-73.939-4.25-23.008-9.466-44.4-16.879-62.188-9-21.755-21.6-38.545-36.219-48.273" transform="translate(-369.985 285.329)"/><path class="f" d="M403.5,680.579c-15.62-39.562-26.45-91.286-16.978-136.929,7.1-34.2,25-60.509,44.67-73.892,16.31-11.1,33.3-16.228,45.6-31.476,15.493-19.2,21.835-51.742,26.268-89.1,4.6-38.732,2.854-77.194,12.077-110.573A134.586,134.586,0,0,1,548.1,180.633c22.63-23.316,46.243-19.044,64.783-43.293a124.434,124.434,0,0,0,25.39-74.61c-.1-26.179-13-58.756-33.614-69.257-14.064-7.153-29.519-13.989-45.5-17.72-17.111-3.964-33.852-16.722-42.97-37.874-8.638-20.024-11.5-46.23-16.233-72.335-4.211-23.2-8.931-45.2-16.007-63.811-8.692-23.018-21.254-41.126-36.076-52" transform="translate(-370.589 285.756)"/><path class="f" d="M405.365,680.04c-15.593-41.082-27.046-93.487-17.618-140.342,6.971-34.61,24.926-61.553,44.951-74.405,16.4-10.53,33.6-14.223,46.651-28.352,16.415-17.776,24.54-50,29.077-87.154,4.785-39.171,1.816-78.7,10.653-113.343A138.145,138.145,0,0,1,552.306,175.7c21.366-22.616,43.941-21.45,61.952-44.85,16.388-21.273,25.3-47.471,25.589-72.437.309-26.02-11.906-57.319-30.876-68.94-13.8-8.45-29.022-15.78-44.824-19.585-16.415-4.029-32.593-15.1-42.009-34.61-9.262-19.091-12.838-44.9-17.442-70.721-4.167-23.4-8.384-45.979-15.14-65.433-8.378-24.274-20.9-43.7-35.932-55.734" transform="translate(-371.193 286.184)"/><path class="f" d="M407.217,679.5c-15.565-42.6-27.659-95.669-18.259-143.765,6.85-35.02,24.838-62.57,45.227-74.9,16.5-9.988,33.9-12.236,47.7-25.237,17.315-16.405,27.245-48.254,31.881-85.205,4.968-39.655.778-80.206,9.24-116.112a142.131,142.131,0,0,1,33.487-63.512c20.135-21.926,41.617-23.969,59.12-46.417C631.2,104.208,640.744,79.279,641.434,54.1c.706-25.871-10.774-55.958-28.15-68.623C599.168-24.85,584.329-32.086,569.128-36.06c-15.681-4.038-31.335-13.365-41.082-31.252-9.88-18.14-14.147-43.582-18.617-69.117-4.129-23.6-7.838-46.762-14.274-67.056-8.06-25.524-20.546-46.273-35.783-59.465" transform="translate(-371.787 286.611)"/><path class="f" d="M409.073,678.958c-15.532-44.123-28.255-97.87-18.893-147.178,6.723-35.44,24.766-63.624,45.509-75.412,16.6-9.438,34.221-10.259,48.749-22.112,18.248-14.969,29.955-46.52,34.7-83.256,5.177-40.1-.276-81.726,7.816-118.882A146.373,146.373,0,0,1,560.7,165.834c18.915-21.217,39.321-26.4,56.3-47.984,14.8-18.96,24.954-42.724,26.036-68.082,1.1-25.713-9.587-54.671-25.39-68.287C603.962-30.1,589.3-38.018,574.18-41.984c-14.98-4.038-30.115-11.621-40.16-27.979C523.477-87.1,518.565-112.23,514.2-137.476c-4.084-23.791-7.28-47.564-13.407-68.679-7.742-26.767-20.19-48.839-35.64-63.2" transform="translate(-372.385 287.042)"/><path class="f" d="M410.912,678.422c-15.5-45.634-28.851-100.062-19.534-150.6,6.623-35.841,24.689-64.678,45.812-75.916,16.691-8.888,34.508-8.254,49.8-18.988,19.175-13.542,32.7-44.766,37.5-81.3,5.426-40.569-1.325-83.237,6.4-121.662A150.75,150.75,0,0,1,564.9,160.943c17.707-20.518,37.025-28.846,53.457-49.551,14.009-17.813,24.777-40.429,26.24-65.881s-8.34-53.44-22.68-67.97a96.649,96.649,0,0,0-42.782-25.386c-14.263-4.038-28.884-9.821-39.217-24.659-11.21-16.069-16.785-40.952-21.018-65.9-4.018-24.006-6.723-48.32-12.546-70.3-7.414-28.015-19.822-51.416-35.491-66.935" transform="translate(-372.971 287.466)"/><path class="f" d="M412.768,677.885c-15.455-47.154-29.392-102.234-20.174-154.014,6.524-36.242,24.617-65.741,46.072-76.42,16.8-8.394,34.817-6.258,50.852-15.855,20.1-12.124,35.391-43.013,40.293-79.339,5.608-41.035-2.384-84.739,4.968-124.431,5.52-29.751,19.114-53.654,34.282-71.813,16.514-19.772,34.729-31.271,50.625-51.118,13.247-16.591,24.59-38,26.494-63.652,1.877-25.414-7-52.227-19.948-67.653C614-40.986,599.185-49.2,584.128-53.707c-13.545-4.048-27.647-7.983-38.295-21.357-11.884-14.922-18.126-39.627-22.216-64.3-3.985-24.192-6.16-49.094-11.679-71.934-7.086-29.242-19.446-53.966-35.325-70.656" transform="translate(-373.573 287.891)"/><path class="f" d="M414.6,677.344c-15.455-48.674-30.021-104.454-20.814-157.437,6.375-36.671,24.54-66.814,46.364-76.923,16.89-7.834,35.126-4.243,51.884-12.758,21.029-10.669,38.085-41.269,43.113-77.408,5.79-41.5-3.444-86.231,3.56-127.2,5.277-30.889,19.208-55.548,34.541-74.61s32.427-33.659,47.8-52.638c12.474-15.407,24.4-35.645,26.709-61.46,2.263-25.274-5.575-50.987-17.21-67.327s-26.527-24.519-41.43-29.219c-12.827-4.048-26.406-6.071-37.356-18.046C539.194-91.414,532.283-116,528.337-140.377s-5.6-49.858-10.813-73.557c-6.764-30.478-19.091-56.53-35.2-74.387" transform="translate(-374.142 288.32)"/></g></g></g></g></g></svg>