<svg xmlns="http://www.w3.org/2000/svg" xmlns:xlink="http://www.w3.org/1999/xlink" width="414" height="705" viewBox="0 0 414 705"><defs><style>.a,.f{fill:none;stroke:#fff;stroke-width:2px;}.b{fill:#f6f6f6;}.c{opacity:0.559;}.d{fill:#ececec;opacity:0.5;}.e{clip-path:url(#a);}.f{stroke-miterlimit:10;}</style><clipPath id="a"><rect class="a" width="414" height="705"/></clipPath></defs><g transform="translate(0 -1226)"><g transform="translate(0 1226)"><rect class="b" width="414" height="705"/><g class="c"><rect class="d" width="413" height="705" transform="translate(1)"/><g class="e"><g transform="translate(-85.211 -228.553)"><path class="f" d="M166.435-52.3q-5,54.695-12.537,107.572c-2.208,15.635-4.7,31.468-9,43.959-11,31.933-30.253,32.92-46.683,25.984-15.152-6.4-29.952-17.377-44.088-32.709C40.133,77.337,26.6,57.754,11.613,51.325s-32.423,3.948-40.5,36.783c-4.8,19.569-5.57,44.326-3.693,66.926s6.183,43.381,10.959,62.993c5.471,22.445,11.82,45.186,12.642,71.536.85,27.295-5.051,55.21-14.459,68.35-13.377,18.695-29.751,6.965-44.756,0-19.057-8.868-39.5-8.8-56.913,12.9s-30.872,68.829-29.083,118.09" transform="translate(154.349 207.117)"/><path class="f" d="M164.05-57.53c-3.243,35.646-7.355,70.74-12.311,105.077-2.208,15.255-4.643,30.679-8.833,42.916-10.716,31.271-29.342,32.991-45.319,27.041a91.033,91.033,0,0,1-11.317-5.132c-10.812-5.773-21.4-13.972-31.65-24.5C40.95,73.77,27.7,55.442,13.048,49.563s-31.17,4.864-39.7,35.444a185.857,185.857,0,0,0-6.327,37.263,259.1,259.1,0,0,0-.375,27.986q.244,6.5.778,12.9c1.468,17.257,4.593,34.147,8.011,50.205.337,1.593.679,3.172,1.021,4.765,5.344,24.63,10.986,49.824,11.3,77.387.3,26.534-5.184,53.575-14.354,66.475-13.034,18.441-28.928,7.881-43.442,1.988-1.143-.465-2.291-.9-3.445-1.283-17.423-5.95-35.642-3.525-51.188,17-16.562,21.881-29.232,68-27.228,115.862" transform="translate(153.35 204.973)"/><path class="f" d="M161.7-62.76c-3.159,34.826-7.2,69.092-12.1,102.581-2.17,14.874-4.582,29.917-8.667,41.887-10.406,30.594-28.437,33.033-43.956,28.07a86.853,86.853,0,0,1-11.008-4.413C75.451,100.312,65.127,92.9,55.12,83.2,41.771,70.274,28.8,53.173,14.5,47.8s-30.01,5.795-38.893,34.09a192.38,192.38,0,0,0-8.077,35.669,238.393,238.393,0,0,0-1.656,27.915c-.01,4.5.1,9,.32,13.464.927,18.244,4.03,36.656,7.381,54.124.337,1.734.668,3.454,1,5.174,5.217,26.787,10.169,54.378,9.937,83.182-.193,25.73-5.316,51.855-14.232,64.628-12.7,18.159-28.095,8.769-42.123,3.99-1.1-.381-2.208-.733-3.312-1.043-16.827-4.652-34.261-1.128-49.018,19.583-15.739,22.078-27.6,67.166-25.4,113.635" transform="translate(152.325 202.829)"/><path class="f" d="M159.3-68c-3.076,34.008-7.043,67.45-11.875,100.1-2.148,14.493-4.527,29.128-8.5,40.886-10.175,29.889-27.532,33.061-42.6,29.071a77.531,77.531,0,0,1-10.694-3.68C75.409,94.062,65.356,87.452,55.588,78.625c-13.029-11.8-25.715-27.661-39.683-32.511s-28.939,6.64-38.093,32.751c-3.986,11.363-7.63,21.458-9.821,34.048a212.276,212.276,0,0,0-2.965,27.746c-.2,4.682-.251,9.4-.16,14.1.386,19.231,3.467,39.236,6.757,58.058.326,1.861.651,3.722.983,5.639,5.09,29.029,9.385,58.833,8.607,89.089-.629,24.87-5.454,50.177-14.122,62.753-12.339,17.905-27.267,9.686-40.809,5.992-1.071-.282-2.142-.55-3.213-.775-16.225-3.369-32.881,1.255-46.854,22.149-14.906,22.276-25.947,66.263-23.518,111.379" transform="translate(151.343 200.682)"/><path class="f" d="M156.91-73.21c-2.993,33.179-6.889,65.783-11.66,97.576-2.114,14.1-4.472,28.31-8.336,39.786-9.865,29.3-26.621,33.188-41.228,30.185a71.743,71.743,0,0,1-10.379-2.947,98.329,98.329,0,0,1-29.26-17.482C43.349,63.222,30.933,48.531,17.314,44.3s-27.951,7.374-37.276,31.383c-4.417,11.279-8.739,20.231-11.593,32.427A187.265,187.265,0,0,0-35.817,135.9c-.378,4.8-.585,9.681-.618,14.578-.16,20.217,2.9,41.788,6.128,62.034l.961,5.992c4.985,31.172,8.607,63.162,7.265,94.884-1.01,23.968-5.587,48.513-14.011,60.906-11.991,17.637-26.433,10.588-39.489,7.994-1.032-.212-2.065-.381-3.1-.522-15.618-2.115-31.49,3.638-44.679,24.673-14.061,22.459-24.291,65.5-21.658,109.18" transform="translate(150.354 198.546)"/><path class="f" d="M154.533-78.44C151.624-46.081,147.8-14.3,143.089,16.641,141,30.373,138.672,44.2,134.929,55.412c-9.589,28.606-25.721,33.23-39.876,31.214A68.488,68.488,0,0,1,84.989,84.4,88.79,88.79,0,0,1,56.547,69.257C44.158,59.7,32.035,46.3,18.752,42.47S-8.3,50.534-17.729,72.542c-4.847,11.279-9.849,19-13.316,30.834a164.755,164.755,0,0,0-5.521,27.718c-.565,4.931-.935,9.994-1.1,15.114-.7,21.148,2.341,44.326,5.521,65.911.309,2.143.624,4.23.933,6.415,4.847,33.4,7.839,67.532,5.918,100.763-1.336,23.108-5.714,46.85-13.9,59.059-11.7,17.412-25.649,11.533-38.2,10.024-.988-.113-1.982-.2-2.976-.254-15.027-.79-30.121,6.02-42.509,27.281-13.222,22.656-22.684,64.67-19.8,106.952" transform="translate(149.352 196.403)"/><path class="f" d="M152.073-83.67c-2.826,31.54-6.582,62.49-11.235,92.585-2.065,13.365-4.35,26.787-7.994,37.742-9.308,27.972-24.816,33.315-38.512,32.286a64.585,64.585,0,0,1-9.755-1.494,80.473,80.473,0,0,1-27.642-12.8C44.867,56.188,33.025,44.063,20.09,40.792S-6.122,49.364-15.59,69.539C-20.906,80.818-26.554,87.261-30.661,98.7a143.988,143.988,0,0,0-6.818,27.661c-.754,5.056-1.287,10.309-1.59,15.664-1.242,22.191,1.783,46.878,4.875,69.915q.464,3.412.916,6.824c4.72,35.585,7.116,71.818,4.571,106.613-1.623,22.205-5.846,45.116-13.8,57.184-11.3,17.116-24.777,12.393-36.862,12h-2.86c-14.431.507-28.741,8.459-40.356,29.847-12.388,22.854-21.05,63.839-17.948,104.725" transform="translate(148.445 194.259)"/><path class="f" d="M149.6-88.9c-2.734,30.722-6.413,60.845-11,90.09-2.032,12.985-4.29,26-7.828,36.656-9.021,27.309-23.9,33.371-37.149,33.329A58.043,58.043,0,0,1,84.19,70.4,72.539,72.539,0,0,1,57.348,59.939C45.6,52.636,34.04,41.723,21.464,38.974S-5.4,44.05-13.432,66.368c-6.487,8.445-12.074,16.594-16.8,27.619a126.749,126.749,0,0,0-8.115,27.591,160.4,160.4,0,0,0-2.07,16.227c-1.783,23.164,1.22,49.345,4.251,73.75q.453,3.623.894,7.247c4.593,37.77,6.426,76.132,3.224,112.45-1.877,21.317-5.962,43.551-13.691,55.337-10.953,16.848-23.949,13.295-35.548,14a23.1,23.1,0,0,0-2.76.254c-13.829,1.79-27.366,10.785-38.192,32.427-11.544,23.051-19.411,63.006-16.087,102.5" transform="translate(147.518 192.116)"/><path class="f" d="M147.18-94.13c-2.651,29.9-6.259,59.2-10.787,87.595-2,12.59-4.229,25.222-7.657,35.669-8.739,26.6-23,33.414-35.785,34.344a61.623,61.623,0,0,1-9.126,0,66.381,66.381,0,0,1-26.041-8.107c-11.428-6.246-22.707-15.917-34.957-18.2s-26.047,5.287-34.068,26.1c-7.011,7.98-13.194,15.339-18.555,26.068-3.848,7.408-7.045,16.792-9.385,27.549a150.831,150.831,0,0,0-2.551,16.763c-2.324,24.151.662,51.953,3.627,77.683q.442,3.807.872,7.656c4.466,39.955,5.769,80.362,1.877,118.287-2.109,20.359-6.122,41.774-13.575,53.42-10.605,16.58-23.115,14.2-34.228,15.988-.878.141-1.75.325-2.628.522-13.25,3.088-25.986,13.168-36.028,34.993-10.7,23.221-17.771,62.161-14.232,100.255" transform="translate(146.564 189.972)"/><path class="f" d="M144.706-99.36c-2.566,29.084-6.1,57.554-10.567,85.1-1.976,12.209-4.179,24.433-7.491,34.626-8.458,26-22.094,33.47-34.427,35.388a53.774,53.774,0,0,1-8.833.677,60.789,60.789,0,0,1-25.241-5.766C47.039,45.6,36.064,37.157,24.128,35.465s-25.218,5.4-33.234,24.7c-7.53,7.529-14.3,14.1-20.3,24.391-4.3,7.085-7.946,16.459-10.694,27.478a142.558,142.558,0,0,0-3.025,17.313c-2.865,25.138.1,54.491,3,81.6q.431,4.018.85,8.064c4.339,42.155,5.156,84.592.552,124.152-2.3,19.541-6.271,40.153-13.448,51.615-10.28,16.326-22.3,15.113-32.931,18-.839.226-1.656.479-2.512.775-12.631,4.371-24.606,15.509-33.864,37.559-9.865,23.418-16.131,61.329-12.372,98.027" transform="translate(145.66 187.829)"/><path class="f" d="M142.215-104.59c-2.481,28.267-5.945,55.911-10.351,82.6-1.949,11.843-4.118,23.672-7.32,33.6C116.367,36.988,103.355,45.193,91.475,48.1a55.128,55.128,0,0,1-8.491,1.41,56.634,56.634,0,0,1-24.44-3.44C47.762,42.078,37.052,34.873,25.458,33.7S1,39.342-7,57.05c-8.049,7.049-15.414,12.9-22.05,22.783A91.567,91.567,0,0,0-41.01,107.255a136.74,136.74,0,0,0-3.506,17.863c-3.406,26.125-.464,57.043,2.374,85.536.282,2.82.552,5.639.834,8.459,4.218,44.34,4.577,88.92-.812,129.989-2.451,18.695-6.4,38.518-13.338,49.782-9.937,16.044-21.453,16-31.595,20.006-.8.31-1.6.648-2.4,1.029-12.035,5.639-23.226,17.933-31.694,40.125-9.032,23.615-14.5,60.5-10.489,95.871" transform="translate(144.771 185.685)"/><path class="f" d="M139.649-109.82c-2.4,27.449-5.794,54.267-10.141,80.108C127.586-18.25,125.45-6.83,122.358,2.856c-7.895,24.673-20.283,33.639-31.705,37.53a52.87,52.87,0,0,1-8.182,2.129,53.849,53.849,0,0,1-23.628-1.142c-10.489-2.82-20.9-8.783-32.125-9.432S3.084,37.679-4.943,53.949C-13.511,60.562-21.472,65.623-28.737,75.1c-4.969,6.471-9.744,15.508-13.25,27.351a132.035,132.035,0,0,0-3.986,18.413c-3.942,27.14-1.032,59.609,1.739,89.484q.414,4.441.806,8.9c4.1,46.525,4.052,93.262-2.153,135.84-2.6,17.821-6.509,36.826-13.25,47.935-9.567,15.791-20.631,16.918-30.286,22.008-.756.409-1.518.832-2.275,1.3-11.433,6.951-21.845,20.316-29.53,42.691-8.193,23.813-12.858,59.665-8.662,93.573" transform="translate(143.959 183.542)"/><path class="f" d="M137.083-115c-2.316,26.612-5.645,52.582-9.937,77.542-1.888,11.081-4,22.092-6.984,31.524C112.554,18.034,100.79,27.776,89.8,32.64a51.488,51.488,0,0,1-7.861,2.82A52.025,52.025,0,0,1,59.1,36.715C48.956,35.009,38.8,30.3,27.917,30.173S5.1,36.052-2.894,50.828C-11.976,57-20.533,61.232-28.433,70.382-33.838,76.6-39.071,85.51-42.98,97.677a127.93,127.93,0,0,0-4.461,18.963c-4.488,28.113-1.584,62.132,1.1,93.389q.4,4.624.784,9.305c3.969,48.711,3.572,97.661-3.5,141.677-2.733,16.989-6.625,35.162-13.112,46.046-9.22,15.509-19.8,17.821-28.967,23.967-.723.493-1.441,1-2.159,1.551-10.837,8.234-20.465,22.713-27.366,45.257-7.354,23.967-11.218,58.833-6.8,91.344" transform="translate(143.141 181.418)"/><path class="f" d="M134.471-120.28C132.247-94.465,129-69.3,124.777-45.163c-1.866,10.687-3.942,21.317-6.818,30.481C110.633,8.666,99.492,19.155,88.981,24.95a63.11,63.11,0,0,1-7.552,3.581,51.681,51.681,0,0,1-22.033,3.6c-9.827-.578-19.7-4.06-30.237-3.652S7.871,38.343-.89,47.8c-9.076,9.869-18.77,9.22-27.289,17.948-5.841,5.95-11.538,14.8-15.833,27.224a124.061,124.061,0,0,0-4.969,19.512c-5.029,29.1-2.142,64.67.5,97.28q.386,4.85.762,9.728c3.864,50.91,3.141,102.13-4.847,147.513-2.827,16.171-6.752,33.47-12.974,44.171-8.877,15.255-18.969,18.779-27.653,26.012-.685.564-1.364,1.17-2.043,1.8-10.235,9.531-19.085,25.1-25.2,47.822-6.514,24.193-9.584,58-4.969,89.117" transform="translate(142.374 179.254)"/><path class="f" d="M131.8-125.5c-2.143,24.992-5.321,49.332-9.479,72.608-1.838,10.32-3.864,20.542-6.625,29.452C108.655-.742,98.138,10.4,88.1,17.234a65.415,65.415,0,0,1-7.232,4.314A53.031,53.031,0,0,1,59.587,27.47c-9.5.55-19.1-1.692-29.293-.761S9.663,36.366,1.034,44.684C-8.627,54.017-18.84,52.692-28,61.038c-6.26,5.625-12.444,14.437-17.109,27.055a121.753,121.753,0,0,0-5.416,20.062c-5.576,30.129-2.711,67.264-.127,101.284q.381,5.033.74,10.137c3.715,53.1,2.76,106.684-6.194,153.364-2.954,15.41-6.906,31.821-12.885,42.3-8.529,15.029-18.135,19.682-26.334,28.042-.646.663-1.286,1.41-1.927,2.073-9.639,10.813-17.7,27.478-23.032,50.388-5.681,24.391-7.95,57.17-3.092,86.889" transform="translate(141.664 177.115)"/><path class="f" d="M129.057-130.73c-2.057,24.178-5.165,47.694-9.264,70.112a259.436,259.436,0,0,1-6.476,28.423C106.554-10.173,96.661,1.642,87.061,9.523a69.256,69.256,0,0,1-6.923,5.033,56.627,56.627,0,0,1-20.427,8.29c-9.181,1.664-18.489.663-28.343,2.129S11.394,34.421,2.926,41.6c-10.268,8.614-20.99,6.711-30.794,14.663-6.708,5.428-13.332,14.24-18.406,27.1a119.168,119.168,0,0,0-5.9,20.612c-6.117,31.017-3.268,69.76-.756,105.176q.375,5.245.723,10.532c3.594,55.252,2.457,111.365-7.541,159.215-3.053,14.648-7.033,30.157-12.769,40.477-8.182,14.733-17.307,20.513-25.02,30.016-.607.747-1.215,1.523-1.811,2.326-9.043,12.111-16.33,29.861-20.868,52.954-4.842,24.588-6.31,56.394-1.231,84.662" transform="translate(141.031 174.971)"/><path class="f" d="M126.219-136a680.96,680.96,0,0,1-9.043,67.673,262.924,262.924,0,0,1-6.283,27.309c-6.481,21.373-15.75,33.964-24.9,42.775A80.379,80.379,0,0,1,79.37,7.524,62.769,62.769,0,0,1,59.739,18.14c-8.833,2.82-17.893,3.031-27.4,5.019S13.011,32.365,4.7,38.442c-10.843,7.909-22.1,5.569-32.539,13.069C-34.98,56.728-42.068,65.427-47.55,78.595a117.353,117.353,0,0,0-6.376,21.148c-6.641,32.131-3.815,72.312-1.353,109.109q.364,5.456.7,10.955c3.467,57.48,2.208,116.144-8.883,165.052-3.152,13.929-7.177,28.493-12.664,38.63-7.861,14.465-16.49,21.374-23.711,32-.552.846-1.137,1.706-1.695,2.58-8.441,13.408-14.95,32.258-18.7,55.534-4,24.785-4.67,55.506.624,82.435" transform="translate(140.491 172.811)"/><path class="f" d="M123.26-141.19a622.091,622.091,0,0,1-8.833,65.051A269.112,269.112,0,0,1,108.283-49.8C102.1-29.092,93.454-15.769,84.765-5.984q-3.105,3.511-6.294,6.5A71.18,71.18,0,0,1,59.635,13.472c-8.54,3.919-17.285,5.4-26.455,7.909S14.558,30.291,6.344,35.31c-11.455,7.049-23.187,4.342-34.272,11.5C-35.5,51.721-43.056,60.378-48.907,73.8a116.038,116.038,0,0,0-6.857,21.712c-7.177,33.047-4.417,74.849-2,113.028q.359,5.64.674,11.364c3.346,59.665,1.987,121.079-10.224,170.9-3.246,13.224-7.3,26.787-12.549,36.755-7.492,14.211-15.651,22.346-22.386,34.02-.552.916-1.06,1.875-1.579,2.82-7.787,14.4-13.577,34.753-16.534,58.114-3.169,24.955-3.036,54.66,2.479,80.193" transform="translate(140.065 170.684)"/><path class="f" d="M120.183-146.42a566.2,566.2,0,0,1-8.607,62.541c-1.682,8.909-3.682,17.4-5.973,25.377C99.69-38.439,91.668-24.4,83.431-13.625c-1.96,2.58-3.958,4.977-5.979,7.218A83.219,83.219,0,0,1,59.422,8.89c-8.22,5.047-16.684,7.754-25.517,10.8S15.985,28.262,7.881,32.28c-12.052,5.978-24.324,3.13-36.022,9.869-8.01,4.61-16.027,13.21-22.265,26.886a114.879,114.879,0,0,0-7.337,22.248c-7.729,34.034-4.969,77.387-2.628,116.948q.34,5.858.651,11.786c3.219,61.851,1.844,126.182-11.593,176.74-3.312,12.562-7.436,25.138-12.438,34.908-7.122,13.943-14.8,23.234-21.039,36.022q-.734,1.495-1.457,3.088c-7.177,15.818-12.2,37.045-14.354,60.624-2.33,25.152-1.4,53.829,4.334,77.965" transform="translate(139.764 168.541)"/><path class="f" d="M116.877-151.65A516.577,516.577,0,0,1,108.491-91.6c-1.676,8.479-3.619,16.6-5.808,24.278C97.052-47.941,89.654-33.165,81.875-21.407c-1.855,2.82-3.749,5.456-5.664,7.938A98.88,98.88,0,0,1,58.976,4.182C51.081,10.343,42.894,14.29,34.409,17.857s-17.2,8.205-25.224,11.279C-3.452,33.958-16.249,31.011-28.588,37.4c-8.441,4.371-16.921,12.928-23.551,26.787a114.126,114.126,0,0,0-7.812,22.868c-8.281,35.021-5.521,79.939-3.257,120.881.226,4.032.436,8.107.635,12.2,3.092,64.036,1.761,131.455-12.918,182.577a199.417,199.417,0,0,1-12.322,33.061c-6.8,13.676-13.989,24.151-19.759,38.066-.453,1.1-.9,2.214-1.342,3.356-6.588,17.249-10.862,39.4-12.206,63.246-1.491,25.378.243,53,6.194,75.738" transform="translate(139.691 166.397)"/><path class="f" d="M113.37-156.88A469,469,0,0,1,105.2-99.33c-1.66,8.077-3.544,15.842-5.637,23.234A209.875,209.875,0,0,1,80.114-29.133q-2.617,4.568-5.35,8.671A118.481,118.481,0,0,1,58.335-.47,94.577,94.577,0,0,1,34.706,16.1c-8.1,4.06-16.452,7.811-24.418,9.869-13.205,3.482-26.543.677-39.517,6.683-8.877,4.1-17.815,12.6-24.843,26.787a113.99,113.99,0,0,0-8.264,23.4c-8.833,35.994-6.073,82.463-3.864,124.787q.323,6.344.613,12.689c2.965,66.263,1.733,136.926-14.265,188.428a227.913,227.913,0,0,1-12.212,31.186c-6.448,13.408-13.156,25.053-18.439,40.026-.414,1.184-.823,2.383-1.226,3.609-5.99,18.646-9.519,41.652-10.081,65.727-.651,25.547,1.883,52.165,8.055,73.51" transform="translate(139.819 164.254)"/><path class="f" d="M109.606-162.11c-4.339,54.9-18.411,103.159-36.514,134.656S33.034,19.635,11.139,22.906c-13.758,2.044-27.659-.55-41.262,5.061s-27.41,21.148-34.9,50.642c-9.385,36.981-6.625,85.014-4.5,128.72,3.506,71.9,3.456,152.265-15.022,207.249-9.2,27.38-22.221,45.693-30.331,75.23-11.24,40.957-10.368,100.946,2.032,139.661" transform="translate(140.199 162.11)"/></g><g transform="translate(49.653 415.006)"><path class="f" d="M89.94,561.458q12.882-45.512,27.824-86.848c4.416-12.223,9.092-24.39,14.95-31.679,14.978-18.6,32.887-.536,46.992,22.064,13.007,20.844,25,45.563,35.719,73.637,10.611,27.8,20.134,59.214,32.992,79.911s30.5,28.38,42.923,6.006c7.392-13.309,11.842-35.4,13.526-58.086s.856-46.116-.585-68.914c-1.656-26.111-4.069-53.335-.845-78.459,3.346-26.012,13.012-45.933,23.673-48.781,15.165-4.06,28.5,22.91,41.284,44.143,16.236,26.985,35.106,47.075,54.445,44.227s38.888-33.047,44.69-80.249" transform="translate(-89.94 -263.399)"/><path class="f" d="M93.57,570.983q12.64-44.765,27.438-85.142c4.372-11.927,8.993-23.784,14.751-30.946,11.566-14.381,24.882-7.049,36.817,7.049a130.337,130.337,0,0,1,9.385,12.788c12.857,19.707,24.749,43.253,35.426,70.141,10.572,26.6,20.046,56.972,32.765,76.865,7.133,11.18,15.585,18.836,23.91,20.218,7.249,1.184,14.442-2.5,20.454-13a61.736,61.736,0,0,0,3.053-6.147c5.9-13.69,9.484-33.372,11.041-53.575.495-6.406.828-12.885,1-19.4.442-17.1-.077-34.4-.845-51.319-1.209-26.787-2.821-54.294.817-79.361s12.874-44.27,23.281-47.174c14.812-4.159,27.874,21.261,40.373,41,.988,1.565,1.982,3.088,2.987,4.6,15.171,22.656,32.34,38.391,49.786,34.781,18.6-3.849,37.248-33.837,42.636-80.038" transform="translate(-91.566 -262.731)"/><path class="f" d="M97.2,582.448c8.271-29.332,17.309-57.2,27.051-83.421,4.328-11.645,8.9-23.178,14.553-30.227,11.362-14.1,24.407-7.557,36.155,5.64a121.85,121.85,0,0,1,9.264,11.984c12.7,18.574,24.494,40.952,35.123,66.658,10.522,25.378,19.968,54.745,32.572,73.947,7.4,11.279,16.076,19.287,24.655,21.007,7.453,1.41,14.906-1.987,21.15-12.562a58.256,58.256,0,0,0,3.169-6.246c6.15-13.943,9.821-34.217,11.511-54.984.529-6.643.9-13.361,1.1-20.119.552-17.567.254-35.359-.243-52.686-.762-27.549-1.573-55.224,2.479-80.277,3.864-23.784,12.747-42.592,22.9-45.567,14.448-4.23,27.245,19.6,39.462,37.855q1.441,2.115,2.915,4.23c14.812,20.88,31.429,34.823,48.179,30.27,17.854-4.836,35.608-34.739,40.583-79.8" transform="translate(-93.192 -264.116)"/><path class="f" d="M100.82,594.154c8.117-28.846,17.032-56.174,26.676-81.772,4.273-11.349,8.794-22.558,14.354-29.494,11.146-13.915,23.927-8.036,35.487,4.23a115.356,115.356,0,0,1,9.153,11.335c12.552,17.429,24.243,38.629,34.824,63.148,10.489,24.278,19.9,52.489,32.335,70.987,7.679,11.419,16.562,19.738,25.4,21.8,7.663,1.762,15.386-1.494,21.845-12.139a56.922,56.922,0,0,0,3.312-6.33c6.393-14.211,10.153-35.092,11.963-56.507q.85-10.242,1.237-20.682c.685-18.046.58-36.332.353-54.068-.32-28.268-.348-56.113,4.141-81.18,4.058-22.685,12.62-40.886,22.519-43.973,14.089-4.357,26.615,17.947,38.545,34.711q1.413,1.988,2.849,3.891c14.459,19.1,30.518,31.271,46.567,25.772,17.114-5.851,33.974-35.6,38.54-79.586" transform="translate(-94.813 -265.699)"/><path class="f" d="M104.45,605.889c7.96-28.318,16.748-55.055,26.289-79.981,4.229-11.067,8.7-21.966,14.155-28.775,10.942-13.676,23.457-8.459,34.824,2.89a103.822,103.822,0,0,1,9.015,10.419c12.4,16.291,23.988,36.317,34.521,59.651,10.434,23.094,19.836,50.205,32.114,68,7.955,11.533,17.064,20.19,26.146,22.558,7.861,2.059,15.855-.973,22.541-11.7a57.608,57.608,0,0,0,3.417-6.415c6.625-14.479,10.489-35.966,12.416-58.016q.905-10.515,1.364-21.232c.806-18.511.905-37.3.955-55.464.121-28.973.861-56.972,5.8-82.082,4.245-21.571,12.488-39.251,22.132-42.366,13.73-4.441,25.986,16.3,37.64,31.567.916,1.212,1.844,2.383,2.76,3.539,14.1,17.327,29.607,27.7,44.96,21.261,16.363-6.852,32.34-36.431,36.486-79.347" transform="translate(-96.439 -267.297)"/><path class="f" d="M108.08,617.612c7.8-27.816,16.464-53.992,25.9-78.276,4.179-10.771,8.6-21.345,13.951-28.042,10.738-13.436,22.983-8.995,34.162,1.481a93.588,93.588,0,0,1,8.888,9.643c12.25,15.14,23.742,33.989,34.228,56.14,10.39,21.937,19.781,47.935,31.9,65.037,8.231,11.632,17.55,20.626,26.891,23.376,8.066,2.34,16.325-.479,23.231-11.279a57.861,57.861,0,0,0,3.544-6.5c6.884-14.733,10.821-36.826,12.869-59.51q.965-10.8,1.485-21.81c.933-18.977,1.22-38.264,1.557-56.831.552-29.706,2.054-57.8,7.464-82.985,4.417-20.485,12.355-37.587,21.746-40.773,13.366-4.54,25.356,14.649,36.724,28.423.9,1.085,1.8,2.157,2.711,3.186,13.741,15.508,28.708,24.151,43.348,16.763,15.624-7.867,30.706-37.291,34.438-79.135" transform="translate(-98.065 -268.883)"/><path class="f" d="M111.71,629.343a783.483,783.483,0,0,1,25.522-76.569c4.135-10.475,8.5-20.739,13.752-27.323,10.528-13.2,22.508-9.46,33.5.1a91.58,91.58,0,0,1,8.761,8.84c12.1,14.005,23.49,31.686,33.93,52.658,10.34,20.753,19.72,45.581,31.678,62.034,8.513,11.73,18.042,21.148,27.637,24.165,8.281,2.636,16.794,0,23.921-10.842a55.369,55.369,0,0,0,3.666-6.584c7.133-15,11.157-37.7,13.327-61,.69-7.43,1.209-14.93,1.612-22.374,1.054-19.456,1.54-39.236,2.159-58.227.983-30.411,3.224-58.664,9.12-83.886,4.549-19.372,12.223-35.9,21.359-39.11,13.012-4.638,24.733,13,35.818,25.293.872.959,1.756,1.9,2.639,2.82,13.388,13.76,27.786,20.584,41.742,12.251,14.878-8.854,29.066-38.066,32.39-78.952" transform="translate(-99.691 -270.478)"/><path class="f" d="M115.34,641.056a722.531,722.531,0,0,1,25.136-74.835c4.085-10.193,8.4-20.133,13.553-26.6,10.324-12.957,22.039-9.953,32.837-1.311a81.21,81.21,0,0,1,8.64,8.064c11.942,12.867,23.233,29.369,33.626,49.148,10.3,19.583,19.67,43.255,31.468,59.087,8.8,11.815,18.538,21.515,28.387,24.955,8.469,2.918,17.263.522,24.617-10.419a54.537,54.537,0,0,0,3.787-6.683c7.381-15.255,11.489-38.546,13.8-62.5.723-7.613,1.281-15.311,1.728-22.938,1.181-19.921,1.872-40.2,2.76-59.595,1.424-31.144,4.378-59.524,10.782-84.8,4.648-18.328,12.1-34.231,20.979-37.559,12.648-4.737,24.1,11.279,34.907,22.149q1.275,1.269,2.567,2.467c13.029,11.984,26.875,17.031,40.135,7.754,14.133-9.869,27.427-38.983,30.364-78.684" transform="translate(-101.317 -272.068)"/><path class="f" d="M119,652.783a666.849,666.849,0,0,1,24.76-73.129c4.036-9.869,8.281-19.527,13.349-25.871,10.119-12.689,21.531-10.377,32.169-2.707a75.06,75.06,0,0,1,8.518,7.275C209.589,570.067,220.78,585.4,231.125,604c10.252,18.413,19.626,40.886,31.242,56.1,9.082,11.9,19.03,21.966,29.127,25.744,8.679,3.214,17.738,1.029,25.312-10a52.033,52.033,0,0,0,3.914-6.753c7.624-15.509,11.825-39.476,14.238-63.993.762-7.811,1.358-15.706,1.855-23.5,1.3-20.4,2.208-41.154,3.357-60.99,1.872-31.849,5.521-60.37,12.444-85.691,4.737-17.3,11.963-32.568,20.6-35.965,12.289-4.836,23.468,9.7,33.991,19,.828.733,1.656,1.41,2.5,2.115,12.7,10.193,25.947,13.464,38.523,3.243,13.393-10.87,25.793-39.814,28.288-78.445" transform="translate(-102.957 -273.658)"/><path class="f" d="M122.59,664.5a616.223,616.223,0,0,1,24.374-71.41c4.008-9.6,8.2-18.92,13.15-25.109,9.91-12.477,21.083-10.856,31.507-4.117a68.643,68.643,0,0,1,8.4,6.5c11.638,10.573,22.728,24.729,33.025,42.155,10.208,17.229,19.587,38.518,31.021,53.124,9.385,11.956,19.527,22.417,29.878,26.534,8.883,3.5,18.218,1.536,26.008-9.573a53.05,53.05,0,0,0,4.036-6.838c7.872-15.79,12.145-40.294,14.691-65.488.8-8.008,1.435-16.087,1.982-24.066,1.424-20.88,2.523-42.127,3.958-62.372,2.308-32.582,6.625-61.244,14.105-86.608,4.8-16.284,11.831-30.89,20.206-34.358,11.93-4.934,22.845,8.05,33.085,15.861.806.606,1.618,1.2,2.429,1.762,12.317,8.459,25.053,9.869,36.917-1.255,12.648-11.871,24.159-40.674,26.24-78.233" transform="translate(-104.565 -275.24)"/><path class="f" d="M126.22,676.27a566.768,566.768,0,0,1,23.993-69.7c3.936-9.319,8.1-18.329,12.946-24.419,9.705-12.252,20.609-11.279,30.844-5.512a69.88,69.88,0,0,1,8.281,5.639c11.487,9.432,22.479,22.415,32.732,38.659,10.158,16.058,19.543,36.149,30.8,50.148,9.661,12.026,20.012,22.868,30.623,27.323,9.087,3.793,18.676,2.044,26.7-9.136a52.251,52.251,0,0,0,4.157-6.922c8.121-16.044,12.493-41.154,15.149-67,.839-8.191,1.513-16.467,2.1-24.63,1.551-21.331,2.854-43.085,4.56-63.754,2.76-33.3,7.729-62.147,15.767-87.5,4.858-15.3,11.7-29.226,19.825-32.765,11.593-5.033,22.21,6.4,32.169,12.689.789.493,1.573.959,2.368,1.41,11.952,6.64,24.136,6.344,35.3-5.766,11.9-12.872,22.519-41.506,24.186-78.008" transform="translate(-106.191 -276.871)"/><path class="f" d="M129.85,687.959a523.1,523.1,0,0,1,23.606-67.969c3.864-9.037,8-17.708,12.747-23.7,9.5-12.012,20.139-11.815,30.182-6.908a62.655,62.655,0,0,1,8.143,4.906c11.334,8.291,22.226,20.1,32.434,35.162,10.114,14.888,19.5,33.738,30.585,47.174,9.937,12.068,20.5,23.3,31.368,28.112,9.286,4.075,19.146,2.538,27.388-8.713a52.219,52.219,0,0,0,4.284-7.05c8.364-16.284,12.825-41.986,15.6-68.449.878-8.459,1.59-16.918,2.208-25.194,1.656-21.811,3.18-44.058,5.162-65.136,3.2-34.02,8.772-63.091,17.423-88.412,4.9-14.324,11.593-27.549,19.438-31.144,11.212-5.132,21.586,4.737,31.264,9.559q1.143.571,2.3,1.057c11.593,4.864,23.225,2.82,33.676-10.264,11.157-13.887,20.885-42.366,22.138-77.782" transform="translate(-107.817 -278.437)"/><path class="f" d="M133.48,699.65a482.2,482.2,0,0,1,23.22-66.264c3.864-8.741,7.906-17.087,12.554-22.981,9.286-11.758,19.659-12.28,29.514-8.3a53.1,53.1,0,0,1,8.022,4.131c11.179,7.134,21.971,17.765,32.13,31.651,10.07,13.718,19.471,31.341,30.364,44.2,10.252,12.1,20.979,23.756,32.114,28.9,9.5,4.37,19.62,3.045,28.089-8.276a50.063,50.063,0,0,0,4.417-7.049c8.612-16.566,13.161-42.874,16.054-69.985.911-8.572,1.656-17.228,2.357-25.758,1.794-22.276,3.522-45,5.758-66.5,3.666-34.725,9.821-64.092,19.085-89.329,4.924-13.394,11.444-25.885,19.057-29.537,10.854-5.23,20.979,3.074,30.364,6.415.745.254,1.485.493,2.208.7,11.24,3.073,22.309-.775,32.086-14.775,10.412-14.888,19.245-43.2,20.09-77.542" transform="translate(-109.443 -280.019)"/><path class="f" d="M137.11,711.417a442.9,442.9,0,0,1,22.839-64.543c3.8-8.459,7.806-16.5,12.35-22.261,9.082-11.533,19.19-12.689,28.851-9.7a47.483,47.483,0,0,1,7.895,3.341c11.027,6,21.719,15.471,31.832,28.2,10.026,12.533,19.444,28.9,30.148,41.224,10.545,12.11,21.492,24.193,32.859,29.692,9.7,4.653,20.09,3.539,28.779-7.853a50.431,50.431,0,0,0,4.532-7.19c8.833-16.834,13.493-43.706,16.507-71.48.95-8.769,1.745-17.623,2.479-26.322,1.921-22.755,3.864-45.975,6.36-67.9,4.113-35.443,10.843-65.149,20.747-90.231,4.969-12.491,11.312-24.221,18.676-27.943,10.489-5.329,20.327,1.41,29.436,3.271.718.141,1.435.254,2.159.352,10.887,1.3,21.4-4.328,30.474-19.273,9.672-15.946,17.611-44.143,18.058-77.359" transform="translate(-111.069 -281.622)"/><path class="f" d="M140.73,723.14A408.452,408.452,0,0,1,163.188,660.3c3.749-8.149,7.729-15.875,12.145-21.529,8.877-11.279,18.715-13.239,28.189-11.109a40.912,40.912,0,0,1,7.773,2.552c10.871,4.859,21.464,13.152,31.534,24.687,9.981,11.377,19.411,26.477,29.933,38.249,10.843,12.125,21.983,24.644,33.6,30.481,9.9,4.948,20.559,4.046,29.475-7.416a50.4,50.4,0,0,0,4.648-7.275c9.1-17.1,13.829-44.622,16.965-72.974.988-8.967,1.822-18.018,2.606-26.9,2.043-23.22,4.179-46.934,6.962-69.266,4.555-36.163,11.842-66.264,22.408-91.134,4.941-11.617,11.179-22.558,18.284-26.336,10.136-5.428,19.7-.226,28.531.127h2.087c10.528-.479,20.487-7.9,28.868-23.784,8.927-16.918,15.977-44.89,16.01-77.105" transform="translate(-112.69 -283.208)"/><path class="f" d="M144.36,734.886c6.25-22.814,13.678-43.368,22.083-61.1a112,112,0,0,1,11.947-20.809c8.667-11.053,18.218-13.732,27.526-12.505a42.643,42.643,0,0,1,7.646,1.763c10.717,3.7,21.21,10.8,31.236,21.148,9.937,10.194,19.378,23.968,29.707,35.247,11.146,12.125,22.475,25.109,34.355,31.285,10.1,5.216,21.028,4.554,30.165-7.05A50.147,50.147,0,0,0,343.8,715.5c9.352-17.369,14.16-45.482,17.418-74.483,1.027-9.15,1.9-18.328,2.727-27.45,2.164-23.7,4.5-47.935,7.563-70.662,5-36.868,12.819-67.5,24.07-92.021,4.969-10.786,11.041-20.88,17.9-24.743,9.772-5.527,19.068-1.875,27.6-3.017.674-.085,1.347-.211,2.021-.352,10.169-2.256,19.576-11.448,27.261-28.282,8.182-17.905,14.354-45.75,13.94-76.88" transform="translate(-114.316 -284.831)"/><path class="f" d="M148,746.593c6.095-22.318,13.4-42.316,21.691-59.4a113.121,113.121,0,0,1,11.748-20.076C189.9,656.305,199.21,652.908,208.3,653.2a42.28,42.28,0,0,1,7.519.987c10.554,2.55,20.941,8.481,30.916,17.651,9.888,9.023,19.35,21.585,29.491,32.3,11.45,12.1,22.966,25.546,35.095,32.06,10.313,5.512,21.5,5.061,30.861-6.556a50.175,50.175,0,0,0,4.9-7.444c9.595-17.581,14.514-46.356,17.876-75.977,1.065-9.347,1.982-18.779,2.854-28.014,2.286-24.165,4.831-48.866,8.165-72.044,5.438-37.6,13.774-68.829,25.726-92.938,4.969-9.968,10.92-19.2,17.517-23.136,9.418-5.639,18.445-3.525,26.709-6.161.651-.211,1.3-.451,1.949-.7,9.816-4.046,18.665-15.015,25.649-32.793,7.442-18.892,12.7-46.525,11.892-76.654" transform="translate(-115.947 -286.401)"/><path class="f" d="M151.62,758.409c5.936-21.872,13.118-41.355,21.31-57.8a114.966,114.966,0,0,1,11.544-19.343c8.281-10.588,17.3-14.7,26.2-15.311a38.874,38.874,0,0,1,7.4.2c10.4,1.376,20.7,6.113,30.634,14.1,9.843,7.853,19.322,19.117,29.26,29.311,11.759,12.054,23.463,26,35.846,32.864,10.517,5.795,21.972,5.555,31.556-6.133a49.842,49.842,0,0,0,5.024-7.542c9.843-17.877,14.829-47.2,18.323-77.472,1.1-9.531,2.059-19.16,2.981-28.578,2.407-24.63,5.156-49.824,8.761-73.426,5.885-38.306,14.713-70.267,27.388-93.826,4.969-9.192,10.793-17.539,17.114-21.543,9.054-5.724,17.81-5.174,25.793-9.305.629-.324,1.259-.677,1.883-1.057,9.359-5.609,17.779-18.667,24.043-37.291,6.691-19.907,11.041-47.442,9.838-76.428" transform="translate(-117.568 -288.024)"/><path class="f" d="M155.25,770.033c5.787-21.329,12.847-40.211,20.923-55.957a117.684,117.684,0,0,1,11.345-18.638c8.049-10.334,16.827-15.213,25.539-16.693a39.765,39.765,0,0,1,7.271-.606c10.248.255,20.442,3.841,30.336,10.673,9.8,6.669,19.322,16.636,29.055,26.336,12.063,12,23.954,26.491,36.6,33.639,10.716,6.091,22.442,6.062,32.246-5.71a48.7,48.7,0,0,0,5.145-7.613c10.092-18.145,15.165-48.076,18.77-78.952,1.137-9.728,2.136-19.541,3.1-29.142,2.534-25.11,5.488-50.755,9.385-74.807,6.327-39.025,15.635-71.832,29.055-94.743,5.115-8.955,10.775-15.691,16.75-19.936,8.7-5.809,17.18-6.824,24.882-12.449.607-.437,1.209-.916,1.811-1.41,9.024-7.5,16.88-22.143,22.431-41.8,5.951-20.908,9.429-48.273,7.79-76.2" transform="translate(-119.194 -289.581)"/><path class="f" d="M158.87,781.772c5.637-20.838,12.577-39.166,20.542-54.252a121.794,121.794,0,0,1,11.146-17.905c7.8-9.774,16.228-15.9,24.876-18.1a44.285,44.285,0,0,1,7.149-1.41c10.091-.893,20.186,1.514,30.038,7.162,9.75,5.5,19.267,14.1,28.834,23.361,12.372,11.913,24.446,26.886,37.336,34.429,10.92,6.387,22.911,6.57,32.942-5.273a48.936,48.936,0,0,0,5.267-7.7c10.335-18.413,15.5-48.95,19.234-80.461,1.176-9.869,2.208-19.935,3.23-29.719,2.655-25.575,5.813-51.756,9.937-76.132,6.768-39.758,16.562-73.524,30.711-95.659,5.1-8,10.606-14.164,16.363-18.328,8.336-5.907,16.562-8.459,23.971-15.593.585-.564,1.17-1.142,1.745-1.762,8.7-9.414,16-25.642,20.852-46.342a255.446,255.446,0,0,0,5.742-75.977" transform="translate(-120.816 -291.183)"/><path class="f" d="M162.5,793.454c5.481-20.346,12.3-38.119,20.15-52.532,10.357-19.429,22.434-32.021,35.156-36.656a43.007,43.007,0,0,1,7.022-2.171,47.24,47.24,0,0,1,29.74,3.666c9.705,4.328,19.24,11.659,28.614,20.386,12.7,11.8,24.942,27.323,38.093,35.246,11.124,6.669,23.38,7.049,33.632-4.85a48.445,48.445,0,0,0,5.394-7.783c10.583-18.68,15.833-49.81,19.687-81.969,1.215-10.109,2.291-20.316,3.351-30.27,2.76-26.054,6.145-52.714,10.567-77.542,7.216-40.463,17.434-75.343,32.373-96.547a74.218,74.218,0,0,1,16.01-16.735c7.977-6.006,15.922-10.123,23.06-18.737.552-.677,1.1-1.41,1.656-2.115,8.34-11.321,15.064-29.086,19.212-50.755A272.753,272.753,0,0,0,489.9,298.34" transform="translate(-122.442 -292.729)"/><path class="f" d="M166.13,805.222c12.306-46.356,32.572-76.992,54.07-88.187s44.049-3.948,64.735,14.621c13,11.673,25.428,27.788,38.827,36.008s28.476,7.6,39.848-12.28c14.227-24.884,18.975-71.9,23.617-114.3,7.635-69.76,19.874-143.932,45.2-176.416,12.631-16.171,27.41-20.231,39.357-39.476,16.562-26.7,24.843-82.9,19.24-130.835" transform="translate(-124.068 -294.36)"/></g><g transform="translate(-145.873 -210.408)"><path class="f" d="M-264.23-32.192q15.883-38.84,33.5-72.622c5.212-9.982,10.666-19.738,16.943-24.264,16.043-11.448,32.384,14.62,44.64,43.339,11.329,26.495,21.385,56.334,29.955,88.892,8.474,32.229,15.624,67.5,26.808,93.8s28,41.957,41.8,25.674c8.209-9.686,14.144-29.367,17.4-50.91s4.1-44.96,4.3-68.054c.221-26.435-.237-54.336,4.709-77.542,5.123-23.968,16.043-39.18,26.726-37.079,15.209,3,26.416,35.669,37.491,62.443C34.1-14.527,51.244,13.924,70.45,20.043s40.583-14.606,49.62-58.368" transform="translate(264.23 156.373)"/><path class="f" d="M-262-25.089q15.6-38.193,33-71.1c5.14-9.728,10.528-19.245,16.694-23.643,12.394-8.826,24.97,4.5,35.713,23.968q4.337,7.893,8.331,16.918c11.265,25.282,21.31,53.9,29.922,85.254,8.5,31.045,15.679,65.276,26.786,90.753,6.227,14.3,13.995,25.716,22.083,30.9,7.044,4.512,14.381,4.23,21.039-3.355a37.041,37.041,0,0,0,3.434-4.653c6.774-10.743,11.676-28.451,14.657-47.555.942-6.123,1.728-12.4,2.352-18.779C-46.329,37.015-45.634,19.787-45.2,2.77c.707-26.942,1.065-54.7,6.41-77.683s15.795-37.615,26.234-35.684C2.308-107.862,13.36-76.845,24.264-51.665c.856,1.974,1.728,3.948,2.611,5.879C40.2-16.5,55.991,6.872,73.387,11.356c18.566,4.794,39.031-16.185,47.588-59.073" transform="translate(263.231 160.154)"/><path class="f" d="M-259.69-17.967a728.4,728.4,0,0,1,32.506-69.591c5.073-9.46,10.384-18.709,16.446-23.023,12.173-8.685,24.539,3.807,35.156,22.233q4.3,7.487,8.281,16.072c11.185,24.129,21.2,51.581,29.839,81.772,8.54,29.833,15.762,63.007,26.781,87.736,6.5,14.493,14.453,26.336,22.767,31.976,7.227,4.892,14.806,4.906,21.691-2.622a35.162,35.162,0,0,0,3.561-4.667c7.033-10.9,12.074-29.156,15.2-48.824.993-6.285,1.832-12.722,2.512-19.273,1.8-17.017,2.76-34.668,3.484-51.939,1.192-27.436,2.352-54.985,8.1-77.81,5.465-21.627,15.546-36.022,25.743-34.288,14.514,2.481,25.4,31.835,36.138,55.422q1.275,2.82,2.573,5.5C44.19-21.914,59.549-.555,76.365,2.688c17.9,3.454,37.48-17.778,45.557-59.806" transform="translate(262.196 163.929)"/><path class="f" d="M-257.41-9.2a670,670,0,0,1,32.02-68.082c5.007-9.192,10.246-18.145,16.2-22.4,11.952-8.544,24.109,3.13,34.6,20.57q4.25,7.07,8.2,15.226c11.12,22.925,21.128,49.161,29.812,78.149,8.579,28.7,15.833,60.821,26.753,84.733,6.746,14.761,14.906,27.041,23.446,33.132,7.409,5.273,15.237,5.639,22.342-1.875a33.883,33.883,0,0,0,3.688-4.709c7.293-11.025,12.466-29.833,15.762-50.078q1.556-9.666,2.672-19.738C-39.967,38.3-38.78,20.251-37.748,2.7c1.684-27.943,3.622-55.351,9.8-77.937C-22.351-95.7-12.618-109.71-2.68-108.145c14.166,2.213,24.909,29.917,35.465,51.9q1.248,2.594,2.528,5.132C48.182-25.669,63.121-6.3,79.3-4.309c17.241,2.115,35.934-19.371,43.525-60.539" transform="translate(261.175 166.034)"/><path class="f" d="M-255.14.495a616.088,616.088,0,0,1,31.507-66.574c4.941-8.938,10.1-17.595,15.949-21.782,11.731-8.459,23.678,2.425,34.052,18.878,2.838,4.483,5.559,9.376,8.132,14.409,11.047,21.728,21.034,46.763,29.745,74.567,8.629,27.52,15.949,58.523,26.786,81.673,7.006,15.015,15.353,27.718,24.12,34.26,7.585,5.639,15.662,6.344,22.994-1.128a33.01,33.01,0,0,0,3.815-4.737c7.558-11.18,12.858-30.538,16.314-51.333q1.632-9.934,2.838-20.274c2.1-17.835,3.522-36.276,4.858-54.11,2.164-28.451,4.869-55.647,11.5-78.064,5.7-19.259,15.055-32.85,24.76-31.482,13.8,1.946,24.407,28,34.78,48.386.817,1.607,1.656,3.2,2.484,4.751C52.135-28.52,66.655-11.179,82.212-10.432c16.562.79,34.383-20.95,41.493-61.244" transform="translate(260.158 167.25)"/><path class="f" d="M-252.87,10.164A567.5,567.5,0,0,1-221.86-54.9c4.869-8.671,9.937-17.031,15.7-21.148,11.511-8.262,23.242,1.748,33.5,17.2,2.81,4.23,5.521,8.826,8.06,13.577C-153.622-24.733-143.65-.9-134.9,25.714c8.667,26.336,16.071,56.225,26.781,78.642,7.276,15.241,15.828,28.381,24.8,35.373,7.768,6.034,16.093,7.049,23.645-.395a32.469,32.469,0,0,0,3.947-4.751c7.812-11.279,13.25-31.243,16.86-52.6q1.7-10.184,3-20.767c2.258-18.243,3.9-37.079,5.521-55.2C-27.7-22.912-24.22-49.91-17.12-72.172c5.775-18.1,14.806-31.271,24.291-30.086,13.47,1.692,23.9,26.1,34.118,44.89Q42.5-55.155,43.729-53c12.422,21.613,26.5,36.967,41.455,36.459,15.922-.536,32.831-22.558,39.462-62.034" transform="translate(259.141 168.465)"/><path class="f" d="M-250.6,19.827a522.588,522.588,0,0,1,30.513-63.542c4.8-8.459,9.827-16.481,15.458-20.542,11.29-8.135,22.811,1.043,32.947,15.508,2.76,3.934,5.454,8.262,7.994,12.689,10.909,19.365,20.863,42.02,29.646,67.476,8.706,25.166,16.181,53.913,26.759,75.568,7.563,15.508,16.28,29.1,25.494,36.558,7.95,6.387,16.518,7.754,24.291.338a32.179,32.179,0,0,0,4.069-4.794c8.077-11.462,13.636-31.933,17.418-53.857,1.2-7.049,2.208-14.1,3.158-21.275,2.413-18.638,4.29-37.869,6.238-56.267,3.114-29.466,7.309-56.225,14.906-78.318,5.83-16.918,14.558-29.607,23.778-28.677,13.123,1.41,23.4,24.179,33.444,41.365.789,1.41,1.59,2.693,2.4,3.99C60.1-34.241,73.8-20.9,88.1-22.722c15.259-1.861,31.28-24.109,37.43-62.7" transform="translate(258.125 169.686)"/><path class="f" d="M-248.33,29.513A480.4,480.4,0,0,1-218.314-32.52c4.737-8.149,9.683-15.946,15.2-19.921,11.074-7.994,22.381.352,32.39,13.831A139.434,139.434,0,0,1-162.787-26.7c10.841,18.142,20.781,39.573,29.6,63.824,8.745,23.968,16.3,51.6,26.77,72.594,7.823,15.678,16.711,29.706,26.157,37.629,8.132,6.767,16.949,8.459,24.953,1.086a31.211,31.211,0,0,0,4.2-4.822c8.336-11.6,14.023-32.638,17.97-55.126,1.253-7.162,2.341-14.479,3.312-21.768,2.578-19.047,4.715-38.672,6.923-57.353,3.6-29.974,8.507-56.521,16.6-78.43,5.874-15.9,14.321-28.113,23.3-27.295C29.763-95.189,39.888-74.1,49.759-58.5c.773,1.227,1.562,2.439,2.352,3.609C64.08-37.1,77.34-25.753,91.037-28.77c14.6-3.2,29.734-25.7,35.4-63.444" transform="translate(257.108 170.898)"/><path class="f" d="M-246,40.788a442.484,442.484,0,0,1,29.486-60.525c4.671-7.881,9.545-15.382,14.961-19.3,10.848-7.853,21.934-.268,31.832,12.153A133.736,133.736,0,0,1-161.859-15.8c10.781,16.947,20.715,37.176,29.585,60.243,8.783,22.84,16.419,49.345,26.77,69.577,8.066,15.889,17.136,30.368,26.781,38.743,8.309,7.148,17.374,9.178,25.6,1.819a30.21,30.21,0,0,0,4.323-4.836c8.6-11.758,14.414-33.329,18.522-56.394,1.308-7.331,2.446-14.818,3.489-22.262,2.722-19.456,5.068-39.476,7.607-58.439C-15.065-17.834-9.472-44.2-.882-65.84,5-80.671,13.185-92.373,21.913-91.725c12.449.832,22.419,20.246,32.114,34.344.767,1.1,1.535,2.171,2.313,3.229C68.082-38.277,80.924-28.944,94-33.215c13.94-4.526,28.183-27.281,33.367-64.135" transform="translate(256.064 170.508)"/><path class="f" d="M-243.78,53.324a406.862,406.862,0,0,1,29.017-59c4.6-7.613,9.385-14.832,14.713-18.681,10.627-7.712,21.5-.959,31.28,10.461a123.4,123.4,0,0,1,7.8,10.25c10.7,15.76,20.61,34.792,29.508,56.676,8.833,21.655,16.562,46.906,26.764,66.545,8.375,16.072,17.616,31.017,27.51,39.857,8.491,7.529,17.8,9.869,26.256,2.566a29.529,29.529,0,0,0,4.45-4.836c8.833-11.913,14.806-34.034,19.079-57.663,1.353-7.5,2.545-15.156,3.649-22.755,2.876-19.865,5.454-40.28,8.281-59.524,4.571-31.017,10.837-57.2,19.99-78.684,5.874-13.8,13.8-24.94,22.3-24.489,12.085.649,21.9,18.427,31.418,30.834.751.973,1.507,1.932,2.269,2.82C72.019-38.345,84.441-31.014,96.9-36.526c13.25-5.865,26.632-28.874,31.33-64.854" transform="translate(255.07 168.856)"/><path class="f" d="M-241.51,65.866A375.313,375.313,0,0,1-212.99,8.357c4.532-7.345,9.264-14.268,14.464-18.06,10.406-7.571,21.067-1.65,30.728,8.8a104.6,104.6,0,0,1,7.729,9.4c10.631,14.571,20.525,32.4,29.464,53.1,8.833,20.485,16.667,44.551,26.753,63.514,8.656,16.284,18.075,31.708,28.189,40.985,8.673,7.909,18.218,10.6,26.908,3.313a29.983,29.983,0,0,0,4.582-4.906c9.12-12.04,15.193-34.725,19.626-58.918,1.4-7.67,2.655-15.508,3.809-23.249,3.031-20.274,5.852-41.069,8.988-60.624C-6.688-9.773.224-35.87,9.935-57.1,15.8-69.9,23.51-80.464,31.753-80.182,43.49-79.8,53.151-63.672,62.5-52.873c.74.846,1.48,1.678,2.208,2.481C76-38.351,88-33.036,99.839-39.8c12.615-7.176,25.08-30.453,29.3-65.587" transform="translate(254.053 167.212)"/><path class="f" d="M-239.24,78.365c8.508-21.232,17.906-40.007,28.023-55.986C-206.751,15.33-202.1,8.661-197,4.939c10.186-7.444,20.636-2.34,30.171,7.049a98.591,98.591,0,0,1,7.663,8.586c10.566,13.4,20.447,30.058,29.42,49.613,8.894,19.259,16.8,42.127,26.748,60.441,8.944,16.453,18.527,32.427,28.868,42.1,8.833,8.29,18.66,11.279,27.559,4.046a29.66,29.66,0,0,0,4.709-4.92c9.385-12.2,15.585-35.43,20.178-60.187,1.457-7.839,2.76-15.833,3.975-23.742,3.185-20.7,6.238-41.873,9.678-61.7,5.548-31.99,13.09-58.016,23.38-78.952,5.83-11.843,13.332-21.768,21.321-21.684,11.395.113,20.9,14.606,30.077,23.8.723.733,1.452,1.41,2.181,2.1,11.063,10.137,22.657,13.464,33.869,5.442,11.958-8.459,23.535-32.046,27.267-66.263" transform="translate(253.036 165.598)"/><path class="f" d="M-237,90.91c8.322-20.826,17.565-39.108,27.543-54.477,4.417-6.824,8.982-13.182,13.967-16.834,9.97-7.289,20.206-3.017,29.618,5.428a91.8,91.8,0,0,1,7.6,7.754c10.493,12.167,20.357,27.594,29.37,45.933,8.943,18.131,16.937,39.786,26.748,57.466,9.247,16.622,18.975,33.033,29.547,43.212,9.026,8.671,19.079,12.026,28.205,4.793a29.063,29.063,0,0,0,4.836-4.949C-29.925,166.9-23.6,143.117-18.834,117.8c1.5-8.022,2.86-16.2,4.135-24.264,3.34-21.148,6.625-42.648,10.362-62.767C1.736-1.661,9.852-27.743,20.744-48.3c5.786-10.912,13.084-20.189,20.83-20.288,11.041-.141,20.4,12.689,29.4,20.3.707.592,1.424,1.17,2.136,1.706,10.843,8.219,22.005,9.531,32.605.254,11.3-9.869,21.983-33.625,25.235-67.025" transform="translate(252.033 163.95)"/><path class="f" d="M-234.69,103.43c8.131-20.4,17.206-38.186,27.024-52.969,4.334-6.556,8.833-12.618,13.719-16.2,9.75-7.162,19.775-3.708,29.066,3.736a90.867,90.867,0,0,1,7.53,6.922c10.422,10.973,20.27,25.2,29.32,42.366,8.977,16.947,17.081,37.39,26.77,54.421,9.49,16.791,19.4,33.71,30.2,44.34,9.209,9.051,19.51,12.689,28.862,5.541a28.943,28.943,0,0,0,4.969-4.991c9.9-12.477,16.363-36.811,21.288-62.7,1.557-8.191,2.965-16.538,4.3-24.757C-8.149,77.644-4.61,55.706-.6,35.291,5.94,2.329,14.674-23.81,26.173-43.886,31.909-53.91,39.009-62.5,46.511-62.778,57.21-63.187,66.386-52.007,75.219-46c.7.465,1.4.916,2.1,1.339,10.616,6.288,21.36,5.639,31.341-4.92,10.633-11.18,20.426-35.246,23.187-67.758" transform="translate(250.998 162.314)"/><path class="f" d="M-232.42,115.988c7.936-19.971,16.841-37.26,26.5-51.446,4.262-6.3,8.7-12.068,13.47-15.508,9.529-7.049,19.322-4.413,28.514,2.058a71.329,71.329,0,0,1,7.458,6.091c10.346,9.768,20.175,22.792,29.26,38.771,9.059,15.663,17.263,34.866,26.781,51.291,9.81,16.918,19.874,34.372,30.916,45.454,9.385,9.432,19.935,13.464,29.514,6.288a29.223,29.223,0,0,0,5.09-5.019c10.164-12.689,16.75-37.516,21.84-63.965,1.6-8.36,3.064-16.918,4.455-25.251,3.638-21.909,7.414-44.241,11.731-64.9C10.17,6.343,19.439-19.923,31.584-39.492c5.681-9.164,12.587-17.031,19.874-17.5,10.351-.663,19.394,8.868,28.051,13.267.685.352,1.369.677,2.054.959,10.39,4.385,20.714,1.678,30.077-10.08,9.97-12.52,18.881-36.811,21.172-68.477" transform="translate(249.981 160.683)"/><path class="f" d="M-230.15,128.487c7.758-19.562,16.514-36.363,26.03-49.951a64.61,64.61,0,0,1,13.25-14.959c9.308-6.88,18.914-5.09,27.957.381a66.123,66.123,0,0,1,7.4,5.259c10.28,8.588,20.1,20.429,29.226,35.247,9.026,14.578,17.34,32.511,26.7,48.316C-89.478,169.8-79.248,187.828-68,199.4c9.567,9.869,20.366,14.1,30.165,7.049a28.168,28.168,0,0,0,5.217-5.033C-22.2,188.646-15.506,163.2-10.228,136.185c1.656-8.459,3.169-17.214,4.621-25.744C-1.8,88.024,2.21,65.325,6.82,44.318,14.344,10.355,24.2-16.179,37-35.113,42.621-43.431,49.34-50.551,56.351-51.2c10-.931,18.892,6.936,27.377,9.742.668.226,1.341.423,2.015.592,10.164,2.453,20.062-2.242,28.807-15.269,9.313-13.831,17.335-38.39,19.14-69.2" transform="translate(248.964 159.04)"/><path class="f" d="M-227.87,141c7.569-19.147,16.164-35.453,25.528-48.429a64.941,64.941,0,0,1,12.974-14.338c9.087-6.739,18.483-5.795,27.4-1.311a71.012,71.012,0,0,1,7.331,4.427c10.207,7.368,20.01,17.993,29.177,31.623,9.093,13.422,17.512,30.129,26.731,45.341,10.406,17.172,20.785,35.669,32.257,47.71,9.75,10.165,20.791,14.874,30.816,7.754a28.02,28.02,0,0,0,5.344-5.075c10.688-12.9,17.534-38.9,22.944-66.489,1.706-8.7,3.274-17.553,4.786-26.237,3.958-22.727,8.2-45.849,13.117-67.109,8-34.471,18.411-61.357,31.871-79.558,5.565-7.529,12.1-13.859,18.864-14.691,9.656-1.184,18.389,5.033,26.7,6.246.657.1,1.314.155,1.971.2,9.937.55,19.416-6.161,27.543-20.429,8.651-15.17,15.784-39.984,17.114-69.929" transform="translate(247.943 157.413)"/><path class="f" d="M-225.6,153.565c7.383-18.736,15.82-34.555,25.031-46.934a66.4,66.4,0,0,1,12.7-13.718c8.866-6.6,18.053-6.485,26.853-2.989a52.867,52.867,0,0,1,7.26,3.609c10.146,6.148,19.945,15.566,29.16,28.028,9.131,12.252,17.666,27.7,26.726,42.3,10.71,17.271,21.238,36.36,32.936,48.823,9.937,10.546,21.221,15.593,31.468,8.459a28.1,28.1,0,0,0,5.471-5.1c10.948-13.055,17.926-39.6,23.5-67.758,1.756-8.868,3.373-17.891,4.969-26.787,4.107-23.122,8.59-46.624,13.8-68.181,8.5-34.964,19.433-62.33,33.571-79.685,5.521-6.753,11.847-12.266,18.373-13.281,9.313-1.41,17.887,3.1,26.03,2.721a12.793,12.793,0,0,0,1.927-.183c9.6-1.2,18.8-10.169,26.278-25.6,7.988-16.5,14.232-41.563,15.077-70.648" transform="translate(246.926 155.744)"/><path class="f" d="M-223.33,166.047c7.2-18.316,15.478-33.639,24.534-45.412a66.931,66.931,0,0,1,12.477-13.1c8.651-6.471,17.622-7.233,26.3-4.667a40.912,40.912,0,0,1,7.177,2.82c10.069,4.938,19.85,13.139,29.105,24.4,9.164,11.067,17.8,25.251,26.715,39.279,11.041,17.355,21.7,37.037,33.615,49.951,10.108,10.926,21.647,16.3,32.119,9.234a27.7,27.7,0,0,0,5.6-5.118c11.207-13.21,18.307-40.308,24.048-69.083,1.805-9.037,3.478-18.244,5.112-27.239,4.262-23.53,8.982-47.428,14.492-69.266C26.944,22.382,38.394-5.589,53.234-21.958c5.661-6.427,11.7-10.423,17.87-11.829,8.966-1.72,17.385,1.2,25.351-.79q.944-.226,1.888-.55c9.4-3.235,18.163-14.012,25.014-30.777,7.326-17.835,12.7-43.156,13.04-71.367" transform="translate(245.91 154.146)"/><path class="f" d="M-221.06,178.55c7.016-17.9,15.136-32.725,24.037-43.889a68.863,68.863,0,0,1,12.228-12.477c8.43-6.33,17.191-7.923,25.743-6.358a43.583,43.583,0,0,1,7.133,1.931c9.989,3.768,19.748,10.785,29.039,20.88,9.2,9.911,17.953,22.8,26.709,36.261,11.334,17.412,22.149,37.7,34.294,51.065,10.291,11.279,22.083,17.017,32.776,9.982a27.976,27.976,0,0,0,5.714-5.146c11.466-13.351,18.7-41.013,24.6-70.3,1.86-9.206,3.583-18.582,5.272-27.732C10.9,108.8,15.871,84.541,21.668,62.42,31.136,26.44,43.127-2.278,58.656-17.5c5.58-5.527,11.432-9.062,17.39-10.5,8.618-1.974,16.882-.7,24.677-4.23.618-.282,1.231-.606,1.844-.945,9.2-5.27,17.514-17.857,23.739-35.951,6.669-19.16,11.13-44.735,11.008-72.086" transform="translate(244.893 152.527)"/><path class="f" d="M-218.78,191.1c6.829-17.492,14.791-31.835,23.535-42.394a71.933,71.933,0,0,1,11.98-11.857c8.181-6.022,16.681-8.733,25.191-8.036a41.776,41.776,0,0,1,7.061,1.1c9.915,2.571,19.66,8.385,28.995,17.3,9.242,8.741,18.1,20.344,26.709,33.245,11.665,17.454,22.6,38.391,34.968,52.179,10.489,11.688,22.5,17.722,33.428,10.729a27.472,27.472,0,0,0,5.852-5.188c11.726-13.492,19.09-41.69,25.158-71.55,1.9-9.376,3.682-18.92,5.432-28.2C14.1,114.08,19.294,89.393,25.4,66.99,35.337,30.517,47.863.91,64.044-13.062A42.872,42.872,0,0,1,80.96-22.24c8.281-2.242,16.38-2.636,24-7.811.6-.409,1.2-.846,1.8-1.325,9-7.277,16.876-21.649,22.486-41.055,6.007-20.485,9.584-46.328,8.977-72.819" transform="translate(243.872 150.875)"/><path class="f" d="M-216.51,203.563c15.375-39.871,37.485-60.624,59.408-61.766s43.613,16.383,62.643,44.185c11.963,17.482,23.049,39.039,35.647,53.307s27.471,20.584,40.058,6.26C-3,227.63,4.985,183.586,12.554,144.039,24.992,78.9,42.239,11.583,69.467-8.691c13.564-10.095,28.387-7.275,41.5-20.711,18.18-18.638,30.275-70.1,28.155-119.838" transform="translate(242.855 149.24)"/></g><g transform="translate(-23.583 -106.727)"><path class="f" d="M-42.52,751.465c-2.319-47.935,16.209-88.441,34.9-95.871s37.436,7.923,55.958,17.778,39.351,13.1,54.82-14.705c19.775-35.542,24.346-110.307,44.717-143.693,15.855-26.012,36.5-18.23,52.739,1.128,9.186,10.94,17,29.353,25.776,42.183,39.821,58.157,42.509,177.022,76.334,194.744,36.6,19.216,56.477-26.392,63.388-57.959,8.833-40.505,23.623-145.639-12.554-218.7-14.7-29.678-29.21-61.314-40.019-100.4-16.192-58.5-16.082-147.951,4.621-196.295,14.188-33.132,35.978-45.256,45.617-87.736,6.476-28.55,5.592-65.361,0-95.151A239.108,239.108,0,0,0,337.993-75.7" transform="translate(42.717 75.7)"/><path class="f" d="M-40.919,752.551c-1.6-49.345,16.827-91.923,36.072-100.41C13.924,643.865,33,659.12,51.519,669.99c18.3,10.757,38.645,15.621,54.036-9.643,19.7-32.342,25.235-103.315,45.557-136.263,16.187-26.1,36.5-21.246,53.131-4.328,9.556,9.728,18.025,27.083,27.217,40.082,38.982,55.154,42.211,170.156,75.28,187.638,35.592,18.765,55.361-24.39,62.544-55.52,9.1-39.476,23.187-140.732-11-212.889-14.094-29.776-28.067-62.034-38.705-100.847-15.712-57.127-15.855-143.383,3.682-191.318,13.52-33.16,34.526-46.666,44.121-88.6,6.586-28.677,6.183-64.952,1.319-94.954A265.5,265.5,0,0,0,344.712-72.4" transform="translate(41.955 77.053)"/><path class="f" d="M-39.345,753.589C-40.228,702.9-21.9,658.212-2.1,648.682c18.886-9.08,38.253,6.02,56.775,17.933,18.086,11.632,37.888,18.131,53.258-4.61,19.615-29.127,26.085-96.42,46.412-128.8,16.49-26.294,36.519-24.306,53.517-9.784,9.937,8.459,19.046,24.8,28.663,37.982,38.093,52.277,41.869,163.276,74.225,180.462,34.565,18.328,54.213-22.375,61.672-53,9.346-38.376,22.762-135.882-9.429-207.249-13.5-29.9-26.935-62.725-37.4-101.327-15.237-55.732-15.629-138.843,2.76-186.313,12.847-33.118,33.058-47.992,42.614-89.371,6.7-28.789,6.774-64.572,2.606-94.771A293.09,293.09,0,0,0,351.4-69.12" transform="translate(41.22 78.397)"/><path class="f" d="M-37.8,754.621C-37.967,702.555-19.737,655.79.623,645.2c18.986-9.869,38.645,5.047,57.183,18.018,17.865,12.491,37.154,20.64,52.474.437,19.538-25.927,26.963-89.47,47.274-121.375,16.81-26.407,36.558-27.393,53.909-15.241,10.329,7.233,20.062,22.558,30.1,35.9,37.2,49.514,41.554,156.4,73.177,173.412,33.527,17.905,53.059-20.358,60.794-50.473,9.584-37.3,22.342-131.117-7.867-201.469-12.9-30.044-25.754-63.444-36.083-101.778-14.7-54.463-15.408-134.331,1.805-181.336,12.184-33.259,31.584-49.557,41.135-90.344,6.779-29,7.376-64.247,3.9-94.588A318.579,318.579,0,0,0,358.065-65.79" transform="translate(40.515 79.762)"/><path class="f" d="M-36.28,755.678C-35.728,702.23-17.6,653.407,3.325,641.761c19.074-10.63,39.053,4.06,57.586,18.075,17.666,13.351,36.436,23.164,51.7,5.484,19.455-22.713,27.835-82.5,48.129-113.931,17.114-26.533,36.613-30.523,54.3-20.7,10.732,5.964,21.084,20.274,31.545,33.836,36.271,46.878,41.239,149.53,72.128,166.279,32.495,17.5,51.894-18.328,59.921-47.936,9.816-36.233,21.928-126.436-6.3-195.73A855.687,855.687,0,0,1,337.547,384.9c-14.2-53.1-15.187-129.848.867-176.331,11.527-33.385,30.126-51.037,39.65-91.3,6.879-29.057,7.977-63.867,5.195-94.39A346.76,346.76,0,0,0,364.7-62.52" transform="translate(39.834 81.102)"/><path class="f" d="M-34.76,756.7c1.275-54.815,19.322-105.669,40.781-118.428,19.173-11.391,39.462,3.073,57.995,18.159,17.434,14.2,35.7,25.758,50.912,10.532,19.394-19.414,28.708-75.54,48.991-106.5,17.456-26.646,36.674-33.7,54.688-26.139,11.135,4.667,22.083,18.018,32.986,31.694,35.332,44.326,40.925,142.649,71.073,159.159,31.468,17.059,50.752-16.326,59.071-45.426,10.037-35.162,21.531-121.826-4.742-189.964a996.515,996.515,0,0,1-33.461-102.708c-13.708-51.742-14.972-125.478-.066-171.354,10.848-33.428,28.641-52.4,38.126-92.064,6.989-29.184,8.607-63.542,6.487-94.207A372.44,372.44,0,0,0,371.341-59.19" transform="translate(39.153 82.467)"/><path class="f" d="M-33.24,757.744c1.993-56.2,19.919-109.081,41.957-122.926,19.273-12.125,39.865,2.058,58.4,18.243,17.219,15.015,34.968,28.282,50.133,15.509,19.322-16.186,29.591-68.562,49.846-99.058,17.777-26.787,36.746-36.91,55.074-31.595,11.549,3.355,23.1,15.776,34.432,29.607,34.35,41.887,40.61,135.826,70.024,152.1,30.424,16.679,49.581-14.338,58.177-42.9,10.257-34.118,21.128-117.329-3.18-184.226-11.751-32.205-22.5-66.7-32.152-103.173-13.25-50.36-14.762-121.008-1-166.364,10.186-33.583,27.2-53.857,36.652-92.952,7.089-29.311,9.22-63.246,7.779-94.009A396.266,396.266,0,0,0,378-55.9" transform="translate(38.472 83.815)"/><path class="f" d="M-31.72,758.784C-29,701.219-11.183,646.32,11.413,631.347c19.378-12.844,40.3,1.043,58.812,18.328,17,15.847,34.228,30.819,49.349,20.626,19.234-12.971,30.469-61.6,50.707-91.641,18.1-26.872,36.823-40.181,55.466-37.051,11.958,2,24.1,13.549,35.884,27.492,33.334,39.476,40.3,128.9,68.975,144.933,29.392,16.2,48.416-12.308,57.3-40.379C398.4,640.6,408.665,560.741,386.3,495.183q-16.712-49.234-30.839-103.653c-12.731-48.992-14.558-116.651-1.943-161.358,9.523-33.738,25.743-55.28,35.161-93.812,6.778-28.1,9.948-60.9,9.065-93.826-.856-33.837-5.46-66.263-13.112-95.123" transform="translate(37.791 85.172)"/><path class="f" d="M-30.2,759.84c3.423-58.946,21.155-115.848,44.309-131.977,19.477-13.549,40.676,0,59.22,18.4,16.788,16.636,33.5,33.343,48.582,25.66,19.146-9.756,31.352-54.59,51.563-84.169,18.428-26.97,36.906-43.48,55.853-42.507,12.377.634,25.1,11.279,37.314,25.378,32.318,37.22,39.981,122.023,67.9,137.8,28.36,15.79,47.251-10.306,56.438-37.84,10.677-32.032,20.4-108.559-.055-172.736-9.937-31.243-20.007-67.109-29.525-104.1-12.245-47.625-14.354-112.338-2.882-156.367,8.833-33.935,24.291-56.719,33.676-94.7,6.9-28.023,10.5-60.526,10.362-93.629-.218-34.794-4.123-68.787-11.3-98.366" transform="translate(37.11 86.512)"/><path class="f" d="M-28.68,760.862C-24.528,700.548-6.9,641.659,16.8,624.416c19.582-14.254,41.085-1.029,59.623,18.483,16.562,17.426,32.765,35.852,47.787,30.707,19.068-6.542,32.235-47.611,52.446-76.738,18.77-27.069,36.989-46.821,56.245-47.935,12.791-.761,26.091,9.136,38.755,23.3,31.286,35.007,39.661,115.143,66.866,130.68,27.327,15.353,46.076-8.3,55.566-35.331,10.881-31.017,20.073-104.428,1.513-166.983-9.385-31.595-18.87-67.814-28.216-104.569-11.759-46.229-14.183-108.066-3.82-151.377,8.176-34.161,22.833-58.128,32.174-95.56,7.031-27.994,11.051-60.224,11.654-93.445.538-35.468-2.75-70.632-9.507-101.651" transform="translate(36.429 87.873)"/><path class="f" d="M-27.16,761.923c4.869-61.7,22.4-122.559,46.661-140.986,19.687-14.931,41.5-2.073,60.037,18.554,16.369,18.215,32.02,38.391,47.009,35.754,18.98-3.327,33.124-40.6,53.28-69.295,19.085-27.154,37.066-50.191,56.637-53.405,13.2-2.171,27.079,6.965,40.19,21.148,30.248,32.864,39.351,108.277,65.823,123.574,26.289,14.93,44.894-6.33,54.688-32.807,11.086-29.96,19.775-100.368,3.075-161.232-8.778-32.018-17.721-68.533-26.9-105.035-11.279-44.862-14.017-103.836-4.759-146.386,7.492-34.415,21.382-59.552,30.678-96.434A454.823,454.823,0,0,0,412.2,62.125c1.309-36.1-1.349-72.411-7.674-104.865" transform="translate(35.749 89.209)"/><path class="f" d="M-25.64,762.934c5.592-63.021,23.027-125.9,47.831-145.469C41.983,601.844,64.1,614.321,82.643,636.1c16.153,18.977,31.291,40.886,46.219,40.8,18.9-.127,34.007-33.611,54.141-61.865,19.416-27.238,37.138-53.575,57.023-58.847,13.62-3.609,28.073,4.808,41.637,19.1,29.193,30.777,39.031,101.4,64.769,116.44,25.263,14.508,43.713-4.328,53.816-30.27,11.279-28.945,19.521-96.406,4.643-155.493-8.176-32.427-16.562-69.238-25.594-105.5-10.8-43.466-13.868-99.649-5.7-141.395,6.8-34.7,19.93-60.976,29.188-97.28a492.572,492.572,0,0,0,14.238-93.051c2.076-36.727.044-74.2-5.863-108.108" transform="translate(35.068 90.594)"/><path class="f" d="M-24.12,764c6.31-64.459,23.656-129.228,49.013-150.009,19.874-16.284,42.327-4.23,60.86,18.723,15.944,19.738,30.557,43.4,45.441,45.835,18.814,3.087,34.891-26.59,55-54.407,19.748-27.323,37.215-57.029,57.415-64.318,14.028-5.062,29.05,2.679,43.061,17.017,28.128,28.733,38.705,94.658,63.714,109.32,24.219,14.211,42.509-2.369,52.949-27.746,11.466-27.944,19.322-92.557,6.2-149.755-7.547-32.962-15.458-69.943-24.291-105.965-10.324-42.07-13.741-95.49-6.625-136.39,6.073-35.007,18.478-62.386,27.692-98.169A536.881,536.881,0,0,0,421.84,75.259,494,494,0,0,0,417.788-36.12" transform="translate(34.387 91.922)"/><path class="f" d="M-22.6,765.013c7.028-65.826,24.291-132.526,50.188-154.478,20.007-16.918,42.741-5.315,61.28,18.793,15.739,20.5,29.812,45.919,44.657,50.9,18.732,6.274,35.78-19.583,55.858-46.976s37.281-60.469,57.8-69.774c14.436-6.528,30.032.592,44.519,14.916,27.051,26.787,38.391,87.792,62.671,102.215,23.187,13.774,41.333-.409,52.071-25.222,11.654-26.957,19.135-88.821,7.768-144-6.917-33.526-14.315-70.648-22.983-106.43-9.849-40.689-13.631-91.387-7.574-131.4,5.355-35.359,17.031-63.81,26.2-99.057a583.923,583.923,0,0,0,16.822-92.684A503.345,503.345,0,0,0,424.443-32.77" transform="translate(33.706 93.295)"/><path class="f" d="M-21.07,766.057c7.768-67.208,24.909-135.84,51.381-159.018,20.117-17.6,43.161-6.415,61.677,18.878,15.541,21.232,29.088,48.414,43.878,55.929,18.649,9.474,36.663-12.548,56.714-39.476,20.427-27.464,37.342-63.937,58.194-75.216,14.84-8.036,31-1.48,45.96,12.816,25.986,24.828,38.093,80.912,61.616,95.1,22.149,13.337,40.146,1.537,51.2-22.713,11.842-25.955,19.024-85.127,9.33-138.251-6.227-34.119-13.167-71.339-21.658-106.9-9.385-39.279-13.553-87.3-8.507-126.408,4.6-35.712,15.579-65.22,24.7-99.917,7.955-30.241,14.553-60.906,18.113-92.5a511.969,511.969,0,0,0-.42-117.85" transform="translate(33.021 94.648)"/><path class="f" d="M-19.55,767.118c8.463-68.576,25.539-139.125,52.535-163.544,20.228-18.244,43.613-7.529,62.086,18.963,15.336,21.951,28.354,50.924,43.094,60.976,18.566,12.689,37.541-5.526,57.575-32.1,20.747-27.535,37.4-67.419,58.58-80.672,15.243-9.531,31.976-3.5,47.406,10.715,24.9,22.967,37.756,74.032,60.562,87.975,21.117,12.914,38.948,3.482,50.326-20.175,12.024-24.983,18.975-81.546,10.9-132.527-5.521-34.767-12.035-72.03-20.349-107.347-8.91-37.883-13.5-83.182-9.446-121.417,3.826-36.092,14.133-66.644,23.187-100.791,8.071-30.354,15.254-60.624,19.411-92.3A519.213,519.213,0,0,0,437.7-26.21" transform="translate(32.34 95.984)"/><path class="f" d="M-18,768.144c9.164-69.943,26.157-142.4,53.694-168.027,20.338-18.906,44.011-8.671,62.494,19.019,15.143,22.685,27.6,53.434,42.316,66.024,18.483,15.847,38.446,1.508,58.431-24.659,21.083-27.577,37.452-70.916,58.972-86.115,15.635-11.053,32.936-5.484,48.847,8.614,23.816,21.148,37.441,67.152,59.513,80.856,20.079,12.477,37.75,5.4,49.454-17.652,12.2-24.038,18.98-77.993,12.455-126.76-4.742-35.458-10.9-72.735-19.03-107.826-8.447-36.473-13.476-79.149-10.39-116.426,3.02-36.473,12.7-68.04,21.718-101.651,8.182-30.467,15.955-60.243,20.7-92.12a525,525,0,0,0,3.2-124.321" transform="translate(31.646 97.341)"/><path class="f" d="M-16.51,769.175c9.9-71.325,26.814-145.68,54.887-172.5,20.427-19.541,44.441-9.8,62.9,19.1,14.944,23.4,26.9,55.844,41.532,71.071,18.423,18.935,39.34,8.53,59.292-17.214,21.42-27.647,37.5-74.441,59.358-91.641,16.01-12.576,33.9-7.4,50.288,6.528,22.734,19.315,37.143,60.145,58.464,73.736,19.057,11.941,36.552,7.317,48.582-15.128,12.377-23.094,19.063-74.454,14.023-121.022A961.711,961.711,0,0,0,415.1,413.821c-7.983-35.049-13.482-75.061-11.328-111.379,2.208-36.854,11.24-69.45,20.222-102.525,8.281-30.566,16.661-59.891,21.994-91.937C452.711,67.764,454.46,23.257,451-19.57" transform="translate(30.978 98.705)"/><path class="f" d="M-15,770.22C-4.373,697.5,12.454,621.268,41.068,593.17c20.565-20.175,44.878-10.94,63.311,19.188,14.757,24.109,26.168,58.368,40.754,76.132,18.34,22.149,40.229,15.579,60.175-9.77,21.757-27.69,37.541-77.951,59.75-97.027,16.413-14.1,34.847-9.276,51.729,4.413,21.641,17.567,36.823,53.279,57.415,66.63,18.025,11.519,35.332,9.206,47.71-12.6,12.554-22.163,19.217-70.874,15.585-115.284a804.273,804.273,0,0,0-16.407-108.743c-7.525-33.639-13.509-70.972-12.267-106.444,1.3-37.206,9.8-70.845,18.732-103.4,8.414-30.664,17.368-59.51,23.286-91.739,7.5-40.761,9.881-86.441,6.824-130.793" transform="translate(30.302 100.058)"/><path class="f" d="M-13.47,771.276c11.339-74.088,28.089-152.265,57.238-181.519,20.68-20.8,45.314-12.1,63.72,19.258,14.569,24.814,25.434,60.892,39.97,81.166,18.262,25.377,41.14,22.713,61.009-2.341,22.116-27.619,37.574-81.475,60.137-102.483,16.8-15.649,35.8-11.067,53.175,2.326,20.542,15.833,36.508,46.441,56.361,59.5,16.987,11.1,34.14,11.1,46.832-10.08s19.433-67.208,17.153-109.518a687.961,687.961,0,0,0-15.1-109.221c-7.072-32.215-13.564-66.813-13.205-101.44.392-37.544,8.38-72.213,17.236-104.329,8.557-30.721,18.08-59.214,24.578-91.556,8.274-41.292,11.295-88.149,8.64-134.035" transform="translate(29.616 101.398)"/><path class="f" d="M-11.95,772.332c12.057-75.5,28.746-155.381,58.414-186.1,20.807-21.345,45.755-13.267,64.128,19.343,14.354,25.519,24.705,63.444,39.2,86.2,18.18,28.564,42.023,29.72,61.865,5.1,22.447-27.69,37.6-85,60.529-107.939,17.18-17.186,36.729-12.759,54.611.24,19.471,14.1,36.194,39.476,55.312,52.377,15.96,10.672,32.936,12.956,45.965-7.557,12.9-20.316,19.7-63.443,18.71-103.78-.939-38.151-6.426-75.427-13.8-109.673-6.625-30.805-13.642-62.612-14.144-96.462-.552-37.812,6.928-73.623,15.745-105.133,8.668-30.848,18.77-58.749,25.87-91.359,9.05-41.8,12.71-89.829,10.462-137.25" transform="translate(28.936 102.767)"/><path class="f" d="M-10.43,773.334C2.35,696.5,18.946,614.655,49.16,582.806c20.918-22.036,46.2-14.437,64.537,19.428,14.2,26.209,23.971,65.911,38.418,91.2,18.1,31.764,42.907,36.727,62.726,12.548,22.773-27.788,37.629-88.539,60.915-113.4,17.561-18.751,37.668-14.366,56.057-1.875s35.884,32.666,54.257,45.27c14.906,10.236,31.733,14.818,45.093-5.033,13.078-19.428,20.035-59.4,20.277-98.027s-5.328-76.132-12.477-110.152c-6.167-29.367-13.741-58.312-15.083-91.458-1.535-38.066,5.477-75.047,14.249-106.007s19.5-58.354,27.162-91.176C475.109,91.806,479.4,42.605,477.548-6.36" transform="translate(28.255 104.12)"/></g><g transform="translate(199.037 -406.491)"><path class="f" d="M374.591,1123.345c-16.087-25.378-16.844-87.679-7.409-129.538s25.875-69.563,40.483-100.241,28.652-70.126,29.856-118.33c1.546-61.625-18.411-117.582-15.855-179.052,1.993-47.85,17.3-84.07,33.389-104.329,9.093-11.434,19.6-15.438,29.022-24.884,42.719-42.7,80.679,26.421,107.283-29.734,28.8-60.878,27.333-129.016,22.011-162.585-6.818-43.015-29.652-138.265-74.618-112.027-18.262,10.659-36.989,19.738-55.709,16.763-28-4.5-55.229-60.779-57.018-132.259-1.2-48.993,8.739-99.959,1.8-145.751-4.654-30.791-16.446-52.052-29.022-59.651s-25.842-3.031-38.275,5.978" transform="translate(-360.53 340.047)"/><path class="f" d="M377.01,1124.773c-16.054-27.7-17.512-91.091-8.044-134.712,9.247-42.578,25.837-70.944,40.759-101,14.746-29.692,28.961-67.081,30.916-113.607,2.468-59.468-15.723-114.96-13.045-176.035,2.175-48.57,16.38-86,31.965-108.475,8.955-12.928,19.554-18.906,29.26-29.071,41.251-43.029,78.36,22.628,104.429-32.286,28.023-59.087,27.234-125.477,22.237-159.314-6.338-42.832-28.426-134.317-71.885-111.534-17.893,9.4-36.475,17.073-55.008,13.915-27.289-4.512-53.694-58.284-56.079-127.169-1.656-47.681,7.381-97.957.6-143.326-4.621-31.017-15.949-53-28.155-62.118-12.317-9.192-25.528-6.951-38.126.352" transform="translate(-361.673 338.45)"/><path class="f" d="M378.951,1126.422c-16.01-30-18.185-94.46-8.684-139.871,9.059-43.283,25.8-72.368,41.041-101.778,14.878-28.7,29.26-64.049,31.959-108.883,3.4-57.3-13.084-112.337-10.241-173.088,2.313-49.345,15.458-87.919,30.546-112.662,8.833-14.465,19.5-22.375,29.552-33.244,39.826-43.113,76.064,18.948,101.581-34.668,27.25-57.3,27.134-121.925,22.458-155.944-5.852-42.634-27.211-130.44-69.146-111.041-17.578,8.121-36.017,14.31-54.351,10.955-26.554-4.6-52.17-55.873-55.146-122.193-2.081-46.384,6.073-95.955-.6-140.9-4.588-31.369-15.458-53.941-27.289-64.572-12.068-10.842-25.207-10.9-37.982-5.287" transform="translate(-362.356 336.631)"/><path class="f" d="M380.868,1128.269c-16.01-32.286-18.848-97.858-9.319-145.032,8.883-43.959,25.754-73.763,41.317-102.525,15.005-27.76,29.58-61.018,33.014-104.174C450.2,721.4,435.462,666.808,438.448,606.4c2.473-50.008,14.547-89.921,29.122-116.849,8.678-16.03,19.449-25.829,29.812-37.432,38.418-43.029,73.767,15.269,98.765-37.023,26.472-55.52,27.051-118.428,22.684-152.646-5.383-42.437-26.019-126.605-66.419-110.547-17.247,6.852-35.509,11.476-53.667,8.064-25.826-4.864-50.652-53.5-54.213-117.2-2.517-45.116,4.659-93.925-1.8-138.476-4.588-31.623-14.978-54.985-26.422-67.025-11.82-12.505-24.893-14.846-37.833-10.926" transform="translate(-363.019 334.601)"/><path class="f" d="M382.8,1130.348c-15.966-34.584-19.51-101.242-9.937-150.193,8.706-44.635,25.71-75.2,41.6-103.3,15.132-26.787,29.889-57.988,34.057-99.451,5.256-52.969-7.729-107.149-4.621-167.181,2.639-50.755,13.625-92.007,27.708-121.05,8.54-17.623,19.389-29.255,30.071-41.619,37.027-42.831,71.476,11.589,95.938-39.392,25.693-53.716,26.924-114.8,22.911-149.318C615.611,216.618,595.681,136,556.838,148.775c-16.932,5.639-35.012,8.741-53,5.16-25.1-4.991-49.134-51.121-53.269-112.211-2.965-43.818,3.312-91.895-3-136.037-4.56-31.905-14.5-55.9-25.555-69.478-11.593-14.2-24.578-18.779-37.69-16.566" transform="translate(-363.691 332.353)"/><path class="f" d="M384.7,1132.566c-15.933-36.882-20.161-104.611-10.594-155.352,8.54-45.313,25.66-76.626,41.874-104.076,15.259-25.8,30.231-54.914,35.112-94.743,6.222-50.755-5.068-104.471-1.811-164.22,2.8-51.446,12.7-94.122,26.284-125.238,8.4-19.231,19.322-32.681,30.364-45.806,35.653-42.507,69.18,7.909,93.106-41.76,24.915-51.925,26.814-111.238,23.132-145.991-4.417-42.014-23.7-119.161-60.948-109.588-16.628,4.23-34.515,6.006-52.314,2.256C484.533,142.93,461.253,99.281,456.571,40.9c-3.412-42.564,1.954-89.893-4.207-133.612-4.532-32.2-14.006-56.93-24.683-71.9-11.334-15.931-24.263-22.727-37.541-22.205" transform="translate(-364.343 329.909)"/><path class="f" d="M386.61,1135.056c-15.905-39.179-20.818-107.981-11.235-160.526,8.375-45.962,25.6-78.064,42.156-104.823,15.37-24.855,30.54-51.882,36.16-90.033,7.177-48.584-2.39-101.848.994-161.274,2.976-52.165,11.759-96.279,24.843-129.425,8.281-20.88,19.284-36.093,30.6-49.979,34.289-42.113,66.883,4.229,90.274-44.129,24.142-50.149,26.7-107.671,23.358-142.692-3.986-41.774-22.569-115.608-58.216-109.081a131.007,131.007,0,0,1-51.635-.648C490.26,137.2,467.731,96,462.514,40.23c-3.865-41.323.6-87.891-5.41-131.2-4.5-32.427-13.526-57.973-23.816-74.37-11.091-17.68-23.943-26.675-37.4-27.859" transform="translate(-364.991 327.306)"/><path class="f" d="M388.545,1137.482C372.673,1096.017,367.086,1026.1,376.67,971.8c8.226-46.624,25.555-79.516,42.443-105.6,15.485-23.968,30.849-48.838,37.209-85.311,8.088-46.4.293-99.226,3.8-158.327,3.141-52.856,10.81-98.465,23.441-133.612,8.1-22.558,19.234-39.476,30.866-54.167,32.942-41.6,64.592.55,87.442-46.525,23.364-48.358,26.582-104.09,23.584-139.365-3.533-41.549-21.95-123.645-55.488-108.559-15.817,7.049-33.516.522-50.95-3.553-22.927-5.343-44.718-44.1-50.465-97.21-4.334-40.1-.745-85.889-6.625-128.777-4.33-31.09-12.356-57.949-22.955-76.823-10.843-19.456-23.623-30.608-37.248-33.5" transform="translate(-365.651 324.711)"/><path class="f" d="M390.408,1139.916c-15.844-43.706-22.083-114.693-12.515-170.861,8.071-47.216,25.495-80.954,42.747-106.346,15.6-22.995,31.164-45.807,38.264-80.6,9.015-44.227,2.976-96.617,6.625-155.366,3.312-53.575,9.849-100.706,22.022-137.814a191.32,191.32,0,0,1,31.126-58.354c31.606-41.012,62.29-3.13,84.61-48.866C625.87,335.182,629.74,281.212,627.09,245.67c-3.08-41.323-20.78-121.248-52.75-108.122-15.579,6.387-33.019-2.2-50.271-6.443-22.2-5.456-43.288-41.788-49.532-92.233C469.729,0,472.445-45,466.731-87.466c-4.228-31.292-11.894-58.813-22.083-79.276-10.755-21.373-23.578-34.9-37.1-39.138" transform="translate(-366.277 322.109)"/><path class="f" d="M392.286,1142.35c-15.806-46.046-22.734-118.019-13.15-176.007,7.922-47.935,25.428-82.434,43-107.149,15.706-22.079,31.468-42.761,39.307-75.879,9.937-42.056,5.664-94,9.424-152.42,3.489-54.293,8.883-102.92,20.6-142a197.175,197.175,0,0,1,31.391-62.541c30.286-40.35,59.993-6.8,81.778-51.22,21.807-44.777,26.334-96.914,24.031-132.738-2.639-41.069-19.593-118.668-50.017-107.629-15.37,5.639-32.517-4.934-49.592-9.347-21.481-5.555-41.869-39.476-48.582-87.228-5.305-37.671-3.439-81.87-9.01-123.912-4.133-31.552-11.453-59.759-21.221-81.772-10.479-23.294-23.263-38.784-36.955-44.777" transform="translate(-366.902 319.49)"/><path class="f" d="M394.167,1144.752c-15.778-48.344-23.369-121.361-13.8-181.181,7.773-48.541,25.362-83.9,43.277-107.882,15.811-21.148,31.783-39.7,40.362-71.156,10.876-39.871,8.358-91.359,12.234-149.445,3.666-54.984,7.9-105.218,19.179-146.188,7.613-27.647,19.091-49.542,31.656-66.728,28.978-39.617,57.7-10.475,78.946-53.575,21.034-42.987,26.2-93.319,24.252-129.411C628.062,198.3,611.886,123.2,582.991,132.036c-15.2,4.653-32.02-7.655-48.913-12.252-20.758-5.64-40.472-37.15-47.66-82.237C480.61,1.074,481.637-42.322,476.21-83.941c-4.389-33.625-11.549-62.429-20.355-84.2-10.2-25.211-22.945-42.665-36.812-50.4" transform="translate(-367.525 316.92)"/><path class="f" d="M396.044,1147.188c-15.745-50.642-23.993-124.7-14.426-186.341,7.63-49.176,25.3-85.4,43.558-108.644,15.916-20.274,32.086-36.656,41.405-66.446,11.8-37.7,11.041-88.737,15.038-146.527,3.865-55.7,6.912-107.5,17.76-150.376,7.431-29.367,19.057-52.856,31.921-70.9,27.681-38.827,55.4-14.1,76.119-55.971,20.25-41.2,26.058-89.724,24.473-126.084-1.767-40.59-17.2-99.254-44.552-106.656-15.027-4.075-31.518-10.377-48.229-15.156-20.035-5.738-39.1-34.824-46.721-77.232-6.338-35.247-6.128-77.867-11.417-119.063-4.35-33.907-11.041-63.585-19.482-86.65-9.907-27.137-22.617-46.565-36.663-56.042" transform="translate(-368.148 314.313)"/><path class="f" d="M397.92,1149.618C382.2,1096.678,373.3,1021.589,382.854,958.1c7.492-49.811,25.224-86.89,43.84-109.405,16.01-19.371,32.39-33.639,42.46-61.724,12.7-35.529,13.741-86.114,17.848-143.566,4.03-56.394,5.907-109.8,16.341-154.577,7.243-31.1,19.019-56.154,32.18-75.089,26.394-38.066,53.137-17.736,73.287-58.34,19.5-39.293,25.92-86.128,24.7-122.771-1.347-40.322-16.159-96.392-41.819-106.162-14.79-5.64-31.021-13.084-47.549-18.06-19.322-5.809-37.756-32.427-45.789-72.241C491.479,2.134,490.882-39.7,485.737-80.456c-4.317-34.2-10.522-64.769-18.616-89.1-9.612-29.06-22.286-50.467-36.519-61.681" transform="translate(-368.765 311.715)"/><path class="f" d="M399.782,1152.047c-15.684-55.224-25.235-131.356-15.706-196.675,7.365-50.445,25.158-88.412,44.121-110.181,16.115-18.5,32.7-30.594,43.508-57.015,13.653-33.343,16.441-83.478,20.658-140.6s4.9-112.1,14.906-158.764c7.05-32.836,18.991-59.412,32.445-79.276,25.119-37.093,50.84-21.416,70.455-60.624,18.726-37.516,25.771-82.547,24.92-119.457-.922-40.082-15.116-93.727-39.081-105.74-14.558-7.247-30.524-15.776-46.876-20.95-18.583-5.879-36.437-30.115-44.85-67.25-7.431-32.807-8.806-73.863-13.8-114.2-4.284-34.5-10-65.939-17.749-91.556-9.312-30.977-21.951-54.371-36.376-67.335" transform="translate(-369.374 309.116)"/><path class="f" d="M401.649,1154.551c-15.657-57.522-25.848-134.684-16.347-201.835,7.232-51.079,25.08-89.949,44.4-110.942,16.214-17.638,33-27.563,44.557-52.306,14.575-31.186,19.14-80.841,23.468-137.658,4.417-57.8,3.864-114.382,13.5-162.951,6.846-34.57,18.975-62.64,32.7-83.464,23.86-36.163,48.549-25.1,67.628-63.063,17.948-35.726,25.621-78.952,25.147-116.13-.508-39.843-14.067-91.2-36.354-105.19-14.315-9.065-30.021-18.554-46.191-23.939-17.865-5.936-35.134-27.7-43.912-62.245-8.016-31.539-10.147-71.9-15.016-111.774-4.251-34.781-9.468-67.123-16.882-94.009-9.005-32.887-21.606-58.269-36.227-72.974" transform="translate(-369.983 306.514)"/><path class="f" d="M403.506,1156.9c-15.624-59.806-26.455-138-16.982-207,7.1-51.7,25.009-91.472,44.679-111.7,16.314-16.777,33.306-24.531,45.612-47.582,15.5-29.029,21.84-78.219,26.273-134.7,4.6-58.551,2.854-116.694,12.079-167.153,6.625-36.3,18.964-65.841,32.969-87.638,22.635-35.246,46.252-28.789,64.8-65.445,17.169-33.935,25.461-75.343,25.4-112.789-.1-39.575-13.007-88.821-33.621-104.7-14.067-10.814-29.525-21.148-45.512-26.787-17.114-5.992-33.858-25.279-42.979-57.254-8.64-30.27-11.505-69.887-16.236-109.349-4.212-35.077-8.932-68.322-16.01-96.463-8.694-34.8-21.258-62.17-36.083-78.614" transform="translate(-370.586 303.915)"/><path class="f" d="M405.369,1159.326c-15.6-62.1-27.051-141.324-17.622-212.156,6.973-52.32,24.931-93.051,44.96-112.478,16.407-15.918,33.61-21.5,46.661-42.86,16.418-26.872,24.545-75.583,29.083-131.751,4.786-59.214,1.816-118.978,10.655-171.34,6.426-38.066,18.964-69,33.234-91.824,21.371-34.189,43.95-32.427,61.964-67.8,16.391-32.159,25.3-71.762,25.594-109.5.309-39.335-11.908-86.65-30.883-104.217-13.8-12.773-29.028-23.855-44.833-29.607-16.418-6.091-32.6-22.826-42.018-52.32C512.9,4.609,509.323-34.4,504.719-73.441c-4.168-35.373-8.386-69.506-15.143-98.916-8.38-36.695-20.908-66.064-35.94-84.253" transform="translate(-371.19 301.317)"/><path class="f" d="M407.221,1161.755c-15.568-64.4-27.664-144.624-18.262-217.33C395.81,891.485,413.8,849.838,434.2,831.2c16.507-15.1,33.908-18.5,47.71-38.151,17.318-24.8,27.25-72.946,31.887-128.8,4.969-59.947.778-121.248,9.242-175.528,6.205-39.772,18.975-72.114,33.494-96.011,20.139-33.146,41.626-36.233,59.132-70.169,15.59-30.453,25.136-68.138,25.826-106.2.707-39.109-10.776-84.592-28.155-103.737-14.119-15.607-28.961-26.547-44.165-32.554-15.684-6.1-31.341-20.2-41.09-47.244-9.882-27.422-14.15-65.883-18.621-104.485-4.129-35.669-7.839-70.69-14.276-101.369-8.061-38.584-20.55-69.95-35.791-89.893" transform="translate(-371.784 298.718)"/><path class="f" d="M409.078,1164.208c-15.535-66.7-28.26-147.95-18.9-222.49,6.724-53.574,24.771-96.18,45.518-114,16.6-14.268,34.228-15.508,48.759-33.427,18.251-22.628,29.961-70.324,34.7-125.858,5.178-60.624-.276-123.546,7.817-179.714,5.973-41.507,19.013-75.2,33.754-100.2,18.919-32.074,39.329-39.913,56.311-72.537C631.848,287.319,642,251.4,643.083,213.061c1.1-38.87-9.589-82.646-25.4-103.23-13.682-17.51-28.347-29.477-43.47-35.472-14.983-6.1-30.121-17.567-40.169-42.3C523.5,6.15,518.591-31.831,514.224-70c-4.085-35.966-7.282-71.9-13.41-103.822-7.744-40.464-20.194-73.83-35.647-95.532" transform="translate(-372.382 296.095)"/><path class="f" d="M410.917,1166.618c-15.508-68.985-28.857-151.265-19.538-227.665C398,884.773,416.073,841.18,437.2,824.191c16.695-13.436,34.515-12.477,49.808-28.7,19.179-20.471,32.71-67.673,37.508-122.9,5.427-61.329-1.325-125.83,6.4-183.916,5.753-43.24,19.052-78.177,34.024-104.33,17.71-31.017,37.033-43.607,53.468-74.906a236.578,236.578,0,0,0,26.245-99.592c1.463-38.475-8.342-80.785-22.685-102.75-12.7-19.5-27.543-31.835-42.791-38.376-14.265-6.1-28.89-14.846-39.224-37.277C528.739,7.15,523.163-30.465,518.929-68.179c-4.019-36.29-6.724-73.045-12.548-106.275-7.415-42.35-19.826-77.726-35.5-101.186" transform="translate(-372.968 293.517)"/><path class="f" d="M412.772,1169.034c-15.458-71.282-29.4-154.548-20.178-232.824,6.525-54.787,24.622-99.38,46.081-115.524,16.8-12.688,34.824-9.46,50.862-23.968,20.106-18.328,35.4-65.023,40.3-119.937,5.609-62.033-2.385-128.1,4.969-188.1C540.328,443.7,553.925,407.57,569.1,380.12c16.518-29.889,34.736-47.273,50.636-77.275a229.278,229.278,0,0,0,26.5-96.223c1.877-38.419-7.006-78.952-19.952-102.271-12.234-22.036-27.051-34.457-42.112-41.266-13.548-6.119-27.653-12.068-38.3-32.286-11.886-22.558-18.13-59.9-22.221-97.2-3.986-36.572-6.161-74.215-11.682-108.742-7.087-44.2-19.45-81.58-35.332-106.811" transform="translate(-373.57 290.931)"/><path class="f" d="M414.6,1171.476c-15.458-73.581-30.027-157.9-20.818-238,6.376-55.435,24.545-101,46.374-116.285,16.893-11.843,35.134-6.414,51.894-19.287,21.034-16.129,38.093-62.386,43.122-117.018,5.791-62.739-3.445-130.356,3.561-192.291,5.278-46.694,19.212-83.971,34.548-112.789s32.434-50.882,47.809-79.573c12.477-23.291,24.4-53.885,26.715-92.91,2.263-38.207-5.576-77.077-17.213-101.778s-26.532-37.065-41.438-44.171c-12.83-6.119-26.411-9.178-37.364-27.281C539.224,9.344,532.312-27.82,528.365-64.674s-5.6-75.371-10.815-111.2c-6.766-46.074-19.1-85.457-35.205-112.45" transform="translate(-374.139 288.32)"/></g></g></g></g></g></svg>