<svg xmlns="http://www.w3.org/2000/svg" width="22.355" height="9.062" viewBox="0 0 22.355 9.062"><defs><style>.a{fill:#f18f20;}</style></defs><g transform="translate(-396.578 825.563) rotate(-90)"><path class="a" d="M0,8.562a.5.5,0,0,1-.373-.167.5.5,0,0,1,.039-.706L3.713,4.067-.337.369A.5.5,0,0,1-.369-.337.5.5,0,0,1,.337-.369L4.8,3.7a.5.5,0,0,1,0,.742L.333,8.434A.5.5,0,0,1,0,8.562Z" transform="translate(825.063 413.974) rotate(90)"/><path class="a" d="M0,21.126V0" transform="translate(821.032 397.078)"/><path class="a" d="M0,21.626a.5.5,0,0,1-.5-.5V0A.5.5,0,0,1,0-.5.5.5,0,0,1,.5,0V21.126A.5.5,0,0,1,0,21.626Z" transform="translate(821.032 397.078)"/></g></svg>