<svg xmlns="http://www.w3.org/2000/svg" width="80.006" height="80" viewBox="0 0 80.006 80"><defs><style>.a{fill:#f18f20;}</style></defs><g transform="translate(0)"><path class="a" d="M136.691,155.021a18.981,18.981,0,0,1-12.931-5.073,1.189,1.189,0,0,1-.2-.191,19.01,19.01,0,0,1-5.886-12.687h-3.812a19.058,19.058,0,1,1-20.133-20.129l-.018-3.812a18.976,18.976,0,0,1-11.827-5.039,1.188,1.188,0,0,1-.2-.191,19.058,19.058,0,1,1,26.267,0,.993.993,0,0,1-.2.193,18.976,18.976,0,0,1-11.816,5.044l.018,3.812a18.965,18.965,0,0,1,11.555,4.782l14.965-14.965a19.058,19.058,0,1,1,27.362,1.128,1.052,1.052,0,0,1-.2.193,19.021,19.021,0,0,1-25.589.246L109.066,123.3a18.978,18.978,0,0,1,4.793,11.557h3.812a19.058,19.058,0,1,1,32.153,14.892,1.188,1.188,0,0,1-.2.191A18.979,18.979,0,0,1,136.691,155.021Zm-11.023-6.34a16.8,16.8,0,0,0,22.026,0,11.623,11.623,0,0,0-22.026,0Zm-30.83-29.56a16.842,16.842,0,1,0,16.842,16.842A16.842,16.842,0,0,0,94.839,119.12Zm41.853,0a16.829,16.829,0,0,0-12.729,27.845,13.877,13.877,0,0,1,8.113-7.612,8.217,8.217,0,1,1,9.23,0,13.877,13.877,0,0,1,8.113,7.612,16.827,16.827,0,0,0-12.727-27.845Zm0,7.435a6,6,0,1,0,6,6A6,6,0,0,0,136.691,126.555Zm-11.014-19.723a16.807,16.807,0,0,0,22.026,0,11.623,11.623,0,0,0-22.026,0Zm-41.884,0a16.767,16.767,0,0,0,11.014,4.111h0a16.776,16.776,0,0,0,11.014-4.111,11.49,11.49,0,0,0-11.014-7.907,11.645,11.645,0,0,0-11.009,7.9Zm11.014-29.56a16.829,16.829,0,0,0-12.725,27.843A13.877,13.877,0,0,1,90.2,97.5a8.217,8.217,0,1,1,9.257-.018,13.6,13.6,0,0,1,8.091,7.623A16.827,16.827,0,0,0,94.812,77.27Zm41.884,0a16.827,16.827,0,0,0-12.729,27.841,13.879,13.879,0,0,1,8.113-7.61,8.217,8.217,0,1,1,9.23,0,13.879,13.879,0,0,1,8.113,7.61A16.827,16.827,0,0,0,136.691,77.27Zm0,7.435a6,6,0,1,0,6,6,6,6,0,0,0-6-6Zm-41.884,0a6,6,0,1,0,6,6,6,6,0,0,0-6-6Zm-2.407,58.6a1.108,1.108,0,0,1-.784-.326l-7.61-7.612a1.108,1.108,0,1,1,1.567-1.567l6.83,6.828,11.708-11.705a1.108,1.108,0,1,1,1.567,1.567l-12.49,12.49A1.108,1.108,0,0,1,92.4,143.311Z" transform="translate(-75.752 -75.026)"/></g></svg>