<svg xmlns="http://www.w3.org/2000/svg" width="83.672" height="80" viewBox="0 0 83.672 80"><defs><style>.a{fill:#f18f20;}</style></defs><g transform="translate(0)"><path class="a" d="M49.995,80a4.92,4.92,0,0,1-3.486-1.444l-3.217-3.215a4.848,4.848,0,0,1-.965,1.362l-1.4,1.4a4.939,4.939,0,0,1-8.411-3.161,4.934,4.934,0,0,1-6.353-4.173,4.937,4.937,0,0,1-6.222-6.357A4.937,4.937,0,0,1,16.753,56.3L8.809,44.819.438,37.849a1.168,1.168,0,0,1-.154-1.635L16.106,17.156a1.168,1.168,0,0,1,1.507-.25L27,22.623l11.43,2.843,6.839-2.507a1.168,1.168,0,0,1,.4-.07l13.394-.021h0a1.427,1.427,0,0,1,.2.016L68,17.324a1.168,1.168,0,0,1,1.535.252L83.435,34.8a1.168,1.168,0,0,1-.175,1.635L75.366,42.8a1.217,1.217,0,0,1-.086.5l-5.3,12.9a4.937,4.937,0,0,1-4.439,7.8c0,.14.016.283.016.425a4.934,4.934,0,0,1-5.348,4.92c.012.136.016.273.016.414A4.937,4.937,0,0,1,55.287,74.7a3.311,3.311,0,0,1-.374-.014,4.93,4.93,0,0,1-4.923,5.306Zm-6.29-7.542L48.144,76.9a2.6,2.6,0,0,0,3.972-3.346c-.11-.091-.215-.189-.315-.29l-4.614-4.614a1.168,1.168,0,0,1,0-1.652l.016-.016.021-.021a1.168,1.168,0,0,1,1.652,0l4.614,4.614c.1.1.2.206.29.313a2.6,2.6,0,0,0,3.353-3.955l-8.474-8.474A1.168,1.168,0,1,1,50.31,57.8l8.474,8.474a2.6,2.6,0,0,0,4.439-1.841,2.57,2.57,0,0,0-.762-1.839L50.985,51.12a1.168,1.168,0,0,1,0-1.652h0a1.168,1.168,0,0,1,1.652,0L64.116,60.944a2.6,2.6,0,0,0,3.694-3.663l-.035-.037L47.5,36.835l-8.247-.128-4.11,7.117a5.357,5.357,0,1,1-9.278-5.358l5.937-10.28a1.168,1.168,0,0,1,.61-.512l2.082-.762L26.96,25.044,11.148,44.08l7.271,10.514,1.519-1.519a4.937,4.937,0,0,1,8.376,2.764A4.946,4.946,0,0,1,35,61.935a4.932,4.932,0,0,1,4.168,6.353A4.93,4.93,0,0,1,43.705,72.458ZM38.827,70.61a2.591,2.591,0,0,0-1.841.762l-1.4,1.4a2.6,2.6,0,0,0,3.68,3.68l1.4-1.4a2.6,2.6,0,0,0-1.839-4.439Zm-9.888-1.9a2.6,2.6,0,0,0,3.958,3.35l3.385-3.367a2.6,2.6,0,0,0-3.35-3.972Zm1.367-10.953a2.584,2.584,0,0,0-1.839.762L22.739,64.25a2.6,2.6,0,0,0,3.677,3.675l.759-.757a4.987,4.987,0,0,1,.393-.444l3.381-3.378a4.4,4.4,0,0,1,.444-.395l.757-.757a2.6,2.6,0,0,0-1.841-4.439Zm-11.233-.512-.414.421a2.6,2.6,0,0,0,3.675,3.684l2.937-2.937A2.605,2.605,0,0,0,23.43,53.97a2.57,2.57,0,0,0-1.839.764l-2.5,2.507ZM38.6,34.345h.019l9.409.147a1.168,1.168,0,0,1,.811.346L68.23,54.354l4.64-11.289L60.7,27.922l-2.2-2.729-12.616.021-6.962,2.551-.035.014L33.643,29.7l-5.726,9.92a3.02,3.02,0,0,0,5.231,3.021l4.453-7.71A1.168,1.168,0,0,1,38.6,34.345ZM2.819,36.805l6.7,5.565L24.781,24.009l-7.523-4.582ZM62.5,26.457,74.1,40.828l6.776-5.472L68.38,19.859l-7.4,4.7ZM8.141,38.083a1.168,1.168,0,1,1,1.168-1.168,1.168,1.168,0,0,1-1.168,1.168Zm67.9-.9a1.164,1.164,0,1,0,0-.009ZM41.86,18.721a1.168,1.168,0,0,1-1.168-1.168V7.626a1.168,1.168,0,0,1,2.336,0v9.913a1.168,1.168,0,0,1-1.168,1.168ZM49.8,17.6a1.168,1.168,0,0,1-.825-1.993l12-12A1.168,1.168,0,1,1,62.63,5.241l-12,12a1.168,1.168,0,0,1-.827.341Zm-15.887,0a1.168,1.168,0,0,1-.825-.341l-12-12.016a1.168,1.168,0,1,1,1.652-1.652l12,12a1.168,1.168,0,0,1-.827,1.993Zm8-15.261a1.168,1.168,0,1,1,1.168-1.168A1.168,1.168,0,0,1,41.918,2.336Z" transform="translate(-0.02)"/></g></svg>