<svg xmlns="http://www.w3.org/2000/svg" width="81.135" height="80" viewBox="0 0 81.135 80"><defs><style>.a{fill:#f18f20;}</style></defs><path class="a" d="M150.3,155.206H71.351a1.091,1.091,0,0,1,0-2.181h6.508v-19.76a1.091,1.091,0,0,1,1.091-1.091h14.5v-9.815a1.091,1.091,0,0,1,1.091-1.091h14.45v-9.815a1.091,1.091,0,0,1,1.091-1.091h14.471V93.046h-6.8a1.091,1.091,0,0,1-.772-1.863l15.66-15.658a1.091,1.091,0,0,1,1.542,0l15.658,15.658a1.091,1.091,0,0,1-.77,1.863h-6.781v59.979H150.3a1.091,1.091,0,0,1,0,2.181Zm-23.582-2.244h13.383V91.955a1.091,1.091,0,0,1,1.091-1.091h5.245L133.415,77.829,120.39,90.865h5.235a1.091,1.091,0,0,1,1.091,1.091Zm-15.54,0h13.359V112.545H111.161v9.6a1.076,1.076,0,0,1,.022.218Zm-15.562,0H108.98V123.45H95.621Zm-15.588,0H93.416V134.355H80.033Z" transform="translate(-70.26 -75.206)"/></svg>