<svg xmlns="http://www.w3.org/2000/svg" xmlns:xlink="http://www.w3.org/1999/xlink" width="1920" height="4560" viewBox="0 0 1920 4560"><defs><style>.a,.f{fill:none;stroke:#fff;stroke-width:2px;}.b{fill:#f6f6f6;}.c{opacity:0.559;}.d{fill:#ececec;opacity:0.5;}.e{clip-path:url(#a);}.f{stroke-miterlimit:10;}</style><clipPath id="a"><rect class="a" width="1920" height="4560"/></clipPath></defs><g transform="translate(0 -1226)"><g transform="translate(0 1226)"><rect class="b" width="1920" height="4560"/><g class="c"><rect class="d" width="1919" height="4560" transform="translate(1)"/><g class="e"><g transform="translate(-395.183 -1479.971)"><path class="f" d="M1333.345-52.3q-23.21,354.17-58.145,696.574c-10.241,101.245-21.814,203.768-41.759,284.654-51.027,206.781-140.305,213.172-216.5,168.255-70.271-41.425-138.909-112.526-204.467-211.8C747.6,787.149,684.843,660.341,615.331,618.711S464.963,644.274,427.506,856.9c-22.275,126.716-25.834,287.029-17.129,433.373s28.676,280.912,50.822,407.9c25.373,145.339,54.816,292.6,58.631,463.225,3.943,176.746-23.427,357.507-67.055,442.594-62.036,121.057-137.975,45.1-207.565,0-88.382-57.425-183.191-56.967-263.943,83.533S-161.9,3133.223-153.609,3452.2" transform="translate(154.349 1054.8)"/><path class="f" d="M1314.169-57.53c-15.039,230.823-34.108,458.07-57.095,680.415-10.241,98.78-21.532,198.656-40.965,277.9-49.7,202.49-136.081,213.628-210.176,175.1a378.752,378.752,0,0,1-52.486-33.231c-50.142-37.381-99.26-90.476-146.783-158.669C743.271,792.691,681.823,674.009,613.872,635.94s-144.555,31.5-184.138,229.513c-14.734,71.561-24.762,154.029-29.341,241.29-2.914,59.834-3.5,120.814-1.741,181.219q1.134,42.1,3.61,83.534c6.81,111.744,21.3,221.114,37.15,325.1,1.562,10.316,3.149,20.541,4.737,30.858,24.784,159.49,50.95,322.633,52.384,501.112,1.383,171.814-24.041,346.918-66.568,430.451-60.449,119.414-134.16,51.033-201.471,12.873-5.3-3.013-10.625-5.843-15.976-8.308-80.8-38.526-165.294-22.824-237.392,110.1-76.809,141.688-135.569,440.309-126.275,750.253" transform="translate(157.831 1012.283)"/><path class="f" d="M1294.93-62.76c-14.649,225.512-33.387,447.4-56.1,664.255-10.062,96.316-21.25,193.727-40.2,271.236-48.262,198.108-131.882,213.9-203.852,181.766a347.307,347.307,0,0,1-51.053-28.575c-48.782-32.722-96.658-80.747-143.07-143.514-61.909-83.717-122.05-194.457-188.388-229.24S473.095,690.69,431.9,873.917c-16.642,73.948-30.212,146.892-37.457,230.974-5.031,58.586-7.619,119.492-7.681,180.762-.046,29.147.451,58.273,1.485,87.186,4.3,118.134,18.69,237.364,34.231,350.477,1.562,11.229,3.1,22.366,4.66,33.5,24.195,173.459,47.161,352.122,46.086,538.636-.9,166.611-24.656,335.779-66,418.49-58.887,117.587-130.294,56.787-195.352,25.837-5.121-2.465-10.241-4.747-15.362-6.756-78.038-30.126-158.893-7.3-227.33,126.808-72.995,142.966-128.016,434.926-117.774,735.83" transform="translate(161.401 969.766)"/><path class="f" d="M1275.842-68c-14.265,220.217-32.664,436.767-55.072,648.187-9.96,93.851-20.995,188.614-39.429,264.753-47.187,193.544-127.683,214.085-197.554,188.248a297.438,297.438,0,0,1-49.593-23.828c-47.408-27.943-94.033-70.744-139.332-127.9C734.437,805.045,675.6,702.339,610.825,670.934s-134.212,43-176.662,212.076c-18.486,73.583-35.384,138.949-45.548,220.474-7.21,56.931-11.85,117.568-13.749,179.667-.915,30.316-1.163,60.84-.742,91.294,1.792,124.526,16.079,254.071,31.338,375.949,1.511,12.051,3.021,24.1,4.557,36.517,23.606,187.976,43.525,380.97,39.915,576.887-2.919,161.043-25.3,324.915-65.493,406.349-57.223,115.944-126.454,62.719-189.258,38.8-4.967-1.824-9.934-3.559-14.9-5.021-75.248-21.818-152.492,8.126-217.294,143.424-69.128,144.245-120.335,429.081-109.069,721.223" transform="translate(164.82 927.168)"/><path class="f" d="M1256.728-73.21c-13.88,214.845-31.948,425.973-54.074,631.846-9.806,91.294-20.739,183.318-38.661,257.632-45.753,189.709-123.458,214.906-191.2,195.461a264.249,264.249,0,0,1-48.134-19.081c-46.074-23.5-91.481-61.376-135.7-113.2-58.887-69.2-116.469-164.329-179.632-191.718S479.7,735.473,436.454,890.946c-20.482,73.035-40.53,131.007-53.767,209.976-9.4,55.547-16.088,116.4-19.766,179.941-1.755,31.091-2.714,62.687-2.868,94.4-.743,130.916,13.467,270.6,28.419,401.693l4.455,38.8c23.12,201.852,39.915,409,33.694,614.41-4.685,155.2-25.91,314.144-64.981,394.39-55.61,114.209-122.588,68.563-183.139,51.764-4.788-1.37-9.576-2.465-14.363-3.378C91.708,2859.245,18.1,2896.5-43.067,3032.705c-65.211,145.432-112.654,424.152-100.441,706.982" transform="translate(168.265 884.814)"/><path class="f" d="M1237.568-78.44c-13.491,209.537-31.229,415.307-53.075,615.687-9.678,88.92-20.482,178.48-37.841,251.058-44.473,185.236-119.285,215.18-184.932,202.125a243.04,243.04,0,0,1-46.674-14.424c-44.69-18.826-88.83-51.635-131.907-98.05C725.684,816.059,669.459,729.33,607.858,704.5S482.4,756.718,438.673,899.227c-22.48,73.035-45.676,123.064-61.755,199.66-11.5,53.83-20.176,114.638-25.6,179.484-2.619,31.931-4.335,64.718-5.121,97.868-3.252,136.941,10.856,287.029,25.6,426.8,1.434,13.876,2.893,27.388,4.327,41.537,22.48,216.277,36.356,437.3,27.447,652.478-6.2,149.632-26.5,303.371-64.443,382.431-54.253,112.747-118.952,74.679-177.148,64.909q-6.874-1.094-13.8-1.642c-69.692-5.112-139.691,38.982-197.144,176.654-61.32,146.709-105.2,418.765-91.813,692.556" transform="translate(171.756 842.297)"/><path class="f" d="M1218.789-83.67c-13.108,204.236-30.525,404.649-52.1,599.528-9.576,86.547-20.176,173.459-37.074,244.394-43.167,181.127-115.086,215.728-178.608,209.063a221.822,221.822,0,0,1-45.241-9.677c-43.33-14.2-86.226-41.935-128.195-82.894-55.969-54.777-110.887-133.29-170.875-154.47S485.13,777.781,441.221,908.423c-24.656,73.035-50.848,114.756-69.9,188.8-13.657,51.942-24.391,112.748-31.62,179.119-3.5,32.74-5.969,66.755-7.374,101.428-5.761,143.7,8.27,303.554,22.608,452.728q2.151,22.092,4.25,44.185c21.891,230.426,33,465.051,21.2,690.364-7.527,143.789-27.114,292.14-64.008,370.289-52.384,110.833-114.907,80.247-170.952,77.691H132.165c-66.927,3.287-133.29,54.777-187.159,193.27-57.453,147.989-97.625,413.38-83.236,678.134" transform="translate(174.917 799.781)"/><path class="f" d="M1199.815-88.9c-12.682,198.937-29.744,394-51.027,583.369-9.422,84.082-19.894,168.346-36.305,237.365C1070.648,908.67,1001.621,947.927,940.2,947.652a194.932,194.932,0,0,1-43.756-5.021c-41.972-9.469-83.628-32.137-124.482-67.74-54.484-47.291-108.1-117.952-166.421-135.755S480.956,772,443.7,916.521c-30.084,54.685-55.994,107.453-77.936,178.845-15.779,49.951-28.578,110.711-37.637,178.663-4.365,33.535-7.588,68.812-9.6,105.079-8.27,150,5.658,319.53,19.714,477.559q2.1,23.464,4.148,46.925c21.3,244.577,29.8,492.988,14.952,728.16-8.705,138.037-27.651,282.009-63.5,358.331-50.8,109.1-111.066,86.089-164.859,90.655-4.25,0-8.475.911-12.8,1.643-64.136,11.593-126.915,69.84-177.123,209.977-53.536,149.266-90.021,407.992-74.608,663.708" transform="translate(178.144 757.264)"/><path class="f" d="M1180.821-94.13c-12.3,193.632-29.029,383.338-50.028,567.21-9.294,81.526-19.612,163.325-35.512,230.974-40.53,172.272-106.663,216.367-165.96,222.392a204.92,204.92,0,0,1-42.322,0c-40.61-4.858-81.022-22.423-120.77-52.494-53-40.443-105.306-103.071-162.119-117.861s-120.8,34.235-158,168.985c-32.516,51.672-61.192,99.328-86.052,168.8-17.844,47.969-32.671,108.737-43.525,178.388-5.222,34.241-9.2,70.718-11.829,108.548-10.779,156.387,3.072,336.419,16.821,503.03q2.048,24.649,4.045,49.573c20.713,258.727,26.755,520.375,8.705,765.955-9.78,131.83-28.394,270.506-62.958,345.915-49.184,107.363-107.2,91.932-158.74,103.526-4.071.915-8.116,2.1-12.187,3.379-61.448,19.994-120.514,85.269-167.086,226.591-49.645,150.364-82.417,402.515-66,649.193" transform="translate(181.469 714.747)"/><path class="f" d="M1162-99.36c-11.9,188.33-28.293,372.685-49,551.051-9.166,79.06-19.381,158.212-34.743,224.218-39.224,168.346-102.464,216.732-159.661,229.149a180.392,180.392,0,0,1-40.965,4.382c-39.251-.176-78.421-12.671-117.058-37.34-51.514-32.774-102.413-87.459-157.767-98.415S485.849,808.651,448.674,933.633c-34.923,48.75-66.338,91.293-94.143,157.938-19.933,45.88-36.85,106.576-49.593,177.932-6.074,34.942-10.793,72.654-14.031,112.109-13.288,162.778.461,352.852,13.928,528.411q2,26.018,3.943,52.219c20.124,272.97,23.913,547.766,2.56,803.935-10.677,126.534-29.085,260.005-62.369,334.228-47.673,105.719-103.437,97.867-152.723,116.583-3.892,1.461-7.681,3.1-11.649,5.019-58.58,28.3-114.113,100.424-157.05,243.209-45.753,151.638-74.812,397.128-57.377,634.766" transform="translate(184.618 672.23)"/><path class="f" d="M1143.239-104.59c-11.5,183.037-27.57,362.046-48.006,534.892-9.038,76.687-19.1,153.283-33.95,217.554-37.918,164.329-98.265,217.462-153.363,236.269a190.388,190.388,0,0,1-39.378,9.129c-37.892,4.416-75.819-3.038-113.345-22.276-50-25.836-99.673-72.487-153.44-80.065S488.336,827.431,451.212,942.1c-37.329,45.648-71.484,83.535-102.259,147.531-20.969,43.638-40.939,101.975-55.456,177.567-6.918,35.637-12.392,74.578-16.258,115.669-15.8,169.168-2.151,369.376,11.009,553.882,1.306,18.257,2.56,36.517,3.866,54.776,19.561,287.119,21.225,575.791-3.764,841.73-11.368,121.057-29.674,249.417-61.857,322.36C180.407,3259.5,127,3259.23,79.966,3285.159c-3.712,2.009-7.425,4.2-11.112,6.665C13.039,3328.342-38.858,3407.95-78.133,3551.646c-41.887,152.919-67.234,391.742-48.646,620.8" transform="translate(187.713 629.714)"/><path class="f" d="M1124.741-109.82c-11.127,177.742-26.873,351.4-47.033,518.733-8.91,74.222-18.818,148.17-33.156,210.889-36.613,159.765-94.066,217.828-147.039,243.025a191.881,191.881,0,0,1-37.944,13.786c-36.518,8.9-73.184,6.429-109.581-7.395C701.341,850.958,653.054,812.341,601,808.142S491.4,845.3,454.169,950.652c-39.736,42.817-76.656,75.591-110.35,136.94-23.043,41.9-45.19,100.424-61.448,177.111a1153.93,1153.93,0,0,0-18.485,119.23c-18.281,175.74-4.788,385.991,8.065,579.442q1.92,28.758,3.738,57.607c19,301.269,18.793,603.909-9.985,879.617-12.059,115.4-30.186,238.461-61.448,310.4-44.37,102.25-95.679,109.554-140.459,142.51-3.508,2.647-7.041,5.387-10.548,8.4C.225,3406.918-48.063,3493.464-83.7,3638.348c-38,154.2-59.63,386.357-40.171,605.921" transform="translate(190.542 587.197)"/><path class="f" d="M1106.2-115c-10.743,172.321-26.178,340.491-46.086,502.117-8.756,71.757-18.537,143.058-32.388,204.133-35.281,155.2-89.841,218.284-140.817,249.781a199.635,199.635,0,0,1-36.459,18.259c-35.173,13.7-70.614,16.421-105.92,8.125-47.033-11.047-94.143-41.538-144.607-42.361S494.1,863.125,457.029,958.8c-42.117,39.987-81.8,67.375-118.44,126.625-25.065,40.261-49.337,97.958-67.464,176.745-8.588,36.99-15.562,78.385-20.687,122.791-20.815,182.041-7.348,402.333,5.121,604.731q1.869,29.946,3.636,60.255c18.409,315.42,16.565,632.393-16.232,917.412-12.674,110.01-30.724,227.687-60.807,298.168-42.757,100.424-91.813,115.4-134.34,155.2-3.354,3.2-6.682,6.483-10.011,10.044-50.259,53.316-94.911,147.074-126.915,293.054-34.1,155.2-52.026,380.97-31.543,591.492" transform="translate(193.392 545.086)"/><path class="f" d="M1087.856-120.28c-10.316,167.16-25.38,330.14-44.959,486.415-8.654,69.2-18.281,138.036-31.62,197.378C977.3,714.7,925.634,782.618,876.886,820.14a266.776,266.776,0,0,1-35.025,23.189c-33.805,18.37-68,26.16-102.182,23.28-45.574-3.743-91.352-26.293-140.228-23.645s-98.726,63.906-139.358,125.164c-42.092,63.906-87.051,59.706-126.556,116.217-27.088,38.526-53.511,95.859-73.43,176.289-9.467,37.616-17.24,80.239-23.043,126.351-23.324,188.432-9.934,418.766,2.33,629.929q1.792,31.4,3.533,62.993c17.922,329.662,14.568,661.333-22.48,955.209-13.109,104.714-31.313,216.73-60.167,286.023-41.17,98.78-87.972,121.6-128.246,168.438-3.175,3.652-6.324,7.577-9.473,11.684-47.468,61.716-88.51,162.505-116.878,309.67-30.212,156.661-44.447,375.584-23.043,577.071" transform="translate(196.064 502.163)"/><path class="f" d="M1069.712-125.5c-9.939,161.834-24.675,319.442-43.961,470.164-8.526,66.827-17.922,133.016-30.724,190.713-32.67,146.983-81.444,219.106-128.016,263.384a303.368,303.368,0,0,1-33.54,27.936c-32.514,23.046-65.532,35.876-98.674,38.344-44.063,3.56-88.561-10.956-135.85-4.93s-95.679,62.537-135.7,116.4c-44.806,60.437-92.171,51.855-134.647,105.9-29.034,36.427-57.71,93.485-79.344,175.193-10.244,38.3-18.722,82.148-25.117,129.911-25.859,195.1-12.571,435.564-.589,655.856q1.767,32.593,3.431,65.641c17.231,343.812,12.8,690.823-28.727,993.1-13.7,99.786-32.03,206.054-59.758,273.884-39.557,97.32-84.106,127.447-122.127,181.583-3,4.292-5.966,9.132-8.935,13.421-44.7,70.022-82.109,177.931-106.816,326.285-26.346,157.938-36.869,370.2-14.338,562.645" transform="translate(198.538 459.727)"/><path class="f" d="M1051.839-130.73c-9.542,156.56-23.952,308.837-42.962,454.005-8.372,63.906-17.717,127.811-30.033,184.049C947.481,649.925,901.6,726.43,857.076,777.463a352.029,352.029,0,0,1-32.106,32.592c-31.079,27.692-62.776,45.654-94.732,53.68-42.578,10.773-85.745,4.291-131.447,13.786S506.16,938.688,466.884,985.157c-47.622,55.781-97.343,43.456-142.814,94.946-31.108,35.148-61.832,92.207-85.361,175.467-11.077,38.932-20.311,84.008-27.344,133.472C183,1589.889,196.208,1840.766,207.857,2070.1q1.741,33.96,3.354,68.2c16.668,357.781,11.393,721.132-34.974,1030.983-14.159,94.854-32.618,195.279-59.22,262.1-37.944,95.4-80.266,132.833-116.033,194.364-2.816,4.84-5.633,9.861-8.4,15.065-41.938,78.422-75.734,193.362-96.78,342.9-22.454,159.218-29.264,365.176-5.709,548.22" transform="translate(200.741 417.211)"/><path class="f" d="M1034.288-136c-9.149,151.392-23.223,298.458-41.938,438.211-7.923,62.468-17.691,121.748-29.136,176.836-30.058,138.4-73.046,219.927-115.47,276.986a446.487,446.487,0,0,1-30.724,37.339c-29.734,32.251-60.2,55.251-91.045,68.744-40.965,18.259-82.98,19.628-127.094,32.5s-89.611,59.615-128.17,98.963c-50.285,51.216-102.515,36.061-150.9,84.63-33.1,33.779-65.979,90.107-91.4,175.376-11.9,39.554-21.888,85.818-29.572,136.941-30.8,208.059-17.692,468.248-6.273,706.524q1.69,35.331,3.252,70.935c16.079,372.206,10.241,752.08-41.2,1068.781-14.619,90.2-33.284,184.5-58.734,250.143C59.422,3580.58,19.4,3625.315-14.084,3694.15c-2.56,5.479-5.274,11.048-7.86,16.707-39.147,86.821-69.333,208.883-86.743,359.609-18.562,160.494-21.66,359.422,2.893,533.8" transform="translate(202.624 374.369)"/><path class="f" d="M1017.109-141.19C1008.33,4.66,994.573,146.124,976.143,280.04c-7.883,60.086-17.429,117.215-28.5,170.537-28.676,134.111-68.77,220.384-109.069,283.742q-14.4,22.733-29.188,42.086c-28.384,36.923-57.613,64.995-87.358,83.9-39.608,25.38-80.163,34.966-122.69,51.216s-86.36,57.7-124.457,90.2c-53.127,45.647-107.533,28.118-158.944,74.5-35.128,31.771-70.153,87.825-97.292,174.737-12.719,40.23-23.467,87.747-31.8,140.593-33.284,213.993-20.483,484.681-9.294,731.9q1.664,36.518,3.124,73.583c15.516,386.356,9.217,784.033-47.417,1106.668-15.055,85.633-33.873,173.457-58.2,238C40.323,3633.727,2.481,3686.4-28.754,3762c-2.56,5.935-4.916,12.142-7.322,18.26-36.112,93.243-62.968,225.038-76.681,376.313-14.7,161.591-14.082,353.947,11.5,519.282" transform="translate(204.109 332.177)"/><path class="f" d="M1000.392-146.42c-8.359,140.559-21.775,276.679-39.915,404.981-7.8,57.69-17.075,112.7-27.7,164.329C905.353,552.8,868.151,643.73,829.951,713.479c-9.089,16.707-18.357,32.227-27.728,46.742-27.021,41.545-55,74.687-83.62,99.054-38.123,32.683-77.373,50.212-118.338,69.932s-83.108,55.507-120.693,81.525c-55.892,38.709-112.807,20.267-167.061,63.906-37.15,29.853-74.326,85.543-103.257,174.1-13.535,40.85-25.039,89.555-34.027,144.062-35.844,220.384-23.043,501.114-12.187,757.284q1.575,37.932,3.021,76.322c14.927,400.507,8.551,817.082-53.767,1144.462-15.362,81.344-34.487,162.777-57.684,226.045-33.028,90.287-68.616,150.451-97.574,233.253q-3.405,9.679-6.759,19.994c-33.285,102.425-56.594,239.88-66.568,392.566-10.8,162.869-6.478,348.56,20.1,504.855" transform="translate(205.157 289.66)"/><path class="f" d="M984.47-151.65c-7.975,135.28-21.058,266.078-38.891,388.821C937.8,292.079,928.8,344.654,918.644,394.379c-26.115,125.529-60.423,221.206-96.5,297.345-8.6,18.259-17.385,35.331-26.269,51.4-25.672,46.235-52.416,84.477-79.933,114.3-36.612,39.9-74.582,65.458-113.934,88.555s-79.779,53.133-116.981,73.035c-58.606,31.222-117.954,12.142-175.177,53.5-39.147,28.3-78.474,83.717-109.223,173.459-14.36,41.618-26.613,91.7-36.228,148.079-38.4,226.774-25.6,517.637-15.106,782.756,1.05,26.11,2.023,52.494,2.944,78.97,14.338,414.657,8.167,851.224-59.911,1182.257-16.261,80.2-35.483,152.214-57.146,214.085C3.664,3740.672-29.7,3808.5-56.452,3898.61c-2.1,7.122-4.173,14.334-6.222,21.729-30.555,111.7-50.376,255.1-56.609,409.542-6.913,164.332,1.127,343.177,28.727,490.433" transform="translate(205.409 247.144)"/><path class="f" d="M969.245-156.88c-7.593,130.018-20.353,255.5-37.893,372.662-7.7,52.3-16.435,102.583-26.141,150.453-24.809,121.33-56.327,221.571-90.2,304.1q-12.136,29.579-24.809,56.146c-24.3,50.907-49.8,94.22-76.195,129.455-35.63,46.531-72.283,82.412-109.581,107.27-37.56,26.293-76.3,50.577-113.243,63.906-61.243,22.55-123.1,4.382-183.267,43.274-41.17,26.566-82.621,81.617-115.214,173.458-15.123,42.288-28.089,93.555-38.328,151.548-40.965,233.074-28.163,533.979-17.922,808.043q1.5,41.083,2.842,82.165c13.749,429.082,8.039,886.648-66.159,1220.144-16.78,74.4-35.769,142.106-56.634,201.943-29.9,86.82-61.012,162.228-85.515,259.185-1.92,7.668-3.815,15.428-5.684,23.372-27.781,120.74-44.145,269.71-46.751,425.61-3.021,165.425,8.731,337.788,37.355,476.007" transform="translate(204.965 204.627)"/><path class="f" d="M954.873-162.11c-20.124,355.5-85.386,668-169.339,871.949s-185.776,304.922-287.319,326.1c-63.8,13.238-128.272-3.561-191.358,32.775s-127.12,136.941-161.838,327.928c-43.525,239.464-30.724,550.5-20.892,833.515,16.258,465.6,16.028,985.976-69.666,1342.023C11.781,3749.477-48.591,3868.066-86.2,4059.326c-52.128,265.212-48.083,653.668,9.422,904.36" transform="translate(203.642 162.11)"/></g><g transform="translate(230.274 2687.328)"><path class="f" d="M89.94,1610.317q59.741-294.712,129.04-562.373c20.482-79.151,42.168-157.937,69.333-205.137,69.461-120.417,152.518-3.47,217.934,142.874,60.322,134.973,115.93,295.039,165.652,476.829,49.209,180.031,93.375,383.434,153,517.454s141.457,183.776,199.064,38.892c34.283-86.182,54.919-229.241,62.728-376.132s3.968-298.622-2.714-446.245c-7.681-169.077-18.87-345.366-3.917-508.051,15.516-168.438,60.347-297.436,109.786-315.878,70.332-26.293,132.163,148.352,191.46,285.842,75.3,174.736,162.811,304.83,252.5,286.389s180.348-213.994,207.257-519.646" transform="translate(-89.94 319.733)"/><path class="f" d="M93.57,1663.072q58.622-289.873,127.248-551.327c20.278-77.233,41.707-154.012,68.411-200.39,53.639-93.12,115.393-45.647,170.747,45.647a889.57,889.57,0,0,1,43.525,82.8c59.626,127.612,114.779,280.08,164.3,454.19,49.03,172.271,92.965,368.917,151.955,497.733,33.079,72.4,72.278,121.97,110.887,130.917,33.617,7.668,66.978-16.159,94.86-84.173,4.966-12.11,9.7-25.41,14.159-39.8,27.37-88.647,43.986-216.093,51.206-346.917,2.294-41.479,3.841-83.438,4.634-125.622,2.048-110.739-.359-222.758-3.917-332.311-5.607-173.459-13.083-351.574,3.789-513.895s59.707-286.664,107.969-305.47c68.693-26.932,129.27,137.672,187.236,265.484,4.583,10.133,9.192,19.993,13.851,29.762,70.358,146.709,149.984,248.594,230.889,225.222,86.257-24.924,172.744-219.106,197.733-518.276" transform="translate(-84.276 332.983)"/><path class="f" d="M97.2,1755.818c38.357-189.936,80.271-370.41,125.455-540.187,20.073-75.407,41.272-150.087,67.49-195.734,52.691-91.294,113.191-48.933,167.675,36.518a814.083,814.083,0,0,1,42.962,77.6c58.915,120.277,113.6,265.18,162.887,431.637,48.8,164.33,92.607,354.5,151.059,478.837,34.334,73.036,74.556,124.89,114.344,136.029,34.564,9.129,69.129-12.871,98.086-81.343,5.165-12.206,10.076-25.719,14.7-40.443,28.522-90.29,45.548-221.568,53.382-356.045,2.453-43.013,4.163-86.521,5.121-130.278,2.56-113.753,1.177-228.965-1.127-341.166-3.533-178.387-7.3-357.6,11.5-519.827,17.922-154.013,59.118-275.8,106.2-295.063,67-27.388,126.351,126.9,183.011,245.126q6.682,13.694,13.519,27.388c68.693,135.206,145.759,225.5,223.439,196.007,82.8-31.313,165.14-224.947,188.209-516.723" transform="translate(-78.612 305.51)"/><path class="f" d="M100.82,1852.748c37.646-186.793,78.989-363.746,123.714-529.506,19.817-73.491,40.786-146.07,66.568-190.987,51.693-90.106,110.964-52.037,164.577,27.389a756.68,756.68,0,0,1,42.45,73.4c58.213,112.862,112.433,250.138,161.5,408.906,48.646,157.21,92.3,339.89,149.958,459.668,35.614,73.946,76.81,127.811,117.775,141.139,35.537,11.412,71.356-9.677,101.312-78.6a435.683,435.683,0,0,0,15.362-40.99c29.648-92.026,47.084-227.232,55.482-365.909q3.944-66.32,5.735-133.927c3.175-116.857,2.688-235.266,1.639-350.112-1.485-183.045-1.613-363.351,19.2-525.672,18.818-146.892,58.529-264.753,104.435-284.746,65.339-28.21,123.433,116.217,178.761,224.765q6.554,12.874,13.211,25.2c67.055,123.7,141.534,202.491,215.963,166.886,79.37-37.887,157.562-230.517,178.735-515.355" transform="translate(-72.964 274.129)"/><path class="f" d="M104.45,1950.093c36.914-183.37,77.671-356.5,121.922-517.911,19.612-71.665,40.351-142.236,65.647-186.331,50.745-88.554,108.788-54.776,161.5,18.715a660.391,660.391,0,0,1,41.81,67.467c57.5,105.487,111.25,235.166,160.1,386.263,48.39,149.54,91.992,325.1,148.934,440.312,36.894,74.68,79.139,130.734,121.256,146.071,36.459,13.329,73.532-6.3,104.538-75.773a438.586,438.586,0,0,0,15.848-41.538c30.724-93.759,48.646-232.893,57.581-375.676q4.2-68.088,6.324-137.489c3.738-119.869,4.2-241.564,4.429-359.151.563-187.608,3.994-368.918,26.883-531.513,19.689-139.68,57.914-254.163,102.643-274.339,63.675-28.757,120.514,105.536,174.562,204.408,4.25,7.851,8.552,15.429,12.8,22.915,65.39,112.2,137.31,179.393,208.512,137.671,75.888-44.369,149.983-235.9,169.211-513.8" transform="translate(-67.3 242.425)"/><path class="f" d="M108.08,2047.195c36.183-180.121,76.355-349.62,120.13-506.867,19.382-69.746,39.864-138.217,64.7-181.582,49.8-87,106.586-58.245,158.432,9.587,14.184,18.258,28.01,39.8,41.221,62.445,56.811,98.036,110.107,220.092,158.739,363.532,48.185,142.054,91.736,310.4,147.935,421.139,38.174,75.319,81.392,133.563,124.713,151.366,37.406,15.155,75.708-3.1,107.738-73.036a437.659,437.659,0,0,0,16.437-42.084c31.927-95.4,50.182-238.461,59.681-385.354q4.473-69.929,6.887-141.232c4.327-122.88,5.658-247.772,7.22-368.005,2.56-192.359,9.525-374.307,34.615-537.359,20.483-132.649,57.3-243.389,100.851-264.022,61.985-29.4,117.6,94.855,170.312,184.049,4.173,7.029,8.347,13.967,12.571,20.632C1503.989,860.827,1573.4,916.791,1641.3,868.952c72.457-50.941,142.4-241.472,159.712-512.432" transform="translate(-61.636 210.964)"/><path class="f" d="M111.71,2144.457c35.456-176.9,75.052-342.765,118.364-495.818,19.177-67.832,39.429-134.293,63.777-176.927,48.825-85.45,104.384-61.257,155.36.64,13.954,16.8,27.575,36.516,40.632,57.241,56.106,90.691,108.94,205.178,157.357,340.983,47.955,134.386,91.454,295.156,146.911,401.694,39.48,75.955,83.671,136.94,128.169,156.479,38.4,17.071,77.885,0,110.939-70.205a416.189,416.189,0,0,0,17-42.635c33.079-97.138,51.744-244.121,61.806-395.031,3.2-48.113,5.607-96.68,7.476-144.883,4.89-125.985,7.143-254.071,10.011-377.044,4.557-196.921,14.952-379.874,42.3-543.2,21.1-125.439,56.685-232.435,99.059-253.251,60.346-30.036,114.7,84.174,166.113,163.782,4.045,6.207,8.142,12.324,12.238,18.259,62.088,89.1,128.861,133.288,193.585,79.333,69-57.332,134.8-246.493,150.214-511.246" transform="translate(-55.972 179.341)"/><path class="f" d="M115.34,2241.549c34.728-173.6,73.74-335.774,116.571-484.589,18.946-66.006,38.968-130.37,62.856-172.272,47.878-83.9,102.208-64.453,152.288-8.49,13.723,15.156,27.165,33.048,40.069,52.219,55.385,83.32,107.747,190.176,155.949,318.251,47.75,126.809,91.224,280.091,145.938,382.613,40.811,76.5,85.975,139.315,131.651,161.591,39.275,18.9,80.061,3.377,114.164-67.467a407.732,407.732,0,0,0,17.564-43.273c34.231-98.779,53.28-249.6,64.008-404.706,3.354-49.3,5.94-99.145,8.014-148.536,5.479-129,8.679-260.279,12.8-385.9,6.606-201.67,20.3-385.444,50-549.134,21.558-118.682,56.1-221.661,97.292-243.207,58.657-30.674,111.758,73.035,161.889,143.422q5.914,8.218,11.906,15.978c60.423,77.6,124.636,110.282,186.135,50.211,65.544-63.906,127.2-252.428,140.817-509.512" transform="translate(-50.308 147.799)"/><path class="f" d="M119,2338.731c34.018-170.364,72.465-328.913,114.83-473.54,18.716-63.907,38.4-126.443,61.908-167.525,46.931-82.164,99.852-67.193,149.19-17.529,13.518,13.6,26.755,29.67,39.506,47.107,54.688,75.868,106.589,175.13,154.566,295.61,47.545,119.23,91.019,264.752,144.888,363.26,42.117,77.05,88.254,142.235,135.082,166.7,40.248,20.815,82.263,6.662,117.391-64.729a386.219,386.219,0,0,0,18.153-43.731c35.358-100.425,54.842-255.622,66.031-414.382,3.533-50.577,6.3-101.7,8.6-152.187,6.042-132.1,10.241-266.489,15.567-394.938,8.68-206.234,25.6-390.922,57.71-554.885,21.968-112.018,55.482-210.89,95.525-232.891,56.993-31.314,108.839,62.81,157.639,123.065,3.84,4.746,7.681,9.129,11.6,13.694,58.887,66.005,120.335,87.186,178.659,21,62.113-70.389,119.618-257.814,131.191-507.961" transform="translate(-44.597 116.256)"/><path class="f" d="M122.59,2435.753c33.3-167.083,71.164-321.976,113.038-462.407,18.588-62.169,38.046-122.515,60.987-162.592,45.958-80.8,97.778-70.3,146.117-26.659a359.736,359.736,0,0,1,38.942,42.086c53.973,68.465,105.405,160.131,153.158,272.969,47.34,111.562,90.84,249.417,143.864,344,43.525,77.418,90.558,145.16,138.564,171.817,41.2,22.641,84.49,9.95,120.616-61.99a391.652,391.652,0,0,0,18.716-44.278c36.51-102.248,56.327-260.918,68.13-424.06,3.713-51.856,6.657-104.167,9.192-155.839,6.606-135.207,11.7-272.788,18.358-403.885,10.7-210.98,30.724-396.581,65.416-560.819,22.275-105.446,54.868-200.025,93.707-222.485,55.328-31.952,105.946,52.129,153.44,102.706,3.738,3.926,7.5,7.76,11.266,11.412,57.12,54.776,116.187,63.905,171.208-8.126C1705.965,770.732,1759.348,584.218,1769,341.01" transform="translate(-38.996 84.877)"/><path class="f" d="M126.22,2533.747c32.568-163.894,69.862-315.174,111.271-451.356,18.255-60.347,37.56-118.685,60.039-158.122,45.01-79.336,95.577-73.036,143.045-35.7,13.083,10.408,25.91,22.913,38.4,36.517,53.272,61.077,104.25,145.144,151.8,250.329,47.11,103.985,90.635,234.079,142.84,324.732,44.806,77.875,92.811,148.079,142.021,176.927,42.143,24.56,86.615,13.239,123.817-59.157a383.458,383.458,0,0,0,19.279-44.826c37.662-103.893,57.94-266.486,70.255-433.829,3.892-53.042,7.015-106.632,9.755-159.489,7.194-138.128,13.237-279,21.148-412.833,12.8-215.636,35.844-402.424,73.123-566.57,22.531-99.053,54.279-189.253,91.941-212.167,53.766-32.592,103,41.447,149.19,82.165,3.661,3.195,7.3,6.208,10.984,9.129,55.431,43,111.937,41.081,163.732-37.34,55.175-83.351,104.435-268.769,112.167-505.129" transform="translate(-33.332 52.523)"/><path class="f" d="M129.85,2630.351c31.851-160.6,68.565-308.2,109.479-440.13,17.922-58.52,37.125-114.666,59.118-153.466,44.063-77.782,93.4-76.5,139.972-44.734a291.911,291.911,0,0,1,37.765,31.769c52.562,53.685,103.078,130.152,150.419,227.689,46.9,96.406,90.456,218.467,141.841,305.47,46.086,78.146,95.09,150.909,145.477,182.042,43.065,26.384,88.792,16.431,127.017-56.42a381.666,381.666,0,0,0,19.868-45.647c38.789-105.445,59.476-271.874,72.354-443.233,4.071-54.777,7.374-109.553,10.241-163.143,7.681-141.232,14.747-285.293,23.939-421.778,14.824-220.293,40.683-408.542,80.8-572.505,22.71-92.755,53.767-178.388,90.149-201.668,52-33.232,100.108,30.674,144.99,61.9q5.3,3.7,10.651,6.847c53.767,31.5,107.713,18.259,156.179-66.462,51.744-89.925,96.857-274.339,102.669-503.669" transform="translate(-27.668 21.468)"/><path class="f" d="M133.48,2727.189c31.126-157.383,67.263-301.371,107.687-429.084,17.922-56.6,36.664-110.648,58.221-148.808,43.064-76.139,91.173-79.516,136.874-53.771a231.582,231.582,0,0,1,37.2,26.749c51.846,46.2,101.894,115.037,149.01,204.953,46.7,88.831,90.3,202.948,140.817,286.209,47.545,78.33,97.292,153.831,148.933,187.152,44.037,28.3,90.994,19.718,130.269-53.59a362.062,362.062,0,0,0,20.483-45.649c39.941-107.269,61.038-277.623,74.454-453.184,4.225-55.506,7.681-111.56,10.933-166.793,8.321-144.245,16.335-291.412,26.7-430.635,17-224.857,45.548-415.023,88.51-578.438,22.838-86.73,53.075-167.616,88.382-191.262,50.336-33.869,97.292,19.9,140.818,41.539,3.456,1.643,6.887,3.2,10.241,4.565,52.128,19.9,103.462-5.022,148.806-95.676,48.287-96.407,89.252-279.724,93.17-502.117" transform="translate(-22.004 -9.912)"/><path class="f" d="M137.11,2824.8c30.4-154.182,65.97-294.538,105.92-417.944,17.615-54.776,36.2-106.813,57.274-144.152,42.117-74.678,89-82.167,133.8-62.81a193.137,193.137,0,0,1,36.612,21.636c51.139,38.846,100.727,100.178,147.628,182.59,46.5,81.158,90.174,187.151,139.819,266.943,48.9,78.42,99.673,156.659,152.39,192.265,44.985,30.125,93.17,22.915,133.469-50.852a364.129,364.129,0,0,0,21.02-46.559c40.965-109.006,62.574-283.013,76.553-462.863,4.4-56.784,8.091-114.116,11.5-170.446,8.91-147.349,17.922-297.711,29.495-439.672,19.074-229.512,50.285-421.869,96.217-584.282,23.043-80.885,52.461-156.843,86.615-180.944,48.646-34.509,94.271,9.129,136.516,21.18,3.328.913,6.657,1.644,10.011,2.281,50.49,8.4,99.238-28.026,141.33-124.8,44.857-103.254,81.674-285.842,83.748-500.93" transform="translate(-16.34 -41.698)"/><path class="f" d="M140.73,2921.9c29.695-150.959,64.7-287.7,104.154-406.9,17.384-52.767,35.844-102.8,56.327-139.407,41.17-73.034,86.795-85.725,130.73-71.939a155.327,155.327,0,0,1,36.049,16.523c50.418,31.464,99.544,85.162,146.245,159.857,46.291,73.672,90.021,171.449,138.82,247.68C803.34,2806.23,855.007,2887.3,908.9,2925.094c45.906,32.044,95.346,26.2,136.7-48.022a362,362,0,0,0,21.558-47.107c42.22-110.74,64.136-288.945,78.678-472.537,4.583-58.063,8.449-116.674,12.085-174.189,9.473-150.362,19.382-303.917,32.286-448.526,21.123-234.169,54.919-429.083,103.923-590.126,22.915-75.226,51.846-146.07,84.8-170.538,47.007-35.148,91.352-1.461,132.317.822h9.678c48.825-3.1,95.013-51.125,133.879-154.014,41.4-109.553,74.1-290.68,74.249-499.287" transform="translate(-10.692 -73.159)"/><path class="f" d="M144.36,3019.639c28.985-147.732,63.434-280.824,102.413-395.67,16.952-52.371,35.544-97.588,55.405-134.748,40.2-71.575,84.49-88.92,127.657-80.977a152.177,152.177,0,0,1,35.46,11.412c49.7,23.935,98.365,69.938,144.863,136.939,46.086,66.009,89.867,155.2,137.77,228.236,51.693,78.511,104.23,162.594,159.328,202.582,46.854,33.78,97.522,29.488,139.9-45.647a358.332,358.332,0,0,0,22.147-47.654c43.371-112.474,65.672-294.515,80.778-482.308,4.762-59.25,8.807-118.682,12.648-177.749,10.036-153.466,20.892-310.4,35.076-457.566,23.171-238.733,59.451-437.116,111.63-595.876,23.043-69.84,51.206-135.207,83.031-160.221,45.318-35.788,88.433-12.142,128.016-19.537a87.54,87.54,0,0,0,9.371-2.282c47.161-14.607,90.789-74.131,126.428-183.136,37.944-115.944,66.568-296.25,64.648-497.827" transform="translate(-5.028 -105.351)"/><path class="f" d="M148,3116.418c28.266-144.515,62.134-274.011,100.595-384.625,16.782-50.265,35.051-93.857,54.483-130,39.25-70.022,82.416-92.025,124.585-90.108a144.109,144.109,0,0,1,34.871,6.392c48.948,16.513,97.118,54.917,143.378,114.3,45.855,58.428,89.739,139.77,136.772,209.156,53.1,78.33,106.509,165.423,162.759,207.6,47.827,35.694,99.724,32.774,143.122-42.454a356.558,356.558,0,0,0,22.736-48.2c44.5-113.841,67.311-300.174,82.9-491.984,4.941-60.527,9.192-121.6,13.237-181.4,10.6-156.477,22.4-316.425,37.867-466.511,25.219-243.482,63.88-445.7,119.311-601.81,23.043-64.546,50.643-124.345,81.239-149.816,43.679-36.517,85.54-22.824,123.868-39.894,3.021-1.37,6.042-2.922,9.038-4.565,45.523-26.2,86.564-97.228,118.952-212.351,34.513-122.333,58.887-301.27,55.149-496.365" transform="translate(0.652 -136.487)"/><path class="f" d="M151.62,3214.611c27.528-141.631,60.838-267.792,98.828-374.3,16.6-48.139,34.542-90.11,53.536-125.254,38.4-68.561,80.215-95.221,121.512-99.146a129.518,129.518,0,0,1,34.308,1.279c48.249,8.91,95.986,39.585,142.072,91.292,45.65,50.852,89.611,123.795,135.7,189.8,54.535,78.055,108.813,168.345,166.241,212.806,48.774,37.522,101.9,35.97,146.348-39.713a352.723,352.723,0,0,0,23.3-48.841c45.651-115.763,68.77-305.653,84.977-501.66,5.121-61.715,9.55-124.069,13.826-185.054,11.163-159.49,23.913-322.633,40.632-475.458,27.293-248.047,68.232-455.01,127.017-607.563,23.043-59.524,50.054-113.57,79.37-139.5,41.989-37.066,82.6-33.505,119.618-60.254,2.919-2.1,5.838-4.382,8.731-6.847,43.405-36.319,82.451-120.878,111.5-241.473,31.031-128.907,51.206-307.2,45.625-494.9" transform="translate(6.3 -168.679)"/><path class="f" d="M155.25,3310.688c26.838-138.117,59.58-260.382,97.036-362.346,16.427-46.077,34.044-86.49,52.614-120.689,37.329-66.919,78.038-98.506,118.44-108.093a133.642,133.642,0,0,1,33.719-3.926c47.529,1.652,94.806,24.875,140.689,69.111,45.445,43.184,89.611,107.726,134.749,170.537,55.943,77.69,111.092,171.542,169.723,217.827,49.7,39.439,104.077,39.257,149.548-36.975a342.7,342.7,0,0,0,23.862-49.3c46.8-117.493,70.332-311.311,87.051-511.244,5.274-62.993,9.908-126.534,14.389-188.7,11.752-162.6,25.45-328.659,43.525-484.407,29.341-252.7,72.508-465.144,134.749-613.5,23.723-57.989,49.97-101.607,77.68-129.091,40.325-37.612,79.677-44.185,115.394-80.612,2.816-2.829,5.607-5.933,8.4-9.128,41.852-48.582,78.285-143.383,104.026-270.688,27.6-135.388,43.73-312.59,36.126-493.443" transform="translate(11.964 -199.572)"/><path class="f" d="M158.87,3408.115c26.14-134.933,58.326-253.615,95.269-351.3,16.255-43.918,33.551-82.714,51.693-115.944,36.188-63.292,75.259-102.99,115.368-117.219a155.223,155.223,0,0,1,33.156-9.129c46.8-5.784,93.616,9.8,139.307,46.377,45.215,35.6,89.355,91.294,133.725,151.274,57.377,77.142,113.371,174.1,173.154,222.937,50.643,41.359,106.253,42.545,152.774-34.142,8.537-14.022,16.71-30.7,24.425-49.848,47.929-119.229,71.868-316.971,89.2-521.016,5.453-63.9,10.241-129.089,14.978-192.446,12.315-165.608,26.96-335.14,46.086-492.987,31.389-257.449,76.809-476.1,142.43-619.43,23.65-51.782,49.185-91.717,75.887-118.682,38.661-38.253,76.81-54.777,111.169-100.971,2.714-3.651,5.428-7.4,8.091-11.412,40.338-60.96,74.2-166.042,96.7-300.083,24.144-141.962,36.126-318.159,26.628-491.984" transform="translate(17.612 -231.357)"/><path class="f" d="M162.5,3504.406c25.417-131.752,57.034-246.835,93.451-340.165,48.033-125.808,104.04-207.349,163.041-237.365a161.239,161.239,0,0,1,32.567-14.057c46.07-13.281,92.427-5.3,137.924,23.737,45.01,28.027,89.227,75.5,132.7,132.011,58.887,76.413,115.675,176.927,176.662,228.234,51.59,43.183,108.429,45.648,155.974-31.4,8.743-14.105,17.114-30.971,25.014-50.4,49.081-120.964,73.43-322.542,91.3-530.783,5.633-65.458,10.625-131.554,15.541-196.009,12.8-168.711,28.5-341.348,49-502.117,33.463-262.013,80.855-487.875,150.137-625.182,23.563-45.7,48.462-82.042,74.249-108.366,37-38.891,73.839-65.548,106.944-121.33,2.56-4.382,5.12-9.128,7.681-13.693,38.676-73.311,69.862-188.346,89.1-328.658,20.687-148.353,28.548-323.638,17.1-490.524" transform="translate(23.276 -262.005)"/><path class="f" d="M166.13,3602.4c57.069-300.174,151.059-498.557,250.757-571.044s204.287-25.563,300.222,94.673c60.3,75.592,117.928,179.942,180.067,233.165s132.061,49.208,184.8-79.518c65.979-161.135,88-465.6,109.53-740.121,35.409-451.724,92.171-932.021,209.613-1142.363,58.58-104.714,127.12-131.006,182.525-255.622,76.81-172.911,115.214-536.81,89.227-847.209" transform="translate(28.94 -294.36)"/></g><g transform="translate(-676.512 -1362.475)"><path class="f" d="M-264.23,513.4Q-190.569,261.9-108.87,43.148C-84.7-21.489-59.4-84.664-30.294-113.97,44.109-188.1,119.894-19.3,176.733,166.668c52.541,171.563,99.175,364.789,138.923,575.609,39.3,208.7,72.457,437.116,124.329,607.379S569.818,1621.348,633.826,1515.9c38.072-62.719,65.6-190.166,80.7-329.663S733.55,895.1,734.446,745.564c1.024-171.176-1.1-351.847,21.84-502.117,23.76-155.2,74.4-253.706,123.945-240.1,70.537,19.446,122.511,230.974,173.871,404.342,65.237,220.11,144.735,404.341,233.808,443.963s188.209-94.581,230.121-377.958" transform="translate(264.23 290.715)"/><path class="f" d="M-262,508.887q72.346-247.314,153.056-460.4C-85.108-14.5-60.119-76.125-31.52-104.609c57.479-57.15,115.8,29.123,165.627,155.2Q154.22,101.7,172.742,160.144C224.984,323.852,271.569,509.177,311.511,712.2c39.429,201.03,72.713,422.691,124.226,587.66,28.88,92.572,64.9,166.52,102.413,200.116,32.67,29.214,66.7,27.389,97.574-21.727a252.1,252.1,0,0,0,15.925-30.128c31.415-69.566,54.151-184.231,67.976-307.935,4.369-39.652,8.012-80.272,10.907-121.6,7.681-107.544,10.907-219.106,12.93-329.3,3.277-174.463,4.941-354.221,29.725-503.03S846.437-57.319,894.853-44.812C963.776-27.1,1015.034,173.746,1065.6,336.8c3.968,12.781,8.014,25.562,12.11,38.07,61.78,189.618,135.031,340.983,215.706,370.015,86.1,31.04,181.014-104.806,220.7-382.522" transform="translate(267.71 365.71)"/><path class="f" d="M-259.69,504.57C-212.349,342.4-161.983,191.852-108.939,53.943-85.409-7.315-60.779-67.2-32.667-95.14,23.788-151.377,81.139-70.491,130.374,48.831q19.941,48.479,38.4,104.075c51.871,156.247,98.327,334.005,138.385,529.505,39.608,193.178,73.1,407.993,124.2,568.123,30.16,93.85,67.029,170.537,105.587,207.055,33.515,31.68,68.668,31.77,100.595-16.981a236.014,236.014,0,0,0,16.514-30.218c32.618-70.571,55.994-188.8,70.511-316.152,4.605-40.7,8.5-82.378,11.649-124.8,8.347-110.192,12.8-224.492,16.156-336.327,5.53-177.658,10.907-356.047,37.585-503.852C815.309-10.785,862.061-104,909.35-92.767c67.311,16.068,117.774,206.142,167.6,358.877q5.914,18.259,11.931,35.6c60.731,177.293,131.959,315.6,209.946,336.6,83.031,22.367,173.82-115.122,211.277-387.269" transform="translate(271.314 440.597)"/><path class="f" d="M-257.41,533.208c46.482-159.416,96.109-306.747,148.5-440.859C-85.69,32.825-61.392-25.146-33.792-52.717,21.639-108.041,78.017-32.45,126.688,80.481q19.709,45.782,38.021,98.6c51.572,148.45,97.986,318.334,138.257,506.043C342.753,871,376.4,1078.964,427.039,1233.8c31.287,95.585,69.128,175.1,108.737,214.541,34.359,34.144,70.665,36.518,103.616-12.142a224.989,224.989,0,0,0,17.1-30.492c33.822-71.392,57.812-193.178,73.1-324.277q7.215-62.591,12.392-127.812c9.038-112.84,14.543-229.7,19.33-343.357,7.809-180.945,16.8-358.42,45.471-504.673,25.936-132.468,71.074-223.214,117.16-213.08,65.7,14.333,115.521,193.726,164.475,336.053q5.786,16.8,11.726,33.231c59.681,164.786,128.963,290.224,203.98,303.1,79.958,13.694,166.651-125.438,201.855-392.016" transform="translate(274.871 482.347)"/><path class="f" d="M-255.14,579.747c45.576-156.676,94.422-300.787,146.118-431.092C-86.108,90.776-62.169,34.722-35.055,7.608,19.351-47.169,74.757,23.31,122.865,129.85c13.16,29.032,25.782,60.711,37.713,93.3,51.234,140.7,97.548,302.808,137.95,482.854,40.018,178.206,73.967,378.962,124.226,528.867,32.49,97.228,71.2,179.484,111.86,221.844,35.179,36.517,72.636,41.082,106.637-7.3a216.585,216.585,0,0,0,17.692-30.675c35.051-72.4,59.63-197.743,75.657-332.4q7.568-64.328,13.16-131.281c9.755-115.487,16.335-234.9,22.531-350.387,10.036-184.231,22.582-360.338,53.331-505.5,26.422-124.708,69.82-212.715,114.83-203.86,64.008,12.6,113.192,181.31,161.3,313.321,3.789,10.408,7.681,20.724,11.521,30.766,58.631,152.461,125.968,264.753,198.117,269.591,76.81,5.113,159.457-135.663,192.433-396.581" transform="translate(278.413 506.469)"/><path class="f" d="M-252.87,626.125C-208.168,472.2-160.076,331.31-109.057,204.8-86.475,148.657-62.971,94.52-36.242,67.862c53.383-53.5,107.789,11.32,155.36,111.379,13.032,27.388,25.6,57.15,37.381,87.916,50.912,133,97.159,287.325,137.745,459.666,40.2,170.537,74.531,364.08,124.2,509.237,33.745,98.689,73.4,183.775,115.009,229.057,36.024,39.074,74.633,45.647,109.658-2.556a210.137,210.137,0,0,0,18.306-30.766c36.228-73.035,61.448-202.307,78.192-340.618q7.907-65.948,13.928-134.476c10.472-118.134,18.076-240.1,25.6-357.416,12.264-187.335,28.394-362.164,61.32-506.317,26.781-117.222,68.668-202.49,112.654-194.822,62.472,10.955,110.862,168.986,158.227,290.68q5.607,14.333,11.317,28.3c57.607,139.954,122.9,239.373,192.254,236.086,73.84-3.469,152.262-146.07,183.011-401.694" transform="translate(281.955 530.57)"/><path class="f" d="M-250.6,672.392c43.83-151.144,91.168-288.79,141.509-411.463C-86.817,206.153-63.518,154.207-37.4,127.914,14.956,75.238,68.39,134.67,115.4,228.338c12.8,25.471,25.3,53.5,37.073,82.165C203.062,435.9,249.226,582.6,289.959,747.436c40.376,162.96,75.043,349.108,124.1,489.336,35.076,100.423,75.5,188.431,118.235,236.725,36.869,41.357,76.6,50.212,112.654,2.192a206.256,206.256,0,0,0,18.87-31.041c37.457-74.222,63.24-206.781,80.778-348.743,5.581-45.648,10.241-91.294,14.645-137.762,11.189-120.691,19.894-245.216,28.932-364.355,14.44-190.8,33.9-364.081,69.129-507.139C884.336-22.9,924.815-105.068,967.572-99.043c60.859,9.129,108.532,156.569,155.1,267.857,3.661,9.129,7.374,17.437,11.112,25.836,56.557,127.629,120.053,213.993,186.391,202.216,70.767-12.051,145.068-156.113,173.589-405.985" transform="translate(285.497 554.783)"/><path class="f" d="M-248.33,718.927c42.95-148.429,89.537-282.862,139.2-401.693,21.968-52.768,44.908-103.254,70.511-129,51.36-51.764,103.8,2.282,150.214,89.559,12.8,23.736,25.065,49.938,36.792,77.144,50.276,117.479,96.374,256.254,137.284,413.288,40.555,155.2,75.58,334.137,124.15,470.073,36.28,101.519,77.5,192.356,121.308,243.664,37.714,43.821,78.6,54.776,115.726,7.03a197.808,197.808,0,0,0,19.458-31.222c38.661-75.136,65.032-211.346,83.338-356.96,5.812-46.377,10.856-93.759,15.362-140.958,11.957-123.338,21.865-250.419,32.106-371.384,16.693-194.091,39.454-366,76.963-507.869C901.328-22.381,940.5-101.441,982.132-96.146c59.246,7.577,106.2,144.153,151.981,245.125,3.584,7.943,7.246,15.794,10.907,23.371,55.508,115.213,117.006,188.7,180.528,169.168,67.695-20.724,137.9-166.429,164.167-410.823" transform="translate(289.039 578.818)"/><path class="f" d="M-246,797.149c42.024-145.684,87.809-276.907,136.746-391.925,21.66-51.033,44.268-99.6,69.385-124.981,50.31-50.851,101.721-1.735,147.628,78.7,12.6,22.093,24.809,46.377,36.459,71.757,50,109.738,96.071,240.731,137.207,390.1,40.735,147.9,76.144,319.529,124.15,450.537,37.406,102.888,79.472,196.647,124.2,250.876,38.533,46.286,80.573,59.432,118.747,11.777a189.081,189.081,0,0,0,20.047-31.314c39.89-76.138,66.85-215.819,85.9-365.176,6.068-47.473,11.342-95.95,16.181-144.153,12.622-125.986,23.5-255.623,35.281-378.414,19.074-197.378,45.01-368.1,84.849-508.234C918.047,10.651,956.017-65.123,996.5-60.924c57.735,5.386,103.974,131.1,148.933,222.392,3.559,7.121,7.118,14.059,10.728,20.906,54.458,102.8,114.011,163.234,174.665,135.572,64.648-29.305,130.7-176.654,154.745-415.3" transform="translate(292.675 571.075)"/><path class="f" d="M-243.78,900.389c41.2-142.942,86.274-270.926,134.57-382.065,21.353-49.3,43.525-96.041,68.232-120.964,49.286-49.938,99.724-6.208,145.067,67.74,12.469,20.359,24.553,42.817,36.152,66.371,49.629,102.049,95.585,225.293,136.849,367C318.055,1038.7,353.9,1202.208,401.215,1329.38c38.84,104.075,81.7,200.847,127.58,258.088,39.378,48.751,82.57,63.905,121.768,16.616A182.332,182.332,0,0,0,671.2,1572.77c40.965-77.143,68.668-220.384,88.484-373.393,6.273-48.568,11.8-98.141,16.924-147.349,13.339-128.633,25.3-260.827,38.4-385.443,21.2-200.847,50.259-370.38,92.709-509.512C934.963,67.7,971.729-4.426,1011.158-1.5c56.045,4.2,101.542,119.321,145.708,199.66,3.482,6.3,6.99,12.507,10.523,18.259C1220.8,306.8,1278.4,354.268,1336.19,318.573c61.448-37.978,123.51-186.97,145.3-419.952" transform="translate(296.138 538.313)"/><path class="f" d="M-241.51,1003.559c40.331-140.215,84.661-265.022,132.266-372.389,21.02-47.564,42.962-92.389,67.08-116.947C6.1,465.2,55.538,503.541,100.343,571.19c12.315,18.259,24.323,39.165,35.844,60.893,49.3,94.353,95.189,209.811,136.644,343.814,40.965,132.65,77.3,288.489,124.073,411.279,40.146,105.445,83.825,205.321,130.73,265.392,40.223,51.216,84.49,68.654,124.79,21.454a183.867,183.867,0,0,0,21.251-31.77c42.3-77.965,70.46-224.858,91.019-381.518,6.5-49.663,12.315-100.423,17.666-150.544C796.416,978.91,809.5,844.251,824.042,717.626c23.478-203.86,55.533-372.845,100.569-510.334C951.8,124.4,987.569,56.018,1025.795,57.844c54.432,2.465,99.238,106.905,142.584,176.837,3.431,5.478,6.862,10.864,10.241,16.068,52.384,77.965,108.019,112.383,162.938,68.562,58.5-46.469,116.315-197.2,135.876-424.7" transform="translate(299.68 505.714)"/><path class="f" d="M-239.24,1106.068c39.458-137.484,83.041-259.06,129.962-362.529,20.713-45.647,42.3-88.829,65.928-112.93,47.238-48.2,95.7-15.155,139.921,45.647a618.511,618.511,0,0,1,35.537,55.6c49,86.742,94.824,194.64,136.439,321.264,41.247,124.707,77.936,272.786,124.047,391.376,41.477,106.54,85.924,209.977,133.879,272.6,40.965,53.681,86.539,73.036,127.811,26.2,7.508-8.51,14.812-19.164,21.84-31.862,43.525-78.968,72.278-229.421,93.58-389.734,6.759-50.759,12.8-102.523,18.434-153.739,14.773-134.02,28.932-271.143,44.882-399.5,25.731-207.147,60.705-375.675,108.429-511.247,27.037-76.687,61.832-140.958,98.879-140.41,52.845.73,96.934,94.581,139.486,154.1,3.354,4.747,6.734,9.129,10.113,13.6C1241.237,350.153,1295,371.7,1347,319.752c55.457-54.776,109.146-207.511,126.454-429.082" transform="translate(303.222 473.685)"/><path class="f" d="M-237,1209.318c38.6-134.86,81.462-253.243,127.734-352.76C-88.783,812.372-67.61,771.2-44.49,747.553c46.239-47.2,93.707-19.537,137.361,35.148a551.256,551.256,0,0,1,35.23,50.212C176.763,911.7,222.512,1011.6,264.31,1130.349c41.477,117.4,78.55,257.631,124.047,372.114,42.885,107.636,88,213.9,137.028,279.817,41.861,56.146,88.484,77.873,130.806,31.04,7.71-8.468,15.212-19.186,22.428-32.044,44.729-79.882,74.07-233.9,96.165-397.86,6.964-51.946,13.262-104.9,19.177-157.117,15.49-136.941,30.724-276.165,48.057-406.441,28.164-209.976,65.8-378.87,116.315-511.977,26.832-70.662,60.679-130.733,96.6-131.372,51.206-.913,94.6,82.165,136.362,131.463,3.277,3.834,6.605,7.577,9.908,11.046,50.285,53.225,102.054,61.715,151.212,1.643C1404.8,256.756,1454.37,102.926,1469.45-113.35" transform="translate(306.717 441.004)"/><path class="f" d="M-234.69,1312.234c37.707-132.087,79.794-247.269,125.328-342.992,20.1-42.452,40.965-81.708,63.624-104.9,45.215-46.377,91.71-24.01,134.8,24.193a518.576,518.576,0,0,1,34.923,44.825c48.332,71.053,94.007,163.2,135.978,274.338,41.631,109.736,79.216,242.112,124.15,352.4,44.012,108.731,89.969,218.283,140.049,287.119,42.706,58.611,90.482,82.165,133.853,35.879,7.918-8.48,15.626-19.29,23.043-32.318,45.932-80.795,75.888-238.368,98.726-405.985,7.22-53.042,13.749-107.088,19.945-160.312,16.207-139.224,32.618-281.277,51.206-413.471C881.274,657.564,921.779,488.3,975.11,358.3c26.6-64.91,59.527-120.508,94.322-122.334,49.619-2.648,92.171,69.749,133.136,108.64,3.252,3.013,6.478,5.934,9.729,8.673,49.235,40.717,99.059,36.518,145.349-31.862,49.312-72.4,94.732-228.235,107.533-438.759" transform="translate(310.322 408.568)"/><path class="f" d="M-232.42,1415.342c36.8-129.319,78.105-241.276,122.9-333.132,19.765-40.808,40.35-78.148,62.471-100.424,44.191-45.647,89.611-28.575,132.24,13.329a383.842,383.842,0,0,1,34.59,39.439c47.982,63.254,93.566,147.59,135.7,251.059,42.015,101.428,80.061,225.77,124.2,332.128,45.5,109.553,92.171,222.575,143.378,294.333,43.525,61.076,92.453,87.186,136.874,40.717,8.106-8.505,16-19.375,23.606-32.5,47.135-82.165,77.68-242.934,101.286-414.2,7.425-54.137,14.21-109.553,20.662-163.507,16.872-141.871,34.385-286.481,54.407-420.227,32.746-217.006,75.734-387.087,132.061-513.8,26.346-59.341,58.375-110.283,92.171-113.3,48.006-4.291,89.944,57.424,130.09,85.908a112.644,112.644,0,0,0,9.524,6.208c48.185,28.393,96.063,10.864,139.486-65.275,46.239-81.069,87.563-238.369,98.188-443.415" transform="translate(313.864 376.213)"/><path class="f" d="M-230.15,1518.236c35.981-126.67,76.586-235.468,120.719-323.455,19.369-40.613,39.988-73.116,61.447-96.862,43.167-44.551,87.716-32.957,129.654,2.465a332.458,332.458,0,0,1,34.308,34.052c47.675,55.612,93.21,132.287,135.543,228.235,41.861,94.4,80.419,210.524,123.842,312.865,46.879,110.191,94.322,226.956,146.476,301.909,44.37,63.905,94.45,91.294,139.9,45.646,8.31-8.389,16.4-19.294,24.2-32.591,48.339-82.713,79.37-247.5,103.846-422.418,7.681-54.776,14.7-111.469,21.43-166.7,17.641-145.157,36.254-292.141,57.633-428.168,34.9-219.928,80.6-391.743,139.947-514.351,26.09-53.863,57.249-99.967,89.765-104.166,46.393-6.025,87.614,44.917,126.966,63.084a97.889,97.889,0,0,0,9.345,3.835C1282,437.5,1327.9,407.1,1368.459,322.741c43.193-89.559,80.394-248.594,88.766-448.071" transform="translate(317.406 343.614)"/><path class="f" d="M-227.87,1620.989c35.1-123.984,74.963-229.57,118.389-313.595,19.047-38.673,39.223-69.806,60.167-92.845,42.143-43.639,85.719-37.522,127.094-8.49,11.521,8.125,22.864,18.259,34,28.666,47.338,47.714,92.8,116.514,135.313,204.773,42.168,86.911,81.213,195.095,123.97,293.6,48.262,111.2,96.4,230.974,149.6,308.938,45.215,65.824,96.421,96.317,142.917,50.212,8.511-8.395,16.8-19.39,24.784-32.865,49.568-83.535,81.316-251.88,106.407-430.542,7.911-56.329,15.183-113.661,22.2-169.9,18.357-147.166,38.046-296.888,60.833-434.56,37.125-223.214,85.387-397.312,147.807-515.172,25.808-48.751,56.1-89.742,87.486-95.129,44.78-7.669,85.284,32.592,123.842,40.443a78.574,78.574,0,0,0,9.14,1.278c46.086,3.56,90.046-39.9,127.734-132.285,40.12-98.232,73.2-258.91,79.37-452.818" transform="translate(320.963 311.34)"/><path class="f" d="M-225.6,1724.647c34.242-121.322,73.367-223.755,116.085-303.918,18.736-36.639,38.466-66.4,58.887-88.829,41.119-42.726,83.722-42,124.534-19.354a227.412,227.412,0,0,1,33.668,23.371c47.054,39.808,92.5,100.8,135.236,181.492,42.348,79.334,81.93,179.393,123.945,273.883,49.67,111.835,98.5,235.447,152.748,316.151,46.086,68.288,98.419,100.972,145.938,54.778,8.708-8.4,17.2-19.453,25.373-33.049,50.771-84.54,83.133-256.446,108.992-438.761,8.142-57.423,15.644-115.852,23.043-173.458,19.049-149.723,39.839-301.91,64.008-441.5,39.4-226.409,90.123-403.611,155.693-515.994,25.6-43.73,54.944-79.426,85.207-86,43.192-9.129,82.954,20.085,120.719,17.62a43.088,43.088,0,0,0,8.935-1.187c44.526-7.79,87.2-65.849,121.871-165.79C1416.33,217.29,1445.287,54.969,1449.2-133.37" transform="translate(324.505 278.253)"/><path class="f" d="M-223.33,1826.831c33.388-118.6,71.78-217.826,113.781-294.058,18.488-34.763,37.863-63.162,57.863-84.812,40.12-41.9,81.725-46.834,121.973-30.218A162.69,162.69,0,0,1,103.571,1436c46.7,31.972,92.057,85.078,134.98,158.03,42.5,71.666,82.57,163.508,123.893,254.345,51.206,112.383,100.62,239.83,155.9,323.455,46.879,70.754,100.39,105.536,148.959,59.8,8.917-8.324,17.612-19.414,25.987-33.139,51.974-85.542,84.9-261.01,111.527-447.341,8.372-58.52,16.13-118.135,23.709-176.381,19.766-152.369,41.656-307.113,67.208-448.527,41.631-229.7,94.732-410.823,163.553-516.816,26.256-41.615,54.258-67.495,82.877-76.6,41.58-11.138,80.624,7.76,117.57-5.112a75.551,75.551,0,0,0,8.756-3.56c43.613-20.948,84.234-90.733,116.008-199.295,33.975-115.487,58.887-279.451,60.474-462.131" transform="translate(328.047 246.549)"/><path class="f" d="M-221.06,1929.42c32.536-115.89,70.2-211.905,111.476-284.2,18.206-32.784,37.182-59.819,56.711-80.8,39.1-40.991,79.728-51.307,119.387-41.174a159.245,159.245,0,0,1,33.079,12.507c46.325,24.4,91.583,69.836,134.673,135.207,42.68,64.18,83.261,147.622,123.868,234.807,52.563,112.748,102.72,244.121,159.047,330.667,47.724,73.035,102.413,110.191,152.006,64.635,9.087-8.349,17.953-19.5,26.5-33.322,53.178-86.454,86.718-265.574,114.088-455.19,8.628-59.616,16.617-120.326,24.451-179.576,20.483-155.2,43.525-312.317,70.409-455.558,43.909-232.983,99.52-418.949,171.541-517.546,25.878-35.792,53.017-58.679,80.65-68.014,39.966-12.781,78.294-4.565,114.446-27.388,2.868-1.826,5.71-3.926,8.551-6.117,42.679-34.126,81.225-115.632,110.093-232.8,30.929-124.068,51.616-289.676,51.053-466.786" transform="translate(331.589 214.438)"/><path class="f" d="M-218.78,2032.752c31.67-113.268,68.6-206.144,109.146-274.521,17.923-30.775,36.5-56.449,55.559-76.779,37.941-38.994,77.362-56.553,116.827-52.037a143.64,143.64,0,0,1,32.746,7.12c45.983,16.649,91.176,54.3,134.468,112.017,42.86,56.6,83.953,131.738,123.868,215.272,54.1,113.022,104.794,248.595,162.17,337.88,48.646,75.682,104.358,114.757,155.027,69.475,9.308-8.3,18.391-19.547,27.139-33.6,54.381-87.369,88.536-269.957,116.674-463.318,8.833-60.71,17.077-122.516,25.193-182.588,21.225-157.665,45.292-317.521,73.609-462.587,46.086-236.178,104.179-427.9,179.222-518.367,25.459-30.006,51.767-49.937,78.448-59.432,38.4-14.516,75.965-17.072,111.323-50.577,2.791-2.648,5.581-5.478,8.347-8.582,41.762-47.123,78.267-140.187,104.281-265.848,27.856-132.65,44.447-299.992,41.631-471.533" transform="translate(335.146 181.676)"/><path class="f" d="M-216.51,2135.3c71.3-258.179,173.845-392.565,275.515-399.959s202.265,106.084,290.519,286.115c55.482,113.206,106.893,252.794,165.32,345.183s127.4,133.29,185.776,40.535c73.071-116.035,110.094-401.238,145.2-657.318C903.5,1328.08,983.484,892.151,1109.759,760.87c62.907-65.367,131.651-47.108,192.459-134.111,84.311-120.691,140.408-453.914,130.576-776" transform="translate(338.688 149.24)"/></g><g transform="translate(-109.37 -691.099)"><path class="f" d="M-41.8,5280.524c-10.753-310.4,75.171-572.688,161.837-620.8s173.615,51.307,259.514,115.121,182.5,84.814,254.239-95.221c91.71-230.151,112.91-714.282,207.385-930.468,73.532-168.438,169.262-118.044,244.587,7.3,42.6,70.843,78.832,190.074,119.541,273.153C1389.976,4406.2,1402.445,5175.9,1559.316,5290.655c169.749,124.436,261.92-170.9,293.975-375.31,40.965-262.287,109.556-943.068-58.222-1416.154-68.181-192.175-135.466-397.038-185.6-650.1-75.094-378.779-74.582-958.041,21.43-1271.088,65.8-214.541,166.856-293.054,211.559-568.123,30.032-184.87,25.936-423.239,0-616.143S1771.822,48,1722.894-75.7" transform="translate(42.717 75.7)"/><path class="f" d="M-40.565,5269.489c-7.425-319.53,78.038-595.24,167.291-650.2,87.051-53.588,175.51,45.193,261.408,115.579,84.874,69.657,179.222,101.154,250.6-62.444C730.09,4463,755.77,4003.422,850.015,3790.068c75.068-168.986,169.262-137.58,246.4-28.027,44.319,62.993,83.594,175.376,126.224,259.55,180.784,357.142,195.762,1101.829,349.125,1215.032,165.063,121.513,256.748-157.937,290.058-359.515,42.219-255.625,107.533-911.3-51-1378.542-65.365-192.812-130.166-401.694-179.5-653.027-72.867-369.923-73.532-928.46,17.077-1238.859,62.7-214.724,160.122-302.183,204.62-573.692,30.545-185.692,28.676-420.592,6.119-614.866C1836.35,221.567,1794.771,60.433,1747.866-72.4" transform="translate(45.371 102.527)"/><path class="f" d="M-39.233,5258.253c-4.1-328.2,80.906-617.607,172.744-679.32,87.588-58.793,177.4,38.982,263.3,116.125,83.876,75.319,175.714,117.4,246.994-29.853,90.968-188.613,120.975-624.362,215.246-834.062,76.477-170.263,169.365-157.39,248.2-63.358,46.086,54.775,88.331,160.586,132.932,245.945,176.662,338.519,194.174,1057.278,344.234,1168.567,160.3,118.678,251.423-144.886,286.013-343.177,43.346-248.5,105.562-879.893-43.73-1342.021-62.6-193.635-124.918-406.168-173.436-656.132-70.665-360.885-72.483-899.062,12.8-1206.449,59.578-214.449,153.311-310.765,197.63-578.712,31.057-186.423,31.415-418.127,12.085-613.679-19.714-199.477-57.812-369.193-102.848-511.247" transform="translate(47.931 129.192)"/><path class="f" d="M-37.8,5246.7c-.768-337.149,83.774-639.969,178.2-708.532,88.049-63.906,179.222,32.685,265.2,116.675,82.852,80.886,172.309,133.653,243.358,2.83C739.566,4489.784,774,4078.32,868.2,3871.722c77.962-170.994,169.544-177.383,250.015-98.69,47.9,46.834,93.042,146.071,139.614,232.436,172.514,320.624,192.715,1012.724,339.37,1122.915,155.488,115.944,246.072-131.827,281.942-326.832,44.447-241.564,103.616-849.036-36.484-1304.592-59.835-194.549-119.439-410.824-167.342-659.052-68.156-352.667-71.458-869.849,8.372-1174.223,56.506-215.363,146.476-320.9,190.769-585.012,31.441-187.792,34.206-416.028,18.1-612.492-16.642-203.038-51.206-381.061-94.45-531.97" transform="translate(50.386 156.262)"/><path class="f" d="M-36.28,5235.641c2.56-346.1,86.641-662.249,183.677-737.659,88.459-68.834,181.117,26.292,267.066,117.042,81.93,86.455,168.981,149.992,239.748,35.513,90.226-147.076,129.091-534.253,223.208-737.749,79.37-171.814,169.8-197.652,251.807-134.019,49.773,38.616,97.779,131.279,146.3,219.1,168.213,303.552,191.255,968.265,334.505,1076.722,150.7,113.293,240.67-118.682,277.9-310.4,45.523-234.625,101.7-818.723-29.213-1267.434-57.1-195.645-114.113-415.842-161.3-662.064-65.877-343.813-70.434-840.819,4.02-1141.815,53.459-216.184,139.716-330.484,183.882-591.22,31.9-188.157,37-413.562,24.093-611.214-13.544-206.781-44.831-392.564-86.052-552.968" transform="translate(52.761 182.846)"/><path class="f" d="M-34.76,5224c5.914-354.952,89.611-684.251,189.13-766.87,88.92-73.765,183.011,19.9,268.961,117.584,80.855,91.933,165.576,166.795,236.112,68.2,89.944-125.713,133.136-489.153,227.2-689.634,80.957-172.547,170.082-218.194,253.625-169.261,51.642,30.219,102.413,116.674,152.979,205.229,163.86,287.031,189.8,923.71,329.615,1030.618,145.938,110.467,235.37-105.719,273.954-294.151,46.547-227.685,99.852-788.87-21.993-1230.094-54.355-197.011-108.762-420.592-155.181-665.077-63.573-335.049-69.436-812.516-.307-1109.587,50.31-216.458,132.829-339.34,176.815-596.15,32.414-188.979,39.915-411.463,30.084-610.027-10.395-210.615-38.4-404.8-77.629-573.966" transform="translate(55.133 209.916)"/><path class="f" d="M-33.24,5212.772c9.243-363.9,92.376-706.344,194.584-795.995,89.381-78.514,184.88,13.327,270.856,118.135,79.856,97.229,162.17,183.138,232.5,100.427,89.611-104.811,137.233-443.966,231.171-641.437,82.442-173.459,170.415-239.009,255.417-204.59,53.562,21.729,107.123,102.158,159.687,191.717,159.3,271.237,188.337,879.53,324.75,984.882,141.1,108,229.942-92.846,269.806-277.808,47.571-220.93,97.983-759.75-14.747-1192.94-54.5-208.544-104.352-431.917-149.113-668.087-61.448-326.1-68.463-783.578-4.66-1077.271,47.238-217.462,126.146-348.744,169.979-601.9,32.875-189.8,42.757-409.545,36.075-608.749-7.22-214.724-31.825-416.849-69.128-595.055" transform="translate(57.504 236.662)"/><path class="f" d="M-31.72,5201.38c12.6-372.753,95.244-728.249,200.037-825.205,89.867-83.168,186.9,6.755,272.75,118.684,78.858,102.614,158.74,199.568,228.867,133.56,89.2-83.989,141.3-398.861,235.165-593.408,83.953-174.007,170.773-260.19,257.235-239.922,55.456,12.963,111.758,87.733,166.42,178.023,154.592,255.623,186.9,834.7,319.886,938.5,136.311,104.9,224.54-79.7,265.761-261.468,48.646-214.082,96.242-731.171-7.476-1155.689-51.669-212.542-99.441-436.739-143.019-671.2-59.041-317.245-67.515-755.366-9.012-1044.857,44.165-218.466,119.387-357.963,163.066-607.471C1949.4,989,1964.095,776.568,1960,563.371c-3.968-219.105-25.322-429.082-60.807-615.961" transform="translate(59.876 263.57)"/><path class="f" d="M-30.2,5190.318c15.874-381.7,98.111-750.163,205.491-854.6,90.328-87.731,188.644,0,274.645,119.138,77.859,107.726,155.385,215.912,225.308,166.157,88.792-63.174,145.4-353.491,239.133-545.028,85.463-174.644,171.157-281.547,259.027-275.249,57.4,4.108,116.417,73.033,173.052,164.329,149.881,241.018,185.418,790.15,314.919,892.306,131.523,102.25,219.137-66.733,261.741-245.03,49.516-207.421,94.6-702.967-.256-1118.536-46.086-202.308-92.786-434.56-136.926-674.115-56.788-308.391-66.568-727.431-13.365-1012.542,40.965-219.745,112.654-367.276,156.179-613.222,32.007-181.459,48.69-391.932,48.057-606.284-1.01-225.3-19.122-445.422-52.409-636.959" transform="translate(62.248 290.154)"/><path class="f" d="M-28.68,5178.757c19.254-390.559,101-771.891,210.944-883.542,90.814-92.3,190.539-6.665,276.514,119.685,76.809,112.84,151.955,232.158,221.621,198.838,88.433-42.36,149.5-308.3,243.23-496.912,87.051-175.286,171.541-303.187,260.845-310.4,59.323-4.929,121,59.159,179.734,150.909,145.093,226.68,183.933,745.6,310.105,846.2,126.735,99.419,213.684-53.773,257.7-228.783,50.464-200.846,93.093-676.214,7.015-1081.283-43.525-204.59-87.512-439.126-130.858-677.13-54.535-299.352-65.774-699.768-17.717-980.224,37.918-221.2,105.894-376.4,149.215-618.79,32.608-181.271,51.25-389.972,54.048-605.1,2.5-229.67-12.755-457.37-44.089-658.23" transform="translate(64.619 317.143)"/><path class="f" d="M-27.16,5167.775c22.582-399.5,103.9-793.619,216.4-912.94,91.3-96.681,192.459-13.42,278.434,120.142,75.913,117.952,148.5,248.595,218.011,231.521,88.024-21.542,153.619-262.925,247.1-448.709,88.51-175.832,171.9-325,262.663-345.82,61.217-14.059,125.583,45.1,186.391,136.94,140.28,212.807,182.5,701.138,305.266,800.192,121.922,96.68,208.2-40.991,253.625-212.44,51.411-194,91.71-649.923,14.261-1044.038-40.709-207.33-82.186-443.781-124.764-680.141-52.307-290.5-65.006-672.381-22.07-947.908,34.744-222.849,99.161-385.625,142.277-624.451,34.846-192.9,54.816-402.151,60.04-603.819,6.069-233.743-6.255-468.893-35.589-679.045" transform="translate(66.991 343.645)"/><path class="f" d="M-25.64,5155.816C.3,4747.734,81.151,4340.563,196.186,4213.847c91.787-101.153,194.354-20.358,280.354,120.693,74.915,122.88,145.119,264.75,214.349,264.2,87.64-.821,157.716-217.646,251.09-400.6,90.046-176.38,172.232-346.918,264.455-381.06,63.163-23.373,130.192,31.131,193.1,123.7,135.39,199.293,181.014,656.585,300.376,754,117.16,93.943,202.726-28.027,249.579-196.008,52.307-187.427,90.533-624.27,21.532-1006.881-37.918-209.977-76.809-448.346-118.7-683.152-50.08-281.459-64.315-645.267-26.423-915.59,31.518-224.674,92.427-394.846,135.364-629.929,35.358-193.726,57.94-400.324,66.031-602.541,9.628-237.822.2-480.5-27.191-700.043" transform="translate(69.363 371.122)"/><path class="f" d="M-24.12,5145c29.264-417.4,109.709-836.8,227.3-971.37,92.171-105.442,196.3-27.387,282.249,121.238,73.942,127.812,141.714,281,210.74,296.8,87.255,19.991,161.812-172.179,255.058-352.306,91.583-176.926,172.591-369.282,266.273-416.481,65.057-32.776,134.724,17.345,199.7,110.192,130.448,186.056,179.5,612.948,295.486,707.892,112.321,92.024,197.144-15.337,245.56-179.665,53.178-180.946,89.611-599.346,28.752-969.724-35-213.447-71.689-452.91-112.654-686.166-47.878-272.422-63.726-618.336-30.724-883.178,28.163-226.685,85.694-403.978,128.425-635.682C2007.9,1092.091,2033.17,888.141,2044.1,685.1c13.206-241.869,6.684-492.169-18.793-721.223" transform="translate(71.734 397.462)"/><path class="f" d="M-22.6,5133.193c32.593-426.25,112.654-858.161,232.758-1000.306,92.786-109.552,198.22-34.418,284.195,121.692,72.995,132.742,138.257,297.346,207.1,329.573,86.872,40.625,165.934-126.809,259.053-304.19s172.9-391.562,268.065-451.814c66.952-42.27,139.281,3.834,206.464,96.588,125.455,173.457,178.044,568.487,290.647,661.881,107.533,89.193,191.691-2.649,241.489-163.323,54.048-174.556,88.741-575.154,36.024-932.477-32.081-217.1-66.389-457.475-106.586-689.18-45.676-263.474-63.214-591.768-35.128-850.861,24.835-228.966,78.986-413.2,121.513-641.432,36.51-195.1,64.289-396.4,78.013-600.167,16.8-245.665,13.2-503.456-10.369-741.947" transform="translate(74.106 424.695)"/><path class="f" d="M-21.07,5121.888c36.024-435.2,115.521-879.618,238.289-1029.706,93.3-113.934,200.165-41.54,286.038,122.244,72.073,137.486,134.9,313.5,203.494,362.162,86.487,61.348,170.031-81.251,263.021-255.624,94.732-177.843,173.18-414.018,269.883-487.053,68.821-52.038,143.787-9.586,213.146,82.985,120.514,160.771,176.662,523.936,285.757,615.78,102.72,86.365,186.186,9.95,237.444-147.074,54.919-168.073,88.228-551.236,43.269-895.231-28.881-220.932-61.064-461.947-100.441-692.192-43.525-254.344-62.856-565.292-39.454-818.543,21.327-231.247,72.252-422.326,114.574-647,36.894-195.826,67.49-394.39,84-598.98,20.4-249.528,19.725-514.963-1.946-763.127" transform="translate(76.493 451.522)"/><path class="f" d="M-19.55,5110.907c39.25-444.056,118.44-900.89,243.64-1059.013,93.81-118.134,202.265-48.75,287.933,122.791,71.126,142.145,131.5,329.751,199.858,394.844,86.1,82.169,174.1-35.784,267.015-207.871,96.216-178.3,173.436-436.571,271.675-522.387,70.69-61.716,148.293-22.64,219.854,69.385,115.5,148.718,175.1,479.383,280.867,569.672,97.932,83.626,180.63,22.55,233.4-130.64,55.764-161.773,88-528.046,50.541-858.164-25.6-225.131-55.815-466.421-94.373-695.114-41.323-245.306-62.6-538.634-43.807-786.225,17.743-233.712,65.544-431.546,107.533-652.66,37.432-196.556,70.741-392.565,90.021-597.7,23.979-253.238,26.216-526.233,6.427-784.033" transform="translate(78.865 478.024)"/><path class="f" d="M-18,5099.426c42.5-452.909,121.308-922.069,249.016-1088.043,94.322-122.425,204.108-56.145,289.828,123.156,70.229,146.893,128.016,346,196.248,427.532,85.719,102.615,178.3,9.768,270.984-159.673,97.779-178.571,173.692-459.209,273.493-557.626,72.508-71.573,152.748-35.513,226.537,55.781,110.452,136.941,173.641,434.833,276,523.574,93.119,80.793,175.074,34.965,229.353-114.3,56.583-155.655,88.024-505.04,57.761-820.824-21.993-229.6-50.566-470.985-88.254-698.217-39.173-236.177-62.5-512.525-48.185-753.906,14-236.178,58.887-440.586,100.723-658.23,37.944-197.287,73.993-390.1,95.986-596.515,27.595-256.871,32.771-537.485,14.85-805.031" transform="translate(81.284 504.933)"/><path class="f" d="M-16.51,5087.875c45.932-461.857,124.354-943.341,254.546-1116.98,94.732-126.535,206.105-63.451,291.722,123.7,69.308,151.548,124.738,361.614,192.613,460.21,85.438,122.609,182.448,55.235,274.978-111.467,99.34-179.028,173.9-482.034,275.285-593.414,74.249-81.432,157.2-47.928,233.219,42.27,105.434,125.073,172.258,389.461,271.137,477.47,88.382,77.324,169.518,47.381,225.308-97.96,57.4-149.541,88.408-482.123,65.032-783.667-18.933-245.241-46.551-480.88-82.186-701.231-37.022-226.957-62.523-486.051-52.538-721.222,10.241-238.644,52.128-449.715,93.784-663.891,38.4-197.926,77.27-387.817,102-595.328,31.192-260.414,39.3-548.614,23.248-825.937" transform="translate(83.608 532.003)"/><path class="f" d="M-15,5076.569c49.286-470.895,127.324-964.521,260.026-1146.47,95.372-130.643,208.128-70.845,293.617,124.251,68.437,156.114,121.359,377.956,189,492.984,85.054,143.427,186.57,100.883,279.074-63.262,100.9-179.3,174.1-504.766,277.1-628.289,76.118-91.294,161.607-60.07,239.9,28.576,100.364,113.752,170.773,345,266.273,431.456,83.594,74.589,163.86,59.616,221.262-81.616,58.222-143.513,89.125-458.936,72.277-746.511-14.97-247.369-40.641-484.926-76.092-704.152-34.9-217.827-62.651-459.574-56.89-689.27,6.042-240.926,45.446-458.754,86.871-669.551,39.019-198.564,80.547-385.352,107.994-594.05,34.771-263.941,45.823-559.741,31.646-846.935" transform="translate(85.964 558.831)"/><path class="f" d="M-13.47,5065.5c52.589-479.75,130.269-985.975,265.453-1175.411,95.909-134.659,210.151-78.331,295.512,124.707,67.567,160.678,117.954,394.3,185.367,525.582,84.7,164.328,190.795,147.076,282.94-15.157,102.566-178.844,174.255-527.586,278.9-663.616,77.911-101.336,166.011-71.664,246.609,15.063,95.269,102.523,169.314,300.723,261.382,385.26,78.781,71.848,158.33,71.848,217.192-65.274s90.123-435.2,79.549-709.172c-9.4-243.205-34.974-483.856-70.025-707.252-32.8-208.608-62.907-432.643-61.243-656.861,1.818-243.116,38.865-467.608,79.933-675.576,39.685-198.93,83.85-383.435,113.985-592.864,38.373-267.38,52.381-570.8,40.069-867.933" transform="translate(88.352 585.414)"/><path class="f" d="M-11.95,5054.056C43.967,4565.174,121.366,4047.9,258.957,3848.972c96.5-138.219,212.2-85.907,297.406,125.255,66.568,165.242,114.574,410.823,181.782,558.17,84.311,184.962,194.891,192.451,286.909,33.049,104.1-179.3,174.383-550.412,280.713-698.947,79.677-111.286,170.338-82.619,253.266,1.554,90.3,91.294,167.854,255.622,256.518,339.158,74.019,69.109,152.749,83.9,213.172-48.937,59.835-131.552,91.378-410.821,86.769-672.014-4.353-247.043-29.8-488.421-64.008-710.175-30.724-199.477-63.265-405.436-65.6-624.633-2.56-244.851,32.132-476.738,73.02-680.781,40.2-199.752,87.051-380.422,119.977-591.585,41.97-270.7,58.947-581.678,48.518-888.747" transform="translate(90.723 612.566)"/><path class="f" d="M-10.43,5042.477C48.841,4544.921,125.8,4014.96,265.93,3808.725c97.01-142.69,214.273-93.484,299.3,125.8,65.851,169.718,111.169,426.8,178.172,590.582,83.953,205.686,198.988,237.82,290.9,81.252,105.613-179.941,174.511-573.328,282.505-734.28,81.444-121.421,174.69-93.028,259.974-12.141s166.421,211.528,251.628,293.144c69.129,66.28,147.167,95.952,209.127-32.592,60.654-125.8,92.914-384.622,94.04-634.768s-24.707-492.988-57.863-713.278c-28.6-190.166-63.726-377.594-69.948-592.226-7.118-246.493,25.4-485.958,66.082-686.439s90.43-377.866,125.968-590.4c45.525-274.079,65.43-592.677,56.839-909.745" transform="translate(93.095 639.393)"/></g><g transform="translate(923.07 -2632.193)"><path class="f" d="M425.741,8161.74c-74.608-164.329-78.115-567.757-34.359-838.809s120-450.447,187.748-649.1,132.88-454.1,138.462-766.231c7.169-399.047-85.387-761.392-73.532-1159.434,9.243-309.852,80.24-544.386,154.848-675.575,42.168-74.039,90.917-99.966,134.6-161.135,198.117-276.529,374.164,171.086,497.546-192.539,133.572-394.207,126.761-835.432,102.08-1052.8-31.62-278.537-137.515-895.32-346.052-725.422-84.7,69.019-171.541,127.812-258.361,108.549-129.859-29.122-256.134-393.568-264.429-856.429-5.556-317.247,40.53-647.275,8.347-943.8-21.583-199.386-76.272-337.058-134.6-386.265S418.188-156.882,360.53-98.545" transform="translate(-360.53 1314.308)"/><path class="f" d="M427.673,8192.324c-74.454-179.393-81.213-589.853-37.3-872.315C433.254,7044.3,510.192,6860.616,579.4,6665.978c68.386-192.268,134.314-434.381,143.378-735.652,11.445-385.077-72.918-744.411-60.5-1139.9,10.088-314.51,75.965-556.894,148.242-702.417,41.528-83.718,90.686-122.424,135.7-188.248,191.307-278.63,363.411,146.525,484.309-209.064,129.962-382.612,126.3-812.517,103.13-1031.621-29.392-277.352-131.831-869.76-333.379-722.227-82.98,60.892-169.16,110.556-255.11,90.106-126.556-29.214-249.016-377.409-260.077-823.472-7.681-308.756,34.232-634.311,2.765-928.095C666.422,74.544,613.884-67.783,557.276-126.85c-57.121-59.524-118.389-45.008-176.815,2.282" transform="translate(-356.547 1282.633)"/><path class="f" d="M431.132,8227.311c-74.249-194.273-84.337-611.669-40.274-905.726,42.015-280.274,119.644-468.611,190.334-659.054,69-185.874,135.7-414.746,148.217-705.062,15.746-371.02-60.68-727.432-47.494-1120.817,10.728-319.532,71.689-569.311,141.662-729.533,40.965-93.667,90.456-144.883,137.054-215.27,184.7-279.178,352.76,122.7,471.1-224.493,126.377-371.018,125.839-789.511,104.153-1009.8-27.139-276.073-126.2-844.653-320.679-719.032-81.521,52.585-167.035,92.663-252.063,70.936-123.151-29.762-241.95-361.8-255.75-791.245-9.652-300.357,28.163-621.347-2.791-912.393-21.276-203.13-71.689-349.291-126.556-418.127-55.969-70.2-116.9-70.57-176.15-34.235" transform="translate(-354.169 1246.543)"/><path class="f" d="M434.634,8266.386c-74.249-209.064-87.409-633.674-43.218-939.145,41.2-284.654,119.439-477.648,191.614-663.89,69.589-179.757,137.182-395.12,153.107-674.571,20.047-357.048-48.313-710.541-34.462-1101.736,11.47-323.819,67.464-582.272,135.057-756.643,40.248-103.8,90.2-167.251,138.257-242.385,178.172-278.629,342.109,98.869,458.04-239.738,122.767-359.519,125.455-766.872,105.2-988.442C1513.269,2385.042,1417.564,1840.015,1230.2,1944c-79.984,44.369-164.68,74.313-248.888,52.22-119.772-31.5-234.909-346.461-251.423-758.927-11.675-292.141,21.609-608.2-8.347-896.69C700.266,135.829,652.081-15.445,599.006-93.41c-54.816-80.978-115.445-96.133-175.458-70.753" transform="translate(-351.859 1206.285)"/><path class="f" d="M438.132,8309.872c-74.044-223.943-90.482-655.578-46.086-972.555,40.376-289.033,119.234-486.959,192.92-668.911,70.178-173.458,138.615-375.493,157.946-643.989,24.374-342.991-35.844-693.834-21.43-1082.565,12.238-328.658,63.189-595.784,128.5-783.849,39.608-114.118,89.918-189.436,139.46-269.5,171.721-277.351,331.484,75.042,444.932-255.076,119.157-347.831,124.867-743.407,106.253-966.9-22.787-273.426-115.214-795.446-295.358-712.733-78.525,36.518-162.375,56.6-245.79,33.414C883.089,1954.9,771.613,1656.182,752.436,1260.6c-13.749-283.742,15.362-595.055-13.928-880.9-21.148-206.6-67.234-361.981-118.517-449.9-53.766-91.933-113.985-121.6-174.793-107.27" transform="translate(-349.519 1161.7)"/><path class="f" d="M441.673,8356.9c-73.891-238.827-93.5-677.4-49.132-1005.965,39.608-293.424,119-496.185,194.2-673.933,70.767-167.071,140.2-355.593,162.836-613.5,28.855-328.658-23.5-676.489-8.4-1063.394,13.006-333.133,58.887-609.479,121.9-810.966,38.942-124.527,89.611-211.619,140.817-296.613,165.345-275.252,320.833,51.216,431.8-270.412,115.547-336.236,124.354-720.31,107.277-945.349-20.483-272.058-109.915-771.619-282.659-709.629-77.117,27.389-160.071,38.892-242.616,14.607-113.038-33.14-221.006-315.787-242.718-693.836-15.823-275.616,9.063-582.09-19.51-865.193C734.445,214.2,690.51,54.073,640.993-42.882,588.43-146.043,528.467-190.048,466.892-186.67" transform="translate(-347.249 1113.213)"/><path class="f" d="M445.254,8407.789c-73.763-253.7-96.549-699.223-52.1-1039.469,38.84-297.619,118.747-505.5,195.506-678.771,71.279-160.947,141.637-335.959,167.7-583,33.284-314.6-11.086-659.507,4.609-1044.312,13.8-337.788,54.535-623.444,115.214-838.079,38.4-135.206,89.432-233.715,141.918-323.636,159.021-272.7,310.182,27.388,418.663-285.751,111.963-324.732,123.817-697.211,108.327-923.988-18.486-270.5-104.666-748.611-269.985-706.343-79.731,20.789-159.8,19.385-239.466-4.2-109.684-33.962-214.171-300.723-238.365-661.882-17.922-267.583,2.791-569.127-25.091-849.582C751.288,258.8,709.453,93.372,661.728-12.8,610.292-127.286,550.688-185.531,488.293-193.2" transform="translate(-344.992 1061.589)"/><path class="f" d="M448.868,8458.158c-73.609-268.5-99.52-721.223-55.072-1072.889,38.149-301.909,118.517-514.9,196.837-683.792,71.817-155.2,143.07-316.246,172.565-552.423,37.509-300.448,1.357-642.525,17.641-1025.229,14.568-342.264,50.131-637.6,108.711-865.193,37.585-146.072,89.2-255.624,143.147-350.753,152.774-269.409,299.557,3.558,405.528-301.271,108.352-313.138,123.279-674.024,109.376-902.441-16.386-269.043-101.8-800.649-257.337-702.965-73.353,45.648-155.437,3.378-236.291-23.006-106.33-34.6-207.386-285.567-234.038-629.472-20.1-259.64-3.456-556.164-30.724-833.88C769.128,313.525,731.908,139.6,682.753,17.384,632.469-108.6,573.2-180.815,510.009-199.53" transform="translate(-342.692 1010.13)"/><path class="f" d="M452.423,8508.688c-73.481-283.016-102.413-742.679-58.042-1106.394,37.432-305.745,118.235-524.211,198.245-688.633,72.329-148.9,144.53-296.615,177.455-521.93,41.81-286.389,13.8-625.637,30.724-1006.061,15.362-346.917,45.676-652.114,102.131-892.4,36.843-156.935,88.945-277.535,144.351-377.867,146.578-265.573,288.88-20.267,392.394-316.423,104.743-301.272,122.69-650.745,110.4-880.9-14.286-267.583-96.37-785.128-244.638-700.134-72.252,41.357-153.132-14.242-233.142-41.721-102.976-35.33-200.754-270.6-229.712-597.245-22.3-251.7-9.7-543.109-36.2-818.086C786.779,358.273,751.225,180.061,703.974,47.552,654.1-90.848,594.626-178.433,531.9-205.88" transform="translate(-340.512 958.508)"/><path class="f" d="M456.057,8559.438c-73.3-298.165-105.434-764.221-60.987-1139.715,36.741-310.4,117.928-533.793,199.423-693.83,72.841-142.967,145.938-276.9,182.294-491.345,46.086-272.331,26.269-608.657,43.7-986.979,16.181-351.572,41.2-666.446,95.551-919.513,36.1-167.888,88.74-299.262,145.579-404.98,140.459-261.284,278.229-44,379.259-331.67,101.132-289.951,122.127-627.556,111.45-859.534-12.238-265.94-90.865-768.423-231.964-696.94-71.279,36.517-150.8-31.953-229.993-60.527-99.622-35.971-194.175-255.624-225.308-564.837-24.6-243.937-15.951-530.144-41.784-802.383C804.117,402.875,770.168,220.221,724.865,77.68,676.268-73.158,616.98-173.462,553.477-212.27" transform="translate(-338.333 906.561)"/><path class="f" d="M459.726,8609.318c-73.174-313.047-108.378-785.861-64.008-1173.218,36.049-314.328,117.621-543.29,200.7-698.581,73.327-136.942,147.4-257.087,187.184-460.765,50.438-258.178,38.763-591.583,56.737-967.716,17-356.046,36.638-681.327,88.945-946.627,35.307-179.027,88.536-320.807,146.809-432.094,134.391-256.536,267.578-67.833,366.125-346.918,97.548-278.355,121.513-604.276,112.475-837.988-10.241-264.752-85.259-751.076-219.266-693.834-70.485,30.126-148.5-49.573-226.844-79.335-96.268-36.518-187.7-240.56-221.032-532.518-26.935-236.178-22.172-517.181-47.34-786.681-20.355-217.736-53.562-404.25-94.4-545.208C698.521-55.416,639.4-168.437,575.094-218.54" transform="translate(-336.165 855.59)"/><path class="f" d="M463.365,8659.928c-73.02-327.93-111.271-807.5-66.9-1206.633,35.384-318.433,117.314-552.969,202.009-703.514C672.287,6618.5,747.279,6512.418,790.5,6319.513c54.74-244.122,51.206-574.6,69.743-948.82,17.922-360.7,32.055-696.117,82.365-973.742,34.462-190.165,88.382-342.26,148.037-459.118,128.374-251.423,256.927-91.293,353.016-362.435,93.912-266.762,120.847-581,113.5-816.442-8.193-262.836-79.754-642.711-206.618-690.641-69.692-26.384-146.168-67.192-223.669-98.141-92.914-37.157-181.347-225.5-216.68-500.109C880.8,1241.83,881.772,965.849,857.244,699.087c-20.175-219.562-51.206-411.736-90.354-561.093C720.945-37.727,662-163.533,596.86-224.9" transform="translate(-333.992 803.888)"/><path class="f" d="M467.055,8710.373c-72.892-342.812-114.164-829.043-69.871-1240.138,34.744-322.546,116.981-562.646,203.315-708.443,74.249-125.434,150.214-217.826,196.914-399.685,58.887-230.063,63.726-557.624,82.775-929.646,18.69-365.174,27.4-711,75.785-1000.95,33.591-201.394,88.2-363.623,149.241-486.231,122.409-246.492,246.43-114.847,339.882-377.772,90.456-254.439,120.207-557.717,114.548-794.991-6.247-261.1-74.94-624.178-193.944-687.445-68.591-36.518-143.864-84.721-220.52-116.948-89.611-37.614-175.1-209.977-212.353-467.791-31.876-220.384-34.641-491.254-58.5-755.185-20.022-221.479-48.8-419.4-86.334-576.978C743.415-20,684.634-158.625,618.625-231.24" transform="translate(-331.845 752.347)"/><path class="f" d="M470.746,8760.815c-72.739-357.6-117.032-850.585-72.841-1273.549,34.155-326.651,116.674-572.5,204.62-713.466,74.736-119.777,151.647-198.106,201.778-369.194,63.317-215.908,76.246-540.55,95.807-910.472s22.736-725.88,69.129-1028.062c32.7-212.624,88.075-384.714,150.47-513.348,116.494-240.193,235.779-138.675,326.747-392.562,86.846-242.935,119.515-534.527,115.573-773.536-4.276-259.549-70.1-606.922-181.245-684.706-67.515-46.924-141.56-102.157-217.4-135.661-86.18-38.07-168.981-195-208-435.474C920.926,1318.344,914.551,1052.5,891.38,791.3c-19.868-223.4-46.367-426.982-82.314-592.864-43.188-200.588-101.8-352.076-168.7-436.02" transform="translate(-329.724 700.806)"/><path class="f" d="M474.462,8811.8c-72.61-372.479-119.874-872.134-75.811-1306.967,33.54-330.758,116.315-582.455,205.926-718.392,75.2-114.211,153.056-178.48,206.643-338.7,67.592-201.944,88.766-523.48,108.839-891.4,20.483-374.3,17.922-740.669,62.6-1055.178,31.748-223.853,88-405.62,151.673-540.46,110.657-234.169,225.154-162.5,313.638-408.36,83.236-231.337,118.824-511.246,116.622-751.986-2.355-258-65.237-590.582-168.6-681.146-66.389-58.7-139.23-120.142-214.222-155.017-82.852-38.435-162.939-179.393-203.648-403.064-37.176-204.225-47.059-465.6-69.641-723.779-19.714-225.222-43.909-434.651-78.294-608.749C788.428,15.652,729.992-148.7,662.185-243.93" transform="translate(-327.603 649.184)"/><path class="f" d="M478.172,8861.7c-72.457-387.269-122.69-893.584-78.755-1340.379C432.343,7186.54,515.4,6929,606.623,6797.993c75.657-108.635,154.464-158.848,211.533-308.113C890.025,6301.9,919.442,5983.381,940,5617.656c21.327-379.142,13.237-755.64,56.02-1082.38,30.724-235.084,87.947-426.345,152.9-567.487,104.973-228.235,214.5-186.422,300.5-423.786,79.626-219.744,118.082-487.876,117.775-730.354-.461-256.263-60.321-575.152-155.923-677.949-65.237-70.023-136.925-136.942-211.072-173.459-79.37-38.8-157.024-163.69-199.321-370.745-40.069-196.008-53.357-452.544-75.3-708.076-19.535-227.139-41.426-442.411-74.249-624.634C811.018,33.467,752.748-143.79,684-250.27" transform="translate(-325.501 597.644)"/><path class="f" d="M481.9,8912.143c-72.329-402.149-125.455-915.129-81.725-1373.792,32.337-338.792,115.624-602.541,208.512-728.345,76.092-103.069,155.872-139.223,216.4-277.533,76.144-174,113.832-489.427,134.877-853.143,22.2-383.437,8.423-770.431,49.414-1109.5,29.8-246.494,87.947-446.794,154.131-594.6,99.11-221.388,203.827-209.976,287.37-439.032,76.016-208.241,117.339-464.687,118.7-709.081,1.434-254.71-55.226-561.093-143.224-674.845-64.008-82.712-134.622-154.469-207.923-191.717-76.144-39.44-151.187-147.807-194.865-338.794-42.962-186.879-59.553-439.489-80.906-692.282-19.33-229.056-38.891-450.08-70.229-640.519C833.566,51.35,775.466-138.825,705.753-256.61" transform="translate(-323.396 546.104)"/><path class="f" d="M485.674,8962.584c-72.2-417.028-128.3-936.5-84.7-1407.295,31.774-342.81,115.214-612.493,209.792-733.183,76.553-97.774,157.254-119.776,221.262-247.04,80.317-160.59,126.377-472.357,147.884-834.063,23.043-388.183,3.61-785.129,42.86-1136.61,28.778-257.542,88-466.969,155.334-621.714,93.4-214.628,193.048-234.623,274.235-454.368,72.3-197.2,116.571-441.224,119.772-687.719,3.277-253.248-49.977-547.762-130.576-671.741-65.48-101.064-134.312-171.9-204.825-210.8-72.739-39.531-145.349-130.825-190.564-305.927-45.83-177.567-65.621-426.617-86.359-676.58-19.151-230.974-36.356-457.748-66.21-656.4C856.2,69.3,798.279-133.815,727.6-262.95" transform="translate(-321.327 494.563)"/><path class="f" d="M489.431,9013.518c-72.047-431.912-131.063-958.038-87.64-1440.714,31.185-346.914,114.881-622.8,211.1-738.2,76.989-92.388,158.739-100.423,226.127-216.457,84.644-146.527,138.948-455.373,160.941-814.983,24.016-392.564-1.28-800.009,36.254-1163.722,27.7-268.772,88.178-486.965,156.538-648.83,87.742-207.694,182.4-258.453,261.152-469.708,68.668-185.6,115.752-418.218,120.77-666.447,5.121-251.7-44.473-535.166-117.775-668.455-63.452-113.384-131.465-190.876-201.6-229.7-69.487-39.531-139.691-113.752-186.289-273.882-48.9-167.8-71.689-413.745-91.941-660.878-18.946-232.891-33.771-465.6-62.19-672.289C878.966,87.237,821.226-128.819,749.559-269.35" transform="translate(-319.246 442.535)"/><path class="f" d="M493.2,9063.558c-71.919-446.7-133.828-979.5-90.609-1474.216C433.315,7238.5,517.114,6956.217,615.1,6846.208c77.424-87,160.071-80.793,230.992-185.875,88.945-132.557,151.7-438.211,173.948-795.811,25.168-397.13-6.145-814.8,29.674-1190.93,26.678-280,88.357-506.225,157.792-675.575,82.135-200.848,171.746-282.373,247.966-485.048,64.981-174.371,114.933-395.759,121.717-644.9s-38.686-523.114-105.2-665.351c-58.887-126.259-127.734-206.141-198.45-248.5-66.158-39.53-133.981-96.133-181.91-241.382-52-157.3-77.859-400.872-97.5-645.084-18.639-234.991-31.185-472.995-58.2-688.174C901.54,105.345,843.983-123.729,771.3-275.64" transform="translate(-317.205 391.401)"/><path class="f" d="M496.915,9113.759C425.226,8652.178,360.578,8113,403.336,7606.126c30.263-354.765,114.19-643.526,213.71-748.063,77.91-82.164,161.5-61.257,235.882-155.2,93.246-118.684,164.167-421.052,186.9-776.641,26.013-401.691-11.061-829.495,23.043-1218.045,25.6-291.226,88.664-525.212,159.021-702.962,76.6-193.545,161.095-306.11,234.832-500.384,61.448-162.412,114.062-372.023,122.895-623.081,8.705-248.777-32.49-511.247-92.53-662.248-56.737-142.692-125.456-223.122-195.3-267.217-62.83-39.622-128.246-78.148-177.635-209.063-55.124-146.071-84.081-387.909-103.053-629.381-18.485-236.817-28.573-480.572-54.176-704.151-32.867-286.245-90.2-528.262-163.86-691.644" transform="translate(-315.107 340.104)"/><path class="f" d="M500.77,9164.446c-71.689-476.466-139.256-1022.493-96.55-1541.136,29.572-358.965,113.832-654.031,215.067-752.993,78.346-76.687,162.938-41.538,240.669-124.89,97.548-104.439,176.662-403.974,199.986-757.739,26.858-406.257-15.976-844.1,16.514-1245.157,24.477-302.367,89.1-543.75,160.225-730.352S1387.1,3682.7,1458.4,3496.915c57.863-150.818,113.166-348.928,123.894-601.628,10.5-247.407-25.859-499.1-79.831-659.052s-123.049-240.012-192.177-286.024c-59.5-39.622-122.485-59.432-173.282-176.654-58.273-134.384-90.328-375.036-108.634-613.679s-25.962-488.058-50.157-720.035C946.841,141.494,889.66-113.525,814.946-288.32" transform="translate(-313.125 288.32)"/></g></g></g></g></g></svg>