<svg xmlns="http://www.w3.org/2000/svg" xmlns:xlink="http://www.w3.org/1999/xlink" width="414" height="3600" viewBox="0 0 414 3600"><defs><style>.a,.f{fill:none;stroke:#fff;stroke-width:2px;}.b{fill:#f6f6f6;}.c{opacity:0.559;}.d{fill:#ececec;opacity:0.5;}.e{clip-path:url(#a);}.f{stroke-miterlimit:10;}</style><clipPath id="a"><rect class="a" width="414" height="3600"/></clipPath></defs><g transform="translate(-0.353 -1226)"><g transform="translate(0.353 1226)"><rect class="b" width="414" height="3600"/><g class="c"><rect class="d" width="413" height="3600" transform="translate(1)"/><g class="e"><g transform="translate(-85.605 -1168.937)"><path class="f" d="M166.688-52.3c-3.339,186.491-7.529,370.212-12.547,550.18-2.21,79.967-4.707,160.944-9.011,224.831C134.118,886.034,114.852,891.082,98.409,855.6c-15.164-32.719-29.976-88.877-44.123-167.289-14-77.587-27.542-177.745-42.543-210.626S-20.7,497.88-28.788,665.818c-4.807,100.085-5.575,226.706-3.7,342.294s6.188,221.875,10.967,322.177c5.475,114.8,11.829,231.1,12.652,365.874.851,139.6-5.055,282.372-14.47,349.576-13.387,95.615-29.774,35.621-44.791,0-19.072-45.355-39.532-44.995-56.958,65.978s-30.9,352.03-29.106,603.973" transform="translate(154.349 844.112)"/><path class="f" d="M164.3-57.53c-3.245,182.313-7.36,361.8-12.321,537.417-2.21,78.02-4.646,156.905-8.84,219.495-10.724,159.934-29.366,168.732-45.355,138.3a215.35,215.35,0,0,1-11.326-26.247c-10.82-29.525-21.42-71.461-31.675-125.323C41.1,614.007,27.842,520.267,13.179,490.2s-31.194,24.877-39.736,181.278C-29.737,728-31.9,793.134-32.889,862.057c-.629,47.259-.755,95.424-.376,143.134q.245,33.253.779,65.979c1.47,88.259,4.6,174.644,8.017,256.774.337,8.148.68,16.224,1.022,24.373,5.348,125.971,10.995,254.828,11.3,395.8.3,135.706-5.188,274.009-14.365,339.986-13.045,94.318-28.951,40.309-43.476,10.168-1.144-2.379-2.293-4.615-3.448-6.562-17.437-30.429-35.67-18.028-51.228,86.962-16.575,111.911-29.255,347.774-27.249,592.578" transform="translate(153.351 811.63)"/><path class="f" d="M161.942-62.76c-3.161,178.118-7.2,353.371-12.105,524.654-2.171,76.074-4.586,153.012-8.674,214.232C130.748,832.6,112.7,845.073,97.172,819.692a160.243,160.243,0,0,1-11.017-22.57C75.628,771.277,65.3,733.345,55.281,683.769,41.922,617.646,28.943,530.18,14.628,502.707S-15.406,532.343-24.3,677.063c-3.591,58.407-6.52,116.021-8.083,182.432-1.086,46.273-1.644,94.379-1.658,142.773-.01,23.022.1,46.027.32,68.863.928,93.307,4.033,187.479,7.387,276.82.337,8.869.669,17.666,1.006,26.464,5.221,137,10.177,278.119,9.945,425.434-.193,131.6-5.321,265.21-14.244,330.54-12.708,92.874-28.117,44.851-42.156,20.407-1.105-1.947-2.21-3.75-3.315-5.336-16.84-23.8-34.288-5.769-49.057,100.158-15.752,112.92-27.625,343.521-25.415,581.187" transform="translate(152.327 779.148)"/><path class="f" d="M159.541-68c-3.078,173.935-7.049,344.975-11.884,511.963-2.149,74.127-4.531,148.974-8.509,209.112C128.966,805.943,111.6,822.167,96.517,801.76a105.612,105.612,0,0,1-10.7-18.82c-10.23-22.071-20.292-55.876-30.067-101.023C42.709,621.564,30.013,540.443,16.034,515.638S-12.928,549.6-22.088,683.144c-3.989,58.118-7.636,109.747-9.829,174.139-1.556,44.966-2.557,92.86-2.967,141.908-.2,23.944-.251,48.053-.16,72.107.387,98.355,3.47,200.675,6.763,296.939.326,9.518.652,19.036.983,28.843,5.094,148.47,9.393,300.9,8.614,455.647-.63,127.2-5.459,256.631-14.133,320.951-12.348,91.577-27.288,49.538-40.841,30.646a48.052,48.052,0,0,0-3.216-3.967c-16.238-17.233-32.907,6.419-46.891,113.282-14.918,113.93-25.968,338.9-23.537,569.649" transform="translate(151.346 746.604)"/><path class="f" d="M157.148-73.21c-3,169.692-6.894,336.45-11.669,499.056-2.116,72.108-4.475,144.792-8.343,203.487-9.873,149.84-26.642,169.741-41.261,154.382a68.039,68.039,0,0,1-10.387-15.071c-9.943-18.558-19.741-48.478-29.283-89.413C43.5,624.574,31.072,549.438,17.442,527.806s-27.973,37.712-37.305,160.511c-4.42,57.686-8.746,103.475-11.6,165.847-2.029,43.873-3.472,91.934-4.265,142.124-.379,24.557-.586,49.513-.619,74.559-.16,103.4,2.906,213.727,6.133,317.273l.961,30.645c4.989,159.43,8.614,323.041,7.271,485.283-1.011,122.583-5.591,248.122-14.023,311.5-12,90.207-26.454,54.154-39.521,40.886a20.377,20.377,0,0,0-3.1-2.668c-15.63-10.817-31.515,18.6-44.714,126.188-14.072,114.868-24.31,335.011-21.675,558.4" transform="translate(150.358 714.245)"/><path class="f" d="M154.768-78.44c-2.911,165.5-6.739,328.025-11.453,486.293-2.088,70.233-4.42,140.97-8.166,198.3-9.6,146.306-25.741,169.957-39.907,159.646q-5.05-3.678-10.072-11.393C75.525,739.532,66,713.618,56.7,676.957c-12.4-48.888-24.531-117.39-37.824-137S-8.193,581.2-17.63,693.759c-4.851,57.686-9.857,97.2-13.326,157.7C-33.438,893.975-35.31,942-36.481,993.221c-.565,25.22-.935,51.116-1.105,77.3-.7,108.162,2.343,226.706,5.525,337.1.309,10.96.624,21.632.934,32.808,4.851,170.824,7.846,345.4,5.923,515.352-1.337,118.184-5.718,239.614-13.907,302.059-11.708,89.052-25.669,58.984-38.228,51.268a13.3,13.3,0,0,0-2.978-1.3c-15.039-4.038-30.145,30.789-42.543,139.528-13.232,115.876-22.7,330.757-19.813,547.006" transform="translate(149.357 681.763)"/><path class="f" d="M152.3-83.67c-2.829,161.314-6.587,319.607-11.243,473.53-2.066,68.358-4.354,137-8,193.032-9.315,143.061-24.835,170.39-38.543,165.126q-4.89-1.875-9.763-7.644C75.4,729.161,66.148,707.252,57.091,674.9,45.014,631.636,33.162,569.624,20.217,552.9S-6.016,596.736-15.491,699.922c-5.321,57.686-10.973,90.639-15.083,149.118-2.947,41.025-5.264,89.053-6.823,141.475-.755,25.859-1.288,52.725-1.591,80.112-1.243,113.5,1.785,239.757,4.879,357.581q.464,17.45.917,34.9c4.724,182,7.122,367.316,4.575,545.277-1.624,113.57-5.851,230.744-13.813,292.468-11.3,87.539-24.8,63.383-36.891,61.363h-2.862c-14.442,2.6-28.763,43.265-40.388,152.652-12.4,116.887-21.067,326.5-17.962,535.615" transform="translate(148.45 649.281)"/><path class="f" d="M149.832-88.9c-2.737,157.128-6.419,311.194-11.011,460.767-2.033,66.411-4.293,132.966-7.835,187.48-9.028,139.672-23.923,170.679-37.178,170.462q-4.724,0-9.442-3.966c-9.057-7.479-18.047-25.383-26.863-53.5C45.746,634.987,34.176,579.176,21.59,565.115S-5.294,591.073-13.333,705.22c-6.492,43.192-12.083,84.87-16.818,141.258-3.405,39.453-6.167,87.444-8.122,141.114-.942,26.487-1.637,54.351-2.072,83-1.785,118.473,1.221,252.377,4.254,377.194q.453,18.532.9,37.063c4.6,193.176,6.431,389.38,3.227,575.129C-33.848,2169-37.936,2282.715-45.671,2343c-10.962,86.168-23.968,68-35.576,71.6a6.088,6.088,0,0,0-2.763,1.3c-13.84,9.157-27.388,55.162-38.222,165.846-11.553,117.9-19.426,322.249-16.1,524.223" transform="translate(147.525 616.799)"/><path class="f" d="M147.4-94.13c-2.654,152.938-6.264,302.775-10.8,448-2.006,64.392-4.232,129-7.663,182.432C120.2,672.373,105.928,707.2,93.132,711.96a12.482,12.482,0,0,1-9.133,0c-8.763-3.837-17.484-17.711-26.062-41.462-11.437-31.944-22.724-81.41-34.985-93.091s-26.067,27.04-34.095,133.471c-7.017,40.813-13.2,78.453-18.57,133.327-3.851,37.888-7.05,85.885-9.393,140.9-1.127,27.044-1.985,55.856-2.553,85.736-2.326,123.52.663,265.716,3.63,397.312q.442,19.468.873,39.155c4.47,204.353,5.774,411.013,1.879,604.981-2.111,104.125-6.127,213.656-13.586,273.216-10.614,84.8-23.133,72.612-34.255,81.769a23.345,23.345,0,0,0-2.63,2.669c-13.26,15.791-26.006,67.348-36.056,178.97-10.713,118.762-17.785,317.921-14.244,512.757" transform="translate(146.571 584.317)"/><path class="f" d="M144.926-99.36C142.358,49.39,138.821,195,134.351,335.881c-1.978,62.445-4.182,124.962-7.5,177.1C118.389,645.943,104.743,684.16,92.4,693.967q-4.42,3.6-8.84,3.461c-8.47-.139-16.923-10.008-25.26-29.492C47.183,642.049,36.2,598.857,24.254,590.2S-.984,617.821-9.007,716.537c-7.536,38.5-14.315,72.107-20.316,124.745-4.3,36.238-7.952,84.177-10.7,140.537-1.311,27.6-2.329,57.385-3.028,88.548-2.867,128.568.1,278.7,3.006,417.359q.431,20.551.851,41.245c4.343,215.6,5.16,432.646.553,634.977-2.3,99.942-6.276,205.363-13.459,263.988-10.288,83.5-22.321,77.3-32.957,92.081a41.005,41.005,0,0,0-2.514,3.965c-12.641,22.354-24.625,79.319-33.891,192.1-9.873,119.77-16.144,313.666-12.382,501.362" transform="translate(145.668 551.834)"/><path class="f" d="M142.432-104.59c-2.483,144.57-5.95,285.957-10.359,422.478-1.95,60.57-4.122,121.069-7.326,171.832-8.183,129.793-21.205,171.76-33.095,186.614q-4.232,5.336-8.5,7.211c-8.177,3.488-16.361-2.4-24.459-17.594C47.9,645.544,37.186,608.7,25.583,602.712S1.108,631.555-6.9,722.122C-14.959,758.176-22.33,788.1-28.971,838.648-33.5,873.115-37.805,919.192-40.938,978.9c-1.493,28.147-2.674,58.9-3.508,91.36-3.409,133.615-.464,291.747,2.376,437.477q.423,21.63.834,43.264c4.221,226.777,4.58,454.781-.812,664.83-2.453,95.616-6.4,197-13.348,254.612-9.945,82.059-21.47,81.842-31.62,102.322-.8,1.586-1.6,3.316-2.4,5.263-12.045,28.844-23.244,91.721-31.719,205.218-9.039,120.781-14.509,309.414-10.5,490.332" transform="translate(144.781 519.352)"/><path class="f" d="M139.862-109.82c-2.4,140.388-5.8,277.551-10.149,409.715-1.923,58.623-4.061,117.03-7.155,166.568-7.9,126.188-20.3,172.049-31.73,191.95A42.976,42.976,0,0,1,82.64,669.3c-7.88,7.032-15.793,5.078-23.647-5.841-10.5-14.422-20.918-44.923-32.15-48.24S3.19,644.568-4.844,727.781c-8.575,33.818-16.542,59.7-23.813,108.161-4.973,33.1-9.752,79.319-13.26,139.889-1.674,28.687-3.018,60.413-3.989,94.172-3.945,138.806-1.033,304.87,1.74,457.665q.414,22.714.807,45.5c4.1,237.955,4.055,476.991-2.155,694.754-2.6,91.145-6.514,188.345-13.26,245.166-9.575,80.761-20.647,86.53-30.31,112.56-.757,2.09-1.519,4.255-2.276,6.634-11.442,35.55-21.863,103.907-29.553,218.341-8.2,121.79-12.868,305.16-8.669,478.579" transform="translate(143.969 486.87)"/><path class="f" d="M137.293-115c-2.318,136.106-5.649,268.933-9.945,396.591-1.89,56.677-4,112.993-6.989,161.232-7.613,122.583-19.387,172.409-30.388,197.286A75.962,75.962,0,0,1,82.1,654.531c-7.59,10.823-15.238,12.97-22.857,6.417C49.1,652.224,38.931,628.14,28.041,627.491S5.206,657.56-2.794,733.128c-9.089,31.583-17.652,53.216-25.559,100.013-5.409,31.8-10.647,77.371-14.558,139.6-1.853,29.216-3.358,61.912-4.464,96.985-4.492,143.783-1.586,317.778,1.105,477.64q.4,23.652.785,47.591c3.972,249.131,3.575,499.488-3.5,724.607-2.735,86.89-6.63,179.837-13.122,235.5-9.227,79.319-19.813,91.145-28.99,122.582-.724,2.524-1.442,5.121-2.16,7.933-10.846,42.111-20.481,116.165-27.388,231.465-7.359,122.582-11.227,300.9-6.807,467.183" transform="translate(143.152 454.699)"/><path class="f" d="M134.678-120.28c-2.226,132.03-5.477,260.757-9.7,384.189-1.867,54.657-3.945,109.026-6.823,155.9-7.332,119.41-18.481,173.058-29,202.694a163.432,163.432,0,0,1-7.558,18.315C74.3,655.324,66.92,661.477,59.543,659.2c-9.835-2.957-19.713-20.767-30.261-18.676S7.978,691-.791,739.386c-9.083,50.475-18.785,47.158-27.31,91.793-5.845,30.429-11.547,75.713-15.846,139.24-2.043,29.71-3.72,63.376-4.973,99.8-5.033,148.831-2.144,330.757.5,497.542q.387,24.8.762,49.754c3.868,260.38,3.144,522.347-4.851,754.46-2.829,82.708-6.757,171.182-12.984,225.912-8.884,78.021-18.984,96.048-27.675,133.039-.685,2.884-1.365,5.984-2.044,9.228-10.243,48.746-19.1,128.354-25.222,244.59-6.52,123.736-9.591,296.65-4.973,455.791" transform="translate(142.386 421.906)"/><path class="f" d="M132.006-125.5c-2.145,127.823-5.325,252.307-9.487,371.354-1.84,52.783-3.868,105.061-6.63,150.633-7.05,116.093-17.575,173.058-27.625,208.03q-3.586,12.547-7.238,22.065c-7.016,18.2-14.141,28.337-21.293,30.285-9.509,2.812-19.111-8.653-29.316-3.894S9.77,702.366,1.135,744.91c-9.669,47.735-19.89,40.957-29.056,83.644-6.265,28.771-12.453,73.838-17.122,138.374-2.211,30.251-4.04,64.884-5.42,102.609-5.58,154.094-2.713,344.025-.127,518.02q.381,25.743.74,51.845c3.718,271.556,2.763,545.638-6.2,784.385-2.956,78.815-6.912,162.749-12.9,216.324-8.536,76.867-18.15,100.663-26.354,143.421-.646,3.39-1.287,7.212-1.928,10.6-9.647,55.305-17.719,140.536-23.05,257.713-5.685,124.744-7.956,292.395-3.094,444.4" transform="translate(141.676 389.485)"/><path class="f" d="M129.257-130.73C127.2-7.073,124.088,113.2,119.986,227.861c-1.807,50.475-3.823,100.95-6.481,145.369C106.737,485.861,96.836,546.287,87.228,586.6Q83.8,601.017,80.3,612.338c-6.707,21.872-13.547,36.059-20.443,42.4-9.188,8.509-18.5,3.389-28.366,10.889S11.5,713.937,3.026,750.64C-7.25,794.7-17.98,784.963-27.792,825.632c-6.713,27.762-13.343,72.829-18.42,138.591-2.39,30.75-4.383,66.352-5.9,105.421-6.122,158.637-3.271,356.788-.757,537.922q.376,26.824.724,53.864c3.6,282.589,2.459,569.577-7.547,814.31-3.055,74.919-7.039,154.239-12.779,207.02-8.188,75.354-17.321,104.917-25.039,153.517q-.912,5.732-1.812,11.9c-9.05,61.94-16.343,152.725-20.885,270.836-4.845,125.756-6.315,288.429-1.232,433" transform="translate(141.044 357.003)"/><path class="f" d="M126.415-136c-1.974,119.575-5.011,235.734-9.05,346.115-1.71,49.339-3.818,96.161-6.287,139.672C104.592,459.1,95.315,523.495,86.16,568.562q-3.265,16.152-6.63,29.492c-6.417,25.473-12.99,43.64-19.647,54.3-8.84,14.422-17.907,15.5-27.426,25.67S13.119,725.107,4.8,756.186c-10.851,40.452-22.122,28.483-32.565,66.844C-34.91,849.71-42,894.2-47.491,961.548c-2.567,31.241-4.723,67.783-6.381,108.161-6.647,164.333-3.818,369.84-1.354,558.04q.365,27.906.7,56.027c3.47,293.982,2.21,594.023-8.89,844.164-3.155,71.241-7.183,145.729-12.674,197.573-7.868,73.983-16.5,109.316-23.73,163.684-.552,4.327-1.138,8.726-1.7,13.2-8.448,68.575-14.962,164.983-18.719,284.032-4.006,126.764-4.674,283.886.624,421.614" transform="translate(140.504 324.273)"/><path class="f" d="M123.454-141.19c-1.894,115.2-4.863,226.931-8.84,332.7-1.7,47.458-3.761,92.581-6.149,134.7-6.188,105.926-14.84,174.067-23.537,224.11-2.072,11.97-4.177,23.075-6.3,33.242C72.5,612.725,66.2,634.9,59.778,649.829c-8.547,20.046-17.3,27.617-26.476,40.452S14.666,735.853,6.445,761.523c-11.464,36.054-23.205,22.209-34.3,58.84-7.58,25.094-15.139,69.368-21,138.014-2.745,31.775-5.064,69.306-6.862,111.046-7.183,169.02-4.42,382.818-2.006,578.086q.359,28.844.674,58.119c3.348,305.158,1.989,619.259-10.232,874.088-3.249,67.636-7.31,137-12.558,187.983-7.5,72.684-15.663,114.29-22.4,173.995-.553,4.688-1.061,9.59-1.58,14.422-7.793,73.647-13.588,177.744-16.547,297.227-3.171,127.631-3.039,279.56,2.481,410.149" transform="translate(140.078 292.039)"/><path class="f" d="M120.373-146.42c-1.8,111.019-4.7,218.531-8.614,319.869-1.683,45.565-3.685,89.013-5.978,129.793C99.865,405.851,91.837,477.671,83.593,532.76c-1.961,13.2-3.961,25.454-5.984,36.919-5.831,32.814-11.868,58.99-18.045,78.237-8.227,25.815-16.7,39.659-25.537,55.235S16.094,746.992,7.983,767.542C-4.078,798.116-16.36,783.55-28.068,818.018-36.084,841.6-44.107,885.582-50.35,955.527c-2.921,32.265-5.4,70.734-7.343,113.785-7.735,174.067-4.973,395.8-2.63,598.132q.34,29.96.652,60.282c3.221,316.336,1.845,645.362-11.6,903.94-3.315,64.248-7.442,128.567-12.448,178.539-7.127,71.312-14.807,118.831-21.056,184.233q-.735,7.644-1.459,15.792c-7.183,80.9-12.213,189.467-14.365,310.063-2.332,128.639-1.4,275.306,4.337,398.755" transform="translate(139.778 259.557)"/><path class="f" d="M117.065-151.65C115.344-44.8,112.52,58.509,108.672,155.456c-1.678,43.368-3.621,84.894-5.812,124.169-5.636,99.148-13.039,174.717-20.824,234.854-1.856,14.421-3.752,27.906-5.669,40.6-5.54,36.518-11.311,66.723-17.249,90.279-7.9,31.511-16.094,51.7-24.586,69.944S17.316,757.265,9.288,772.984c-12.647,24.661-25.454,9.59-37.8,42.255-8.448,22.353-16.934,66.123-23.57,137-3.1,32.871-5.743,72.43-7.818,116.958-8.288,179.115-5.525,408.85-3.26,618.25.227,20.623.436,41.462.635,62.373,3.094,327.512,1.762,672.329-12.929,933.792-3.509,63.348-7.657,120.225-12.332,169.093-6.8,69.943-14,123.52-19.774,194.689-.453,5.625-.9,11.322-1.343,17.163-6.594,88.223-10.871,201.487-12.216,323.471-1.492,129.8.243,271.054,6.2,387.363" transform="translate(139.705 227.074)"/><path class="f" d="M113.556-156.88c-1.639,102.693-4.392,201.807-8.177,294.343-1.661,41.312-3.547,81.024-5.641,118.833-5.354,95.831-12.155,175-19.465,240.19q-2.619,23.363-5.354,44.346c-5.245,40.208-10.746,74.419-16.442,102.249-7.689,36.752-15.6,65.092-23.647,84.726-8.105,20.767-16.465,39.948-24.437,50.475-13.216,17.811-26.564,3.461-39.548,34.179-8.884,20.983-17.829,64.464-24.863,137-3.264,33.4-6.061,73.893-8.271,119.7-8.84,184.09-6.078,421.757-3.868,638.224q.323,32.448.613,64.9c2.967,338.9,1.735,700.309-14.277,963.717-3.621,58.763-7.719,112.241-12.221,159.5-6.453,68.574-13.166,128.134-18.454,204.713-.414,6.057-.823,12.186-1.227,18.459-6,95.366-9.526,213.028-10.089,336.163-.652,130.659,1.884,266.8,8.061,375.969" transform="translate(139.833 194.592)"/><path class="f" d="M109.789-162.11c-4.343,280.787-18.426,527.61-36.543,688.7s-40.09,240.839-62,257.568c-13.768,10.456-27.68-2.812-41.294,25.886S-57.481,918.2-64.973,1069.053c-9.393,189.138-6.63,434.808-4.508,658.341,3.508,367.749,3.459,778.761-15.034,1059.981-9.21,140.034-22.238,233.7-30.355,384.765-11.249,209.474-10.376,516.291,2.033,714.3" transform="translate(140.212 162.11)"/></g><g transform="translate(49.366 2122.553)"><path class="f" d="M89.94,1349.627c8.595-155.183,17.893-303.507,27.846-444.183,4.42-62.517,9.1-124.745,14.962-162.025,14.989-95.11,32.913-2.741,47.029,112.847,13.017,106.607,25.017,233.034,35.747,376.618,10.619,142.194,20.15,302.851,33.018,408.7s30.526,145.153,42.957,30.719c7.4-68.07,11.851-181.063,13.536-297.083s.856-235.863-.586-352.461c-1.658-133.543-4.072-272.783-.845-401.278,3.348-133.039,13.023-234.926,23.691-249.492,15.177-20.767,28.52,117.174,41.316,225.769,16.249,138.013,35.134,240.766,54.488,226.2s38.918-169.021,44.725-410.436" transform="translate(-89.94 174.798)"/><path class="f" d="M93.57,1391.638C102,1239,111.175,1093.554,121.029,956.179c4.376-61,9-121.644,14.763-158.275,11.575-73.55,24.9-36.054,36.846,36.054q4.826,29.43,9.393,65.4C194.9,1000.152,206.8,1120.577,217.485,1258.1c10.58,136.066,20.061,291.385,32.791,393.129,7.138,57.181,15.6,96.336,23.929,103.4,7.254,6.057,14.453-12.763,20.47-66.483,1.072-9.565,2.093-20.07,3.055-31.439,5.906-70.016,9.492-170.679,11.05-274.008.495-32.762.829-65.9,1-99.221.442-87.466-.077-175.942-.845-262.471-1.21-137-2.823-277.686.818-405.894s12.884-226.418,23.3-241.272c14.824-21.272,27.9,108.738,40.4,209.689.989,8,1.983,15.792,2.989,23.507,15.183,115.876,32.366,196.349,49.825,177.889,18.614-19.686,37.277-173.058,42.67-409.354" transform="translate(-91.564 184.921)"/><path class="f" d="M97.2,1464.183c8.277-150.019,17.322-292.564,27.073-426.66,4.332-59.56,8.906-118.545,14.564-154.6,11.371-72.108,24.426-38.649,36.183,28.843q4.754,27.491,9.271,61.292c12.714,95,24.514,209.449,35.15,340.923,10.531,129.794,19.984,279.993,32.6,378.2,7.409,57.686,16.089,98.642,24.675,107.44,7.459,7.21,14.918-10.166,21.166-64.248,1.115-9.641,2.174-20.314,3.171-31.943,6.155-71.315,9.829-175,11.52-281.218.529-33.973.9-68.337,1.105-102.9.552-89.847.254-180.846-.243-269.466-.762-140.9-1.575-282.444,2.481-410.579,3.868-121.645,12.757-217.837,22.918-233.052,14.459-21.632,27.266,100.229,39.493,193.609q1.442,10.816,2.917,21.632c14.824,106.791,31.454,178.105,48.217,154.814,17.868-24.732,35.636-177.671,40.614-408.128" transform="translate(-93.189 163.932)"/><path class="f" d="M100.82,1539.931c8.124-147.536,17.045-287.3,26.7-418.225,4.276-58.045,8.8-115.371,14.365-150.848,11.155-71.169,23.945-41.1,35.515,21.633q4.69,25.935,9.161,57.973c12.562,89.142,24.262,197.569,34.852,322.969,10.5,124.171,19.918,268.458,32.36,363.063,7.685,58.4,16.575,100.95,25.415,111.478,7.669,9.013,15.4-7.643,21.862-62.084,1.164-9.721,2.272-20.543,3.315-32.376,6.4-72.685,10.161-179.476,11.973-289.009q.851-52.382,1.238-105.781c.685-92.3.58-185.822.354-276.532-.32-144.576-.348-286.988,4.144-415.2,4.061-116.021,12.63-209.112,22.537-224.9,14.1-22.282,26.636,91.793,38.576,177.528q1.414,10.168,2.851,19.9c14.47,97.706,30.542,159.935,46.6,131.813,17.128-29.925,34-182.071,38.57-407.046" transform="translate(-94.809 139.958)"/><path class="f" d="M104.45,1616c7.966-144.833,16.761-281.58,26.31-409.066,4.232-56.6,8.707-112.343,14.166-147.171,10.951-69.944,23.476-43.265,34.852,14.782q4.611,23.66,9.022,53.288c12.409,83.318,24.007,185.743,34.548,305.085,10.442,118.113,19.851,256.777,32.139,347.775,7.962,58.985,17.078,103.259,26.167,115.372,7.868,10.528,15.868-4.974,22.559-59.848,1.2-9.842,2.342-20.807,3.42-32.808,6.63-74.054,10.5-183.947,12.426-296.723q.906-53.778,1.365-108.594c.807-94.677.906-190.8.956-283.672.121-148.18.862-291.385,5.8-419.809,4.249-110.324,12.5-200.748,22.15-216.683,13.741-22.713,26.006,83.356,37.67,161.449.917,6.2,1.845,12.186,2.762,18.1,14.111,88.62,29.631,141.691,45,108.738,16.376-35.044,32.366-186.326,36.515-405.821" transform="translate(-96.433 115.736)"/><path class="f" d="M108.08,1691.879c7.808-142.267,16.477-276.143,25.923-400.343,4.182-55.089,8.6-109.17,13.962-143.421,10.746-68.718,23-46,34.189,7.573,3.061,14.421,6.044,31.438,8.9,49.321,12.259,77.432,23.761,173.837,34.255,287.131,10.4,112.2,19.8,245.167,31.924,332.632,8.238,59.49,17.564,105.494,26.912,119.555,8.072,11.969,16.337-2.452,23.249-57.687,1.242-9.953,2.427-21.062,3.547-33.24,6.89-75.353,10.829-188.346,12.879-304.367q.965-55.233,1.486-111.55c.934-97.056,1.221-195.7,1.558-290.664.553-151.933,2.055-295.642,7.47-424.427,4.42-104.771,12.365-192.238,21.763-208.534,13.376-23.218,25.376,74.92,36.753,145.369.9,5.552,1.8,11.032,2.713,16.3,13.752,79.318,28.73,123.52,43.383,85.735,15.636-40.235,30.73-190.724,34.465-404.738" transform="translate(-98.058 91.7)"/><path class="f" d="M111.71,1767.882c7.651-139.721,16.2-270.728,25.542-391.615,4.138-53.576,8.508-106.07,13.763-139.744,10.536-67.491,22.526-48.383,33.526.506,3.011,13.266,5.95,28.842,8.768,45.211,12.107,71.631,23.509,162.057,33.957,269.321,10.348,106.143,19.735,233.124,31.7,317.273,8.52,59.992,18.056,108.161,27.658,123.593,8.288,13.483,16.807,0,23.94-55.451,1.286-10.006,2.512-21.265,3.669-33.675,7.138-76.723,11.166-192.816,13.337-312.01.691-38,1.21-76.361,1.613-114.434,1.055-99.508,1.542-200.675,2.16-297.8.983-155.536,3.227-300.038,9.127-429.038,4.553-99.076,12.232-183.586,21.376-200.027,13.022-23.723,24.752,66.483,35.846,129.361.873,4.9,1.757,9.734,2.641,14.422,13.4,70.377,27.807,105.276,41.775,62.66C457,711.148,471.2,561.742,474.528,352.63" transform="translate(-99.682 67.541)"/><path class="f" d="M115.34,1843.754c7.494-137.115,15.913-265.207,25.155-382.747,4.089-52.134,8.409-102.971,13.564-136.067,10.332-66.268,22.056-50.907,32.863-6.706,2.961,11.971,5.862,26.1,8.647,41.245,11.952,65.809,23.251,150.208,33.653,251.367,10.3,100.158,19.686,221.226,31.493,302.2,8.807,60.427,18.553,110.036,28.41,127.631,8.475,14.926,17.277,2.667,24.636-53.288,1.329-10.11,2.6-21.537,3.79-34.179,7.387-78.019,11.5-197.142,13.813-319.652.724-38.938,1.282-78.308,1.729-117.319,1.182-101.886,1.873-205.578,2.763-304.8,1.425-159.286,4.381-304.438,10.79-433.727,4.652-93.739,12.105-175.076,21-192.094C380.3,561.4,391.757,643.309,402.575,698.9q1.276,6.491,2.569,12.62c13.039,61.291,26.9,87.105,40.167,39.659C459.456,700.706,472.76,551.805,475.7,348.75" transform="translate(-101.306 43.443)"/><path class="f" d="M119,1919.7c7.341-134.56,15.638-259.787,24.78-374.02,4.039-50.476,8.287-99.869,13.359-132.317,10.127-64.9,21.548-53.072,32.194-13.845,2.917,10.744,5.774,23.435,8.525,37.207,11.8,59.923,23,138.324,33.355,233.483,10.26,94.173,19.641,209.112,31.266,286.917,9.089,60.857,19.045,112.343,29.15,131.668,8.685,16.441,17.752,5.262,25.332-51.124,1.374-10.129,2.684-21.678,3.917-34.54,7.63-79.32,11.835-201.9,14.249-327.3.762-39.948,1.359-80.329,1.856-120.2,1.3-104.339,2.21-210.483,3.359-311.937,1.873-162.892,5.525-308.765,12.453-438.269,4.74-88.476,11.973-166.569,20.614-183.946,12.3-24.733,23.487,49.61,34.018,97.2.829,3.748,1.658,7.21,2.5,10.816,12.708,52.134,25.968,68.863,38.554,16.585,13.4-55.6,25.813-203.632,28.31-401.207" transform="translate(-102.944 19.345)"/><path class="f" d="M122.59,1995.517c7.186-131.968,15.357-254.309,24.393-365.226,4.011-49.1,8.21-96.767,13.161-128.422,9.917-63.816,21.1-55.524,31.531-21.056,2.868,9.518,5.685,20.768,8.4,33.24,11.647,54.077,22.746,126.478,33.051,215.6,10.216,88.116,19.6,197,31.045,271.7,9.393,61.148,19.542,114.653,29.9,135.708,8.89,17.882,18.233,7.859,26.028-48.962,1.415-10.257,2.765-21.95,4.039-34.973,7.879-80.759,12.155-206.083,14.7-334.938.8-40.958,1.436-82.276,1.983-123.088,1.425-106.792,2.525-215.458,3.961-319,2.309-166.641,6.63-313.235,14.116-442.956,4.807-83.285,11.84-157.988,20.222-175.727,11.94-25.237,22.863,41.173,33.112,81.121.807,3.1,1.619,6.129,2.431,9.014,12.326,43.264,25.073,50.475,36.946-6.418,12.658-60.714,24.178-208.03,26.26-400.125" transform="translate(-104.551 -4.628)"/><path class="f" d="M126.22,2072.08c7.028-129.45,15.076-248.937,24.012-356.5,3.939-47.664,8.105-93.742,12.956-124.891,9.713-62.662,20.625-57.686,30.868-28.194,2.823,8.221,5.591,18.1,8.288,28.843,11.5,48.24,22.5,114.64,32.758,197.719,10.166,82.131,19.559,184.884,30.824,256.486,9.669,61.508,20.028,116.959,30.647,139.744,9.094,19.4,18.691,10.456,26.719-46.725,1.457-10.333,2.848-22.173,4.16-35.405,8.127-82.059,12.5-210.481,15.161-342.654.84-41.894,1.514-84.222,2.105-125.971,1.553-109.1,2.856-220.361,4.564-326.071,2.763-170.317,7.735-317.85,15.78-447.5,4.862-78.236,11.713-149.479,19.84-167.578,11.6-25.742,22.227,32.737,32.194,64.9.79,2.523,1.575,4.9,2.37,7.211C431.428,799.455,443.622,797.94,454.8,736,466.706,670.167,477.336,523.716,479,337.03" transform="translate(-106.175 -29.347)"/><path class="f" d="M129.85,2147.578c6.873-126.846,14.8-243.426,23.625-347.631,3.868-46.221,8.011-90.568,12.757-121.213,9.509-61.435,20.155-60.426,30.205-35.332a260.378,260.378,0,0,1,8.149,25.093c11.343,42.4,22.244,102.8,32.46,179.837,10.122,76.145,19.52,172.554,30.609,241.272,9.945,61.723,20.52,119.194,31.393,143.783,9.293,20.839,19.161,12.979,27.41-44.563,1.5-10.486,2.935-22.543,4.287-36.054,8.37-83.285,12.835-214.736,15.614-350.082.878-43.265,1.591-86.529,2.21-128.856,1.658-111.551,3.182-225.336,5.166-333.136,3.2-174,8.779-322.682,17.437-452.186,4.9-73.261,11.6-140.9,19.454-159.285,11.221-26.248,21.6,24.228,31.288,48.888q1.144,2.92,2.3,5.408c11.6,24.877,23.244,14.421,33.7-52.494,11.166-71.026,20.9-216.683,22.155-397.817" transform="translate(-107.8 -53.072)"/><path class="f" d="M133.48,2223.254c6.717-124.307,14.515-238.034,23.238-338.907,3.867-44.706,7.912-87.394,12.564-117.535,9.293-60.138,19.675-62.805,29.537-42.47a161.874,161.874,0,0,1,8.028,21.127c11.188,36.489,21.988,90.86,32.156,161.88,10.078,70.162,19.487,160.3,30.388,226.058,10.26,61.868,21,121.5,32.139,147.82,9.5,22.353,19.636,15.574,28.111-42.328,1.547-10.4,3.026-22.459,4.42-36.054,8.619-84.726,13.172-219.277,16.067-357.941.912-43.841,1.658-88.115,2.359-131.74,1.8-113.93,3.525-230.168,5.763-340.131,3.669-177.6,9.829-327.8,19.1-456.872,4.928-68.5,11.453-132.39,19.072-151.066,10.862-26.751,21,15.721,30.388,32.809.746,1.3,1.486,2.524,2.21,3.606,11.249,15.719,22.327-3.966,32.112-75.569C471.551,649.8,480.391,505,481.237,329.35" transform="translate(-109.424 -77.046)"/><path class="f" d="M137.11,2299.524c6.56-121.779,14.236-232.637,22.857-330.108,3.8-43.264,7.812-84.365,12.36-113.857,9.089-58.984,19.2-64.9,28.874-49.61a97.415,97.415,0,0,1,7.9,17.089c11.035,30.682,21.736,79.124,31.857,144.217,10.033,64.1,19.459,147.819,30.172,210.842,10.553,61.939,21.509,123.735,32.885,151.857,9.707,23.8,20.106,18.1,28.8-40.164,1.588-10.584,3.105-22.885,4.536-36.774,8.84-86.1,13.5-223.534,16.52-365.585.95-44.851,1.746-90.134,2.481-134.625,1.923-116.381,3.868-235.142,6.365-347.268,4.116-181.277,10.851-333.208,20.763-461.488,4.973-63.886,11.321-123.881,18.691-142.917,10.5-27.257,20.343,7.211,29.459,16.729a15.446,15.446,0,0,0,2.16,1.8c10.9,6.635,21.415-22.136,30.5-98.57,9.68-81.554,17.625-225.769,18.072-395.654" transform="translate(-111.048 -101.33)"/><path class="f" d="M140.73,2375.407c6.408-119.233,13.962-227.24,22.476-321.382,3.751-41.677,7.735-81.193,12.155-110.108,8.884-57.686,18.73-67.709,28.211-56.82a50.655,50.655,0,0,1,7.779,13.05c10.88,24.852,21.481,67.264,31.559,126.262,9.989,58.188,19.426,135.417,29.957,195.626,10.851,62.013,22,126.043,33.631,155.9,9.906,25.31,20.575,20.695,29.5-37.929,1.628-10.677,3.184-23.124,4.652-37.207,9.111-87.467,13.84-228.22,16.978-373.228.989-45.86,1.823-92.153,2.608-137.581,2.044-118.762,4.182-240.046,6.967-354.263,4.558-184.956,11.851-338.906,22.426-466.1,4.945-59.417,11.188-115.372,18.3-134.7,10.144-27.761,19.713-1.154,28.553.649h2.088c10.536-2.452,20.5-40.38,28.89-121.646,8.934-86.529,15.989-229.59,16.023-394.356" transform="translate(-112.668 -125.365)"/><path class="f" d="M144.36,2451.776c6.255-116.685,13.689-221.806,22.1-312.516,3.658-41.365,7.67-77.078,11.956-106.429,8.674-56.532,18.233-70.232,27.548-63.959,2.58,1.73,5.138,4.83,7.652,9.014,10.725,18.9,21.227,55.239,31.261,108.159,9.945,52.137,19.393,122.584,29.73,180.271,11.155,62.011,22.492,128.423,34.382,160.007,10.111,26.679,21.045,23.29,30.189-36.054,1.672-10.763,3.27-23.353,4.779-37.64,9.359-88.836,14.172-232.619,17.431-380.945,1.028-46.8,1.9-93.74,2.729-140.393,2.166-121.213,4.508-245.166,7.569-361.4q7.5-282.841,24.089-470.646c4.973-55.163,11.05-106.792,17.918-126.548,9.779-28.267,19.083-9.591,27.625-15.431a11.384,11.384,0,0,0,2.022-1.8c10.177-11.537,19.592-58.551,27.283-144.648,8.188-91.577,14.365-233.989,13.951-393.2" transform="translate(-114.293 -149.96)"/><path class="f" d="M148,2527.41c6.1-114.144,13.408-216.424,21.708-303.792,3.622-39.7,7.564-74.132,11.757-102.68,8.47-55.306,17.785-72.685,26.885-71.171,2.53.506,5.05,2.237,7.525,5.05,10.563,13.042,20.958,43.375,30.94,90.278,9.9,46.149,19.365,110.4,29.515,165.2,11.459,61.868,22.984,130.657,35.123,163.974,10.321,28.193,21.52,25.885,30.885-33.532,1.715-10.856,3.356-23.591,4.906-38.074,9.6-89.917,14.525-237.089,17.89-388.587,1.066-47.806,1.984-96.045,2.856-143.278,2.287-123.592,4.834-249.924,8.172-368.468C381.6,1310.017,389.947,1150.3,401.908,1027c4.973-50.981,10.929-98.212,17.531-118.33,9.426-28.843,18.459-18.027,26.73-31.51.652-1.082,1.3-2.308,1.95-3.605,9.824-20.695,18.68-76.795,25.669-167.723,7.448-96.624,12.708-237.955,11.9-392.048" transform="translate(-115.922 -173.747)"/><path class="f" d="M151.62,2604.134c5.94-111.864,13.129-211.512,21.327-295.639,3.583-38.022,7.454-71.172,11.553-98.93,8.288-54.152,17.31-75.209,26.222-78.309a8.239,8.239,0,0,1,7.4,1.01c10.412,7.037,20.713,31.266,30.658,72.107,9.851,40.165,19.338,97.777,29.283,149.911,11.768,61.651,23.481,132.965,35.874,168.081,10.525,29.637,21.99,28.411,31.581-31.367,1.758-10.951,3.44-23.858,5.028-38.576,9.851-91.434,14.84-241.416,18.338-396.229,1.1-48.745,2.061-97.995,2.983-146.163,2.409-125.971,5.16-254.828,8.768-375.535,5.89-195.917,14.724-359.384,27.41-479.876,4.973-47.014,10.8-89.7,17.128-110.18,9.061-29.276,17.824-26.464,25.813-47.591q.945-2.489,1.884-5.408c9.367-28.686,17.793-95.474,24.062-190.725,6.7-101.816,11.05-242.642,9.846-390.894" transform="translate(-117.542 -198.341)"/><path class="f" d="M155.25,2679.22c5.791-109.09,12.857-205.66,20.94-286.195,3.545-36.392,7.347-68.313,11.354-95.323,8.055-52.856,16.84-77.8,25.559-85.376a10.2,10.2,0,0,1,7.276-3.1c10.257,1.3,20.459,19.646,30.36,54.586,9.807,34.108,19.338,85.086,29.078,134.7,12.072,61.362,23.973,135.49,36.625,172.048,10.724,31.15,22.459,31.007,32.272-29.2,1.8-10.977,3.524-24.008,5.149-38.939,10.1-92.8,15.177-245.885,18.785-403.8,1.138-49.754,2.138-99.941,3.105-149.045,2.536-128.425,5.492-259.588,9.393-382.6,6.332-199.593,15.647-367.389,29.078-484.563,5.119-45.8,10.783-80.253,16.763-101.962,8.7-29.708,17.194-34.9,24.9-63.67.608-2.234,1.21-4.687,1.812-7.21,9.032-38.372,16.893-113.249,22.448-213.8,5.956-106.934,9.437-246.9,7.8-389.74" transform="translate(-119.166 -221.943)"/><path class="f" d="M158.87,2755.35c5.641-106.575,12.587-200.315,20.559-277.472,3.508-34.688,7.24-65.33,11.155-91.576,7.809-49.99,16.241-81.346,24.9-92.585a23.4,23.4,0,0,1,7.155-7.21c10.1-4.568,20.2,7.742,30.062,36.63,9.757,28.121,19.282,72.108,28.857,119.482,12.382,60.93,24.465,137.51,37.366,176.085,10.929,32.667,22.929,33.6,32.968-26.967,1.842-11.075,3.606-24.251,5.271-39.372,10.343-94.172,15.509-250.356,19.249-411.519,1.177-50.473,2.21-101.959,3.232-152,2.657-130.8,5.818-264.706,9.945-389.38,6.774-203.343,16.575-376.04,30.736-489.249,5.1-40.9,10.614-72.442,16.376-93.739,8.343-30.213,16.575-43.265,23.99-79.751.586-2.884,1.171-5.841,1.746-9.014,8.7-48.148,16.012-131.146,20.868-237.016,5.21-112.127,7.8-251.294,5.746-388.588" transform="translate(-120.786 -246.226)"/><path class="f" d="M162.5,2830.612c5.485-104.063,12.308-194.959,20.166-268.674,10.365-99.368,22.451-163.772,35.183-187.48a47.652,47.652,0,0,1,7.028-11.1c9.942-10.49,19.945-4.187,29.763,18.749,9.713,22.136,19.255,59.631,28.636,104.267,12.708,60.354,24.962,139.744,38.123,180.269,11.133,34.106,23.4,36.054,33.659-24.8,1.887-11.14,3.693-24.462,5.4-39.8,10.592-95.542,15.846-254.756,19.7-419.232,1.216-51.7,2.293-103.906,3.354-154.814,2.763-133.255,6.149-269.609,10.575-396.591,7.221-206.948,17.448-385.342,32.4-493.792,5.085-36.1,10.458-64.8,16.023-85.592,7.984-30.718,15.934-51.773,23.078-95.831.552-3.461,1.1-7.21,1.657-10.816,8.346-57.9,15.076-148.762,19.227-259.587,4.464-117.174,6.16-255.621,3.691-387.434" transform="translate(-122.41 -269.641)"/><path class="f" d="M166.13,2907.175c12.315-237.089,32.6-393.78,54.112-451.033s44.084-20.191,64.786,74.776c13.012,59.705,25.448,142.124,38.858,184.162s28.5,38.867,39.88-62.806C378,2525,382.755,2284.526,387.4,2067.7c7.641-356.788,19.89-736.144,45.233-902.28,12.641-82.707,27.432-103.474,39.388-201.9C488.6,826.946,496.886,539.525,491.278,294.36" transform="translate(-124.035 -294.36)"/></g><g transform="translate(-146.315 -1076.135)"><path class="f" d="M-264.23,377.8q15.9-198.649,33.526-371.425c5.216-51.053,10.674-100.951,16.956-124.1,16.056-58.551,32.41,74.775,44.675,221.658,11.338,135.507,21.4,288.124,29.979,454.638,8.481,164.838,15.636,345.251,26.83,479.731s28.017,214.591,41.83,131.308c8.216-49.538,14.155-150.2,17.415-260.38s4.105-229.951,4.3-348.063c.221-135.2-.238-277.9,4.713-396.591C-38.881,41.993-27.952-35.811-17.261-25.067-2.04-9.708,9.176,157.365,20.259,294.3,34.337,468.149,51.492,613.661,70.714,644.956s40.614-74.7,49.659-298.525" transform="translate(264.23 257.325)"/><path class="f" d="M-262,376.17c10.408-130.225,21.44-251.683,33.029-363.638,5.144-49.754,10.536-98.427,16.708-120.924,12.4-45.139,24.99,23,35.741,122.583q4.341,40.367,8.337,86.529c11.274,129.3,21.326,275.68,29.946,436.034,8.509,158.781,15.691,333.857,26.807,464.156,6.232,73.117,14.006,131.524,22.1,158.06,7.05,23.075,14.393,21.633,21.056-17.161,1.185-6.911,2.333-14.862,3.437-23.8C-58.06,1063.066-53.154,972.5-50.17,874.793c.943-31.319,1.729-63.4,2.354-96.047,1.658-84.943,2.354-173.058,2.79-260.092.707-137.8,1.066-279.777,6.415-397.312S-22.8-71.041-12.357-61.162C2.516-47.173,13.578,111.463,24.49,240.247c.856,10.095,1.729,20.19,2.613,30.069C40.435,420.083,56.242,539.637,73.651,562.567c18.581,24.517,39.062-82.779,47.626-302.13" transform="translate(263.232 314.62)"/><path class="f" d="M-259.69,374.7c10.216-128.085,21.085-247,32.531-355.922,5.077-48.384,10.393-95.687,16.459-117.752,12.183-44.418,24.559,19.469,35.183,113.714q4.3,38.291,8.288,82.2c11.193,123.41,21.219,263.81,29.863,418.223,8.547,152.58,15.774,322.248,26.8,448.725,6.508,74.127,14.465,134.7,22.785,163.54,7.232,25.022,14.818,25.094,21.708-13.412,1.229-6.855,2.42-14.831,3.564-23.867,7.039-55.74,12.083-149.119,15.216-249.708.994-32.145,1.833-65.065,2.514-98.571,1.8-87.034,2.762-177.312,3.486-265.644C-40.1,335.9-38.937,195-33.18,78.263-27.71-32.35-17.622-105.972-7.417-97.1,7.108-84.412,18,65.716,28.75,186.352q1.276,14.421,2.575,28.122C44.43,354.506,59.8,463.749,76.63,480.334c17.918,17.666,37.509-90.927,45.593-305.88" transform="translate(262.198 371.832)"/><path class="f" d="M-257.41,398.395c10.031-125.913,20.74-242.281,32.045-348.207,5.011-47.014,10.254-92.8,16.21-114.578,11.962-43.7,24.128,16.008,34.631,105.2q4.253,36.16,8.2,77.876c11.129,117.252,21.145,251.433,29.835,399.692,8.586,146.811,15.846,311.072,26.774,433.366,6.752,75.5,14.918,138.3,23.465,169.452,7.415,26.968,15.249,28.843,22.36-9.59,1.273-6.849,2.507-14.9,3.691-24.084,7.3-56.388,12.476-152.579,15.774-256.126q1.557-49.437,2.674-100.95c1.95-89.125,3.138-181.422,4.171-271.2,1.685-142.917,3.624-283.094,9.812-398.61,5.6-104.628,15.337-176.3,25.283-168.3C11.7-96.335,22.449,45.357,33.013,157.772q1.249,13.268,2.53,26.247c12.879,130.154,27.83,229.23,44.018,239.4,17.255,10.816,35.962-99.076,43.559-309.629" transform="translate(261.178 403.729)"/><path class="f" d="M-255.14,435.777C-245.3,312.028-234.764,198.2-223.609,95.284-218.664,49.569-213.5,5.3-207.647-16.121c11.741-43.265,23.7,12.4,34.078,96.552,2.84,22.93,5.564,47.952,8.138,73.694,11.056,111.129,21.05,239.17,29.769,381.376,8.636,140.754,15.962,299.319,26.807,417.719,7.011,76.795,15.365,141.763,24.139,175.221,7.591,28.843,15.674,32.448,23.012-5.768,1.317-6.833,2.593-14.931,3.818-24.228,7.564-57.182,12.868-156.185,16.326-262.544q1.633-50.808,2.84-103.69c2.105-91.216,3.525-185.533,4.862-276.749C-31.691,309.949-28.984,170.854-22.348,56.2c5.7-98.5,15.067-168.01,24.78-161.016C16.244-94.862,26.858,38.392,37.239,142.66c.818,8.22,1.658,16.368,2.486,24.3C52.378,287.38,66.909,376.072,82.478,379.894,99.053,383.932,116.888,272.742,124,66.659" transform="translate(260.162 422.158)"/><path class="f" d="M-252.87,473.031c9.647-121.574,20.025-232.856,31.034-332.776,4.873-44.346,9.945-87.106,15.713-108.161,11.52-42.255,23.26,8.941,33.526,87.971,2.812,21.632,5.525,45.139,8.067,69.44,10.987,105.046,20.966,226.94,29.725,363.061,8.674,134.7,16.083,287.564,26.8,402.215,7.282,77.949,15.84,145.153,24.818,180.918,7.774,30.862,16.105,36.054,23.664-2.019,1.361-6.805,2.682-14.928,3.95-24.3,7.818-57.686,13.26-159.79,16.873-269.033q1.706-52.089,3.006-106.215c2.26-93.307,3.9-189.642,5.525-282.3,2.646-147.965,6.127-286.05,13.232-399.908,5.779-92.586,14.818-159.934,24.31-153.878C20.857-93.3,31.3,31.517,41.52,127.636q1.21,11.321,2.442,22.353C56.394,260.53,70.483,339.055,85.45,336.459c15.934-2.74,32.857-115.372,39.493-317.273" transform="translate(259.146 440.571)"/><path class="f" d="M-250.6,510.2c9.458-119.38,19.674-228.1,30.537-324.989,4.807-43.264,9.835-84.293,15.47-105.06,11.3-41.606,22.829,5.336,32.973,79.318,2.763,20.118,5.459,42.255,8,64.9,10.917,99.04,20.879,214.914,29.669,345.107,8.713,128.712,16.194,275.739,26.78,386.5,7.569,79.318,16.293,148.83,25.515,186.974,7.956,32.665,16.531,39.659,24.31,1.731,1.4-6.826,2.764-15.021,4.072-24.517,8.083-58.623,13.647-163.323,17.431-275.45,1.2-36.054,2.21-72.108,3.16-108.81,2.414-95.327,4.293-193.681,6.243-287.781,3.116-150.7,7.315-287.565,14.918-400.557,5.834-86.529,14.569-151.426,23.8-146.667C25.409-91.9,35.7,24.556,45.746,112.455c.79,7.211,1.591,13.773,2.4,20.407,12.2,100.806,25.907,169.02,40.222,159.718,15.271-9.518,31.3-123.3,37.46-320.662" transform="translate(258.131 459.069)"/><path class="f" d="M-248.33,547.576c9.268-117.235,19.322-223.415,30.04-317.273,4.74-41.678,9.691-81.554,15.216-101.888,11.083-40.885,22.4,1.8,32.415,70.737,2.762,18.748,5.409,39.443,7.939,60.931,10.849,92.79,20.8,202.4,29.625,326.43C-124.343,709.1-116.784,850.428-106.3,957.8c7.829,80.184,16.724,151.93,26.178,192.455,8.138,34.612,16.962,43.264,24.973,5.552,1.446-6.793,2.85-15.038,4.2-24.661C-42.611,1071.8-36.92,964.214-32.97,849.2c1.254-36.63,2.343-74.054,3.315-111.334,2.58-97.417,4.718-197.791,6.928-293.333,3.6-153.3,8.514-289.079,16.608-401.134C-.239-37.936,8.214-100.381,17.2-96.2,29.983-90.214,40.115,17.659,49.994,97.41c.773,6.273,1.564,12.475,2.354,18.459,11.978,91,25.249,149.046,38.957,133.615C105.913,233.116,121.063,118.032,126.731-75" transform="translate(257.115 477.432)"/><path class="f" d="M-246,609.159c9.069-115.067,18.949-218.712,29.509-309.557,4.674-40.308,9.553-78.669,14.973-98.715,10.857-40.164,21.951-1.37,31.857,62.157,2.718,17.45,5.354,36.631,7.868,56.676,10.789,86.675,20.732,190.138,29.609,308.115,8.79,116.814,16.431,252.376,26.791,355.851,8.072,81.265,17.15,155.319,26.8,198.151,8.315,36.559,17.387,46.941,25.625,9.3,1.49-6.735,2.937-15.006,4.326-24.733,8.608-60.137,14.426-170.462,18.536-288.43,1.309-37.5,2.448-75.785,3.492-113.857,2.724-99.508,5.072-201.9,7.613-298.886C-14.882,309.336-9.285,174.5-.689,63.81,5.2-12.047,13.389-71.9,22.124-68.579,34.583-64.325,44.562,34.967,54.263,107.075c.768,5.624,1.536,11.1,2.315,16.513,11.752,81.193,24.6,128.928,37.692,107.08,13.951-23.146,28.205-139.528,33.393-328.017" transform="translate(256.072 471.516)"/><path class="f" d="M-243.78,689.855c8.89-112.9,18.617-213.988,29.04-301.77,4.608-38.938,9.393-75.857,14.724-95.542,10.636-39.443,21.52-4.9,31.3,53.5,2.691,16.08,5.3,33.818,7.8,52.422,10.71,80.6,20.627,177.945,29.531,289.872,8.84,110.757,16.575,239.9,26.785,340.347,8.381,82.2,17.63,158.636,27.531,203.848,8.5,38.506,17.818,50.475,26.277,13.124,1.533-6.671,3.022-14.941,4.453-24.733,8.84-60.931,14.818-174.067,19.094-294.92,1.354-38.361,2.547-77.516,3.652-116.382,2.879-101.6,5.459-206.011,8.288-304.438,4.575-158.636,10.846-292.54,20.006-402.432C10.587,32.163,18.521-24.8,27.029-22.494,39.124-19.177,48.942,71.75,58.472,135.2c.751,4.975,1.508,9.879,2.271,14.422C72.268,221.013,84.7,258.508,97.17,230.314c13.26-30,26.653-147.676,31.355-331.694" transform="translate(255.079 446.486)"/><path class="f" d="M-241.51,770.5c8.7-110.748,18.269-209.325,28.542-294.127,4.536-37.568,9.271-72.973,14.476-92.37,10.415-38.722,21.084-8.437,30.752,44.995,2.658,14.422,5.249,30.934,7.735,48.1,10.639,74.523,20.541,165.717,29.487,271.557,8.84,104.772,16.68,227.859,26.774,324.843,8.663,83.285,18.089,162.17,28.211,209.617,8.68,40.452,18.233,54.225,26.929,16.945,1.578-6.753,3.111-15.144,4.586-25.094,9.127-61.58,15.2-177.6,19.642-301.337,1.4-39.226,2.658-79.318,3.812-118.9,3.033-103.69,5.857-210.049,8.995-310.062C-6.5,383.643.415,250.172,10.133,141.578,16,76.1,23.719,22.1,31.968,23.538c11.746,1.947,21.415,84.438,30.769,139.672.74,4.326,1.481,8.581,2.21,12.691,11.3,61.58,23.31,88.764,35.161,54.153,12.625-36.7,25.1-155.752,29.321-335.444" transform="translate(254.063 421.581)"/><path class="f" d="M-239.24,850.637c8.515-108.59,17.92-204.615,28.045-286.339,4.47-36.054,9.127-70.16,14.227-89.2,10.194-38.073,20.653-11.97,30.194,36.054,2.63,13.268,5.2,28.122,7.669,43.914,10.574,68.512,20.463,153.734,29.443,253.746,8.9,98.5,16.818,215.457,26.769,309.124,8.951,84.15,18.542,165.848,28.89,215.313,8.84,42.4,18.675,57.686,27.581,20.695,1.62-6.721,3.2-15.137,4.713-25.166,9.393-62.372,15.6-181.206,20.194-307.826,1.459-40.092,2.763-80.977,3.978-121.429,3.188-105.854,6.243-214.159,9.685-315.542,5.553-163.612,13.1-296.722,23.4-403.8,5.834-60.57,13.343-111.334,21.338-110.9,11.4.577,20.918,74.7,30.1,121.717.724,3.75,1.453,7.211,2.182,10.744,11.072,51.845,22.675,68.863,33.9,27.833,11.967-43.264,23.553-163.9,27.288-338.905" transform="translate(253.047 397.111)"/><path class="f" d="M-237,931.343c8.329-106.517,17.579-200.021,27.564-278.623,4.42-34.9,8.989-67.42,13.978-86.1,9.978-37.28,20.222-15.431,29.642,27.761,2.6,11.97,5.144,25.31,7.6,39.659,10.5,62.226,20.373,141.131,29.393,234.926,8.951,92.73,16.951,203.487,26.769,293.91,9.254,85.015,18.99,168.948,29.57,221.01,9.033,44.346,19.095,61.507,28.227,24.517,1.664-6.688,3.283-15.154,4.84-25.31,9.652-63.094,15.984-184.74,20.752-314.245,1.5-41.029,2.862-82.851,4.138-124.1,3.343-108.161,6.63-218.125,10.37-321.023,6.078-165.847,14.2-299.246,25.1-404.379,5.79-55.811,13.094-103.258,20.846-103.763,11.05-.721,20.415,64.9,29.426,103.835.707,3.028,1.425,5.985,2.138,8.725,10.851,42.039,22.023,48.745,32.631,1.3,11.3-50.475,22-171.976,25.255-342.8" transform="translate(252.045 372.144)"/><path class="f" d="M-234.69,1011.791c8.137-104.327,17.219-195.3,27.045-270.908,4.337-33.53,8.84-64.536,13.73-82.851,9.757-36.631,19.791-18.964,29.089,19.108,2.569,10.6,5.105,22.786,7.536,35.4,10.43,56.121,20.286,128.9,29.343,216.683,8.984,86.674,17.094,191.229,26.791,278.336,9.5,85.88,19.415,172.409,30.222,226.778,9.216,46.292,19.525,64.9,28.885,28.338,1.709-6.7,3.372-15.236,4.973-25.526,9.912-63.815,16.376-188.272,21.3-320.662,1.558-41.9,2.967-84.583,4.3-126.621C-7.97,879.906-4.429,767.707-.418,663.3,6.13,494.708,14.87,361.021,26.379,258.34c5.741-51.268,12.846-95.182,20.354-96.624,10.708-2.091,19.89,55.09,28.73,85.808.7,2.38,1.4,4.687,2.1,6.85,10.625,32.16,21.376,28.843,31.366-25.166C119.57,172.027,129.371,48.94,132.134-117.34" transform="translate(251.011 347.363)"/><path class="f" d="M-232.42,1092.394c7.942-102.141,16.855-190.569,26.52-263.121,4.265-32.232,8.707-61.724,13.481-79.318,9.536-36.054,19.338-22.569,28.537,10.528,2.542,9.158,5.039,19.613,7.464,31.15,10.354,49.96,20.191,116.572,29.283,198.3,9.067,80.111,17.277,178.322,26.8,262.327,9.818,86.529,19.89,175.8,30.94,232.475,9.393,48.24,19.951,68.863,29.537,32.16,1.749-6.717,3.453-15.3,5.094-25.67C-24.59,1426.324-18,1299.342-12.9,1164.068c1.6-42.76,3.066-86.529,4.459-129.144C-4.805,922.868-1.026,808.65,3.294,703.013c7.067-171.4,16.343-305.736,28.5-405.821,5.685-46.87,12.6-87.106,19.89-89.485,10.359-3.389,19.409,45.356,28.073,67.853.685,1.8,1.37,3.461,2.055,4.9,10.4,22.426,20.73,8.581,30.1-51.557,9.978-64.031,18.9-188.273,21.188-350.226" transform="translate(249.995 322.644)"/><path class="f" d="M-230.15,1172.821c7.765-100.048,16.527-185.981,26.051-255.477,4.18-32.078,8.629-57.75,13.26-76.506,9.315-35.188,18.929-26.031,27.979,1.947,2.514,7.788,4.973,16.8,7.4,26.9,10.288,43.924,20.114,104.485,29.25,180.269,9.033,74.559,17.354,166.28,26.725,247.112,10.116,87.033,20.354,179.259,31.609,238.459,9.575,50.474,20.382,72.107,30.189,36.053a258.318,258.318,0,0,0,5.221-25.742c10.431-65.329,17.128-195.483,22.41-333.641,1.658-43.265,3.171-88.043,4.624-131.668C-1.624,965.872,2.393,849.78,7.007,742.339c7.531-173.707,17.393-309.413,30.2-406.253,5.63-42.543,12.354-78.958,19.371-82.275,10.011-4.759,18.907,35.477,27.4,49.826a26.8,26.8,0,0,0,2.017,3.029c10.172,12.547,20.078-11.465,28.83-78.092,9.321-70.737,17.349-196.349,19.155-353.9" transform="translate(248.979 297.739)"/><path class="f" d="M-227.87,1253.144c7.575-97.927,16.177-181.323,25.548-247.689,4.11-30.545,8.464-55.136,12.984-73.333,9.094-34.467,18.5-29.636,27.426-6.706,2.486,6.417,4.934,14.421,7.337,22.642,10.215,37.686,20.026,92.027,29.2,161.737,9.1,68.646,17.525,154.093,26.752,231.9,10.415,87.827,20.8,182.432,32.283,244.011,9.757,51.99,20.807,76.074,30.841,39.659a251.108,251.108,0,0,0,5.348-25.958c10.7-65.978,17.548-198.944,22.962-340.058,1.707-44.49,3.276-89.774,4.79-134.192,3.961-116.237,8.21-234.494,13.127-343.232,8.011-176.3,18.426-313.812,31.9-406.9,5.569-38.505,12.105-70.882,18.879-75.136,9.663-6.057,18.4,25.742,26.725,31.944a6.414,6.414,0,0,0,1.972,1.01c9.945,2.812,19.431-31.511,27.564-104.484,8.658-77.588,15.8-204.5,17.128-357.653" transform="translate(247.959 273.083)"/><path class="f" d="M-225.6,1334.161c7.389-95.824,15.832-176.73,25.051-240.046,4.043-28.938,8.3-52.446,12.708-70.161,8.873-33.746,18.067-33.169,26.874-15.287a150.384,150.384,0,0,1,7.265,18.46c10.154,31.442,19.961,79.612,29.183,143.35,9.138,62.661,17.68,141.691,26.747,216.323,10.719,88.331,21.255,185.965,32.962,249.708,9.945,53.937,21.238,79.751,31.493,43.265a245.178,245.178,0,0,0,5.475-26.1c10.956-66.772,17.94-202.55,23.52-346.549,1.757-45.355,3.376-91.5,4.973-137,4.111-118.257,8.6-238.46,13.813-348.712,8.5-178.826,19.448-318.787,33.6-407.551,5.525-34.539,11.857-62.733,18.387-67.925,9.321-7.211,17.9,15.864,26.05,13.917a3.458,3.458,0,0,0,1.928-.937c9.608-6.153,18.818-52.011,26.3-130.947,7.995-84.366,14.244-212.573,15.089-361.331" transform="translate(246.943 247.804)"/><path class="f" d="M-223.33,1414.051c7.205-93.677,15.49-172.047,24.553-232.258,3.99-27.458,8.171-49.888,12.487-66.988,8.658-33.1,17.636-36.991,26.321-23.867a72.2,72.2,0,0,1,7.183,14.421c10.077,25.253,19.865,67.2,29.128,124.818,9.172,56.6,17.818,129.145,26.736,200.892,11.05,88.764,21.713,189.427,33.642,255.477,10.116,55.883,21.664,83.357,32.145,47.23a233.954,233.954,0,0,0,5.608-26.175c11.216-67.564,18.321-206.156,24.067-353.327,1.807-46.221,3.481-93.308,5.116-139.312,4.265-120.347,8.989-242.57,14.5-354.264C27.142,679.275,38.6,536.214,53.452,452.5c5.666-32.869,11.709-53.31,17.885-60.5,8.973-8.8,17.4,6.129,25.371-4.038a20.346,20.346,0,0,0,1.89-2.812c9.411-16.546,18.177-71.664,25.034-157.411,7.332-91.216,12.708-220.721,13.05-365.008" transform="translate(245.927 223.582)"/><path class="f" d="M-221.06,1494.25c7.021-91.534,15.148-167.371,24.056-224.471,3.929-25.894,8.024-47.247,12.238-63.815,8.437-32.377,17.2-40.525,25.763-32.521a37.953,37.953,0,0,1,7.138,9.879c10,19.27,19.763,55.159,29.062,106.791,9.21,50.692,17.967,116.6,26.73,185.46,11.343,89.052,22.166,192.816,34.322,261.173,10.3,57.686,22.1,87.033,32.8,51.052a231.223,231.223,0,0,0,5.718-26.319c11.475-68.285,18.713-209.761,24.62-359.527,1.862-47.086,3.586-95.037,5.276-141.835,4.42-122.583,9.393-246.68,15.194-359.817,9.475-184.018,21.476-330.9,37.018-408.777,5.584-28.27,11.441-46.347,17.4-53.72,8.625-10.1,16.9-3.605,24.7-21.632.619-1.442,1.232-3.1,1.845-4.831,9.21-26.954,17.528-91.331,23.758-183.874,6.674-97.994,11.138-228.8,11.017-368.686" transform="translate(244.912 199.05)"/><path class="f" d="M-218.78,1575.018c6.834-89.463,14.8-162.82,23.553-216.827,3.868-24.308,7.877-44.586,11.989-60.643,8.188-30.8,16.694-44.668,25.211-41.1,2.37.793,4.724,2.74,7.066,5.624,9.923,13.151,19.675,42.885,29.017,88.476,9.249,44.707,18.117,104.051,26.73,170.03,11.674,89.27,22.614,196.349,35,266.871,10.5,59.776,22.52,90.639,33.454,54.873a221.4,221.4,0,0,0,5.857-26.535C-9.171,1746.778-1.8,1602.564,4.271,1449.84c1.906-47.951,3.685-96.768,5.437-144.215,4.58-124.53,9.774-250.79,15.884-365.369,9.945-186.542,22.481-337.968,38.675-409.427,5.494-23.7,11.171-39.442,16.929-46.942,8.288-11.465,16.393-13.484,24.023-39.948.6-2.091,1.2-4.326,1.8-6.778,9.012-37.22,16.89-110.725,22.5-209.977,6.011-104.772,9.591-236.945,8.984-372.435" transform="translate(243.891 174.021)"/><path class="f" d="M-216.51,1655.177c15.387-203.919,37.515-310.061,59.455-315.9s43.648,83.789,62.693,225.985C-82.39,1654.673-71.3,1764.926-58.687,1837.9s27.493,105.277,40.09,32.016C-2.829,1778.265,5.16,1553,12.735,1350.74,25.183,1017.6,42.443,673.29,69.692,569.6c13.575-51.629,28.41-37.207,41.532-105.926,18.194-95.326,30.3-358.518,28.178-612.913" transform="translate(242.875 149.24)"/></g><g transform="translate(-23.928 -545.856)"><path class="f" d="M-42.52,4154.849C-44.84,3909.68-26.3,3702.516-7.6,3664.515s37.465,40.524,56,90.927,39.382,66.988,54.864-75.209c19.791-181.782,24.365-564.168,44.753-734.918,15.868-133.039,36.526-93.236,52.781,5.768,9.194,55.955,17.012,150.127,25.8,215.746,39.852,297.443,42.543,905.382,76.395,996.02,36.631,98.284,56.521-134.986,63.438-296.433,8.84-207.165,23.642-744.871-12.564-1118.532-14.713-151.787-29.233-313.595-40.051-513.477-16.2-299.173-16.094-756.7,4.624-1003.952C332.641,1061,354.448,998.99,364.095,781.73c6.481-146.018,5.6-334.29,0-486.653S348.851,22.006,338.293-75.7" transform="translate(42.717 75.7)"/><path class="f" d="M-40.919,4146.826c-1.6-252.376,16.84-470.142,36.1-513.549,18.785-42.326,37.874,35.694,56.411,91.288,18.315,55.018,38.675,79.9,54.079-49.32,19.713-165.415,25.255-528.406,45.593-696.921,16.2-133.471,36.526-108.666,53.173-22.137,9.564,49.755,18.039,138.518,27.238,205,39.012,282.085,42.244,870.266,75.339,959.679,35.62,95.976,55.4-124.745,62.593-283.958,9.111-201.9,23.205-719.777-11.006-1088.825-14.105-152.289-28.089-317.273-38.736-515.785-15.724-292.179-15.868-733.333,3.685-978.5,13.531-169.6,34.553-238.676,44.156-453.123,6.591-146.667,6.188-332.2,1.32-485.644C364.11,159.786,355.138,32.516,345.016-72.4" transform="translate(41.956 96.195)"/><path class="f" d="M-39.345,4138.641c-.884-259.227,17.459-487.808,37.277-536.553,18.9-46.437,38.283,30.79,56.819,91.72,18.1,59.49,37.918,92.73,53.3-23.579,19.63-148.973,26.106-493.144,46.449-658.773,16.5-134.48,36.548-124.312,53.56-50.042,9.945,43.263,19.061,126.836,28.686,194.257,38.123,267.374,41.9,835.078,74.284,922.978,34.592,93.737,54.256-114.437,61.72-271.053,9.354-196.277,22.78-694.974-9.437-1059.98-13.509-152.94-26.957-320.807-37.427-518.238-15.249-285.04-15.641-710.114,2.762-952.9,12.857-169.38,33.084-245.453,42.648-457.089,6.7-147.244,6.779-330.253,2.608-484.707-4.254-157.555-12.475-291.6-22.194-403.8" transform="translate(41.222 116.567)"/><path class="f" d="M-37.8,4130.214c-.166-266.293,18.078-505.472,38.454-559.625,19-50.475,38.675,25.816,57.228,92.154,17.879,63.887,37.183,105.566,52.515,2.236,19.553-132.606,26.984-457.595,47.311-620.774,16.824-135.057,36.587-140.1,53.952-77.948,10.337,36.991,20.078,115.372,30.128,183.585,37.228,253.241,41.587,799.888,73.234,886.921,33.553,91.577,53.1-104.123,60.842-258.145,9.591-190.8,22.36-670.6-7.873-1030.415-12.912-153.662-25.774-324.484-36.112-520.543-14.708-278.551-15.42-687.041,1.807-927.447,12.194-170.1,31.609-253.458,41.167-462.065,6.785-148.325,7.381-328.594,3.906-483.77C375.168,194.013,367.709,53.4,358.377-65.79" transform="translate(40.518 137.248)"/><path class="f" d="M-36.28,4122.166c.552-273.359,18.7-523.066,39.637-582.629,19.089-54.368,39.084,20.767,57.632,92.444,17.68,68.285,36.465,118.47,51.736,28.05,19.47-116.166,27.857-421.972,48.167-582.7,17.128-135.706,36.642-156.113,54.339-105.854,10.741,30.5,21.1,103.69,31.57,173.057,36.3,239.756,41.272,764.772,72.185,850.437,32.52,89.483,51.935-93.741,59.969-245.169,9.824-185.314,21.946-646.657-6.3-1001.066-12.321-154.527-24.625-328.448-34.808-522.923-14.216-271.557-15.2-664.111.867-901.849,11.536-170.75,30.15-261.028,39.681-466.967,6.884-148.614,7.984-326.647,5.2-482.76-2.923-163.323-9.674-310.062-18.57-436.755" transform="translate(39.837 157.558)"/><path class="f" d="M-34.76,4113.668c1.276-280.353,19.338-540.444,40.813-605.7,19.188-58.262,39.493,15.718,58.04,92.873,17.448,72.612,35.73,131.741,50.952,53.865,19.409-99.292,28.73-386.351,49.029-544.7,17.47-136.284,36.7-172.337,54.731-133.689,11.144,23.869,22.1,92.154,33.012,162.1,35.36,226.708,40.957,729.581,71.129,814.021,31.493,87.25,50.792-83.5,59.118-232.332,10.045-179.835,21.548-623.08-4.746-971.575-11.73-155.607-23.47-332.2-33.487-525.3-13.719-264.634-14.984-641.756-.066-876.394,10.857-170.966,28.664-268.024,38.156-470.862,6.995-149.263,8.614-324.989,6.492-481.822C386.17,227.8,380.126,74.425,371.661-59.19" transform="translate(39.156 178.239)"/><path class="f" d="M-33.24,4105.5c1.995-287.421,19.934-557.9,41.99-628.707,19.288-62.013,39.9,10.527,58.449,93.307,17.233,76.8,35,144.649,50.173,79.322,19.338-82.783,29.614-350.662,49.886-506.632,17.791-137,36.775-188.778,55.118-161.594,11.558,17.162,23.117,80.689,34.46,151.427,34.377,214.233,40.642,694.684,70.08,777.9,30.448,85.3,49.62-73.333,58.223-219.422,10.266-174.5,21.144-600.079-3.182-942.229-11.76-164.716-22.519-341.144-32.178-527.68-13.26-257.569-14.774-618.9-1.006-850.87,10.194-171.76,27.222-275.451,36.681-475.4C392.547,745,394.679,571.435,393.237,414.1c-1.558-169.6-6.868-329.243-14.918-470" transform="translate(38.476 198.673)"/><path class="f" d="M-31.72,4097.195C-29,3802.779-11.167,3522,11.447,3445.416c19.393-65.689,40.333,5.335,58.858,93.741,17.017,81.049,34.255,157.627,49.388,105.49,19.249-66.337,30.493-315.035,50.747-468.7,18.117-137.437,36.852-205.507,55.51-189.5,11.967,10.238,24.117,69.295,35.913,140.61,33.36,201.9,40.333,659.278,69.03,741.263,29.415,82.853,48.454-62.95,57.35-206.517,10.5-169.089,20.769-577.507-1.613-912.806-11.15-167.874-21.459-344.952-30.863-530.136-12.741-250.572-14.569-596.616-1.945-825.268,9.531-172.553,25.763-282.733,35.189-479.8,6.784-143.7,9.956-311.485,9.072-479.875-.856-173.058-5.464-338.905-13.122-486.509" transform="translate(37.796 219.23)"/><path class="f" d="M-30.2,4089.144c3.426-301.481,21.172-592.508,44.344-675,19.492-69.294,40.708,0,59.267,94.1,16.8,85.085,33.531,170.534,48.62,131.236,19.161-49.9,31.377-279.2,51.6-430.482,18.443-137.941,36.935-222.378,55.9-217.4,12.387,3.245,25.122,57.685,37.344,129.793,32.344,190.365,40.012,624.091,67.958,704.778,28.382,80.76,47.289-52.71,56.482-193.535,10.685-163.83,20.415-555.229-.055-883.462-9.945-159.79-20.023-343.232-29.548-532.441-12.254-243.579-14.365-574.553-2.884-799.744,8.84-173.563,24.31-290.088,33.7-484.346,6.907-143.323,10.507-309.562,10.37-478.866-.218-177.953-4.126-351.811-11.31-503.094" transform="translate(37.116 239.54)"/><path class="f" d="M-28.68,4080.71c4.155-308.476,21.8-609.669,45.521-697.855,19.6-72.9,41.117-5.263,59.67,94.531,16.575,89.126,32.791,183.368,47.825,157.051,19.083-33.457,32.261-243.506,52.488-392.48,18.785-138.446,37.018-239.468,56.289-245.165,12.8-3.893,26.111,46.726,38.786,119.193,31.31,179.042,39.692,588.9,66.919,668.364,27.349,78.525,46.112-42.472,55.609-180.7,10.89-158.636,20.089-534.1,1.514-854.039-9.393-161.592-18.885-346.837-28.238-534.823-11.768-236.439-14.194-552.7-3.823-774.218,8.183-174.716,22.851-297.3,32.2-488.744,7.037-143.175,11.059-308.014,11.663-477.928.539-181.4-2.753-361.248-9.514-519.895" transform="translate(36.436 260.159)"/><path class="f" d="M-27.16,4072.722c4.873-315.541,22.421-626.831,46.7-721.074,19.7-76.364,41.532-10.6,60.085,94.892C96,3539.7,111.668,3642.89,126.668,3629.405c19-17.015,33.15-207.67,53.322-354.408,19.1-138.879,37.1-256.7,56.681-273.142,13.21-11.1,27.1,35.622,40.222,108.161,30.272,168.084,39.382,553.785,65.875,632.022,26.31,76.361,44.93-32.375,54.731-167.792,11.094-153.231,19.791-513.334,3.077-824.622-8.785-163.756-17.735-350.515-26.923-537.2-11.288-229.448-14.028-531.073-4.763-748.694,7.5-176.014,21.4-304.581,30.7-493.215,7.52-152.363,11.829-317.634,12.956-476.919,1.31-184.619-1.35-370.349-7.68-536.335" transform="translate(35.755 280.406)"/><path class="f" d="M-25.64,4063.988c5.6-322.32,23.045-643.919,47.869-744,19.807-79.894,41.941-16.079,60.5,95.328,16.166,97.057,31.316,209.112,46.256,208.678,18.912-.65,34.034-171.9,54.184-316.409,19.432-139.31,37.167-274.008,57.068-300.976,13.63-18.46,28.095,24.589,41.67,97.707,29.216,157.41,39.062,518.595,64.82,595.534,25.283,74.2,43.747-22.136,53.858-154.814,11.288-148.037,19.536-493.071,4.647-795.273-8.183-165.847-16.575-354.121-25.614-539.579-10.807-222.307-13.879-509.657-5.7-723.167,6.8-177.456,19.945-311.865,29.211-497.542,7.63-153.012,12.5-316.191,14.249-475.909,2.078-187.841.044-379.52-5.868-552.92" transform="translate(35.075 301.398)"/><path class="f" d="M-24.12,4056.124C-17.8,3726.447-.445,3395.186,24.931,3288.9c19.89-83.283,42.36-21.631,60.908,95.758,15.956,100.95,30.581,221.948,45.477,234.422,18.829,15.791,34.918-135.993,55.04-278.264,19.763-139.742,37.244-291.673,57.46-328.953,14.039-25.888,29.073,13.7,43.1,87.033,28.15,146.956,38.736,484.131,63.764,559.122,24.238,72.683,42.543-12.114,52.991-141.907,11.476-142.918,19.338-473.387,6.2-765.925-7.553-168.588-15.47-357.726-24.31-541.96-10.332-215.168-13.752-488.384-6.63-697.567,6.078-179.044,18.492-319.077,27.714-502.086,7.735-153.589,13.188-314.677,15.548-475.044,2.85-191.038,1.442-388.734-4.055-569.649" transform="translate(34.395 321.522)"/><path class="f" d="M-22.6,4047.5c7.033-336.668,24.31-677.808,50.228-790.079,20.023-86.528,42.775-27.185,61.328,96.118,15.752,104.844,29.835,234.855,44.692,260.309,18.746,32.088,35.808-100.158,55.9-240.262s37.311-309.27,57.847-356.86c14.448-33.386,30.056,3.028,44.554,76.289,27.073,137,38.421,449.014,62.72,522.779,23.205,70.448,41.366-2.092,52.112-129,11.663-137.871,19.15-454.279,7.774-736.507-6.923-171.471-14.326-361.332-23-544.34-9.857-208.1-13.641-467.4-7.58-672.042,5.359-180.846,17.045-326.359,26.222-506.627,7.879-154.094,13.873-313.091,16.835-474.034C430.659,359.212,429.881,155.6,424.8-32.77" transform="translate(33.715 342.327)"/><path class="f" d="M-21.07,4039.269c7.774-343.738,24.929-694.757,51.421-813.3,20.133-89.991,43.195-32.811,61.726,96.551,15.553,108.593,29.111,247.616,43.913,286.05,18.664,48.456,36.692-64.175,56.759-201.9,20.443-140.466,37.371-327.007,58.239-384.693,14.851-41.1,31.029-7.571,46,65.545,26.006,126.983,38.123,413.824,61.665,486.366,22.166,68.214,40.178,7.859,51.239-116.165,11.851-132.75,19.039-435.386,9.337-707.087-6.232-174.5-13.177-364.863-21.675-546.719-9.393-200.891-13.564-446.489-8.514-646.516,4.6-182.648,15.592-333.569,24.724-511.025,7.962-154.671,14.564-311.5,18.128-473.1,4.4-197.086,4.257-406.737-.42-602.746" transform="translate(33.03 362.823)"/><path class="f" d="M-19.55,4031.279c8.47-350.732,25.559-711.557,52.576-836.448,20.244-93.307,43.648-38.5,62.135,96.985,15.349,112.27,28.377,260.451,43.128,311.863,18.581,64.9,37.57-28.264,57.621-164.186,20.763-140.827,37.427-344.819,58.626-412.6,15.255-48.745,32-17.882,47.443,54.8,24.923,117.463,37.786,378.635,60.61,449.949,21.133,66.051,38.979,17.81,50.366-103.185,12.034-127.775,18.99-417.07,10.906-677.81-5.525-177.817-12.045-368.4-20.365-549.027-8.917-193.752-13.509-425.434-9.453-620.991,3.829-184.595,14.144-340.851,23.205-515.5,8.078-155.247,15.266-310.062,19.426-472.088,5.174-200.017,5.657-415.639,1.387-619.259" transform="translate(32.35 383.07)"/><path class="f" d="M-18,4022.907c9.172-357.724,26.178-728.285,53.736-859.377,20.354-96.7,44.046-44.345,62.543,97.273,15.155,116.022,27.625,273.287,42.349,337.68,18.5,81.05,38.476,7.715,58.477-126.116,21.1-141.042,37.482-362.7,59.018-440.435,15.647-56.53,32.962-28.049,48.885,44.059,23.835,108.162,37.471,343.448,59.56,413.538,20.095,63.814,37.78,27.617,49.493-90.28,12.21-122.943,19-398.9,12.464-648.319-4.746-181.35-10.912-372-19.045-551.478-8.453-186.542-13.487-404.811-10.4-595.463,3.022-186.542,12.708-347.991,21.736-519.9,8.188-155.824,15.967-308.115,20.713-471.15,5.955-202.886,7.072-424.526,3.2-635.844" transform="translate(31.656 403.628)"/><path class="f" d="M-16.51,4014.483C-6.6,3649.691,10.325,3269.4,38.42,3132.25c20.443-99.942,44.477-50.115,62.952,97.705,14.956,119.7,26.918,285.616,41.565,363.491,18.437,96.842,39.371,43.626,59.339-88.042,21.437-141.4,37.526-380.728,59.405-468.7,16.023-64.318,33.924-37.854,50.327,33.387,22.752,98.788,37.172,307.611,58.51,377.123,19.072,61.075,36.581,37.423,48.62-77.372,12.387-118.113,19.078-380.8,14.034-618.969-4.086-193.7-10.045-379.817-17.735-553.858-7.989-179.26-13.492-383.9-11.337-569.649,2.21-188.49,11.249-355.2,20.238-524.366,8.288-156.329,16.675-306.313,22.012-470.213,6.731-205.685,8.482-433.316,5.017-652.356" transform="translate(30.99 424.309)"/><path class="f" d="M-15,4006.246c10.636-371.931,27.476-761.815,56.112-905.525,20.581-103.187,44.913-55.956,63.361,98.138,14.768,123.3,26.189,298.525,40.786,389.378,18.354,113.284,40.261,79.681,60.223-49.968,21.774-141.619,37.57-398.683,59.8-496.245,16.426-72.107,34.874-47.446,51.77,22.57,21.658,89.846,36.852,272.5,57.46,340.78,18.039,58.914,35.36,47.087,47.747-64.464,12.564-113.351,19.233-362.485,15.6-589.622-3.23-195.38-8.77-383.012-16.42-556.166-7.531-172.048-13.52-362.989-12.277-544.411,1.3-190.292,9.807-362.34,18.746-528.836,8.42-156.833,17.382-304.365,23.3-469.2,7.5-208.471,9.888-442.1,6.829-668.941" transform="translate(30.314 444.805)"/><path class="f" d="M-13.47,3998.194c11.348-378.924,28.111-778.76,57.284-928.383,20.7-106.359,45.349-61.869,63.77,98.5,14.581,126.908,25.454,311.432,40,415.123,18.277,129.792,41.173,116.165,61.057-11.971,22.133-141.258,37.6-416.708,60.184-524.148,16.813-80.04,35.824-56.6,53.217,11.9,20.559,80.977,36.537,237.523,56.405,304.293,17,56.748,34.167,56.748,46.869-51.556s19.448-343.735,17.166-560.13c-2.028-192.094-7.547-382.168-15.111-558.615-7.078-164.766-13.575-341.718-13.216-518.814.392-192.022,8.387-369.334,17.249-533.6C439.969,983.67,449.5,837.94,456,672.526c8.281-211.187,11.3-450.841,8.647-685.526" transform="translate(29.629 465.114)"/><path class="f" d="M-11.95,3989.853c12.067-386.137,28.769-794.7,58.46-951.82,20.824-109.17,45.791-67.853,64.179,98.932,14.365,130.516,24.725,324.484,39.228,440.865,18.194,146.089,42.057,152,61.913,26.1,22.465-141.618,37.631-434.737,60.576-552.055,17.194-87.9,36.758-65.256,54.654,1.228,19.487,72.107,36.222,201.9,55.355,267.881,15.973,54.583,32.962,66.264,46-38.654,12.912-103.9,19.719-324.482,18.724-530.781-.939-195.124-6.431-385.774-13.813-560.923-6.63-157.555-13.652-320.23-14.155-493.359-.552-193.393,6.934-376.546,15.757-537.707,8.674-157.772,18.785-300.472,25.89-467.256,9.057-213.808,12.72-459.432,10.47-701.966" transform="translate(28.949 485.858)"/><path class="f" d="M-10.43,3981.4c12.79-392.987,29.4-811.571,59.637-974.462,20.934-112.7,46.239-73.837,64.588,99.364,14.21,134.05,23.99,337.1,38.449,466.465,18.117,162.458,42.941,187.84,62.775,64.176,22.791-142.124,37.659-452.836,60.963-579.962,17.575-95.9,37.7-73.477,56.1-9.589s35.913,167.073,54.3,231.536c14.918,52.351,31.758,75.786,45.129-25.743,13.089-99.365,20.05-303.788,20.293-501.363s-5.332-389.381-12.487-563.375c-6.171-150.2-13.752-298.237-15.094-467.762-1.536-194.69,5.481-383.828,14.26-542.177S458,880.057,465.668,712.191c9.824-216.478,14.12-468.118,12.266-718.551" transform="translate(28.269 506.353)"/></g><g transform="translate(198.867 -2079.006)"><path class="f" d="M374.6,6412.378c-16.1-129.792-16.857-448.434-7.415-662.522s25.9-355.778,40.515-512.683,28.675-358.664,29.879-605.2c1.547-315.183-18.426-601.378-15.868-915.766,1.995-244.731,17.315-429.976,33.415-533.593,9.1-58.479,19.619-78.958,29.045-127.271,42.753-218.413,80.743,135.13,107.368-152.074,28.824-311.36,27.354-659.855,22.028-831.544-6.823-220-29.675-707.158-74.676-572.965-18.277,54.513-37.018,100.95-55.753,85.735-28.023-23-55.272-310.855-57.063-676.439-1.2-250.574,8.746-511.242,1.8-745.447-4.658-157.483-16.459-266.221-29.045-305.087s-25.863-15.5-38.305,30.573" transform="translate(-360.53 1072.16)"/><path class="f" d="M377.021,6435.716c-16.067-141.689-17.525-465.886-8.05-688.985,9.254-217.763,25.857-362.846,40.791-516.578,14.757-151.861,28.984-343.089,30.94-581.047,2.47-304.148-15.735-587.963-13.056-900.333,2.177-248.411,16.393-439.855,31.99-554.795,8.962-66.123,19.57-96.7,29.283-148.685,41.283-220.073,78.422,115.731,104.512-165.127,28.045-302.2,27.255-641.756,22.255-814.814-6.343-219.062-28.448-686.969-71.941-570.442-17.907,48.095-36.5,87.321-55.051,71.169-27.31-23.074-53.736-298.092-56.123-650.409-1.658-243.867,7.387-501,.6-733.044C428.542,23.989,417.2-88.426,404.989-135.08c-12.326-47.014-25.548-35.549-38.156,1.8" transform="translate(-361.672 1047.961)"/><path class="f" d="M378.962,6462.417c-16.023-153.444-18.2-483.119-8.691-715.375,9.067-221.37,25.819-370.125,41.073-520.544,14.89-146.81,29.283-327.582,31.984-556.885,3.4-293.045-13.094-574.553-10.249-885.262,2.315-252.378,15.47-449.663,30.57-576.212,8.84-73.981,19.52-114.435,29.576-170.029,39.858-220.5,76.124,96.913,101.661-177.313,27.272-293.044,27.155-623.586,22.476-797.581-5.856-218.053-27.233-667.139-69.2-567.918-17.592,41.534-36.045,73.189-54.394,56.028-26.575-23.507-52.212-285.762-55.19-624.955-2.083-237.234,6.078-490.764-.6-720.642-4.591-160.439-15.47-275.883-27.31-330.252-12.078-55.45-25.227-55.739-38.012-27.04" transform="translate(-362.354 1020.389)"/><path class="f" d="M380.879,6492.241c-16.023-165.128-18.862-500.5-9.326-741.772,8.89-224.831,25.774-377.265,41.349-524.366,15.017-141.98,29.6-312.081,33.04-532.8,4.326-282.01-10.426-561.211-7.437-870.19,2.475-255.765,14.558-459.9,29.145-597.626,8.685-81.987,19.465-132.1,29.835-191.446,38.449-220.07,73.825,78.092,98.843-189.352,26.492-283.961,27.073-605.7,22.7-780.709-5.387-217.043-26.039-647.526-66.472-565.4-17.26,35.044-35.537,58.7-53.709,41.246C473,1514.949,448.158,1266.179,444.594,940.4c-2.519-230.744,4.663-480.38-1.8-708.24C438.2,70.42,427.8-49.062,416.35-110.642c-11.829-63.959-24.912-75.929-37.863-55.883" transform="translate(-363.017 989.632)"/><path class="f" d="M382.81,6525.438c-15.978-176.881-19.526-517.8-9.945-768.164,8.713-228.289,25.73-384.618,41.631-528.33,15.144-137,29.913-296.578,34.084-508.646,5.26-270.908-7.735-548.017-4.624-855.05,2.641-259.586,13.636-470.573,27.73-619.113,8.547-90.135,19.4-149.623,30.095-212.861,37.056-219.062,71.533,59.271,96.014-201.468,25.714-274.73,26.946-587.171,22.929-763.69-4.917-215.962-24.863-628.274-63.737-562.944-16.945,28.843-35.04,44.707-53.04,26.392-25.117-25.526-49.173-261.461-53.311-573.9-2.967-224.11,3.315-470-3.006-695.765C443.066,98.714,433.121-24.013,422.054-93.453c-11.6-72.612-24.6-96.047-37.719-84.726" transform="translate(-363.688 955.57)"/><path class="f" d="M384.715,6561.327c-15.945-188.635-20.177-535.039-10.6-794.55,8.547-231.757,25.68-391.9,41.907-532.3,15.271-131.958,30.255-280.86,35.139-484.564,6.227-259.586-5.072-534.316-1.812-839.908,2.807-263.121,12.708-481.39,26.3-640.531,8.4-98.356,19.338-167.145,30.388-234.277,35.681-217.4,69.234,40.453,93.18-213.582,24.934-265.571,26.835-568.927,23.15-746.673-4.42-214.881-23.719-609.453-61-560.491-16.641,21.632-34.543,30.718-52.355,11.537-24.393-26.175-47.692-249.42-52.377-548.017-3.414-217.692,1.956-459.757-4.21-683.362-4.536-164.694-14.017-291.17-24.7-367.748-11.343-81.481-24.283-116.237-37.57-113.569" transform="translate(-364.339 918.526)"/><path class="f" d="M386.622,6600.185c-15.918-200.381-20.835-552.271-11.243-821.014C383.76,5544.1,401,5379.913,417.568,5243.055c15.382-127.123,30.565-265.353,36.189-460.478,7.182-248.483-2.392-520.9.994-824.837,2.978-266.8,11.768-492.421,24.863-661.947,8.288-106.791,19.3-184.6,30.625-255.621,34.316-215.386,66.936,21.633,90.345-225.7,24.161-256.486,26.719-550.684,23.376-729.8-3.989-213.655-22.586-591.282-58.261-557.9q-25.808,24.63-51.676-3.316c-23.669-26.825-46.217-237.523-51.438-522.78-3.868-211.347.6-449.518-5.415-671.032C452.663,163.8,443.635,33.146,433.337-50.715c-11.1-90.423-23.962-136.428-37.427-142.484" transform="translate(-364.986 879.086)"/><path class="f" d="M388.558,6638.638c-15.884-212.07-21.476-569.647-11.884-847.406,8.232-238.46,25.575-406.688,42.476-540.086,15.5-122.583,30.874-249.782,37.239-436.324,8.094-237.3.293-507.491,3.807-809.764,3.144-270.333,10.818-503.6,23.459-683.363,8.111-115.373,19.249-201.9,30.89-277.038,32.968-212.789,64.643,2.811,87.511-237.954,23.382-247.329,26.6-532.37,23.6-712.783-3.536-212.5-21.968-632.383-55.532-555.228-15.829,36.054-33.542,2.668-50.99-18.171-22.945-27.329-44.753-225.553-50.5-497.181-4.337-205.073-.746-439.278-6.63-658.629C457.668,205.7,449.637,68.33,439.029-28.2c-10.851-99.509-23.642-156.545-37.277-171.327" transform="translate(-365.646 839.772)"/><path class="f" d="M390.421,6677.214c-15.857-223.534-22.1-586.6-12.525-873.87,8.078-241.489,25.515-414.042,42.78-543.909,15.608-117.6,31.189-234.276,38.294-412.239,9.022-226.2,2.978-494.152,6.63-794.625,3.315-274.009,9.857-515.064,22.039-704.85,7.951-123.953,19.194-219.208,31.15-298.454,31.631-209.758,62.339-16.007,84.677-249.922,22.6-237.956,26.476-513.983,23.824-695.766-3.083-211.347-20.8-620.124-52.792-552.992-15.591,32.665-33.045-11.249-50.311-32.952-22.222-27.906-43.322-213.727-49.571-471.727-4.812-198.8-2.094-428.968-7.812-646.155-4.231-160.041-11.9-300.8-22.1-405.46-10.764-109.314-23.6-178.492-37.134-200.17" transform="translate(-366.271 800.334)"/><path class="f" d="M392.3,6715.957c-15.818-235.5-22.752-603.611-13.161-900.189,7.928-245.164,25.448-421.61,43.034-548.012,15.719-112.921,31.493-218.7,39.338-388.084,9.945-215.1,5.669-480.739,9.431-779.554,3.492-277.684,8.89-526.384,20.62-726.267,7.79-132.6,19.15-236.367,31.415-319.869,30.31-206.372,60.041-34.756,81.842-261.965,21.824-229.014,26.354-495.668,24.05-678.893-2.641-210.049-19.608-606.929-50.057-550.47-15.382,28.843-32.542-25.237-49.631-47.807-21.5-28.41-41.9-201.9-48.62-446.128-5.31-192.671-3.442-418.728-9.017-633.753-4.136-161.372-11.462-305.639-21.238-418.223-10.487-119.138-23.281-198.361-36.985-229.013" transform="translate(-366.896 760.648)"/><path class="f" d="M394.182,6754.037c-15.791-247.258-23.387-620.7-13.813-926.654,7.779-248.266,25.382-429.111,43.311-551.764,15.824-108.163,31.808-203.059,40.393-363.931,10.884-203.919,8.365-467.255,12.243-764.339,3.669-281.218,7.906-538.137,19.194-747.681,7.619-141.4,19.106-253.385,31.681-341.284,29-202.622,57.742-53.577,79.008-274.009,21.05-219.856,26.222-477.28,24.272-661.875-2.21-209.111-18.4-593.228-47.316-548.016-15.21,23.8-32.045-39.154-48.952-62.661-20.774-28.843-40.5-190-47.7-420.6-5.812-186.542-4.785-408.489-10.216-621.35C471.9,297.893,464.731,150.578,455.918,39.244,445.712-89.7,432.955-178.967,419.077-218.54" transform="translate(-367.518 721.706)"/><path class="f" d="M396.059,6792.67c-15.757-259.011-24.012-637.79-14.437-953.044,7.636-251.508,25.316-436.755,43.593-555.661,15.929-103.689,32.111-187.477,41.438-339.842,11.813-192.817,11.05-453.842,15.05-749.413,3.868-284.9,6.917-549.819,17.774-769.1,7.437-150.2,19.072-270.33,31.946-362.629,27.7-198.583,55.444-72.107,76.179-286.264,20.266-210.7,26.078-458.893,24.492-644.857-1.768-207.6-17.21-507.637-44.587-545.494-15.039-20.839-31.542-53.071-48.267-77.516-20.05-29.348-39.134-178.105-46.758-395.005-6.343-180.269-6.133-398.25-11.426-608.948-4.354-173.419-11.05-325.2-19.5-443.173C451.643-77.064,438.923-176.43,424.866-224.9" transform="translate(-368.141 682.206)"/><path class="f" d="M397.935,6831.186c-15.73-270.766-24.636-654.809-15.078-979.509,7.5-254.757,25.244-444.4,43.874-559.554,16.023-99.074,32.415-172.046,42.493-315.686,12.708-181.714,13.752-440.433,17.862-734.271,4.033-288.43,5.912-561.575,16.354-790.589,7.249-159.068,19.034-287.2,32.205-384.044,26.415-194.689,53.178-90.71,73.345-298.379,19.52-200.966,25.94-440.506,24.719-627.914-1.348-206.228-16.172-493-41.852-542.97-14.8-28.843-31.045-66.915-47.587-92.37-19.338-29.709-37.786-165.848-45.825-369.479-6.879-174.067-7.475-388.01-12.625-596.473C481.5,365.017,475.291,208.688,467.191,84.23c-9.619-148.628-22.3-258.116-36.548-315.47" transform="translate(-368.757 642.83)"/><path class="f" d="M399.8,6869.693c-15.7-282.444-25.255-671.823-15.719-1005.9,7.37-258,25.178-452.185,44.156-563.522,16.128-94.6,32.725-156.472,43.543-291.6,13.663-170.534,16.454-426.948,20.675-719.126s4.906-573.328,14.918-812c7.055-167.938,19.006-303.862,32.471-405.461,25.139-189.715,50.88-109.531,70.511-310.061,18.741-191.879,25.791-422.189,24.94-610.967-.923-205-15.128-479.371-39.112-540.807-14.569-37.063-30.548-80.688-46.913-107.151-18.6-30.069-36.465-154.022-44.885-343.953-7.437-167.794-8.812-377.771-13.813-584.071C486.28,398.624,480.562,237.825,472.8,106.805c-9.32-158.432-21.968-278.083-36.4-344.385" transform="translate(-369.365 603.453)"/><path class="f" d="M401.665,6908.626c-15.669-294.2-25.868-688.844-16.36-1032.291,7.238-261.245,25.1-460.044,44.438-567.413,16.227-90.208,33.029-140.97,44.593-267.519,14.586-159.5,19.155-413.465,23.487-704.057,4.42-295.639,3.868-585.008,13.509-833.419,6.851-176.806,18.99-320.373,32.73-426.875,23.879-184.955,48.587-128.351,67.682-322.537,17.962-182.719,25.642-403.8,25.167-593.947-.508-203.777-14.078-466.464-36.382-538-14.327-46.365-30.045-94.893-46.228-122.438-17.879-30.357-35.161-141.692-43.946-318.355-8.022-161.3-10.155-367.748-15.028-571.668-4.254-177.889-9.475-343.3-16.9-480.813-9.013-168.2-21.623-298.015-36.255-373.228" transform="translate(-369.973 564.015)"/><path class="f" d="M403.522,6946.708c-15.636-305.882-26.476-705.787-17-1058.683,7.105-264.422,25.028-467.836,44.714-571.311,16.326-85.8,33.332-125.465,45.648-243.36,15.509-148.47,21.857-400.052,26.294-688.914,4.6-299.462,2.856-596.835,12.089-854.905,6.63-185.679,18.978-336.744,33-448.223,22.653-180.268,46.289-147.242,64.847-334.722,17.183-173.563,25.481-385.343,25.415-576.86-.1-202.406-13.017-454.277-33.648-535.47-14.078-55.307-29.548-108.161-45.548-137-17.128-30.645-33.885-129.289-43.012-292.829-8.647-154.815-11.514-357.436-16.249-559.265-4.216-179.4-8.939-349.433-16.023-493.359-8.7-177.966-21.275-317.97-36.112-402.072" transform="translate(-370.576 524.639)"/><path class="f" d="M405.386,6985.219c-15.608-317.634-27.073-722.808-17.636-1085.073,6.978-267.592,24.951-475.911,45-575.275,16.42-81.41,33.636-109.965,46.7-219.207,16.431-137.437,24.564-386.569,29.106-673.845,4.79-302.853,1.818-608.517,10.663-876.323,6.431-194.69,18.979-352.894,33.261-469.637C573.86,2911,596.458,2920.013,614.486,2739.1c16.4-164.477,25.321-367.027,25.614-560.058.309-201.179-11.917-443.172-30.907-533.019-13.813-65.329-29.051-122.005-44.869-151.425C547.893,1463.443,531.7,1377.851,522.273,1227,513,1079.4,509.422,879.876,504.814,680.211c-4.171-180.918-8.393-355.49-15.155-505.906-8.387-187.676-20.924-337.884-35.968-430.915" transform="translate(-371.18 485.263)"/><path class="f" d="M407.238,7023.727c-15.581-329.385-27.686-739.679-18.277-1111.534,6.857-270.764,24.863-483.771,45.272-579.1,16.52-77.226,33.935-94.6,47.747-195.121,17.332-126.839,27.272-373.084,31.913-658.773,4.973-306.6.779-620.126,9.249-897.739,6.21-203.416,18.99-368.829,33.52-491.052,20.155-169.522,41.659-185.314,59.179-358.878,15.6-155.752,25.155-348.5,25.846-543.187.707-200.025-10.785-432.644-28.178-530.566-14.13-79.825-28.984-135.775-44.2-166.5-15.7-31.223-31.366-103.331-41.123-241.632C518.3,1109.4,514.026,912.691,509.551,715.26c-4.133-182.432-7.846-361.547-14.288-518.452C487.2-.53,474.7-160.954,459.444-262.95" transform="translate(-371.773 445.886)"/><path class="f" d="M409.1,7062.609c-15.547-341.14-28.283-756.695-18.912-1137.929,6.729-274.008,24.791-491.916,45.554-583.061,16.614-72.97,34.255-79.316,48.8-170.964,18.266-115.734,29.984-359.671,34.73-643.7,5.182-310.063-.276-631.879,7.823-919.152,5.978-212.287,19.028-384.625,33.78-512.471,18.934-164.043,39.36-204.136,56.355-370.992,14.818-146.6,24.979-330.325,26.062-526.385,1.105-198.8-9.6-422.694-25.415-527.971-13.693-89.555-28.37-150.761-43.5-181.423-14.995-31.223-30.145-89.846-40.2-216.322C523.612,1139.7,518.7,945.445,514.325,750.25c-4.089-183.946-7.288-367.748-13.42-531-7.75-206.954-20.21-377.6-35.675-488.6" transform="translate(-372.37 406.138)"/><path class="f" d="M410.935,7100.812c-15.52-352.824-28.879-773.642-19.553-1164.392,6.63-277.109,24.714-500.065,45.858-586.956,16.708-68.717,34.543-63.813,49.847-146.811,19.194-104.7,32.736-346.117,37.537-628.561,5.431-313.667-1.326-643.56,6.4-940.643,5.757-221.155,19.067-399.836,34.051-533.595,17.724-158.636,37.062-223.029,53.51-383.108,14.023-137.724,24.8-312.585,26.266-509.366s-8.348-413.175-22.7-525.519c-12.708-99.724-27.564-162.818-42.825-196.276-14.277-31.222-28.912-75.929-39.255-190.653-11.221-124.241-16.8-316.624-21.039-509.512-4.022-185.6-6.729-373.589-12.558-543.546-7.421-216.6-19.842-397.531-35.526-517.515" transform="translate(-372.956 367.073)"/><path class="f" d="M412.791,7139.134C397.32,6774.56,383.37,6348.695,392.6,5948.352c6.531-280.208,24.642-508.282,46.117-590.85,16.813-64.895,34.852-48.384,50.9-122.58,20.122-93.741,35.426-332.561,40.333-613.419,5.613-317.272-2.387-655.168,4.973-962.058,5.525-230.023,19.133-414.834,34.316-555.228C585.768,2951.35,604,2862.441,619.913,2709c13.26-128.279,24.614-293.838,26.52-492.133,1.879-196.492-7.011-403.8-19.967-523.067-12.243-112.7-27.073-176.231-42.145-211.059-13.558-31.294-27.675-61.724-38.333-165.125-11.9-115.372-18.144-306.385-22.238-497.109-3.989-187.047-6.166-379.574-11.691-556.165C504.966,38.249,492.593-152.9,476.7-281.95" transform="translate(-373.557 327.883)"/><path class="f" d="M414.619,7177.829c-15.47-376.328-30.051-807.6-20.835-1217.244,6.381-283.526,24.564-516.58,46.41-594.744,16.907-60.57,35.161-32.808,51.935-98.643,21.05-82.489,38.123-319.074,43.156-598.491,5.8-320.878-3.448-666.705,3.564-983.473,5.282-238.82,19.227-429.473,34.576-576.859s32.46-260.238,47.847-406.975c12.486-119.122,24.421-275.6,26.736-475.189,2.265-195.411-5.58-394.212-17.227-520.545s-26.553-189.57-41.471-225.912c-12.84-31.295-26.432-46.942-37.393-139.528-12.575-106.142-19.492-296.218-23.443-484.707s-5.6-385.487-10.824-568.712c-6.771-235.646-19.11-437.069-35.233-575.129" transform="translate(-374.126 288.32)"/></g></g></g></g></g></svg>