<svg xmlns="http://www.w3.org/2000/svg" width="52.23" height="52.645" viewBox="0 0 52.23 52.645"><defs><style>.a{fill:#fff;}</style></defs><g transform="translate(0 0)"><g transform="translate(0)"><path class="a" d="M43.255,52.645H33.768a1.043,1.043,0,0,1-.448-.1H25.246a1.053,1.053,0,0,1-.448.1H16.912a1.043,1.043,0,0,1-.448-.1H1.047A1.046,1.046,0,0,1,0,51.5v-13.7a1.048,1.048,0,0,1,.2-.538,1.09,1.09,0,0,1,.158-.17l.067-.054,5.547-4.2a1.041,1.041,0,0,1,.632-.2h21.45V28.345h-.119a1.047,1.047,0,0,1-1.026-.837L24.818,17.023a1.046,1.046,0,0,1,1.026-1.255h3.6L28.067,6.48a1.046,1.046,0,0,1,1.033-1.2h8.365V2.091H36A1.046,1.046,0,0,1,36,0H41.02a1.046,1.046,0,1,1,0,2.091H39.556v3.19h8.365a1.046,1.046,0,0,1,1.034,1.2L47.58,15.767h3.6A1.046,1.046,0,0,1,52.2,17.022L50.113,27.507a1.047,1.047,0,0,1-1.026.837h-.12V51.5a1.046,1.046,0,0,1-1.046,1.046H43.7a1.043,1.043,0,0,1-.448.1ZM44.3,50.453h2.575V28.345H30.145V50.453h2.576V39.4a1.046,1.046,0,0,1,1.046-1.046h9.487A1.046,1.046,0,0,1,44.3,39.4Zm-9.487,0h7.4V40.444h-7.4Zm-8.969,0h2.21V38.92H2.093V50.453H15.866V42.1a1.044,1.044,0,0,1,1.046-1.046H24.8A1.046,1.046,0,0,1,25.844,42.1Zm-7.887,0h5.8v-7.3h-5.8ZM4.155,36.829h23.9V34.715H6.956ZM28.79,26.254H48.229l1.673-8.4H27.119Zm2.763-10.487H45.466l1.241-8.394H30.313Zm-17.7,27.389H4.37a1.046,1.046,0,1,1,0-2.091h9.489a1.046,1.046,0,0,1,0,2.091Zm29.4-10.509H33.768a1.046,1.046,0,0,1,0-2.091h9.487a1.046,1.046,0,0,1,0,2.091ZM5.705,27.884a1.046,1.046,0,0,1-.634-1.877L7.5,24.157A1.046,1.046,0,1,1,8.764,25.82L6.338,27.67A1.047,1.047,0,0,1,5.705,27.884Zm2.426-5.847A1.046,1.046,0,0,1,7.5,20.159l7.215-5.5a1.046,1.046,0,1,1,1.267,1.663l-7.215,5.5a1.033,1.033,0,0,1-.633.215ZM7.112,17.231a1.036,1.036,0,0,1-.587-.181L.46,12.927a1.046,1.046,0,0,1,.507-1.913l6.134-.47L8.416,9.6,5.17,6.355A1.046,1.046,0,0,1,6,4.573l8.449.68L18.07,2.632a4.576,4.576,0,0,1,6.388,1.032,1.044,1.044,0,0,1-.236,1.46L7.728,17.033A1.05,1.05,0,0,1,7.112,17.231Zm-3-4.354L7.1,14.908,21.967,4.173a2.5,2.5,0,0,0-2.671.149L15.353,7.174a1.046,1.046,0,0,1-.7.194l-6-.482,2.105,2.105a1.044,1.044,0,0,1-.127,1.588L8.088,12.418a1.048,1.048,0,0,1-.531.194Zm36.376-.262H36.539a1.046,1.046,0,1,1,0-2.091h3.944a1.046,1.046,0,1,1,0,2.091Z" transform="translate(0.005)"/></g></g></svg>