<svg xmlns="http://www.w3.org/2000/svg" width="61.352" height="60.565" viewBox="0 0 61.352 60.565"><defs><style>.a{fill:#fff;stroke:#fff;stroke-width:0.5px;}</style></defs><g transform="translate(0.25 0.315)"><path class="a" d="M130.294,135.206H71.078a.818.818,0,1,1,0-1.636h4.881V118.75a.818.818,0,0,1,.818-.818H87.65v-7.361a.818.818,0,0,1,.818-.818H99.305v-7.361a.818.818,0,0,1,.818-.818h10.854V88.586h-5.1a.818.818,0,0,1-.579-1.4l11.745-11.743a.818.818,0,0,1,1.157,0l11.743,11.743a.818.818,0,0,1-.577,1.4h-5.086V133.57h6.013a.818.818,0,1,1,0,1.636Zm-17.686-1.683h10.037V87.768a.818.818,0,0,1,.818-.818H127.4l-9.771-9.777-9.769,9.777h3.926a.818.818,0,0,1,.818.818Zm-11.655,0h10.019V103.21H100.936v7.2a.806.806,0,0,1,.016.164Zm-11.671,0H99.3V111.389H89.281Zm-11.691,0H87.627V119.568H77.59Z" transform="translate(-70.26 -75.206)"/></g></svg>