<svg xmlns="http://www.w3.org/2000/svg" width="59.558" height="60.099" viewBox="0 0 59.558 60.099"><defs><style>.a{fill:#fff;}</style></defs><g transform="translate(-0.038 0.034)"><g transform="translate(0.038 -0.034)"><path class="a" d="M59.579,3.813a.466.466,0,0,0-.024-.112V1.167a1.2,1.2,0,0,0-1.31-1.2A125.165,125.165,0,0,0,35.619,4.778a80.627,80.627,0,0,0-18.213,8.043c-6.39,3.95-11.085,8.593-13.952,13.8-5.1,9.263-4.489,20.3,1.83,32.795a1.192,1.192,0,0,0,1.062.65H45.695a1.2,1.2,0,0,0,.8-2.08A53.984,53.984,0,0,1,38.841,48.8c-3.249-4.941-6.8-12.373-5.252-19.765a18.49,18.49,0,0,1,3.37-7.323v8.995H35.775a1.2,1.2,0,0,0-1.2,1.2v4.291a1.2,1.2,0,0,0,1.2,1.2h8.608a1.194,1.194,0,0,0,1.2-1.2V31.9a1.194,1.194,0,0,0-1.2-1.2H43.2V15.76a47.321,47.321,0,0,1,6.923-4.047v8.539H48.94a1.2,1.2,0,0,0-1.2,1.2V25.74a1.2,1.2,0,0,0,1.2,1.2h8.608a1.2,1.2,0,0,0,1.2-1.2V21.448a1.2,1.2,0,0,0-1.2-1.2H56.367V9.069q1.159-.434,2.377-.846a1.2,1.2,0,0,0,.811-1.132V4.328a1.21,1.21,0,0,0,.024-.515ZM43.188,35H36.971V33.1h6.217Zm-2.378-4.291h-1.46V18.978q.693-.684,1.46-1.345Zm15.543-6.161H50.136v-1.9h6.217Zm-2.377-4.293H52.514V10.616q.717-.319,1.462-.617Zm.751-13.12-.021.013q-1.992.765-3.826,1.583a1.055,1.055,0,0,0-.105.048,51.015,51.015,0,0,0-9.422,5.383c-.041.029-.083.059-.121.091a33.032,33.032,0,0,0-3.92,3.4l-.01.011a21.9,21.9,0,0,0-6.057,10.9c-1.355,6.505.593,13.979,5.63,21.616a57.714,57.714,0,0,0,5.941,7.5H24.645c-.091-.147-.185-.295-.274-.442a1.194,1.194,0,0,0-2.211.442H7.085C1.452,46.2.932,36.139,5.541,27.771c6.07-11.014,20.073-17.333,30.751-20.693A125.231,125.231,0,0,1,57.164,2.509v.529l-.179.037a1.2,1.2,0,0,0,.179,2.364v.8q-1.248.438-2.437.9Z" transform="translate(-0.038 0.034)"/><path class="a" d="M247.581,47.741c-.771.319-1.54.638-2.283.969a1.2,1.2,0,0,0,.969,2.19c.721-.319,1.465-.638,2.212-.939a1.2,1.2,0,0,0-.9-2.216Z" transform="translate(-205.605 -40.056)"/><path class="a" d="M152.769,103.925c-.65.55-1.275,1.116-1.873,1.685a1.2,1.2,0,0,0,1.658,1.723c.555-.532,1.146-1.065,1.753-1.58a1.2,1.2,0,0,0-1.541-1.828Z" transform="translate(-126.541 -87.118)"/><path class="a" d="M300.33,29.316c-.8.23-1.586.478-2.367.722a1.2,1.2,0,1,0,.728,2.278c.76-.244,1.537-.478,2.306-.7a1.2,1.2,0,1,0-.668-2.3Z" transform="translate(-249.78 -24.597)"/><path class="a" d="M197.665,72.067c-.728.413-1.449.842-2.139,1.275A1.2,1.2,0,0,0,196.8,75.37c.66-.414,1.35-.824,2.05-1.221a1.2,1.2,0,1,0-1.18-2.08Z" transform="translate(-163.894 -60.444)"/><path class="a" d="M101.766,254.9c-.159-.775-.29-1.553-.384-2.311a1.2,1.2,0,1,0-2.373.3c.1.821.244,1.663.418,2.5a1.194,1.194,0,0,0,1.168.956,1.266,1.266,0,0,0,.244-.024,1.2,1.2,0,0,0,.928-1.425Z" transform="translate(-83.225 -211.443)"/><path class="a" d="M115.548,305.863a1.2,1.2,0,1,0-2.212.885c.3.757.638,1.53.987,2.3a1.2,1.2,0,0,0,1.087.7,1.211,1.211,0,0,0,.5-.11,1.2,1.2,0,0,0,.585-1.594C116.149,307.315,115.833,306.582,115.548,305.863Z" transform="translate(-95.17 -256.393)"/><path class="a" d="M119.435,145.106a1.2,1.2,0,0,0-1.659.319c-.478.708-.928,1.435-1.329,2.171a1.2,1.2,0,0,0,2.1,1.146c.367-.668.775-1.334,1.213-1.983A1.2,1.2,0,0,0,119.435,145.106Z" transform="translate(-97.786 -121.798)"/><path class="a" d="M99.916,200.612a.981.981,0,0,0,.151.011,1.2,1.2,0,0,0,1.186-1.046,22.019,22.019,0,0,1,.408-2.273,1.2,1.2,0,1,0-2.329-.545,25.049,25.049,0,0,0-.453,2.517A1.2,1.2,0,0,0,99.916,200.612Z" transform="translate(-83.116 -164.614)"/></g></g></svg>