<svg xmlns="http://www.w3.org/2000/svg" width="62.297" height="60.297" viewBox="0 0 62.297 60.297"><defs><style>.a{fill:#fff;}</style></defs><g transform="translate(0.022)"><g transform="translate(-0.022)"><path class="a" d="M61.645,55.077a6.454,6.454,0,0,0-6.659.221l-1.666,1.077A8.952,8.952,0,0,1,49,57.8l7.247-22.176a1.241,1.241,0,0,0-.573-1.467l-6.019-3.364V20.74A1.239,1.239,0,0,0,48.417,19.5H46.7V16.236A1.239,1.239,0,0,0,45.464,15H41.29V11.732a1.239,1.239,0,0,0-1.239-1.239H35.4V1.239A1.239,1.239,0,0,0,34.162,0H27.619a1.239,1.239,0,0,0-1.239,1.239v9.253H21.733a1.239,1.239,0,0,0-1.239,1.239V15H16.317a1.239,1.239,0,0,0-1.239,1.239V19.5H13.366a1.239,1.239,0,0,0-1.239,1.239V31.021l-5.6,3.139a1.239,1.239,0,0,0-.572,1.467l6.033,18.465h-.375a11.353,11.353,0,0,0-6.775,2.492,2.5,2.5,0,0,1-2.936.132A1.239,1.239,0,1,0,.538,58.79a4.967,4.967,0,0,0,5.848-.264A9.005,9.005,0,0,1,17.1,58.184a11.4,11.4,0,0,0,12.738.238l1.363-.877a8.933,8.933,0,0,1,9.914.142l.877.6a11.442,11.442,0,0,0,4.765,1.882,1.157,1.157,0,0,0,.149.059,1.2,1.2,0,0,0,.385.063,1.252,1.252,0,0,0,.261-.031c.3.023.6.036.9.036a11.424,11.424,0,0,0,6.221-1.841l1.651-1.077a3.977,3.977,0,0,1,4.106-.135,1.24,1.24,0,0,0,1.206-2.166ZM47.177,29.412,33.893,21.976H47.177ZM28.858,2.479h4.065v8.014H28.858ZM22.972,12.971H38.812V15H22.972Zm-5.416,4.5H44.225V19.5H17.556Zm-2.953,4.5H28.3L14.6,29.64Zm3.914,34.172A11.378,11.378,0,0,0,14.7,54.415L8.62,35.823l5.33-2.974h0l15.862-8.873.03,15.046L29.81,55.489l-1.332.859a8.923,8.923,0,0,1-9.96-.2Zm24-.509a11.4,11.4,0,0,0-10.147-1.393l-.03-15.233.03-15.054L53.575,35.823,46.47,57.592A8.989,8.989,0,0,1,43.4,56.244Z" transform="translate(0.022)"/><path class="a" d="M94.551,183.272l-11,7.011a1.24,1.24,0,0,0,1.333,2.09l10.993-7.011a1.239,1.239,0,0,0-1.33-2.09Z" transform="translate(-69.267 -152.843)"/><path class="a" d="M224.31,192.471a1.239,1.239,0,0,0,.661-2.284l-10.993-7.011a1.24,1.24,0,0,0-1.333,2.09l10.995,7.011A1.239,1.239,0,0,0,224.31,192.471Z" transform="translate(-177.027 -152.747)"/></g></g></svg>