<svg xmlns="http://www.w3.org/2000/svg" xmlns:xlink="http://www.w3.org/1999/xlink" width="50" height="90" viewBox="0 0 50 90"><defs><style>.a{fill:#fff;stroke:#707070;}.b{clip-path:url(#a);}.c,.d{fill:none;stroke:#fff;stroke-linecap:round;stroke-width:2px;}.c{stroke-linejoin:round;}</style><clipPath id="a"><rect class="a" width="50" height="90" transform="translate(935 980)"/></clipPath></defs><g class="b" transform="translate(-935 -980)"><g transform="translate(947.919 987.756)"><g transform="translate(0 0)"><rect class="c" width="24" height="48" rx="12" transform="translate(0.081 0.244)"/><path class="d" d="M0,0V13.948" transform="translate(12.164 7.985)"/><path class="d" d="M-.083,8.74,0,13.961" transform="translate(12.164 25.379)"/><path class="d" d="M3.179,0A3.179,3.179,0,0,1,6.358,3.179,3.291,3.291,0,0,1,4.416,6.108a2.808,2.808,0,0,1-1.237.25A3.179,3.179,0,0,1,3.179,0Z" transform="translate(8.902 25.043)"/></g></g></g></svg>