<svg xmlns="http://www.w3.org/2000/svg" xmlns:xlink="http://www.w3.org/1999/xlink" width="1920" height="1158" viewBox="0 0 1920 1158">
  <defs>
    <clipPath id="clip-path">
      <rect id="Rectangle_19860" data-name="Rectangle 19860" width="1920" height="1158" fill="none" stroke="#fff" stroke-width="2"/>
    </clipPath>
  </defs>
  <g id="Group_7089" data-name="Group 7089" transform="translate(0 -3472)">
    <g id="Group_5076" data-name="Group 5076" transform="translate(0 1883)">
      <rect id="Rectangle_17896" data-name="Rectangle 17896" width="1920" height="1158" transform="translate(0 1589)" fill="#f6f6f6"/>
      <g id="Asset_1" data-name="Asset 1" transform="translate(0 1589)" style="mix-blend-mode: normal;isolation: isolate">
        <g id="Layer_2" data-name="Layer 2" transform="translate(0 0)">
          <g id="OBJECTS" transform="translate(0 0)">
            <g id="Group_4694" data-name="Group 4694" clip-path="url(#clip-path)">
              <g id="Group_4689" data-name="Group 4689" transform="translate(-395.134 -375.745)">
                <path id="Path_25456" data-name="Path 25456" d="M1333.162-52.3a1439.3,1439.3,0,0,1-58.138,177.016c-10.24,25.729-21.811,51.783-41.753,72.338-51.021,52.548-140.288,54.172-216.473,42.758a969.224,969.224,0,0,1-204.442-53.824c-64.87-24.963-127.616-57.188-197.12-67.767s-150.349,6.5-187.8,60.529c-22.272,32.2-25.83,72.941-17.126,110.131s28.672,71.387,50.816,103.658c25.37,36.934,54.81,74.356,58.624,117.717,3.942,44.915-23.424,90.851-67.046,112.474-62.029,30.763-137.958,11.461-207.539,0-88.371-14.593-183.168-14.477-263.91,21.228S-161.9,757.22-153.609,838.281" transform="translate(154.349 307.06)" fill="none" stroke="#fff" stroke-width="2"/>
                <path id="Path_25457" data-name="Path 25457" d="M1313.989-57.53A1345.859,1345.859,0,0,1,1256.9,115.38c-10.24,25.1-21.529,50.483-40.96,70.621-49.69,51.458-136.064,54.288-210.15,44.5q-26.394-3.48-52.48-8.445a938.182,938.182,0,0,1-146.765-40.322c-63.386-23.2-124.826-53.36-192.768-63.035s-144.538,8-184.115,58.325a143.578,143.578,0,0,0-29.338,61.318,152.351,152.351,0,0,0-1.741,46.052,171.629,171.629,0,0,0,3.61,21.228c6.81,28.4,21.3,56.19,37.146,82.615,1.562,2.622,3.149,5.22,4.736,7.842,24.781,40.531,50.944,81.989,52.378,127.345,1.382,43.663-24.038,88.16-66.56,109.388-60.442,30.346-134.144,12.969-201.446,3.271-5.3-.766-10.624-1.485-15.974-2.111-80.794-9.79-165.274-5.8-237.363,27.979-76.8,36.007-135.552,111.894-126.259,190.658" transform="translate(157.83 300.156)" fill="none" stroke="#fff" stroke-width="2"/>
                <path id="Path_25458" data-name="Path 25458" d="M1294.752-62.76a1265.885,1265.885,0,0,1-56.09,168.8c-10.061,24.476-21.248,49.231-40.192,68.927-48.256,50.344-131.865,54.358-203.827,46.191q-25.6-2.923-51.046-7.262A911.375,911.375,0,0,1,800.545,177.43c-61.9-21.274-122.035-49.416-188.365-58.255s-139.162,9.535-180.352,56.1c-16.64,18.792-30.208,37.329-37.453,58.7a145.152,145.152,0,0,0-7.68,45.936,152.189,152.189,0,0,0,1.485,22.156c4.3,30.021,18.688,60.32,34.227,89.065,1.562,2.854,3.1,5.684,4.659,8.515,24.192,44.08,47.155,89.483,46.08,136.88-.9,42.34-24.653,85.33-66,106.349-58.88,29.882-130.278,14.43-195.328,6.566q-7.68-.94-15.36-1.717c-78.029-7.656-158.874-1.856-227.3,32.225-72.986,36.331-128,110.525-117.76,186.992" transform="translate(161.399 293.253)" fill="none" stroke="#fff" stroke-width="2"/>
                <path id="Path_25459" data-name="Path 25459" d="M1275.666-68A1194.178,1194.178,0,0,1,1220.6,96.72c-9.958,23.85-20.992,47.931-39.424,67.28-47.181,49.184-127.667,54.4-197.53,47.839q-24.883-2.32-49.587-6.055a886.306,886.306,0,0,1-139.315-32.5c-60.416-19.418-119.245-45.518-184.013-53.5s-134.2,10.927-176.64,53.894c-18.483,18.7-35.379,35.311-45.542,56.028A139.727,139.727,0,0,0,374.8,275.361a134.75,134.75,0,0,0-.742,23.2c1.792,31.645,16.077,64.566,31.334,95.538,1.51,3.062,3.021,6.125,4.557,9.28,23.6,47.769,43.52,96.814,39.91,146.6-2.918,40.925-25.293,82.569-65.485,103.263-57.216,29.464-126.438,15.939-189.235,9.86-4.966-.464-9.933-.9-14.9-1.276C105,656.283,27.769,663.892-37.025,698.275c-69.12,36.656-120.32,109.04-109.056,183.28" transform="translate(164.818 286.336)" fill="none" stroke="#fff" stroke-width="2"/>
                <path id="Path_25460" data-name="Path 25460" d="M1256.555-73.21a1121.9,1121.9,0,0,1-54.067,160.568c-9.8,23.2-20.736,46.586-38.656,65.471-45.747,48.21-123.443,54.613-191.181,49.671q-24.166-1.74-48.128-4.849a864.575,864.575,0,0,1-135.68-28.768c-58.88-17.586-116.454-41.76-179.61-48.72S479.621,132.3,436.383,171.806c-20.48,18.56-40.525,33.292-53.76,53.36a137.582,137.582,0,0,0-19.763,45.727,121.241,121.241,0,0,0-2.867,23.989c-.742,33.269,13.466,68.765,28.416,102.08l4.454,9.86c23.117,51.3,39.91,103.936,33.69,156.137-4.685,39.44-25.907,79.831-64.973,100.224-55.6,29.023-122.573,17.423-183.117,13.154q-7.181-.522-14.362-.858C91.679,672,18.079,681.465-43.08,716.08c-65.2,36.958-112.64,107.788-100.429,179.661" transform="translate(168.262 279.459)" fill="none" stroke="#fff" stroke-width="2"/>
                <path id="Path_25461" data-name="Path 25461" d="M1237.4-78.44a1052.389,1052.389,0,0,1-53.069,156.461c-9.677,22.6-20.48,45.356-37.837,63.8-44.467,47.073-119.27,54.683-184.909,51.365q-23.4-1.183-46.669-3.666A836.728,836.728,0,0,1,783.023,164.6c-57.446-15.73-113.664-37.77-175.258-44.08s-125.44,13.27-169.165,49.486c-22.477,18.56-45.67,31.274-61.747,50.739a138.04,138.04,0,0,0-25.6,45.611,116.009,116.009,0,0,0-5.12,24.87c-3.251,34.8,10.854,72.941,25.6,108.46,1.434,3.526,2.893,6.96,4.326,10.556,22.477,54.961,36.352,111.128,27.443,165.811-6.2,38.025-26.5,77.094-64.435,97.185-54.246,28.652-118.938,18.978-177.126,16.5-4.582-.185-9.19-.325-13.8-.418-69.683-1.3-139.674,9.906-197.12,44.892-61.312,37.283-105.19,106.419-91.8,176" transform="translate(171.752 272.555)" fill="none" stroke="#fff" stroke-width="2"/>
                <path id="Path_25462" data-name="Path 25462" d="M1218.621-83.67a985.674,985.674,0,0,1-52.1,152.355c-9.575,21.994-20.173,44.08-37.069,62.107-43.162,46.029-115.072,54.822-178.586,53.128q-22.656-.6-45.235-2.459a812.7,812.7,0,0,1-128.179-21.066c-55.962-13.92-110.874-33.872-170.854-39.255s-121.549,14.106-165.453,47.3c-24.653,18.56-50.842,29.162-69.888,47.978a140.267,140.267,0,0,0-31.616,45.519,112.012,112.012,0,0,0-7.373,25.775c-5.76,36.517,8.269,77.14,22.6,115.049q2.15,5.614,4.25,11.229c21.888,58.557,33,118.181,21.2,175.439-7.526,36.54-27.11,74.24-64,94.1-52.378,28.165-114.893,20.393-170.931,19.743H132.132C65.213,704.112-1.142,717.2-55,752.391c-57.446,37.607-97.613,105.05-83.226,172.33" transform="translate(174.913 265.651)" fill="none" stroke="#fff" stroke-width="2"/>
                <path id="Path_25463" data-name="Path 25463" d="M1199.651-88.9A919.877,919.877,0,0,1,1148.63,59.348c-9.421,21.367-19.891,42.781-36.3,60.32-41.83,44.939-110.848,54.915-172.262,54.845q-21.888,0-43.75-1.276a783.049,783.049,0,0,1-124.467-17.214c-54.477-12.018-108.083-29.975-166.4-34.5s-124.57,8.352-161.818,45.078c-30.08,13.9-55.987,27.306-77.926,45.449a144.735,144.735,0,0,0-37.632,45.4,110.123,110.123,0,0,0-9.6,26.7c-8.269,38.118,5.658,81.2,19.712,121.36q2.1,5.962,4.147,11.925c21.3,62.153,29.8,125.28,14.95,185.044-8.7,35.078-27.648,71.665-63.488,91.06C243,721.27,182.742,715.423,128.956,716.583c-4.25,0-8.474.232-12.8.418-64.128,2.947-126.9,17.748-177.1,53.36-53.53,37.932-90.01,103.681-74.6,168.664" transform="translate(178.14 258.748)" fill="none" stroke="#fff" stroke-width="2"/>
                <path id="Path_25464" data-name="Path 25464" d="M1180.659-94.13a860.614,860.614,0,0,1-50.022,144.142c-9.293,20.718-19.61,41.5-35.507,58.7C1054.6,152.487,988.48,163.692,929.19,165.224q-21.146.557-42.317,0a762.449,762.449,0,0,1-120.755-13.34c-52.992-10.278-105.293-26.193-162.1-29.951s-120.781,8.7-157.978,42.943c-32.512,13.131-61.184,25.242-86.042,42.9a150.277,150.277,0,0,0-43.52,45.333,110.1,110.1,0,0,0-11.827,27.585c-10.778,39.742,3.072,85.492,16.819,127.832q2.048,6.264,4.045,12.6c20.71,65.749,26.752,132.24,8.7,194.649-9.779,33.5-28.39,68.742-62.95,87.9-49.178,27.283-107.187,23.362-158.72,26.309-4.07.232-8.115.534-12.186.858-61.44,5.081-120.5,21.669-167.066,57.583-49.638,38.21-82.406,102.289-66,164.976" transform="translate(181.464 251.844)" fill="none" stroke="#fff" stroke-width="2"/>
                <path id="Path_25465" data-name="Path 25465" d="M1161.843-99.36a803.266,803.266,0,0,1-49,140.036c-9.165,20.091-19.379,40.206-34.739,56.979-39.219,42.781-102.451,55.077-159.642,58.232q-20.48,1.16-40.96,1.114a736.209,736.209,0,0,1-117.043-9.489c-51.507-8.329-102.4-22.226-157.747-25.01S485.773,131.388,448.6,163.149c-34.918,12.389-66.33,23.2-94.131,40.136A157.717,157.717,0,0,0,304.883,248.5a110.74,110.74,0,0,0-14.029,28.49c-13.286,41.366.461,89.668,13.926,134.282q2,6.612,3.942,13.27c20.122,69.368,23.91,139.2,2.56,204.3C300.608,661,282.2,694.917,248.922,713.779c-47.667,26.866-103.424,24.87-152.7,29.626-3.891.371-7.68.789-11.648,1.276-58.573,7.192-114.1,25.52-157.03,61.8-45.747,38.535-74.8,100.92-57.37,161.31" transform="translate(184.612 244.94)" fill="none" stroke="#fff" stroke-width="2"/>
                <path id="Path_25466" data-name="Path 25466" d="M1143.082-104.59a747.924,747.924,0,0,1-48,135.929c-9.037,19.488-19.1,38.953-33.946,55.286-37.914,41.76-98.253,55.263-153.344,60.042q-19.61,1.717-39.373,2.32a713.853,713.853,0,0,1-113.331-5.661c-50-6.566-99.661-18.421-153.421-20.346S488.26,132.26,451.14,161.4c-37.325,11.6-71.475,21.228-102.246,37.491-20.966,11.09-40.934,25.914-55.45,45.124a113.18,113.18,0,0,0-16.256,29.395c-15.8,42.99-2.15,93.867,11.008,140.755,1.306,4.64,2.56,9.28,3.866,13.92,19.558,72.964,21.222,146.323-3.763,213.9-11.366,30.763-29.67,63.382-61.85,81.919-46.08,26.4-99.482,26.332-146.509,32.921-3.712.51-7.424,1.067-11.11,1.694-55.808,9.28-107.7,29.51-146.97,66.027-41.882,38.86-67.226,99.551-48.64,157.76" transform="translate(187.706 238.037)" fill="none" stroke="#fff" stroke-width="2"/>
                <path id="Path_25467" data-name="Path 25467" d="M1124.586-109.82A696.717,696.717,0,0,1,1077.559,22c-8.909,18.862-18.816,37.654-33.152,53.592-36.608,40.6-94.054,55.355-147.021,61.759q-18.893,2.32-37.939,3.5a694.035,694.035,0,0,1-109.568-1.879c-48.64-4.64-96.922-14.454-148.966-15.521S491.319,132.9,454.1,159.672c-39.731,10.881-76.646,19.21-110.336,34.8-23.04,10.649-45.184,25.52-61.44,45.008a116.354,116.354,0,0,0-18.483,30.3c-18.278,44.66-4.787,98.09,8.064,147.251q1.92,7.308,3.738,14.639c19,76.56,18.79,153.469-9.984,223.532-12.058,29.325-30.182,60.6-61.44,78.88-44.365,25.984-95.667,27.84-140.442,36.215-3.507.673-7.04,1.369-10.547,2.134C.209,783.87-48.073,805.863-83.708,842.682c-37.99,39.185-59.622,98.183-40.166,153.979" transform="translate(190.535 231.133)" fill="none" stroke="#fff" stroke-width="2"/>
                <path id="Path_25468" data-name="Path 25468" d="M1106.045-115a644.735,644.735,0,0,1-46.08,127.6c-8.755,18.235-18.534,36.354-32.384,51.875-35.277,39.44-89.83,55.471-140.8,63.475q-18.125,2.9-36.454,4.64a669.931,669.931,0,0,1-105.907,2.065c-47.027-2.807-94.131-10.556-144.589-10.765s-105.8,9.674-142.874,33.988C414.845,168.041,375.165,175,338.531,190.058c-25.062,10.231-49.331,24.894-67.456,44.915a119.714,119.714,0,0,0-20.685,31.2c-20.813,46.261-7.347,102.243,5.12,153.677q1.869,7.61,3.635,15.312c18.406,80.156,16.563,160.707-16.23,233.137-12.672,27.956-30.72,57.861-60.8,75.771-42.752,25.52-91.8,29.325-134.323,39.44-3.354.812-6.682,1.647-10.01,2.552-50.253,13.549-94.9,37.375-126.9,74.472-34.1,39.44-52.019,96.814-31.539,150.313" transform="translate(193.384 224.295)" fill="none" stroke="#fff" stroke-width="2"/>
                <path id="Path_25469" data-name="Path 25469" d="M1087.706-120.28A599.443,599.443,0,0,1,1042.752,3.33c-8.653,17.586-18.278,35.078-31.616,50.159C977.165,91.908,925.5,109.169,876.762,118.7q-17.408,3.434-35.021,5.893a645.964,645.964,0,0,1-102.169,5.916c-45.568-.951-91.341-6.682-140.211-6.009s-98.714,16.24-139.341,31.807c-42.086,16.24-87.04,15.173-126.541,29.534-27.085,9.79-53.5,24.36-73.421,44.8a123.71,123.71,0,0,0-23.04,32.109c-23.322,47.885-9.933,106.419,2.33,160.081q1.792,7.981,3.533,16.008C260.8,522.617,257.447,606.9,220.4,681.584c-13.107,26.611-31.309,55.077-60.16,72.686-41.165,25.1-87.962,30.9-128.23,42.8-3.174.928-6.323,1.926-9.472,2.97-47.462,15.683-88.5,41.3-116.864,78.695-30.208,39.811-44.442,95.445-23.04,146.648" transform="translate(196.055 217.326)" fill="none" stroke="#fff" stroke-width="2"/>
                <path id="Path_25470" data-name="Path 25470" d="M1069.565-125.5A556.159,556.159,0,0,1,1025.609-6.02c-8.525,16.982-17.92,33.8-30.72,48.465-32.666,37.352-81.434,55.68-128,66.932q-16.614,4.037-33.536,7.1a623.156,623.156,0,0,1-98.662,9.744c-44.058.9-88.55-2.784-135.834-1.253s-95.667,15.892-135.68,29.58c-44.8,15.358-92.16,13.178-134.63,26.912-29.03,9.257-57.7,23.757-79.334,44.521A127.748,127.748,0,0,0,224.1,258.995c-25.856,49.579-12.57,110.688-.589,166.669q1.766,8.282,3.43,16.681c17.229,87.371,12.8,175.555-28.723,252.37-13.7,25.358-32.026,52.363-59.75,69.6-39.552,24.731-84.1,32.387-122.112,46.145-3,1.09-5.965,2.32-8.934,3.41-44.7,17.794-82.1,45.217-106.8,82.917-26.342,40.136-36.864,94.076-14.336,142.982" transform="translate(198.529 210.436)" fill="none" stroke="#fff" stroke-width="2"/>
                <path id="Path_25471" data-name="Path 25471" d="M1051.695-130.73a513.1,513.1,0,0,1-42.957,115.374c-8.371,16.24-17.715,32.48-30.029,46.771-31.36,36.239-77.235,55.68-121.754,68.649q-15.9,4.64-32.1,8.282a602.876,602.876,0,0,1-94.72,13.642c-42.573,2.738-85.734,1.09-131.43,3.5s-92.621,15.544-131.891,27.353c-47.616,14.175-97.331,11.043-142.8,24.128-31.1,8.932-61.824,23.432-85.35,44.591a131.962,131.962,0,0,0-27.341,33.919c-28.365,51.04-15.155,114.794-3.507,173.072q1.741,8.631,3.354,17.331c16.666,90.921,11.392,183.257-34.97,262-14.157,24.105-32.614,49.625-59.213,66.607C79.048,798.734,36.732,808.246.969,823.883c-2.816,1.23-5.632,2.506-8.4,3.828-41.933,19.929-75.725,49.138-96.768,87.139-22.451,40.461-29.261,92.8-5.709,139.317" transform="translate(200.732 203.532)" fill="none" stroke="#fff" stroke-width="2"/>
                <path id="Path_25472" data-name="Path 25472" d="M1034.145-136A474.146,474.146,0,0,1,992.212-24.64,241.254,241.254,0,0,1,963.08,20.3C933.025,55.47,890.043,76.188,847.623,90.688q-15.129,5.2-30.72,9.489a586.465,586.465,0,0,1-91.034,17.47c-40.96,4.64-82.97,4.988-127.078,8.259s-89.6,15.15-128.154,25.149c-50.278,13.015-102.5,9.164-150.886,21.506-33.1,8.584-65.971,22.9-91.392,44.567a136.875,136.875,0,0,0-29.568,34.8c-30.8,52.873-17.69,118.993-6.272,179.545q1.69,8.978,3.251,18.026c16.077,94.587,10.24,191.122-41.19,271.6-14.618,22.922-33.28,46.887-58.726,63.568C59.4,808.475,19.387,819.843-14.1,837.336c-2.56,1.392-5.274,2.807-7.859,4.246-39.142,22.063-69.325,53.082-86.733,91.385-18.56,40.786-21.658,91.338,2.893,135.651" transform="translate(202.615 196.575)" fill="none" stroke="#fff" stroke-width="2"/>
                <path id="Path_25473" data-name="Path 25473" d="M1016.968-141.19a435.579,435.579,0,0,1-40.96,107.045A249.43,249.43,0,0,1,947.516,9.193c-28.672,34.081-68.762,56-109.056,72.106-9.6,3.851-19.354,7.424-29.184,10.7a565.677,565.677,0,0,1-87.347,21.321c-39.6,6.45-80.154,8.886-122.675,13.015S512.9,140.992,474.812,149.252c-53.12,11.6-107.52,7.146-158.925,18.931-35.123,8.074-70.144,22.318-97.28,44.4a141.983,141.983,0,0,0-31.8,35.728c-33.28,54.381-20.48,123.169-9.293,185.995q1.664,9.28,3.123,18.7c15.514,98.183,9.216,199.242-47.411,281.231C118.178,756,99.362,778.322,75.042,794.724,40.3,818.11,2.466,831.5-28.766,850.706c-2.56,1.508-4.915,3.086-7.322,4.64-36.108,23.7-62.96,57.188-76.672,95.631-14.694,41.064-14.08,89.947,11.494,131.962" transform="translate(204.099 189.725)" fill="none" stroke="#fff" stroke-width="2"/>
                <path id="Path_25474" data-name="Path 25474" d="M1000.253-146.42A398.387,398.387,0,0,1,960.343-43.5a261.664,261.664,0,0,1-27.7,41.76C905.226,31.269,868.029,54.377,829.834,72.1c-9.088,4.246-18.355,8.19-27.725,11.878A548.421,548.421,0,0,1,718.5,109.152c-38.118,8.306-77.363,12.76-118.323,17.771s-83.1,14.106-120.678,20.718c-55.885,9.837-112.794,5.15-167.04,16.24-37.146,7.586-74.317,21.738-103.245,44.243a147.293,147.293,0,0,0-34.022,36.61c-35.84,56-23.04,127.345-12.186,192.445,1.05,6.426,2.074,12.9,3.021,19.4,14.925,101.778,8.55,207.641-53.76,290.836-15.36,20.671-34.483,41.366-57.677,57.443C21.566,827.8-14.019,843.086-42.972,864.128q-3.4,2.459-6.758,5.081c-33.281,26.028-56.587,60.959-66.56,99.76-10.8,41.389-6.477,88.578,20.1,128.3" transform="translate(205.146 182.821)" fill="none" stroke="#fff" stroke-width="2"/>
                <path id="Path_25475" data-name="Path 25475" d="M984.333-151.65a365.463,365.463,0,0,1-38.886,98.809,286.187,286.187,0,0,1-26.931,39.95C892.4,19.01,858.1,43.323,822.029,62.672c-8.6,4.64-17.382,8.978-26.266,13.062a530.617,530.617,0,0,1-79.923,29.047c-36.608,10.138-74.573,16.634-113.92,22.5s-79.77,13.5-116.966,18.56c-58.6,7.934-117.939,3.086-175.155,13.6-39.142,7.192-78.464,21.275-109.21,44.08a152.208,152.208,0,0,0-36.224,37.631c-38.4,57.629-25.6,131.544-15.1,198.917,1.05,6.635,2.022,13.34,2.944,20.068,14.336,105.375,8.166,216.318-59.9,300.441a293.617,293.617,0,0,1-57.139,54.4c-31.514,22.5-64.87,39.742-91.622,62.64-2.1,1.81-4.173,3.642-6.221,5.521-30.551,28.385-50.37,64.827-56.6,104.076-6.912,41.76,1.126,87.209,28.723,124.631" transform="translate(205.399 175.917)" fill="none" stroke="#fff" stroke-width="2"/>
                <path id="Path_25476" data-name="Path 25476" d="M969.111-156.88a333.888,333.888,0,0,1-37.888,94.7,312.249,312.249,0,0,1-26.137,38.234C880.279,6.889,848.765,32.363,814.9,53.336c-8.09,5.011-16.384,9.767-24.806,14.268A512.477,512.477,0,0,1,713.9,100.5a740.444,740.444,0,0,1-109.568,27.26c-37.555,6.682-76.288,12.853-113.229,16.24-61.235,5.73-123.085,1.114-183.245,11-41.165,6.751-82.611,20.741-115.2,44.08a157.925,157.925,0,0,0-38.323,38.512c-40.96,59.23-28.16,135.7-17.92,205.344,1,6.96,1.971,13.92,2.842,20.88,13.747,109.04,8.038,225.319-66.15,310.069A355.921,355.921,0,0,1,16.484,825.2c-29.9,22.063-61,41.227-85.5,65.865-1.92,1.948-3.814,3.921-5.683,5.939-27.778,30.683-44.14,68.54-46.746,108.158-3.021,42.039,8.73,85.841,37.35,120.965" transform="translate(204.954 169.014)" fill="none" stroke="#fff" stroke-width="2"/>
                <path id="Path_25477" data-name="Path 25477" d="M954.741-162.11C934.619-71.769,869.365,7.645,785.422,59.474s-185.754,77.488-287.283,82.871c-63.8,3.364-128.256-.9-191.334,8.329s-127.1,34.8-161.818,83.335c-43.52,60.854-30.72,139.9-20.89,211.817,16.256,118.32,16.026,250.561-69.658,341.041C11.765,831.92-48.6,862.057-86.206,910.661c-52.122,67.4-48.077,166.113,9.421,229.82" transform="translate(203.632 162.11)" fill="none" stroke="#fff" stroke-width="2"/>
              </g>
              <g id="Group_4690" data-name="Group 4690" transform="translate(230.246 683.269)">
                <path id="Path_25478" data-name="Path 25478" d="M89.94,685.12A1585.869,1585.869,0,0,1,218.964,542.207c20.48-20.114,42.163-40.136,69.324-52.13,69.453-30.6,152.5-.882,217.907,36.308A888.174,888.174,0,0,1,671.828,647.559c49.2,45.75,93.363,97.44,152.985,131.5s141.44,46.7,199.04,9.883c34.278-21.9,54.912-58.255,62.72-95.585s3.968-75.887-2.714-113.4c-7.68-42.967-18.867-87.766-3.917-129.109,15.514-42.8,60.339-75.586,109.773-80.272,70.323-6.682,132.147,37.7,191.437,72.639,75.289,44.4,162.79,77.465,252.467,72.779s180.326-54.381,207.232-132.055" transform="translate(-89.94 -194.647)" fill="none" stroke="#fff" stroke-width="2"/>
                <path id="Path_25479" data-name="Path 25479" d="M93.57,699.742A1462.169,1462.169,0,0,1,220.8,559.636c20.275-19.627,41.7-39.138,68.4-50.924,53.632-23.664,115.379-11.6,170.726,11.6q22.36,9.469,43.52,21.042a870.857,870.857,0,0,1,164.275,115.42c49.024,43.779,92.954,93.751,151.936,126.487,33.075,18.4,72.269,31,110.874,33.269,33.613,1.949,66.97-4.106,94.848-21.39a132,132,0,0,0,14.157-10.115c27.366-22.527,43.981-54.915,51.2-88.16a229.894,229.894,0,0,0,4.634-31.923c2.048-28.142-.359-56.608-3.917-84.448-5.606-44.08-13.082-89.344,3.789-130.593s59.7-72.848,107.955-77.627c68.685-6.844,129.254,34.986,187.213,67.466,4.582,2.575,9.19,5.081,13.849,7.563,70.349,37.283,149.965,63.174,230.861,57.235,86.246-6.334,172.723-55.68,197.709-131.707" transform="translate(-84.277 -192.496)" fill="none" stroke="#fff" stroke-width="2"/>
                <path id="Path_25480" data-name="Path 25480" d="M97.2,720.791A1358.451,1358.451,0,0,1,222.64,583.516c20.07-19.163,41.267-38.141,67.482-49.741,52.685-23.2,113.178-12.435,167.654,9.28q22.028,8.845,42.957,19.72A853.436,853.436,0,0,1,663.6,672.465c48.794,41.76,92.6,90.086,151.04,121.684,34.33,18.56,74.547,31.738,114.33,34.568,34.56,2.32,69.12-3.271,98.074-20.671a128.349,128.349,0,0,0,14.694-10.278c28.518-22.945,45.542-56.307,53.376-90.48a248.581,248.581,0,0,0,5.12-33.106c2.56-28.907,1.177-58.186-1.126-86.7-3.533-45.333-7.3-90.875,11.494-132.1,17.92-39.138,59.11-70.087,106.189-74.983,67-6.96,126.336,32.248,182.989,62.292q6.682,3.48,13.517,6.96c68.685,34.359,145.741,57.3,223.411,49.811,82.79-7.958,165.12-57.165,188.186-131.312" transform="translate(-78.614 -196.956)" fill="none" stroke="#fff" stroke-width="2"/>
                <path id="Path_25481" data-name="Path 25481" d="M100.82,742.544a1263.055,1263.055,0,0,1,123.7-134.56c19.814-18.676,40.781-37.12,66.56-48.534,51.686-22.9,110.95-13.224,164.557,6.96q21.731,8.344,42.445,18.653A835.728,835.728,0,0,1,659.566,688.975c48.64,39.951,92.288,86.374,149.939,116.812,35.61,18.792,76.8,32.48,117.76,35.867,35.533,2.9,71.347-2.459,101.3-19.975a130.831,130.831,0,0,0,15.36-10.417c29.645-23.386,47.078-57.745,55.475-92.986a274.026,274.026,0,0,0,5.734-34.034c3.174-29.7,2.688-59.787,1.638-88.972-1.485-46.516-1.613-92.336,19.2-133.586,18.816-37.329,58.522-67.28,104.422-72.361,65.331-7.169,123.418,29.534,178.739,57.119q6.554,3.271,13.209,6.4c67.047,31.436,141.517,51.458,215.936,42.41,79.36-9.628,157.542-58.58,178.714-130.965" transform="translate(-72.967 -202.052)" fill="none" stroke="#fff" stroke-width="2"/>
                <path id="Path_25482" data-name="Path 25482" d="M104.45,764.373A1170.98,1170.98,0,0,1,226.357,632.759c19.61-18.212,40.346-36.145,65.638-47.351,50.739-22.5,108.774-13.92,161.485,4.756q21.366,7.612,41.8,17.145a818.613,818.613,0,0,1,160.077,98.159c48.384,38,91.981,82.615,148.915,111.894,36.89,18.978,79.13,33.223,121.242,37.12,36.454,3.387,73.523-1.6,104.525-19.256a135.811,135.811,0,0,0,15.846-10.556c30.72-23.826,48.64-59.183,57.574-95.468a300.866,300.866,0,0,0,6.323-34.939c3.738-30.462,4.2-61.387,4.429-91.269.563-47.676,3.994-93.751,26.88-135.071,19.686-35.5,57.907-64.589,102.63-69.716,63.667-7.308,120.5,26.819,174.541,51.945,4.25,2,8.55,3.921,12.8,5.823,65.382,28.513,137.293,45.588,208.486,34.986,75.878-11.275,149.965-59.949,169.19-130.57" transform="translate(-67.304 -207.2)" fill="none" stroke="#fff" stroke-width="2"/>
                <path id="Path_25483" data-name="Path 25483" d="M108.08,786.162A1088.32,1088.32,0,0,1,228.2,657.355c19.379-17.725,39.859-35.125,64.691-46.145,49.792-22.11,106.573-14.8,158.413,2.436,14.182,4.64,28.006,10.115,41.216,15.869A800.778,800.778,0,0,1,651.235,721.9c48.179,36.1,91.725,78.88,147.917,107.022,38.17,19.14,81.382,33.942,124.7,38.466,37.4,3.851,75.7-.789,107.725-18.56a141.02,141.02,0,0,0,16.435-10.695c31.923-24.244,50.176-60.6,59.673-97.928a320.149,320.149,0,0,0,6.887-35.89c4.326-31.227,5.657-62.965,7.219-93.52,2.56-48.883,9.523-95.12,34.611-136.556,20.48-33.71,57.293-61.851,100.839-67.095,61.978-7.47,117.581,24.1,170.291,46.771,4.173,1.786,8.346,3.549,12.57,5.243,63.718,25.52,133.12,39.742,201.011,27.585C1713.558,473.8,1783.5,425.378,1800.8,356.52" transform="translate(-61.642 -212.308)" fill="none" stroke="#fff" stroke-width="2"/>
                <path id="Path_25484" data-name="Path 25484" d="M111.71,807.978a1010.713,1010.713,0,0,1,118.349-126c19.174-17.237,39.424-34.127,63.769-44.961,48.819-21.715,104.371-15.567,155.341.162,13.952,4.269,27.571,9.28,40.627,14.547a784.632,784.632,0,0,1,157.338,86.652c47.949,34.15,91.443,75.006,146.893,102.08,39.475,19.3,83.661,34.8,128.154,39.765,38.4,4.338,77.875,0,110.925-17.841a138.981,138.981,0,0,0,17-10.834c33.075-24.685,51.738-62.037,61.8-100.387a359.619,359.619,0,0,0,7.475-36.819c4.89-32.016,7.142-64.566,10.01-95.816,4.557-50.043,14.95-96.535,42.291-138.04,21.094-31.877,56.678-59.068,99.046-64.357,60.339-7.633,114.688,21.39,166.093,41.621,4.045,1.578,8.141,3.132,12.237,4.64,62.08,22.643,128.845,33.872,193.562,20.161,68.992-14.57,134.784-62.64,150.2-129.92" transform="translate(-55.979 -217.443)" fill="none" stroke="#fff" stroke-width="2"/>
                <path id="Path_25485" data-name="Path 25485" d="M115.34,829.757A940.227,940.227,0,0,1,231.9,706.611c18.944-16.773,38.963-33.129,62.848-43.778,47.872-21.321,102.2-16.379,152.269-2.158,13.722,3.852,27.162,8.4,40.064,13.271a769.836,769.836,0,0,1,155.93,80.875c47.744,32.225,91.213,71.178,145.92,97.232,40.806,19.441,85.965,35.4,131.635,41.064,39.27,4.8,80.051.858,114.15-17.145a140.419,140.419,0,0,0,17.562-11c34.227-25.1,53.274-63.429,64-102.846,3.354-12.528,5.939-25.2,8.013-37.746,5.479-32.782,8.678-66.143,12.8-98.067,6.6-51.249,20.3-97.951,50-139.548,21.555-30.16,56.089-56.33,97.28-61.805,58.65-7.8,111.744,18.56,161.869,36.447q5.914,2.088,11.9,4.06c60.416,19.72,124.621,28.026,186.112,12.76,65.536-16.24,127.181-64.148,140.8-129.48" transform="translate(-50.316 -222.565)" fill="none" stroke="#fff" stroke-width="2"/>
                <path id="Path_25486" data-name="Path 25486" d="M119,851.559A875.8,875.8,0,0,1,233.816,731.221c18.713-16.24,38.4-32.132,61.9-42.572,46.925-20.88,99.84-17.075,149.171-4.454,13.517,3.457,26.752,7.54,39.5,11.971a752.115,752.115,0,0,1,154.547,75.122c47.539,30.3,91.008,67.28,144.87,92.313,42.112,19.581,88.243,36.146,135.066,42.363,40.243,5.29,82.253,1.694,117.376-16.449A138.417,138.417,0,0,0,1054.4,878.4c35.354-25.52,54.835-64.96,66.022-105.305,3.533-12.853,6.3-25.845,8.6-38.675,6.042-33.571,10.24-67.721,15.565-100.363,8.678-52.409,25.6-99.343,57.7-141.01,21.965-28.466,55.475-53.592,95.514-59.183,56.986-7.958,108.826,15.962,157.619,31.274,3.84,1.206,7.68,2.32,11.6,3.48,58.88,16.774,120.32,22.156,178.637,5.336,62.106-17.887,119.6-65.517,131.174-129.085" transform="translate(-44.606 -227.687)" fill="none" stroke="#fff" stroke-width="2"/>
                <path id="Path_25487" data-name="Path 25487" d="M122.59,873.335A816.882,816.882,0,0,1,235.614,755.827c18.585-15.8,38.041-31.134,60.979-41.319,45.952-20.532,97.766-17.864,146.1-6.775,13.286,3.062,26.342,6.682,38.938,10.7A736.251,736.251,0,0,1,634.769,787.8c47.334,28.351,90.829,63.383,143.846,87.418,43.52,19.674,90.547,36.888,138.547,43.663,41.19,5.754,84.48,2.529,120.6-15.753a144.862,144.862,0,0,0,18.714-11.252c36.506-25.984,56.32-66.306,68.122-107.764,3.712-13.178,6.656-26.471,9.19-39.6,6.6-34.359,11.7-69.322,18.355-102.637,10.7-53.615,30.72-100.781,65.408-142.518,22.272-26.8,54.861-50.831,93.7-56.539,55.322-8.12,105.933,13.247,153.421,26.1,3.738,1,7.5,1.972,11.264,2.9,57.114,13.92,116.173,16.24,171.187-2.065,58.65-19.535,112.026-66.932,121.677-128.737" transform="translate(-39.006 -232.782)" fill="none" stroke="#fff" stroke-width="2"/>
                <path id="Path_25488" data-name="Path 25488" d="M126.22,895.27a758.736,758.736,0,0,1,111.258-114.7c18.253-15.335,37.555-30.16,60.032-40.183,45-20.161,95.565-18.56,143.027-9.071,13.082,2.645,25.907,5.823,38.4,9.28a721.788,721.788,0,0,1,151.783,63.615c47.1,26.425,90.624,59.485,142.822,82.523,44.8,19.79,92.8,37.63,142,44.962,42.138,6.241,86.6,3.364,123.8-15.034a146.243,146.243,0,0,0,19.277-11.391c37.658-26.4,57.933-67.721,70.246-110.247,3.891-13.479,7.014-27.1,9.754-40.531,7.194-35.1,13.235-70.9,21.146-104.911,12.8-54.8,35.84-102.266,73.114-143.98,22.528-25.172,54.272-48.094,91.929-53.917,53.76-8.283,102.989,10.533,149.171,20.88,3.661.812,7.3,1.578,10.982,2.32,55.424,10.927,111.923,10.44,163.712-9.489,55.168-21.182,104.422-68.3,112.154-128.366" transform="translate(-33.343 -238.035)" fill="none" stroke="#fff" stroke-width="2"/>
                <path id="Path_25489" data-name="Path 25489" d="M129.85,916.97A707.656,707.656,0,0,1,239.316,805.123c17.92-14.871,37.12-29.14,59.11-39,44.058-19.766,93.389-19.441,139.955-11.368,12.8,2.32,25.6,4.965,37.76,8.073a707.443,707.443,0,0,1,150.4,57.861c46.9,24.5,90.445,55.518,141.824,77.627,46.08,19.859,95.078,38.35,145.459,46.261,43.059,6.7,88.781,4.176,127-14.338a148.572,148.572,0,0,0,19.866-11.6c38.784-26.8,59.469-69.09,72.346-112.636,4.07-13.92,7.373-27.84,10.24-41.458,7.68-35.891,14.746-72.5,23.936-107.184,14.822-55.982,40.678-103.82,80.794-145.488,22.707-23.571,53.76-45.333,90.138-51.249,51.994-8.445,100.1,7.8,144.973,15.73,3.533.626,7.091,1.206,10.65,1.74,53.76,8,107.7,4.64,156.16-16.889,51.738-22.852,96.845-69.716,102.656-127.995" transform="translate(-27.68 -243.078)" fill="none" stroke="#fff" stroke-width="2"/>
                <path id="Path_25490" data-name="Path 25490" d="M133.48,938.7A659.283,659.283,0,0,1,241.154,829.66c17.92-14.384,36.659-28.118,58.214-37.816,43.059-19.349,91.162-20.208,136.858-13.665,12.621,1.809,25.062,4.13,37.2,6.8A691.476,691.476,0,0,1,622.414,837.06c46.694,22.574,90.291,51.574,140.8,72.732,47.539,19.906,97.28,39.092,148.915,47.56,44.032,7.192,90.982,5.011,130.253-13.619a148.9,148.9,0,0,0,20.48-11.6c39.936-27.26,61.031-70.551,74.445-115.165,4.224-14.106,7.68-28.35,10.931-42.386,8.32-36.656,16.333-74.055,26.7-109.435,17-57.142,45.542-105.468,88.5-147,22.835-22.04,53.069-42.6,88.371-48.6,50.33-8.607,97.28,5.058,140.8,10.556,3.456.418,6.886.812,10.24,1.16,52.121,5.058,103.449-1.276,148.787-24.314,48.281-24.5,89.241-71.085,93.158-127.6" transform="translate(-22.018 -248.173)" fill="none" stroke="#fff" stroke-width="2"/>
                <path id="Path_25491" data-name="Path 25491" d="M137.11,960.588a612.707,612.707,0,0,1,105.907-106.21c17.613-13.92,36.2-27.144,57.267-36.633,42.112-18.978,88.986-20.88,133.786-15.962,12.39,1.392,24.653,3.248,36.608,5.5a676.7,676.7,0,0,1,147.61,46.4c46.49,20.625,90.163,47.56,139.8,67.837,48.9,19.929,99.661,39.811,152.371,48.859,44.979,7.656,93.158,5.823,133.453-12.922a151.2,151.2,0,0,0,21.018-11.832c40.96-27.7,62.566-71.92,76.544-117.624,4.4-14.431,8.09-29,11.494-43.315,8.909-37.445,17.92-75.655,29.491-111.731,19.072-58.325,50.278-107.208,96.2-148.481,23.04-20.555,52.454-39.858,86.6-45.982,48.64-8.77,94.259,2.32,136.5,5.382,3.328.232,6.656.418,10.01.58,50.483,2.134,99.226-7.122,141.312-31.714,44.851-26.239,81.664-72.64,83.737-127.3" transform="translate(-16.355 -253.334)" fill="none" stroke="#fff" stroke-width="2"/>
                <path id="Path_25492" data-name="Path 25492" d="M140.73,982.378a571.863,571.863,0,0,1,104.141-103.4c17.382-13.41,35.84-26.124,56.32-35.427,41.165-18.56,86.784-21.785,130.714-18.282,12.186.974,24.218,2.32,36.045,4.2a665.161,665.161,0,0,1,146.227,40.623c46.285,18.723,90.01,43.57,138.8,62.942,50.278,19.952,101.939,40.554,155.827,50.159,45.9,8.143,95.334,6.658,136.678-12.2a154.1,154.1,0,0,0,21.555-11.971c42.214-28.142,64.128-73.428,78.669-120.084,4.582-14.755,8.448-29.65,12.083-44.266,9.472-38.21,19.379-77.233,32.282-113.982,21.12-59.508,54.912-109.041,103.911-149.965,22.912-19.117,51.84-37.12,84.787-43.338,47-8.932,91.341-.371,132.3.209h9.677c48.819-.789,95-12.992,133.862-39.138,41.4-27.84,74.086-73.869,74.24-126.881" transform="translate(-10.708 -258.443)" fill="none" stroke="#fff" stroke-width="2"/>
                <path id="Path_25493" data-name="Path 25493" d="M144.36,1004.262a531.958,531.958,0,0,1,102.4-100.549,294.386,294.386,0,0,1,55.4-34.243c40.192-18.189,84.48-22.6,127.642-20.578,11.955.557,23.808,1.554,35.456,2.9a651.572,651.572,0,0,1,144.845,34.8c46.08,16.774,89.856,39.44,137.754,58,51.686,19.952,104.217,41.319,159.309,51.481,46.848,8.584,97.51,7.493,139.878-11.6a156.668,156.668,0,0,0,22.144-12.111c43.366-28.582,65.664-74.843,80.768-122.566,4.762-15.057,8.806-30.16,12.646-45.17,10.035-39,20.89-78.88,35.072-116.279,23.168-60.668,59.443-111.082,111.616-151.427,23.04-17.748,51.2-34.359,83.021-40.716,45.312-9.094,88.422-3.086,128-4.965,3.123-.139,6.246-.348,9.37-.58,47.155-3.712,90.777-18.838,126.413-46.539,37.939-29.464,66.56-75.284,64.64-126.51" transform="translate(-5.045 -263.67)" fill="none" stroke="#fff" stroke-width="2"/>
                <path id="Path_25494" data-name="Path 25494" d="M148,1026a496.1,496.1,0,0,1,100.583-97.742,305.394,305.394,0,0,1,54.477-33.037c39.245-17.795,82.406-23.386,124.569-22.9,11.725.163,23.4.719,34.867,1.624a638.239,638.239,0,0,1,143.36,29.047c45.85,14.848,89.728,35.519,136.755,53.151,53.094,19.906,106.5,42.039,162.739,52.757,47.821,9.071,99.712,8.329,143.1-10.788a160.123,160.123,0,0,0,22.733-12.249c44.493-28.93,67.3-76.282,82.893-125.025,4.941-15.382,9.19-30.9,13.235-46.1,10.6-39.765,22.4-80.412,37.862-118.552,25.216-61.875,63.872-113.263,119.3-152.935,23.04-16.4,50.637-31.6,81.229-38.071,43.674-9.28,85.53-5.8,123.853-10.138,3.021-.348,6.042-.742,9.037-1.16,45.517-6.658,86.554-24.708,118.938-53.963,34.509-31.088,58.88-76.56,55.142-126.139" transform="translate(0.634 -268.725)" fill="none" stroke="#fff" stroke-width="2"/>
                <path id="Path_25495" data-name="Path 25495" d="M151.62,1048a460.781,460.781,0,0,1,98.816-95.12,319.172,319.172,0,0,1,53.53-31.831c38.4-17.423,80.2-24.2,121.5-25.2q17.28-.418,34.3.325a625.2,625.2,0,0,1,142.054,23.2c45.645,12.922,89.6,31.459,135.68,48.233,54.528,19.836,108.8,42.781,166.221,54.079,48.768,9.535,101.888,9.141,146.33-10.092a161.655,161.655,0,0,0,23.3-12.412c45.645-29.418,68.762-77.674,84.966-127.484,5.12-15.683,9.549-31.529,13.824-47.027,11.161-40.53,23.91-81.989,40.627-120.826,27.289-63.035,68.224-115.629,127-154.4,23.04-15.126,50.048-28.861,79.36-35.45,41.984-9.419,82.586-8.514,119.6-15.312,2.918-.534,5.837-1.114,8.73-1.74,43.4-9.229,82.441-30.718,111.488-61.364,31.027-32.759,51.2-78.068,45.619-125.767" transform="translate(6.281 -273.953)" fill="none" stroke="#fff" stroke-width="2"/>
                <path id="Path_25496" data-name="Path 25496" d="M155.25,1069.58A429.439,429.439,0,0,1,252.274,977.5a335.937,335.937,0,0,1,52.608-30.671c37.325-17.006,78.029-25.033,118.426-27.469,11.29-.719,22.554-1.021,33.715-1a614.289,614.289,0,0,1,140.672,17.563c45.44,10.974,89.6,27.376,134.733,43.338,55.936,19.743,111.078,43.593,169.7,55.356,49.69,10.022,104.064,9.976,149.53-9.4a161.224,161.224,0,0,0,23.859-12.528c46.8-29.858,70.323-79.112,87.04-129.92,5.274-16.008,9.907-32.155,14.387-47.954,11.75-41.319,25.446-83.52,43.52-123.1,29.338-64.218,72.5-118.2,134.733-155.9a274.224,274.224,0,0,1,77.67-32.8c40.32-9.558,79.667-11.229,115.379-20.486,2.816-.719,5.606-1.508,8.4-2.32,41.847-12.346,78.275-36.437,104.013-68.788,27.6-34.406,43.725-79.437,36.122-125.4" transform="translate(11.944 -278.969)" fill="none" stroke="#fff" stroke-width="2"/>
                <path id="Path_25497" data-name="Path 25497" d="M158.87,1091.423a400.139,400.139,0,0,1,95.258-89.274,358.75,358.75,0,0,1,51.686-29.464A364.937,364.937,0,0,1,421.168,942.9c11.059-1.137,22.118-1.856,33.152-2.32a604.079,604.079,0,0,1,139.29,11.786c45.21,9.048,89.344,23.2,133.709,38.443,57.37,19.6,113.357,44.242,173.133,56.654,50.637,10.51,106.24,10.811,152.755-8.677a164.837,164.837,0,0,0,24.422-12.667c47.923-30.3,71.859-80.551,89.191-132.4,5.453-16.24,10.24-32.8,14.976-48.906,12.313-42.085,26.957-85.167,46.08-125.28,31.385-65.424,76.8-120.988,142.413-157.412a319.341,319.341,0,0,1,75.878-30.16c38.656-9.721,76.8-13.92,111.155-25.659,2.714-.928,5.427-1.879,8.09-2.9,40.333-15.492,74.192-42.2,96.691-76.259,24.141-36.076,36.122-80.852,26.624-125.025" transform="translate(17.591 -284.13)" fill="none" stroke="#fff" stroke-width="2"/>
                <path id="Path_25498" data-name="Path 25498" d="M162.5,1113.08a371.727,371.727,0,0,1,93.44-86.443c48.027-31.972,104.027-52.693,163.021-60.32,10.829-1.554,21.709-2.738,32.563-3.573a591.795,591.795,0,0,1,137.907,6.032c45,7.122,89.216,19.186,132.685,33.547,58.88,19.418,115.661,44.962,176.64,58,51.584,10.974,108.416,11.6,155.955-7.981a166.192,166.192,0,0,0,25.011-12.807c49.075-30.74,73.421-81.966,91.29-134.885,5.632-16.635,10.624-33.431,15.539-49.811,12.8-42.873,28.493-86.745,49-127.6,33.459-66.584,80.845-123.981,150.118-158.874a388.694,388.694,0,0,1,74.24-27.539c36.992-9.883,73.83-16.658,106.931-30.833,2.56-1.114,5.12-2.32,7.68-3.48,38.671-18.63,69.853-47.863,89.088-83.52,20.685-37.7,28.544-82.244,17.1-124.654" transform="translate(23.254 -289.106)" fill="none" stroke="#fff" stroke-width="2"/>
                <path id="Path_25499" data-name="Path 25499" d="M166.13,1135.015c57.062-76.282,151.04-126.7,250.726-145.117s204.262-6.5,300.186,24.058c60.288,19.21,117.914,45.727,180.045,59.253s132.045,12.505,184.781-20.207c65.971-40.948,87.987-118.321,109.517-188.083,35.4-114.794,92.16-236.849,209.587-290.3,58.573-26.61,127.1-33.292,182.5-64.96,76.8-43.941,115.2-136.416,89.216-215.3" transform="translate(28.916 -294.36)" fill="none" stroke="#fff" stroke-width="2"/>
              </g>
              <g id="Group_4691" data-name="Group 4691" transform="translate(-676.429 -345.886)">
                <path id="Path_25500" data-name="Path 25500" d="M-264.23,32.134a1671.766,1671.766,0,0,1,155.341-119.5c24.166-16.426,49.459-32.48,78.566-39.927,74.394-18.838,150.17,24.058,207,71.317A843.1,843.1,0,0,1,315.584,90.3c39.3,53.035,72.448,111.082,124.314,154.35s129.818,69.044,193.818,42.247c38.067-15.938,65.587-48.326,80.691-83.775s19.021-73.985,19.917-111.987c1.024-43.5-1.1-89.413,21.837-127.6,23.757-39.44,74.393-64.473,123.93-61.016,70.528,4.942,122.5,58.7,173.85,102.753,65.229,55.935,144.717,102.753,233.779,112.822S1475.9,94.055,1517.812,22.042" transform="translate(264.23 172.212)" fill="none" stroke="#fff" stroke-width="2"/>
                <path id="Path_25501" data-name="Path 25501" d="M-262,37.867a1549.01,1549.01,0,0,1,153.037-117C-85.13-95.139-60.144-110.8-31.549-118.037c57.472-14.523,115.789,7.4,165.606,39.44a464.183,464.183,0,0,1,38.63,27.84A825.867,825.867,0,0,1,311.44,89.534c39.424,51.087,72.7,107.416,124.211,149.339,28.877,23.525,64.9,42.317,102.4,50.855,32.666,7.424,66.688,6.96,97.562-5.522a138.543,138.543,0,0,0,15.923-7.656c31.411-17.678,54.144-46.818,67.968-78.254a234.036,234.036,0,0,0,10.906-30.9c7.68-27.33,10.906-55.68,12.928-83.683,3.277-44.335,4.941-90.016,29.722-127.832s73.242-61.9,121.651-58.719c68.915,4.5,120.166,55.541,170.726,96.976,3.968,3.248,8.013,6.5,12.109,9.674C1139.318,52,1212.56,90.462,1293.225,97.84c86.093,7.888,180.992-26.634,220.672-97.208" transform="translate(267.709 184.389)" fill="none" stroke="#fff" stroke-width="2"/>
                <path id="Path_25502" data-name="Path 25502" d="M-259.69,43.641A1430.682,1430.682,0,0,1-108.957-70.874C-85.431-86.441-60.8-101.661-32.695-108.76,23.753-123.051,81.1-102.5,130.326-72.173q19.938,12.32,38.4,26.448A809.925,809.925,0,0,1,307.094,88.835c39.6,49.091,73.088,103.681,124.186,144.374,30.157,23.85,67.021,43.338,105.574,52.618,33.51,8.051,68.659,8.074,100.582-4.315a137.678,137.678,0,0,0,16.512-7.679c32.614-17.934,55.987-47.978,70.5-80.342A251.62,251.62,0,0,0,736.1,161.776c8.346-28,12.8-57.049,16.154-85.469,5.53-45.147,10.906-90.48,37.581-128.041,25.344-35.589,72.09-59.276,119.373-56.423,67.3,4.083,117.76,52.386,167.578,91.2q5.914,4.64,11.93,9.048c60.723,45.055,131.943,80.2,209.92,85.539,83.021,5.684,173.8-29.255,211.251-98.415" transform="translate(271.312 196.549)" fill="none" stroke="#fff" stroke-width="2"/>
                <path id="Path_25503" data-name="Path 25503" d="M-257.41,54.75A1328.546,1328.546,0,0,1-108.93-57.284C-85.711-72.41-61.416-87.142-33.82-94.148,21.6-108.208,77.976-89,126.641-60.3q19.706,11.634,38.016,25.056A794.9,794.9,0,0,1,302.9,93.354C342.68,140.59,376.318,193.44,426.955,232.787c31.283,24.29,69.12,44.5,108.723,54.52,34.355,8.677,70.656,9.28,103.6-3.086a137.445,137.445,0,0,0,17.1-7.749c33.818-18.142,57.8-49.091,73.088-82.407a282.416,282.416,0,0,0,12.39-32.48c9.037-28.675,14.541-58.371,19.328-87.255C769,28.348,777.982-16.753,806.654-53.92c25.933-33.663,71.066-56.724,117.146-54.149,65.69,3.642,115.507,49.231,164.454,85.4q5.786,4.269,11.725,8.445c59.674,41.876,128.947,73.753,203.955,77.024,79.949,3.48,166.63-31.877,201.83-99.621" transform="translate(274.869 203.328)" fill="none" stroke="#fff" stroke-width="2"/>
                <path id="Path_25504" data-name="Path 25504" d="M-255.14,68.79A1232.331,1232.331,0,0,1-109.04-40.761C-86.129-55.47-62.193-69.715-35.082-76.605c54.4-13.92,109.8,3.99,157.9,31.065,13.158,7.378,25.779,15.428,37.709,23.71A777.157,777.157,0,0,1,298.46,100.875c40.013,45.286,73.958,96.3,124.211,134.4,32.486,24.708,71.194,45.611,111.846,56.376,35.174,9.28,72.627,10.44,106.624-1.856a138.979,138.979,0,0,0,17.69-7.8c35.046-18.4,59.622-50.251,75.648-84.471a309.079,309.079,0,0,0,13.158-33.362c9.754-29.348,16.333-59.694,22.528-89.042C780.2,28.305,792.745-16.448,823.49-53.336c26.419-31.691,69.811-54.056,114.816-51.806,64,3.2,113.177,46.075,161.28,79.623,3.789,2.645,7.68,5.266,11.52,7.818,58.624,38.744,125.952,67.28,198.093,68.51,76.8,1.3,159.437-34.475,192.41-100.781" transform="translate(278.41 207.245)" fill="none" stroke="#fff" stroke-width="2"/>
                <path id="Path_25505" data-name="Path 25505" d="M-252.87,82.787a1146.348,1146.348,0,0,1,143.8-107.068c22.579-14.268,46.08-28.026,72.806-34.8,53.376-13.6,107.776,2.877,155.341,28.3,13.03,6.96,25.6,14.523,37.376,22.342A762.7,762.7,0,0,1,294.176,108.376c40.192,43.338,74.522,92.522,124.186,129.41,33.741,25.079,73.4,46.7,115,58.209,36.019,9.93,74.624,11.6,109.645-.65a142.434,142.434,0,0,0,18.3-7.818c36.224-18.56,61.44-51.411,78.182-86.559a341.8,341.8,0,0,0,13.926-34.174c10.47-30.021,18.073-61.016,25.6-90.828,12.262-47.607,28.39-92.035,61.312-128.668,26.778-29.789,68.659-51.458,112.64-49.509,62.464,2.784,110.848,42.943,158.208,73.869q5.606,3.642,11.315,7.192c57.6,35.566,122.88,60.831,192.23,60,73.83-.882,152.243-37.12,182.989-102.08" transform="translate(281.952 211.158)" fill="none" stroke="#fff" stroke-width="2"/>
                <path id="Path_25506" data-name="Path 25506" d="M-250.6,96.766A1066.823,1066.823,0,0,1-109.109-7.8c22.272-13.92,45.568-27.121,71.68-33.8C14.923-54.986,68.35-39.883,115.352-16.08c12.8,6.473,25.293,13.6,37.069,20.88A746.592,746.592,0,0,1,289.893,115.836c40.371,41.412,75.034,88.717,124.083,124.352,35.072,25.52,75.494,47.885,118.221,60.158,36.864,10.51,76.6,12.76,112.64.557a145.136,145.136,0,0,0,18.867-7.888c37.453-18.862,63.232-52.548,80.768-88.624,5.581-11.6,10.24-23.2,14.643-35.009,11.187-30.67,19.891-62.315,28.928-92.591,14.438-48.488,33.894-92.522,69.12-128.876,27.034-27.84,67.507-48.72,110.259-47.189,60.851,2.32,108.518,39.788,155.085,68.069,3.661,2.32,7.373,4.431,11.11,6.566,56.551,32.434,120.038,54.381,186.368,51.388,70.758-3.062,145.05-39.672,173.568-103.171" transform="translate(285.493 215.09)" fill="none" stroke="#fff" stroke-width="2"/>
                <path id="Path_25507" data-name="Path 25507" d="M-248.33,110.8A991.243,991.243,0,0,1-109.143,8.716c21.965-13.41,44.9-26.239,70.5-32.782,51.354-13.154,103.782.58,150.2,22.759,12.8,6.032,25.062,12.69,36.787,19.6A730.78,730.78,0,0,1,285.609,123.325c40.55,39.44,75.571,84.912,124.134,119.457,36.275,25.8,77.491,48.882,121.293,61.921,37.709,11.136,78.592,13.92,115.712,1.786a145.334,145.334,0,0,0,19.456-7.934c38.656-19.094,65.024-53.708,83.328-90.712,5.811-11.786,10.854-23.826,15.36-35.821,11.955-31.343,21.862-63.638,32.1-94.378,16.691-49.323,39.45-93.009,76.954-129.062,27.238-26.17,66.406-46.261,108.032-44.915,59.238,1.926,106.189,36.633,151.962,62.292,3.584,2.018,7.245,4.014,10.906,5.939,55.5,29.278,116.992,47.955,180.506,42.99,67.687-5.266,137.882-42.294,164.147-104.4" transform="translate(289.034 218.992)" fill="none" stroke="#fff" stroke-width="2"/>
                <path id="Path_25508" data-name="Path 25508" d="M-246,129.964a921.847,921.847,0,0,1,136.73-99.6C-87.613,17.4-65.008,5.055-39.894-1.395c50.3-12.922,101.709-.441,147.61,20,12.6,5.614,24.806,11.786,36.454,18.235a717.646,717.646,0,0,1,137.19,99.134c40.73,37.584,76.134,81.2,124.134,114.492,37.4,26.147,79.462,49.973,124.186,63.754,38.528,11.762,80.563,15.1,118.733,2.993a145.6,145.6,0,0,0,20.045-7.958c39.885-19.349,66.842-54.845,85.888-92.8,6.067-12.064,11.341-24.383,16.179-36.633,12.621-32.016,23.5-64.96,35.277-96.164C824.873,33.5,850.806-9.886,890.64-45.5c27.264-24.406,65.229-43.663,105.7-42.6,57.728,1.369,103.961,33.315,148.915,56.515,3.558,1.81,7.117,3.573,10.726,5.313,54.451,26.123,114,41.482,174.643,34.452C1395.267.74,1461.315-36.705,1485.353-97.35" transform="translate(292.669 217.735)" fill="none" stroke="#fff" stroke-width="2"/>
                <path id="Path_25509" data-name="Path 25509" d="M-243.78,153.194A859.007,859.007,0,0,1-109.226,56.1C-87.876,43.574-65.706,31.7-41,25.362c49.28-12.69,99.712-1.578,145.05,17.214,12.467,5.174,24.55,10.881,36.147,16.866a703.43,703.43,0,0,1,136.832,93.264c40.96,35.635,76.8,77.187,124.109,109.5,38.835,26.448,81.69,51.04,127.565,65.587,39.373,12.389,82.56,16.24,121.754,4.222a147.487,147.487,0,0,0,20.634-7.958c40.96-19.6,68.659-56.005,88.474-94.888,6.272-12.342,11.8-24.94,16.922-37.445,13.338-32.689,25.293-66.283,38.4-97.951,21.2-51.04,50.253-94.123,92.7-129.48C934.818-58.413,971.58-76.742,1011-76c56.038,1.067,101.53,30.323,145.69,50.739,3.482,1.6,6.989,3.178,10.522,4.64,53.4,22.968,111,35.032,168.781,25.961,61.44-9.651,123.494-47.514,145.28-106.72" transform="translate(296.132 212.415)" fill="none" stroke="#fff" stroke-width="2"/>
                <path id="Path_25510" data-name="Path 25510" d="M-241.51,176.421A801.893,801.893,0,0,1-109.26,81.788C-88.243,69.7-66.3,58.31-42.188,52.069,6.068,39.61,55.5,49.354,100.3,66.546c12.314,4.64,24.32,9.953,35.84,15.474a691.82,691.82,0,0,1,136.627,87.372c40.96,33.71,77.286,73.312,124.058,104.516,40.141,26.8,83.814,52.177,130.714,67.443,40.218,13.015,84.48,17.446,124.774,5.452a152.548,152.548,0,0,0,21.248-8.074c42.291-19.813,70.451-57.142,91.008-96.953,6.5-12.621,12.314-25.52,17.664-38.257,14.054-33.362,27.136-67.582,41.677-99.76C847.386,51.953,879.437,9.01,924.467-25.93,951.655-47,987.418-64.372,1025.639-63.908c54.426.626,99.226,27.167,142.566,44.939,3.43,1.392,6.861,2.761,10.24,4.083,52.378,19.813,108.006,28.559,162.918,17.423,58.5-11.809,116.3-50.112,135.859-107.927" transform="translate(299.673 207.122)" fill="none" stroke="#fff" stroke-width="2"/>
                <path id="Path_25511" data-name="Path 25511" d="M-239.24,199.533A746.168,746.168,0,0,1-109.294,107.4c20.71-11.6,42.291-22.574,65.92-28.7,47.232-12.25,95.693-3.851,139.9,11.6,12.186,4.269,24.09,9.048,35.533,14.129a676.951,676.951,0,0,1,136.422,81.641c41.242,31.691,77.927,69.322,124.032,99.459,41.472,27.074,85.914,53.36,133.862,69.275,40.96,13.642,86.528,18.56,127.8,6.658a155.416,155.416,0,0,0,21.837-8.1c43.52-20.068,72.269-58.3,93.568-99.041,6.758-12.9,12.8-26.054,18.432-39.069,14.771-34.058,28.928-68.9,44.877-101.524C858.616,61.1,893.586,18.27,941.3-16.182,968.337-35.67,1003.128-52,1040.171-51.863c52.838.186,96.922,24.035,139.469,39.162,3.354,1.206,6.733,2.32,10.112,3.457,51.3,16.681,105.062,22.156,157.056,8.955,55.45-13.92,109.133-52.734,126.438-109.04" transform="translate(303.214 201.921)" fill="none" stroke="#fff" stroke-width="2"/>
                <path id="Path_25512" data-name="Path 25512" d="M-237,222.773a692.28,692.28,0,0,1,127.719-89.645c20.48-11.229,41.651-21.692,64.768-27.7,46.234-11.994,93.7-4.965,137.344,8.932,12.058,3.851,23.834,8.143,35.226,12.76A664.52,664.52,0,0,1,264.248,202.7c41.472,29.835,78.541,65.471,124.032,94.564,42.88,27.353,87.987,54.358,137.011,71.108,41.856,14.268,88.474,19.79,130.79,7.888a156.124,156.124,0,0,0,22.426-8.143c44.723-20.3,74.061-59.439,96.154-101.106,6.963-13.2,13.261-26.657,19.174-39.927,15.488-34.8,30.72-70.18,48.051-103.287,28.16-53.36,65.792-96.28,116.3-130.106,26.829-17.957,60.672-33.223,96.589-33.385,51.2-.232,94.592,20.88,136.346,33.408,3.277.974,6.6,1.926,9.907,2.807,50.278,13.526,102.042,15.683,151.194.418C1404.6-19.3,1454.162-58.389,1469.24-113.35" transform="translate(306.709 196.615)" fill="none" stroke="#fff" stroke-width="2"/>
                <path id="Path_25513" data-name="Path 25513" d="M-234.69,245.95a646.533,646.533,0,0,1,125.312-87.163c20.1-10.788,40.96-20.764,63.616-26.657,45.21-11.786,91.7-6.1,134.784,6.148,11.9,3.41,23.654,7.331,34.918,11.391A652.593,652.593,0,0,1,259.9,219.386c41.625,27.886,79.206,61.527,124.134,89.552,44.006,27.631,89.958,55.471,140.032,72.964,42.7,14.894,90.47,20.88,133.837,9.118a158.915,158.915,0,0,0,23.04-8.213c45.926-20.532,75.878-60.576,98.713-103.171,7.219-13.479,13.747-27.214,19.942-40.739,16.2-35.38,32.614-71.479,51.2-105.073,30.336-54.242,70.835-97.255,124.16-130.292,26.6-16.5,59.52-30.624,94.31-31.088,49.613-.673,92.16,17.725,133.12,27.608,3.251.766,6.477,1.508,9.728,2.2,49.229,10.347,99.047,9.28,145.331-8.1,49.306-18.4,94.72-58,107.52-111.5" transform="translate(310.312 191.348)" fill="none" stroke="#fff" stroke-width="2"/>
                <path id="Path_25514" data-name="Path 25514" d="M-232.42,269.184a602.3,602.3,0,0,1,122.88-84.657c19.763-10.37,40.345-19.859,62.464-25.52,44.186-11.6,89.6-7.262,132.224,3.387,11.776,2.946,23.347,6.31,34.586,10.022a640.555,640.555,0,0,1,135.68,63.8c42.01,25.775,80.051,57.374,124.186,84.4,45.491,27.84,92.16,56.562,143.36,74.8,43.52,15.521,92.442,22.156,136.858,10.347a163.876,163.876,0,0,0,23.6-8.259c47.13-20.88,77.67-61.735,101.274-105.259,7.424-13.758,14.208-27.84,20.659-41.551,16.87-36.053,34.381-72.8,54.4-106.79C892.5,88.757,935.477,45.535,991.8,13.333c26.342-15.08,58.368-28.026,92.16-28.791,48-1.09,89.933,14.593,130.074,21.831,3.174.58,6.349,1.114,9.523,1.578,48.179,7.215,96.051,2.761,139.469-16.588,46.234-20.6,87.552-60.575,98.176-112.683" transform="translate(313.854 186.095)" fill="none" stroke="#fff" stroke-width="2"/>
                <path id="Path_25515" data-name="Path 25515" d="M-230.15,292.341a561.527,561.527,0,0,1,120.7-82.2,307.882,307.882,0,0,1,61.44-24.615c43.162-11.322,87.706-8.375,129.638.626,11.648,2.506,23.04,5.406,34.3,8.654a630.66,630.66,0,0,1,135.526,58c41.856,23.989,80.41,53.5,123.827,79.507,46.874,28,94.31,57.675,146.458,76.723,44.365,16.24,94.438,23.2,139.878,11.6a161.911,161.911,0,0,0,24.192-8.282c48.333-21.019,79.36-62.9,103.833-107.347,7.68-13.92,14.694-28.327,21.427-42.363,17.638-36.888,36.25-74.24,57.626-108.808,34.893-55.889,80.589-99.551,139.93-130.709,26.086-13.688,57.242-25.4,89.754-26.471,46.387-1.531,87.6,11.414,126.95,16.031,3.1.371,6.221.7,9.344.974,47.13,4.037,93.03-3.689,133.581-25.126,43.187-22.759,80.384-63.174,88.755-113.866" transform="translate(317.395 180.801)" fill="none" stroke="#fff" stroke-width="2"/>
                <path id="Path_25516" data-name="Path 25516" d="M-227.87,315.492A521.694,521.694,0,0,1-109.5,235.8a317.8,317.8,0,0,1,60.16-23.594c42.138-11.09,85.709-9.535,127.078-2.158,11.52,2.065,22.861,4.64,34,7.285a619.293,619.293,0,0,1,135.3,52.038c42.163,22.086,81.2,49.578,123.955,74.611,48.256,28.258,96.384,58.7,149.581,78.509,45.21,16.727,96.41,24.476,142.9,12.76a163.952,163.952,0,0,0,24.781-8.352c49.562-21.228,81.306-64.009,106.394-109.411,7.91-14.314,15.181-28.884,22.2-43.175,18.355-37.4,38.042-75.447,60.826-110.432,37.12-56.724,85.376-100.967,147.789-130.918,25.8-12.389,56.09-22.806,87.475-24.174,44.774-1.949,85.273,8.282,123.827,10.278,3.046.162,6.093.255,9.139.325,46.08.9,90.035-10.138,127.719-33.617,40.115-24.963,73.19-65.8,79.36-115.072" transform="translate(320.952 175.561)" fill="none" stroke="#fff" stroke-width="2"/>
                <path id="Path_25517" data-name="Path 25517" d="M-225.6,338.8a485.925,485.925,0,0,1,116.07-77.233,334.161,334.161,0,0,1,58.88-22.574c41.114-10.858,83.712-10.672,124.518-4.918q17.05,2.436,33.664,5.939a608.092,608.092,0,0,1,135.219,46.122c42.342,20.161,81.92,45.588,123.93,69.6,49.664,28.42,98.483,59.833,152.73,80.342,46.08,17.354,98.406,25.659,145.92,13.92a167.65,167.65,0,0,0,25.37-8.4c50.765-21.483,83.123-65.169,108.979-111.5,8.141-14.593,15.642-29.441,23.04-44.08,19.046-38.048,39.834-76.723,64-112.2,39.4-57.536,90.112-102.567,155.674-131.127,25.6-11.113,54.938-20.184,85.2-21.854,43.187-2.32,82.944,5.1,120.7,4.478,2.97,0,5.939-.139,8.934-.3,44.521-1.98,87.194-16.734,121.856-42.131,37.043-27.144,66-68.394,69.914-116.256" transform="translate(324.493 170.188)" fill="none" stroke="#fff" stroke-width="2"/>
                <path id="Path_25518" data-name="Path 25518" d="M-223.33,361.856a452.439,452.439,0,0,1,113.767-74.728,348.783,348.783,0,0,1,57.856-21.553c40.115-10.649,81.715-11.9,121.958-7.679,11.238,1.137,22.374,2.691,33.28,4.64A599.8,599.8,0,0,1,238.494,302.7c42.5,18.212,82.56,41.551,123.878,64.635,51.2,28.559,100.608,60.947,155.878,82.2,46.874,17.98,100.378,26.819,148.941,15.2a169.139,169.139,0,0,0,25.984-8.421c51.968-21.738,84.89-66.329,111.513-113.68,8.371-14.871,16.128-30.021,23.706-44.823,19.763-38.721,41.651-78.045,67.2-113.982,41.626-58.371,94.72-104.4,163.533-131.336a282.972,282.972,0,0,1,82.867-19.465c41.574-2.83,80.614,1.972,117.555-1.3q4.378-.371,8.755-.9c43.607-5.324,84.223-23.057,115.994-50.646,33.971-29.348,58.88-71.015,60.467-117.439" transform="translate(328.034 165.04)" fill="none" stroke="#fff" stroke-width="2"/>
                <path id="Path_25519" data-name="Path 25519" d="M-221.06,384.981A421.1,421.1,0,0,1-109.6,312.759a371.155,371.155,0,0,1,56.7-20.532C-13.8,281.81,26.825,279.188,66.479,281.764c11.11.7,22.144,1.786,33.075,3.178A593.259,593.259,0,0,1,234.21,319.3c42.675,16.31,83.251,37.515,123.853,59.671C410.62,407.624,460.77,441.009,517.09,463c47.718,18.56,102.4,28,151.987,16.426a173.412,173.412,0,0,0,26.5-8.468c53.171-21.971,86.707-67.489,114.074-115.676,8.627-15.15,16.614-30.578,24.448-45.634,20.48-39.44,43.52-79.367,70.4-115.768C948.4,134.675,1004,87.417,1076.015,62.361a327.9,327.9,0,0,1,80.64-17.284c39.962-3.248,78.285-1.16,114.432-6.96,2.867-.464,5.709-1,8.55-1.554,42.674-8.672,81.215-29.385,110.08-59.16,30.925-31.529,51.61-73.614,51.047-118.622" transform="translate(331.575 159.826)" fill="none" stroke="#fff" stroke-width="2"/>
                <path id="Path_25520" data-name="Path 25520" d="M-218.78,408.234a391.193,391.193,0,0,1,109.133-69.763A401.7,401.7,0,0,1-54.1,318.96,414.955,414.955,0,0,1,62.718,305.736c10.982.255,21.888.882,32.742,1.81a586.692,586.692,0,0,1,134.451,28.467c42.854,14.384,83.942,33.478,123.853,54.706,54.093,28.722,104.781,63.174,162.15,85.863,48.64,19.233,104.346,29.162,155.008,17.655a173.076,173.076,0,0,0,27.136-8.538c54.374-22.2,88.525-68.6,116.659-117.74,8.832-15.428,17.075-31.134,25.19-46.4,21.222-40.066,45.286-80.69,73.6-117.555,46.08-60.019,104.166-108.739,179.2-131.73a398.606,398.606,0,0,1,78.438-15.1c38.4-3.689,75.955-4.338,111.309-12.853,2.79-.673,5.581-1.392,8.346-2.181,41.757-11.975,78.257-35.625,104.269-67.559,27.853-33.71,44.442-76.235,41.626-119.828" transform="translate(335.132 154.507)" fill="none" stroke="#fff" stroke-width="2"/>
                <path id="Path_25521" data-name="Path 25521" d="M-216.51,431.318c71.3-65.61,173.824-99.76,275.482-101.639s202.24,26.958,290.483,72.709c55.475,28.768,106.88,64.241,165.3,87.719s127.386,33.872,185.754,10.3c73.062-29.487,110.08-101.964,145.178-167.041C903.362,226.183,983.336,115.4,1109.6,82.041c62.9-16.611,131.635-11.971,192.435-34.081,84.3-30.67,140.391-115.351,130.56-197.2" transform="translate(338.673 149.24)" fill="none" stroke="#fff" stroke-width="2"/>
              </g>
              <g id="Group_4692" data-name="Group 4692" transform="translate(-109.356 -175.273)">
                <path id="Path_25522" data-name="Path 25522" d="M-41.8,1285.448c-10.752-78.88,75.162-145.534,161.818-157.76s173.594,13.038,259.482,29.255,182.477,21.552,254.208-24.2c91.7-58.487,112.9-181.518,207.36-236.455,73.523-42.8,169.242-30,244.557,1.856,42.6,18,78.822,48.3,119.526,69.415,184.653,95.7,197.12,291.3,353.971,320.462,169.728,31.622,261.888-43.431,293.939-95.376,40.96-66.654,109.542-239.656-58.214-359.879-68.173-48.836-135.45-100.9-185.574-165.208C1534.184,571.3,1534.7,424.1,1630.7,344.546c65.792-54.52,166.835-74.472,211.533-144.374,30.029-46.98,25.933-107.555,0-156.577S1771.6-44.264,1722.677-75.7" transform="translate(42.717 75.7)" fill="none" stroke="#fff" stroke-width="2"/>
                <path id="Path_25523" data-name="Path 25523" d="M-40.565,1285.1c-7.424-81.2,78.029-151.264,167.27-165.23,87.04-13.619,175.488,11.484,261.376,29.371,84.864,17.7,179.2,25.705,250.573-15.869,91.341-53.221,117.018-170.01,211.251-224.229,75.059-42.943,169.242-34.962,246.374-7.122,44.314,16.008,83.584,44.567,126.208,65.958,180.762,90.759,195.738,280,349.082,308.77,165.043,30.879,256.717-40.136,290.022-91.362,42.214-64.96,107.52-231.583-51-350.321-65.357-49-130.15-102.08-179.482-165.95-72.858-94.007-73.523-235.945,17.075-314.825,62.694-54.566,160.1-76.792,204.6-145.789,30.541-47.189,28.672-106.883,6.118-156.252-22.784-49.95-64.358-90.9-111.258-124.654" transform="translate(45.371 80.056)" fill="none" stroke="#fff" stroke-width="2"/>
                <path id="Path_25524" data-name="Path 25524" d="M-39.233,1284.7c-4.1-83.4,80.9-156.949,172.723-172.632,87.578-14.941,177.382,9.906,263.27,29.511,83.866,19.14,175.693,29.835,246.963-7.587,90.957-47.931,120.96-158.665,215.219-211.956,76.467-43.268,169.344-40,248.166-16.1,46.08,13.92,88.32,40.809,132.915,62.5,176.64,86.026,194.15,268.68,344.192,296.961,160.282,30.16,251.392-36.819,285.978-87.209,43.341-63.151,105.549-223.6-43.725-341.041-62.592-49.207-124.9-103.217-173.414-166.739-70.656-91.71-72.474-228.474,12.8-306.589,59.571-54.5,153.293-78.973,197.606-147.065,31.053-47.375,31.411-106.256,12.083-155.951-19.712-50.692-57.8-93.821-102.835-129.92" transform="translate(47.93 84.386)" fill="none" stroke="#fff" stroke-width="2"/>
                <path id="Path_25525" data-name="Path 25525" d="M-37.8,1284.245c-.768-85.677,83.763-162.632,178.176-180.055,88.038-16.24,179.2,8.305,265.165,29.65,82.842,20.555,172.288,33.965,243.328.719,90.6-42.665,125.03-147.228,219.213-199.729,77.952-43.454,169.523-45.078,249.984-25.079,47.9,11.9,93.03,37.12,139.6,59.067,172.493,81.478,192.691,257.358,339.328,285.361,155.469,29.464,246.042-33.5,281.907-83.056,44.442-61.387,103.6-215.761-36.48-331.529C1782.593,790.153,1723,735.192,1675.1,672.112c-68.147-89.622-71.449-221.05,8.371-298.4,56.5-54.729,146.458-81.548,190.746-148.666,31.437-47.723,34.2-105.723,18.1-155.649-16.64-51.6-51.2-96.837-94.438-135.187" transform="translate(50.385 88.781)" fill="none" stroke="#fff" stroke-width="2"/>
                <path id="Path_25526" data-name="Path 25526" d="M-36.28,1283.873c2.56-87.951,86.63-168.293,183.654-187.456,88.448-17.493,181.094,6.681,267.034,29.742,81.92,21.97,168.96,38.118,239.718,9.025C744.341,1097.808,783.2,999.417,877.307,947.7c79.36-43.662,169.779-50.228,251.776-34.058,49.766,9.814,97.766,33.362,146.278,55.68,168.192,77.14,191.232,246.06,334.464,273.621,150.682,28.791,240.64-30.16,277.862-78.88,45.517-59.625,101.683-208.058-29.209-322.087-57.088-49.718-114.1-105.677-161.28-168.247-65.869-87.372-70.426-213.673,4.019-290.163,53.453-54.938,139.7-83.984,183.859-150.244,31.9-47.815,36.992-105.1,24.09-155.324-13.542-52.548-44.826-99.76-86.042-140.523" transform="translate(52.759 93.098)" fill="none" stroke="#fff" stroke-width="2"/>
                <path id="Path_25527" data-name="Path 25527" d="M-34.76,1283.4c5.914-90.2,89.6-173.885,189.107-194.881,88.909-18.746,182.989,5.057,268.928,29.882,80.845,23.362,165.555,42.387,236.083,17.33,89.933-31.946,133.12-124.306,227.174-175.253,80.947-43.848,170.061-55.448,253.594-43.013,51.635,7.679,102.4,29.65,152.96,52.154,163.84,72.941,189.773,234.738,329.574,261.906,145.92,28.072,235.341-26.866,273.92-74.751,46.541-57.861,99.84-200.472-21.99-312.6-54.349-50.066-108.749-106.883-155.162-169.013-63.565-85.144-69.427-206.481-.307-281.974,50.3-55.007,132.813-86.235,176.794-151.5,32.41-48.024,39.91-104.563,30.08-155.023C1915.6,33.146,1887.595-16.2,1848.376-59.19" transform="translate(55.13 97.493)" fill="none" stroke="#fff" stroke-width="2"/>
                <path id="Path_25528" data-name="Path 25528" d="M-33.24,1283c9.242-92.476,92.365-179.5,194.56-202.282,89.37-19.952,184.858,3.387,270.822,30.021,79.846,24.708,162.15,46.539,232.474,25.52,89.6-26.634,137.216-112.822,231.142-163,82.432-44.08,170.394-60.738,255.385-51.992,53.555,5.522,107.11,25.961,159.667,48.72,159.283,68.928,188.314,223.51,324.71,250.283,141.082,27.446,229.914-23.595,269.773-70.6,47.565-56.144,97.971-193.071-14.746-303.155a1426.693,1426.693,0,0,1-149.094-169.778c-61.44-82.871-68.454-199.127-4.659-273.761,47.232-55.263,126.131-88.624,169.958-152.958,32.87-48.233,42.752-104.076,36.071-154.7C1935.6,40.751,1911-10.613,1873.7-55.9" transform="translate(57.501 101.836)" fill="none" stroke="#fff" stroke-width="2"/>
                <path id="Path_25529" data-name="Path 25529" d="M-31.72,1282.573c12.6-94.726,95.232-185.067,200.013-209.705,89.856-21.135,186.88,1.717,272.717,30.16,78.848,26.077,158.72,50.715,228.838,33.942,89.19-21.344,141.286-101.361,235.136-150.8,83.942-44.219,170.752-66.12,257.2-60.97,55.45,3.295,111.744,22.3,166.4,45.24,154.573,64.96,186.88,212.118,319.846,238.5,136.294,26.657,224.512-20.254,265.728-66.445,48.64-54.4,96.23-185.81-7.475-293.69a1690.948,1690.948,0,0,1-143-170.567c-59.033-80.62-67.507-191.957-9.011-265.525,44.16-55.518,119.373-90.967,163.046-154.373,31.432-46.235,46.13-100.218,42.035-154.4-3.968-55.68-25.318-109.04-60.8-156.531" transform="translate(59.873 106.205)" fill="none" stroke="#fff" stroke-width="2"/>
                <path id="Path_25530" data-name="Path 25530" d="M-30.2,1282.2c15.872-97,98.1-190.635,205.466-217.176,90.317-22.3,188.621,0,274.611,30.276,77.85,27.376,155.366,54.868,225.28,42.224,88.781-16.054,145.382-89.83,239.1-138.5,85.453-44.382,171.136-71.549,259-69.948,57.4,1.044,116.4,18.56,173.03,41.76,149.862,61.248,185.4,200.8,314.88,226.758,131.507,25.984,219.11-16.959,261.709-62.269,49.51-52.71,94.592-178.641-.256-284.247-46.08-51.411-92.774-110.432-136.909-171.309-56.781-78.37-66.56-184.858-13.363-257.312,40.96-55.843,112.64-93.334,156.16-155.835,32-46.113,48.684-99.6,48.051-154.072-1.01-57.255-19.12-113.193-52.4-161.867" transform="translate(62.244 110.522)" fill="none" stroke="#fff" stroke-width="2"/>
                <path id="Path_25531" data-name="Path 25531" d="M-28.68,1281.74c19.251-99.25,100.992-196.156,210.918-224.53,90.8-23.455,190.515-1.694,276.48,30.415,76.8,28.675,151.936,59,221.594,50.53,88.422-10.765,149.478-78.347,243.2-126.278,87.04-44.544,171.52-77.047,260.813-78.88,59.315-1.253,120.986,15.034,179.712,38.35,145.075,57.606,183.91,189.475,310.067,215.041,126.72,25.265,213.658-13.665,257.664-58.139,50.458-51.04,93.082-171.843,7.014-274.782-43.52-51.991-87.5-111.592-130.842-172.075-54.528-76.073-65.766-177.829-17.715-249.1,37.914-56.214,105.882-95.654,149.2-157.25,32.6-46.066,51.243-99.1,54.042-153.77,2.5-58.365-12.754-116.229-44.083-167.272" transform="translate(64.615 114.904)" fill="none" stroke="#fff" stroke-width="2"/>
                <path id="Path_25532" data-name="Path 25532" d="M-27.16,1281.38c22.579-101.523,103.885-201.678,216.371-232,91.29-24.569,192.435-3.411,278.4,30.531,75.9,29.974,148.48,63.174,217.984,58.835,88.013-5.475,153.6-66.816,247.066-114.028,88.5-44.683,171.878-82.592,262.63-87.882,61.21-3.573,125.568,11.461,186.368,34.8,140.262,54.08,182.477,178.176,305.229,203.349,121.907,24.569,208.179-10.417,253.594-53.986,51.4-49.3,91.7-165.161,14.259-265.316-40.7-52.687-82.176-112.776-124.749-172.84-52.3-73.823-65-170.868-22.067-240.886,34.739-56.631,99.149-98,142.259-158.689,34.842-49.022,54.809-102.2,60.032-153.445,6.069-59.4-6.254-119.157-35.584-172.562" transform="translate(66.986 119.207)" fill="none" stroke="#fff" stroke-width="2"/>
                <path id="Path_25533" data-name="Path 25533" d="M-25.64,1280.863c25.933-103.7,106.778-207.176,221.8-239.378,91.776-25.706,194.33-5.174,280.32,30.671,74.906,31.227,145.1,67.28,214.323,67.141,87.629-.208,157.7-55.309,251.059-101.8,90.035-44.822,172.211-88.16,264.422-96.837,63.155-5.939,130.176,7.911,193.075,31.436,135.373,50.646,180.992,166.855,300.339,191.609,117.146,23.873,202.7-7.122,249.549-49.811,52.3-47.63,90.522-158.642,21.53-255.873-37.914-53.36-76.8-113.936-118.682-173.606-50.074-71.526-64.307-163.978-26.419-232.674,31.514-57.1,92.416-100.34,135.347-160.08,35.354-49.231,57.933-101.732,66.022-153.12,9.627-60.436.2-122.108-27.187-177.9" transform="translate(69.357 123.669)" fill="none" stroke="#fff" stroke-width="2"/>
                <path id="Path_25534" data-name="Path 25534" d="M-24.12,1280.53c29.261-106.071,109.7-212.652,227.277-246.849,92.16-26.8,196.275-6.96,282.214,30.81,73.933,32.48,141.7,71.41,210.714,75.423,87.245,5.081,161.792-43.755,255.027-89.529,91.571-44.962,172.57-93.844,266.24-105.839,65.05-8.329,134.707,4.408,199.68,28,130.432,47.282,179.481,155.765,295.45,179.893,112.307,23.385,197.12-3.9,245.53-45.658,53.171-45.983,89.6-152.308,28.749-246.431-35-54.242-71.68-115.1-112.64-174.372-47.872-69.229-63.718-157.134-30.72-224.437,28.16-57.606,85.683-102.66,128.41-161.542,35.84-49.416,61.107-101.245,72.038-152.842a298.835,298.835,0,0,0-18.791-183.28" transform="translate(71.729 127.946)" fill="none" stroke="#fff" stroke-width="2"/>
                <path id="Path_25535" data-name="Path 25535" d="M-22.6,1280.029c32.589-108.321,112.64-218.081,232.73-254.2,92.774-27.84,198.2-8.746,284.16,30.926,72.986,33.733,138.24,75.563,207.078,83.753,86.861,10.324,165.914-32.225,259.021-77.3s172.877-99.5,268.032-114.817c66.944-10.742,139.264.974,206.438,24.546,125.44,44.08,178.022,144.467,290.611,168.2,107.52,22.666,191.667-.673,241.459-41.5,54.042-44.359,88.729-146.161,36.019-236.966-32.077-55.17-66.381-116.255-106.573-175.137-45.67-66.955-63.206-150.383-35.123-216.225,24.832-58.186,78.976-105,121.5-163,36.505-49.579,64.281-100.735,78-152.517A301.724,301.724,0,0,0,2050.385-32.77" transform="translate(74.1 132.368)" fill="none" stroke="#fff" stroke-width="2"/>
                <path id="Path_25536" data-name="Path 25536" d="M-21.07,1279.617c36.019-110.594,115.507-223.532,238.259-261.673,93.286-28.954,200.141-10.556,286,31.065,72.064,34.94,134.886,79.669,203.469,92.035,86.477,15.59,170.01-20.648,262.989-64.96,94.72-45.194,173.158-105.212,269.85-123.773,68.813-13.224,143.77-2.436,213.12,21.089,120.5,40.855,176.64,133.145,285.721,156.484,102.707,21.948,186.163,2.529,237.415-37.375,54.912-42.711,88.217-140.082,43.264-227.5-28.877-56.144-61.056-117.393-100.429-175.9-43.52-64.635-62.848-143.655-39.449-208.012,21.325-58.766,72.243-107.323,114.56-164.419,36.89-49.764,67.482-100.224,83.994-152.216a305.9,305.9,0,0,0-1.946-193.929" transform="translate(76.487 136.724)" fill="none" stroke="#fff" stroke-width="2"/>
                <path id="Path_25537" data-name="Path 25537" d="M-19.55,1279.258c39.245-112.845,118.426-228.938,243.61-269.121,93.8-30.021,202.24-12.389,287.9,31.2,71.117,36.123,131.482,83.8,199.834,100.34,86.093,20.88,174.08-9.094,266.982-52.826,96.2-45.31,173.414-110.943,271.642-132.751,70.682-15.683,148.275-5.754,219.827,17.632,115.481,37.793,175.078,121.824,280.832,144.768,97.92,21.251,180.608,5.731,233.37-33.2,55.757-41.11,87.987-134.189,50.534-218.081-25.6-57.211-55.808-118.529-94.362-176.645-41.318-62.339-62.592-136.88-43.8-199.8,17.741-59.392,65.536-109.667,107.52-165.857,37.427-49.95,70.733-99.76,90.009-151.891A310.787,310.787,0,0,0,2100.77-26.21" transform="translate(78.858 141.027)" fill="none" stroke="#fff" stroke-width="2"/>
                <path id="Path_25538" data-name="Path 25538" d="M-18,1278.81c42.5-115.1,121.293-234.321,248.986-276.5,94.31-31.111,204.083-14.268,289.792,31.3,70.221,37.329,128,87.928,196.224,108.646,85.709,26.077,178.278,2.482,270.95-40.577,97.766-45.379,173.67-116.7,273.459-141.706,72.5-18.189,152.73-9.025,226.509,14.175,110.438,34.8,173.619,110.5,275.968,133.052,93.107,20.532,175.053,8.886,229.325-29.046,56.576-39.556,88.013-128.343,57.754-208.592-21.99-58.348-50.56-119.689-88.243-177.434-39.168-60.019-62.49-130.245-48.179-191.586,14-60.019,58.88-111.964,100.711-167.272,37.939-50.135,73.984-99.134,95.974-151.589A316.174,316.174,0,0,0,2126.076-22.9" transform="translate(81.276 145.396)" fill="none" stroke="#fff" stroke-width="2"/>
                <path id="Path_25539" data-name="Path 25539" d="M-16.51,1278.358C29.416,1160.989,107.829,1038.631,238.005,994.5c94.72-32.155,206.08-16.124,291.686,31.436,69.3,38.512,124.723,91.9,192.589,116.952,85.427,31.158,182.426,14.036,274.944-28.327,99.328-45.5,173.875-122.5,275.251-150.8,74.24-20.694,157.184-12.18,233.19,10.742,105.421,31.784,172.237,98.971,271.1,121.336,88.371,19.651,169.5,12.041,225.28-24.893,57.4-38,88.4-122.52,65.024-199.15A723.882,723.882,0,0,0,1984.9,693.6c-37.018-57.675-62.515-123.517-52.531-183.28,10.24-60.645,52.122-114.284,93.773-168.711,38.4-50.3,77.261-98.554,101.99-151.288,31.188-66.178,39.3-139.416,23.245-209.891" transform="translate(83.6 149.792)" fill="none" stroke="#fff" stroke-width="2"/>
                <path id="Path_25540" data-name="Path 25540" d="M-15,1277.946C34.28,1158.28,112.309,1032.837,244.994,986.6c95.36-33.2,208.1-18,293.581,31.575,68.429,39.672,121.344,96.048,188.979,125.28,85.043,36.448,186.547,25.636,279.04-16.077,100.89-45.565,174.08-128.273,277.069-159.663,76.109-23.2,161.587-15.265,239.872,7.262,100.352,28.907,170.752,87.673,266.24,109.643,83.584,18.955,163.84,15.15,221.235-20.741,58.214-36.47,89.114-116.626,72.269-189.707A586.326,586.326,0,0,0,2007.2,695.23c-34.893-55.355-62.643-116.789-56.883-175.16,6.042-61.225,45.44-116.58,86.861-170.149,39.014-50.46,80.537-97.927,107.98-150.963,34.766-67.074,45.817-142.244,31.642-215.227" transform="translate(85.956 154.148)" fill="none" stroke="#fff" stroke-width="2"/>
                <path id="Path_25541" data-name="Path 25541" d="M-13.47,1277.573c52.582-121.916,130.253-250.561,265.421-298.7,95.9-34.22,210.125-19.906,295.475,31.691,67.558,40.832,117.939,100.2,185.344,133.563,84.685,41.76,190.771,37.375,282.906-3.851,102.554-45.449,174.234-134.073,278.861-168.641,77.9-25.752,165.99-18.212,246.579,3.828,95.258,26.054,169.293,76.421,261.35,97.9,78.771,18.259,158.311,18.259,217.165-16.588s90.112-110.595,79.539-180.218c-9.4-61.8-34.969-122.96-70.016-179.731-32.794-53.012-62.9-109.945-61.235-166.925,1.818-61.782,38.861-118.831,79.923-171.68,39.68-50.553,83.84-97.44,113.971-150.661,38.368-67.948,52.374-145.055,40.064-220.563" transform="translate(88.343 158.464)" fill="none" stroke="#fff" stroke-width="2"/>
                <path id="Path_25542" data-name="Path 25542" d="M-11.95,1277.155c55.91-124.236,133.3-255.688,270.874-306.241,96.486-35.125,212.173-21.831,297.37,31.83,66.56,41.992,114.56,104.4,181.76,141.845,84.3,47,194.867,48.906,286.873,8.4,104.09-45.565,174.362-139.873,280.678-177.62,79.667-28.281,170.317-21,253.235.394,90.291,23.2,167.834,64.96,256.486,86.188,74.01,17.562,152.73,21.321,213.146-12.435,59.827-33.431,91.366-104.4,86.759-170.776-4.352-62.779-29.8-124.12-64-180.473-30.72-50.692-63.257-103.031-65.587-158.735-2.56-62.223,32.128-121.151,73.011-173,40.192-50.762,87.04-96.675,119.962-150.337,41.965-68.791,58.94-147.819,48.512-225.853" transform="translate(90.714 162.873)" fill="none" stroke="#fff" stroke-width="2"/>
                <path id="Path_25543" data-name="Path 25543" d="M-10.43,1276.673c59.264-126.44,136.218-261.117,276.326-313.526,97-36.262,214.246-23.757,299.264,31.97C631,1038.246,676.315,1103.578,743.311,1145.2c83.942,52.27,198.963,60.436,290.867,20.648,105.6-45.728,174.49-145.7,282.47-186.6,81.434-30.856,174.669-23.641,259.942-3.085s166.4,53.754,251.6,74.5c69.12,16.844,147.149,24.384,209.1-8.282,60.646-31.97,92.9-97.742,94.029-161.31s-24.7-125.28-57.856-181.262c-28.6-48.326-63.718-95.956-69.939-150.5-7.117-62.64,25.4-123.494,66.073-174.441s90.419-96.025,125.952-150.035c45.52-69.65,65.422-150.614,56.832-231.189" transform="translate(93.085 167.229)" fill="none" stroke="#fff" stroke-width="2"/>
              </g>
              <g id="Group_4693" data-name="Group 4693" transform="translate(922.957 -668.553)">
                <path id="Path_25544" data-name="Path 25544" d="M425.733,1953.183c-74.6-41.76-78.106-144.281-34.355-213.162S511.365,1625.552,579.1,1575.069s132.864-115.4,138.445-194.718c7.168-101.408-85.376-193.489-73.523-294.641,9.242-78.741,80.23-138.342,154.829-171.68,42.163-18.815,90.906-25.4,134.579-40.948,198.093-70.273,374.118,43.477,497.485-48.929,133.555-100.178,126.745-212.3,102.067-267.543-31.616-70.784-137.5-227.523-346.01-184.348-84.685,17.539-171.52,32.48-258.33,27.585-129.843-7.4-256.1-100.015-264.4-217.64-5.555-80.62,40.525-164.488,8.346-239.842-21.581-50.669-76.262-85.655-134.579-98.159s-119.834-4.988-177.485,9.837" transform="translate(-360.53 454.914)" fill="none" stroke="#fff" stroke-width="2"/>
                <path id="Path_25545" data-name="Path 25545" d="M427.665,1958.048c-74.445-45.588-81.2-149.9-37.3-221.676,42.88-70.064,119.808-116.743,189-166.206,68.378-48.859,134.3-110.386,143.36-186.946,11.443-97.858-72.909-189.173-60.493-289.676,10.086-79.924,75.955-141.52,148.224-178.5,41.523-21.275,90.675-31.111,135.68-47.839,191.283-70.806,363.366,37.236,484.25-53.128,129.946-97.232,126.285-206.481,103.117-262.161-29.389-70.482-131.814-221.027-333.338-183.536-82.97,15.474-169.139,28.1-255.078,22.9-126.541-7.424-248.985-95.909-260.045-209.265-7.68-78.463,34.227-161.194,2.765-235.852-21.427-51.04-73.958-87.209-130.56-102.219-57.114-15.126-118.374-11.438-176.794.58" transform="translate(-356.548 449.771)" fill="none" stroke="#fff" stroke-width="2"/>
                <path id="Path_25546" data-name="Path 25546" d="M431.124,1963.63c-74.24-49.37-84.326-155.44-40.269-230.168,42.01-71.224,119.629-119.086,190.31-167.481,68.992-47.236,135.68-105.4,148.2-179.174,15.744-94.285-60.672-184.858-47.488-284.827,10.726-81.2,71.68-144.676,141.645-185.392,40.96-23.8,90.445-36.818,137.037-54.706,184.678-70.946,352.717,31.181,471.04-57.049,126.362-94.285,125.824-200.634,104.141-256.616C1508.6,478.06,1409.556,333.57,1215.1,365.493c-81.51,13.363-167.014,23.548-252.032,18.026-123.136-7.563-241.92-91.942-255.718-201.075-9.651-76.328,28.16-157.9-2.79-231.861-21.274-51.62-71.68-88.763-126.541-106.256-55.962-17.841-116.89-17.934-176.128-8.7" transform="translate(-354.171 443.911)" fill="none" stroke="#fff" stroke-width="2"/>
                <path id="Path_25547" data-name="Path 25547" d="M434.625,1969.865c-74.24-53.128-87.4-161.031-43.213-238.659,41.19-72.337,119.424-121.383,191.59-168.711,69.581-45.681,137.165-100.41,153.088-171.425,20.045-90.735-48.307-180.566-34.458-279.978,11.469-82.291,67.456-147.97,135.04-192.282,40.243-26.378,90.189-42.5,138.24-61.6,178.15-70.807,342.067,25.125,457.984-60.924,122.752-91.362,125.44-194.881,105.19-251.187-24.96-69.832-120.653-208.337-307.993-181.912-79.974,11.275-164.659,18.885-248.858,13.27-119.757-8-234.88-88.044-251.392-192.862C718.171,109.359,751.451,29.04,721.5-44.272c-21.274-52.038-69.453-90.48-122.522-110.293-54.81-20.578-115.43-24.43-175.437-17.98" transform="translate(-351.86 437.374)" fill="none" stroke="#fff" stroke-width="2"/>
                <path id="Path_25548" data-name="Path 25548" d="M438.123,1976.826c-74.035-56.91-90.47-166.6-46.08-247.15,40.371-73.452,119.219-123.749,192.9-169.987,70.17-44.081,138.6-95.422,157.926-163.654,24.371-87.162-35.84-176.32-21.427-275.106,12.237-83.52,63.181-151.4,128.486-199.2,39.6-29,89.907-48.14,139.443-68.487,171.7-70.482,331.443,19.071,444.877-64.821,119.142-88.392,124.851-188.918,106.24-245.712-22.784-69.484-115.2-202.142-295.322-181.123-78.515,9.28-162.355,14.384-245.76,8.491-116.378-8.213-227.84-84.123-247.014-184.649-13.747-72.106,15.36-151.218-13.926-223.857-21.146-52.5-67.226-91.988-118.5-114.33-53.76-23.362-113.971-30.9-174.771-27.26" transform="translate(-349.521 430.135)" fill="none" stroke="#fff" stroke-width="2"/>
                <path id="Path_25549" data-name="Path 25549" d="M441.664,1984.328c-73.882-60.692-93.491-172.145-49.126-255.642,39.6-74.565,118.989-126.093,194.176-171.263,70.758-42.456,140.186-90.364,162.816-155.9,28.851-83.52-23.5-171.913-8.4-270.234,13-84.657,58.88-154.884,121.882-206.086,38.938-31.645,89.6-53.778,140.8-75.377,165.325-69.948,320.794,13.015,431.744-68.719,115.533-85.446,124.339-183.048,107.264-240.236-20.48-69.136-109.9-196.087-282.624-180.334-77.107,6.96-160.051,9.883-242.586,3.712C904.589,355.822,796.633,284,774.925,187.924,759.1,117.883,783.987,40,755.417-31.943,734.4-84.932,690.47-125.625,640.96-150.264c-52.557-26.216-112.512-37.4-174.08-36.54" transform="translate(-347.251 422.261)" fill="none" stroke="#fff" stroke-width="2"/>
                <path id="Path_25550" data-name="Path 25550" d="M445.244,1992.525c-73.754-64.473-96.538-177.689-52.1-264.156,38.835-75.632,118.733-128.459,195.482-172.493,71.27-40.9,141.619-85.376,167.68-148.156,33.28-79.947-11.085-167.6,4.608-265.385,13.8-85.84,54.528-158.433,115.2-212.977,38.4-34.359,89.421-59.392,141.9-82.244,159-69.3,310.144,6.96,418.611-72.616,111.949-82.523,123.8-177.179,108.314-234.808-18.483-68.742-104.653-190.24-269.952-179.5a1696.878,1696.878,0,0,1-239.437-1.067c-109.67-8.631-214.144-76.421-238.336-168.2-17.92-68,2.791-144.629-25.088-215.9-20.889-53.36-62.72-95.4-110.438-122.38-51.43-29.093-111.027-43.895-173.414-45.843" transform="translate(-344.995 413.879)" fill="none" stroke="#fff" stroke-width="2"/>
                <path id="Path_25551" data-name="Path 25551" d="M448.859,2000.6c-73.6-68.231-99.507-183.28-55.066-272.647,38.144-76.723,118.5-130.849,196.813-173.769,71.808-39.44,143.053-80.365,172.544-140.384,37.5-76.351,1.357-163.282,17.638-260.536,14.566-86.977,50.125-162.029,108.7-219.867,37.581-37.12,89.19-64.96,143.129-89.135,152.755-68.463,299.52.9,405.479-76.56,108.339-79.576,123.264-171.286,109.363-229.333-16.384-68.371-101.785-203.464-257.305-178.64-73.344,11.6-155.418.858-236.262-5.846-106.317-8.793-207.36-72.57-234.01-159.964-20.1-65.981-3.456-141.335-30.72-211.909-20.081-51.161-57.3-95.358-106.445-126.417-50.278-32.016-109.542-50.367-172.723-55.123" transform="translate(-342.696 405.523)" fill="none" stroke="#fff" stroke-width="2"/>
                <path id="Path_25552" data-name="Path 25552" d="M452.413,2008.706c-73.472-71.92-102.4-188.733-58.035-281.162,37.427-77.7,118.221-133.214,198.221-175,72.32-37.839,144.512-75.377,177.434-132.635,41.8-72.778,13.8-158.99,30.72-255.665,15.36-88.16,45.67-165.718,102.118-226.781,36.839-39.881,88.934-70.528,144.333-96.025,146.56-67.489,288.845-5.151,392.345-80.411,104.73-76.56,122.675-165.37,110.387-223.857-14.285-68-96.358-199.521-244.608-177.921-72.243,10.51-153.114-3.619-233.114-10.6-102.963-8.978-200.73-68.765-229.683-151.775-22.3-63.963-9.7-138.017-36.2-207.9-19.606-51.492-55.155-96.78-102.4-130.454-49.872-35.171-109.334-57.429-172.057-64.4" transform="translate(-340.516 397.141)" fill="none" stroke="#fff" stroke-width="2"/>
                <path id="Path_25553" data-name="Path 25553" d="M456.047,2016.839c-73.293-75.771-105.421-194.207-60.979-289.63,36.736-78.88,117.914-135.65,199.4-176.32,72.832-36.331,145.92-70.366,182.272-124.863,46.08-69.206,26.266-154.675,43.7-250.816,16.179-89.343,41.191-169.36,95.539-233.671,36.1-42.665,88.729-76.05,145.561-102.916,140.442-66.4,278.2-11.182,379.213-84.286,101.12-73.683,122.112-159.477,111.437-218.429-12.237-67.582-90.854-195.275-231.936-177.109-71.271,9.28-150.784-8.12-229.965-15.382-99.609-9.141-194.15-64.96-225.28-143.539-24.6-61.991-15.949-134.723-41.779-203.905-19.163-51.92-53.109-98.337-98.406-134.56-48.59-38.332-107.872-63.821-171.366-73.683" transform="translate(-338.338 388.707)" fill="none" stroke="#fff" stroke-width="2"/>
                <path id="Path_25554" data-name="Path 25554" d="M459.716,2024.837c-73.165-79.553-108.365-199.706-64-298.144,36.045-79.878,117.606-138.063,200.678-177.527,73.318-34.8,147.379-65.331,187.161-117.091,50.432-65.609,38.758-150.337,56.73-245.921,17-90.48,36.634-173.142,88.934-240.561,35.3-45.5,88.525-81.525,146.79-109.806,134.374-65.192,267.546-17.238,366.08-88.161,97.536-70.737,121.5-153.561,112.461-212.953-10.24-67.28-85.248-190.867-219.238-176.32-70.477,7.656-148.48-12.6-226.816-20.161-96.256-9.28-187.674-61.132-221-135.326C860.56,142.847,865.322,71.438,840.157,2.951,819.805-52.381,786.6-99.779,745.77-135.6c-47.289-41.486-106.4-70.208-170.7-82.94" transform="translate(-336.17 380.43)" fill="none" stroke="#fff" stroke-width="2"/>
                <path id="Path_25555" data-name="Path 25555" d="M463.355,2032.954c-73.011-83.334-111.258-205.2-66.893-306.635,35.379-80.922,117.3-140.523,201.984-178.78,73.8-33.362,148.787-60.32,192-109.343,54.733-62.036,51.2-146.021,69.734-241.118,17.92-91.664,32.051-176.9,82.355-247.452,34.458-48.326,88.371-86.977,148.019-116.673,128.358-63.893,256.9-23.2,352.973-92.1,93.9-67.79,120.832-147.645,113.485-207.478-8.192-66.793-79.744-163.328-206.592-175.508-69.683-6.7-146.15-17.075-223.641-24.94-92.9-9.442-181.325-57.3-216.653-127.09-29.389-58-28.416-128.134-52.941-195.925-20.173-55.8-51.2-104.632-90.342-142.588-45.939-44.655-104.877-76.625-170.01-92.22" transform="translate(-333.998 372.035)" fill="none" stroke="#fff" stroke-width="2"/>
                <path id="Path_25556" data-name="Path 25556" d="M467.044,2041.044c-72.883-87.115-114.15-210.68-69.862-315.149,34.739-81.966,116.966-142.982,203.29-180.032,74.24-31.877,150.2-55.355,196.89-101.57,58.88-58.464,63.718-141.706,82.765-236.246,18.688-92.8,27.392-180.682,75.776-254.365,33.587-51.179,88.192-92.406,149.222-123.563,122.394-62.641,246.4-29.186,339.84-96,90.445-64.658,120.192-141.729,114.534-202.026-6.246-66.352-74.931-158.619-193.92-174.7-68.582-9.28-143.846-21.53-220.493-29.719-89.6-9.559-175.078-53.36-212.326-118.877-31.872-56-34.637-124.84-58.5-191.911C854.244-39.4,825.47-89.7,787.94-129.74,743.37-177.56,684.6-212.787,618.6-231.24" transform="translate(-331.85 363.666)" fill="none" stroke="#fff" stroke-width="2"/>
                <path id="Path_25557" data-name="Path 25557" d="M470.735,2049.135c-72.73-90.875-117.018-216.155-72.832-323.641,34.15-83.01,116.659-145.488,204.6-181.309,74.726-30.438,151.629-50.344,201.754-93.821,63.309-54.868,76.237-137.368,95.8-231.375s22.733-184.464,69.12-261.256c32.691-54.033,88.064-97.765,150.451-130.454,116.48-61.039,235.75-35.241,326.707-99.76,86.835-61.735,119.5-135.836,115.558-196.574-4.275-65.958-70.093-154.234-181.222-174-67.507-11.925-141.542-25.961-217.369-34.475-86.17-9.674-168.96-49.555-207.974-110.664-34.458-53.987-40.832-121.545-64-187.921-19.866-56.771-46.362-108.507-82.3-150.661-43.183-50.974-101.787-89.471-168.678-110.8" transform="translate(-329.73 355.297)" fill="none" stroke="#fff" stroke-width="2"/>
                <path id="Path_25558" data-name="Path 25558" d="M474.451,2057.354c-72.6-94.656-119.859-221.63-75.8-332.132,33.536-84.054,116.3-148.016,205.9-182.561,75.187-29.024,153.037-45.356,206.618-86.072,67.584-51.318,88.755-133.029,108.826-226.526,20.48-95.12,17.92-188.222,62.592-268.146,31.744-56.887,87.987-103.078,151.654-137.344,110.643-59.508,225.126-41.3,313.6-103.774,83.226-58.789,118.809-129.92,116.608-191.1-2.355-65.563-65.229-150.081-168.576-173.1-66.381-14.918-139.213-30.531-214.2-39.394-82.842-9.767-162.918-45.588-203.622-102.428-37.171-51.9-47.053-118.32-69.632-183.93-19.712-57.235-43.9-110.456-78.285-154.7C788.378-177.964,729.95-219.731,662.15-243.93" transform="translate(-327.609 346.915)" fill="none" stroke="#fff" stroke-width="2"/>
                <path id="Path_25559" data-name="Path 25559" d="M478.161,2065.3c-72.448-98.414-122.675-227.082-78.746-340.623,32.922-85.074,115.968-150.522,207.181-183.814,75.648-27.608,154.445-40.368,211.507-78.3,71.859-47.769,101.274-128.714,121.83-221.654,21.325-96.35,13.235-192.027,56.013-275.06,30.72-59.74,87.936-108.344,152.883-144.212,104.96-58,214.477-47.374,300.467-107.695,79.616-55.842,118.067-123.981,117.76-185.6-.461-65.123-60.314-146.161-155.9-172.284-65.229-17.794-136.909-34.8-211.046-44.08-79.36-9.86-157-41.6-199.3-94.215-40.064-49.811-53.35-115-75.29-179.94C905.988-19.893,884.1-74.6,851.28-120.906c-40.315-57.259-98.577-102.3-167.321-129.364" transform="translate(-325.508 338.546)" fill="none" stroke="#fff" stroke-width="2"/>
                <path id="Path_25560" data-name="Path 25560" d="M481.893,2073.4c-72.32-102.2-125.44-232.558-81.715-349.115,32.333-86.1,115.61-153.12,208.486-185.09,76.083-26.193,155.853-35.38,216.371-70.528,76.134-44.219,113.818-124.375,134.861-216.8,22.2-97.44,8.422-195.785,49.408-281.951,29.8-62.64,87.936-113.541,154.112-151.1,99.1-56.26,203.8-53.36,287.334-111.569,76.007-52.919,117.325-118.088,118.682-180.2,1.434-64.728-55.219-142.588-143.206-171.495-64-21.019-134.6-39.255-207.9-48.72-76.134-10.023-151.168-37.561-194.841-86.1-42.957-47.491-59.546-111.685-80.9-175.926C923.263-13.4,903.7-69.571,872.37-117.966,833.511-178.35,775.418-226.678,705.714-256.61" transform="translate(-323.403 330.177)" fill="none" stroke="#fff" stroke-width="2"/>
                <path id="Path_25561" data-name="Path 25561" d="M485.662,2081.487C413.47,1975.509,357.38,1843.5,400.977,1723.858c31.77-87.116,115.2-155.65,209.766-186.32,76.544-24.847,157.235-30.439,221.235-62.78,80.307-40.809,126.362-120.037,147.866-211.956,23.04-98.646,3.61-199.521,42.854-288.841,28.774-65.448,87.987-118.668,155.315-157.992,93.389-54.543,193.024-59.624,274.2-115.467,72.294-50.112,116.557-112.126,119.757-174.766,3.277-64.357-49.971-139.2-130.56-170.706a905.243,905.243,0,0,0-204.8-53.569c-72.73-10.046-145.332-33.246-190.541-77.743-45.824-45.124-65.613-108.414-86.349-171.936-19.149-58.7-36.352-116.325-66.2-166.808-37.382-63.492-95.292-115.107-165.965-147.924" transform="translate(-321.335 321.808)" fill="none" stroke="#fff" stroke-width="2"/>
                <path id="Path_25562" data-name="Path 25562" d="M489.418,2089.656c-72.038-109.76-131.046-243.462-87.629-366.121,31.181-88.161,114.867-158.27,211.072-187.6,76.979-23.479,158.72-25.52,226.1-55.008,84.634-37.236,138.931-115.722,160.922-207.107,24.013-99.76-1.28-203.3,36.249-295.731,27.7-68.3,88.167-123.749,156.519-164.883,87.731-52.78,182.374-65.679,261.12-119.364,68.659-47.166,115.738-106.28,120.755-169.361,5.12-63.963-44.467-136-117.76-169.871a735.582,735.582,0,0,0-201.574-58.371c-69.479-10.046-139.674-28.907-186.266-69.6C1020.029,184,997.245,121.5,977,58.7,958.051-.484,943.229-59.621,914.813-112.146c-35.908-66.586-93.641-121.491-165.3-157.2" transform="translate(-319.255 313.361)" fill="none" stroke="#fff" stroke-width="2"/>
                <path id="Path_25563" data-name="Path 25563" d="M493.188,2097.68c-71.91-113.518-133.811-248.914-90.6-374.635,30.72-89.158,114.509-160.892,212.48-188.849,77.414-22.11,160.051-20.532,230.963-47.235,88.934-33.686,151.68-111.36,173.927-202.235,25.165-100.92-6.144-207.061,29.67-302.645,26.675-71.154,88.346-128.644,157.773-171.68,82.125-51.04,171.725-71.758,247.936-123.262,64.973-44.312,114.918-100.572,121.7-163.885s-38.682-132.936-105.19-169.082c-58.88-32.086-127.719-52.386-198.426-63.151-66.15-10.046-133.965-24.43-181.888-61.341-51.994-39.974-77.849-101.872-97.485-163.932-18.637-59.717-31.181-120.2-58.189-174.882-34.386-69.689-91.936-127.9-164.608-166.507" transform="translate(-317.214 305.058)" fill="none" stroke="#fff" stroke-width="2"/>
                <path id="Path_25564" data-name="Path 25564" d="M496.9,2105.731c-71.68-117.3-136.32-254.319-93.568-383.125,30.259-90.156,114.176-163.537,213.683-190.1,77.9-20.88,161.485-15.567,235.853-39.44,93.235-30.16,164.147-107,186.88-197.363,26.01-102.081-11.059-210.8,23.04-309.535,25.6-74.008,88.653-133.47,159-178.641,76.6-49.184,161.075-77.79,234.8-127.159,61.44-41.273,114.048-94.54,122.88-158.341,8.7-63.22-32.486-129.92-92.518-168.293-56.73-36.262-125.44-56.7-195.277-67.907-62.822-10.069-128.23-19.859-177.613-53.128-55.117-37.12-84.071-98.577-103.04-159.941-18.483-60.181-28.57-122.125-54.17-178.942-32.863-72.742-90.194-134.244-163.84-175.764" transform="translate(-315.116 296.728)" fill="none" stroke="#fff" stroke-width="2"/>
                <path id="Path_25565" data-name="Path 25565" d="M500.757,2113.861c-71.68-121.081-139.238-259.841-96.538-391.64,29.568-91.223,113.818-166.206,215.04-191.354,78.336-19.488,162.918-10.556,240.64-31.738,97.536-26.541,176.64-102.66,199.961-192.56,26.854-103.24-15.974-214.508,16.512-316.426,24.474-76.839,89.088-138.18,160.2-185.6s150.4-83.729,221.7-130.941c57.856-38.327,113.152-88.671,123.878-152.888,10.5-62.872-25.856-126.835-79.821-167.481s-123.034-60.993-192.154-72.686c-59.494-10.069-122.47-15.1-173.261-44.892C1078.651,201.5,1046.6,140.348,1028.3,79.7s-25.958-124.028-50.15-182.979C946.773-179.094,889.6-243.9,814.894-288.32" transform="translate(-313.134 288.32)" fill="none" stroke="#fff" stroke-width="2"/>
              </g>
            </g>
          </g>
        </g>
      </g>
    </g>
  </g>
</svg>
