<svg xmlns="http://www.w3.org/2000/svg" width="100" height="100" viewBox="0 0 100 100"><defs><style>.a{fill:#fff;}.b{fill:#9b9b9b;}.c,.d{stroke:none;}.d{fill:#9b9b9b;}</style></defs><g transform="translate(-11)"><g class="a" transform="translate(11)"><path class="c" d="M 50 99 C 43.38460159301758 99 36.96761322021484 97.70458984375 30.92729377746582 95.14974975585938 C 25.09253311157227 92.68185424804688 19.85215950012207 89.14862823486328 15.35177326202393 84.64822387695312 C 10.85137367248535 80.14784240722656 7.318146705627441 74.90746307373047 4.850253105163574 69.07270812988281 C 2.295413255691528 63.03238677978516 1 56.61539840698242 1 50 C 1 43.38460159301758 2.295413255691528 36.96761322021484 4.850253105163574 30.92729377746582 C 7.318146705627441 25.09253311157227 10.85137367248535 19.85215950012207 15.35177326202393 15.35177326202393 C 19.85215950012207 10.85137367248535 25.09253311157227 7.318146705627441 30.92729377746582 4.850253105163574 C 36.96761322021484 2.295413255691528 43.38460159301758 1 50 1 C 56.61539840698242 1 63.03238677978516 2.295413255691528 69.07270812988281 4.850253105163574 C 74.90746307373047 7.318146705627441 80.14784240722656 10.85137367248535 84.64822387695312 15.35177326202393 C 89.14862823486328 19.85215950012207 92.68185424804688 25.09253311157227 95.14974975585938 30.92729377746582 C 97.70458984375 36.96761322021484 99 43.38460159301758 99 50 C 99 56.61539840698242 97.70458984375 63.03238677978516 95.14974975585938 69.07270812988281 C 92.68185424804688 74.90746307373047 89.14862823486328 80.14784240722656 84.64822387695312 84.64822387695312 C 80.14784240722656 89.14862823486328 74.90746307373047 92.68185424804688 69.07270812988281 95.14974975585938 C 63.03238677978516 97.70458984375 56.61539840698242 99 50 99 Z"/><path class="d" d="M 50 2 C 43.51915740966797 2 37.23324203491211 3.268829345703125 31.31684112548828 5.771255493164062 C 25.60127258300781 8.188743591308594 20.46775817871094 11.64998626708984 16.05886840820312 16.05886840820312 C 11.64998626708984 20.46775817871094 8.188743591308594 25.60127258300781 5.771255493164062 31.31684112548828 C 3.268829345703125 37.23324203491211 2 43.51915740966797 2 50 C 2 56.48084259033203 3.268829345703125 62.76675796508789 5.771255493164062 68.68314361572266 C 8.188743591308594 74.39871215820312 11.64998626708984 79.53224182128906 16.05886840820312 83.94113159179688 C 20.46775817871094 88.34999847412109 25.60127258300781 91.81125640869141 31.31684112548828 94.22874450683594 C 37.23324203491211 96.73117065429688 43.51915740966797 98 50 98 C 56.48084259033203 98 62.76675796508789 96.73117065429688 68.68314361572266 94.22874450683594 C 74.39871215820312 91.81125640869141 79.53224182128906 88.34999847412109 83.94113159179688 83.94113159179688 C 88.34999847412109 79.53224182128906 91.81125640869141 74.39871215820312 94.22874450683594 68.68314361572266 C 96.73117065429688 62.76675796508789 98 56.48084259033203 98 50 C 98 43.51915740966797 96.73117065429688 37.23324203491211 94.22874450683594 31.31684112548828 C 91.81125640869141 25.60127258300781 88.34999847412109 20.46775817871094 83.94113159179688 16.05886840820312 C 79.53224182128906 11.64998626708984 74.39871215820312 8.188743591308594 68.68314361572266 5.771255493164062 C 62.76675796508789 3.268829345703125 56.48084259033203 2 50 2 M 50 0 C 77.61422729492188 0 100 22.38575744628906 100 50 C 100 77.61422729492188 77.61422729492188 100 50 100 C 22.38575744628906 100 0 77.61422729492188 0 50 C 0 22.38575744628906 22.38575744628906 0 50 0 Z"/></g><g transform="translate(37 26)"><path class="b" d="M46.922,48.5H1.434a.942.942,0,0,1-.942-.941V26.8a.945.945,0,0,1,.346-.642.918.918,0,0,1,.09-.065l12.808-8.352a.941.941,0,0,1,1.456.789v6.621l11.363-7.414a.942.942,0,0,1,1.458.789v7.414h3.781l.856-11.309v-.031l.333-4.392a.941.941,0,0,1,.94-.871h7.665a.941.941,0,0,1,.939.871l.334,4.4v.011l.863,11.334h3.2a.942.942,0,0,1,.942.942V47.559a.942.942,0,0,1-.942.941ZM2.371,46.615h43.6V27.831H2.376ZM33.689,25.946h8.145l-.78-10.3H34.468Zm-16.265,0h8.708V20.263Zm-12.817,0h8.707V20.263Zm30-12.189h6.3l-.191-2.523H34.8Zm.484,24.413H22.372a.942.942,0,0,1-.942-.942V31.852a.942.942,0,0,1,.942-.942H35.095a.942.942,0,0,1,.942.942V37.22a.942.942,0,0,1-.942.944Zm-11.78-1.885H34.149V32.8H23.314ZM18.127,38.17H5.408a.942.942,0,0,1-.942-.942V31.852a.942.942,0,0,1,.942-.942H18.131a.942.942,0,0,1,.942.942V37.22a.942.942,0,0,1-.942.944ZM6.347,36.285H17.185V32.8H6.351Zm9.537-23.243H4.1a3.607,3.607,0,1,1,0-7.215H6.721A3.606,3.606,0,0,1,9.89.5h28.9a3.606,3.606,0,0,1,0,7.213H19.05a3.605,3.605,0,0,1-3.165,5.329ZM4.1,7.713a1.723,1.723,0,0,0,0,3.444H15.884a1.723,1.723,0,0,0,0-3.444.942.942,0,0,1,0-1.885h22.9a1.722,1.722,0,1,0,0-3.443H9.89a1.722,1.722,0,1,0,0,3.443.942.942,0,0,1,0,1.885Z" transform="translate(-0.49 -0.5)"/></g></g></svg>