<svg xmlns="http://www.w3.org/2000/svg" width="100" height="100" viewBox="0 0 100 100"><defs><style>.a{fill:#f18f20;}.b{fill:#fff;}</style></defs><g transform="translate(-1439 -558)"><path class="a" d="M50,0A50,50,0,1,1,0,50,50,50,0,0,1,50,0Z" transform="translate(1439 558)"/><g transform="translate(1468.996 584)"><g transform="translate(0.004 0)"><path class="b" d="M30.309,15.117h8.757a.937.937,0,0,0,.853-.556.97.97,0,0,0-.14-1.021L28.676.334,28.66.317C28.644.3,28.627.282,28.61.265A.263.263,0,0,0,28.582.24.517.517,0,0,0,28.532.2L28.5.175c-.019-.014-.04-.028-.061-.041L28.419.12c-.03-.017-.061-.032-.093-.046h0c-.031-.013-.063-.024-.1-.034L28.2.032a.46.46,0,0,1-.07-.015h-.038L28.026,0h-15.5a.926.926,0,0,0-.653.27.882.882,0,0,0-.094.088L.267,12.717a.969.969,0,0,0-.187,1.036.938.938,0,0,0,.863.582h9.3L.272,24.717a.969.969,0,0,0-.191,1.036.938.938,0,0,0,.861.584H11.263L5.922,39.879h0l-2.678,6.81a.961.961,0,0,0,.538,1.2.932.932,0,0,0,1.2-.5l2.551-6.48,12.721-7,12.53,6.991,2.384,6.47a.939.939,0,0,0,.876.619.912.912,0,0,0,.33-.061.944.944,0,0,0,.525-.5.971.971,0,0,0,.023-.731l-7.506-20.37h9.643a.938.938,0,0,0,.867-.589.968.968,0,0,0-.2-1.041ZM28.9,13.206V3.542l8.121,9.664Zm-1.876,8.708-5.617-8.728,5.617-8.961ZM26.4,24.432H14.356L20.3,14.953Zm-6.121-13L14.155,1.911h12.1ZM19.171,13.2l-5.713,9.108V4.319ZM13.278,26.338H27.414l.45,1.223L20.27,31.744,12.8,27.574ZM3.131,12.424,11.59,3.339v9.084Zm.049,12,8.4-8.756v8.752ZM8.634,38.147l3.46-8.791L18.3,32.821Zm13.6-5.309,6.3-3.472,3.253,8.8Zm6.678-8.409V16.386L36.8,24.427Z" transform="translate(-0.004 0)"/></g></g></g></svg>