<svg xmlns="http://www.w3.org/2000/svg" width="100" height="100" viewBox="0 0 100 100"><defs><style>.a{fill:#fff;}.b{fill:#9b9b9b;}.c,.d{stroke:none;}.d{fill:#9b9b9b;}</style></defs><g transform="translate(-1439 -215)"><g class="a" transform="translate(1439 215)"><path class="c" d="M 50 99 C 43.38460159301758 99 36.96761322021484 97.70458984375 30.92729377746582 95.14974975585938 C 25.09253311157227 92.68185424804688 19.85215950012207 89.14862823486328 15.35177326202393 84.64822387695312 C 10.85137367248535 80.14784240722656 7.318146705627441 74.90746307373047 4.850253105163574 69.07270812988281 C 2.295413255691528 63.03238677978516 1 56.61539840698242 1 50 C 1 43.38460159301758 2.295413255691528 36.96761322021484 4.850253105163574 30.92729377746582 C 7.318146705627441 25.09253311157227 10.85137367248535 19.85215950012207 15.35177326202393 15.35177326202393 C 19.85215950012207 10.85137367248535 25.09253311157227 7.318146705627441 30.92729377746582 4.850253105163574 C 36.96761322021484 2.295413255691528 43.38460159301758 1 50 1 C 56.61539840698242 1 63.03238677978516 2.295413255691528 69.07270812988281 4.850253105163574 C 74.90746307373047 7.318146705627441 80.14784240722656 10.85137367248535 84.64822387695312 15.35177326202393 C 89.14862823486328 19.85215950012207 92.68185424804688 25.09253311157227 95.14974975585938 30.92729377746582 C 97.70458984375 36.96761322021484 99 43.38460159301758 99 50 C 99 56.61539840698242 97.70458984375 63.03238677978516 95.14974975585938 69.07270812988281 C 92.68185424804688 74.90746307373047 89.14862823486328 80.14784240722656 84.64822387695312 84.64822387695312 C 80.14784240722656 89.14862823486328 74.90746307373047 92.68185424804688 69.07270812988281 95.14974975585938 C 63.03238677978516 97.70458984375 56.61539840698242 99 50 99 Z"/><path class="d" d="M 50 2 C 43.51915740966797 2 37.23324203491211 3.268829345703125 31.31684112548828 5.771255493164062 C 25.60127258300781 8.188743591308594 20.46775817871094 11.64998626708984 16.05886840820312 16.05886840820312 C 11.64998626708984 20.46775817871094 8.188743591308594 25.60127258300781 5.771255493164062 31.31684112548828 C 3.268829345703125 37.23324203491211 2 43.51915740966797 2 50 C 2 56.48084259033203 3.268829345703125 62.76675796508789 5.771255493164062 68.68314361572266 C 8.188743591308594 74.39871215820312 11.64998626708984 79.53224182128906 16.05886840820312 83.94113159179688 C 20.46775817871094 88.34999847412109 25.60127258300781 91.81125640869141 31.31684112548828 94.22874450683594 C 37.23324203491211 96.73117065429688 43.51915740966797 98 50 98 C 56.48084259033203 98 62.76675796508789 96.73117065429688 68.68314361572266 94.22874450683594 C 74.39871215820312 91.81125640869141 79.53224182128906 88.34999847412109 83.94113159179688 83.94113159179688 C 88.34999847412109 79.53224182128906 91.81125640869141 74.39871215820312 94.22874450683594 68.68314361572266 C 96.73117065429688 62.76675796508789 98 56.48084259033203 98 50 C 98 43.51915740966797 96.73117065429688 37.23324203491211 94.22874450683594 31.31684112548828 C 91.81125640869141 25.60127258300781 88.34999847412109 20.46775817871094 83.94113159179688 16.05886840820312 C 79.53224182128906 11.64998626708984 74.39871215820312 8.188743591308594 68.68314361572266 5.771255493164062 C 62.76675796508789 3.268829345703125 56.48084259033203 2 50 2 M 50 0 C 77.61422729492188 0 100 22.38575744628906 100 50 C 100 77.61422729492188 77.61422729492188 100 50 100 C 22.38575744628906 100 0 77.61422729492188 0 50 C 0 22.38575744628906 22.38575744628906 0 50 0 Z"/></g><g transform="translate(1468.996 241)"><g transform="translate(0.004 0)"><path class="b" d="M30.309,15.117h8.757a.937.937,0,0,0,.853-.556.97.97,0,0,0-.14-1.021L28.676.334,28.66.317C28.644.3,28.627.282,28.61.265A.263.263,0,0,0,28.582.24.517.517,0,0,0,28.532.2L28.5.175c-.019-.014-.04-.028-.061-.041L28.419.12c-.03-.017-.061-.032-.093-.046h0c-.031-.013-.063-.024-.1-.034L28.2.032a.46.46,0,0,1-.07-.015h-.038L28.026,0h-15.5a.926.926,0,0,0-.653.27.882.882,0,0,0-.094.088L.267,12.717a.969.969,0,0,0-.187,1.036.938.938,0,0,0,.863.582h9.3L.272,24.717a.969.969,0,0,0-.191,1.036.938.938,0,0,0,.861.584H11.263L5.922,39.879h0l-2.678,6.81a.961.961,0,0,0,.538,1.2.932.932,0,0,0,1.2-.5l2.551-6.48,12.721-7,12.53,6.991,2.384,6.47a.939.939,0,0,0,.876.619.912.912,0,0,0,.33-.061.944.944,0,0,0,.525-.5.971.971,0,0,0,.023-.731l-7.506-20.37h9.643a.938.938,0,0,0,.867-.589.968.968,0,0,0-.2-1.041ZM28.9,13.206V3.542l8.121,9.664Zm-1.876,8.708-5.617-8.728,5.617-8.961ZM26.4,24.432H14.356L20.3,14.953Zm-6.121-13L14.155,1.911h12.1ZM19.171,13.2l-5.713,9.108V4.319ZM13.278,26.338H27.414l.45,1.223L20.27,31.744,12.8,27.574ZM3.131,12.424,11.59,3.339v9.084Zm.049,12,8.4-8.756v8.752ZM8.634,38.147l3.46-8.791L18.3,32.821Zm13.6-5.309,6.3-3.472,3.253,8.8Zm6.678-8.409V16.386L36.8,24.427Z" transform="translate(-0.004 0)"/></g></g></g></svg>