<svg xmlns="http://www.w3.org/2000/svg" width="100" height="100" viewBox="0 0 100 100"><defs><style>.a{fill:#fff;}.b{fill:#9b9b9b;}.c,.d{stroke:none;}.d{fill:#9b9b9b;}</style></defs><g transform="translate(-1644 -215)"><g class="a" transform="translate(1644 215)"><path class="c" d="M 50 99 C 43.38460159301758 99 36.96761322021484 97.70458984375 30.92729377746582 95.14974975585938 C 25.09253311157227 92.68185424804688 19.85215950012207 89.14862823486328 15.35177326202393 84.64822387695312 C 10.85137367248535 80.14784240722656 7.318146705627441 74.90746307373047 4.850253105163574 69.07270812988281 C 2.295413255691528 63.03238677978516 1 56.61539840698242 1 50 C 1 43.38460159301758 2.295413255691528 36.96761322021484 4.850253105163574 30.92729377746582 C 7.318146705627441 25.09253311157227 10.85137367248535 19.85215950012207 15.35177326202393 15.35177326202393 C 19.85215950012207 10.85137367248535 25.09253311157227 7.318146705627441 30.92729377746582 4.850253105163574 C 36.96761322021484 2.295413255691528 43.38460159301758 1 50 1 C 56.61539840698242 1 63.03238677978516 2.295413255691528 69.07270812988281 4.850253105163574 C 74.90746307373047 7.318146705627441 80.14784240722656 10.85137367248535 84.64822387695312 15.35177326202393 C 89.14862823486328 19.85215950012207 92.68185424804688 25.09253311157227 95.14974975585938 30.92729377746582 C 97.70458984375 36.96761322021484 99 43.38460159301758 99 50 C 99 56.61539840698242 97.70458984375 63.03238677978516 95.14974975585938 69.07270812988281 C 92.68185424804688 74.90746307373047 89.14862823486328 80.14784240722656 84.64822387695312 84.64822387695312 C 80.14784240722656 89.14862823486328 74.90746307373047 92.68185424804688 69.07270812988281 95.14974975585938 C 63.03238677978516 97.70458984375 56.61539840698242 99 50 99 Z"/><path class="d" d="M 50 2 C 43.51915740966797 2 37.23324203491211 3.268829345703125 31.31684112548828 5.771255493164062 C 25.60127258300781 8.188743591308594 20.46775817871094 11.64998626708984 16.05886840820312 16.05886840820312 C 11.64998626708984 20.46775817871094 8.188743591308594 25.60127258300781 5.771255493164062 31.31684112548828 C 3.268829345703125 37.23324203491211 2 43.51915740966797 2 50 C 2 56.48084259033203 3.268829345703125 62.76675796508789 5.771255493164062 68.68314361572266 C 8.188743591308594 74.39871215820312 11.64998626708984 79.53224182128906 16.05886840820312 83.94113159179688 C 20.46775817871094 88.34999847412109 25.60127258300781 91.81125640869141 31.31684112548828 94.22874450683594 C 37.23324203491211 96.73117065429688 43.51915740966797 98 50 98 C 56.48084259033203 98 62.76675796508789 96.73117065429688 68.68314361572266 94.22874450683594 C 74.39871215820312 91.81125640869141 79.53224182128906 88.34999847412109 83.94113159179688 83.94113159179688 C 88.34999847412109 79.53224182128906 91.81125640869141 74.39871215820312 94.22874450683594 68.68314361572266 C 96.73117065429688 62.76675796508789 98 56.48084259033203 98 50 C 98 43.51915740966797 96.73117065429688 37.23324203491211 94.22874450683594 31.31684112548828 C 91.81125640869141 25.60127258300781 88.34999847412109 20.46775817871094 83.94113159179688 16.05886840820312 C 79.53224182128906 11.64998626708984 74.39871215820312 8.188743591308594 68.68314361572266 5.771255493164062 C 62.76675796508789 3.268829345703125 56.48084259033203 2 50 2 M 50 0 C 77.61422729492188 0 100 22.38575744628906 100 50 C 100 77.61422729492188 77.61422729492188 100 50 100 C 22.38575744628906 100 0 77.61422729492188 0 50 C 0 22.38575744628906 22.38575744628906 0 50 0 Z"/></g><g transform="translate(1669 241)"><g transform="translate(0 0)"><path class="b" d="M34.169,36.508A1.01,1.01,0,0,0,35.177,35.5V16.733h3.529a.988.988,0,0,0,.569,0h7.864a.988.988,0,0,0,.569,0H59.664a.988.988,0,0,0,.569,0H68.1a.988.988,0,0,0,.569,0h3.529V35.49a1.009,1.009,0,1,0,2.017,0V15.715A1.01,1.01,0,0,0,73.2,14.7H69.389V13.38a1.01,1.01,0,0,0-.974-1.012l-2.912-.1a12.37,12.37,0,0,0-.792-2.024L66.79,8A1.015,1.015,0,0,0,66.766,6.6L63.113,2.934a1,1,0,0,0-1.4-.024L59.58,4.9A12.247,12.247,0,0,0,57.6,4.033L57.488.977A1.01,1.01,0,0,0,56.479,0H51.315a1.009,1.009,0,0,0-1.007.977L50.2,3.9a12.262,12.262,0,0,0-2.017.795L45.959,2.608a1,1,0,0,0-1.4.024L40.906,6.3A1.015,1.015,0,0,0,40.881,7.7l1.988,2.14A12.215,12.215,0,0,0,42,11.835l-3.047.108a1.009,1.009,0,0,0-.975,1.012v1.754H34.169a1.01,1.01,0,0,0-1.009,1.012V35.49a1.01,1.01,0,0,0,1.009,1.017Zm14.369-21.8a5.251,5.251,0,0,1,10.3,0ZM40,13.93l2.8-.1a1.009,1.009,0,0,0,.941-.75,10.261,10.261,0,0,1,1.237-2.834,1.013,1.013,0,0,0-.116-1.231L43.02,7.037,45.3,4.755l2.047,1.913a1,1,0,0,0,1.193.135,10.215,10.215,0,0,1,2.873-1.128,1.011,1.011,0,0,0,.785-.953l.1-2.7h3.218l.1,2.805a1.01,1.01,0,0,0,.748.945,10.23,10.23,0,0,1,2.824,1.241A1,1,0,0,0,60.4,6.9l1.971-1.843,2.274,2.283-1.9,2.052a1.011,1.011,0,0,0-.134,1.2,10.308,10.308,0,0,1,1.124,2.882,1.01,1.01,0,0,0,.948.789l2.69.1v.352H60.879a7.267,7.267,0,0,0-14.39,0H40Z" transform="translate(-28.685 0)"/><path class="b" d="M48.991,280.61H32.2a1.008,1.008,0,0,0-.916.592l-1.29,2.8-10.353.116-1.168-2.876a1.009,1.009,0,0,0-.935-.63H1.009A1.011,1.011,0,0,0,0,281.627v8.717a1.011,1.011,0,0,0,1.009,1.012H48.991A1.009,1.009,0,0,0,50,290.345v-8.717a1.009,1.009,0,0,0-1.009-1.017Zm-1.009,8.717H2.018v-6.693H16.861l1.171,2.886a1.009,1.009,0,0,0,.935.63h.007l11.679-.135a1.008,1.008,0,0,0,.9-.588l1.286-2.795H47.982Z" transform="translate(0 -243.357)"/><path class="b" d="M100.879,178.008a1.012,1.012,0,0,0-1.349-.461l-7.152,3.509a1.013,1.013,0,0,0,0,1.818l7.152,3.509a1.012,1.012,0,1,0,.892-1.816l-5.306-2.592,5.306-2.6a1.012,1.012,0,0,0,.457-1.36Z" transform="translate(-79.466 -153.871)"/><path class="b" d="M211.881,186.249a1.009,1.009,0,0,0,1.349.463l7.152-3.509a1.012,1.012,0,0,0,0-1.818l-7.152-3.509a1.012,1.012,0,0,0-.883,1.808l5.3,2.61-5.3,2.6a1.011,1.011,0,0,0-.467,1.353Z" transform="translate(-183.299 -154.193)"/><path class="b" d="M166.627,156.58,162.3,169.427a1.011,1.011,0,0,0,.636,1.282,1,1,0,0,0,.323.053,1.013,1.013,0,0,0,.959-.688l4.33-12.847a1.012,1.012,0,1,0-1.919-.646Z" transform="translate(-140.422 -135.236)"/></g></g></g></svg>