<svg xmlns="http://www.w3.org/2000/svg" width="100" height="100" viewBox="0 0 100 100"><defs><style>.a{fill:#f18f20;}.b{fill:#fff;}</style></defs><path class="a" d="M50,0A50,50,0,1,1,0,50,50,50,0,0,1,50,0Z"/><g transform="translate(20 29)"><path class="b" d="M82.02,20.112,77.905,15.97,72.182,4.6a1.245,1.245,0,0,0-1.11-.687H62.278V1.253A1.249,1.249,0,0,0,61.034,0H28.244a1.253,1.253,0,0,0,0,2.505H59.8v14.21a1.249,1.249,0,0,0,1.244,1.253H76.37L79.9,21.517V33.493l-5.081-.037a7.173,7.173,0,0,0-14.1-.087l-11.68-.079a7.173,7.173,0,0,0-14.046-.08l-5.927-.043a1.253,1.253,0,0,0-.018,2.505l5.841.042a7.175,7.175,0,0,0,14.227.084l11.552.077a7.174,7.174,0,0,0,14.18.087l6.3.045h.01a1.25,1.25,0,0,0,1.244-1.253V21A1.257,1.257,0,0,0,82.02,20.112ZM62.286,6.416h8.021l4.551,9.043H62.286ZM41.995,39.488A4.713,4.713,0,0,1,37.3,34.763c0-.092,0-.184,0-.274h0a4.695,4.695,0,1,1,4.686,5Zm25.759,0a4.725,4.725,0,1,1,4.692-4.725,4.71,4.71,0,0,1-4.692,4.725Z" transform="translate(-22.39)"/><path class="b" d="M14.781,50.851H34.043a1.281,1.281,0,0,0,0-2.561H14.781a1.281,1.281,0,1,0,0,2.561Z" transform="translate(-11.195 -40.235)"/><path class="b" d="M20.507,99.571a1.281,1.281,0,0,0-1.281-1.281H1.281a1.281,1.281,0,1,0,0,2.561H19.227A1.281,1.281,0,0,0,20.507,99.571Z" transform="translate(0 -81.895)"/><path class="b" d="M32.186,149.571a1.281,1.281,0,0,0-1.281-1.281H20.571a1.281,1.281,0,1,0,0,2.561H30.905A1.281,1.281,0,0,0,32.186,149.571Z" transform="translate(-15.996 -123.556)"/></g></svg>