<svg xmlns="http://www.w3.org/2000/svg" width="100" height="100" viewBox="0 0 100 100"><defs><style>.a{fill:#fff;}.b{fill:#9b9b9b;}.c,.d{stroke:none;}.d{fill:#9b9b9b;}</style></defs><g class="a"><path class="c" d="M 50 99 C 43.38460159301758 99 36.96761322021484 97.70458984375 30.92729377746582 95.14974975585938 C 25.09253311157227 92.68185424804688 19.85215950012207 89.14862823486328 15.35177326202393 84.64822387695312 C 10.85137367248535 80.14784240722656 7.318146705627441 74.90746307373047 4.850253105163574 69.07270812988281 C 2.295413255691528 63.03238677978516 1 56.61539840698242 1 50 C 1 43.38460159301758 2.295413255691528 36.96761322021484 4.850253105163574 30.92729377746582 C 7.318146705627441 25.09253311157227 10.85137367248535 19.85215950012207 15.35177326202393 15.35177326202393 C 19.85215950012207 10.85137367248535 25.09253311157227 7.318146705627441 30.92729377746582 4.850253105163574 C 36.96761322021484 2.295413255691528 43.38460159301758 1 50 1 C 56.61539840698242 1 63.03238677978516 2.295413255691528 69.07270812988281 4.850253105163574 C 74.90746307373047 7.318146705627441 80.14784240722656 10.85137367248535 84.64822387695312 15.35177326202393 C 89.14862823486328 19.85215950012207 92.68185424804688 25.09253311157227 95.14974975585938 30.92729377746582 C 97.70458984375 36.96761322021484 99 43.38460159301758 99 50 C 99 56.61539840698242 97.70458984375 63.03238677978516 95.14974975585938 69.07270812988281 C 92.68185424804688 74.90746307373047 89.14862823486328 80.14784240722656 84.64822387695312 84.64822387695312 C 80.14784240722656 89.14862823486328 74.90746307373047 92.68185424804688 69.07270812988281 95.14974975585938 C 63.03238677978516 97.70458984375 56.61539840698242 99 50 99 Z"/><path class="d" d="M 50 2 C 43.51915740966797 2 37.23324203491211 3.268829345703125 31.31684112548828 5.771255493164062 C 25.60127258300781 8.188743591308594 20.46775817871094 11.64998626708984 16.05886840820312 16.05886840820312 C 11.64998626708984 20.46775817871094 8.188743591308594 25.60127258300781 5.771255493164062 31.31684112548828 C 3.268829345703125 37.23324203491211 2 43.51915740966797 2 50 C 2 56.48084259033203 3.268829345703125 62.76675796508789 5.771255493164062 68.68314361572266 C 8.188743591308594 74.39871215820312 11.64998626708984 79.53224182128906 16.05886840820312 83.94113159179688 C 20.46775817871094 88.34999847412109 25.60127258300781 91.81125640869141 31.31684112548828 94.22874450683594 C 37.23324203491211 96.73117065429688 43.51915740966797 98 50 98 C 56.48084259033203 98 62.76675796508789 96.73117065429688 68.68314361572266 94.22874450683594 C 74.39871215820312 91.81125640869141 79.53224182128906 88.34999847412109 83.94113159179688 83.94113159179688 C 88.34999847412109 79.53224182128906 91.81125640869141 74.39871215820312 94.22874450683594 68.68314361572266 C 96.73117065429688 62.76675796508789 98 56.48084259033203 98 50 C 98 43.51915740966797 96.73117065429688 37.23324203491211 94.22874450683594 31.31684112548828 C 91.81125640869141 25.60127258300781 88.34999847412109 20.46775817871094 83.94113159179688 16.05886840820312 C 79.53224182128906 11.64998626708984 74.39871215820312 8.188743591308594 68.68314361572266 5.771255493164062 C 62.76675796508789 3.268829345703125 56.48084259033203 2 50 2 M 50 0 C 77.61422729492188 0 100 22.38575744628906 100 50 C 100 77.61422729492188 77.61422729492188 100 50 100 C 22.38575744628906 100 0 77.61422729492188 0 50 C 0 22.38575744628906 22.38575744628906 0 50 0 Z"/></g><g transform="translate(20 29)"><path class="b" d="M82.02,20.112,77.905,15.97,72.182,4.6a1.245,1.245,0,0,0-1.11-.687H62.278V1.253A1.249,1.249,0,0,0,61.034,0H28.244a1.253,1.253,0,0,0,0,2.505H59.8v14.21a1.249,1.249,0,0,0,1.244,1.253H76.37L79.9,21.517V33.493l-5.081-.037a7.173,7.173,0,0,0-14.1-.087l-11.68-.079a7.173,7.173,0,0,0-14.046-.08l-5.927-.043a1.253,1.253,0,0,0-.018,2.505l5.841.042a7.175,7.175,0,0,0,14.227.084l11.552.077a7.174,7.174,0,0,0,14.18.087l6.3.045h.01a1.25,1.25,0,0,0,1.244-1.253V21A1.257,1.257,0,0,0,82.02,20.112ZM62.286,6.416h8.021l4.551,9.043H62.286ZM41.995,39.488A4.713,4.713,0,0,1,37.3,34.763c0-.092,0-.184,0-.274h0a4.695,4.695,0,1,1,4.686,5Zm25.759,0a4.725,4.725,0,1,1,4.692-4.725,4.71,4.71,0,0,1-4.692,4.725Z" transform="translate(-22.39)"/><path class="b" d="M14.781,50.851H34.043a1.281,1.281,0,0,0,0-2.561H14.781a1.281,1.281,0,1,0,0,2.561Z" transform="translate(-11.195 -40.235)"/><path class="b" d="M20.507,99.571a1.281,1.281,0,0,0-1.281-1.281H1.281a1.281,1.281,0,1,0,0,2.561H19.227A1.281,1.281,0,0,0,20.507,99.571Z" transform="translate(0 -81.895)"/><path class="b" d="M32.186,149.571a1.281,1.281,0,0,0-1.281-1.281H20.571a1.281,1.281,0,1,0,0,2.561H30.905A1.281,1.281,0,0,0,32.186,149.571Z" transform="translate(-15.996 -123.556)"/></g></svg>