<svg xmlns="http://www.w3.org/2000/svg" xmlns:xlink="http://www.w3.org/1999/xlink" width="1920" height="1684" viewBox="0 0 1920 1684"><defs><style>.a,.d{fill:none;stroke:#fff;stroke-width:2px;}.b{fill:#f6f6f6;}.c{clip-path:url(#a);}.d{stroke-miterlimit:10;}</style><clipPath id="a"><rect class="a" width="1920" height="1684"/></clipPath></defs><g transform="translate(0 -1956)"><rect class="b" width="1920" height="1684" transform="translate(0 1956)"/><g transform="translate(0 1956)"><g transform="translate(0 0)"><g class="c"><g transform="translate(-395.183 -545.987)"><path class="d" d="M1333.345-52.3q-23.21,130.66-58.145,256.978c-10.241,37.351-21.814,75.174-41.759,105.014-51.027,76.285-140.305,78.643-216.5,62.072-70.271-15.283-138.909-41.513-204.467-78.138-64.878-36.24-127.632-83.021-197.144-98.379s-150.367,9.43-187.825,87.871C405.231,329.867,401.673,389.009,410.378,443S439.053,546.631,461.2,593.48c25.373,53.619,54.816,107.944,58.631,170.892,3.943,65.2-23.427,131.891-67.055,163.281-62.036,44.66-137.975,16.638-207.565,0C156.83,906.468,62.021,906.636-18.731,958.47S-161.9,1122.9-153.609,1240.573" transform="translate(154.349 422.14)"/><path class="d" d="M1314.169-57.53Q1291.61,70.2,1257.074,193.487c-10.241,36.442-21.532,73.288-40.965,102.522-49.7,74.7-136.081,78.811-210.176,64.6q-26.4-5.052-52.486-12.259a724.109,724.109,0,0,1-146.783-58.536c-63.393-33.68-124.841-77.464-192.792-91.508s-144.555,11.62-184.138,84.671c-14.734,26.4-24.762,56.824-29.341,89.016a319.707,319.707,0,0,0-1.741,66.855q1.134,15.532,3.61,30.817c6.81,41.224,21.3,81.573,37.15,119.934,1.562,3.806,3.149,7.578,4.737,11.384,24.784,58.839,50.95,119.025,52.384,184.869,1.383,63.386-24.041,127.984-66.568,158.8C369.516,988.7,295.8,963.478,228.494,949.4c-5.3-1.112-10.625-2.156-15.976-3.065-80.8-14.213-165.294-8.42-237.392,40.618-76.809,52.271-135.569,162.438-126.275,276.782" transform="translate(157.831 409.755)"/><path class="d" d="M1294.93-62.76a2459.743,2459.743,0,0,1-56.1,245.055c-10.062,35.533-21.25,71.469-40.2,100.063-48.262,73.086-131.882,78.912-203.852,67.057q-25.6-4.244-51.053-10.542a693.567,693.567,0,0,1-143.07-52.945c-61.909-30.885-122.05-71.738-188.388-84.57S473.095,215.2,431.9,282.8c-16.642,27.281-30.212,54.191-37.457,85.21a298.344,298.344,0,0,0-7.681,66.686,319.347,319.347,0,0,0,1.485,32.164c4.3,43.582,18.69,87.568,34.231,129.3,1.562,4.143,3.1,8.252,4.66,12.361,24.195,63.992,47.161,129.9,46.086,198.712-.9,61.466-24.656,123.875-66,154.389-58.887,43.38-130.294,20.949-195.352,9.531-5.121-.909-10.241-1.751-15.362-2.492-78.038-11.114-158.893-2.694-227.33,46.782C-103.821,1068.18-158.842,1175.888-148.6,1286.9" transform="translate(161.401 397.371)"/><path class="d" d="M1275.842-68a2318.28,2318.28,0,0,1-55.072,239.128c-9.96,34.623-20.995,69.583-39.429,97.672-47.187,71.4-127.683,78.979-197.554,69.448q-24.886-3.368-49.593-8.79a664.689,664.689,0,0,1-139.332-47.186c-60.424-28.19-119.26-66.08-184.035-77.666s-134.212,15.863-176.662,78.239c-18.486,27.146-35.384,51.261-45.548,81.337a274.372,274.372,0,0,0-13.749,66.282,283.44,283.44,0,0,0-.742,33.68c1.792,45.939,16.079,93.731,31.338,138.694,1.511,4.446,3.021,8.892,4.557,13.472,23.606,69.347,43.525,140.546,39.915,212.824-2.919,59.411-25.3,119.867-65.493,149.91-57.223,42.774-126.454,23.138-189.258,14.314-4.967-.674-9.934-1.314-14.9-1.852-75.248-8.049-152.492,3-217.294,52.911-69.128,53.214-120.335,158.3-109.069,266.072" transform="translate(164.82 384.962)"/><path class="d" d="M1256.728-73.21a2175.422,2175.422,0,0,1-54.074,233.1c-9.806,33.68-20.739,67.629-38.661,95.045-45.753,69.987-123.458,79.283-191.2,72.109Q948.62,324.517,924.655,320a639.67,639.67,0,0,1-135.7-41.763c-58.887-25.529-116.469-60.624-179.632-70.728S479.7,225.127,436.454,282.484c-20.482,26.944-40.53,48.331-53.767,77.464a252.017,252.017,0,0,0-22.633,101.208c-.743,48.3,13.467,99.828,28.419,148.192l4.455,14.314c23.12,74.466,39.915,150.886,33.694,226.666-4.685,57.256-25.91,115.893-64.981,145.5-55.61,42.134-122.588,25.294-183.139,19.1-4.788-.505-9.576-.91-14.363-1.246-72.431-5.052-146.04,8.69-207.206,58.94-65.211,53.652-112.654,156.477-100.441,260.818" transform="translate(168.265 372.625)"/><path class="d" d="M1237.568-78.44A2038.257,2038.257,0,0,1,1184.492,148.7c-9.678,32.8-20.482,65.844-37.841,92.62-44.473,68.337-119.285,79.384-184.932,74.567q-23.4-1.718-46.674-5.321a610.736,610.736,0,0,1-131.907-36.172C725.684,251.556,669.459,219.56,607.858,210.4S482.4,229.664,438.673,282.239c-22.48,26.944-45.676,45.4-61.755,73.658a236.251,236.251,0,0,0-30.724,102.32c-3.252,50.52,10.856,105.89,25.6,157.454,1.434,5.119,2.893,10.1,4.327,15.324,22.48,79.788,36.356,161.327,27.447,240.711-6.2,55.2-26.5,111.919-64.443,141.085-54.253,41.595-118.952,27.55-177.148,23.947-4.583-.27-9.192-.472-13.8-.606-69.692-1.886-139.691,14.381-197.144,65.171-61.32,54.124-105.2,154.49-91.813,255.5" transform="translate(171.756 360.24)"/><path class="d" d="M1218.789-83.67a1906.582,1906.582,0,0,1-52.1,221.176c-9.576,31.929-20.176,63.992-37.074,90.161-43.167,66.821-115.086,79.586-178.608,77.127q-22.659-.876-45.241-3.57a585.5,585.5,0,0,1-128.195-30.581c-55.969-20.208-110.887-49.173-170.875-56.987S485.13,234.134,441.221,282.33c-24.656,26.944-50.848,42.336-69.9,69.65a222.011,222.011,0,0,0-38.994,103.5c-5.761,53.012,8.27,111.986,22.608,167.019q2.151,8.151,4.25,16.3c21.891,85.008,33,171.566,21.2,254.688-7.527,53.046-27.114,107.776-64.008,136.606-52.384,40.888-114.907,29.6-170.952,28.662H132.165c-66.927,1.212-133.29,20.208-187.159,71.3-57.453,54.6-97.625,152.5-83.236,250.175" transform="translate(174.917 347.856)"/><path class="d" d="M1199.815-88.9a1777.336,1777.336,0,0,1-51.027,215.215c-9.422,31.019-19.894,62.106-36.305,87.568C1070.648,279.121,1001.621,293.6,940.2,293.5q-21.891,0-43.756-1.852a557.33,557.33,0,0,1-124.482-24.99c-54.484-17.446-108.1-43.515-166.421-50.082S480.956,228.7,443.7,282.018c-30.084,20.174-55.994,39.641-77.936,65.979-15.779,18.428-28.578,40.843-37.637,65.912a211.026,211.026,0,0,0-9.6,38.766c-8.27,55.336,5.658,117.88,19.714,176.18q2.1,8.656,4.148,17.311c21.3,90.229,29.8,181.872,14.952,268.632-8.705,50.924-27.651,104.037-63.5,132.194-50.8,40.248-111.066,31.76-164.859,33.444-4.25,0-8.475.337-12.8.606-64.136,4.278-126.915,25.765-177.123,77.464-53.536,55.067-90.021,150.516-74.608,244.853" transform="translate(178.144 335.471)"/><path class="d" d="M1180.821-94.13a1660.512,1660.512,0,0,1-50.028,209.254c-9.294,30.076-19.612,60.254-35.512,85.21-40.53,63.554-106.663,79.822-165.96,82.044q-21.148.808-42.322,0a536.774,536.774,0,0,1-120.77-19.366c-53-14.92-105.306-38.025-162.119-43.481s-120.8,12.63-158,62.342c-32.516,19.063-61.192,36.644-86.052,62.274-17.844,17.7-32.671,40.115-43.525,65.811A203.761,203.761,0,0,0,304.707,450C293.928,507.7,307.78,574.114,321.528,635.58q2.048,9.093,4.045,18.288c20.713,95.449,26.755,191.976,8.705,282.575-9.78,48.634-28.394,99.794-62.958,127.613-49.184,39.608-107.2,33.916-158.74,38.193-4.071.337-8.116.775-12.187,1.246-61.448,7.376-120.514,31.457-167.086,83.594-49.645,55.471-82.417,148.495-66,239.5" transform="translate(181.469 323.086)"/><path class="d" d="M1162-99.36a1547.69,1547.69,0,0,1-49,203.292c-9.166,29.167-19.381,58.367-34.743,82.718-39.224,62.106-102.464,79.956-159.661,84.537q-20.482,1.684-40.965,1.617a513.641,513.641,0,0,1-117.058-13.775c-51.514-12.091-102.413-32.265-157.767-36.307s-116.955,12.9-154.131,59.007c-34.923,17.985-66.338,33.68-94.143,58.266-19.933,16.926-36.85,39.318-49.593,65.642A197.96,197.96,0,0,0,290.907,447c-13.288,60.051.461,130.173,13.928,194.94q2,9.6,3.943,19.265c20.124,100.7,23.913,202.08,2.56,296.586-10.677,46.681-29.085,95.92-62.369,123.3-47.673,39-103.437,36.1-152.723,43.009-3.892.539-7.681,1.145-11.649,1.852-58.58,10.441-114.113,37.048-157.05,89.724-45.753,55.942-74.812,146.508-57.377,234.177" transform="translate(184.618 310.702)"/><path class="d" d="M1143.239-104.59a1438.751,1438.751,0,0,1-48.006,197.331c-9.038,28.291-19.1,56.549-33.95,80.259-37.918,60.624-98.265,80.226-153.363,87.164q-19.612,2.492-39.378,3.368A494.741,494.741,0,0,1,755.2,255.314c-50-9.531-99.673-26.742-153.44-29.537s-113.422,13.472-150.547,55.774c-37.329,16.84-71.484,30.817-102.259,54.427A197.814,197.814,0,0,0,293.5,401.485a195.421,195.421,0,0,0-16.258,42.673c-15.8,62.409-2.151,136.269,11.009,204.336,1.306,6.736,2.56,13.472,3.866,20.208,19.561,105.923,21.225,212.42-3.764,310.529-11.368,44.66-29.674,92.014-61.857,118.924-46.086,38.328-99.494,38.227-146.527,47.792-3.712.741-7.425,1.549-11.112,2.459-55.815,13.472-107.712,42.841-146.988,95.853-41.887,56.414-67.234,144.521-48.646,229.024" transform="translate(187.713 298.317)"/><path class="d" d="M1124.741-109.82a1337.868,1337.868,0,0,1-47.033,191.37c-8.91,27.382-18.818,54.663-33.156,77.8-36.613,58.94-94.066,80.36-147.039,89.656q-18.9,3.368-37.944,5.086a479.253,479.253,0,0,1-109.581-2.728c-48.646-6.736-96.934-20.983-148.985-22.532S491.4,242.54,454.169,281.407c-39.736,15.8-76.656,27.887-110.35,50.52a197.546,197.546,0,0,0-61.448,65.339,194.255,194.255,0,0,0-18.485,43.986c-18.281,64.834-4.788,142.4,8.065,213.767q1.92,10.609,3.738,21.252c19,111.144,18.793,222.793-9.985,324.506-12.059,42.572-30.186,87.972-61.448,114.512-44.37,37.722-95.679,40.416-140.459,52.574-3.508.977-7.041,1.987-10.548,3.1C.225,1187.566-48.063,1219.495-83.7,1272.945c-38,56.885-59.63,142.534-40.171,223.534" transform="translate(190.542 285.933)"/><path class="d" d="M1106.2-115a1235.35,1235.35,0,0,1-46.086,185.24c-8.756,26.472-18.537,52.777-32.388,75.308C992.442,202.8,937.882,226.077,886.906,237.7q-18.127,4.21-36.459,6.736a462.672,462.672,0,0,1-105.92,3c-47.033-4.075-94.143-15.324-144.607-15.628S494.1,245.847,457.029,281.144c-42.117,14.752-81.8,24.856-118.44,46.714-25.065,14.853-49.337,36.139-67.464,65.2a193.648,193.648,0,0,0-20.687,45.3c-20.815,67.158-7.348,148.428,5.121,223.1q1.869,11.047,3.636,22.229c18.409,116.364,16.565,233.3-16.232,338.45-12.674,40.584-30.724,84-60.807,110-42.757,37.048-91.813,42.571-134.34,57.256-3.354,1.179-6.682,2.391-10.011,3.7-50.259,19.669-94.911,54.258-126.915,108.113-34.1,57.256-52.026,140.546-31.543,218.212" transform="translate(193.392 273.666)"/><path class="d" d="M1087.856-120.28A1147.039,1147.039,0,0,1,1042.9,59.167c-8.654,25.529-18.281,50.924-31.62,72.816-33.975,55.774-85.643,80.832-134.391,94.674q-17.41,4.985-35.025,8.555A448.309,448.309,0,0,1,739.678,243.8c-45.574-1.381-91.352-9.7-140.228-8.723s-98.726,23.576-139.358,46.175C418,304.829,373.041,303.279,333.536,324.127c-27.088,14.213-53.511,35.364-73.43,65.036a193.662,193.662,0,0,0-23.043,46.613c-23.324,69.516-9.934,154.49,2.33,232.392q1.792,11.586,3.533,23.239c17.922,121.618,14.568,243.978-22.48,352.394-13.109,38.631-31.313,79.956-60.167,105.519-41.17,36.442-87.972,44.862-128.246,62.14-3.175,1.347-6.324,2.8-9.473,4.311-47.468,22.768-88.51,59.95-116.878,114.243-30.212,57.795-44.447,138.559-23.043,212.891" transform="translate(196.064 261.163)"/><path class="d" d="M1069.712-125.5a1061.969,1061.969,0,0,1-43.961,173.452c-8.526,24.654-17.922,49.072-30.724,70.358-32.67,54.225-81.444,80.832-128.016,97.167q-16.616,5.86-33.54,10.306A436.993,436.993,0,0,1,734.8,239.928c-44.063,1.314-88.561-4.042-135.85-1.819s-95.679,23.071-135.7,42.942c-44.806,22.3-92.171,19.13-134.647,39.069-29.034,13.438-57.71,34.488-79.344,64.632a194.9,194.9,0,0,0-25.117,47.927c-25.859,71.974-12.571,160.687-.589,241.957q1.767,12.024,3.431,24.216c17.231,126.839,12.8,254.856-28.727,366.371-13.7,36.812-32.03,76.016-59.758,101.04-39.557,35.9-84.106,47.017-122.127,66.989-3,1.583-5.966,3.368-8.935,4.951-44.7,25.833-82.109,65.642-106.816,120.372-26.346,58.266-36.869,136.572-14.338,207.57" transform="translate(198.538 248.802)"/><path class="d" d="M1051.839-130.73a977.475,977.475,0,0,1-42.962,167.49c-8.372,23.576-17.717,47.152-30.033,67.9-31.364,52.608-77.245,80.832-121.768,99.659q-15.9,6.736-32.106,12.024a430.161,430.161,0,0,1-94.732,19.8c-42.578,3.974-85.745,1.583-131.447,5.086S506.16,263.8,466.884,280.94c-47.622,20.578-97.343,16.032-142.814,35.027-31.108,12.967-61.832,34.017-85.361,64.733a196.008,196.008,0,0,0-27.344,49.24c-28.368,74.1-15.157,166.648-3.508,251.253q1.741,12.529,3.354,25.159C227.879,838.344,222.6,972.39,176.238,1086.7c-14.159,34.994-32.618,72.042-59.22,96.7-37.944,35.2-80.266,49-116.033,71.7-2.816,1.785-5.633,3.637-8.4,5.557-41.938,28.931-75.734,71.334-96.78,126.5-22.454,58.738-29.264,134.72-5.709,202.248" transform="translate(200.741 236.418)"/><path class="d" d="M1034.288-136A901.286,901.286,0,0,1,992.35,25.664,394.112,394.112,0,0,1,963.213,90.9c-30.058,51.059-73.046,81.135-115.47,102.185q-15.131,7.544-30.724,13.775a428.765,428.765,0,0,1-91.045,25.361c-40.965,6.736-82.98,7.241-127.094,11.99s-89.611,21.993-128.17,36.509c-50.285,18.894-102.515,13.3-150.9,31.221-33.1,12.462-65.979,33.242-91.4,64.7a198.218,198.218,0,0,0-29.572,50.52c-30.8,76.757-17.692,172.745-6.273,260.649q1.69,13.034,3.252,26.169c16.079,137.313,10.241,277.456-41.2,394.291-14.619,33.276-33.284,68.067-58.734,92.283-36.459,34.556-76.477,51.059-109.966,76.454-2.56,2.021-5.274,4.075-7.86,6.163-39.147,32.03-69.333,77.06-86.743,132.666-18.562,59.209-21.66,132.6,2.893,196.927" transform="translate(202.624 223.938)"/><path class="d" d="M1017.109-141.19a825.368,825.368,0,0,1-40.965,155.4,405.3,405.3,0,0,1-28.5,62.914c-28.676,49.476-68.77,81.3-109.069,104.677-9.6,5.591-19.356,10.778-29.188,15.526a427.268,427.268,0,0,1-87.358,30.952c-39.608,9.363-80.163,12.9-122.69,18.894s-86.36,21.286-124.457,33.276c-53.127,16.84-107.533,10.373-158.944,27.483-35.128,11.721-70.153,32.4-97.292,64.463a200.938,200.938,0,0,0-31.8,51.867c-33.284,78.946-20.483,178.807-9.294,270.012q1.664,13.472,3.124,27.146c15.516,142.534,9.217,289.244-47.417,408.269-15.055,31.592-33.873,63.992-58.2,87.8-34.743,33.949-72.585,53.383-103.821,81.27-2.56,2.189-4.916,4.479-7.322,6.736-36.112,34.4-62.968,83.021-76.681,138.829-14.7,59.614-14.082,130.577,11.5,191.572" transform="translate(204.109 211.648)"/><path class="d" d="M1000.392-146.42a752.815,752.815,0,0,1-39.915,149.4,423.753,423.753,0,0,1-27.7,60.624c-27.421,47.927-64.622,81.472-102.822,107.2-9.089,6.163-18.357,11.889-27.728,17.244A431.691,431.691,0,0,1,718.6,224.6c-38.123,12.057-77.373,18.524-118.338,25.8s-83.108,20.477-120.693,30.076c-55.892,14.28-112.807,7.477-167.061,23.576-37.15,11.013-74.326,31.558-103.257,64.228a203.909,203.909,0,0,0-34.027,53.147c-35.844,81.3-23.043,184.87-12.187,279.375q1.575,13.994,3.021,28.156c14.927,147.754,8.551,301.436-53.767,422.212-15.362,30.009-34.487,60.051-57.684,83.392-33.028,33.309-68.616,55.5-97.574,86.052q-3.405,3.57-6.759,7.376c-33.285,37.786-56.594,88.5-66.568,144.824-10.8,60.085-6.478,128.59,20.1,186.25" transform="translate(205.157 199.264)"/><path class="d" d="M984.47-151.65A688.473,688.473,0,0,1,945.578-8.207a460.552,460.552,0,0,1-26.935,58c-26.115,46.31-60.423,81.607-96.5,109.7-8.6,6.736-17.385,13.034-26.269,18.962a439.086,439.086,0,0,1-79.933,42.167c-36.612,14.718-74.582,24.149-113.934,32.67s-79.779,19.6-116.981,26.944c-58.606,11.519-117.954,4.479-175.177,19.736-39.147,10.441-78.474,30.885-109.223,63.992A206.89,206.89,0,0,0,164.4,418.586c-38.4,83.661-25.6,190.966-15.106,288.772,1.05,9.633,2.023,19.366,2.944,29.133,14.338,152.975,8.167,314.032-59.911,436.156a381.221,381.221,0,0,1-57.146,78.979C3.664,1284.3-29.7,1309.32-56.452,1342.562c-2.1,2.627-4.173,5.288-6.222,8.016-30.555,41.208-50.376,94.111-56.609,151.088-6.913,60.624,1.127,126.6,28.727,180.929" transform="translate(205.409 186.879)"/><path class="d" d="M969.245-156.88A626.775,626.775,0,0,1,931.352-19.4a499.714,499.714,0,0,1-26.141,55.5c-24.809,44.761-56.327,81.741-90.2,112.188-8.091,7.275-16.386,14.179-24.809,20.713a449.49,449.49,0,0,1-76.195,47.758A561.013,561.013,0,0,1,604.426,256.34c-37.56,9.7-76.3,18.659-113.243,23.576-61.243,8.319-123.1,1.617-183.267,15.964-41.17,9.8-82.621,30.11-115.214,63.992a210.944,210.944,0,0,0-38.328,55.909c-40.965,85.985-28.163,196.994-17.922,298.1,1,10.1,1.971,20.208,2.842,30.312,13.749,158.3,8.039,327.1-66.159,450.133a450,450,0,0,1-56.634,74.5c-29.9,32.03-61.012,59.849-85.515,95.617-1.92,2.829-3.815,5.692-5.684,8.622-27.781,44.544-44.145,99.5-46.751,157.016-3.021,61.028,8.731,124.616,37.355,175.608" transform="translate(204.965 174.495)"/><path class="d" d="M954.873-162.11C934.749-30.96,869.487,84.326,785.534,159.567s-185.776,112.491-287.319,120.3c-63.8,4.884-128.272-1.314-191.358,12.091s-127.12,50.52-161.838,120.978c-43.525,88.343-30.724,203.09-20.892,307.5,16.258,171.768,16.028,363.744-69.666,495.1C11.781,1280.942-48.591,1324.692-86.2,1395.252c-52.128,97.841-48.083,241.149,9.422,333.634" transform="translate(203.642 162.11)"/></g><g transform="translate(230.274 991.403)"><path class="d" d="M89.94,827.511A2231.4,2231.4,0,0,1,218.98,620.042c20.482-29.2,42.168-58.266,69.333-75.679,69.461-44.424,152.518-1.28,217.934,52.709,60.322,49.794,115.93,108.845,165.652,175.911,49.209,66.417,93.375,141.456,153,190.9s141.457,67.8,199.064,14.348c34.283-31.794,54.919-84.57,62.728-138.762s3.968-110.167-2.714-164.628c-7.681-62.375-18.87-127.411-3.917-187.429,15.516-62.14,60.347-109.729,109.786-116.533,70.332-9.7,132.163,54.73,191.46,105.452,75.3,64.463,162.811,112.457,252.5,105.654s180.348-78.946,207.257-191.706" transform="translate(-89.94 -115.482)"/><path class="d" d="M93.57,848A2051.137,2051.137,0,0,1,220.818,644.608c20.278-28.493,41.707-56.818,68.411-73.927,53.639-34.354,115.393-16.84,170.747,16.84A443.536,443.536,0,0,1,503.5,618.068c59.626,47.078,114.779,103.326,164.3,167.558,49.03,63.554,92.965,136.1,151.955,183.623,33.079,26.708,72.278,45,110.887,48.3,33.617,2.829,66.978-5.961,94.86-31.053a146.509,146.509,0,0,0,14.159-14.684c27.37-32.7,43.986-79.721,51.206-127.984,2.294-15.3,3.841-30.782,4.634-46.344,2.048-40.854-.359-82.179-3.917-122.595-5.607-63.992-13.083-129.7,3.789-189.585s59.707-105.755,107.969-112.693c68.693-9.936,129.27,50.789,187.236,97.941,4.583,3.739,9.192,7.376,13.851,10.98,70.358,54.124,149.984,91.71,230.889,83.089,86.257-9.195,172.744-80.832,197.733-191.2" transform="translate(-84.276 -111.622)"/><path class="d" d="M97.2,880.086A1899.54,1899.54,0,0,1,222.656,680.8c20.073-27.819,41.272-55.37,67.49-72.21,52.691-33.68,113.191-18.052,167.675,13.472a435.8,435.8,0,0,1,42.962,28.628c58.915,44.373,113.6,97.83,162.887,159.239,48.8,60.624,92.607,130.779,151.059,176.652,34.334,26.944,74.556,46.074,114.344,50.183,34.564,3.368,69.129-4.748,98.086-30.008a140.811,140.811,0,0,0,14.7-14.92c28.522-33.309,45.548-81.741,53.382-131.352,2.453-15.868,4.163-31.918,5.121-48.061,2.56-41.965,1.177-84.469-1.127-125.862-3.533-65.811-7.3-131.924,11.5-191.774,17.922-56.818,59.118-101.747,106.2-108.854,67-10.1,126.351,46.815,183.011,90.431q6.682,5.052,13.519,10.1c68.693,49.88,145.759,83.189,223.439,72.311,82.8-11.552,165.14-82.987,188.209-190.629" transform="translate(-78.612 -119.625)"/><path class="d" d="M100.82,913.408A1760.612,1760.612,0,0,1,224.534,718.064c19.817-27.112,40.786-53.888,66.568-70.458,51.693-33.242,110.964-19.2,164.577,10.1a429.923,429.923,0,0,1,42.45,27.079c58.213,41.637,112.433,92.281,161.5,150.853,48.646,58,92.3,125.391,149.958,169.579,35.614,27.281,76.81,47.152,117.775,52.069,35.537,4.21,71.356-3.57,101.312-29a141.22,141.22,0,0,0,15.362-15.122c29.648-33.949,47.084-83.829,55.482-134.99q3.944-24.467,5.735-49.408c3.175-43.11,2.688-86.793,1.639-129.163-1.485-67.528-1.613-134.046,19.2-193.929,18.818-54.191,58.529-97.672,104.435-105.048,65.339-10.407,123.433,42.875,178.761,82.92q6.554,4.749,13.211,9.3c67.055,45.636,141.534,74.7,215.963,61.567,79.37-13.977,157.562-85.042,178.735-190.124" transform="translate(-72.964 -128.766)"/><path class="d" d="M104.45,946.859A1625.952,1625.952,0,0,1,226.372,755.793c19.612-26.438,40.351-52.473,65.647-68.741,50.745-32.669,108.788-20.208,161.5,6.9a412.9,412.9,0,0,1,41.81,24.89c57.5,38.916,111.25,86.757,160.1,142.5,48.39,55.168,91.992,119.934,148.934,162.438,36.894,27.55,79.139,48.23,121.256,53.888,36.459,4.917,73.532-2.324,104.538-27.954a145.249,145.249,0,0,0,15.848-15.324c30.724-34.589,48.646-85.918,57.581-138.594q4.2-25.118,6.324-50.722c3.738-44.222,4.2-89.117,4.429-132.5.563-69.212,3.994-136.1,26.883-196.085,19.689-51.53,57.914-93.765,102.643-101.208,63.675-10.609,120.514,38.934,174.562,75.41,4.25,2.9,8.552,5.692,12.8,8.454,65.39,41.393,137.31,66.181,208.512,50.789,75.888-16.368,149.983-87.029,169.211-189.551" transform="translate(-67.3 -138.001)"/><path class="d" d="M108.08,980.24A1505.8,1505.8,0,0,1,228.21,793.248c19.382-25.732,39.864-50.992,64.7-66.989,49.8-32.1,106.586-21.488,158.432,3.536a394.512,394.512,0,0,1,41.221,23.037C549.373,789,602.669,834.028,651.3,886.946c48.185,52.406,91.736,114.512,147.935,155.366,38.174,27.786,81.392,49.274,124.713,55.841,37.406,5.591,75.708-1.145,107.738-26.944a149,149,0,0,0,16.437-15.526c31.927-35.2,50.182-87.972,59.681-142.164q4.473-25.8,6.887-52.1c4.327-45.333,5.658-91.408,7.22-135.764,2.56-70.964,9.525-138.088,34.615-198.241,20.483-48.937,57.3-89.791,100.851-97.4,61.985-10.845,117.6,34.994,170.312,67.9,4.173,2.593,8.347,5.153,12.571,7.612,63.726,37.048,133.136,57.694,201.036,40.046,72.457-18.793,142.4-89.084,159.712-189.046" transform="translate(-61.636 -147.165)"/><path class="d" d="M111.71,1013.667A1393.121,1393.121,0,0,1,230.074,830.751c19.177-25.024,39.429-49.543,63.777-65.272,48.825-31.524,104.384-22.6,155.36.236a411.939,411.939,0,0,1,40.632,21.117c56.106,33.457,108.94,75.694,157.357,125.795,47.955,49.577,91.454,108.888,146.911,148.192,39.48,28.021,83.671,50.52,128.169,57.728,38.4,6.3,77.885,0,110.939-25.9a145.257,145.257,0,0,0,17-15.729c33.079-35.836,51.744-90.06,61.806-145.733,3.2-17.749,5.607-35.667,7.476-53.45,4.89-46.478,7.143-93.732,10.011-139.1,4.557-72.648,14.952-140.142,42.3-200.4,21.1-46.277,56.685-85.75,99.059-93.428,60.346-11.081,114.7,31.053,166.113,60.422,4.045,2.29,8.142,4.547,12.238,6.736,62.088,32.872,128.861,49.173,193.585,29.268,69-21.151,134.8-90.936,150.214-188.608" transform="translate(-55.972 -156.377)"/><path class="d" d="M115.34,1047.037A1290.822,1290.822,0,0,1,231.911,868.263c18.946-24.35,38.968-48.095,62.856-63.554,47.878-30.952,102.208-23.778,152.288-3.132a390.107,390.107,0,0,1,40.069,19.265C542.509,851.58,594.87,891,643.072,938.25c47.75,46.782,91.224,103.33,145.938,141.153,40.811,28.224,85.975,51.4,131.651,59.614,39.275,6.972,80.061,1.246,114.164-24.89a145.436,145.436,0,0,0,17.564-15.964c34.231-36.442,53.28-92.081,64.008-149.3,3.354-18.187,5.94-36.576,8.014-54.8,5.479-47.59,8.679-96.022,12.8-142.365,6.606-74.4,20.3-142.2,50-202.585,21.558-43.784,56.1-81.775,97.292-89.723,58.657-11.316,111.758,26.944,161.889,52.911q5.914,3.031,11.906,5.894c60.423,28.628,124.636,40.685,186.135,18.524,65.544-23.576,127.2-93.125,140.817-187.968" transform="translate(-50.308 -165.564)"/><path class="d" d="M119,1080.441a1197.25,1197.25,0,0,1,114.83-174.7c18.716-23.576,38.4-46.646,61.908-61.8,46.931-30.312,99.852-24.789,149.19-6.467a387.4,387.4,0,0,1,39.506,17.379C539.121,882.841,591.023,919.461,639,963.908c47.545,43.986,91.019,97.672,144.888,134.013,42.117,28.426,88.254,52.474,135.082,61.5,40.248,7.679,82.263,2.458,117.391-23.879a141.7,141.7,0,0,0,18.153-16.132c35.358-37.048,54.842-94.3,66.031-152.874,3.533-18.659,6.3-37.52,8.6-56.144,6.042-48.735,10.241-98.312,15.567-145.7,8.68-76.083,25.6-144.218,57.71-204.707,21.968-41.325,55.482-77.8,95.525-85.918,56.993-11.552,108.839,23.172,157.639,45.4,3.84,1.751,7.681,3.368,11.6,5.052,58.887,24.351,120.335,32.164,178.659,7.746,62.113-25.967,119.618-95.112,131.191-187.4" transform="translate(-44.597 -174.753)"/><path class="d" d="M122.59,1113.8a1111.974,1111.974,0,0,1,113.038-170.59c18.588-22.935,38.046-45.2,60.987-59.983,45.958-29.807,97.778-25.934,146.117-9.835a381.035,381.035,0,0,1,38.942,15.526c53.973,25.258,105.405,59.075,153.158,100.7,47.34,41.157,90.84,92.014,143.864,126.906,43.525,28.561,90.558,53.552,138.564,63.386,41.2,8.353,84.49,3.671,120.616-22.869a146.945,146.945,0,0,0,18.716-16.335c36.51-37.721,56.327-96.257,68.13-156.443,3.713-19.13,6.657-38.429,9.192-57.492,6.606-49.88,11.7-100.636,18.358-149,10.7-77.834,30.724-146.306,65.416-206.9,22.275-38.9,54.868-73.793,93.707-82.078,55.328-11.788,105.946,19.231,153.44,37.89,3.738,1.448,7.5,2.863,11.266,4.21,57.12,20.208,116.187,23.576,171.208-3,58.657-28.359,112.039-97.167,121.692-186.89" transform="translate(-38.996 -183.893)"/><path class="d" d="M126.22,1147.437c32.568-60.464,69.862-116.273,111.271-166.513,18.255-22.263,37.56-43.785,60.039-58.334,45.01-29.268,95.577-26.944,143.045-13.169,13.083,3.839,25.91,8.454,38.4,13.472,53.272,22.532,104.25,53.546,151.8,92.351,47.11,38.362,90.635,86.355,142.84,119.8,44.806,28.729,92.811,54.629,142.021,65.272,42.143,9.06,86.615,4.884,123.817-21.825a147.053,147.053,0,0,0,19.279-16.537c37.662-38.328,57.94-98.312,70.255-160.047,3.892-19.568,7.015-39.338,9.755-58.839,7.194-50.958,13.237-102.926,21.148-152.3,12.8-79.552,35.844-148.462,73.123-209.018,22.531-36.543,54.279-69.819,91.941-78.272,53.766-12.024,103,15.291,149.19,30.312,3.661,1.179,7.3,2.29,10.984,3.368,55.431,15.863,111.937,15.156,163.732-13.775,55.175-30.75,104.435-99.154,112.167-186.352" transform="translate(-33.332 -193.317)"/><path class="d" d="M129.85,1180.666c31.851-59.247,68.565-113.7,109.479-162.371,17.922-21.589,37.125-42.3,59.118-56.616,44.063-28.7,93.4-28.224,139.972-16.5,12.8,3.368,25.6,7.208,37.765,11.72,52.562,19.805,103.078,48.015,150.419,84,46.9,35.566,90.456,80.6,141.841,112.693,46.086,28.83,95.09,55.673,145.477,67.158,43.065,9.734,88.792,6.062,127.017-20.814a148.591,148.591,0,0,0,19.868-16.84c38.789-38.9,59.476-100.3,72.354-163.516,4.071-20.208,7.374-40.416,10.241-60.186,7.681-52.1,14.747-105.25,23.939-155.6,14.824-81.27,40.683-150.718,80.8-211.207,22.71-34.219,53.767-65.811,90.149-74.4,52-12.26,100.108,11.316,144.99,22.835,3.533.909,7.092,1.751,10.651,2.526,53.767,11.62,107.713,6.736,156.179-24.519,51.744-33.175,96.857-101.208,102.669-185.812" transform="translate(-27.668 -202.363)"/><path class="d" d="M133.48,1213.955c31.126-58.062,67.263-111.181,107.687-158.3,17.922-20.882,36.664-40.82,58.221-54.9,43.064-28.089,91.173-29.335,136.874-19.838a371.709,371.709,0,0,1,37.2,9.868c51.846,17.044,101.894,42.439,149.01,75.611,46.7,32.771,90.3,74.871,140.817,105.587,47.545,28.9,97.292,56.751,148.933,69.044,44.037,10.441,90.994,7.274,130.269-19.77a146.669,146.669,0,0,0,20.483-16.84c39.941-39.574,61.038-102.421,74.454-167.187,4.225-20.478,7.681-41.157,10.933-61.533,8.321-53.214,16.335-107.506,26.7-158.868,17-82.954,45.548-153.109,88.51-213.4,22.838-32,53.075-61.836,88.382-70.56,50.336-12.5,97.292,7.342,140.818,15.324,3.456.606,6.887,1.179,10.241,1.684,52.128,7.342,103.462-1.852,148.806-35.3,48.287-35.566,89.252-103.2,93.17-185.24" transform="translate(-22.004 -211.504)"/><path class="d" d="M137.11,1247.5c30.4-56.881,65.97-108.66,105.92-154.187,17.615-20.208,36.2-39.405,57.274-53.181,42.117-27.55,89-30.312,133.8-23.172a357.348,357.348,0,0,1,36.612,7.982c51.139,14.331,100.727,36.957,147.628,67.36,46.5,29.942,90.174,69.044,139.819,98.48,48.9,28.931,99.673,57.795,152.39,70.93,44.985,11.115,93.17,8.454,133.469-18.76a148.533,148.533,0,0,0,21.02-17.177c40.965-40.214,62.574-104.408,76.553-170.758,4.4-20.949,8.091-42.1,11.5-62.88,8.91-54.36,17.922-109.83,29.495-162.2,19.074-84.671,50.285-155.635,96.217-215.552,23.043-29.84,52.461-57.862,86.615-66.754,48.646-12.731,94.271,3.368,136.516,7.814,3.328.337,6.657.606,10.011.842,50.49,3.1,99.238-10.34,141.33-46.04,44.857-38.092,81.674-105.452,83.748-184.8" transform="translate(-16.34 -220.763)"/><path class="d" d="M140.73,1280.877c29.695-55.691,64.7-106.14,104.154-150.111,17.384-19.467,35.844-37.924,56.327-51.429,41.17-26.944,86.795-31.625,130.73-26.54a329.12,329.12,0,0,1,36.049,6.1c50.418,11.608,99.544,31.417,146.245,58.974,46.291,27.18,90.021,63.251,138.82,91.374,50.285,28.965,101.952,58.872,155.846,72.816,45.906,11.822,95.346,9.666,136.7-17.716a150.387,150.387,0,0,0,21.558-17.379c42.22-40.854,64.136-106.6,78.678-174.327,4.583-21.421,8.449-43.043,12.085-64.262,9.473-55.471,19.382-112.12,32.286-165.47,21.123-86.389,54.919-158.3,103.923-217.707,22.915-27.752,51.846-53.888,84.8-62.914,47.007-12.967,91.352-.539,132.317.3h9.678c48.825-1.145,95.013-18.861,133.879-56.818,41.4-40.416,74.1-107.237,74.249-184.2" transform="translate(-10.692 -229.927)"/><path class="d" d="M144.36,1314.436c28.985-54.5,63.434-103.6,102.413-145.969a302.893,302.893,0,0,1,55.405-49.711c40.2-26.405,84.49-32.8,127.657-29.874,11.957.808,23.811,2.256,35.46,4.21,49.7,8.83,98.365,25.8,144.863,50.52,46.086,24.351,89.867,57.257,137.77,84.2,51.693,28.965,104.23,59.984,159.328,74.736,46.854,12.461,97.522,10.878,139.9-16.84a151.811,151.811,0,0,0,22.147-17.581c43.371-41.493,65.672-108.651,80.778-177.931,4.762-21.858,8.807-43.784,12.648-65.575,10.036-56.616,20.892-114.512,35.076-168.8,23.171-88.073,59.451-161.26,111.63-219.829,23.043-25.765,51.206-49.88,83.031-59.108,45.318-13.2,88.433-4.479,128.016-7.208,3.124-.2,6.247-.505,9.371-.842,47.161-5.389,90.789-27.348,126.428-67.562,37.944-42.773,66.568-109.292,64.648-183.657" transform="translate(-5.028 -239.304)"/><path class="d" d="M148,1347.722c28.266-53.314,62.134-101.087,100.595-141.894a311.214,311.214,0,0,1,54.483-47.96c39.25-25.832,82.416-33.949,124.585-33.242,11.726.236,23.4,1.044,34.871,2.358a470.25,470.25,0,0,1,143.378,42.168c45.855,21.555,89.739,51.563,136.772,77.16,53.1,28.9,106.509,61.028,162.759,76.588,47.827,13.169,99.724,12.091,143.122-15.661a154.1,154.1,0,0,0,22.736-17.783c44.5-42,67.311-110.74,82.9-181.5,4.941-22.33,9.192-44.862,13.237-66.922,10.6-57.727,22.4-116.735,37.867-172.1,25.219-89.825,63.88-164.426,119.311-222.018,23.043-23.812,50.643-45.872,81.239-55.269,43.679-13.472,85.54-8.42,123.868-14.718,3.021-.505,6.042-1.078,9.038-1.684,45.523-9.666,86.564-35.869,118.952-78.34,34.513-45.131,58.887-111.144,55.149-183.118" transform="translate(0.652 -248.373)"/><path class="d" d="M151.62,1381.45c27.528-52.251,60.838-98.794,98.828-138.088a322,322,0,0,1,53.536-46.209c38.4-25.294,80.215-35.128,121.512-36.577q17.282-.606,34.308.472a450.936,450.936,0,0,1,142.072,33.68c45.65,18.76,89.611,45.67,135.7,70.021,54.535,28.8,108.813,62.106,166.241,78.508,48.774,13.843,101.9,13.27,146.348-14.651a154.739,154.739,0,0,0,23.3-18.019c45.651-42.706,68.77-112.76,84.977-185.071,5.121-22.768,9.55-45.771,13.826-68.27,11.163-58.839,23.913-119.025,40.632-175.405,27.293-91.508,68.232-167.861,127.017-224.14,23.043-21.959,50.054-41.9,79.37-51.463,41.989-13.674,82.6-12.361,119.618-22.229,2.919-.775,5.838-1.617,8.731-2.526,43.405-13.4,82.451-44.594,111.5-89.084,31.031-47.556,51.206-113.333,45.625-182.579" transform="translate(6.3 -257.751)"/><path class="d" d="M155.25,1414.5c26.838-50.954,59.58-96.06,97.036-133.676a335.666,335.666,0,0,1,52.614-44.525c37.329-24.687,78.038-36.341,118.44-39.877,11.291-1.044,22.556-1.482,33.719-1.448a435.552,435.552,0,0,1,140.689,25.5c45.445,15.93,89.611,39.742,134.749,62.914,55.943,28.661,111.092,63.285,169.723,80.36,49.7,14.55,104.077,14.482,149.548-13.641a153.338,153.338,0,0,0,23.862-18.187c46.8-43.346,70.332-114.849,87.051-188.608,5.274-23.239,9.908-46.681,14.389-69.617,11.752-59.984,25.45-121.248,43.525-178.706,29.341-93.226,72.508-171.6,134.749-226.329,23.723-21.393,49.97-37.485,77.68-47.624,40.325-13.876,79.677-16.3,115.394-29.739,2.816-1.044,5.607-2.189,8.4-3.368,41.852-17.923,78.285-52.9,104.026-99.861,27.6-49.947,43.73-115.32,36.126-182.04" transform="translate(11.964 -266.749)"/><path class="d" d="M158.87,1447.97c26.14-49.779,58.326-93.563,95.269-129.6a354.6,354.6,0,0,1,51.693-42.774c36.188-23.349,75.259-37.995,115.368-43.245,11.06-1.65,22.121-2.694,33.156-3.368a422.655,422.655,0,0,1,139.307,17.109c45.215,13.135,89.355,33.68,133.725,55.808,57.377,28.46,113.371,64.228,173.154,82.246,50.643,15.257,106.253,15.695,152.774-12.6a155.9,155.9,0,0,0,24.425-18.389c47.929-43.986,71.868-116.937,89.2-192.212,5.453-23.576,10.241-47.623,14.978-71,12.315-61.1,26.96-123.639,46.086-181.872,31.389-94.978,76.809-175.641,142.43-228.519a272.308,272.308,0,0,1,75.887-43.784c38.661-14.112,76.81-20.208,111.169-37.25,2.714-1.347,5.428-2.728,8.091-4.21,40.338-22.49,74.2-61.256,96.7-110.706,24.144-52.372,36.126-117.375,26.628-181.5" transform="translate(17.612 -276.008)"/><path class="d" d="M162.5,1481.114c25.417-48.606,57.034-91.062,93.451-125.492,48.033-46.413,104.04-76.494,163.041-87.568,10.83-2.257,21.711-3.974,32.567-5.187a410.582,410.582,0,0,1,137.924,8.757c45.01,10.34,89.227,27.853,132.7,48.7,58.887,28.19,115.675,65.272,176.662,84.2,51.59,15.93,108.429,16.84,155.974-11.586a156.285,156.285,0,0,0,25.014-18.591c49.081-44.626,73.43-118.991,91.3-195.815,5.633-24.149,10.625-48.533,15.541-72.311,12.8-62.24,28.5-125.929,49-185.24,33.463-96.661,80.855-179.986,150.137-230.64a323.847,323.847,0,0,1,74.249-39.978c37-14.348,73.839-24.182,106.944-44.761,2.56-1.617,5.12-3.368,7.681-5.052,38.676-27.046,69.862-69.484,89.1-121.248,20.687-54.73,28.548-119.4,17.1-180.962" transform="translate(23.276 -284.935)"/><path class="d" d="M166.13,1514.754c57.069-110.74,151.059-183.926,250.757-210.668s204.287-9.431,300.222,34.926c60.3,27.887,117.928,66.383,180.067,86.019s132.061,18.154,184.8-29.335c65.979-59.445,88-171.768,109.53-273.044C1226.92,956,1283.682,778.813,1401.123,701.214c58.58-38.631,127.12-48.331,182.525-94.3,76.81-63.79,115.214-198.038,89.227-312.55" transform="translate(28.94 -294.36)"/></g><g transform="translate(-676.512 -502.641)"><path class="d" d="M-264.23,106.2A1931.721,1931.721,0,0,1-108.87-67.282C-84.7-91.128-59.4-114.434-30.294-125.246c74.4-27.348,150.188,34.926,207.027,103.532,52.541,63.293,99.175,134.577,138.923,212.352,39.3,76.992,72.457,161.26,124.329,224.073s129.834,100.232,193.842,61.331c38.072-23.138,65.6-70.155,80.7-121.618s19.023-107.405,19.919-162.573c1.024-63.15-1.1-129.8,21.84-185.24,23.76-57.256,74.4-93.6,123.945-88.578C950.767-74.793,1002.742,3.244,1054.1,67.2c65.237,81.2,144.735,149.169,233.808,163.786S1476.118,196.1,1518.031,91.552" transform="translate(264.23 190.45)"/><path class="d" d="M-262,110.359A1783.754,1783.754,0,0,1-108.944-59.489c23.836-23.239,48.825-45.973,77.424-56.481,57.479-21.084,115.8,10.744,165.627,57.256A517.589,517.589,0,0,1,172.742-18.3C224.984,42.1,271.569,110.466,311.511,185.364c39.429,74.163,72.713,155.938,124.226,216.8,28.88,34.151,64.9,61.432,102.413,73.826,32.67,10.778,66.7,10.1,97.574-8.016a126.776,126.776,0,0,0,15.925-11.114c31.415-25.664,54.151-67.966,67.976-113.6a450.481,450.481,0,0,0,10.907-44.862c7.681-39.675,10.907-80.832,12.93-121.484,3.277-64.362,4.941-130.678,29.725-185.577S846.437-98.524,894.853-93.91c68.924,6.534,120.181,80.63,170.748,140.782,3.968,4.715,8.014,9.43,12.11,14.045,61.78,69.953,135.031,125.795,215.706,136.5,86.1,11.451,181.014-38.665,220.7-141.119" transform="translate(267.71 212.295)"/><path class="d" d="M-259.69,114.58A1641.844,1641.844,0,0,1-108.939-51.664c23.529-22.6,48.159-44.693,76.272-55C23.788-127.411,81.139-97.57,130.374-53.55a508.616,508.616,0,0,1,38.4,38.4c51.871,57.642,98.327,123.221,138.385,195.344,39.608,71.267,73.1,150.516,124.2,209.59,30.16,34.623,67.029,62.914,105.587,76.386,33.515,11.687,68.668,11.721,100.595-6.264a124.259,124.259,0,0,0,16.514-11.148c32.618-26.035,55.994-69.65,70.511-116.634q6.908-22.521,11.649-46.04c8.347-40.652,12.8-82.819,16.156-124.077,5.53-65.541,10.907-131.352,37.585-185.88,25.347-51.665,72.1-86.052,119.387-81.91,67.311,5.928,117.774,76.049,167.6,132.4q5.914,6.736,11.931,13.135c60.731,65.407,131.959,116.432,209.946,124.178,83.031,8.252,173.82-42.47,211.277-142.87" transform="translate(271.314 234.109)"/><path class="d" d="M-257.41,128.386a1518.919,1518.919,0,0,1,148.5-162.641C-85.69-56.214-61.392-77.6-33.792-87.772,21.639-108.182,78.017-80.3,126.688-38.633A487.638,487.638,0,0,1,164.709-2.259C216.281,52.507,262.7,115.181,302.966,184.43,342.753,253,376.4,329.725,427.039,386.846c31.287,35.263,69.128,64.6,108.737,79.148,34.359,12.6,70.665,13.472,103.616-4.479a122.776,122.776,0,0,0,17.1-11.249c33.822-26.338,57.812-71.267,73.1-119.631q7.215-23.091,12.392-47.152c9.038-41.628,14.543-84.739,19.33-126.67,7.809-66.754,16.8-132.228,45.471-186.183,25.936-48.87,71.074-82.348,117.16-78.609,65.7,5.288,115.521,71.469,164.475,123.976q5.786,6.2,11.726,12.26c59.681,60.792,128.963,107.069,203.98,111.817,79.958,5.052,166.651-46.276,201.855-144.622" transform="translate(274.871 246.27)"/><path class="d" d="M-255.14,147.428A1404.12,1404.12,0,0,1-109.022-11.609c22.914-21.353,46.853-42.032,73.967-52.035,54.407-20.208,109.812,5.793,157.92,45.1a483.49,483.49,0,0,1,37.713,34.421c51.234,51.906,97.548,111.711,137.95,178.133C338.546,259.75,372.5,333.813,422.755,389.115c32.49,35.869,71.2,66.215,111.86,81.842,35.179,13.472,72.636,15.156,106.637-2.694a122.812,122.812,0,0,0,17.692-11.317C693.994,430.239,718.573,384,734.6,334.318q7.568-23.732,13.16-48.432c9.755-42.605,16.335-86.659,22.531-129.264,10.036-67.966,22.582-132.935,53.331-186.486,26.422-46.007,69.82-78.474,114.83-75.207,64.008,4.648,113.192,66.888,161.3,115.59,3.789,3.84,7.681,7.645,11.521,11.35,58.631,56.246,125.968,97.672,198.117,99.457,76.81,1.886,159.457-50.048,192.433-146.306" transform="translate(278.413 253.296)"/><path class="d" d="M-252.87,166.408A1301.152,1301.152,0,0,1-109.057,10.975C-86.475-9.738-62.971-29.71-36.242-39.545c53.383-19.736,107.789,4.176,155.36,41.09A463.3,463.3,0,0,1,156.5,33.979c50.912,49.065,97.159,106,137.745,169.579,40.2,62.914,74.531,134.316,124.2,187.867,33.745,36.408,73.4,67.8,115.009,84.5,36.024,14.415,74.633,16.84,109.658-.943a124.415,124.415,0,0,0,18.306-11.35C697.647,436.69,722.866,389,739.61,337.974q7.907-24.329,13.928-49.611c10.472-43.582,18.076-88.578,25.6-131.857C791.406,87.4,807.536,22.9,840.461-30.283c26.781-43.245,68.668-74.7,112.654-71.873,62.472,4.042,110.862,62.342,158.227,107.237q5.607,5.288,11.317,10.441c57.607,51.631,122.9,88.309,192.254,87.1,73.84-1.28,152.262-53.888,183.011-148.192" transform="translate(281.955 260.317)"/><path class="d" d="M-250.6,185.357a1205.935,1205.935,0,0,1,141.509-151.8C-86.817,13.353-63.518-5.811-37.4-15.511,14.956-34.944,68.39-13.019,115.4,21.537c12.8,9.4,25.3,19.736,37.073,30.312,50.592,46.26,96.755,100.382,137.489,161.192C330.335,273.16,365,341.834,414.058,393.566c35.076,37.048,75.5,69.515,118.235,87.332,36.869,15.257,76.6,18.524,112.654.808a125.8,125.8,0,0,0,18.87-11.451c37.457-27.382,63.24-76.285,80.778-128.658,5.581-16.84,10.241-33.68,14.645-50.823,11.189-44.525,19.894-90.464,28.932-134.417,14.44-70.391,33.9-134.316,69.129-187.092,27.037-40.416,67.515-70.728,110.273-68.505,60.859,3.368,108.532,57.761,155.1,98.817,3.661,3.368,7.374,6.433,11.112,9.531,56.557,47.085,120.053,78.946,186.391,74.6,70.767-4.446,145.068-57.593,173.589-149.775" transform="translate(285.497 267.37)"/><path class="d" d="M-248.33,204.39A1115.88,1115.88,0,0,1-109.126,56.2c21.968-19.467,44.908-38.092,70.511-47.59,51.36-19.1,103.8.842,150.214,33.04a432.1,432.1,0,0,1,36.792,28.46c50.276,43.34,96.374,94.537,137.284,152.469C326.23,279.833,361.255,345.846,409.824,396c36.28,37.452,77.5,70.964,121.308,89.892,37.714,16.166,78.6,20.208,115.726,2.593a124.84,124.84,0,0,0,19.458-11.519c38.661-27.719,65.032-77.969,83.338-131.689,5.812-17.109,10.856-34.589,15.362-52,11.957-45.5,21.865-92.384,32.106-137.01,16.693-71.6,39.454-135.023,76.963-187.362C901.328-69.091,940.5-98.258,982.132-96.3c59.246,2.8,106.2,53.181,151.981,90.431,3.584,2.93,7.246,5.827,10.907,8.622,55.508,42.5,117.006,69.617,180.528,62.409,67.695-7.645,137.9-61.4,164.167-151.56" transform="translate(289.039 274.371)"/><path class="d" d="M-246,232.646A1033.94,1033.94,0,0,1-109.254,88.058c21.66-18.827,44.268-36.745,69.385-46.108,50.31-18.76,101.721-.64,147.628,29.032a440.347,440.347,0,0,1,36.459,26.472c50,40.484,96.071,88.81,137.207,143.915,40.735,54.562,76.144,117.88,124.15,166.211,37.406,37.957,79.472,72.547,124.2,92.553,38.533,17.076,80.573,21.926,118.747,4.345a123.915,123.915,0,0,0,20.047-11.552c39.89-28.089,66.85-79.619,85.9-134.72,6.068-17.514,11.342-35.4,16.181-53.181,12.622-46.478,23.5-94.3,35.281-139.6,19.074-72.816,45.01-135.8,84.849-187.5C918.047-57.507,956.017-85.461,996.5-83.912c57.735,1.987,103.974,48.364,148.933,82.044,3.559,2.627,7.118,5.187,10.728,7.713,54.458,37.924,114.011,60.22,174.665,50.015,64.648-10.811,130.7-65.171,154.745-153.21" transform="translate(292.675 272.115)"/><path class="d" d="M-243.78,268.19c41.2-52.734,86.274-99.949,134.57-140.951,21.353-18.187,43.525-35.431,68.232-44.626C8.309,64.191,58.747,80.323,104.09,107.6a434.3,434.3,0,0,1,36.152,24.485c49.629,37.648,95.585,83.114,136.849,135.394,40.965,51.732,76.809,112.053,124.124,158.969,38.84,38.4,81.7,74.1,127.58,95.213,39.378,17.985,82.57,23.576,121.768,6.13A124.317,124.317,0,0,0,671.2,516.243c40.965-28.46,68.668-81.3,88.484-137.751,6.273-17.918,11.8-36.206,16.924-54.359,13.339-47.455,25.3-96.224,38.4-142.2,21.2-74.1,50.259-136.64,92.709-187.968,27.242-32.973,64.008-59.58,103.437-58.5,56.045,1.549,101.542,44.02,145.708,73.658,3.482,2.324,6.99,4.614,10.523,6.736C1220.8,49.2,1278.4,66.717,1336.19,53.548c61.448-14.011,123.51-68.977,145.3-154.928" transform="translate(296.138 262.572)"/><path class="d" d="M-241.51,303.721c40.331-51.728,84.661-97.771,132.266-137.381,21.02-17.547,42.962-34.084,67.08-43.144,48.262-18.086,97.7-3.941,142.507,21.016a396.371,396.371,0,0,1,35.844,22.465c49.3,34.808,95.189,77.4,136.644,126.839,40.965,48.937,77.3,106.429,124.073,151.728,40.146,38.9,83.825,75.746,130.73,97.908,40.223,18.894,84.49,25.327,124.79,7.915a127.96,127.96,0,0,0,21.251-11.721c42.3-28.763,70.46-82.954,91.019-140.749,6.5-18.322,12.315-37.048,17.666-55.538,14.056-48.432,27.139-98.11,41.682-144.824C847.52,123.028,879.575,60.686,924.611,9.964,951.8-20.618,987.569-45.844,1025.795-45.17c54.432.909,99.238,39.439,142.584,65.238,3.431,2.021,6.862,4.008,10.241,5.928,52.384,28.763,108.019,41.46,162.938,25.294,58.5-17.143,116.315-72.749,135.876-156.679" transform="translate(299.68 253.077)"/><path class="d" d="M-239.24,339.051c39.458-50.72,83.041-95.572,129.962-133.743,20.713-16.84,42.3-32.771,65.928-41.662,47.238-17.783,95.7-5.591,139.921,16.84A403.381,403.381,0,0,1,132.108,201c49,32,94.824,71.806,136.439,118.52,41.247,46.007,77.936,100.636,124.047,144.386,41.477,39.3,85.924,77.464,133.879,100.568,40.965,19.8,86.539,26.944,127.811,9.666a129.4,129.4,0,0,0,21.84-11.754C719.649,533.25,748.4,477.746,769.7,418.6c6.759-18.726,12.8-37.823,18.434-56.717,14.773-49.442,28.932-100.03,44.882-147.384C858.751,138.083,893.725,75.91,941.449,25.9c27.037-28.291,61.832-52,98.879-51.8,52.845.269,96.934,34.892,139.486,56.852,3.354,1.751,6.734,3.368,10.113,5.018C1241.237,60.181,1295,68.13,1347,48.966c55.457-20.208,109.146-76.555,126.454-158.3" transform="translate(303.222 243.747)"/><path class="d" d="M-237,374.605c38.6-49.752,81.462-93.426,127.734-130.14,20.482-16.3,41.656-31.491,64.776-40.214,46.239-17.413,93.707-7.208,137.361,12.967,12.059,5.591,23.837,11.822,35.23,18.524,48.662,29.065,94.411,65.92,136.209,109.729,41.477,43.312,78.55,95.045,124.047,137.28,42.885,39.709,88,78.912,137.028,103.229,41.861,20.713,88.484,28.729,130.806,11.451A129.155,129.155,0,0,0,678.62,585.61c44.729-29.47,74.07-86.288,96.165-146.777,6.964-19.164,13.262-38.7,19.177-57.963,15.49-50.52,30.724-101.882,48.057-149.943,28.164-77.464,65.8-139.772,116.315-188.877,26.832-26.068,60.679-48.23,96.6-48.465,51.206-.337,94.6,30.312,136.362,48.5,3.277,1.415,6.605,2.8,9.908,4.075,50.285,19.635,102.054,22.768,151.212.606C1404.8,23.189,1454.37-33.562,1469.45-113.35" transform="translate(306.717 234.227)"/><path class="d" d="M-234.69,410.055c37.707-48.729,79.794-91.222,125.328-126.536,20.1-15.661,40.965-30.144,63.624-38.7,45.215-17.109,91.71-8.858,134.8,8.925,11.905,4.951,23.657,10.643,34.923,16.537,48.332,26.213,94.007,60.208,135.978,101.208,41.631,40.483,79.216,89.319,124.15,130,44.012,40.113,89.969,80.529,140.049,105.924,42.706,21.622,90.482,30.312,133.853,13.236a130.734,130.734,0,0,0,23.043-11.923c45.932-29.807,75.888-87.938,98.726-149.775,7.22-19.568,13.749-39.507,19.945-59.142,16.207-51.362,32.618-103.768,51.206-152.537,30.34-78.744,70.844-141.186,124.175-189.147,26.6-23.946,59.527-44.458,94.322-45.131,49.619-.977,92.171,25.731,133.136,40.079,3.252,1.111,6.478,2.189,9.729,3.2,49.235,15.021,99.059,13.472,145.349-11.754,49.312-26.708,94.732-84.2,107.533-161.866" transform="translate(310.322 224.779)"/><path class="d" d="M-232.42,445.581c36.8-47.708,78.105-89.011,122.9-122.9,19.765-15.055,40.35-28.83,62.471-37.048,44.191-16.84,89.611-10.542,132.24,4.917,11.777,4.277,23.35,9.161,34.59,14.55,47.982,23.335,93.566,54.449,135.7,92.62,42.015,37.418,80.061,83.291,124.2,122.528,45.5,40.416,92.171,82.112,143.378,108.584,43.525,22.532,92.453,32.164,136.874,15.021a134.081,134.081,0,0,0,23.606-11.99c47.135-30.312,77.68-89.622,101.286-152.806,7.425-19.972,14.21-40.416,20.662-60.321,16.872-52.339,34.385-105.688,54.407-155.029,32.746-80.057,75.734-142.8,132.061-189.551,26.346-21.892,58.375-40.685,92.171-41.8,48.006-1.583,89.944,21.185,130.09,31.693,3.175.842,6.35,1.617,9.524,2.29,48.185,10.474,96.063,4.008,139.486-24.081,46.239-29.908,87.563-87.938,98.188-163.584" transform="translate(313.864 215.354)"/><path class="d" d="M-230.15,481.011c35.981-46.731,76.586-86.868,120.719-119.328a263.07,263.07,0,0,1,61.447-35.734c43.167-16.436,87.716-12.159,129.654.909,11.649,3.637,23.043,7.847,34.308,12.563,47.675,20.516,93.21,48.8,135.543,84.2,41.861,34.825,80.419,77.666,123.842,115.421,46.879,40.652,94.322,83.728,146.476,111.38,44.37,23.576,94.45,33.68,139.9,16.84a131.683,131.683,0,0,0,24.2-12.024c48.339-30.514,79.37-91.306,103.846-155.837,7.681-20.208,14.7-41.123,21.43-61.5,17.641-53.551,36.254-107.776,57.633-157.959,34.9-81.135,80.6-144.521,139.947-189.753,26.09-19.871,57.249-36.88,89.765-38.429,46.393-2.223,87.614,16.571,126.966,23.273,3.1.539,6.221,1.01,9.345,1.415,47.135,5.86,93.042-5.355,133.6-36.475,43.193-33.04,80.394-91.711,88.766-165.3" transform="translate(317.406 205.859)"/><path class="d" d="M-227.87,516.412c35.1-45.74,74.963-84.692,118.389-115.691a269.562,269.562,0,0,1,60.167-34.252c42.143-16.1,85.719-13.842,127.094-3.132,11.521,3,22.864,6.736,34,10.575,47.338,17.6,92.8,42.984,135.313,75.544,42.168,32.063,81.213,71.974,123.97,108.315,48.262,41.022,96.4,85.21,149.6,113.973,45.215,24.283,96.421,35.532,142.917,18.524a132.757,132.757,0,0,0,24.784-12.125c49.568-30.817,81.316-92.923,106.407-158.835,7.911-20.781,15.183-41.932,22.2-62.678C835.326,402.338,855.015,347.1,877.8,296.314c37.125-82.348,85.387-146.575,147.807-190.056,25.808-17.985,56.1-33.107,87.486-35.095,44.78-2.829,85.284,12.024,123.842,14.92,3.047.236,6.094.37,9.14.472,46.086,1.314,90.046-14.718,127.734-48.8,40.12-36.24,73.2-95.516,79.37-167.053" transform="translate(320.963 196.458)"/><path class="d" d="M-225.6,552.085c34.242-44.758,73.367-82.547,116.085-112.121a281.277,281.277,0,0,1,58.887-32.771c41.119-15.762,83.722-15.493,124.534-7.14q17.052,3.536,33.668,8.622c47.054,14.686,92.5,37.185,135.236,66.956,42.348,29.268,81.93,66.181,123.945,101.04,49.67,41.258,98.5,86.861,152.748,116.634,46.086,25.193,98.419,37.25,145.938,20.208a135.118,135.118,0,0,0,25.373-12.192c50.771-31.188,83.133-94.607,108.992-161.866,8.142-21.185,15.644-42.74,23.043-63.992,19.049-55.235,39.839-111.38,64.008-162.876,39.4-83.526,90.123-148.9,155.693-190.359,25.6-16.133,54.944-29.3,85.207-31.727,43.192-3.368,82.954,7.41,120.719,6.5,2.97,0,5.94-.2,8.935-.438,44.526-2.874,87.2-24.293,121.871-61.163,37.048-39.406,66.005-99.289,69.922-168.77" transform="translate(324.505 186.82)"/><path class="d" d="M-223.33,587.321c33.388-43.755,71.78-80.36,113.781-108.483a290.862,290.862,0,0,1,57.863-31.289c40.12-15.459,81.725-17.278,121.973-11.148a314.95,314.95,0,0,1,33.284,6.736c46.7,11.8,92.057,31.387,134.98,58.3,42.5,26.439,82.57,60.321,123.893,93.832,51.206,41.46,100.62,88.477,155.9,119.328,46.879,26.1,100.39,38.934,148.959,22.06a135.581,135.581,0,0,0,25.987-12.226c51.974-31.558,84.9-96.291,111.527-165.032,8.372-21.589,16.13-43.582,23.709-65.07,19.766-56.212,41.656-113.3,67.208-165.47,41.631-84.739,94.732-151.56,163.553-190.662,26.256-15.353,54.258-24.9,82.877-28.257,41.58-4.109,80.624,2.863,117.57-1.886q4.378-.539,8.756-1.314c43.613-7.728,84.234-33.473,116.008-73.523,33.975-42.605,58.887-103.094,60.474-170.488" transform="translate(328.047 177.585)"/><path class="d" d="M-221.06,622.675c32.536-42.754,70.2-78.175,111.476-104.846a306.794,306.794,0,0,1,56.711-29.807c39.1-15.122,79.728-18.928,119.387-15.19,11.112,1.01,22.147,2.593,33.079,4.614,46.325,9,91.583,25.764,134.673,49.88,42.68,23.677,83.261,54.461,123.868,86.625,52.563,41.595,102.72,90.06,159.047,121.989,47.724,26.944,102.413,40.652,152.006,23.845a138.472,138.472,0,0,0,26.5-12.293C748.864,715.6,782.4,649.518,809.774,579.565c8.628-21.993,16.617-44.39,24.451-66.249,20.483-57.256,43.525-115.219,70.409-168.063,43.909-85.951,99.52-154.557,171.541-190.932a243.459,243.459,0,0,1,80.65-25.092c39.966-4.715,78.294-1.684,114.446-10.1,2.868-.674,5.71-1.448,8.551-2.257,42.679-12.59,81.225-42.659,110.093-85.884,30.929-45.771,51.616-106.866,51.053-172.206" transform="translate(331.589 168.231)"/><path class="d" d="M-218.78,658.253c31.67-41.786,68.6-76.05,109.146-101.276a329.01,329.01,0,0,1,55.559-28.325,293.467,293.467,0,0,1,116.827-19.2c10.984.37,21.891,1.28,32.746,2.627a434.7,434.7,0,0,1,134.468,41.325c42.86,20.882,83.953,48.6,123.868,79.417,54.1,41.7,104.794,91.711,162.17,124.65C564.651,785.4,620.363,799.81,671.032,783.1a137.666,137.666,0,0,0,27.139-12.394c54.381-32.232,88.536-99.592,116.674-170.926,8.833-22.4,17.077-45.2,25.193-67.36,21.225-58.165,45.292-117.139,73.609-170.656,46.086-87.13,104.179-157.858,179.222-191.235a291.786,291.786,0,0,1,78.448-21.926c38.4-5.355,75.965-6.3,111.323-18.659,2.791-.977,5.581-2.021,8.347-3.166,41.762-17.385,78.267-51.717,104.281-98.076,27.856-48.937,44.447-110.672,41.631-173.957" transform="translate(335.146 158.688)"/><path class="d" d="M-216.51,693.568c71.3-95.247,173.845-144.824,275.515-147.552S261.27,585.152,349.524,651.569c55.482,41.763,106.893,93.26,165.32,127.344s127.4,49.173,185.776,14.954c73.071-42.807,110.094-148.023,145.2-242.5,57.684-155.6,137.668-316.423,263.943-364.855,62.907-24.115,131.651-17.379,192.459-49.476,84.311-44.525,140.408-167.457,130.576-286.28" transform="translate(338.688 149.24)"/></g><g transform="translate(-109.37 -254.958)"><path class="d" d="M-41.8,1900.3c-10.753-114.512,75.171-211.275,161.837-229.024s173.615,18.928,259.514,42.47,182.5,31.289,254.239-35.128c91.71-84.907,112.91-263.512,207.385-343.266,73.532-62.14,169.262-43.548,244.587,2.694,42.6,26.136,78.832,70.122,119.541,100.771,184.675,138.93,197.144,422.886,354.015,465.221,169.749,45.906,261.92-63.049,293.975-138.458,40.965-96.763,109.556-347.914-58.222-522.444-68.181-70.9-135.466-146.474-185.6-239.835-75.094-139.738-74.582-353.438,21.43-468.926,65.8-79.148,166.856-108.113,211.559-209.591,30.032-68.2,25.936-156.14,0-227.306S1771.822-30.064,1722.894-75.7" transform="translate(42.717 75.7)"/><path class="d" d="M-40.565,1898.316c-7.425-117.88,78.038-219.594,167.291-239.869,87.051-19.77,175.51,16.672,261.408,42.639,84.874,25.7,179.222,37.317,250.6-23.037,91.352-77.262,117.032-246.807,211.277-325.517,75.068-62.342,169.262-50.756,246.4-10.34,44.319,23.239,83.594,64.7,126.224,95.752,180.784,131.756,195.762,406.484,349.125,448.247,165.063,44.828,256.748-58.266,290.058-132.631,42.219-94.3,107.533-336.194-51-508.568-65.365-71.132-130.166-148.192-179.5-240.913-72.867-136.471-73.532-342.525,17.077-457.037,62.7-79.215,160.122-111.481,204.62-211.645,30.545-68.505,28.676-155.164,6.119-226.835C1836.35,36.05,1794.771-23.4,1747.866-72.4" transform="translate(45.371 83.514)"/><path class="d" d="M-39.233,1896.241c-4.1-121.08,80.906-227.845,172.744-250.613,87.588-21.69,177.4,14.381,263.3,42.841,83.876,27.786,175.714,43.312,246.994-11.013,90.968-69.583,120.975-230.337,215.246-307.7,76.477-62.813,169.365-58.064,248.2-23.374,46.086,20.208,88.331,59.243,132.932,90.734,176.662,124.885,194.174,390.048,344.234,431.1,160.3,43.784,251.423-53.45,286.013-126.6,43.346-91.677,105.562-324.608-43.73-495.1-62.6-71.435-124.918-149.842-173.436-242.058-70.665-133.137-72.483-331.68,12.8-445.081,59.578-79.114,153.311-114.647,197.63-213.5,31.057-68.774,31.415-154.254,12.085-226.4-19.714-73.591-57.812-136.2-102.848-188.608" transform="translate(47.931 91.281)"/><path class="d" d="M-37.8,1894.081c-.768-124.38,83.774-236.1,178.2-261.391,88.049-23.576,179.222,12.057,265.2,43.043,82.852,29.84,172.309,49.307,243.358,1.044C739.566,1614.841,774,1463.045,868.2,1386.827c77.962-63.083,169.544-65.44,250.015-36.408,47.9,17.278,93.042,53.888,139.614,85.749,172.514,118.284,192.715,373.612,339.37,414.264,155.488,42.774,246.072-48.634,281.942-120.574,44.447-89.117,103.616-313.224-36.484-481.287-59.835-71.772-119.439-151.56-167.342-243.136-68.156-130.106-71.458-320.9,8.372-433.192,56.506-79.451,146.476-118.385,190.769-215.821,31.441-69.28,34.206-153.48,18.1-225.959-16.642-74.9-51.206-140.58-94.45-196.253" transform="translate(50.386 99.167)"/><path class="d" d="M-36.28,1892.064c2.56-127.681,86.641-244.315,183.677-272.135,88.459-25.395,181.117,9.7,267.066,43.178,81.93,31.895,168.981,55.336,239.748,13.1,90.226-54.258,129.091-197.1,223.208-272.168,79.37-63.386,169.8-72.917,251.807-49.442,49.773,14.247,97.779,48.432,146.3,80.832,168.213,111.986,191.255,357.21,334.505,397.222,150.7,41.8,240.67-43.784,277.9-114.512,45.523-86.558,101.7-302.042-29.213-467.579-57.1-72.176-114.113-153.412-161.3-244.247-65.877-126.839-70.434-310.193,4.02-421.236,53.459-79.754,139.716-121.922,183.882-218.112,31.9-69.414,37-152.57,24.093-225.487-13.544-76.285-44.831-144.824-86.052-204" transform="translate(52.761 106.91)"/><path class="d" d="M-34.76,1889.87c5.914-130.948,89.611-252.431,189.13-282.912,88.92-27.213,183.011,7.342,268.961,43.38,80.855,33.916,165.576,61.534,236.112,25.159,89.944-46.377,133.136-180.457,227.2-254.418,80.957-63.655,170.082-80.5,253.625-62.443,51.642,11.148,102.413,43.043,152.979,75.713,163.86,105.89,189.8,340.774,329.615,380.213,145.938,40.753,235.37-39,273.954-108.517,46.547-84,99.852-291.029-21.993-453.8-54.355-72.681-108.762-155.164-155.181-245.359-63.573-123.606-69.436-299.752-.307-409.346,50.31-79.855,132.829-125.188,176.815-219.93,32.414-69.718,39.915-151.8,30.084-225.05-10.395-77.7-38.4-149.337-77.629-211.746" transform="translate(55.133 114.796)"/><path class="d" d="M-33.24,1887.805c9.243-134.249,92.376-260.582,194.584-293.656,89.381-28.965,184.88,4.917,270.856,43.582,79.856,35.869,162.17,67.562,232.5,37.049,89.611-38.665,137.233-163.786,231.171-236.636,82.442-63.992,170.415-88.174,255.417-75.477,53.562,8.016,107.123,37.688,159.687,70.728,159.3,100.063,188.337,324.473,324.75,363.34,141.1,39.844,229.942-34.252,269.806-102.488,47.571-81.505,97.983-280.285-14.747-440.1a2035.436,2035.436,0,0,1-149.113-246.47c-61.448-120.305-68.463-289.076-4.66-397.424,47.238-80.226,126.146-128.657,169.979-222.052,32.875-70.021,42.757-151.088,36.075-224.578A545.345,545.345,0,0,0,1873.939-55.9" transform="translate(57.504 122.586)"/><path class="d" d="M-31.72,1885.693c12.6-137.515,95.244-268.665,200.037-304.433,89.867-30.682,186.9,2.492,272.75,43.784,78.858,37.856,158.74,73.624,228.867,49.274,89.2-30.986,141.3-147.148,235.165-218.92,83.953-64.194,170.773-95.988,257.235-88.511,55.456,4.782,111.758,32.366,166.42,65.676,154.592,94.3,186.9,307.936,319.886,346.23,136.311,38.7,224.54-29.4,265.761-96.46,48.646-78.979,96.242-269.743-7.476-426.355a2468.674,2468.674,0,0,1-143.019-247.615c-59.041-117.038-67.515-278.668-9.012-385.467,44.165-80.6,119.387-132.059,163.066-224.107,31.436-67.12,46.135-145.488,42.04-224.14A556.5,556.5,0,0,0,1899.192-52.59" transform="translate(59.876 130.424)"/><path class="d" d="M-30.2,1883.675c15.874-140.816,98.111-276.748,205.491-315.279,90.328-32.366,188.644,0,274.645,43.953,77.859,39.742,155.385,79.653,225.308,61.3,88.792-23.307,145.4-130.409,239.133-201.069,85.463-64.43,171.157-103.869,259.027-101.545,57.4,1.516,116.417,26.944,173.052,60.624,149.881,88.915,185.418,291.5,314.919,329.188,131.523,37.721,219.137-24.62,261.741-90.4,49.516-76.521,94.6-259.336-.256-412.647-46.086-74.635-92.786-160.317-136.926-248.693-56.788-113.771-66.568-268.362-13.365-373.545,40.965-81.068,112.654-135.495,156.179-226.228,32.007-66.943,48.69-144.59,48.057-223.669-1.01-83.118-19.122-164.324-52.409-234.985" transform="translate(62.248 138.168)"/><path class="d" d="M-28.68,1881.5c19.254-144.083,101-284.764,210.944-325.954,90.814-34.051,190.539-2.459,276.514,44.154,76.809,41.628,151.955,85.648,221.621,73.355,88.433-15.627,149.5-113.737,243.23-183.32,87.051-64.666,171.541-111.851,260.845-114.512,59.323-1.818,121,21.825,179.734,55.673,145.093,83.627,183.933,275.065,310.105,312.18,126.735,36.678,213.684-19.838,257.7-84.4,50.464-74.1,93.093-249.468,7.015-398.906-43.525-75.477-87.512-162-130.858-249.8-54.535-110.437-65.774-258.157-17.717-361.622,37.918-81.606,105.894-138.863,149.215-228.283,32.608-66.874,51.25-143.867,54.048-223.231C1996.209,112.1,1980.957,28.1,1949.624-46" transform="translate(64.619 146.03)"/><path class="d" d="M-27.16,1879.511c22.582-147.384,103.9-292.78,216.4-336.8,91.3-35.667,192.459-4.951,278.434,44.323,75.913,43.515,148.5,91.711,218.011,85.412,88.024-7.948,153.619-97,247.1-165.537,88.51-64.868,171.9-119.9,262.663-127.58,61.217-5.187,125.583,16.638,186.391,50.52,140.28,78.508,182.5,258.662,305.266,295.205,121.922,35.667,208.2-15.122,253.625-78.373,51.411-71.57,91.71-239.768,14.261-385.164C1914.276,1185.03,1872.8,1097.8,1830.22,1010.6c-52.307-107.17-65.006-248.053-22.07-349.7,34.744-82.213,99.161-142.264,142.277-230.371a607.974,607.974,0,0,0,60.04-222.759c6.069-86.232-6.255-172.983-35.589-250.512" transform="translate(66.991 153.749)"/><path class="d" d="M-25.64,1877.232C.3,1726.683,81.151,1576.47,196.186,1529.722c91.787-37.317,194.354-7.511,280.354,44.525,74.915,45.333,145.119,97.672,214.349,97.47,87.64-.3,157.716-80.293,251.09-147.788,90.046-65.069,172.232-127.984,264.455-140.58,63.163-8.622,130.192,11.485,193.1,45.636,135.39,73.523,181.014,242.226,300.376,278.163,117.16,34.657,202.726-10.34,249.579-72.311,52.307-69.145,90.533-230.3,21.532-371.456-37.918-77.464-76.809-165.4-118.7-252.027-50.08-103.835-64.315-238.05-26.423-337.777,31.518-82.886,92.427-145.666,135.364-232.392,35.358-71.469,57.94-147.687,66.031-222.288,9.628-87.737.2-177.266-27.191-258.258" transform="translate(69.363 161.753)"/><path class="d" d="M-24.12,1875.286c29.264-153.985,109.709-308.711,227.3-358.355,92.171-38.9,196.3-10.1,282.249,44.727,73.942,47.152,141.714,103.667,210.74,109.494,87.255,7.376,161.812-63.52,255.058-129.971,91.583-65.272,172.591-136.236,266.273-153.648,65.057-12.091,134.724,6.4,199.7,40.652,130.448,68.64,179.5,226.128,295.486,261.155,112.321,33.949,197.144-5.659,245.56-66.282,53.178-66.753,89.611-221.109,28.752-357.749-35-78.744-71.689-167.086-112.654-253.139-47.878-100.5-63.726-228.115-30.724-325.82,28.163-83.627,85.694-149.034,128.425-234.514C2007.9,380.1,2033.17,304.856,2044.1,229.952c13.206-89.23,6.684-181.57-18.793-266.072" transform="translate(71.734 169.425)"/><path class="d" d="M-22.6,1873.045c32.593-157.252,112.654-316.592,232.758-369.031,92.786-40.416,198.22-12.7,284.195,44.9,72.995,48.971,138.257,109.7,207.1,121.585,86.872,14.987,165.934-46.782,259.053-112.222s172.9-144.453,268.065-166.682c66.952-15.594,139.281,1.415,206.464,35.633,125.455,63.992,178.044,209.725,290.647,244.18,107.533,32.905,191.691-.977,241.489-60.253,54.048-64.4,88.741-212.184,36.024-344.007-32.081-80.091-66.389-168.77-106.586-254.25-45.676-97.2-63.214-218.314-35.128-313.9,24.835-84.469,78.986-152.436,121.513-236.635,36.51-71.974,64.289-146.239,78.013-221.412,16.8-90.63,13.2-185.734-10.369-273.717" transform="translate(74.106 177.358)"/><path class="d" d="M-21.07,1870.956C14.954,1710.4,94.451,1546.449,217.219,1491.079c93.3-42.032,200.165-15.324,286.038,45.1,72.073,50.722,134.9,115.657,203.494,133.609,86.487,22.633,170.031-29.975,263.021-94.3,94.732-65.609,173.18-152.739,269.883-179.683,68.821-19.2,143.787-3.536,213.146,30.615,120.514,59.311,176.662,193.29,285.757,227.172,102.72,31.861,186.186,3.671,237.444-54.259,54.919-62,88.228-203.36,43.269-330.266-28.881-81.506-61.064-170.421-100.441-255.362-43.525-93.832-62.856-208.546-39.454-301.975,21.327-85.311,72.252-155.8,114.574-238.69,36.894-72.244,67.49-145.5,84-220.974a635.825,635.825,0,0,0-1.946-281.531" transform="translate(76.493 185.173)"/><path class="d" d="M-19.55,1868.962c39.25-163.819,118.44-332.354,243.64-390.688,93.81-43.582,202.265-17.985,287.933,45.3,71.126,52.44,131.5,121.652,199.858,145.666,86.1,30.312,174.1-13.2,267.015-76.689,96.216-65.777,173.436-161.058,271.675-192.717,70.69-22.768,148.293-8.353,219.854,25.6,115.5,54.865,175.1,176.853,280.867,210.163,97.932,30.851,180.63,8.319,233.4-48.2,55.764-59.681,88-194.8,50.541-316.591-25.6-83.055-55.815-172.071-94.373-256.44-41.323-90.5-62.6-198.712-43.807-290.052,17.743-86.221,65.544-159.205,107.533-240.778,37.432-72.513,70.741-144.824,90.021-220.5,23.979-93.424,26.216-194.137,6.427-289.244" transform="translate(78.865 192.892)"/><path class="d" d="M-18,1866.816c42.5-167.086,121.308-340.167,249.016-401.4,94.322-45.165,204.108-20.713,289.828,45.434,70.229,54.191,128.016,127.647,196.248,157.724,85.719,37.856,178.3,3.6,270.984-58.906,97.779-65.878,173.692-169.41,273.493-205.717,72.508-26.4,152.748-13.1,226.537,20.578,110.452,50.52,173.641,160.418,276,193.155,93.119,29.807,175.074,12.9,229.353-42.167,56.583-57.424,88.024-186.318,57.761-302.817-21.993-84.705-50.566-173.755-88.254-257.585-39.173-87.13-62.5-189.079-48.185-278.129,14-87.13,58.887-162.539,100.723-242.832,37.944-72.782,73.993-143.915,95.986-220.065,27.595-94.764,32.771-198.288,14.85-296.99" transform="translate(81.284 200.73)"/><path class="d" d="M-16.51,1864.656c45.932-170.387,124.354-348.015,254.546-412.074,94.732-46.681,206.105-23.408,291.722,45.636C599.067,1554.127,654.5,1631.625,722.371,1668c85.438,45.232,182.448,20.376,274.978-41.123,99.34-66.047,173.9-177.83,275.285-218.92,74.249-30.043,157.2-17.682,233.219,15.594,105.434,46.142,172.258,143.679,271.137,176.146,88.382,28.527,169.518,17.48,225.308-36.139,57.4-55.168,88.408-177.864,65.032-289.109-18.933-90.473-46.551-177.4-82.186-258.7-37.022-83.729-62.523-179.312-52.538-266.072,10.241-88.039,52.128-165.908,93.784-244.921,38.4-73.018,77.27-143.072,102-219.627,31.192-96.071,39.3-202.393,23.248-304.7" transform="translate(83.608 208.616)"/><path class="d" d="M-15,1862.567c49.286-173.721,127.324-355.829,260.026-422.953,95.372-48.2,208.128-26.136,293.617,45.839,68.437,57.593,121.359,139.435,189,181.872,85.054,52.911,186.57,37.216,279.074-23.34,100.9-66.147,174.1-186.217,277.1-231.785,76.118-33.68,161.607-22.161,239.9,10.542,100.364,41.965,170.773,127.277,266.273,159.172,83.594,27.517,163.86,21.993,221.262-30.11,58.222-52.945,89.125-169.309,72.277-275.4-14.97-91.258-40.641-178.9-76.092-259.774-34.9-80.36-62.651-169.545-56.89-254.284C1956.6,673.462,1996,593.1,2037.425,515.335c39.019-73.254,80.547-142.163,107.994-219.155,34.771-97.372,45.823-206.5,31.646-312.449" transform="translate(85.964 216.43)"/><path class="d" d="M-13.47,1860.549c52.589-176.988,130.269-363.744,265.453-433.63,95.909-49.678,210.151-28.9,295.512,46.007,67.567,59.277,117.954,145.464,185.367,193.9,84.7,60.624,190.795,54.258,282.94-5.591,102.566-65.979,174.255-194.637,278.9-244.82,77.911-37.385,166.011-26.439,246.609,5.557,95.269,37.823,169.314,110.942,261.382,142.129,78.781,26.506,158.33,26.506,217.192-24.081s90.123-160.553,79.549-261.626c-9.4-89.723-34.974-178.5-70.025-260.918-32.8-76.959-62.907-159.61-61.243-242.327,1.818-89.69,38.865-172.509,79.933-249.232,39.685-73.389,83.85-141.456,113.985-218.718,38.373-98.641,52.381-210.579,40.069-320.2" transform="translate(88.352 224.173)"/><path class="d" d="M-11.95,1858.433c55.917-180.356,133.316-371.187,270.907-444.576,96.5-50.992,212.2-31.693,297.406,46.209,66.568,60.961,114.574,151.56,181.782,205.92,84.311,68.236,194.891,71,286.909,12.192,104.1-66.148,174.383-203.057,280.713-257.854,79.677-41.056,170.338-30.48,253.266.573,90.3,33.68,167.854,94.3,256.518,125.121,74.019,25.5,152.749,30.952,213.172-18.052,59.835-48.533,91.378-151.56,86.769-247.918-4.353-91.138-29.8-180.188-64.008-262-30.724-73.591-63.265-149.573-65.6-230.438-2.56-90.33,32.132-175.877,73.02-251.152,40.2-73.692,87.051-140.344,119.977-218.246,41.97-99.866,58.947-214.591,48.518-327.875" transform="translate(90.723 232.083)"/><path class="d" d="M-10.43,1856.243c59.271-183.556,136.234-379.068,276.36-455.151,97.01-52.642,214.273-34.488,299.3,46.411,65.851,62.611,111.169,157.454,178.172,217.876,83.953,75.881,198.988,87.736,290.9,29.975,105.613-66.384,174.511-211.51,282.505-270.888,81.444-44.794,174.69-34.32,259.974-4.479s166.421,78.036,251.628,108.146c69.129,24.452,147.167,35.4,209.127-12.024,60.654-46.411,92.914-141.894,94.04-234.177s-24.707-181.872-57.863-263.142c-28.6-70.155-63.726-139.3-69.948-218.482-7.118-90.936,25.4-179.279,66.082-253.24s90.43-139.4,125.968-217.808c45.525-101.113,65.43-218.649,56.839-335.621" transform="translate(93.095 239.897)"/></g><g transform="translate(923.07 -971.062)"><path class="d" d="M425.741,2908.7c-74.608-60.624-78.115-209.456-34.359-309.452s120-166.177,187.748-239.464,132.88-167.524,138.462-282.676c7.169-147.215-85.387-280.891-73.532-427.735,9.243-114.31,80.24-200.834,154.848-249.232,42.168-27.314,90.917-36.879,134.6-59.445,198.117-102.017,374.164,63.116,497.546-71.031,133.572-145.43,126.761-308.206,102.08-388.4-31.62-102.758-137.515-330.3-346.052-267.621-84.7,25.462-171.541,47.152-258.361,40.046C798.856,642.949,672.581,508.5,664.286,337.742,658.73,220.7,704.815,98.951,672.632-10.442c-21.583-73.557-76.272-124.346-134.6-142.5s-119.848-7.241-177.507,14.28" transform="translate(-360.53 587.178)"/><path class="d" d="M427.673,2917.525c-74.454-66.181-81.213-217.607-37.3-321.812C433.254,2494,510.192,2426.235,579.4,2354.429c68.386-70.93,134.314-160.25,143.378-271.393,11.445-142.062-72.918-274.627-60.5-420.528,10.088-116.027,75.965-205.448,148.242-259.133,41.528-30.885,90.686-45.165,135.7-69.448,191.307-102.791,363.411,54.056,484.309-77.127,129.962-141.153,126.3-299.752,103.13-380.584-29.392-102.32-131.831-320.869-333.379-266.442-82.98,22.464-169.16,40.786-255.11,33.242C818.607,632.237,696.147,503.782,685.087,339.222c-7.681-113.906,34.232-234.008,2.765-342.391-21.43-74.1-73.967-126.6-130.576-148.394-57.121-21.959-118.389-16.6-176.815.842" transform="translate(-356.547 577.951)"/><path class="d" d="M431.132,2927.632c-74.249-71.671-84.337-225.656-40.274-334.139,42.015-103.4,119.644-172.879,190.334-243.136,69-68.572,135.7-153.008,148.217-260.111,15.746-136.875-60.68-268.362-47.494-413.489,10.728-117.88,71.689-210.028,141.662-269.137,40.965-34.555,90.456-53.45,137.054-79.417,184.7-102.994,352.76,45.266,471.1-82.819,126.377-136.875,125.839-291.265,104.153-372.534C1508.744,771,1409.685,561.244,1215.2,607.588c-81.521,19.4-167.035,34.185-252.063,26.169-123.151-10.98-241.95-133.474-255.75-291.9-9.652-110.807,28.163-229.226-2.791-336.6C683.323-69.683,632.911-123.6,578.043-149c-55.969-25.9-116.9-26.035-176.15-12.63" transform="translate(-354.169 567.439)"/><path class="d" d="M434.634,2938.922c-74.249-77.127-87.409-233.773-43.218-346.466,41.2-105.014,119.439-176.213,191.614-244.921,69.589-66.316,137.182-145.767,153.107-248.861,20.047-131.723-48.313-262.131-34.462-406.45,11.47-119.463,67.464-214.811,135.057-279.14,40.248-38.294,90.2-61.7,138.257-89.42,178.172-102.791,342.109,36.475,458.04-88.444,122.767-132.632,125.455-282.912,105.2-364.653-24.963-101.377-120.668-302.446-308.031-264.085-79.984,16.369-164.68,27.416-248.888,19.265C861.541,614.128,746.4,497.932,729.889,345.766,718.214,237.99,751.5,121.39,721.543,14.962,700.266-60.583,652.081-116.39,599.006-145.153c-54.816-29.874-115.445-35.465-175.458-26.1" transform="translate(-351.859 555.712)"/><path class="d" d="M438.132,2951.5c-74.044-82.617-90.482-241.856-46.086-358.793,40.376-106.63,119.234-179.649,192.92-246.773,70.178-63.992,138.615-138.526,157.946-237.578,24.374-126.536-35.844-255.968-21.43-399.377,12.238-121.248,63.189-219.8,128.5-289.176,39.608-42.1,89.918-69.886,139.46-99.423,171.721-102.32,331.484,27.685,444.932-94.1,119.157-128.321,124.867-274.256,106.253-356.7-22.787-100.872-115.214-293.454-295.358-262.94-78.525,13.472-162.375,20.882-245.79,12.327C883.089,607.042,771.613,496.841,752.436,350.906,738.687,246.228,767.8,131.38,738.508,25.928,717.359-50.29,671.274-107.613,619.991-140.047c-53.766-33.916-113.985-44.862-174.793-39.574" transform="translate(-349.519 542.725)"/><path class="d" d="M441.673,2965.089c-73.891-88.107-93.5-249.905-49.132-371.119,39.608-108.248,119-183.051,194.2-248.625,70.767-61.634,140.2-131.183,162.836-226.33,28.855-121.248-23.5-249.568-8.4-392.3,13.006-122.9,58.887-224.848,121.9-299.179,38.942-45.94,89.611-78.07,140.817-109.426,165.345-101.545,320.833,18.894,431.8-99.76,115.547-124.043,124.354-265.735,107.277-348.756-20.483-100.366-109.915-284.663-282.659-261.794-77.117,10.1-160.071,14.348-242.616,5.389-113.038-12.226-221.006-116.5-242.718-255.968-15.823-101.68,9.063-214.743-19.51-319.185-21.02-76.925-64.955-136-114.472-171.768-52.563-38.058-112.526-54.292-174.1-53.046" transform="translate(-347.249 528.601)"/><path class="d" d="M445.254,2979.857c-73.763-93.6-96.549-257.955-52.1-383.48,38.84-109.8,118.747-186.486,195.506-250.411,71.279-59.378,141.637-123.942,167.7-215.08,33.284-116.061-11.086-243.3,4.609-385.265,13.8-124.616,54.535-230,115.214-309.182,38.4-49.88,89.432-86.221,141.918-119.4,159.021-100.6,310.182,10.1,418.663-105.418,111.963-119.8,123.817-257.214,108.327-340.875C1526.6,770.957,1440.423,594.575,1275.1,610.169a1170.818,1170.818,0,0,1-239.466-1.549C925.953,596.09,821.466,497.677,797.271,364.439c-17.922-98.716,2.791-209.961-25.091-313.426C751.288-26.45,709.453-87.478,661.728-126.648c-51.437-42.235-111.041-63.723-173.436-66.552" transform="translate(-344.992 513.564)"/><path class="d" d="M448.868,2994.442c-73.609-99.053-99.52-266.071-55.072-395.806,38.149-111.38,118.517-189.956,196.837-252.263,71.817-57.256,143.07-116.667,172.565-203.8,37.509-110.841,1.357-237.04,17.641-378.226,14.568-126.266,50.131-235.221,108.711-319.185,37.585-53.888,89.2-94.3,143.147-129.4,152.774-99.39,299.557,1.313,405.528-111.144C1546.578,1089.1,1561.5,955.962,1547.6,871.7c-16.386-99.255-101.8-295.373-257.337-259.336-73.353,16.84-155.437,1.246-236.291-8.487-106.33-12.765-207.386-105.351-234.038-232.223-20.1-95.786-3.456-205.178-30.724-307.633-20.083-74.271-57.3-138.433-106.458-183.522C632.469-165.985,573.2-192.626,510.009-199.53" transform="translate(-342.692 498.574)"/><path class="d" d="M452.423,3009.075c-73.481-104.408-102.413-273.986-58.042-408.168,37.432-112.794,118.235-193.39,198.245-254.048,72.329-54.932,144.53-109.426,177.455-192.549,41.81-105.654,13.8-230.808,30.724-371.153,15.362-127.984,45.676-240.576,102.131-329.222,36.843-57.9,88.945-102.387,144.351-139.4,146.578-97.975,288.88-7.477,392.394-116.735,104.743-111.144,122.69-240.071,110.4-324.978-14.286-98.716-96.37-289.648-244.638-258.292-72.252,15.257-153.132-5.254-233.142-15.392C969.325,586.1,871.547,499.311,842.59,378.8c-22.3-92.856-9.7-200.362-36.2-301.806C786.779,2.246,751.225-63.5,703.974-112.384c-49.878-51.058-109.348-83.37-172.078-93.5" transform="translate(-340.512 483.538)"/><path class="d" d="M456.057,3023.769c-73.3-110-105.434-281.935-60.987-420.46C431.811,2488.8,513,2406.382,594.493,2347.341c72.841-52.743,145.938-102.152,182.294-181.266,46.086-100.468,26.269-224.544,43.7-364.115,16.181-129.7,41.2-245.864,95.551-339.225,36.1-61.937,88.74-110.4,145.579-149.4,140.459-96.392,278.229-16.234,379.259-122.359,101.132-106.968,122.127-231.516,111.45-317.1-12.238-98.11-90.865-283.484-231.964-257.113-71.279,13.472-150.8-11.788-229.993-22.33-99.622-13.27-194.175-94.3-225.308-208.378-24.6-89.993-15.951-195.58-41.784-296.013C804.117,14.668,770.168-52.717,724.865-105.3c-48.6-55.647-107.885-92.651-171.388-106.968" transform="translate(-338.333 468.406)"/><path class="d" d="M459.726,3038.212c-73.174-115.489-108.378-289.918-64.008-432.822,36.049-115.96,117.621-200.43,200.7-257.719,73.327-50.52,147.4-94.843,187.184-169.983,50.438-95.247,38.763-218.246,56.737-357.008,17-131.352,36.638-251.353,88.945-349.228,35.307-66.046,88.536-118.351,146.809-159.407,134.391-94.641,267.578-25.024,366.125-127.984,97.548-102.69,121.513-222.928,112.475-309.148-10.241-97.672-85.259-277.085-219.266-255.968-70.485,11.114-148.5-18.288-226.844-29.268-96.268-13.472-187.7-88.747-221.032-196.455-26.935-87.13-22.172-190.8-47.34-290.22-20.355-80.327-53.562-149.135-94.4-201.137C698.521-158.361,639.4-200.056,575.094-218.54" transform="translate(-336.165 453.559)"/><path class="d" d="M463.365,3052.869c-73.02-120.978-111.271-297.9-66.9-445.148,35.384-117.476,117.314-204,202.009-259.538,73.814-48.432,148.806-87.568,192.023-158.734,54.74-90.06,51.206-211.981,69.743-350.035,17.922-133.07,32.055-256.81,82.365-359.23,34.462-70.155,88.382-126.266,148.037-169.377,128.374-92.755,256.927-33.68,353.016-133.709,93.912-98.413,120.847-214.339,113.5-301.2-8.193-96.965-79.754-237.107-206.618-254.789-69.692-9.734-146.168-24.788-223.669-36.206-92.914-13.708-181.347-83.19-216.68-184.5-29.392-84.2-28.419-186.015-52.947-284.427-20.175-81-51.206-151.9-90.354-207C720.945-155.849,662-202.261,596.86-224.9" transform="translate(-333.992 438.498)"/><path class="d" d="M467.055,3067.478c-72.892-126.468-114.164-305.847-69.871-457.509,34.744-118.991,116.981-207.57,203.315-261.356,74.249-46.276,150.214-80.361,196.914-147.451,58.887-84.874,63.726-205.717,82.775-342.963,18.69-134.72,27.4-262.3,75.785-369.267,33.591-74.3,88.2-134.147,149.241-179.38,122.409-90.936,246.43-42.37,339.882-139.368,90.456-93.866,120.207-205.751,114.548-293.285-6.247-96.325-74.94-230.27-193.944-253.61-68.591-13.472-143.864-31.255-220.52-43.144-89.611-13.876-175.1-77.464-212.353-172.576-31.876-81.3-34.641-181.232-58.5-278.6C854.3,47.26,825.525-25.759,787.99-83.89c-44.575-69.421-103.356-120.561-169.365-147.35" transform="translate(-331.845 423.485)"/><path class="d" d="M470.746,3082.086c-72.739-131.924-117.032-313.8-72.841-469.835,34.155-120.507,116.674-211.207,204.62-263.209,74.736-44.188,151.647-73.085,201.778-136.2,63.317-79.653,76.246-199.419,95.807-335.89s22.736-267.79,69.129-379.271c32.7-78.441,88.075-141.927,150.47-189.382,116.494-88.612,235.779-51.16,326.747-144.824,86.846-89.623,119.515-197.2,115.573-285.371-4.276-95.752-70.1-223.9-181.245-252.6-67.515-17.312-141.56-37.688-217.4-50.048-86.18-14.045-168.981-71.94-208-160.653-34.462-78.373-40.837-176.449-64.008-272.808C871.512,59.578,845.013-15.528,809.066-76.725c-43.188-74-101.8-129.887-168.7-160.856" transform="translate(-329.724 408.472)"/><path class="d" d="M474.462,3096.888c-72.61-137.414-119.874-321.745-75.811-482.163,33.54-122.023,116.315-214.878,205.926-265.028,75.2-42.134,153.056-65.844,206.643-124.953,67.592-74.5,88.766-193.121,108.839-328.851,20.483-138.088,17.922-273.245,62.6-389.273,31.748-82.583,88-149.64,151.673-199.385,110.657-86.389,225.154-59.95,313.638-150.651,83.236-85.345,118.824-188.608,116.622-277.422-2.355-95.18-65.237-217.876-168.6-251.286-66.389-21.656-139.23-44.323-214.222-57.188-82.852-14.179-162.939-66.181-203.648-148.7-37.176-75.342-47.059-171.768-69.641-267.015C888.773,71.887,864.578-5.375,830.193-69.6c-41.764-78.563-100.2-139.2-168.008-174.328" transform="translate(-327.603 393.435)"/><path class="d" d="M478.172,3111.294c-72.457-142.87-122.69-329.659-78.755-494.49,32.926-123.5,115.982-218.516,207.206-266.846,75.657-40.079,154.464-58.6,211.533-113.67C890.025,2166.942,919.442,2049.432,940,1914.51c21.327-139.873,13.237-278.769,56.02-399.31,30.724-86.726,87.947-157.286,152.9-209.355,104.973-84.2,214.5-68.774,300.5-156.342,79.626-81.068,118.082-179.986,117.775-269.44-.461-94.54-60.321-212.184-155.923-250.108-65.237-25.833-136.925-50.52-211.072-63.992-79.37-14.314-157.024-60.388-199.321-136.774-40.069-72.311-53.357-166.952-75.3-261.222C906.052,84.172,884.161,4.755,851.338-62.47c-40.32-83.124-98.59-148.517-167.342-187.8" transform="translate(-325.501 378.422)"/><path class="d" d="M481.9,3125.9c-72.329-148.36-125.455-337.608-81.725-506.816C432.517,2494.1,515.8,2396.8,608.692,2350.389c76.092-38.025,155.872-51.362,216.4-102.387,76.144-64.194,113.832-180.558,134.877-314.739,22.2-141.456,8.423-284.226,49.414-409.313,29.8-90.936,87.947-164.83,154.131-219.358,99.11-81.674,203.827-77.464,287.37-161.967,76.016-76.824,117.339-171.431,118.7-261.592,1.434-93.967-55.226-207-143.224-248.962-64.008-30.514-134.622-56.987-207.923-70.728-76.144-14.55-151.187-54.528-194.865-124.987-42.962-68.943-59.553-162.135-80.906-255.4-19.33-84.5-38.891-166.042-70.229-236.3C833.566-143,775.466-213.157,705.753-256.61" transform="translate(-323.396 363.409)"/><path class="d" d="M485.674,3140.512c-72.2-153.85-128.3-345.49-84.7-519.177,31.774-126.469,115.214-225.959,209.792-270.484,76.553-36.071,157.254-44.188,221.262-91.138,80.317-59.243,126.377-174.26,147.884-307.7,23.043-143.207,3.61-289.648,42.86-419.315,28.778-95.011,88-172.273,155.334-229.361,93.4-79.181,193.048-86.557,274.235-167.625,72.3-72.749,116.571-162.775,119.772-253.711,3.277-93.428-49.977-202.08-130.576-247.817-65.48-37.284-134.312-63.418-204.825-77.767-72.739-14.583-145.349-48.263-190.564-112.862-45.83-65.507-65.621-157.386-86.359-249.6-19.151-85.21-36.356-168.871-66.21-242.159C856.2-140.379,798.279-215.31,727.6-262.95" transform="translate(-321.327 348.396)"/><path class="d" d="M489.431,3155.263c-72.047-159.34-131.063-353.438-87.64-531.5,31.185-127.984,114.881-229.765,211.1-272.336,76.989-34.084,158.739-37.048,226.127-79.855,84.644-54.056,138.948-168,160.941-300.661,24.016-144.824-1.28-295.138,36.254-429.318,27.7-99.154,88.178-179.649,156.538-239.364,87.742-76.622,182.4-95.348,261.152-173.284,68.668-68.471,115.752-154.288,120.77-245.864,5.121-92.856-44.473-197.432-117.775-246.6-63.452-41.829-131.465-70.417-201.6-84.739-69.487-14.583-139.691-41.965-186.289-101.04-48.9-61.9-71.689-152.638-91.941-243.809C958.122,120.967,943.3,35.117,914.878-41.135,878.966-137.8,821.226-217.506,749.559-269.35" transform="translate(-319.246 333.241)"/><path class="d" d="M493.2,3169.754c-71.919-164.8-133.828-361.353-90.609-543.865,30.724-129.432,114.523-233.57,212.506-274.155,77.424-32.1,160.071-29.807,230.992-68.572,88.945-48.9,151.7-161.664,173.948-293.588,25.168-146.508-6.145-300.594,29.674-439.355,26.678-103.3,88.357-186.755,157.792-249.232,82.135-74.1,171.746-104.172,247.966-178.942,64.981-64.329,114.933-146,121.717-237.915s-38.686-192.986-105.2-245.459c-58.887-46.579-127.734-76.049-198.45-91.677-66.158-14.583-133.981-35.465-181.91-89.05-52-58.031-77.859-147.889-97.5-237.983-18.639-86.692-31.185-174.5-58.2-253.88C901.54-135.088,843.983-219.6,771.3-275.64" transform="translate(-317.205 318.346)"/><path class="d" d="M496.915,3184.291c-71.689-170.286-136.337-369.2-93.58-556.19,30.263-130.88,114.19-237.41,213.71-275.974,77.91-30.312,161.5-22.6,235.882-57.256,93.246-43.784,164.167-155.333,186.9-286.516,26.013-148.192-11.061-306.016,23.043-449.358,25.6-107.439,88.664-193.761,159.021-259.336,76.6-71.4,161.095-112.929,234.832-184.6,61.448-59.917,114.062-137.246,122.895-229.866,8.705-91.778-32.49-188.608-92.53-244.315-56.737-52.642-125.456-82.314-195.3-98.581-62.83-14.617-128.246-28.83-177.635-77.127-55.124-53.888-84.081-143.106-103.053-232.19C992.618,145.617,982.53,55.692,956.927-26.791c-32.867-105.6-90.2-194.885-163.86-255.159" transform="translate(-315.107 303.404)"/><path class="d" d="M500.77,3198.971c-71.689-175.776-139.256-377.216-96.55-568.552,29.572-132.429,113.832-241.283,215.067-277.792,78.346-28.292,162.938-15.324,240.669-46.075,97.548-38.53,176.662-149.033,199.986-279.543,26.858-149.876-15.976-311.4,16.514-459.361,24.477-111.548,89.1-200.6,160.225-269.44s150.418-121.551,221.723-190.09c57.863-55.639,113.166-128.725,123.894-221.951,10.5-91.273-25.859-184.128-79.831-243.136s-123.049-88.545-192.177-105.519c-59.5-14.617-122.485-21.926-173.282-65.171-58.273-49.577-90.328-138.357-108.634-226.4S1002.413,65.892,978.218-19.688C946.841-129.754,889.66-223.835,814.946-288.32" transform="translate(-313.125 288.32)"/></g></g></g></g></g></svg>