<svg xmlns="http://www.w3.org/2000/svg" xmlns:xlink="http://www.w3.org/1999/xlink" width="250" height="54.287" viewBox="0 0 250 54.287"><defs><style>.a{fill:url(#a);}.b{opacity:0.66;}.c{fill:url(#b);}.d{fill:#f30711;}</style><radialGradient id="a" cx="0.324" cy="0.264" r="0.674" gradientTransform="matrix(1, 0, 0, -1, 0, 7.77)" gradientUnits="objectBoundingBox"><stop offset="0" stop-color="#fd9196"/><stop offset="1" stop-color="#f30713"/></radialGradient><radialGradient id="b" cx="-14.977" cy="0.421" r="1.226" gradientTransform="matrix(0.707, -0.707, -0.641, -0.641, 0.478, 1.394)" gradientUnits="objectBoundingBox"><stop offset="0.048" stop-color="#e4ebee"/><stop offset="0.272" stop-color="#f5f8f9"/><stop offset="0.467" stop-color="#fff"/><stop offset="0.752" stop-color="#bfc1c3"/><stop offset="0.867" stop-color="#dce0e6"/><stop offset="0.905" stop-color="#e2e6ed"/><stop offset="1" stop-color="#bcbec0"/></radialGradient></defs><g transform="translate(1350.225 293.2)"><path class="a" d="M-1322.455-293.2c-15.33,0-27.77,12.159-27.77,27.143s12.441,27.144,27.77,27.144,27.77-12.16,27.77-27.144S-1307.124-293.2-1322.455-293.2Z" transform="translate(0 0)"/><path class="b" d="M-1305.246-267.31c-14.677,0-26.587,11.629-26.587,25.961s11.91,25.969,26.587,25.969,26.6-11.637,26.6-25.969S-1290.568-267.31-1305.246-267.31Zm.009.6a.78.78,0,0,1,.438.134.791.791,0,0,1,.293.38v.008l.007.008.887,3.141a21.978,21.978,0,0,1,20.639,21.685,21.245,21.245,0,0,1-2.21,9.45l2.283,2.245.008.008.008.007a.743.743,0,0,1,.186.43.739.739,0,0,1-.1.451.754.754,0,0,1-.349.31.8.8,0,0,1-.472.055h-.023l-3.137-.8a22.415,22.415,0,0,1-18.47,9.593,22.4,22.4,0,0,1-18.461-9.593l-3.127.81h-.025a.8.8,0,0,1-.471-.064.767.767,0,0,1-.349-.31.738.738,0,0,1-.1-.443.751.751,0,0,1,.187-.43l.008-.008.008-.007,2.275-2.245a21.243,21.243,0,0,1-2.21-9.458,21.972,21.972,0,0,1,20.647-21.686l.871-3.133.007-.016v-.008a.786.786,0,0,1,.293-.38A.785.785,0,0,1-1305.237-266.707Zm0,.316a.474.474,0,0,0-.269.08.459.459,0,0,0-.17.222l-1.934,6.982a.691.691,0,0,0-.025.437.623.623,0,0,0,.253.326,2.162,2.162,0,0,1,.641,1.1,1.886,1.886,0,0,1,.073,1.239,2.259,2.259,0,0,1-.732,1.142,5.821,5.821,0,0,0-1.567,1.935,5.535,5.535,0,0,0-.479,2.389v2.014l-9.995-5.632-1.106,1.856,11.1,6.252v2.269l-2,1.127-11.1-6.26-1.106,1.873,9.995,5.633-1.788,1.008a5.689,5.689,0,0,0-1.869,1.6,5.731,5.731,0,0,0-.943,2.293,2.229,2.229,0,0,1-.642,1.19,1.978,1.978,0,0,1-1.138.547,2.277,2.277,0,0,1-1.291.025.671.671,0,0,0-.421-.048.711.711,0,0,0-.383.214l-5.208,5.15a.454.454,0,0,0-.114.254.405.405,0,0,0,.057.254.466.466,0,0,0,.2.19.473.473,0,0,0,.275.032l7.167-1.857a.692.692,0,0,0,.39-.2.637.637,0,0,0,.171-.38,2.138,2.138,0,0,1,.658-1.087,2,2,0,0,1,1.064-.683,2.354,2.354,0,0,1,1.374.057,6.076,6.076,0,0,0,2.5.349,5.856,5.856,0,0,0,2.356-.786l1.788-1.009v11.268h2.2v-12.5l2.006-1.134,2,1.126v12.513h2.209v-11.268l1.788,1.009a5.878,5.878,0,0,0,2.357.786,6.094,6.094,0,0,0,2.5-.359A2.388,2.388,0,0,1-1293-232.9a1.959,1.959,0,0,1,1.048.682,2.14,2.14,0,0,1,.666,1.079.646.646,0,0,0,.171.381.714.714,0,0,0,.382.222l7.175,1.834a.476.476,0,0,0,.276-.031.446.446,0,0,0,.2-.183.43.43,0,0,0,.057-.262.457.457,0,0,0-.107-.255l-5.225-5.132a.714.714,0,0,0-.374-.23.667.667,0,0,0-.422.048,2.259,2.259,0,0,1-1.291-.016,1.988,1.988,0,0,1-1.138-.554,2.245,2.245,0,0,1-.642-1.19,5.7,5.7,0,0,0-.934-2.294,5.716,5.716,0,0,0-1.886-1.594l-1.779-1.008,9.995-5.633-1.1-1.864-11.1,6.26-2-1.126v-2.269l11.1-6.253-1.106-1.864-9.995,5.633v-2.015a5.551,5.551,0,0,0-.486-2.389,5.842,5.842,0,0,0-1.569-1.935,2.259,2.259,0,0,1-.731-1.142,1.887,1.887,0,0,1,.081-1.239,2.139,2.139,0,0,1,.626-1.1.639.639,0,0,0,.259-.326.683.683,0,0,0,0-.437l-1.966-6.982a.453.453,0,0,0-.162-.222A.435.435,0,0,0-1305.237-266.39Zm0,13.5a2.046,2.046,0,0,1,1.414.572,1.946,1.946,0,0,1,.586,1.38v3.666l-2,1.126-2.007-1.135v-3.658a1.953,1.953,0,0,1,.584-1.38A2.061,2.061,0,0,1-1305.237-252.894Zm.008,9.228,1.991,1.127v2.268l-1.991,1.127-2.015-1.135v-2.254Zm-6.216,3.508,2,1.126v2.269l-3.241,1.825a2.073,2.073,0,0,1-1.52.191,2.035,2.035,0,0,1-1.218-.912,1.935,1.935,0,0,1-.195-1.484,1.954,1.954,0,0,1,.927-1.182Zm12.424,0,3.242,1.825a1.979,1.979,0,0,1,.934,1.182,1.949,1.949,0,0,1-.2,1.491,2.023,2.023,0,0,1-1.219.9,2.061,2.061,0,0,1-1.511-.19l-3.251-1.833v-2.254Z" transform="translate(-17.115 -24.093)"/><path class="c" d="M-1306.637-276.2c-14.678,0-26.587,11.628-26.587,25.96s11.91,25.969,26.587,25.969,26.595-11.637,26.595-25.969S-1291.959-276.2-1306.637-276.2Zm.008.6a.776.776,0,0,1,.438.135.786.786,0,0,1,.292.381v.007l.008.009.886,3.141a21.978,21.978,0,0,1,20.64,21.684,21.25,21.25,0,0,1-2.21,9.45l2.284,2.246.008.007.008.008a.753.753,0,0,1,.186.428.74.74,0,0,1-.1.452.763.763,0,0,1-.349.31.788.788,0,0,1-.471.056h-.025l-3.136-.8a22.413,22.413,0,0,1-18.469,9.593,22.4,22.4,0,0,1-18.463-9.593l-3.127.81h-.025a.8.8,0,0,1-.471-.064.767.767,0,0,1-.349-.31.728.728,0,0,1-.1-.443.743.743,0,0,1,.186-.43l.008-.007.008-.008,2.275-2.245a21.229,21.229,0,0,1-2.21-9.458,21.97,21.97,0,0,1,20.648-21.684l.869-3.135.007-.016v-.007a.789.789,0,0,1,.292-.381A.784.784,0,0,1-1306.629-275.6Zm0,.317a.477.477,0,0,0-.269.08.456.456,0,0,0-.169.222l-1.934,6.982a.674.674,0,0,0-.024.43.642.642,0,0,0,.252.332,2.169,2.169,0,0,1,.642,1.1,1.878,1.878,0,0,1,.073,1.238,2.253,2.253,0,0,1-.74,1.142,5.816,5.816,0,0,0-1.56,1.935,5.521,5.521,0,0,0-.479,2.39v2.015l-10-5.633-1.1,1.856,11.1,6.252v2.268l-2,1.127-11.1-6.26-1.106,1.864,9.995,5.641-1.787,1.008a5.74,5.74,0,0,0-1.877,1.6,5.693,5.693,0,0,0-.934,2.294,2.245,2.245,0,0,1-.642,1.19,1.984,1.984,0,0,1-1.138.546,2.261,2.261,0,0,1-1.292.024.665.665,0,0,0-.423-.047.688.688,0,0,0-.382.213l-5.216,5.149a.455.455,0,0,0-.106.255.4.4,0,0,0,.056.254.468.468,0,0,0,.2.184.5.5,0,0,0,.277.038l7.166-1.857a.7.7,0,0,0,.39-.2.653.653,0,0,0,.171-.38,2.129,2.129,0,0,1,.657-1.087,1.97,1.97,0,0,1,1.065-.682,2.348,2.348,0,0,1,1.373.056,6.068,6.068,0,0,0,2.5.348,5.844,5.844,0,0,0,2.356-.784l1.788-1.009v11.266h2.2v-12.5l2.007-1.135,2,1.126v12.512h2.21v-11.266l1.779,1.009a5.912,5.912,0,0,0,2.364.784,6.06,6.06,0,0,0,2.5-.357,2.375,2.375,0,0,1,1.381-.055,1.958,1.958,0,0,1,1.049.69,2.141,2.141,0,0,1,.665,1.079.647.647,0,0,0,.171.381.725.725,0,0,0,.382.222l7.175,1.834a.484.484,0,0,0,.277-.031.456.456,0,0,0,.2-.184.434.434,0,0,0,.056-.261.455.455,0,0,0-.106-.254l-5.225-5.133a.7.7,0,0,0-.374-.229.671.671,0,0,0-.423.047,2.252,2.252,0,0,1-1.291-.016,2,2,0,0,1-1.137-.556,2.24,2.24,0,0,1-.642-1.189,5.7,5.7,0,0,0-.934-2.294,5.735,5.735,0,0,0-1.885-1.6l-1.787-1.008,10-5.641-1.106-1.857-11.1,6.26-2-1.127v-2.269l11.1-6.251-1.1-1.865-9.995,5.633v-2.016a5.53,5.53,0,0,0-.487-2.389,5.844,5.844,0,0,0-1.568-1.935,2.242,2.242,0,0,1-.731-1.142,1.879,1.879,0,0,1,.081-1.238,2.142,2.142,0,0,1,.626-1.1.659.659,0,0,0,.26-.333.661.661,0,0,0,0-.428l-1.966-6.983a.485.485,0,0,0-.17-.223A.423.423,0,0,0-1306.629-275.278Zm0,13.5a2.045,2.045,0,0,1,1.414.571,1.948,1.948,0,0,1,.585,1.381v3.665l-2,1.127-2.007-1.135v-3.658a1.949,1.949,0,0,1,.585-1.38A2.061,2.061,0,0,1-1306.629-261.782Zm0,9.228,2,1.126v2.27l-1.99,1.126-2.015-1.134v-2.253Zm-6.216,3.5,2.007,1.135v2.268l-3.242,1.826a2.075,2.075,0,0,1-1.52.19,2.026,2.026,0,0,1-1.219-.912,1.93,1.93,0,0,1-.2-1.483,1.972,1.972,0,0,1,.927-1.19Zm12.424,0,3.25,1.834a1.969,1.969,0,0,1,.934,1.181,1.951,1.951,0,0,1-.212,1.491,2,2,0,0,1-1.212.9,2.073,2.073,0,0,1-1.519-.192l-3.243-1.825v-2.269Z" transform="translate(-15.821 -15.822)"/><path class="d" d="M-484.116-229.4l10.242,30.433v14.865h10.105V-198.97L-454.1-229.4h-9.135l-5.739,19.776-5.575-19.776Zm63.081,0v45.3h8.405v-29.377l4.817,29.377h6.347l4.807-29.377v29.377h8.563v-45.3H-400.93l-3.661,21.548-3.528-21.548Zm71.93,0v45.3h9.369V-203.2h7.981v19.092h9.146v-45.3h-9.146v18.021h-7.981V-229.4Zm39.807-.009-8.1,45.305h9.138l1.8-11.067h7l1.765,11.067h9.216l-8.1-45.305Zm6.421,9.935,2.382,16.39h-4.864Zm-72.038-9.935-8.1,45.305h9.137l1.8-11.067h7l1.764,11.067h9.217l-8.1-45.305h-12.729Zm6.421,9.935,2.383,16.39h-4.865Zm-78.313-9.935-8.1,45.305h9.138l1.8-11.067h7l1.764,11.067h9.217l-8.1-45.305Zm6.42,9.935,2.383,16.39h-4.866Z" transform="translate(-811.753 -59.359)"/></g></svg>