<svg xmlns="http://www.w3.org/2000/svg" width="100" height="100" viewBox="0 0 100 100"><defs><style>.a,.d{fill:none;}.a{stroke:#9b9b9b;stroke-width:2px;}.b{fill:#9b9b9b;}.c{stroke:none;}</style></defs><g transform="translate(-0.001)"><g transform="translate(0.001)"><g class="a"><circle class="c" cx="50" cy="50" r="50"/><circle class="d" cx="50" cy="50" r="49"/></g><g transform="translate(26.676 26.456)"><path class="b" d="M.914,48a.955.955,0,0,1-.955-.955V34.525a.958.958,0,0,1,.182-.492,1,1,0,0,1,.144-.155l.061-.05,5.068-3.841a.951.951,0,0,1,.577-.185H25.585V25.894h-.108a.956.956,0,0,1-.937-.764l-1.91-9.579a.955.955,0,0,1,.937-1.146h3.286L25.6,5.92a.955.955,0,0,1,.944-1.1h7.642V1.91H32.845a.955.955,0,0,1,0-1.91H37.43a.955.955,0,1,1,0,1.91H36.093V4.824h7.642a.955.955,0,0,1,.945,1.1L43.422,14.4h3.287a.955.955,0,0,1,.937,1.146l-1.91,9.579a.956.956,0,0,1-.937.764h-.11V47.045a.955.955,0,0,1-.955.955Zm39.513-1.91h2.352v-20.2H27.5v20.2h2.354v-10.1a.955.955,0,0,1,.955-.955h8.667a.955.955,0,0,1,.955.955Zm-8.667,0h6.757V36.946H31.76Zm-8.193,0h2.019V35.554H1.869V46.09H14.451V38.463a.954.954,0,0,1,.955-.955h7.2a.955.955,0,0,1,.955.955Zm-7.2,0h5.294V39.423H16.362ZM3.753,33.644h21.83V31.713H6.312Zm22.5-9.66H44.016l1.528-7.67H24.731Zm2.524-9.58H41.491l1.134-7.668H27.649ZM12.617,39.423H3.949a.955.955,0,1,1,0-1.91h8.668a.955.955,0,0,1,0,1.91Zm26.854-9.6H30.8a.955.955,0,0,1,0-1.91h8.667a.955.955,0,0,1,0,1.91Zm-34.3-4.351a.955.955,0,0,1-.579-1.714l2.216-1.69a.955.955,0,1,1,1.158,1.52l-2.216,1.69A.956.956,0,0,1,5.169,25.472Zm2.216-5.342a.955.955,0,0,1-.579-1.716L13.4,13.393a.955.955,0,1,1,1.158,1.52L7.964,19.933a.944.944,0,0,1-.578.2Zm-.931-4.39a.946.946,0,0,1-.536-.166L.378,11.809a.955.955,0,0,1,.464-1.747l5.6-.429,1.2-.866L4.68,5.805a.955.955,0,0,1,.755-1.628l7.718.622L16.465,2.4a4.18,4.18,0,0,1,5.836.942.954.954,0,0,1-.215,1.333L7.017,15.56a.959.959,0,0,1-.563.181ZM3.71,11.763l2.732,1.856L20.025,3.812a2.28,2.28,0,0,0-2.44.136l-3.6,2.606a.955.955,0,0,1-.637.177L7.869,6.29,9.792,8.214a.954.954,0,0,1-.116,1.451l-2.331,1.68a.958.958,0,0,1-.485.177Zm33.23-.239h-3.6a.955.955,0,1,1,0-1.91h3.6a.955.955,0,1,1,0,1.91Z" transform="translate(0.047)"/></g></g></g></svg>