<svg xmlns="http://www.w3.org/2000/svg" width="49.607" height="50" viewBox="0 0 49.607 50"><g transform="translate(0 0)"><path d="M41.082,50H32.071a.99.99,0,0,1-.425-.1H23.978a1,1,0,0,1-.425.1H16.062a.99.99,0,0,1-.425-.1H.994A.993.993,0,0,1,0,48.912V35.9a1,1,0,0,1,.189-.511,1.035,1.035,0,0,1,.15-.162L.4,35.171l5.269-3.994a.989.989,0,0,1,.6-.192H26.645V26.921h-.113a.994.994,0,0,1-.975-.794l-1.986-9.959a.993.993,0,0,1,.975-1.192h3.416L26.657,6.155a.993.993,0,0,1,.981-1.139h7.945V1.986h-1.39a.993.993,0,0,1,0-1.986h4.767a.993.993,0,1,1,0,1.986h-1.39v3.03h7.945A.993.993,0,0,1,46.5,6.155l-1.307,8.82h3.418a.993.993,0,0,1,.975,1.192L47.6,26.126a.994.994,0,0,1-.975.794h-.114V48.912a.993.993,0,0,1-.993.993H41.507a.99.99,0,0,1-.425.1Zm.993-2.082h2.446v-21H28.631v21h2.447v-10.5a.993.993,0,0,1,.993-.993h9.011a.993.993,0,0,1,.993.993Zm-9.011,0h7.025V38.412H33.064Zm-8.518,0h2.1V36.965H1.988V47.918H15.069V39.989A.992.992,0,0,1,16.062,39h7.491a.993.993,0,0,1,.993.993Zm-7.491,0h5.5V40.988h-5.5ZM3.946,34.979h22.7V32.971H6.606Zm23.4-10.044H45.806L47.4,16.961H25.756Zm2.624-9.96H43.182L44.36,7H28.79ZM13.162,40.988H4.15A.993.993,0,1,1,4.15,39h9.012a.993.993,0,0,1,0,1.986Zm27.92-9.981H32.071a.993.993,0,0,1,0-1.986h9.011a.993.993,0,0,1,0,1.986ZM5.418,26.483a.993.993,0,0,1-.6-1.782l2.3-1.757a.993.993,0,1,1,1.2,1.58L6.02,26.28A.994.994,0,0,1,5.418,26.483Zm2.3-5.553a.993.993,0,0,1-.6-1.784l6.852-5.221a.993.993,0,1,1,1.2,1.58l-6.853,5.22a.981.981,0,0,1-.6.2Zm-.968-4.564a.984.984,0,0,1-.557-.172L.437,12.278a.993.993,0,0,1,.482-1.817l5.826-.446,1.247-.9L4.91,6.035A.993.993,0,0,1,5.7,4.343l8.024.646L17.162,2.5a4.346,4.346,0,0,1,6.067.98.992.992,0,0,1-.224,1.386L7.34,16.177A1,1,0,0,1,6.755,16.365ZM3.9,12.23l2.84,1.929,14.122-10.2a2.37,2.37,0,0,0-2.537.142L14.582,6.814A.993.993,0,0,1,13.92,7L8.226,6.54l2,2a.992.992,0,0,1-.12,1.508L7.681,11.794a1,1,0,0,1-.5.184Zm34.548-.249H34.7a.993.993,0,1,1,0-1.986h3.746a.993.993,0,1,1,0,1.986Z" transform="translate(0.005)"/></g></svg>