<svg xmlns="http://www.w3.org/2000/svg" width="100" height="100" viewBox="0 0 100 100"><defs><style>.a{fill:#f18f20;}.b{fill:#fff;}</style></defs><g transform="translate(0 -0.181)"><g transform="translate(0)"><circle class="a" cx="50" cy="50" r="50" transform="translate(0 0.181)"/><g transform="translate(34.592 26.456)"><path class="b" d="M7.609,48.5H1.447a.955.955,0,0,1,0-1.91h5.4l3.647-15.8a.039.039,0,0,1,0-.01l3.635-15.752a4.373,4.373,0,1,1,3.973,0l2.356,10.209a.061.061,0,0,0,.009.038L23.16,36.941a.024.024,0,0,1,0,.01l2.224,9.637h5.47a.955.955,0,0,1,0,1.91H7.609Zm2.993-1.91H23.43l-1.805-7.824Zm1.467-14.131L9.1,45.312l11.36-8.064Zm1.158-1.538,7.587,4.328L18.92,27.042ZM15.982,15.5,12.9,28.83l5.553-3.786-2.2-9.548c-.089.005-.181.005-.272,0Zm.137-6.831a2.462,2.462,0,1,0,2.462,2.465,2.462,2.462,0,0,0-2.462-2.465ZM27.5,21.759a.954.954,0,0,1-.715-1.58A12.784,12.784,0,0,0,25.526,2.172.955.955,0,1,1,26.781.734a14.694,14.694,0,0,1,1.441,20.7.951.951,0,0,1-.726.328Zm-22.692,0a.951.951,0,0,1-.722-.328A14.7,14.7,0,0,1,5.521.734.955.955,0,0,1,6.777,2.172,12.787,12.787,0,0,0,5.521,20.179a.954.954,0,0,1-.721,1.58Zm18.485-4.122a.954.954,0,0,1-.721-1.58,6.934,6.934,0,0,0-.681-9.766.955.955,0,1,1,1.257-1.437A8.841,8.841,0,0,1,24.011,17.3a.955.955,0,0,1-.722.334Zm-14.277,0a.952.952,0,0,1-.722-.33A8.839,8.839,0,0,1,9.157,4.857a.955.955,0,1,1,1.257,1.433,6.931,6.931,0,0,0-.681,9.762.954.954,0,0,1-.721,1.58Z" transform="translate(-0.491 -0.498)"/></g></g></g></svg>