<svg xmlns="http://www.w3.org/2000/svg" width="100" height="100" viewBox="0 0 100 100"><defs><style>.a{fill:none;}.b{fill:#9b9b9b;}.c,.d{stroke:none;}.d{fill:#9b9b9b;}</style></defs><g class="a"><path class="c" d="M50,0A50,50,0,1,1,0,50,50,50,0,0,1,50,0Z"/><path class="d" d="M 50 2 C 43.51915740966797 2 37.23324203491211 3.268829345703125 31.31684112548828 5.771255493164062 C 25.60127258300781 8.188743591308594 20.46775817871094 11.64998626708984 16.05886840820312 16.05886840820312 C 11.64998626708984 20.46775817871094 8.188743591308594 25.60127258300781 5.771255493164062 31.31684112548828 C 3.268829345703125 37.23324203491211 2 43.51915740966797 2 50 C 2 56.48084259033203 3.268829345703125 62.76675796508789 5.771255493164062 68.68314361572266 C 8.188743591308594 74.39871215820312 11.64998626708984 79.53224182128906 16.05886840820312 83.94113159179688 C 20.46775817871094 88.34999847412109 25.60127258300781 91.81125640869141 31.31684112548828 94.22874450683594 C 37.23324203491211 96.73117065429688 43.51915740966797 98 50 98 C 56.48084259033203 98 62.76675796508789 96.73117065429688 68.68314361572266 94.22874450683594 C 74.39871215820312 91.81125640869141 79.53224182128906 88.34999847412109 83.94113159179688 83.94113159179688 C 88.34999847412109 79.53224182128906 91.81125640869141 74.39871215820312 94.22874450683594 68.68314361572266 C 96.73117065429688 62.76675796508789 98 56.48084259033203 98 50 C 98 43.51915740966797 96.73117065429688 37.23324203491211 94.22874450683594 31.31684112548828 C 91.81125640869141 25.60127258300781 88.34999847412109 20.46775817871094 83.94113159179688 16.05886840820312 C 79.53224182128906 11.64998626708984 74.39871215820312 8.188743591308594 68.68314361572266 5.771255493164062 C 62.76675796508789 3.268829345703125 56.48084259033203 2 50 2 M 50 0 C 77.61422729492188 0 100 22.38575744628906 100 50 C 100 77.61422729492188 77.61422729492188 100 50 100 C 22.38575744628906 100 0 77.61422729492188 0 50 C 0 22.38575744628906 22.38575744628906 0 50 0 Z"/></g><g transform="translate(35 25)"><path class="b" d="M17.99,50.5a1,1,0,0,1-.683-.272l-3.923-3.7L6.957,44.547a.985.985,0,0,1-.369-.207l-4.6-4.092a.993.993,0,0,1-.293-1.026L3.9,31.8,1,30.139a1,1,0,0,1-.5-.865v-6.01a1,1,0,0,1,.995-.995H5.3l-1.3-4.616a.981.981,0,0,1,0-.53L5.136,12.78a1,1,0,0,1,.721-.711l2.315-.578V7.025a1,1,0,0,1,.818-.979L20.372,4a.979.979,0,0,1,.4.008l.495.11a1,1,0,0,1,.183-.928L23.361.863a.993.993,0,0,1,1.125-.3l4.732,1.821a1,1,0,0,1,.6,1.2L23.186,26.944,18.969,49.686a1,1,0,0,1-.979.814ZM7.749,42.711l6.442,1.981a.991.991,0,0,1,.39.228l2.765,2.608,3.887-20.992a.357.357,0,0,1,.021-.09l6.4-22.528L24.436,2.68l-1.1,1.326.432,1.126a1,1,0,0,1-1.144,1.326L20.522,5.99,10.162,7.86v4.407a1,1,0,0,1-.753.965l-2.5.625-.928,3.517,1.591,5.62a.995.995,0,0,1-.957,1.265H2.489V28.7l3.079,1.76a1,1,0,0,1,.46,1.147L3.774,39.182Z" transform="translate(-0.5 -0.5)"/></g></svg>