<svg xmlns="http://www.w3.org/2000/svg" width="100" height="100" viewBox="0 0 100 100"><defs><style>.a{fill:#f18f20;}.b{fill:#fff;}</style></defs><path class="a" d="M50,0A50,50,0,1,1,0,50,50,50,0,0,1,50,0Z"/><g transform="translate(35 25)"><path class="b" d="M17.99,50.5a1,1,0,0,1-.683-.272l-3.923-3.7L6.957,44.547a.985.985,0,0,1-.369-.207l-4.6-4.092a.993.993,0,0,1-.293-1.026L3.9,31.8,1,30.139a1,1,0,0,1-.5-.865v-6.01a1,1,0,0,1,.995-.995H5.3l-1.3-4.616a.981.981,0,0,1,0-.53L5.136,12.78a1,1,0,0,1,.721-.711l2.315-.578V7.025a1,1,0,0,1,.818-.979L20.372,4a.979.979,0,0,1,.4.008l.495.11a1,1,0,0,1,.183-.928L23.361.863a.993.993,0,0,1,1.125-.3l4.732,1.821a1,1,0,0,1,.6,1.2L23.186,26.944,18.969,49.686a1,1,0,0,1-.979.814ZM7.749,42.711l6.442,1.981a.991.991,0,0,1,.39.228l2.765,2.608,3.887-20.992a.357.357,0,0,1,.021-.09l6.4-22.528L24.436,2.68l-1.1,1.326.432,1.126a1,1,0,0,1-1.144,1.326L20.522,5.99,10.162,7.86v4.407a1,1,0,0,1-.753.965l-2.5.625-.928,3.517,1.591,5.62a.995.995,0,0,1-.957,1.265H2.489V28.7l3.079,1.76a1,1,0,0,1,.46,1.147L3.774,39.182Z" transform="translate(-0.5 -0.5)"/></g></svg>