<svg xmlns="http://www.w3.org/2000/svg" width="100" height="100" viewBox="0 0 100 100"><defs><style>.a,.d{fill:none;}.a{stroke:#9b9b9b;stroke-width:2px;}.b{fill:#9b9b9b;}.c{stroke:none;}</style></defs><g transform="translate(0.001)"><g transform="translate(-0.001)"><g class="a"><circle class="c" cx="50" cy="50" r="50"/><circle class="d" cx="50" cy="50" r="49"/></g><g transform="translate(25.106 26.456)"><path class="b" d="M38.3,47.995a.955.955,0,0,1-.955-.955v-26.9a.874.874,0,0,1,0-.116v-.4A17.719,17.719,0,1,0,19.628,37.347h6.948V28.486H19.628a8.861,8.861,0,1,1,8.861-8.861V47.045a.955.955,0,1,1-1.91,0V39.257H19.628A19.628,19.628,0,1,1,39.257,19.628v7.1h7.789a.955.955,0,1,1,0,1.91H39.257V31.8h3.417a.955.955,0,0,1,0,1.91H39.257v3.635h7.789a.955.955,0,1,1,0,1.91H39.257v7.789a.955.955,0,0,1-.955.95ZM19.628,12.677a6.951,6.951,0,0,0,0,13.9h6.948V19.628A6.96,6.96,0,0,0,19.628,12.677ZM32.757,47.995a.955.955,0,0,1-.955-.955V36.919a.955.955,0,0,1,1.91,0V47.046a.955.955,0,0,1-.955.948ZM19.628,33.712A14,14,0,0,1,8.5,28.262a.955.955,0,1,1,1.507-1.171,12.109,12.109,0,0,0,9.618,4.71.955.955,0,0,1,0,1.91Zm13.129-4.288a.955.955,0,0,1-.955-.955V17.912a.955.955,0,0,1,1.91,0V28.47a.955.955,0,0,1-.955.955ZM6.5,20.583a.955.955,0,0,1-.955-.955A14.087,14.087,0,0,1,11.686,8a.955.955,0,0,1,1.08,1.575A12.178,12.178,0,0,0,7.454,19.63a.955.955,0,0,1-.955.954Zm23.613-7.906a.952.952,0,0,1-.764-.382,12.094,12.094,0,0,0-9.721-4.838.955.955,0,0,1,0-1.91,13.977,13.977,0,0,1,11.244,5.6.954.954,0,0,1-.19,1.334.943.943,0,0,1-.569.194Z"/></g></g></g></svg>