<svg xmlns="http://www.w3.org/2000/svg" width="100" height="100" viewBox="0 0 100 100"><defs><style>.a{fill:#f18f20;}.b{fill:#fff;}</style></defs><g transform="translate(0)"><g transform="translate(0)"><path class="a" d="M50,0A50,50,0,1,1,0,50,50,50,0,0,1,50,0Z"/><g transform="translate(26 26)"><path class="b" d="M46.922,48.5H1.434a.942.942,0,0,1-.942-.941V26.8a.945.945,0,0,1,.346-.642.918.918,0,0,1,.09-.065l12.808-8.352a.941.941,0,0,1,1.456.789v6.621l11.363-7.414a.942.942,0,0,1,1.458.789v7.414h3.781l.856-11.309v-.031l.333-4.392a.941.941,0,0,1,.94-.871h7.665a.941.941,0,0,1,.939.871l.334,4.4v.011l.863,11.334h3.2a.942.942,0,0,1,.942.942V47.559a.942.942,0,0,1-.942.941ZM2.371,46.615h43.6V27.831H2.376ZM33.689,25.946h8.145l-.78-10.3H34.468Zm-16.265,0h8.708V20.263Zm-12.817,0h8.707V20.263Zm30-12.189h6.3l-.191-2.523H34.8Zm.484,24.413H22.372a.942.942,0,0,1-.942-.942V31.852a.942.942,0,0,1,.942-.942H35.095a.942.942,0,0,1,.942.942V37.22a.942.942,0,0,1-.942.944Zm-11.78-1.885H34.149V32.8H23.314ZM18.127,38.17H5.408a.942.942,0,0,1-.942-.942V31.852a.942.942,0,0,1,.942-.942H18.131a.942.942,0,0,1,.942.942V37.22a.942.942,0,0,1-.942.944ZM6.347,36.285H17.185V32.8H6.351Zm9.537-23.243H4.1a3.607,3.607,0,1,1,0-7.215H6.721A3.606,3.606,0,0,1,9.89.5h28.9a3.606,3.606,0,0,1,0,7.213H19.05a3.605,3.605,0,0,1-3.165,5.329ZM4.1,7.713a1.723,1.723,0,0,0,0,3.444H15.884a1.723,1.723,0,0,0,0-3.444.942.942,0,0,1,0-1.885h22.9a1.722,1.722,0,1,0,0-3.443H9.89a1.722,1.722,0,1,0,0,3.443.942.942,0,0,1,0,1.885Z" transform="translate(-0.49 -0.5)"/></g></g></g></svg>