<svg xmlns="http://www.w3.org/2000/svg" xmlns:xlink="http://www.w3.org/1999/xlink" width="69" height="69" viewBox="0 0 69 69"><defs><style>.a{fill:#f18f20;}.b{fill:#fff;}.c{filter:url(#a);}</style><filter id="a" x="0" y="0" width="69" height="69" filterUnits="userSpaceOnUse"><feOffset dy="3" input="SourceAlpha"/><feGaussianBlur stdDeviation="1.5" result="b"/><feFlood flood-opacity="0.161"/><feComposite operator="in" in2="b"/><feComposite in="SourceGraphic"/></filter></defs><g transform="translate(4.5 1.5)"><g class="c" transform="matrix(1, 0, 0, 1, -4.5, -1.5)"><path class="a" d="M30,0A30,30,0,1,1,0,30,30,30,0,0,1,30,0Z" transform="translate(4.5 1.5)"/></g><g transform="translate(12.861 12.405)"><g transform="translate(0.021 -0.005)"><path class="b" d="M15.089,30.075a15.039,15.039,0,1,1,14.6-11.553,15.145,15.145,0,0,1-14.6,11.553ZM15.06,1.488A13.544,13.544,0,1,0,28.234,18.176h0A13.546,13.546,0,0,0,15.06,1.488Z" transform="translate(-0.021 0.005)"/><path class="b" d="M45.859,57.47a11.635,11.635,0,1,1,11.317-8.936h0A11.655,11.655,0,0,1,45.859,57.47Zm-.018-21.782a10.158,10.158,0,1,0,2.37.283A10.158,10.158,0,0,0,45.842,35.688ZM56.45,48.361Z" transform="translate(-30.82 -30.796)"/><path class="b" d="M144.416,103.255a.746.746,0,0,1-.746-.746v-10.4a.746.746,0,1,1,1.492,0v10.4A.746.746,0,0,1,144.416,103.255Z" transform="translate(-129.377 -82.27)"/><path class="b" d="M102.549,145.132h-10.4a.746.746,0,1,1,0-1.492h10.4a.746.746,0,0,1,0,1.492Z" transform="translate(-82.308 -129.348)"/><path class="b" d="M248.287,239.408a2.415,2.415,0,0,1-1.718-.711l-8.175-8.175a.747.747,0,0,1,1.058-1.056l8.173,8.178a.937.937,0,0,0,1.325-1.324l-8.287-8.288a.746.746,0,0,1,1.055-1.055l8.288,8.287a2.43,2.43,0,0,1-1.718,4.147Z" transform="translate(-214.48 -204.213)"/></g></g></g></svg>