<svg xmlns="http://www.w3.org/2000/svg" width="100" height="100" viewBox="0 0 100 100"><defs><style>.a{fill:#f18f20;}.b{fill:#fff;}</style></defs><path class="a" d="M50,0A50,50,0,1,1,0,50,50,50,0,0,1,50,0Z"/><g transform="translate(25 26)"><path class="b" d="M49.089,43.863a5.14,5.14,0,0,0-5.3.176l-1.326.858a7.13,7.13,0,0,1-3.44,1.134l5.772-17.661a.988.988,0,0,0-.457-1.169l-4.794-2.679V16.517a.987.987,0,0,0-.987-.987H37.189v-2.6a.987.987,0,0,0-.987-.987H32.878v-2.6a.987.987,0,0,0-.987-.987h-3.7V.987A.987.987,0,0,0,27.2,0H21.991A.987.987,0,0,0,21,.987V8.356H17.3a.987.987,0,0,0-.987.987v2.6H12.99A.987.987,0,0,0,12,12.93v2.6H10.64a.987.987,0,0,0-.987.987V24.7L5.189,27.2a.987.987,0,0,0-.455,1.169l4.8,14.705h-.3a9.042,9.042,0,0,0-5.4,1.984,1.987,1.987,0,0,1-2.338.105A.987.987,0,1,0,.424,46.82a3.956,3.956,0,0,0,4.657-.211,7.172,7.172,0,0,1,8.531-.272,9.08,9.08,0,0,0,10.144.189l1.086-.7a7.114,7.114,0,0,1,7.9.113l.7.479a9.113,9.113,0,0,0,3.8,1.5.921.921,0,0,0,.118.047.959.959,0,0,0,.307.05,1,1,0,0,0,.208-.025c.239.018.48.029.72.029a9.1,9.1,0,0,0,4.954-1.467l1.315-.857a3.167,3.167,0,0,1,3.27-.108.987.987,0,1,0,.961-1.725ZM37.567,23.423,26.987,17.5h10.58ZM22.978,1.974h3.237V8.356H22.978ZM18.29,10.33H30.9v1.613H18.29Zm-4.314,3.587H35.215v1.611H13.977ZM11.625,17.5h10.91l-10.91,6.1Zm3.117,27.214a9.061,9.061,0,0,0-3.044-1.38L6.86,28.529l4.245-2.369h0l12.633-7.066.024,11.983-.026,13.114-1.061.684a7.106,7.106,0,0,1-7.932-.157Zm19.111-.405A9.08,9.08,0,0,0,25.772,43.2L25.749,31.07l.024-11.989,16.89,9.448L37,45.866a7.158,7.158,0,0,1-2.446-1.074Z" transform="translate(0.022)"/><path class="b" d="M92.2,183.236l-8.757,5.583a.987.987,0,1,0,1.062,1.665l8.755-5.583a.987.987,0,0,0-1.059-1.665Z" transform="translate(-72.059 -159.003)"/><path class="b" d="M221.818,190.539a.987.987,0,0,0,.526-1.819l-8.755-5.583a.987.987,0,0,0-1.062,1.665l8.756,5.583A.987.987,0,0,0,221.818,190.539Z" transform="translate(-184.162 -158.903)"/></g></svg>