<svg xmlns="http://www.w3.org/2000/svg" width="51.659" height="50" viewBox="0 0 51.659 50"><g transform="translate(0.022)"><g transform="translate(-0.022)"><path d="M51.114,45.672a5.352,5.352,0,0,0-5.522.184l-1.381.893A7.424,7.424,0,0,1,40.63,47.93l6.01-18.389a1.029,1.029,0,0,0-.475-1.217l-4.992-2.79V17.2a1.028,1.028,0,0,0-1.028-1.028H38.724V13.463A1.028,1.028,0,0,0,37.7,12.436H34.235V9.728A1.028,1.028,0,0,0,33.207,8.7H29.352V1.028A1.028,1.028,0,0,0,28.324,0H22.9a1.028,1.028,0,0,0-1.028,1.028V8.7H18.018A1.028,1.028,0,0,0,16.99,9.728v2.707H13.526A1.028,1.028,0,0,0,12.5,13.463v2.7H11.079A1.028,1.028,0,0,0,10.052,17.2v8.528L5.4,28.327a1.028,1.028,0,0,0-.474,1.217l5,15.312H9.621A9.414,9.414,0,0,0,4,46.921a2.069,2.069,0,0,1-2.435.11A1.028,1.028,0,1,0,.443,48.75a4.119,4.119,0,0,0,4.849-.219,7.467,7.467,0,0,1,8.883-.284,9.454,9.454,0,0,0,10.563.2l1.13-.728a7.407,7.407,0,0,1,8.221.118l.728.5a9.488,9.488,0,0,0,3.952,1.561.959.959,0,0,0,.123.049A1,1,0,0,0,39.21,50a1.038,1.038,0,0,0,.216-.026c.249.019.5.03.749.03a9.473,9.473,0,0,0,5.158-1.527L46.7,47.58a3.3,3.3,0,0,1,3.4-.112,1.028,1.028,0,1,0,1-1.8Zm-12-21.283L28.1,18.223H39.117ZM23.926,2.055H27.3V8.7H23.926Zm-4.881,8.7H32.18v1.68H19.045Zm-4.491,3.735H36.668v1.677H14.554Zm-2.448,3.732h11.36l-11.36,6.355ZM15.351,46.56a9.435,9.435,0,0,0-3.169-1.437L7.144,29.705l4.42-2.466h0l13.154-7.358.025,12.477-.027,13.655-1.1.712a7.4,7.4,0,0,1-8.259-.163Zm19.9-.422a9.454,9.454,0,0,0-8.414-1.155l-.025-12.632.025-12.484,17.586,9.838L38.531,47.757a7.454,7.454,0,0,1-2.547-1.118Z" transform="translate(0.022)"/><path d="M92.585,183.242l-9.127,5.819a1.029,1.029,0,1,0,1.107,1.735l9.125-5.819a1.029,1.029,0,0,0-1.1-1.735Z" transform="translate(-71.612 -158.014)"/><path d="M222.23,190.858a1.029,1.029,0,0,0,.549-1.9l-9.125-5.819a1.029,1.029,0,0,0-1.107,1.735l9.126,5.819A1.029,1.029,0,0,0,222.23,190.858Z" transform="translate(-183.019 -157.915)"/></g></g></svg>