<svg xmlns="http://www.w3.org/2000/svg" width="37.479" height="50" viewBox="0 0 37.479 50"><g transform="translate(0 0)"><path d="M33.777,6.087H22.459l2.092-4.665A1.008,1.008,0,0,0,23.63,0H13.849a1.008,1.008,0,0,0-.925,1.421l2.092,4.665H3.7A3.705,3.705,0,0,0,0,9.784V39.819a3.7,3.7,0,0,0,3.7,3.7H5.587L2.053,48.4a1.009,1.009,0,0,0,1.638,1.179l1.75-2.434H32.074l1.707,2.42a1.009,1.009,0,0,0,1.652-1.16l-3.446-4.894h1.791a3.7,3.7,0,0,0,3.7-3.7V9.784a3.705,3.705,0,0,0-3.7-3.7ZM22.071,2.017,20.283,6H17.2L15.408,2.017ZM6.95,45.129l1.13-1.613H29.516l1.13,1.613Zm28.51-5.311A1.684,1.684,0,0,1,33.777,41.5H3.7a1.684,1.684,0,0,1-1.683-1.681V9.784A1.684,1.684,0,0,1,3.7,8.1H33.777A1.684,1.684,0,0,1,35.46,9.784Z" transform="translate(0 0)"/><path d="M50.132,105.742H67.705a3.706,3.706,0,0,0,3.7-3.7V95.4a3.706,3.706,0,0,0-3.7-3.7H50.132a3.706,3.706,0,0,0-3.7,3.7v6.64A3.706,3.706,0,0,0,50.132,105.742ZM69.394,95.4v6.64a1.684,1.684,0,0,1-1.683,1.683H59.929V93.719h7.776A1.684,1.684,0,0,1,69.394,95.4Zm-20.939,0a1.684,1.684,0,0,1,1.683-1.683H57.91v10H50.132a1.684,1.684,0,0,1-1.683-1.683Z" transform="translate(-40.179 -79.377)"/><path d="M43.736,222.84a3.736,3.736,0,1,0,3.736,3.736A3.736,3.736,0,0,0,43.736,222.84Zm0,5.452a1.717,1.717,0,1,1,1.717-1.717A1.717,1.717,0,0,1,43.736,228.292Z" transform="translate(-34.615 -192.886)"/><path d="M186.626,222.84a3.736,3.736,0,1,0,3.736,3.736A3.736,3.736,0,0,0,186.626,222.84Zm0,5.452a1.717,1.717,0,1,1,1.717-1.717A1.717,1.717,0,0,1,186.626,228.292Z" transform="translate(-158.268 -192.886)"/><path d="M118.145,240.52H112.78a1.01,1.01,0,1,0,0,2.019h5.365a1.01,1.01,0,1,0,0-2.019Z" transform="translate(-96.723 -208.184)"/></g></svg>