<svg xmlns="http://www.w3.org/2000/svg" xmlns:xlink="http://www.w3.org/1999/xlink" width="80" height="80" viewBox="0 0 80 80">
  <defs>
    <clipPath id="clip-path">
      <rect id="Rectangle_17529" data-name="Rectangle 17529" width="80" height="80" transform="translate(1699 7474)" fill="#fff" stroke="#707070" stroke-width="1"/>
    </clipPath>
    <filter id="Union_21" x="-227.758" y="18.935" width="234.29" height="48.875" filterUnits="userSpaceOnUse">
      <feOffset dy="3" input="SourceAlpha"/>
      <feGaussianBlur stdDeviation="3" result="blur"/>
      <feFlood flood-opacity="0.161"/>
      <feComposite operator="in" in2="blur"/>
      <feComposite in="SourceGraphic"/>
    </filter>
  </defs>
  <g id="Mask_Group_78" data-name="Mask Group 78" transform="translate(-1699 -7474)" clip-path="url(#clip-path)">
    <g id="Path_23440" data-name="Path 23440" transform="translate(1699 7474)" fill="#fff">
      <path d="M 40 79.5 C 34.66731262207031 79.5 29.49441146850586 78.45570373535156 24.62496757507324 76.39610290527344 C 19.92140007019043 74.40665435791016 15.69705581665039 71.55848693847656 12.0692777633667 67.93072509765625 C 8.441511154174805 64.30294799804688 5.593344211578369 60.0786018371582 3.603899955749512 55.37503433227539 C 1.544299960136414 50.50558853149414 0.5 45.33268737792969 0.5 40 C 0.5 34.66731262207031 1.544299960136414 29.49441146850586 3.603899955749512 24.62496757507324 C 5.593344211578369 19.92140007019043 8.441511154174805 15.69705581665039 12.0692777633667 12.0692777633667 C 15.69705581665039 8.441511154174805 19.92140007019043 5.593344211578369 24.62496757507324 3.603899955749512 C 29.49441146850586 1.544299960136414 34.66731262207031 0.5 40 0.5 C 45.33268737792969 0.5 50.50558853149414 1.544299960136414 55.37503433227539 3.603899955749512 C 60.0786018371582 5.593344211578369 64.30294799804688 8.441511154174805 67.93072509765625 12.0692777633667 C 71.55848693847656 15.69705581665039 74.40665435791016 19.92140007019043 76.39610290527344 24.62496757507324 C 78.45570373535156 29.49441146850586 79.5 34.66731262207031 79.5 40 C 79.5 45.33268737792969 78.45570373535156 50.50558853149414 76.39610290527344 55.37503433227539 C 74.40665435791016 60.0786018371582 71.55848693847656 64.30294799804688 67.93072509765625 67.93072509765625 C 64.30294799804688 71.55848693847656 60.0786018371582 74.40665435791016 55.37503433227539 76.39610290527344 C 50.50558853149414 78.45570373535156 45.33268737792969 79.5 40 79.5 Z" stroke="none"/>
      <path d="M 40 1 C 34.73458862304688 1 29.62722396850586 2.031013488769531 24.81974411010742 4.064399719238281 C 20.17577743530273 6.028633117675781 16.00485610961914 8.8408203125 12.42283630371094 12.42283630371094 C 8.8408203125 16.00485610961914 6.028633117675781 20.17577743530273 4.064399719238281 24.81974411010742 C 2.031013488769531 29.62722396850586 1 34.73458862304688 1 40 C 1 45.26541137695312 2.031013488769531 50.37277984619141 4.064399719238281 55.18025588989258 C 6.028633117675781 59.82422256469727 8.8408203125 63.99514389038086 12.42283630371094 67.57716369628906 C 16.00485610961914 71.1591796875 20.17577743530273 73.97136688232422 24.81974411010742 75.93560028076172 C 29.62722396850586 77.96898651123047 34.73458862304688 79 40 79 C 45.26541137695312 79 50.37277984619141 77.96898651123047 55.18025588989258 75.93560028076172 C 59.82422256469727 73.97136688232422 63.99514389038086 71.1591796875 67.57716369628906 67.57716369628906 C 71.1591796875 63.99514389038086 73.97136688232422 59.82422256469727 75.93560028076172 55.18025588989258 C 77.96898651123047 50.37277984619141 79 45.26541137695312 79 40 C 79 34.73458862304688 77.96898651123047 29.62722396850586 75.93560028076172 24.81974411010742 C 73.97136688232422 20.17577743530273 71.1591796875 16.00485610961914 67.57716369628906 12.42283630371094 C 63.99514389038086 8.8408203125 59.82422256469727 6.028633117675781 55.18025588989258 4.064399719238281 C 50.37277984619141 2.031013488769531 45.26541137695312 1 40 1 M 40 0 C 62.09138870239258 0 80 17.90861129760742 80 40 C 80 62.09138870239258 62.09138870239258 80 40 80 C 17.90861129760742 80 0 62.09138870239258 0 40 C 0 17.90861129760742 17.90861129760742 0 40 0 Z" stroke="none" fill="#9b9b9b"/>
    </g>
    <path id="Path_11848" data-name="Path 11848" d="M56.053,21.758a19.424,19.424,0,0,0-3.788,5.678,2.9,2.9,0,0,1-5.37-.007,21.237,21.237,0,0,0-4.485-6.438c-.414-.456-.827-.912-1.233-1.383l-.058.022a3.414,3.414,0,0,0-2.1,4.345c.508,1.188,4.071.963,3.766,3.52-.254,2.093,2.489,2.643,3.461,2.542s2.467,1.593,1.712,2.346-2.162.782-1.945,2.723c.058.565,1.771.492,1.771,1.347s-.885,1.839-.2,2.832a2.307,2.307,0,0,0,.457.514,18.357,18.357,0,0,1-28.728-22,10.715,10.715,0,0,0,2.583,6.858c2.7,2.687,6.611,1.839,7.111,4.092S26.317,31,26.527,32.715s4.376,2.18,3.447,3.766c-1.226,2.107.827,2.259.232,4.859-.319,1.419,1.734,1.695,2.5.616.58-.826.464-1.839,1.633-3.078,1.43-1.521,4.746-1.767,4.376-4.28-.631-4.171-4.695-4.823-6.465-5.8-2.01-1.1-1.517-3.744-1.952-5-.61-1.789-2.678.5-3.781-.543-1.814-1.709.327-4.128,1.85-4.077,3.215.1,4.2,3.223,5.384,3.114,1.154-.1,1.9-1.709,2.1-2.564.428-1.861-.726-1.028-1.19-2-.624-1.3,2.191-2.535,3.28-3.491a1.46,1.46,0,0,0,.356-.413c.327-.637-.1-1.122-.827-1.564-1.451-.876-4.1-1.572-4.223-2.94-.073-.84,1.538-1.246,3.374-1.318.3.015.6.043.907.072a12.22,12.22,0,0,1,.733-2.52,20.442,20.442,0,0,0-2.678-.174A20.937,20.937,0,1,0,56.561,26.313,20.48,20.48,0,0,0,56.053,21.758ZM48.6.047a10.306,10.306,0,0,0-8.944,12.132c1.05,5.939,6.536,7.767,9.259,14.433a.722.722,0,0,0,1.338,0c3.018-7.394,9.436-8.836,9.436-16.53A10.1,10.1,0,0,0,48.6.047Zm.984,15.363a5.325,5.325,0,1,1,5.336-5.325A5.331,5.331,0,0,1,49.585,15.41Z" transform="translate(1702.892 7488.261)" fill="#9b9b9b"/>
    <g id="Group_4502" data-name="Group 4502" transform="translate(1480.242 7498.935)">
      <g transform="matrix(1, 0, 0, 1, 218.76, -24.94)" filter="url(#Union_21)">
        <g id="Union_21-2" data-name="Union 21" transform="translate(-218.76 24.94)" fill="#fff">
          <path d="M 200.8526153564453 30.37478256225586 L 15.43738555908203 30.37478256225586 C 11.44746875762939 30.37478256225586 7.696357727050781 28.82103157043457 4.875051975250244 25.99972724914551 C 2.053746700286865 23.17842102050781 0.4999966323375702 19.42730903625488 0.4999966323375702 15.43739318847656 C 0.4999966323375702 11.44747638702393 2.053746700286865 7.696365356445312 4.875051975250244 4.875060081481934 C 7.696357727050781 2.053754329681396 11.44746875762939 0.5000042915344238 15.43738555908203 0.5000042915344238 L 200.8526153564453 0.5000042915344238 C 204.842529296875 0.5000042915344238 208.5936279296875 2.053754329681396 211.4149475097656 4.875060081481934 C 214.2362518310547 7.696365356445312 215.7899932861328 11.44747638702393 215.7899932861328 15.43739318847656 C 215.7899932861328 19.42730903625488 214.2362518310547 23.17842102050781 211.4149475097656 25.99972724914551 C 208.5936279296875 28.82103157043457 204.842529296875 30.37478256225586 200.8526153564453 30.37478256225586 Z" stroke="none"/>
          <path d="M 15.4373779296875 1.000003814697266 C 11.58102416992188 1.000003814697266 7.955474853515625 2.501754760742188 5.228607177734375 5.228614807128906 C 2.501739501953125 7.955476760864258 1 11.58103179931641 1 15.43739318847656 C 1 19.29375457763672 2.501739501953125 22.91930961608887 5.228607177734375 25.64617156982422 C 7.955474853515625 28.37303161621094 11.58102416992188 29.87478256225586 15.4373779296875 29.87478256225586 L 200.8526000976562 29.87478256225586 C 204.7089691162109 29.87478256225586 208.3345184326172 28.37303161621094 211.0613861083984 25.64617156982422 C 213.7882537841797 22.91930961608887 215.2899932861328 19.29375457763672 215.2899932861328 15.43739318847656 C 215.2899932861328 11.58103179931641 213.7882537841797 7.955476760864258 211.0613861083984 5.228614807128906 C 208.3345184326172 2.501754760742188 204.7089691162109 1.000003814697266 200.8526000976562 1.000003814697266 L 15.4373779296875 1.000003814697266 M 15.4373779296875 3.814697265625e-06 L 200.8526000976562 3.814697265625e-06 C 209.3784484863281 3.814697265625e-06 216.2899932861328 6.91156005859375 216.2899932861328 15.43739318847656 C 216.2899932861328 23.96322631835938 209.3784484863281 30.87478256225586 200.8526000976562 30.87478256225586 L 15.4373779296875 30.87478256225586 C 6.911544799804688 30.87478256225586 0 23.96322631835938 0 15.43739318847656 C 0 6.91156005859375 6.911544799804688 3.814697265625e-06 15.4373779296875 3.814697265625e-06 Z" stroke="none" fill="#f18f20"/>
        </g>
      </g>
      <text id="Tamil_Nadu_on_world_map" data-name="Tamil Nadu on world map" transform="translate(189.353 19.606)" fill="#f18f20" font-size="14" font-family="Roboto-Regular, Roboto" letter-spacing="0.03em"><tspan x="-168.558" y="0">Tamil Nadu on world map</tspan></text>
    </g>
  </g>
</svg>
