<svg xmlns="http://www.w3.org/2000/svg" xmlns:xlink="http://www.w3.org/1999/xlink" width="98" height="98" viewBox="0 0 98 98"><defs><style>.a{fill:#f18f20;}.b{clip-path:url(#a);}</style><clipPath id="a"><rect class="a" width="98" height="98" transform="translate(0)"/></clipPath></defs><g class="b" transform="translate(0)"><g transform="translate(-0.112 0.13)"><path class="a" d="M41.584,116.074a5.95,5.95,0,0,1-4.237-1.767L25.11,101.975a6.165,6.165,0,0,1-.19-8.314,6,6,0,0,1,4.417-2.047,6.4,6.4,0,0,1,4.715,1.975l6.682,6.97,25.2-34.4a6.126,6.126,0,0,1,9.872,7.243l-29.4,40.223a5.975,5.975,0,0,1-4.375,2.429C41.883,116.069,41.732,116.074,41.584,116.074ZM29.464,94.222h-.073a3.422,3.422,0,0,0-2.523,1.169,3.544,3.544,0,0,0,.1,4.77l12.211,12.317a3.377,3.377,0,0,0,5.121-.385l29.43-40.21h0a3.528,3.528,0,1,0-5.692-4.17L41.932,103.329a1.351,1.351,0,0,1-.979.54,1.328,1.328,0,0,1-1.039-.405L32.184,95.4a3.775,3.775,0,0,0-2.72-1.174Zm59.593,20.35H56.842a1.3,1.3,0,1,1,0-2.6H87.748l-.1-12.281h0a9.093,9.093,0,0,1,10.036-9.119l10.436,1.1V27.427a6.5,6.5,0,0,0-6.5-6.5H39.469a6.5,6.5,0,0,0-6.5,6.5V84.342a1.3,1.3,0,1,1-2.6,0V27.427a9.093,9.093,0,0,1,9.093-9.093h62.168a9.093,9.093,0,0,1,9.093,9.093V93.111a.949.949,0,0,1,0,.171h0a1.367,1.367,0,0,1-.042.205h0a1.3,1.3,0,0,1-.317.533h0l-20.4,20.174h0a1.3,1.3,0,0,1-.569.317h0a1.487,1.487,0,0,1-.148.029h-.013A1.216,1.216,0,0,1,89.058,114.573Zm1.19-14.9.083,10.514,16.24-16.061-9.145-.969a6.5,6.5,0,0,0-7.176,6.513Zm12.66-13.1a1.3,1.3,0,0,1-1.3-1.3V81.043a1.3,1.3,0,1,1,2.6,0v4.232a1.3,1.3,0,0,1-1.3,1.3Zm0-9.8a1.3,1.3,0,0,1-1.3-1.3V52.833a1.3,1.3,0,1,1,2.6,0V75.475a1.3,1.3,0,0,1-1.3,1.3Zm-25.843-25.1H50.921a1.3,1.3,0,1,1,0-2.6H77.065a1.3,1.3,0,1,1,0,2.6Zm-31.711,0h-4.23a1.3,1.3,0,1,1,0-2.6h4.23a1.3,1.3,0,1,1,0,2.6Zm43.3-9.706H50.921a1.3,1.3,0,1,1,0-2.6H88.65a1.3,1.3,0,1,1,0,2.6Zm-43.3,0h-4.23a1.3,1.3,0,0,1,0-2.6h4.23a1.3,1.3,0,0,1,0,2.6ZM99.673,32.26H50.921a1.3,1.3,0,1,1,0-2.6H99.673a1.3,1.3,0,1,1,0,2.6Zm-54.319,0h-4.23a1.3,1.3,0,1,1,0-2.6h4.23a1.3,1.3,0,0,1,0,2.6Z" transform="translate(-23.401 -18.334)"/></g></g></svg>