<svg xmlns="http://www.w3.org/2000/svg" xmlns:xlink="http://www.w3.org/1999/xlink" width="98" height="98" viewBox="0 0 98 98"><defs><style>.a,.c{fill:#f18f20;}.a{stroke:#707070;}.b{clip-path:url(#a);}</style><clipPath id="a"><rect class="a" width="98" height="98" transform="translate(-0.311)"/></clipPath></defs><g class="b" transform="translate(0.311)"><g transform="translate(0 0.637)"><path class="c" d="M91.409,96.727H72.3a6.591,6.591,0,0,1-6.591-6.591V83.722H59.6A1.318,1.318,0,0,1,58.28,82.4V59.244h-4.8V81.724a6.591,6.591,0,0,1-6.591,6.591H6.591A6.591,6.591,0,0,1,0,81.724V15.77A6.591,6.591,0,0,1,6.591,9.179h40.3a6.591,6.591,0,0,1,6.591,6.591V38.249h4.8V15.087A1.318,1.318,0,0,1,59.6,13.769h6.113V6.591A6.591,6.591,0,0,1,72.3,0H91.409A6.591,6.591,0,0,1,98,6.591V22.055a6.591,6.591,0,0,1-6.591,6.591H72.3a6.591,6.591,0,0,1-6.591-6.591V16.405h-4.8V39.567A1.318,1.318,0,0,1,59.6,40.886H53.482v6.543h12.23V41.015A6.591,6.591,0,0,1,72.3,34.424H91.409A6.591,6.591,0,0,1,98,41.015V56.479a6.591,6.591,0,0,1-6.591,6.591H72.3a6.591,6.591,0,0,1-6.591-6.591V50.065H53.482v6.543H59.6a1.318,1.318,0,0,1,1.318,1.318V81.086h4.8V74.672A6.591,6.591,0,0,1,72.3,68.081H91.409A6.591,6.591,0,0,1,98,74.672V90.136A6.591,6.591,0,0,1,91.409,96.727ZM68.347,79.146V90.136A3.954,3.954,0,0,0,72.3,94.09H91.409a3.954,3.954,0,0,0,3.954-3.954V79.146ZM2.636,29.972V81.724a3.954,3.954,0,0,0,3.954,3.954h40.3a3.954,3.954,0,0,0,3.954-3.954V29.972ZM68.347,76.509H95.364V74.664a3.954,3.954,0,0,0-3.954-3.954H72.3a3.954,3.954,0,0,0-3.954,3.954Zm0-31.021V56.479A3.954,3.954,0,0,0,72.3,60.433H91.409a3.954,3.954,0,0,0,3.954-3.954V45.489Zm0-2.636H95.364V41.007a3.954,3.954,0,0,0-3.954-3.954H72.3a3.954,3.954,0,0,0-3.954,3.954ZM2.636,27.335H50.845V15.77a3.954,3.954,0,0,0-3.954-3.954H6.591A3.954,3.954,0,0,0,2.636,15.77ZM68.347,11.072V22.055A3.954,3.954,0,0,0,72.3,26.009H91.409a3.954,3.954,0,0,0,3.954-3.954V11.072Zm0-2.636H95.364V6.591a3.954,3.954,0,0,0-3.954-3.954H72.3a3.954,3.954,0,0,0-3.954,3.954ZM89.506,88.314H74.216a1.318,1.318,0,0,1,0-2.636h15.29a1.318,1.318,0,0,1,0,2.636Zm-51.937-14.5H15.912a6.591,6.591,0,1,1,0-13.181H37.569a6.591,6.591,0,0,1,0,13.181ZM15.912,63.27a3.954,3.954,0,1,0,0,7.909H37.569a3.954,3.954,0,1,0,0-7.909Zm73.594-8.634H74.216a1.318,1.318,0,0,1,0-2.636h15.29a1.318,1.318,0,0,1,0,2.636ZM37.572,52.314H15.912a6.591,6.591,0,1,1,0-13.181H37.569a6.591,6.591,0,0,1,0,13.181ZM15.915,41.769a3.954,3.954,0,0,0,0,7.909H37.572a3.954,3.954,0,1,0,0-7.909Zm10.519-20.36H23.37a1.318,1.318,0,1,1,0-2.636h3.061a1.318,1.318,0,1,1,0,2.636Zm-9.179,0H14.191a1.318,1.318,0,1,1,0-2.636h3.061a1.318,1.318,0,0,1,0,2.636Zm72.254-1.2H74.218a1.318,1.318,0,0,1,0-2.636h15.29a1.318,1.318,0,1,1,0,2.636Z" transform="translate(0 0)"/></g></g></svg>