<svg xmlns="http://www.w3.org/2000/svg" xmlns:xlink="http://www.w3.org/1999/xlink" width="1920" height="1173" viewBox="0 0 1920 1173"><defs><style>.a,.f{fill:none;stroke:#fff;stroke-width:2px;}.b{fill:#f6f6f6;}.c{opacity:0.559;}.d{fill:#ececec;opacity:0.5;}.e{clip-path:url(#a);}.f{stroke-miterlimit:10;}</style><clipPath id="a"><rect class="a" width="1920" height="1173"/></clipPath></defs><g transform="translate(0 -1360)"><rect class="b" width="1920" height="1173" transform="translate(0 1360)"/><g class="c" transform="translate(0 1360)"><rect class="d" width="1919" height="1173" transform="translate(1 0)"/><g transform="translate(0 0)"><g class="e"><g transform="translate(-395.183 -380.508)"><path class="f" d="M1333.345-52.3A1467.092,1467.092,0,0,1,1275.2,126.714c-10.241,26.019-21.814,52.367-41.759,73.154-51.027,53.141-140.305,54.784-216.5,43.24a960.786,960.786,0,0,1-204.467-54.432c-64.878-25.245-127.632-57.834-197.144-68.532s-150.367,6.569-187.825,61.212c-22.275,32.565-25.834,73.764-17.129,111.374s28.676,72.192,50.822,104.828c25.373,37.351,54.816,75.2,58.631,119.046,3.943,45.422-23.427,91.877-67.055,113.743-62.036,31.111-137.975,11.59-207.565,0C156.83,615.59,62.021,615.708-18.731,651.815S-161.9,766.357-153.609,848.333" transform="translate(154.349 309.935)"/><path class="f" d="M1314.169-57.53a1371.781,1371.781,0,0,1-57.095,174.862c-10.241,25.386-21.532,51.053-40.965,71.418-49.7,52.039-136.081,54.9-210.176,45q-26.4-3.519-52.486-8.54a930.168,930.168,0,0,1-146.783-40.777c-63.393-23.462-124.841-53.962-192.792-63.746s-144.555,8.094-184.138,58.983a145.892,145.892,0,0,0-29.341,62.01,155.763,155.763,0,0,0-1.741,46.572,175.34,175.34,0,0,0,3.61,21.468c6.81,28.717,21.3,56.825,37.15,83.548,1.562,2.651,3.149,5.279,4.737,7.93,24.784,40.988,50.95,82.914,52.384,128.782,1.383,44.155-24.041,89.155-66.568,110.623-60.449,30.688-134.16,13.115-201.471,3.308-5.3-.774-10.625-1.5-15.976-2.135-80.8-9.9-165.294-5.866-237.392,28.3-76.809,36.413-135.569,113.157-126.275,192.81" transform="translate(157.831 302.895)"/><path class="f" d="M1294.93-62.76a1290.181,1290.181,0,0,1-56.1,170.709c-10.062,24.752-21.25,49.786-40.2,69.705-48.262,50.912-131.882,54.971-203.852,46.713q-25.6-2.956-51.053-7.344a903.3,903.3,0,0,1-143.07-36.882c-61.909-21.515-122.05-49.974-188.388-58.913S473.095,130.871,431.9,177.959c-16.642,19-30.212,37.75-37.457,59.359a148.278,148.278,0,0,0-7.681,46.455,155.6,155.6,0,0,0,1.485,22.406c4.3,30.36,18.69,61,34.231,90.07,1.562,2.886,3.1,5.748,4.66,8.611,24.195,44.578,47.161,90.493,46.086,138.425-.9,42.818-24.656,86.293-66,107.549-58.887,30.219-130.294,14.593-195.352,6.64q-7.681-.95-15.362-1.736C118.466,648,37.611,653.861-30.826,688.327-103.821,725.068-158.842,800.1-148.6,877.43" transform="translate(161.401 295.854)"/><path class="f" d="M1275.842-68A1217.093,1217.093,0,0,1,1220.769,98.58c-9.96,24.119-20.995,48.472-39.429,68.04-47.187,49.739-127.683,55.018-197.554,48.378q-24.886-2.346-49.593-6.123A878.2,878.2,0,0,1,794.861,176c-60.424-19.638-119.26-46.032-184.035-54.1s-134.212,11.051-176.662,54.5c-18.486,18.91-35.384,35.709-45.548,56.66a142.471,142.471,0,0,0-13.749,46.173,137.78,137.78,0,0,0-.742,23.462c1.792,32,16.079,65.295,31.338,96.616,1.511,3.1,3.021,6.194,4.557,9.385,23.606,48.308,43.525,97.906,39.915,148.256-2.919,41.387-25.3,83.5-65.493,104.429-57.223,29.8-126.454,16.119-189.258,9.971-4.967-.469-9.934-.915-14.9-1.29-75.248-5.607-152.492,2.088-217.294,36.859-69.128,37.07-120.335,110.271-109.069,185.349" transform="translate(164.82 288.8)"/><path class="f" d="M1256.728-73.21a1143.346,1143.346,0,0,1-54.074,162.38c-9.806,23.462-20.739,47.112-38.661,66.21-45.753,48.754-123.458,55.229-191.2,50.232q-24.169-1.76-48.134-4.9a856.4,856.4,0,0,1-135.7-29.093c-58.887-17.784-116.469-42.232-179.632-49.27S479.7,134.616,436.454,174.571c-20.482,18.77-40.53,33.668-53.767,53.962a139.941,139.941,0,0,0-19.766,46.243,123.914,123.914,0,0,0-2.868,24.26c-.743,33.644,13.467,69.541,28.419,103.232l4.455,9.971c23.12,51.874,39.915,105.109,33.694,157.9-4.685,39.885-25.91,80.733-64.981,101.355-55.61,29.351-122.588,17.62-183.139,13.3q-7.182-.528-14.363-.868C91.708,680.41,18.1,689.983-43.067,724.988c-65.211,37.375-112.654,109-100.441,181.689" transform="translate(168.265 281.786)"/><path class="f" d="M1237.568-78.44a1072.46,1072.46,0,0,1-53.075,158.227c-9.678,22.852-20.482,45.868-37.841,64.52-44.473,47.6-119.285,55.3-184.932,51.945q-23.4-1.2-46.674-3.707a828.59,828.59,0,0,1-131.907-25.2c-57.454-15.907-113.678-38.2-175.279-44.578S482.4,136.19,438.673,172.814c-22.48,18.77-45.676,31.627-61.755,51.311a140.03,140.03,0,0,0-25.6,46.126,118.46,118.46,0,0,0-5.121,25.151c-3.252,35.193,10.856,73.764,25.6,109.685,1.434,3.566,2.893,7.039,4.327,10.675,22.48,55.581,36.356,112.383,27.447,167.682-6.2,38.454-26.5,77.964-64.443,98.282-54.253,28.976-118.952,19.192-177.148,16.682-4.583-.187-9.192-.328-13.8-.422C78.488,696.671,8.489,708-48.965,743.384c-61.32,37.7-105.2,107.62-91.813,177.982" transform="translate(171.756 274.746)"/><path class="f" d="M1218.789-83.67a1004.446,1004.446,0,0,1-52.1,154.074c-9.576,22.242-20.176,44.578-37.074,62.808-43.167,46.548-115.086,55.44-178.608,53.728q-22.659-.61-45.241-2.487a804.567,804.567,0,0,1-128.195-21.3c-55.969-14.077-110.887-34.254-170.875-39.7S485.13,137.717,441.221,171.291c-24.656,18.769-50.848,29.492-69.9,48.519a141.889,141.889,0,0,0-31.62,46.032,114.248,114.248,0,0,0-7.374,26.066c-5.761,36.929,8.27,78.011,22.608,116.348q2.151,5.678,4.25,11.355c21.891,59.218,33,119.515,21.2,177.419-7.527,36.953-27.114,75.078-64.008,95.162C264,720.675,201.473,712.815,145.428,712.158H132.165C65.239,713-1.125,726.235-54.994,761.827c-57.453,38.032-97.625,106.236-83.236,174.275" transform="translate(174.917 267.705)"/><path class="f" d="M1199.815-88.9a937.332,937.332,0,0,1-51.027,149.922c-9.422,21.608-19.894,43.264-36.305,61-41.835,45.446-110.862,55.534-172.284,55.464q-21.891,0-43.756-1.29a775.012,775.012,0,0,1-124.482-17.409c-54.484-12.153-108.1-30.313-166.421-34.888S480.956,132.346,443.7,169.486c-30.084,14.054-55.994,27.615-77.936,45.962a146.02,146.02,0,0,0-37.637,45.915,112.179,112.179,0,0,0-9.6,27c-8.27,38.548,5.658,82.117,19.714,122.729q2.1,6.03,4.148,12.06c21.3,62.855,29.8,126.694,14.952,187.132-8.705,35.474-27.651,72.474-63.5,92.088-50.8,28.037-111.066,22.125-164.859,23.3-4.25,0-8.475.234-12.8.422-64.136,2.979-126.915,17.948-177.123,53.963-53.536,38.36-90.021,104.851-74.608,170.568" transform="translate(178.144 260.665)"/><path class="f" d="M1180.821-94.13a876.9,876.9,0,0,1-50.028,145.769C1121.5,72.59,1111.181,93.612,1095.281,111c-40.53,44.273-106.663,55.6-165.96,57.153q-21.148.563-42.322,0a754.46,754.46,0,0,1-120.77-13.491c-53-10.394-105.306-26.489-162.119-30.289s-120.8,8.8-158,43.428c-32.516,13.279-61.192,25.527-86.052,43.381a151.248,151.248,0,0,0-43.525,45.845,112,112,0,0,0-11.829,27.9c-10.779,40.19,3.072,86.457,16.821,129.275q2.048,6.335,4.045,12.74c20.713,66.491,26.755,133.733,8.705,196.845-9.78,33.879-28.394,69.518-62.958,88.9-49.184,27.591-107.2,23.626-158.74,26.606-4.071.235-8.116.54-12.187.868C38.946,745.291-20.12,762.066-66.692,798.385c-49.645,38.642-82.417,103.444-66,166.838" transform="translate(181.469 253.624)"/><path class="f" d="M1162-99.36a818.422,818.422,0,0,1-49,141.616c-9.166,20.318-19.381,40.66-34.743,57.622-39.224,43.264-102.464,55.7-159.661,58.889q-20.482,1.173-40.965,1.126a728.355,728.355,0,0,1-117.058-9.6c-51.514-8.423-102.413-22.476-157.767-25.292s-116.955,8.986-154.131,41.105c-34.923,12.529-66.338,23.462-94.143,40.589a158.393,158.393,0,0,0-49.593,45.727,112.5,112.5,0,0,0-14.031,28.811c-13.288,41.833.461,90.68,13.928,135.8q2,6.687,3.943,13.42c20.124,70.151,23.913,140.771,2.56,206.605-10.677,32.518-29.085,66.82-62.369,85.894C201.3,750.126,145.532,748.108,96.246,752.918c-3.892.375-7.681.8-11.649,1.29-58.58,7.273-114.113,25.808-157.05,62.5-45.753,38.97-74.812,102.059-57.377,163.131" transform="translate(184.618 246.584)"/><path class="f" d="M1143.239-104.59a761.978,761.978,0,0,1-48.006,137.463c-9.038,19.708-19.1,39.393-33.95,55.91-37.918,42.231-98.265,55.886-153.363,60.719q-19.612,1.736-39.378,2.346A706.152,706.152,0,0,1,755.2,146.124c-50-6.64-99.673-18.629-153.44-20.576S488.336,134.933,451.212,164.4c-37.329,11.731-71.484,21.468-102.259,37.914-20.969,11.215-40.939,26.207-55.456,45.633a114.838,114.838,0,0,0-16.258,29.726c-15.8,43.475-2.151,94.927,11.009,142.344,1.306,4.692,2.56,9.385,3.866,14.077,19.561,73.788,21.225,147.974-3.764,216.319-11.368,31.111-29.674,64.1-61.857,82.844-46.086,26.7-99.494,26.629-146.527,33.293-3.712.516-7.425,1.079-11.112,1.713-55.815,9.385-107.712,29.843-146.988,66.773-41.887,39.3-67.234,100.675-48.646,159.541" transform="translate(187.713 239.543)"/><path class="f" d="M1124.741-109.82a709.769,709.769,0,0,1-47.033,133.311c-8.91,19.075-18.818,38.079-33.156,54.2-36.613,41.058-94.066,55.98-147.039,62.456q-18.9,2.346-37.944,3.543a686.5,686.5,0,0,1-109.581-1.9c-48.646-4.692-96.934-14.617-148.985-15.7S491.4,135.639,454.169,162.714c-39.736,11-76.656,19.426-110.35,35.193-23.043,10.769-45.19,25.808-61.448,45.516a117.909,117.909,0,0,0-18.485,30.641c-18.281,45.164-4.788,99.2,8.065,148.913q1.92,7.391,3.738,14.8c19,77.424,18.793,155.2-9.985,226.055-12.059,29.656-30.186,61.283-61.448,79.771-44.37,26.277-95.679,28.154-140.459,36.624-3.508.68-7.041,1.384-10.548,2.159C.225,793.956-48.063,816.2-83.7,853.433c-38,39.627-59.63,99.291-40.171,155.717" transform="translate(190.542 232.502)"/><path class="f" d="M1106.2-115a656.757,656.757,0,0,1-46.086,129.041c-8.756,18.441-18.537,36.765-32.388,52.461-35.281,39.885-89.841,56.1-140.817,64.192q-18.127,2.933-36.459,4.692a662.644,662.644,0,0,1-105.92,2.088c-47.033-2.839-94.143-10.675-144.607-10.886S494.1,136.371,457.029,160.959c-42.117,10.276-81.8,17.315-118.44,32.542-25.065,10.347-49.337,25.175-67.464,45.422a121.18,121.18,0,0,0-20.687,31.556c-20.815,46.783-7.348,103.4,5.121,155.412q1.869,7.7,3.636,15.485c18.409,81.061,16.565,162.52-16.232,235.769-12.674,28.271-30.724,58.514-60.807,76.627C139.4,779.58,90.341,783.427,47.814,793.656c-3.354.821-6.682,1.666-10.011,2.581-50.259,13.7-94.911,37.8-126.915,75.313-34.1,39.885-52.026,97.906-31.543,152.009" transform="translate(193.392 225.529)"/><path class="f" d="M1087.856-120.28A610.584,610.584,0,0,1,1042.9,4.725c-8.654,17.784-18.281,35.474-31.62,50.725C977.3,94.3,925.634,111.758,876.886,121.4q-17.41,3.472-35.025,5.959a639,639,0,0,1-102.182,5.983c-45.574-.962-91.352-6.757-140.228-6.077s-98.726,16.423-139.358,32.166C418,175.856,373.041,174.777,333.536,189.3c-27.088,9.9-53.511,24.635-73.43,45.3a125.088,125.088,0,0,0-23.043,32.471c-23.324,48.425-9.934,107.62,2.33,161.887q1.792,8.071,3.533,16.189c17.922,84.721,14.568,169.958-22.48,245.482-13.109,26.911-31.313,55.7-60.167,73.506-41.17,25.386-87.972,31.251-128.246,43.287-3.175.938-6.324,1.948-9.473,3-47.468,15.86-88.51,41.762-116.878,79.583-30.212,40.261-44.447,96.523-23.043,148.3" transform="translate(196.064 218.421)"/><path class="f" d="M1069.712-125.5A566.462,566.462,0,0,1,1025.751-4.671c-8.526,17.174-17.922,34.184-30.724,49.012-32.67,37.774-81.444,56.309-128.016,67.688q-16.616,4.082-33.54,7.179a616.569,616.569,0,0,1-98.674,9.854c-44.063.915-88.561-2.815-135.85-1.267s-95.679,16.071-135.7,29.914c-44.806,15.532-92.171,13.326-134.647,27.216-29.034,9.361-57.71,24.025-79.344,45.023a129.054,129.054,0,0,0-25.117,33.386c-25.859,50.138-12.571,111.937-.589,168.55q1.767,8.376,3.431,16.869c17.231,88.357,12.8,177.536-28.727,255.219-13.7,25.644-32.03,52.954-59.758,70.386-39.557,25.01-84.106,32.753-122.127,46.666-3,1.1-5.966,2.346-8.935,3.449-44.7,17.995-82.109,45.727-106.816,83.853-26.346,40.589-36.869,95.138-14.338,144.6" transform="translate(198.538 211.394)"/><path class="f" d="M1051.839-130.73a522.54,522.54,0,0,1-42.962,116.676c-8.372,16.423-17.717,32.847-30.033,47.3C947.481,69.893,901.6,89.554,857.076,102.669q-15.9,4.692-32.106,8.376a596.728,596.728,0,0,1-94.732,13.8c-42.578,2.769-85.745,1.1-131.447,3.543S506.16,144.1,466.884,156.045c-47.622,14.335-97.343,11.168-142.814,24.4-31.108,9.033-61.832,23.7-85.361,45.094a133.192,133.192,0,0,0-27.344,34.3C183,311.457,196.208,375.93,207.857,434.867q1.741,8.728,3.354,17.526c16.668,91.947,11.393,185.326-34.974,264.956-14.159,24.377-32.618,50.185-59.22,67.359C79.074,809.225,36.752,818.844.984,834.658c-2.816,1.244-5.633,2.534-8.4,3.871-41.938,20.154-75.734,49.692-96.78,88.123-22.454,40.918-29.264,93.848-5.709,140.889" transform="translate(200.741 204.354)"/><path class="f" d="M1034.288-136A482.836,482.836,0,0,1,992.35-23.383a244.294,244.294,0,0,1-29.136,45.446c-30.058,35.568-73.046,56.52-115.47,71.183q-15.131,5.256-30.724,9.6a580.77,580.77,0,0,1-91.045,17.667c-40.965,4.692-82.98,5.044-127.094,8.353s-89.611,15.321-128.17,25.433c-50.285,13.162-102.515,9.267-150.9,21.749-33.1,8.681-65.979,23.157-91.4,45.07a138.036,138.036,0,0,0-29.572,35.193c-30.8,53.47-17.692,120.336-6.273,181.572q1.69,9.08,3.252,18.23c16.079,95.654,10.241,193.279-41.2,274.669-14.619,23.18-33.284,47.416-58.734,64.285C59.422,819.135,19.4,830.631-14.084,848.321c-2.56,1.408-5.274,2.839-7.86,4.293-39.147,22.313-69.333,53.681-86.743,92.417-18.562,41.246-21.66,92.37,2.893,137.182" transform="translate(202.624 197.259)"/><path class="f" d="M1017.109-141.19A443.508,443.508,0,0,1,976.143-32.937a252.526,252.526,0,0,1-28.5,43.827c-28.676,34.466-68.77,56.637-109.069,72.92-9.6,3.895-19.356,7.508-29.188,10.816a560.576,560.576,0,0,1-87.358,21.562c-39.608,6.522-80.163,8.986-122.69,13.162s-86.36,14.828-124.457,23.18c-53.127,11.731-107.533,7.226-158.944,19.145-35.128,8.165-70.153,22.57-97.292,44.906a143.081,143.081,0,0,0-31.8,36.131c-33.284,54.995-20.483,124.559-9.294,188.094q1.664,9.385,3.124,18.91c15.516,99.291,9.217,201.491-47.417,284.406-15.055,22.007-33.873,44.577-58.2,61.165C40.323,828.937,2.481,842.474-28.754,861.9c-2.56,1.525-4.916,3.12-7.322,4.693-36.112,23.963-62.968,57.833-76.681,96.71-14.7,41.528-14.082,90.962,11.5,133.452" transform="translate(204.109 190.272)"/><path class="f" d="M1000.392-146.42A405.6,405.6,0,0,1,960.476-42.343a264.881,264.881,0,0,1-27.7,42.231c-27.421,33.386-64.622,56.754-102.822,74.679-9.089,4.294-18.357,8.282-27.728,12.013a543.973,543.973,0,0,1-83.62,25.456c-38.123,8.4-77.373,12.9-118.338,17.972s-83.108,14.265-120.693,20.951c-55.892,9.948-112.807,5.209-167.061,16.423-37.15,7.672-74.326,21.984-103.257,44.742a148.326,148.326,0,0,0-34.027,37.023c-35.844,56.637-23.043,128.783-12.187,194.617,1.05,6.5,2.074,13.045,3.021,19.614C180.988,566.306,174.613,673.363,112.3,757.5c-15.362,20.9-34.487,41.833-57.684,58.092-33.028,23.2-68.616,38.665-97.574,59.945q-3.405,2.487-6.759,5.138c-33.285,26.323-56.594,61.647-66.568,100.886-10.8,41.856-6.478,89.578,20.1,129.745" transform="translate(205.157 183.232)"/><path class="f" d="M984.47-151.65a372.033,372.033,0,0,1-38.891,99.924,289.637,289.637,0,0,1-26.935,40.4c-26.115,32.26-60.423,56.848-96.5,76.416-8.6,4.692-17.385,9.08-26.269,13.209a526.9,526.9,0,0,1-79.933,29.374c-36.612,10.253-74.582,16.822-113.934,22.758S522.23,144.087,485.029,149.2c-58.606,8.024-117.954,3.12-175.177,13.749-39.147,7.273-78.474,21.515-109.223,44.578A153.187,153.187,0,0,0,164.4,245.584c-38.4,58.28-25.6,133.029-15.106,201.163,1.05,6.71,2.023,13.491,2.944,20.295C166.577,573.6,160.407,685.8,92.328,770.872a295.071,295.071,0,0,1-57.146,55.018C3.664,848.649-29.7,866.081-56.452,889.238c-2.1,1.83-4.173,3.683-6.222,5.584-30.555,28.705-50.376,65.559-56.609,105.25-6.913,42.232,1.127,88.193,28.727,126.037" transform="translate(205.409 176.191)"/><path class="f" d="M969.245-156.88a339.845,339.845,0,0,1-37.893,95.772,315.964,315.964,0,0,1-26.141,38.665C880.4,8.738,848.885,34.5,815.012,55.709c-8.091,5.068-16.386,9.877-24.809,14.429a509.588,509.588,0,0,1-76.195,33.269,733.819,733.819,0,0,1-109.581,27.568c-37.56,6.757-76.3,13-113.243,16.423-61.243,5.8-123.1,1.126-183.267,11.121-41.17,6.827-82.621,20.975-115.214,44.578a158.852,158.852,0,0,0-38.328,38.947c-40.965,59.9-28.163,137.229-17.922,207.661,1,7.039,1.971,14.077,2.842,21.116,13.749,110.271,8.039,227.862-66.159,313.569a357.417,357.417,0,0,1-56.634,51.9C-13.4,858.6-44.511,877.978-69.014,902.9c-1.92,1.971-3.815,3.965-5.684,6.006-27.781,31.029-44.145,69.314-46.751,109.379-3.021,42.513,8.731,86.809,37.355,122.33" transform="translate(204.965 169.151)"/><path class="f" d="M954.873-162.11C934.749-70.749,869.487,9.561,785.534,61.975s-185.776,78.363-287.319,83.806c-63.8,3.4-128.272-.915-191.358,8.423S179.738,189.4,145.02,238.479c-43.525,61.541-30.724,141.475-20.892,214.207,16.258,119.656,16.028,253.389-69.666,344.89C11.781,843.139-48.591,873.617-86.2,922.769c-52.128,68.157-48.083,167.988,9.422,232.414" transform="translate(203.642 162.11)"/></g><g transform="translate(230.274 690.458)"><path class="f" d="M89.94,688.677A1597.719,1597.719,0,0,1,218.98,544.152c20.482-20.341,42.168-40.589,69.333-52.719,69.461-30.946,152.518-.892,217.934,36.718A888.82,888.82,0,0,1,671.9,650.693c49.209,46.267,93.375,98.54,153,132.982s141.457,47.229,199.064,9.995c34.283-22.148,54.919-58.913,62.728-96.663s3.968-76.744-2.714-114.682c-7.681-43.451-18.87-88.757-3.917-130.565,15.516-43.287,60.347-76.439,109.786-81.178,70.332-6.757,132.163,38.126,191.46,73.459,75.3,44.906,162.811,78.339,252.5,73.6s180.348-54.995,207.257-133.545" transform="translate(-89.94 -192.669)"/><path class="f" d="M93.57,703.447A1472.982,1472.982,0,0,1,220.818,561.759c20.278-19.848,41.707-39.58,68.411-51.5,53.639-23.931,115.393-11.731,170.747,11.731a481.415,481.415,0,0,1,43.525,21.28A870.973,870.973,0,0,1,667.8,660c49.03,44.272,92.965,94.809,151.955,127.914,33.079,18.605,72.278,31.345,110.887,33.644,33.617,1.971,66.978-4.153,94.86-21.632a132.082,132.082,0,0,0,14.159-10.229c27.37-22.782,43.986-55.535,51.206-89.156a234.9,234.9,0,0,0,4.634-32.284c2.048-28.459-.359-57.247-3.917-85.4-5.607-44.578-13.083-90.352,3.789-132.067s59.707-73.67,107.969-78.5c68.693-6.921,129.27,35.381,187.236,68.227,4.583,2.6,9.192,5.138,13.851,7.649,70.358,37.7,149.984,63.887,230.889,57.881,86.257-6.405,172.744-56.309,197.733-133.193" transform="translate(-84.276 -190.475)"/><path class="f" d="M97.2,724.771A1368.362,1368.362,0,0,1,222.656,585.947c20.073-19.379,41.272-38.571,67.49-50.3,52.691-23.462,113.191-12.575,167.675,9.385q22.03,8.945,42.962,19.943A853.051,853.051,0,0,1,663.669,675.9c48.8,42.232,92.607,91.1,151.059,123.058,34.334,18.77,74.556,32.1,114.344,34.958,34.564,2.346,69.129-3.308,98.086-20.9a128.371,128.371,0,0,0,14.7-10.394c28.522-23.2,45.548-56.942,53.382-91.5a254,254,0,0,0,5.121-33.48c2.56-29.234,1.177-58.843-1.127-87.677-3.533-45.844-7.3-91.9,11.5-133.592,17.922-39.58,59.118-70.878,106.2-75.829,67-7.039,126.351,32.612,183.011,63q6.682,3.519,13.519,7.039c68.693,34.747,145.759,57.951,223.439,50.372,82.8-8.047,165.14-57.81,188.209-132.794" transform="translate(-78.612 -195.024)"/><path class="f" d="M100.82,746.813A1272.1,1272.1,0,0,1,224.534,610.734c19.817-18.887,40.786-37.539,66.568-49.082,51.693-23.157,110.964-13.373,164.577,7.039q21.734,8.438,42.45,18.863a834.8,834.8,0,0,1,161.5,105.086c48.646,40.4,92.3,87.349,149.958,118.131,35.614,19,76.81,32.846,117.775,36.272,35.537,2.933,71.356-2.487,101.312-20.2a130.866,130.866,0,0,0,15.362-10.534c29.648-23.65,47.084-58.4,55.482-94.036a279.929,279.929,0,0,0,5.735-34.418c3.175-30.031,2.688-60.461,1.639-89.976-1.485-47.041-1.613-93.379,19.2-135.094,18.818-37.75,58.529-68.04,104.435-73.178,65.339-7.25,123.433,29.867,178.761,57.763q6.554,3.308,13.211,6.475c67.055,31.791,141.534,52.039,215.963,42.889C1717.838,487,1796.03,437.491,1817.2,364.29" transform="translate(-72.964 -200.221)"/><path class="f" d="M104.45,768.932a1179.251,1179.251,0,0,1,121.922-133.1c19.612-18.418,40.351-36.554,65.647-47.886,50.745-22.758,108.788-14.077,161.5,4.81q21.369,7.7,41.81,17.338a817.171,817.171,0,0,1,160.1,99.267c48.39,38.431,91.992,83.548,148.934,113.157,36.894,19.192,79.139,33.6,121.256,37.539,36.459,3.426,73.532-1.619,104.538-19.473a135.791,135.791,0,0,0,15.848-10.675c30.724-24.1,48.646-59.852,57.581-96.546a307.366,307.366,0,0,0,6.324-35.334c3.738-30.805,4.2-62.081,4.429-92.3.563-48.214,3.994-94.81,26.883-136.6,19.689-35.9,57.914-65.318,102.643-70.5,63.675-7.39,120.514,27.122,174.562,52.531,4.25,2.018,8.552,3.965,12.8,5.889,65.39,28.835,137.31,46.1,208.512,35.381,75.888-11.4,149.983-60.626,169.211-132.044" transform="translate(-67.3 -205.471)"/><path class="f" d="M108.08,791.012A1095.912,1095.912,0,0,1,228.21,660.75c19.382-17.924,39.864-35.521,64.7-46.665,49.8-22.359,106.586-14.969,158.432,2.464,14.184,4.692,28.01,10.229,41.221,16.048A798.806,798.806,0,0,1,651.3,726.022c48.185,36.507,91.736,79.771,147.935,108.23,38.174,19.357,81.392,34.325,124.713,38.9,37.406,3.895,75.708-.8,107.738-18.77a140.959,140.959,0,0,0,16.437-10.815c31.927-24.518,50.182-61.283,59.681-99.033a327,327,0,0,0,6.887-36.3c4.327-31.58,5.658-63.676,7.22-94.575,2.56-49.435,9.525-96.194,34.615-138.1,20.483-34.09,57.3-62.549,100.851-67.852,61.985-7.555,117.6,24.377,170.312,47.3,4.173,1.806,8.347,3.589,12.571,5.3,63.726,25.808,133.136,40.19,201.036,27.9,72.457-13.092,142.4-62.057,159.712-131.691" transform="translate(-61.636 -210.681)"/><path class="f" d="M111.71,813.117A1017.6,1017.6,0,0,1,230.074,685.695c19.177-17.432,39.429-34.512,63.777-45.469,48.825-21.96,104.384-15.743,155.36.164,13.954,4.317,27.575,9.385,40.632,14.711A782.2,782.2,0,0,1,647.2,742.731c47.955,34.536,91.454,75.853,146.911,103.232,39.48,19.52,83.671,35.193,128.169,40.214,38.4,4.387,77.885,0,110.939-18.042a138.9,138.9,0,0,0,17-10.957c33.079-24.964,51.744-62.737,61.806-101.52a367.268,367.268,0,0,0,7.476-37.234c4.89-32.377,7.143-65.294,10.011-96.9,4.557-50.607,14.952-97.625,42.3-139.6,21.1-32.237,56.685-59.734,99.059-65.084,60.346-7.719,114.7,21.632,166.113,42.091,4.045,1.6,8.142,3.167,12.238,4.692,62.088,22.9,128.861,34.254,193.585,20.388,69-14.734,134.8-63.347,150.214-131.387" transform="translate(-55.972 -215.917)"/><path class="f" d="M115.34,835.186A946.53,946.53,0,0,1,231.911,710.65c18.946-16.963,38.968-33.5,62.856-44.273,47.878-21.562,102.208-16.564,152.288-2.182,13.723,3.9,27.165,8.493,40.069,13.42A766.916,766.916,0,0,1,643.072,759.4c47.75,32.589,91.224,71.981,145.938,98.329,40.811,19.661,85.975,35.8,131.651,41.528,39.275,4.856,80.061.868,114.164-17.339A140.253,140.253,0,0,0,1052.39,870.8c34.231-25.386,53.28-64.145,64.008-104.007,3.354-12.67,5.94-25.48,8.014-38.173,5.479-33.151,8.679-66.89,12.8-99.173,6.606-51.828,20.3-99.056,50-141.124,21.558-30.5,56.1-56.965,97.292-62.5,58.657-7.883,111.758,18.77,161.889,36.859q5.914,2.112,11.906,4.106c60.423,19.943,124.636,28.342,186.135,12.9,65.544-16.423,127.2-64.872,140.817-130.941" transform="translate(-50.308 -221.14)"/><path class="f" d="M119,857.278a881.532,881.532,0,0,1,114.83-121.7c18.716-16.424,38.4-32.495,61.908-43.053,46.931-21.116,99.852-17.268,149.19-4.505,13.518,3.5,26.755,7.625,39.506,12.106A748.745,748.745,0,0,1,639,776.1c47.545,30.641,91.019,68.039,144.888,93.355,42.117,19.8,88.254,36.554,135.082,42.841,40.248,5.349,82.263,1.712,117.391-16.635a138.189,138.189,0,0,0,18.153-11.238c35.358-25.808,54.842-65.693,66.031-106.494,3.533-13,6.3-26.137,8.6-39.111,6.042-33.949,10.241-68.486,15.567-101.5,8.68-53,25.6-100.464,57.71-142.6,21.968-28.788,55.482-54.2,95.525-59.851,56.993-8.047,108.839,16.142,157.639,31.627,3.84,1.22,7.681,2.346,11.6,3.519,58.887,16.963,120.335,22.406,178.659,5.4,62.113-18.089,119.618-66.257,131.191-130.542" transform="translate(-44.597 -226.364)"/><path class="f" d="M122.59,879.344A822.13,822.13,0,0,1,235.628,760.509c18.588-15.977,38.046-31.486,60.987-41.785,45.958-20.764,97.778-18.066,146.117-6.851,13.288,3.1,26.346,6.757,38.942,10.816a732.449,732.449,0,0,1,153.158,70.151c47.34,28.671,90.84,64.1,143.864,88.4,43.525,19.9,90.558,37.3,138.564,44.156,41.2,5.819,84.49,2.557,120.616-15.931a144.527,144.527,0,0,0,18.716-11.379c36.51-26.277,56.327-67.054,68.13-108.98,3.713-13.327,6.657-26.77,9.192-40.049,6.606-34.747,11.7-70.1,18.358-103.8,10.7-54.22,30.724-101.919,65.416-144.127,22.275-27.1,54.868-51.405,93.707-57.177,55.328-8.212,105.946,13.4,153.44,26.395,3.738,1.009,7.5,1.994,11.266,2.933,57.12,14.077,116.187,16.423,171.208-2.088,58.657-19.755,112.039-67.687,121.692-130.19" transform="translate(-38.996 -231.56)"/><path class="f" d="M126.22,901.57a763.529,763.529,0,0,1,111.271-116c18.255-15.509,37.56-30.5,60.039-40.636,45.01-20.388,95.577-18.77,143.045-9.174,13.083,2.675,25.91,5.889,38.4,9.385a717.543,717.543,0,0,1,151.8,64.333c47.11,26.723,90.635,60.156,142.84,83.454,44.806,20.013,92.811,38.055,142.021,45.469,42.143,6.312,86.615,3.4,123.817-15.2a145.875,145.875,0,0,0,19.279-11.52c37.662-26.7,57.94-68.485,70.255-111.491,3.892-13.632,7.015-27.4,9.755-40.988,7.194-35.5,13.237-71.7,21.148-106.1,12.8-55.417,35.844-103.42,73.123-145.6,22.531-25.456,54.279-48.637,91.941-54.525,53.766-8.376,103,10.652,149.19,21.116,3.661.821,7.3,1.6,10.984,2.346,55.431,11.051,111.937,10.558,163.732-9.6,55.175-21.421,104.435-69.072,112.167-129.815" transform="translate(-33.332 -236.918)"/><path class="f" d="M129.85,923.559a712.055,712.055,0,0,1,109.479-113.11c17.922-15.039,37.125-29.468,59.118-39.439,44.063-19.99,93.4-19.661,139.972-11.5,12.8,2.346,25.6,5.021,37.765,8.164A702.817,702.817,0,0,1,626.6,826.192c46.9,24.776,90.456,56.144,141.841,78.5,46.086,20.083,95.09,38.782,145.477,46.783,43.065,6.781,88.792,4.223,127.017-14.5a148.264,148.264,0,0,0,19.868-11.731c38.789-27.1,59.476-69.869,72.354-113.908,4.071-14.077,7.374-28.154,10.241-41.927,7.681-36.3,14.747-73.318,23.939-108.394,14.824-56.614,40.683-104.992,80.8-147.13,22.71-23.837,53.767-45.845,90.149-51.827,52-8.54,100.108,7.883,144.99,15.907,3.533.633,7.092,1.22,10.651,1.76,53.767,8.094,107.713,4.692,156.179-17.08,51.744-23.11,96.857-70.5,102.669-129.439" transform="translate(-27.668 -242.06)"/><path class="f" d="M133.48,945.578A663.235,663.235,0,0,1,241.167,835.306c17.922-14.546,36.664-28.436,58.221-38.243,43.064-19.567,91.173-20.435,136.874-13.819,12.622,1.83,25.065,4.176,37.2,6.874a686.478,686.478,0,0,1,149.01,52.672c46.7,22.829,90.3,52.156,140.817,73.553,47.545,20.13,97.292,39.533,148.933,48.1,44.037,7.273,90.994,5.067,130.269-13.772a148.443,148.443,0,0,0,20.483-11.731c39.941-27.568,61.038-71.348,74.454-116.465,4.225-14.265,7.681-28.67,10.933-42.865,8.321-37.07,16.335-74.891,26.7-110.67,17-57.786,45.548-106.658,88.51-148.654,22.838-22.289,53.075-43.076,88.382-49.153,50.336-8.7,97.292,5.115,140.818,10.675,3.456.422,6.887.821,10.241,1.173,52.128,5.115,103.462-1.291,148.806-24.588,48.287-24.776,89.252-71.887,93.17-129.04" transform="translate(-22.004 -247.257)"/><path class="f" d="M137.11,967.757A616.264,616.264,0,0,1,243.03,860.348c17.615-14.077,36.2-27.45,57.274-37.046,42.117-19.192,89-21.116,133.8-16.142,12.392,1.408,24.656,3.284,36.612,5.56a671.378,671.378,0,0,1,147.628,46.924c46.5,20.857,90.174,48.1,139.819,68.6,48.9,20.153,99.673,40.261,152.39,49.41,44.985,7.743,93.17,5.889,133.469-13.068a150.814,150.814,0,0,0,21.02-11.965c40.965-28.014,62.574-72.732,76.553-118.952,4.4-14.593,8.091-29.327,11.5-43.8,8.91-37.867,17.922-76.509,29.495-112.992,19.074-58.983,50.285-108.417,96.217-150.156,23.043-20.787,52.461-40.307,86.615-46.5,48.646-8.869,94.271,2.346,136.516,5.443,3.328.235,6.657.422,10.011.586,50.49,2.159,99.238-7.2,141.33-32.072,44.857-26.535,81.674-73.459,83.748-128.736" transform="translate(-16.34 -252.52)"/><path class="f" d="M140.73,989.836a575.123,575.123,0,0,1,104.154-104.57c17.384-13.561,35.844-26.418,56.327-35.826,41.17-18.769,86.795-22.031,130.73-18.488,12.187.985,24.221,2.346,36.049,4.247a659.535,659.535,0,0,1,146.245,41.082c46.291,18.933,90.021,44.062,138.82,63.652C803.34,960.11,855.007,980.944,908.9,990.657c45.906,8.235,95.346,6.734,136.7-12.341a153.576,153.576,0,0,0,21.558-12.106c42.22-28.459,64.136-74.257,78.678-121.439,4.583-14.922,8.449-29.984,12.085-44.766,9.473-38.642,19.382-78.1,32.286-115.268,21.123-60.18,54.919-110.271,103.923-151.658,22.915-19.333,51.846-37.539,84.8-43.827,47.007-9.033,91.352-.375,132.317.211h9.678c48.825-.8,95.013-13.139,133.879-39.58,41.4-28.154,74.1-74.7,74.249-128.313" transform="translate(-10.692 -257.73)"/><path class="f" d="M144.36,1012.012A534.9,534.9,0,0,1,246.773,910.328,293.923,293.923,0,0,1,302.178,875.7c40.2-18.394,84.49-22.852,127.657-20.811,11.957.563,23.811,1.572,35.46,2.933a645.715,645.715,0,0,1,144.863,35.192c46.086,16.964,89.867,39.886,137.77,58.655,51.693,20.177,104.23,41.785,159.328,52.062,46.854,8.681,97.522,7.578,139.9-11.731a156.181,156.181,0,0,0,22.147-12.247c43.371-28.9,65.672-75.688,80.778-123.949,4.762-15.227,8.807-30.5,12.648-45.68,10.036-39.439,20.892-79.77,35.076-117.591,23.171-61.353,59.451-112.336,111.63-153.136,23.043-17.948,51.206-34.747,83.031-41.176,45.318-9.2,88.433-3.12,128.016-5.021,3.124-.141,6.247-.352,9.371-.586,47.161-3.754,90.789-19.051,126.428-47.065,37.944-29.8,66.568-76.134,64.648-127.938" transform="translate(-5.028 -263.061)"/><path class="f" d="M148,1034.038a498.753,498.753,0,0,1,100.595-98.845,304.825,304.825,0,0,1,54.483-33.409c39.25-18,82.416-23.65,124.585-23.157,11.726.165,23.4.728,34.871,1.643a632.146,632.146,0,0,1,143.378,29.375c45.855,15.016,89.739,35.92,136.772,53.751,53.1,20.13,106.509,42.512,162.759,53.352,47.827,9.173,99.724,8.423,143.122-10.91a159.546,159.546,0,0,0,22.736-12.388c44.5-29.257,67.311-77.143,82.9-126.436,4.941-15.555,9.192-31.251,13.237-46.619,10.6-40.213,22.4-81.319,37.867-119.89,25.219-62.573,63.88-114.541,119.311-154.661,23.043-16.588,50.643-31.956,81.239-38.5,43.679-9.385,85.54-5.866,123.868-10.253,3.021-.352,6.042-.751,9.038-1.173,45.523-6.734,86.564-24.987,118.952-54.573,34.513-31.439,58.887-77.424,55.149-127.563" transform="translate(0.652 -268.217)"/><path class="f" d="M151.62,1056.331a463.158,463.158,0,0,1,98.828-96.194,318.445,318.445,0,0,1,53.536-32.19c38.4-17.62,80.215-24.471,121.512-25.48q17.282-.422,34.308.329a618.99,618.99,0,0,1,142.072,23.462c45.65,13.069,89.611,31.814,135.7,48.777,54.535,20.06,108.813,43.263,166.241,54.69,48.774,9.643,101.9,9.244,146.348-10.206a161.1,161.1,0,0,0,23.3-12.551c45.651-29.75,68.77-78.551,84.977-128.924,5.121-15.86,9.55-31.885,13.826-47.557,11.163-40.988,23.913-82.915,40.632-122.19,27.293-63.746,68.232-116.934,127.017-156.139,23.043-15.3,50.054-29.187,79.37-35.85,41.989-9.526,82.6-8.611,119.618-15.485,2.919-.54,5.838-1.126,8.731-1.76,43.405-9.333,82.451-31.065,111.5-62.057,31.031-33.128,51.206-78.949,45.625-127.187" transform="translate(6.3 -273.548)"/><path class="f" d="M155.25,1078.2a431.55,431.55,0,0,1,97.036-93.12A335.134,335.134,0,0,1,304.9,954.062c37.329-17.2,78.038-25.316,118.44-27.779,11.291-.727,22.556-1.032,33.719-1.009a607.925,607.925,0,0,1,140.689,17.761c45.445,11.1,89.611,27.685,134.749,43.827,55.943,19.966,111.092,44.085,169.723,55.98,49.7,10.136,104.077,10.089,149.548-9.5a160.637,160.637,0,0,0,23.862-12.669c46.8-30.2,70.332-80.005,87.051-131.386,5.274-16.189,9.908-32.519,14.389-48.5,11.752-41.786,25.45-84.463,43.525-124.489,29.341-64.942,72.508-119.539,134.749-157.664a272.644,272.644,0,0,1,77.68-33.175c40.325-9.666,79.677-11.355,115.394-20.717,2.816-.727,5.607-1.525,8.4-2.346,41.852-12.485,78.285-36.848,104.026-69.565,27.6-34.794,43.73-80.333,36.126-126.811" transform="translate(11.964 -278.663)"/><path class="f" d="M158.87,1100.331a402.037,402.037,0,0,1,95.269-90.282,357.841,357.841,0,0,1,51.693-29.8A361.759,361.759,0,0,1,421.2,950.128c11.06-1.15,22.121-1.877,33.156-2.346A597.663,597.663,0,0,1,593.663,959.7c45.215,9.15,89.355,23.462,133.725,38.877,57.377,19.825,113.371,44.742,173.154,57.294,50.643,10.629,106.253,10.933,152.774-8.774a164.211,164.211,0,0,0,24.425-12.811c47.929-30.641,71.868-81.46,89.2-133.9,5.453-16.423,10.241-33.175,14.978-49.457,12.315-42.56,26.96-86.129,46.086-126.694,31.389-66.162,76.809-122.354,142.43-159.189a317.331,317.331,0,0,1,75.887-30.5c38.661-9.83,76.81-14.077,111.169-25.949,2.714-.938,5.428-1.9,8.091-2.933,40.338-15.666,74.2-42.672,96.7-77.119,24.144-36.483,36.126-81.765,26.628-126.436" transform="translate(17.612 -283.927)"/><path class="f" d="M162.5,1122.276a373.411,373.411,0,0,1,93.451-87.42c48.033-32.332,104.04-53.287,163.041-61,10.83-1.572,21.711-2.769,32.567-3.613a585.433,585.433,0,0,1,137.924,6.1c45.01,7.2,89.227,19.4,132.7,33.925,58.887,19.638,115.675,45.47,176.662,58.655,51.59,11.1,108.429,11.731,155.974-8.071a165.468,165.468,0,0,0,25.014-12.951c49.081-31.087,73.43-82.891,91.3-136.407,5.633-16.822,10.625-33.808,15.541-50.373,12.8-43.358,28.5-87.724,49-129.041,33.463-67.336,80.855-125.38,150.137-160.667a386.036,386.036,0,0,1,74.249-27.849c37-9.995,73.839-16.846,106.944-31.181,2.56-1.126,5.12-2.346,7.681-3.519,38.676-18.84,69.862-48.4,89.1-84.463,20.687-38.126,28.548-83.173,17.1-126.061" transform="translate(23.276 -289.002)"/><path class="f" d="M166.13,1144.5c57.069-77.142,151.059-128.126,250.757-146.754s204.287-6.57,300.222,24.33c60.3,19.426,117.928,46.243,180.067,59.922s132.061,12.646,184.8-20.435c65.979-41.411,88-119.656,109.53-190.206,35.409-116.09,92.171-239.523,209.613-293.579,58.58-26.911,127.12-33.668,182.525-65.693,76.81-44.437,115.214-137.956,89.227-217.727" transform="translate(28.94 -294.36)"/></g><g transform="translate(-676.512 -350.313)"><path class="f" d="M-264.23,33.985A1674.272,1674.272,0,0,1-108.87-86.867C-84.7-103.478-59.4-119.714-30.294-127.245c74.4-19.051,150.188,24.33,207.027,72.122A848.7,848.7,0,0,1,315.656,92.8c39.3,53.634,72.457,112.336,124.329,156.092s129.834,69.823,193.842,42.724c38.072-16.118,65.6-48.871,80.7-84.721s19.023-74.82,19.919-113.251c1.024-43.991-1.1-90.422,21.84-129.041,23.76-39.885,74.4-65.2,123.945-61.7,70.537,5,122.511,59.359,173.871,103.913,65.237,56.567,144.735,103.913,233.808,114.1S1476.118,96.6,1518.031,23.779" transform="translate(264.23 172.668)"/><path class="f" d="M-262,39.679A1551.181,1551.181,0,0,1-108.944-78.64c23.836-16.189,48.825-32.025,77.424-39.346C25.959-132.672,84.283-110.5,134.106-78.1a464.416,464.416,0,0,1,38.635,28.154A830.8,830.8,0,0,1,311.511,91.928c39.429,51.663,72.713,108.629,124.226,151.024,28.88,23.79,64.9,42.795,102.413,51.428,32.67,7.508,66.7,7.039,97.574-5.584a137.917,137.917,0,0,0,15.925-7.743c31.415-17.878,54.151-47.346,67.976-79.137a238.438,238.438,0,0,0,10.907-31.251c7.681-27.638,10.907-56.309,12.93-84.627C746.738,41.2,748.4-4.993,773.186-43.236s73.251-62.6,121.666-59.382C963.776-98.066,1015.034-46.45,1065.6-4.547c3.968,3.285,8.014,6.569,12.11,9.784,61.78,48.73,135.031,87.63,215.706,95.091,86.1,7.977,181.014-26.934,220.7-98.305" transform="translate(267.71 185.086)"/><path class="f" d="M-259.69,45.414A1432.563,1432.563,0,0,1-108.939-70.394c23.529-15.743,48.159-31.134,76.272-38.313,56.455-14.453,113.806,6.335,163.041,37a467.3,467.3,0,0,1,38.4,26.747A814.236,814.236,0,0,1,307.164,91.118c39.608,49.645,73.1,104.851,124.2,146,30.16,24.119,67.029,43.827,105.587,53.212,33.515,8.141,68.668,8.165,100.595-4.364a136.966,136.966,0,0,0,16.514-7.766c32.618-18.136,55.994-48.519,70.511-81.249a256.289,256.289,0,0,0,11.649-32.072c8.347-28.319,12.8-57.693,16.156-86.434,5.53-45.657,10.907-91.5,37.585-129.486,25.347-35.991,72.1-59.945,119.387-57.059,67.311,4.129,117.774,52.977,167.6,92.229q5.914,4.692,11.931,9.15c60.731,45.563,131.959,81.108,209.946,86.5,83.031,5.748,173.82-29.585,211.277-99.525" transform="translate(271.314 197.487)"/><path class="f" d="M-257.41,56.59a1330.142,1330.142,0,0,1,148.5-113.3c23.222-15.3,47.519-30.2,75.119-37.281,55.431-14.218,111.809,5.209,160.481,34.231Q146.4-47.993,164.709-34.419A798.544,798.544,0,0,1,302.966,95.63C342.753,143.4,376.4,196.845,427.039,236.636c31.287,24.565,69.128,45,108.737,55.135,34.359,8.775,70.665,9.385,103.616-3.12a136.7,136.7,0,0,0,17.1-7.836c33.822-18.347,57.812-49.645,73.1-83.337a287.565,287.565,0,0,0,12.392-32.847c9.038-29,14.543-59.03,19.33-88.24,7.809-46.5,16.8-92.111,45.471-129.7,25.936-34.043,71.074-57.364,117.16-54.76,65.7,3.684,115.521,49.786,164.475,86.363q5.786,4.317,11.726,8.54c59.681,42.349,128.963,74.585,203.98,77.894,79.958,3.519,166.651-32.237,201.855-100.745" transform="translate(274.871 204.401)"/><path class="f" d="M-255.14,70.754A1233.7,1233.7,0,0,1-109.022-40.033c22.914-14.875,46.853-29.28,73.967-36.248,54.407-14.077,109.812,4.035,157.92,31.415,13.16,7.461,25.782,15.6,37.713,23.978A780.148,780.148,0,0,1,298.528,103.2c40.018,45.8,73.967,97.39,124.226,135.915,32.49,24.987,71.2,46.126,111.86,57.012,35.179,9.385,72.636,10.558,106.637-1.877a138.215,138.215,0,0,0,17.692-7.883c35.051-18.605,59.63-50.819,75.657-85.425a314.654,314.654,0,0,0,13.16-33.738c9.755-29.679,16.335-60.368,22.531-90.047,10.036-47.346,22.582-92.6,53.331-129.909,26.422-32.049,69.82-54.666,114.83-52.39,64.008,3.238,113.192,46.6,161.3,80.521,3.789,2.675,7.681,5.326,11.521,7.907,58.631,39.181,125.968,68.04,198.117,69.283,76.81,1.314,159.457-34.864,192.433-101.919" transform="translate(278.413 208.395)"/><path class="f" d="M-252.87,84.876A1147.494,1147.494,0,0,1-109.057-23.4C-86.475-37.83-62.971-51.743-36.242-58.594,17.141-72.342,71.548-55.684,119.118-29.97c13.032,7.039,25.6,14.687,37.381,22.594A765.034,765.034,0,0,1,294.244,110.755c40.2,43.827,74.531,93.566,124.2,130.87,33.745,25.362,73.4,47.229,115.009,58.866,36.024,10.042,74.633,11.731,109.658-.657a141.62,141.62,0,0,0,18.306-7.907c36.228-18.769,61.448-51.992,78.192-87.536a347.9,347.9,0,0,0,13.928-34.559c10.472-30.36,18.076-61.7,25.6-91.853,12.264-48.144,28.394-93.073,61.32-130.12,26.781-30.125,68.668-52.039,112.654-50.068,62.472,2.815,110.862,43.428,158.227,74.7q5.607,3.684,11.317,7.273c57.607,35.967,122.9,61.517,192.254,60.673,73.84-.892,152.262-37.539,183.011-103.232" transform="translate(281.955 212.387)"/><path class="f" d="M-250.6,98.979A1067.765,1067.765,0,0,1-109.091-6.764C-86.817-20.841-63.518-34.191-37.4-40.948,14.956-54.485,68.39-39.212,115.4-15.14c12.8,6.546,25.3,13.749,37.073,21.116A748.3,748.3,0,0,1,289.959,118.265c40.376,41.88,75.043,89.718,124.1,125.756,35.076,25.808,75.5,48.425,118.235,60.837,36.869,10.628,76.6,12.9,112.654.563a144.289,144.289,0,0,0,18.87-7.977c37.457-19.074,63.24-53.141,80.778-89.624,5.581-11.731,10.241-23.462,14.645-35.4,11.189-31.017,19.894-63.019,28.932-93.637,14.44-49.035,33.9-93.566,69.129-130.331,27.037-28.154,67.515-49.27,110.273-47.722,60.859,2.346,108.532,40.237,155.1,68.837,3.661,2.346,7.374,4.481,11.112,6.64C1190.345,9,1253.841,31.2,1320.179,28.171c70.767-3.1,145.068-40.12,173.589-104.335" transform="translate(285.497 216.396)"/><path class="f" d="M-248.33,113.135A992.009,992.009,0,0,1-109.126,9.9C-87.158-3.658-64.218-16.633-38.615-23.249c51.36-13.3,103.8.587,150.214,23.016,12.8,6.1,25.065,12.834,36.792,19.825A731.826,731.826,0,0,1,285.675,125.8c40.555,39.885,75.58,85.871,124.15,120.805,36.28,26.09,77.5,49.434,121.308,62.62,37.714,11.262,78.6,14.077,115.726,1.807a144.456,144.456,0,0,0,19.458-8.024c38.661-19.309,65.032-54.314,83.338-91.736,5.812-11.919,10.856-24.1,15.362-36.225,11.957-31.7,21.865-64.356,32.106-95.443,16.693-49.88,39.454-94.059,76.963-130.519C901.328-77.376,940.5-97.694,982.132-96.333c59.246,1.947,106.2,37.046,151.981,63,3.584,2.041,7.246,4.059,10.907,6.006,55.508,29.609,117.006,48.5,180.528,43.475,67.695-5.326,137.9-42.771,164.167-105.579" transform="translate(289.039 220.376)"/><path class="f" d="M-246,132.53A922.462,922.462,0,0,1-109.254,31.808c21.66-13.115,44.268-25.6,69.385-32.119C10.441-13.38,61.852-.757,107.759,19.913c12.6,5.678,24.809,11.919,36.459,18.441A718.047,718.047,0,0,1,281.425,138.607c40.735,38.008,76.144,82.117,124.15,115.785,37.406,26.442,79.472,50.537,124.2,64.473,38.533,11.9,80.573,15.274,118.747,3.027a144.669,144.669,0,0,0,20.047-8.047c39.89-19.567,66.85-55.464,85.9-93.848,6.068-12.2,11.342-24.658,16.181-37.046,12.622-32.377,23.5-65.693,35.281-97.25,19.074-50.725,45.01-94.6,84.849-130.612C918.047-69.595,956.017-89.068,996.5-87.989,1054.23-86.6,1100.47-54.3,1145.429-30.835c3.559,1.83,7.118,3.613,10.728,5.373,54.458,26.418,114.011,41.95,174.665,34.841,64.648-7.531,130.7-45.4,154.745-106.728" transform="translate(292.675 219.094)"/><path class="f" d="M-243.78,156.068A859.461,859.461,0,0,1-109.21,57.88C-87.857,45.21-65.685,33.2-40.978,26.793,8.309,13.959,58.747,25.2,104.09,44.2c12.469,5.232,24.553,11,36.152,17.057A703.218,703.218,0,0,1,277.09,155.575c40.965,36.037,76.809,78.058,124.124,110.74,38.84,26.747,81.7,51.616,127.58,66.327,39.378,12.529,82.57,16.423,121.768,4.27a146.53,146.53,0,0,0,20.636-8.047c40.965-19.825,68.668-56.637,88.484-95.959,6.273-12.482,11.8-25.222,16.924-37.868,13.339-33.058,25.3-67.031,38.4-99.056C836.212,44.365,865.272.8,907.721-34.959c27.242-22.969,64.008-41.5,103.437-40.753C1067.2-74.633,1112.7-45.048,1156.866-24.4c3.482,1.619,6.99,3.214,10.523,4.692C1220.8,3.518,1278.4,15.718,1336.19,6.545c61.448-9.76,123.51-48.05,145.3-107.925" transform="translate(296.138 213.669)"/><path class="f" d="M-241.51,179.6A802.214,802.214,0,0,1-109.244,83.9c21.02-12.224,42.962-23.743,67.08-30.055,48.262-12.6,97.7-2.745,142.507,14.64,12.315,4.692,24.323,10.065,35.844,15.649a691,691,0,0,1,136.644,88.358c40.965,34.09,77.3,74.14,124.073,105.7,40.146,27.1,83.825,52.766,130.73,68.2,40.223,13.162,84.49,17.643,124.79,5.514a151.519,151.519,0,0,0,21.251-8.165c42.3-20.037,70.46-57.787,91.019-98.047,6.5-12.763,12.315-25.808,17.666-38.689,14.056-33.738,27.139-68.345,41.682-100.886C847.52,53.729,879.575,10.3,924.611-25.033c27.191-21.3,62.958-38.876,101.184-38.407,54.432.633,99.238,27.474,142.584,45.446,3.431,1.408,6.862,2.792,10.241,4.129C1231,6.171,1286.639,15.017,1341.558,3.755c58.5-11.942,116.315-50.678,135.876-109.145" transform="translate(299.68 208.27)"/><path class="f" d="M-239.24,203.019a746.367,746.367,0,0,1,129.962-93.167c20.713-11.731,42.3-22.828,65.928-29.022C3.887,68.441,52.354,76.934,96.571,92.56c12.187,4.317,24.093,9.15,35.537,14.288a675.541,675.541,0,0,1,136.439,82.563c41.247,32.049,77.936,70.1,124.047,100.581,41.477,27.38,85.924,53.962,133.879,70.057,40.965,13.8,86.539,18.769,127.811,6.734a154.357,154.357,0,0,0,21.84-8.188c43.525-20.294,72.278-58.96,93.58-100.159,6.759-13.045,12.8-26.348,18.434-39.51,14.773-34.442,28.932-69.682,44.882-102.669C858.751,63.021,893.725,19.711,941.449-15.13c27.037-19.708,61.832-36.225,98.879-36.084,52.845.188,96.934,24.307,139.486,39.6,3.354,1.22,6.734,2.346,10.113,3.5C1241.237,8.754,1295,14.291,1347,.941c55.457-14.077,109.146-53.329,126.454-110.271" transform="translate(303.222 202.967)"/><path class="f" d="M-237,226.566a692.369,692.369,0,0,1,127.734-90.657C-88.783,124.554-67.61,113.973-44.49,107.9c46.239-12.13,93.707-5.021,137.361,9.033,12.059,3.895,23.837,8.235,35.23,12.9A662.518,662.518,0,0,1,264.31,206.272c41.477,30.172,78.55,66.209,124.047,95.631,42.885,27.662,88,54.971,137.028,71.911,41.861,14.429,88.484,20.013,130.806,7.977a155.04,155.04,0,0,0,22.428-8.235c44.729-20.529,74.07-60.109,96.165-102.247,6.964-13.35,13.262-26.958,19.177-40.378,15.49-35.193,30.724-70.972,48.057-104.452C870.183,72.515,907.819,29.111,958.334-5.1c26.832-18.16,60.679-33.6,96.6-33.762,51.206-.235,94.6,21.116,136.362,33.785,3.277.985,6.605,1.947,9.908,2.839,50.285,13.678,102.054,15.86,151.212.422C1404.8-18.235,1454.37-57.769,1469.45-113.35" transform="translate(306.717 197.555)"/><path class="f" d="M-234.69,250.05A646.521,646.521,0,0,1-109.362,161.9c20.1-10.91,40.965-21,63.624-26.958,45.215-11.919,91.71-6.171,134.8,6.217,11.905,3.449,23.657,7.414,34.923,11.52a650.032,650.032,0,0,1,135.978,70.5c41.631,28.2,79.216,62.221,124.15,90.563,44.012,27.943,89.969,56.1,140.049,73.788,42.706,15.062,90.482,21.116,133.853,9.22a157.783,157.783,0,0,0,23.043-8.306c45.932-20.764,75.888-61.259,98.726-104.335,7.22-13.632,13.749-27.521,19.945-41.2,16.207-35.779,32.618-72.286,51.206-106.259C881.274,81.8,921.779,38.306,975.11,4.9c26.6-16.681,59.527-30.97,94.322-31.439,49.619-.68,92.171,17.925,133.136,27.92,3.252.774,6.478,1.525,9.729,2.229,49.235,10.464,99.059,9.385,145.349-8.188,49.312-18.605,94.732-58.655,107.533-112.758" transform="translate(310.322 192.183)"/><path class="f" d="M-232.42,273.591a602.214,602.214,0,0,1,122.9-85.613c19.765-10.487,40.35-20.083,62.471-25.808,44.191-11.731,89.611-7.344,132.24,3.425,11.777,2.98,23.35,6.382,34.59,10.136a637.461,637.461,0,0,1,135.7,64.52c42.015,26.066,80.061,58.021,124.2,85.354,45.5,28.155,92.171,57.2,143.378,75.641,43.525,15.7,92.453,22.406,136.874,10.464a162.687,162.687,0,0,0,23.606-8.352c47.135-21.116,77.68-62.432,101.286-106.447,7.425-13.913,14.21-28.154,20.662-42.02,16.872-36.46,34.385-73.624,54.407-108,32.746-55.769,75.734-99.479,132.061-132.044,26.346-15.25,58.375-28.342,92.171-29.116,48.006-1.1,89.944,14.758,130.09,22.078,3.175.587,6.35,1.126,9.524,1.6,48.185,7.3,96.063,2.792,139.486-16.775,46.239-20.834,87.563-61.259,98.188-113.955" transform="translate(313.864 186.826)"/><path class="f" d="M-230.15,297.055a561.359,561.359,0,0,1,120.719-83.126,305.96,305.96,0,0,1,61.447-24.893c43.167-11.449,87.716-8.47,129.654.633,11.649,2.534,23.043,5.467,34.308,8.751a627.065,627.065,0,0,1,135.543,58.655c41.861,24.26,80.419,54.1,123.842,80.4,46.879,28.318,94.322,58.326,146.476,77.589,44.37,16.423,94.45,23.462,139.9,11.731a160.719,160.719,0,0,0,24.2-8.376c48.339-21.256,79.37-63.605,103.846-108.558,7.681-14.077,14.7-28.647,21.43-42.841,17.641-37.3,36.254-75.078,57.633-110.036,34.9-56.52,80.6-100.675,139.947-132.184,26.09-13.843,57.249-25.691,89.765-26.77,46.393-1.548,87.614,11.543,126.966,16.212,3.1.375,6.221.7,9.345.985,47.135,4.082,93.042-3.73,133.6-25.409,43.193-23.016,80.394-63.887,88.766-115.151" transform="translate(317.406 181.427)"/><path class="f" d="M-227.87,320.512A521.449,521.449,0,0,1-109.481,239.92a315.751,315.751,0,0,1,60.167-23.861c42.143-11.215,85.719-9.643,127.094-2.182,11.521,2.088,22.864,4.692,34,7.367A615.225,615.225,0,0,1,247.094,273.87c42.168,22.336,81.213,50.138,123.97,75.453,48.262,28.577,96.4,59.359,149.6,79.4,45.215,16.916,96.421,24.752,142.917,12.9a162.712,162.712,0,0,0,24.784-8.446c49.568-21.468,81.316-64.731,106.407-110.646,7.911-14.476,15.183-29.21,22.2-43.663,18.357-37.821,38.046-76.3,60.833-111.679,37.125-57.364,85.387-102.106,147.807-132.4,25.808-12.529,56.1-23.063,87.486-24.447,44.78-1.971,85.284,8.376,123.842,10.394,3.047.164,6.094.258,9.14.328,46.086.915,90.046-10.253,127.734-34,40.12-25.245,73.2-66.538,79.37-116.371" transform="translate(320.963 176.083)"/><path class="f" d="M-225.6,344.127a485.621,485.621,0,0,1,116.085-78.1,331.951,331.951,0,0,1,58.887-22.828c41.119-10.98,83.722-10.793,124.534-4.974q17.052,2.464,33.668,6.006A603.6,603.6,0,0,1,242.81,290.868c42.348,20.388,81.93,46.1,123.945,70.386C416.425,390,465.25,421.763,519.5,442.5c46.086,17.55,98.419,25.949,145.938,14.077a166.388,166.388,0,0,0,25.373-8.493c50.771-21.726,83.133-65.9,108.992-112.758,8.142-14.758,15.644-29.773,23.043-44.578,19.049-38.477,39.839-77.589,64.008-113.462C926.26,119.1,976.98,73.564,1042.55,44.683c25.6-11.238,54.944-20.412,85.207-22.1,43.192-2.346,82.954,5.162,120.719,4.528,2.97,0,5.94-.141,8.935-.3,44.526-2,87.2-16.923,121.871-42.607,37.048-27.45,66.005-69.166,69.922-117.568" transform="translate(324.505 170.604)"/><path class="f" d="M-223.33,367.49a452.079,452.079,0,0,1,113.781-75.571,346.379,346.379,0,0,1,57.863-21.8c40.12-10.769,81.725-12.036,121.973-7.766,11.24,1.15,22.377,2.722,33.284,4.692a594.916,594.916,0,0,1,134.98,40.613c42.5,18.418,82.57,42.02,123.893,65.365,51.206,28.882,100.62,61.635,155.9,83.126,46.879,18.183,100.39,27.122,148.959,15.367A167.829,167.829,0,0,0,693.288,463c51.974-21.984,84.9-67.077,111.527-114.963,8.372-15.039,16.13-30.36,23.709-45.328,19.766-39.158,41.656-78.926,67.208-115.268,41.631-59.03,94.732-105.579,163.553-132.818a280.408,280.408,0,0,1,82.877-19.685c41.58-2.862,80.624,1.994,117.57-1.314q4.378-.375,8.756-.915c43.613-5.384,84.234-23.318,116.008-51.217,33.975-29.679,58.887-71.817,60.474-118.764" transform="translate(328.047 165.354)"/><path class="f" d="M-221.06,390.92a420.684,420.684,0,0,1,111.476-73.037,368.55,368.55,0,0,1,56.711-20.764c39.1-10.534,79.728-13.186,119.387-10.581,11.112.7,22.147,1.806,33.079,3.214A588.034,588.034,0,0,1,234.267,324.5c42.68,16.494,83.261,37.938,123.868,60.344,52.563,28.975,102.72,62.737,159.047,84.979,47.724,18.769,102.413,28.318,152.006,16.611a172.052,172.052,0,0,0,26.5-8.564c53.178-22.218,86.718-68.251,114.088-116.981,8.628-15.321,16.617-30.923,24.451-46.15,20.483-39.885,43.525-80.263,70.409-117.075C948.543,137.789,1004.153,90,1076.175,64.658a324.827,324.827,0,0,1,80.65-17.479c39.966-3.285,78.294-1.173,114.446-7.039,2.868-.469,5.71-1.009,8.551-1.572,42.679-8.77,81.225-29.717,110.093-59.828,30.929-31.885,51.616-74.445,51.053-119.961" transform="translate(331.589 160.036)"/><path class="f" d="M-218.78,414.481a390.735,390.735,0,0,1,109.146-70.55A398.8,398.8,0,0,1-54.075,324.2,410.645,410.645,0,0,1,62.752,310.826c10.984.258,21.891.892,32.746,1.83a581.162,581.162,0,0,1,134.468,28.788c42.86,14.546,83.953,33.855,123.868,55.323,54.1,29.046,104.794,63.887,162.17,86.833,48.646,19.45,104.358,29.492,155.027,17.855a171.694,171.694,0,0,0,27.139-8.634c54.381-22.453,88.536-69.377,116.674-119.069,8.833-15.6,17.077-31.486,25.193-46.924,21.225-40.519,45.292-81.6,73.609-118.882,46.086-60.7,104.179-109.966,179.222-133.217a394.75,394.75,0,0,1,78.448-15.274c38.4-3.73,75.965-4.387,111.323-13,2.791-.68,5.581-1.408,8.347-2.205,41.762-12.11,78.267-36.027,104.281-68.321,27.856-34.09,44.447-77.1,41.631-121.181" transform="translate(335.146 154.611)"/><path class="f" d="M-216.51,437.871c71.3-66.35,173.845-100.886,275.515-102.787s202.265,27.263,290.519,73.53c55.482,29.093,106.893,64.966,165.32,88.71s127.4,34.255,185.776,10.417c73.071-29.82,110.094-103.115,145.2-168.926C903.5,230.421,983.484,118.39,1109.759,84.652c62.907-16.8,131.651-12.106,192.459-34.466,84.311-31.017,140.408-116.653,130.576-199.426" transform="translate(338.688 149.24)"/></g><g transform="translate(-109.37 -177.774)"><path class="f" d="M-41.8,1300.811c-10.753-79.771,75.171-147.177,161.837-159.541s173.615,13.186,259.514,29.585,182.5,21.8,254.239-24.471c91.71-59.147,112.91-183.566,207.385-239.124,73.532-43.287,169.262-30.336,244.587,1.877,42.6,18.206,78.832,48.848,119.541,70.2,184.675,96.781,197.144,294.588,354.015,324.079,169.749,31.979,261.92-43.921,293.975-96.452,40.965-67.406,109.556-242.362-58.222-363.942-68.181-49.387-135.466-102.036-185.6-167.072-75.094-97.344-74.582-246.21,21.43-326.66,65.8-55.136,166.856-75.313,211.559-146,30.032-47.51,25.936-108.769,0-158.344S1771.822-43.909,1722.894-75.7" transform="translate(42.717 75.7)"/><path class="f" d="M-40.565,1300.427c-7.425-82.117,78.038-152.972,167.291-167.1,87.051-13.772,175.51,11.614,261.408,29.7,84.874,17.9,179.222,26,250.6-16.048,91.352-53.822,117.032-171.929,211.277-226.76,75.068-43.428,169.262-35.357,246.4-7.2,44.319,16.189,83.594,45.07,126.224,66.7,180.784,91.783,195.762,283.162,349.125,312.254,165.063,31.228,256.748-40.589,290.058-92.393,42.219-65.693,107.533-234.2-51-354.275-65.365-49.552-130.166-103.232-179.5-167.823-72.867-95.068-73.532-238.608,17.077-318.378,62.7-55.182,160.122-77.659,204.62-147.435,30.545-47.722,28.676-108.089,6.119-158.016C1836.35,3.147,1794.771-38.263,1747.866-72.4" transform="translate(45.371 80.142)"/><path class="f" d="M-39.233,1299.977c-4.1-84.346,80.906-158.72,172.744-174.58,87.588-15.11,177.4,10.018,263.3,29.843,83.876,19.356,175.714,30.172,246.994-7.672C734.775,1099.1,764.782,987.112,859.053,933.22c76.477-43.756,169.365-40.448,248.2-16.282,46.086,14.077,88.331,41.269,132.932,63.206,176.662,87,194.174,271.713,344.234,300.313,160.3,30.5,251.423-37.234,286.013-88.194,43.346-63.863,105.562-226.126-43.73-344.89-62.6-49.762-124.918-104.382-173.436-168.621-70.665-92.745-72.483-231.053,12.8-310.049,59.578-55.112,153.311-79.864,197.63-148.725,31.057-47.909,31.415-107.456,12.085-157.711C1856.065,11,1817.968-32.613,1772.932-69.12" transform="translate(47.931 84.558)"/><path class="f" d="M-37.8,1299.482c-.768-86.645,83.774-164.468,178.2-182.088,88.049-16.423,179.222,8.4,265.2,29.984,82.852,20.787,172.309,34.349,243.358.728C739.566,1104.96,774,999.217,868.2,946.123c77.962-43.944,169.544-45.587,250.015-25.363,47.9,12.036,93.042,37.539,139.614,59.734,172.514,82.4,192.715,260.263,339.37,288.581,155.488,29.8,246.072-33.879,281.942-83.994,44.447-62.08,103.616-218.2-36.484-335.271-59.835-50-119.439-105.579-167.342-169.372-68.156-90.633-71.458-223.545,8.372-301.767,56.506-55.347,146.476-82.469,190.769-150.344,31.441-48.261,34.206-106.916,18.1-157.406-16.642-52.179-51.206-97.93-94.45-136.713" transform="translate(50.386 89.041)"/><path class="f" d="M-36.28,1299.069c2.56-88.944,86.641-170.193,183.677-189.573,88.459-17.69,181.117,6.757,267.066,30.078,81.93,22.218,168.981,38.548,239.748,9.127,90.226-37.8,129.091-137.3,223.208-189.6,79.37-44.155,169.8-50.8,251.807-34.442,49.773,9.925,97.779,33.738,146.3,56.309,168.213,78.01,191.255,248.837,334.505,276.71,150.7,29.116,240.67-30.5,277.9-79.771,45.523-60.3,101.7-210.406-29.213-325.721-57.1-50.279-114.113-106.869-161.3-170.146-65.877-88.358-70.434-216.084,4.02-293.438,53.459-55.558,139.716-84.932,183.882-151.939,31.9-48.355,37-106.283,24.093-157.078C1895.862,26.448,1864.574-21.3,1823.353-62.52" transform="translate(52.761 93.443)"/><path class="f" d="M-34.76,1298.551c5.914-91.22,89.611-175.847,189.13-197.08,88.92-18.957,183.011,5.114,268.961,30.218,80.855,23.626,165.576,42.865,236.112,17.526,89.944-32.307,133.136-125.709,227.2-177.231,80.957-44.343,170.082-56.074,253.625-43.5,51.642,7.766,102.413,29.984,152.979,52.742,163.86,73.765,189.8,237.387,329.615,264.861,145.938,28.389,235.37-27.169,273.954-75.594,46.547-58.514,99.852-202.734-21.993-316.126-54.355-50.631-108.762-108.089-155.181-170.92-63.573-86.105-69.436-208.811-.307-285.156,50.31-55.628,132.829-87.208,176.815-153.206,32.414-48.566,39.915-105.743,30.084-156.773-10.395-54.127-38.4-104.03-77.629-147.505" transform="translate(55.133 97.926)"/><path class="f" d="M-33.24,1298.111c9.243-93.519,92.376-181.525,194.584-204.565,89.381-20.177,184.88,3.426,270.856,30.36,79.856,24.987,162.17,47.065,232.5,25.809,89.611-26.935,137.233-114.1,231.171-164.844,82.442-44.578,170.415-61.423,255.417-52.578,53.562,5.584,107.123,26.254,159.687,49.27,159.3,69.705,188.337,226.032,324.75,253.107,141.1,27.756,229.942-23.86,269.806-71.395,47.571-56.777,97.983-195.25-14.747-306.577A1438,1438,0,0,1,1741.673,685c-61.448-83.806-68.463-201.374-4.66-276.851,47.238-55.886,126.146-89.624,169.979-154.684,32.875-48.777,42.757-105.25,36.075-156.444-7.22-55.182-31.825-107.127-69.128-152.925" transform="translate(57.504 102.355)"/><path class="f" d="M-31.72,1297.644c12.6-95.8,95.244-187.156,200.037-212.072,89.867-21.374,186.9,1.736,272.75,30.5,78.858,26.371,158.74,51.288,228.867,34.324,89.2-21.585,141.3-102.5,235.165-152.5,83.953-44.719,170.773-66.867,257.235-61.658,55.456,3.331,111.758,22.547,166.42,45.751,154.592,65.694,186.9,214.512,319.886,241.188,136.311,26.958,224.54-20.482,265.761-67.195,48.646-55.018,96.242-187.906-7.476-297a1705.627,1705.627,0,0,1-143.019-172.492c-59.041-81.53-67.515-194.124-9.012-268.521,44.165-56.144,119.387-91.994,163.066-156.116C1949.4,215.09,1964.095,160.5,1960,105.708c-3.968-56.309-25.322-110.271-60.807-158.3" transform="translate(59.876 106.81)"/><path class="f" d="M-30.2,1297.23c15.874-98.094,98.111-192.787,205.491-219.627,90.328-22.547,188.644,0,274.645,30.618,77.859,27.685,155.385,55.488,225.308,42.7,88.792-16.236,145.4-90.845,239.133-140.068,85.463-44.883,171.157-72.356,259.027-70.737,57.4,1.056,116.417,18.769,173.052,42.231,149.881,61.939,185.418,203.063,314.919,229.316,131.523,26.277,219.137-17.151,261.741-62.972,49.516-53.306,94.6-180.657-.256-287.455-46.086-51.992-92.786-111.679-136.926-173.243-56.788-79.254-66.568-186.944-13.365-260.216,40.965-56.473,112.654-94.387,156.179-157.594,32.007-46.634,48.69-100.724,48.057-155.811-1.01-57.9-19.122-114.47-52.409-163.694" transform="translate(62.248 111.213)"/><path class="f" d="M-28.68,1296.725c19.254-100.37,101-198.37,210.944-227.064,90.814-23.72,190.539-1.713,276.514,30.758,76.809,29,151.955,59.663,221.621,51.1,88.433-10.886,149.5-79.231,243.23-127.7,87.051-45.047,171.541-77.917,260.845-79.77,59.323-1.267,121,15.2,179.734,38.783,145.093,58.255,183.933,191.613,310.105,217.468,126.735,25.55,213.684-13.819,257.7-58.795,50.464-51.616,93.093-173.782,7.015-277.882-43.525-52.578-87.512-112.852-130.858-174.017-54.535-76.932-65.774-179.836-17.717-251.911,37.918-56.848,105.894-96.733,149.215-159.025,32.608-46.586,51.25-100.22,54.048-155.506,2.5-59.024-12.755-117.541-44.089-169.16" transform="translate(64.619 115.682)"/><path class="f" d="M-27.16,1296.326c22.582-102.669,103.9-203.955,216.4-234.619,91.3-24.846,192.459-3.449,278.434,30.876,75.913,30.313,148.5,63.887,218.011,59.5,88.024-5.537,153.619-67.571,247.1-115.316,88.51-45.188,171.9-83.524,262.663-88.873,61.217-3.613,125.583,11.59,186.391,35.193,140.28,54.69,182.5,180.187,305.266,205.644,121.922,24.846,208.2-10.534,253.625-54.6,51.411-49.857,91.71-167.025,14.261-268.31-40.709-53.282-82.186-114.048-124.764-174.791-52.307-74.656-65.006-172.8-22.07-243.605,34.744-57.271,99.161-99.1,142.277-160.479,34.846-49.575,54.816-103.35,60.04-155.177,6.069-60.07-6.255-120.5-35.589-174.51" transform="translate(66.991 120.071)"/><path class="f" d="M-25.64,1295.764C.3,1190.889,81.151,1086.249,196.186,1053.684c91.787-26,194.354-5.232,280.354,31.017,74.915,31.58,145.119,68.039,214.349,67.9,87.64-.211,157.716-55.933,251.09-102.951,90.046-45.328,172.232-89.155,264.455-97.93,63.163-6.006,130.192,8,193.1,31.791,135.39,51.217,181.014,168.738,300.376,193.772,117.16,24.143,202.726-7.2,249.579-50.372,52.307-48.168,90.533-160.433,21.532-258.762-37.918-53.962-76.809-115.222-118.7-175.565-50.08-72.333-64.315-165.829-26.423-235.3,31.518-57.74,92.427-101.473,135.364-161.887,35.358-49.786,57.94-102.881,66.031-154.849A302.788,302.788,0,0,0,2000.107-39.36" transform="translate(69.363 124.621)"/><path class="f" d="M-24.12,1295.391c29.264-107.268,109.709-215.052,227.3-249.635,92.171-27.1,196.3-7.038,282.249,31.157,73.942,32.847,141.714,72.216,210.74,76.275,87.255,5.138,161.812-44.249,255.058-90.54,91.583-45.469,172.591-94.9,266.273-107.033,65.057-8.423,134.724,4.457,199.7,28.319,130.448,47.815,179.5,157.523,295.486,181.923,112.321,23.649,197.144-3.941,245.56-46.173,53.178-46.5,89.611-154.028,28.752-249.213-35-54.854-71.689-116.394-112.654-176.34-47.878-70.01-63.726-158.908-30.724-226.97,28.163-58.256,85.694-103.819,128.425-163.365,35.844-49.974,61.115-102.388,72.047-154.567A305.315,305.315,0,0,0,2025.309-36.12" transform="translate(71.734 128.982)"/><path class="f" d="M-22.6,1294.846C9.993,1185.3,90.054,1074.3,210.158,1037.774c92.786-28.154,198.22-8.845,284.195,31.274,72.995,34.114,138.257,76.415,207.1,84.7,86.872,10.44,165.934-32.588,259.053-78.175s172.9-100.628,268.065-116.113c66.952-10.863,139.281.985,206.464,24.823,125.455,44.578,178.044,146.1,290.647,170.1,107.533,22.922,191.691-.681,241.489-41.973,54.048-44.859,88.741-147.81,36.024-239.64-32.081-55.792-66.389-117.568-106.586-177.114-45.676-67.711-63.214-152.08-35.128-218.665C1886.319,418.145,1940.47,370.8,1983,312.144c36.51-50.138,64.289-101.872,78.013-154.239A308.335,308.335,0,0,0,2050.641-32.77" transform="translate(74.106 133.492)"/><path class="f" d="M-21.07,1294.393c36.024-111.843,115.521-226.056,238.289-264.628,93.3-29.281,200.165-10.675,286.038,31.416,72.073,35.333,134.9,80.568,203.494,93.073,86.487,15.766,170.031-20.881,263.021-65.693,94.732-45.7,173.18-106.4,269.883-125.17,68.821-13.373,143.787-2.463,213.146,21.327,120.514,41.317,176.662,134.648,285.757,158.251,102.72,22.2,186.186,2.557,237.444-37.8,54.919-43.193,88.228-141.663,43.269-230.067-28.881-56.778-61.064-118.717-100.441-177.889-43.525-65.365-62.856-145.276-39.454-210.36,21.327-59.429,72.252-108.535,114.574-166.274,36.894-50.326,67.49-101.355,84-153.934a312.631,312.631,0,0,0-1.946-196.118" transform="translate(76.493 137.934)"/><path class="f" d="M-19.55,1293.992C19.7,1179.873,98.89,1062.47,224.09,1021.834c93.81-30.36,202.265-12.529,287.933,31.556,71.126,36.53,131.5,84.744,199.858,101.472,86.1,21.117,174.1-9.2,267.015-53.422,96.216-45.821,173.436-112.195,271.675-134.249,70.69-15.86,148.293-5.819,219.854,17.831,115.5,38.22,175.1,123.2,280.867,146.4,97.932,21.491,180.63,5.795,233.4-33.574,55.764-41.575,88-135.7,50.541-220.542-25.6-57.857-55.815-119.867-94.373-178.639-41.323-63.042-62.6-138.425-43.807-202.054,17.743-60.062,65.544-110.9,107.533-167.729,37.432-50.513,70.741-100.886,90.021-153.605a317.609,317.609,0,0,0,6.427-201.491" transform="translate(78.865 142.323)"/><path class="f" d="M-18,1293.5c42.5-116.395,121.308-236.966,249.016-279.619,94.322-31.462,204.108-14.429,289.828,31.65,70.229,37.75,128.016,88.921,196.248,109.872,85.719,26.371,178.3,2.51,270.984-41.035,97.779-45.891,173.692-118.013,273.493-143.306,72.508-18.394,152.748-9.127,226.537,14.335,110.452,35.193,173.641,111.749,276,134.555,93.119,20.764,175.074,8.986,229.353-29.374,56.583-40,88.024-129.792,57.761-210.947-21.993-59.006-50.566-121.04-88.254-179.437-39.173-60.7-62.5-131.715-48.185-193.749,14-60.7,58.887-113.227,100.723-169.16,37.944-50.7,73.993-100.253,95.986-153.3A323.067,323.067,0,0,0,2126.34-22.9" transform="translate(81.284 146.779)"/><path class="f" d="M-16.51,1293.006c45.932-118.694,124.354-242.431,254.546-287.056,94.732-32.518,206.105-16.306,291.722,31.791,69.308,38.947,124.738,92.932,192.613,118.271,85.438,31.51,182.448,14.2,274.978-28.646,99.34-46.009,173.9-123.879,275.285-152.5,74.249-20.928,157.2-12.317,233.219,10.863,105.434,32.143,172.258,100.089,271.137,122.706,88.382,19.872,169.518,12.177,225.308-25.175,57.4-38.431,88.408-123.9,65.032-201.4a735.905,735.905,0,0,0-82.186-180.211c-37.022-58.326-62.523-124.912-52.538-185.349,10.241-61.33,52.128-115.573,93.784-170.615,38.4-50.865,77.27-99.666,102-153,31.192-66.925,39.3-140.99,23.248-212.26" transform="translate(83.608 151.262)"/><path class="f" d="M-15,1292.553c49.286-121.016,127.324-247.875,260.026-294.635,95.372-33.574,208.128-18.206,293.617,31.932,68.437,40.12,121.359,97.132,189,126.694,85.054,36.859,186.57,25.926,279.074-16.259,100.9-46.079,174.1-129.721,277.1-161.465,76.118-23.462,161.607-15.438,239.9,7.344C1624.088,1015.4,1694.5,1074.827,1790,1097.045c83.594,19.168,163.86,15.32,221.262-20.975,58.222-36.882,89.125-117.943,72.277-191.848a596.479,596.479,0,0,0-76.092-180.962c-34.9-55.98-62.651-118.107-56.89-177.137,6.042-61.916,45.446-117.9,86.871-172.07,39.019-51.03,80.547-99.033,107.994-152.667,34.771-67.831,45.823-143.849,31.646-217.656" transform="translate(85.964 155.704)"/><path class="f" d="M-13.47,1292.139C39.119,1168.847,116.8,1038.751,251.983,990.067c95.909-34.607,210.151-20.131,295.512,32.049,67.567,41.293,117.954,101.332,185.367,135.071,84.7,42.231,190.795,37.8,282.94-3.9,102.566-45.962,174.255-135.586,278.9-170.545,77.911-26.043,166.011-18.417,246.609,3.871,95.269,26.347,169.314,77.284,261.382,99.009,78.781,18.464,158.33,18.464,217.192-16.775S2110,957.009,2099.43,886.6c-9.4-62.5-34.974-124.348-70.025-181.759-32.8-53.611-62.907-111.186-61.243-168.809,1.818-62.479,38.865-120.172,79.933-173.618,39.685-51.124,83.85-98.54,113.985-152.362C2200.453,141.338,2214.461,63.36,2202.149-13" transform="translate(88.352 160.106)"/><path class="f" d="M-11.95,1291.679c55.917-125.639,133.316-258.574,270.907-309.7,96.5-35.521,212.2-22.078,297.406,32.19,66.568,42.466,114.574,105.579,181.782,143.446,84.311,47.534,194.891,49.458,286.909,8.493,104.1-46.079,174.383-141.452,280.713-179.625,79.677-28.6,170.338-21.233,253.266.4,90.3,23.462,167.854,65.693,256.518,87.161,74.019,17.76,152.749,21.561,213.172-12.576,59.835-33.808,91.378-105.579,86.769-172.7-4.353-63.488-29.8-125.521-64.008-182.51-30.724-51.264-63.265-104.194-65.6-160.526-2.56-62.925,32.132-122.518,73.02-174.956,40.2-51.335,87.051-97.766,119.977-152.033,41.97-69.568,58.947-149.487,48.518-228.4" transform="translate(90.723 164.603)"/><path class="f" d="M-10.43,1291.155C48.841,1163.287,125.8,1027.09,265.93,974.09c97.01-36.671,214.273-24.025,299.3,32.331C631.082,1050.036,676.4,1116.1,743.4,1158.2c83.953,52.86,198.988,61.119,290.9,20.881,105.613-46.243,174.511-147.341,282.505-188.7,81.444-31.2,174.69-23.908,259.974-3.12s166.421,54.361,251.628,75.336c69.129,17.033,147.167,24.659,209.127-8.376,60.654-32.33,92.914-98.845,94.04-163.13s-24.707-126.695-57.863-183.308c-28.6-48.871-63.726-97.039-69.948-152.2-7.118-63.347,25.4-124.888,66.082-176.41s90.43-97.109,125.968-151.728c45.525-70.436,65.43-152.314,56.839-233.8" transform="translate(93.095 169.045)"/></g><g transform="translate(923.07 -676.622)"><path class="f" d="M425.741,1977.058c-74.608-42.232-78.115-145.91-34.359-215.568s120-115.761,187.748-166.814,132.88-116.7,138.462-196.916c7.169-102.552-85.387-195.672-73.532-297.967,9.243-79.629,80.24-139.9,154.848-173.618,42.168-19.028,90.917-25.691,134.6-41.41,198.117-71.066,374.164,43.968,497.546-49.481,133.572-101.309,126.761-214.7,102.08-270.563-31.62-71.582-137.515-230.091-346.052-186.428-84.7,17.737-171.541,32.847-258.361,27.9-129.859-7.484-256.134-101.144-264.429-220.1-5.556-81.53,40.53-166.345,8.347-242.549-21.583-51.241-76.272-86.621-134.6-99.267s-119.848-5.044-177.507,9.948" transform="translate(-360.53 458.219)"/><path class="f" d="M427.673,1982.022c-74.454-46.1-81.213-151.588-37.3-224.178,42.885-70.856,119.823-118.061,189.028-168.082,68.386-49.411,134.314-111.632,143.378-189.056,11.445-98.962-72.918-191.309-60.5-292.946,10.088-80.827,75.965-143.118,148.242-180.516,41.528-21.515,90.686-31.462,135.7-48.378,191.307-71.606,363.411,37.656,484.309-53.728,129.962-98.329,126.3-208.811,103.13-265.119-29.392-71.277-131.831-223.522-333.379-185.608-82.98,15.649-169.16,28.412-255.11,23.157-126.556-7.508-249.016-96.992-260.077-211.626-7.681-79.348,34.232-163.013,2.765-238.514-21.43-51.616-73.967-88.193-130.576-103.373-57.121-15.3-118.389-11.567-176.815.587" transform="translate(-356.547 452.974)"/><path class="f" d="M431.132,1987.716c-74.249-49.927-84.337-157.195-40.274-232.765,42.015-72.028,119.644-120.43,190.334-169.372,69-47.768,135.7-106.587,148.217-181.2,15.746-95.349-60.68-186.945-47.494-288.042,10.728-82.117,71.689-146.309,141.662-187.484,40.965-24.072,90.456-37.234,137.054-55.323,184.7-71.746,352.76,31.533,471.1-57.693,126.377-95.349,125.839-202.9,104.153-259.512-27.139-70.949-126.2-217.07-320.679-184.786-81.521,13.514-167.035,23.814-252.063,18.23-123.151-7.649-241.95-92.98-255.75-203.344-9.652-77.19,28.163-159.682-2.791-234.478-21.276-52.2-71.689-89.765-126.556-107.456-55.969-18.042-116.9-18.136-176.15-8.8" transform="translate(-354.169 446.997)"/><path class="f" d="M434.634,1994.078c-74.249-53.728-87.409-162.849-43.218-241.353,41.2-73.154,119.439-122.752,191.614-170.615,69.589-46.2,137.182-101.543,153.107-173.36,20.047-91.76-48.313-182.6-34.462-283.139,11.47-83.219,67.464-149.64,135.057-194.452,40.248-26.676,90.2-42.982,138.257-62.291,178.172-71.606,342.109,25.409,458.04-61.611,122.767-92.393,125.455-197.08,105.2-254.022-24.963-70.62-120.668-210.688-308.031-183.965-79.984,11.4-164.68,19.1-248.888,13.42C861.541,374.6,746.4,293.652,729.889,187.651c-11.675-75.078,21.609-156.3-8.347-230.443-21.276-52.625-69.461-91.5-122.537-111.538-54.816-20.811-115.445-24.705-175.458-18.183" transform="translate(-351.859 440.331)"/><path class="f" d="M438.132,2001.18c-74.044-57.553-90.482-168.481-46.086-249.941,40.376-74.28,119.234-125.146,192.92-171.906,70.178-44.578,138.615-96.5,157.946-165.5,24.374-88.147-35.844-178.311-21.43-278.211,12.238-84.463,63.189-153.113,128.5-201.444,39.608-29.328,89.918-48.684,139.46-69.259,171.721-71.277,331.484,19.285,444.932-65.553,119.157-89.39,124.867-191.05,106.253-248.485-22.787-70.269-115.214-204.424-295.358-183.167-78.525,9.385-162.375,14.546-245.79,8.587C883.089,368,771.613,291.228,752.436,189.568,738.687,116.648,767.8,36.643,738.508-36.817c-21.148-53.094-67.234-93.027-118.517-115.62C566.224-176.063,506.006-183.688,445.2-180" transform="translate(-349.519 432.948)"/><path class="f" d="M441.673,2008.833c-73.891-61.376-93.5-174.087-49.132-258.526,39.608-75.407,119-127.516,194.2-173.2,70.767-42.936,140.2-91.384,162.836-157.664,28.855-84.463-23.5-173.853-8.4-273.285,13.006-85.613,58.887-156.632,121.9-208.412,38.942-32,89.611-54.385,140.817-76.228,165.345-70.738,320.833,13.162,431.8-69.494,115.547-86.41,124.354-185.115,107.277-242.948-20.483-69.917-109.915-198.3-282.659-182.37-77.117,7.039-160.071,9.995-242.616,3.754-113.038-8.517-221.006-81.155-242.718-178.311C759.152,121.322,784.038,42.56,755.465-30.2c-21.02-53.587-64.955-94.739-114.472-119.656-52.563-26.512-112.526-37.821-174.1-36.952" transform="translate(-347.249 424.918)"/><path class="f" d="M445.254,2017.194c-73.763-65.2-96.549-179.694-52.1-267.137,38.84-76.486,118.747-129.909,195.506-174.439,71.279-41.363,141.637-86.339,167.7-149.828,33.284-80.85-11.086-169.489,4.609-268.381,13.8-86.809,54.535-160.221,115.214-215.38,38.4-34.747,89.432-60.063,141.918-83.172,159.021-70.081,310.182,7.039,418.663-73.436,111.963-83.454,123.817-179.178,108.327-237.458C1526.6,478.445,1440.423,355.574,1275.1,366.437a1678.4,1678.4,0,0,1-239.466-1.079c-109.684-8.728-214.171-77.284-238.365-170.1C779.349,126.492,800.062,49,772.18-23.078c-20.892-53.962-62.728-96.475-110.452-123.762-51.437-29.421-111.041-44.39-173.436-46.361" transform="translate(-344.992 416.37)"/><path class="f" d="M448.868,2025.434c-73.609-69-99.52-185.349-55.072-275.725,38.149-77.588,118.517-132.325,196.837-175.73,71.817-39.886,143.07-81.273,172.565-141.968,37.509-77.213,1.357-165.125,17.641-263.477,14.568-87.959,50.131-163.858,108.711-222.349,37.585-37.539,89.2-65.693,143.147-90.141,152.774-69.236,299.557.915,405.528-77.424C1546.578,698.147,1561.5,605.4,1547.6,546.7c-16.386-69.142-101.8-205.761-257.337-180.657-73.353,11.731-155.437.868-236.291-5.912-106.33-8.892-207.386-73.389-234.038-161.77-20.1-66.726-3.456-142.93-30.724-214.3-20.083-51.738-57.3-96.435-106.458-127.844C632.469-176.162,573.2-194.72,510.009-199.53" transform="translate(-342.692 407.848)"/><path class="f" d="M452.423,2033.7c-73.481-72.733-102.413-190.863-58.042-284.335,37.432-78.574,118.235-134.719,198.245-176.973,72.329-38.266,144.53-76.228,177.455-134.132,41.81-73.6,13.8-160.784,30.724-258.55,15.362-89.155,45.676-167.589,102.131-229.34,36.843-40.331,88.945-71.325,144.351-97.109,146.578-68.25,288.88-5.209,392.394-81.319,104.743-77.424,122.69-167.237,110.4-226.384-14.286-68.767-96.37-201.772-244.638-179.929-72.252,10.628-153.132-3.66-233.142-10.722-102.976-9.08-200.754-69.541-229.712-153.488-22.3-64.685-9.7-139.575-36.2-210.242C786.779-60.9,751.225-106.7,703.974-140.75,654.1-176.318,594.626-198.826,531.9-205.88" transform="translate(-340.512 399.3)"/><path class="f" d="M456.057,2042c-73.3-76.626-105.434-196.4-60.987-292.9,36.741-79.77,117.928-137.181,199.423-178.31,72.841-36.741,145.938-71.16,182.294-126.272,46.086-69.987,26.269-156.421,43.7-253.647,16.181-90.351,41.2-171.272,95.551-236.308,36.1-43.146,88.74-76.908,145.579-104.077,140.459-67.148,278.229-11.309,379.259-85.237,101.132-74.515,122.127-161.277,111.45-220.894-12.238-68.345-90.865-197.479-231.964-179.108-71.279,9.385-150.8-8.212-229.993-15.555C990.753,340.446,896.2,284,865.067,204.531c-24.6-62.69-15.951-136.243-41.784-206.207-19.166-52.506-53.115-99.447-98.418-136.079-48.6-38.764-107.885-64.542-171.388-74.515" transform="translate(-338.333 390.698)"/><path class="f" d="M459.726,2050.157c-73.174-80.451-108.378-201.961-64.008-301.51,36.049-80.779,117.621-139.622,200.7-179.53,73.327-35.193,147.4-66.069,187.184-118.413,50.438-66.35,38.763-152.033,56.737-248.7,17-91.5,36.638-175.1,88.945-243.277,35.307-46.009,88.536-82.445,146.809-111.045,134.391-65.928,267.578-17.432,366.125-89.155C1539.769,687,1563.734,603.237,1554.7,543.175c-10.241-68.04-85.259-193.021-219.266-178.31-70.485,7.742-148.5-12.74-226.844-20.388-96.268-9.385-187.7-61.822-221.032-136.853-26.935-60.7-22.172-132.912-47.34-202.171-20.355-55.957-53.562-103.889-94.4-140.115-47.295-41.955-106.414-71-170.722-83.876" transform="translate(-336.165 382.257)"/><path class="f" d="M463.365,2058.437c-73.02-84.275-111.271-207.52-66.9-310.1,35.384-81.835,117.314-142.109,202.009-180.8,73.814-33.738,148.806-61,192.023-110.576,54.74-62.737,51.206-147.669,69.743-243.839,17.922-92.7,32.055-178.9,82.365-250.245,34.462-48.871,88.382-87.959,148.037-117.99,128.374-64.614,256.927-23.462,353.016-93.144,93.912-68.556,120.847-149.312,113.5-209.82-8.193-67.547-79.754-165.172-206.618-177.49-69.692-6.78-146.168-17.268-223.669-25.221-92.914-9.549-181.347-57.951-216.68-128.525C880.8,152.039,881.772,81.114,857.244,12.558c-20.175-56.426-51.206-105.813-90.354-144.2C720.945-176.8,662-209.129,596.86-224.9" transform="translate(-333.992 373.696)"/><path class="f" d="M467.055,2066.691c-72.892-88.1-114.164-213.058-69.871-318.707,34.744-82.891,116.981-144.6,203.315-182.065,74.249-32.237,150.214-55.98,196.914-102.717,58.887-59.124,63.726-143.3,82.775-238.912,18.69-93.847,27.4-182.721,75.785-257.237,33.591-51.757,88.2-93.448,149.241-124.958,122.409-63.347,246.43-29.515,339.882-97.085,90.456-65.388,120.207-143.329,114.548-204.307C1553.4,473.6,1484.7,380.3,1365.7,364.036c-68.591-9.385-143.864-21.773-220.52-30.055-89.611-9.666-175.1-53.963-212.353-120.219-31.876-56.637-34.641-126.249-58.5-194.077C854.3-37.233,825.525-88.1,787.99-128.594c-44.575-48.36-103.356-83.984-169.365-102.646" transform="translate(-331.845 365.161)"/><path class="f" d="M470.746,2074.944c-72.739-91.9-117.032-218.594-72.841-327.293,34.155-83.947,116.674-147.13,204.62-183.356,74.736-30.782,151.647-50.912,201.778-94.88,63.317-55.487,76.246-138.918,95.807-233.985s22.736-186.546,69.129-264.2c32.7-54.643,88.075-98.868,150.47-131.926,116.494-61.728,235.779-35.639,326.747-100.886,86.846-62.432,119.515-137.37,115.573-198.793-4.276-66.7-70.1-155.975-181.245-175.965-67.515-12.059-141.56-26.254-217.4-34.864-86.18-9.784-168.981-50.115-208-111.913-34.462-54.6-40.837-122.917-64.008-190.041C871.512-30.575,845.013-82.9,809.066-125.526c-43.188-51.55-101.8-90.481-168.7-112.054" transform="translate(-329.724 356.626)"/><path class="f" d="M474.462,2083.328c-72.61-95.725-119.874-224.132-75.811-335.881,33.54-85,116.315-149.687,205.926-184.622,75.2-29.351,153.056-45.868,206.643-87.044,67.592-51.9,88.766-134.53,108.839-229.082,20.483-96.194,17.922-190.346,62.6-271.173,31.748-57.528,88-104.241,151.673-138.895,110.657-60.18,225.154-41.762,313.638-104.945,83.236-59.452,118.824-131.387,116.622-193.256-2.355-66.3-65.237-151.775-168.6-175.05-66.389-15.086-139.23-30.876-214.222-39.838-82.852-9.878-162.939-46.1-203.648-103.584C940.952,167.475,931.069,100.3,908.487,33.953c-19.714-57.881-43.909-111.7-78.294-156.444-41.764-54.728-100.2-96.967-168.008-121.439" transform="translate(-327.603 348.077)"/><path class="f" d="M478.172,2091.44c-72.457-99.525-122.69-229.644-78.755-344.467,32.926-86.035,115.982-152.222,207.206-185.889,75.657-27.919,154.464-40.823,211.533-79.184,71.868-48.308,101.286-130.167,121.845-224.155,21.327-97.437,13.237-194.194,56.02-278.164,30.724-60.415,87.947-109.568,152.9-145.84,104.973-58.655,214.5-47.909,300.5-108.91,79.626-56.473,118.082-125.381,117.775-187.7-.461-65.858-60.321-147.81-155.923-174.228-65.237-18-136.925-35.193-211.072-44.578-79.37-9.971-157.024-42.067-199.321-95.279-40.069-50.373-53.357-116.3-75.3-181.971-19.535-58.373-41.426-113.7-74.249-160.526C811.018-177.352,752.748-222.905,684-250.27" transform="translate(-325.501 339.543)"/><path class="f" d="M481.9,2099.694c-72.329-103.35-125.455-235.182-81.725-353.055,32.337-87.067,115.624-154.849,208.512-187.179,76.092-26.489,155.872-35.78,216.4-71.324,76.144-44.719,113.832-125.78,134.877-219.252,22.2-98.541,8.423-198,49.414-285.133,29.8-63.347,87.947-114.823,154.131-152.807,99.11-56.9,203.827-53.962,287.37-112.828,76.016-53.517,117.339-119.421,118.7-182.229,1.434-65.458-55.226-144.2-143.224-173.43-64.008-21.257-134.622-39.7-207.923-49.27-76.144-10.136-151.187-37.985-194.865-87.068C980.6,178.093,964.012,113.173,942.659,48.207,923.329-10.658,903.768-67.46,872.43-116.4,833.566-177.466,775.466-226.34,705.753-256.61" transform="translate(-323.396 331.008)"/><path class="f" d="M485.674,2107.947c-72.2-107.174-128.3-240.673-84.7-361.666,31.774-88.1,115.214-157.405,209.792-188.422,76.553-25.128,157.254-30.782,221.262-63.488,80.317-41.27,126.377-121.392,147.884-214.348,23.043-99.76,3.61-201.773,42.86-292.1,28.778-66.186,88-120.008,155.334-159.776,93.4-55.159,193.048-60.3,274.235-116.77,72.3-50.677,116.571-113.391,119.772-176.739,3.277-65.083-49.977-140.772-130.576-172.633a897.353,897.353,0,0,0-204.825-54.174c-72.739-10.159-145.349-33.621-190.564-78.621-45.83-45.633-65.621-109.637-86.359-173.876C940.642-4.024,923.437-62.3,893.584-113.357,856.2-177.565,798.279-229.763,727.6-262.95" transform="translate(-321.327 322.473)"/><path class="f" d="M489.431,2116.281c-72.047-111-131.063-246.209-87.64-370.252,31.185-89.155,114.881-160.057,211.1-189.713,76.989-23.743,158.739-25.808,226.127-55.628,84.644-37.656,138.948-117.028,160.941-209.445,24.016-100.886-1.28-205.6,36.254-299.069,27.7-69.072,88.178-125.146,156.538-166.744,87.742-53.376,182.4-66.421,261.152-120.712,68.668-47.7,115.752-107.479,120.77-171.272,5.121-64.685-44.473-137.534-117.775-171.788a729.52,729.52,0,0,0-201.6-59.03c-69.487-10.159-139.691-29.234-186.289-70.386-48.9-43.123-71.689-106.33-91.941-169.841C958.122,2.55,943.3-57.254,914.878-110.372c-35.912-67.338-93.652-122.863-165.32-158.978" transform="translate(-319.246 313.857)"/><path class="f" d="M493.2,2124.468c-71.919-114.8-133.828-251.724-90.609-378.864,30.724-90.164,114.523-162.708,212.506-190.98,77.424-22.359,160.071-20.764,230.992-47.768,88.945-34.066,151.7-112.617,173.948-204.517,25.168-102.059-6.145-209.4,29.674-306.061,26.678-71.958,88.357-130.1,157.792-173.618,82.135-51.616,171.746-72.568,247.966-124.653C1520.45,653.194,1570.4,596.3,1577.187,532.271s-38.686-134.437-105.2-170.99c-58.887-32.448-127.734-52.977-198.45-63.863-66.158-10.159-133.981-24.705-181.91-62.033-52-40.425-77.859-103.021-97.5-165.782-18.639-60.391-31.185-121.556-58.2-176.856C901.54-177.729,843.983-236.6,771.3-275.64" transform="translate(-317.205 305.39)"/><path class="f" d="M496.915,2132.68c-71.689-118.623-136.337-257.189-93.58-387.45,30.263-91.173,114.19-165.383,213.71-192.247,77.91-21.115,161.5-15.743,235.882-39.885,93.246-30.5,164.167-108.207,186.9-199.591,26.013-103.232-11.061-213.174,23.043-313.029,25.6-74.843,88.664-134.976,159.021-180.657,76.6-49.739,161.095-78.668,234.832-128.595,61.448-41.739,114.062-95.607,122.895-160.128,8.705-63.934-32.49-131.387-92.53-170.193-56.737-36.671-125.456-57.341-195.3-68.673-62.83-10.183-128.246-20.083-177.635-53.728-55.124-37.539-84.081-99.69-103.053-161.746C992.618,15.9,982.53-46.744,956.927-104.2c-32.867-73.563-90.2-135.76-163.86-177.748" transform="translate(-315.107 296.895)"/><path class="f" d="M500.77,2140.974c-71.689-122.448-139.256-262.773-96.55-396.061,29.572-92.252,113.832-168.081,215.067-193.514,78.346-19.708,162.938-10.675,240.669-32.1,97.548-26.84,176.662-103.819,199.986-194.734,26.858-104.406-15.976-216.929,16.514-320,24.477-77.706,89.1-139.739,160.225-187.7S1387.1,732.2,1458.4,684.458c57.863-38.759,113.166-89.672,123.894-154.614,10.5-63.582-25.859-128.266-79.831-169.372s-123.049-61.681-192.177-73.506c-59.5-10.182-122.485-15.274-173.282-45.4-58.273-34.536-90.328-96.382-108.634-157.711s-25.962-125.427-50.157-185.044C946.841-177.861,889.66-243.4,814.946-288.32" transform="translate(-313.125 288.32)"/></g></g></g></g></g></svg>