<svg xmlns="http://www.w3.org/2000/svg" xmlns:xlink="http://www.w3.org/1999/xlink" width="1920" height="938" viewBox="0 0 1920 938"><defs><style>.a,.e{fill:none;stroke:#fff;stroke-width:2px;}.b{fill:#f6f6f6;}.c{isolation:isolate;}.d{clip-path:url(#a);}.e{stroke-miterlimit:10;}</style><clipPath id="a"><rect class="a" width="1920" height="938"/></clipPath></defs><g transform="translate(0 -1589)"><rect class="b" width="1920" height="938" transform="translate(0 1589)"/><g class="c" transform="translate(0 1589)"><g transform="translate(0 0)"><g transform="translate(0 0)"><g class="d"><g transform="translate(-395.134 -304.14)"><path class="e" d="M1333.162-52.3a1016.773,1016.773,0,0,1-58.138,143.283c-10.24,20.826-21.811,41.914-41.753,58.553-51.021,42.534-140.288,43.849-216.473,34.609a1156.348,1156.348,0,0,1-204.442-43.567c-64.87-20.206-127.616-46.29-197.12-54.853s-150.349,5.258-187.8,48.994c-22.272,26.065-25.83,59.041-17.126,89.143s28.672,57.783,50.816,83.9c25.37,29.9,54.81,60.186,58.624,95.284,3.942,36.356-23.424,73.538-67.046,91.04-62.029,24.9-137.958,9.277-207.539,0-88.371-11.812-183.168-11.718-263.91,17.183S-161.9,602.951-153.609,668.565" transform="translate(154.349 258.511)"/><path class="e" d="M1313.989-57.53A951.452,951.452,0,0,1,1256.9,82.429c-10.24,20.319-21.529,40.863-40.96,57.163-49.69,41.652-136.064,43.943-210.15,36.018q-26.394-2.817-52.48-6.835a1116.634,1116.634,0,0,1-146.765-32.638C743.16,117.358,681.72,92.945,613.778,85.114s-144.538,6.479-184.115,47.21c-14.732,14.72-24.759,31.683-29.338,49.633a100.231,100.231,0,0,0-1.741,37.276,115,115,0,0,0,3.61,17.183c6.81,22.985,21.3,45.482,37.146,66.872,1.562,2.122,3.149,4.225,4.736,6.347C468.856,342.441,495.02,376,496.453,412.712c1.382,35.342-24.038,71.36-66.56,88.542-60.442,24.563-134.144,10.5-201.446,2.648-5.3-.62-10.624-1.2-15.974-1.709C131.679,494.268,47.2,497.5-24.891,524.84c-76.8,29.145-135.552,90.571-126.259,154.325" transform="translate(157.83 253.919)"/><path class="e" d="M1294.752-62.76a895.705,895.705,0,0,1-56.09,136.635c-10.061,19.812-21.248,39.849-40.192,55.792-48.256,40.75-131.865,44-203.827,37.389q-25.6-2.366-51.046-5.878a1089.995,1089.995,0,0,1-143.053-29.52c-61.9-17.22-122.035-40-188.365-47.154s-139.162,7.718-180.352,45.407c-16.64,15.211-30.208,30.215-37.453,47.511a97.447,97.447,0,0,0-7.68,37.182,100.132,100.132,0,0,0,1.485,17.934c4.3,24.3,18.688,48.825,34.227,72.092,1.562,2.31,3.1,4.6,4.659,6.892,24.192,35.68,47.155,72.43,46.08,110.8-.9,34.271-24.653,69.069-66,86.082-58.88,24.187-130.278,11.68-195.328,5.315q-7.68-.761-15.36-1.39c-78.029-6.2-158.874-1.5-227.3,26.084-72.986,29.408-128,89.463-117.76,151.358" transform="translate(161.399 249.328)"/><path class="e" d="M1275.666-68A845.682,845.682,0,0,1,1220.6,65.33c-9.958,19.3-20.992,38.8-39.424,54.459C1134,159.6,1053.51,163.825,983.647,158.511q-24.883-1.878-49.587-4.9A1065.283,1065.283,0,0,1,794.745,127.3C734.329,111.582,675.5,90.456,610.732,84s-134.2,8.845-176.64,43.623c-18.483,15.136-35.379,28.581-45.542,45.351A97.882,97.882,0,0,0,374.8,209.927a88.443,88.443,0,0,0-.742,18.779c1.792,25.614,16.077,52.262,31.334,77.331,1.51,2.479,3.021,4.958,4.557,7.512,23.6,38.666,43.52,78.364,39.91,118.664-2.918,33.126-25.293,66.834-65.485,83.585-57.216,23.849-126.438,12.9-189.235,7.981-4.966-.376-9.933-.732-14.9-1.033-75.238-4.488-152.474,1.671-217.267,29.5-69.12,29.671-120.32,88.261-109.056,148.353" transform="translate(164.818 244.728)"/><path class="e" d="M1256.555-73.21a795.308,795.308,0,0,1-54.067,129.969c-9.8,18.779-20.736,37.708-38.656,52.994-45.747,39.022-123.443,44.205-191.181,40.206q-24.166-1.408-48.128-3.925a1043.879,1043.879,0,0,1-135.68-23.286c-58.88-14.234-116.454-33.8-179.61-39.436s-129.613,9.821-172.851,41.8c-20.48,15.023-40.525,26.948-53.76,43.191a101.778,101.778,0,0,0-19.763,37.013,80.419,80.419,0,0,0-2.867,19.417c-.742,26.929,13.466,55.661,28.416,82.627l4.454,7.981c23.117,41.52,39.91,84.129,33.69,126.382-4.685,31.924-25.907,64.618-64.973,81.125-55.6,23.492-122.573,14.1-183.117,10.648q-7.181-.422-14.362-.695c-72.422-2.817-146.022,4.845-207.181,32.863-65.2,29.915-112.64,87.247-100.429,145.424" transform="translate(168.262 240.154)"/><path class="e" d="M1237.4-78.44A746.805,746.805,0,0,1,1184.329,48.2c-9.677,18.291-20.48,36.713-37.837,51.642-44.467,38.1-119.27,44.262-184.909,41.576q-23.4-.958-46.669-2.967a1014.8,1014.8,0,0,1-131.891-20.169c-57.446-12.732-113.664-30.572-175.258-35.68S482.326,93.349,438.6,122.663c-22.477,15.023-45.67,25.314-61.747,41.069a108.2,108.2,0,0,0-25.6,36.919,78.564,78.564,0,0,0-5.12,20.131c-3.251,28.168,10.854,59.041,25.6,87.791,1.434,2.854,2.893,5.634,4.326,8.544,22.477,44.487,36.352,89.951,27.443,134.213-6.2,30.779-26.5,62.4-64.435,78.665-54.246,23.192-118.938,15.361-177.126,13.352-4.582-.15-9.19-.263-13.8-.338C78.46,541.958,8.47,551.028-48.976,579.346c-61.312,30.178-105.19,86.139-91.8,142.457" transform="translate(171.752 235.563)"/><path class="e" d="M1218.621-83.67a700.278,700.278,0,0,1-52.1,123.321c-9.575,17.8-20.173,35.68-37.069,50.271-43.162,37.257-115.072,44.374-178.586,43q-22.656-.488-45.235-1.991a989.882,989.882,0,0,1-128.179-17.051C721.495,102.616,666.583,86.467,606.6,82.11S485.053,93.527,441.149,120.4c-24.653,15.023-50.842,23.605-69.888,38.835-13.656,10.684-24.388,23.192-31.616,36.844a77.919,77.919,0,0,0-7.373,20.863c-5.76,29.558,8.269,62.44,22.6,93.124q2.15,4.545,4.25,9.089c21.888,47.4,33,95.66,21.2,142.006-7.526,29.577-27.11,60.092-64,76.167-52.378,22.8-114.893,16.507-170.931,15.981H132.132C65.213,553.985-1.142,564.577-55,593.064c-57.446,30.44-97.613,85.031-83.226,139.49" transform="translate(174.913 230.971)"/><path class="e" d="M1199.651-88.9a654.158,654.158,0,0,1-51.021,120c-9.421,17.3-19.891,34.628-36.3,48.825-41.83,36.375-110.848,44.45-172.262,44.393q-21.888,0-43.75-1.033a957.5,957.5,0,0,1-124.467-13.934c-54.477-9.728-108.083-24.262-166.4-27.924s-124.57,6.76-161.818,36.487c-30.08,11.249-55.987,22.1-77.926,36.788-15.777,10.275-28.575,22.773-37.632,36.75a78.87,78.87,0,0,0-9.6,21.614c-8.269,30.854,5.658,65.726,19.712,98.232q2.1,4.826,4.147,9.652c21.3,50.309,29.8,101.406,14.95,149.78-8.7,28.394-27.648,58.008-63.488,73.707C243,566.877,182.742,562.145,128.956,563.084c-4.25,0-8.474.188-12.8.338-64.128,2.385-126.9,14.366-177.1,43.191-53.53,30.7-90.01,83.923-74.6,136.522" transform="translate(178.14 226.38)"/><path class="e" d="M1180.659-94.13a612.767,612.767,0,0,1-50.022,116.673c-9.293,16.77-19.61,33.6-35.507,47.511C1054.6,105.489,988.48,114.56,929.19,115.8q-21.146.451-42.317,0A935.575,935.575,0,0,1,766.118,105c-52.992-8.319-105.293-21.2-162.1-24.244S483.238,87.8,446.042,115.517C413.53,126.146,384.858,135.949,360,150.239c-17.841,9.867-32.666,22.367-43.52,36.694a81.248,81.248,0,0,0-11.827,22.328c-10.778,32.168,3.072,69.2,16.819,103.472q2.048,5.07,4.045,10.2c20.71,53.219,26.752,107.04,8.7,157.555-9.779,27.117-28.39,55.642-62.95,71.153-49.178,22.084-107.187,18.91-158.72,21.3-4.07.188-8.115.432-12.186.695-61.44,4.113-120.5,17.54-167.066,46.609-49.638,30.929-82.406,82.8-66,133.537" transform="translate(181.464 221.789)"/><path class="e" d="M1161.843-99.36a572.642,572.642,0,0,1-49,113.349c-9.165,16.263-19.379,32.544-34.739,46.121-39.219,34.628-102.451,44.581-159.642,47.135q-20.48.939-40.96.9a905.973,905.973,0,0,1-117.043-7.681c-51.507-6.742-102.4-17.99-157.747-20.244s-116.941,7.192-154.112,32.9c-34.918,10.028-66.33,18.779-94.131,32.487-19.93,9.437-36.845,21.922-49.587,36.6a84.1,84.1,0,0,0-14.029,23.06c-13.286,33.483.461,72.58,13.926,108.692q2,5.352,3.942,10.741c20.122,56.149,23.91,112.673,2.56,165.367-10.675,26.028-29.082,53.482-62.362,68.75C201.255,580.567,145.5,578.952,96.218,582.8c-3.891.3-7.68.638-11.648,1.033C26,589.655-29.529,604.491-72.461,633.861c-45.747,31.192-74.8,81.688-57.37,130.569" transform="translate(184.612 217.197)"/><path class="e" d="M1143.082-104.59a533.933,533.933,0,0,1-48,110.025c-9.037,15.774-19.1,31.53-33.946,44.75-37.914,33.8-98.253,44.731-153.344,48.6q-19.61,1.39-39.373,1.878a880.307,880.307,0,0,1-113.331-4.582c-50-5.314-99.661-14.91-153.421-16.469S488.26,87.124,451.14,110.71c-37.325,9.389-71.475,17.183-102.246,30.347-20.966,8.976-40.934,20.976-55.45,36.525a88.347,88.347,0,0,0-16.256,23.793c-15.8,34.8-2.15,75.979,11.008,113.931,1.306,3.756,2.56,7.512,3.866,11.267,19.558,59.06,21.222,118.438-3.763,173.141-11.366,24.9-29.67,51.3-61.85,66.308-46.08,21.37-99.482,21.314-146.509,26.647-3.712.413-7.424.864-11.11,1.371-55.808,7.511-107.7,23.887-146.97,53.445-41.882,31.455-67.226,80.58-48.64,127.7" transform="translate(187.706 212.606)"/><path class="e" d="M1124.586-109.82a498.157,498.157,0,0,1-47.027,106.7c-8.909,15.267-18.816,30.478-33.152,43.379C1007.8,73.124,950.353,85.067,897.386,90.25q-18.893,1.878-37.939,2.836a856.842,856.842,0,0,1-109.568-1.521c-48.64-3.756-96.922-11.7-148.966-12.563S491.319,86.645,454.1,108.315c-39.731,8.807-76.646,15.549-110.336,28.168-23.04,8.619-45.184,20.657-61.44,36.431a93.175,93.175,0,0,0-18.483,24.525c-18.278,36.149-4.787,79.4,8.064,119.189q1.92,5.915,3.738,11.85c19,61.97,18.79,124.222-9.984,180.934-12.058,23.737-30.182,49.05-61.44,63.848C159.85,594.294,108.548,595.8,63.774,602.575c-3.507.545-7.04,1.108-10.547,1.728-53.018,9.258-101.3,27.06-136.934,56.862-37.99,31.718-59.622,79.472-40.166,124.635" transform="translate(190.535 208.015)"/><path class="e" d="M1106.045-115a461.869,461.869,0,0,1-46.08,103.284c-8.755,14.76-18.534,29.426-32.384,41.99-35.277,31.924-89.83,44.9-140.8,51.379Q868.656,84,850.326,85.408a827.043,827.043,0,0,1-105.907,1.671c-47.027-2.272-94.131-8.544-144.589-8.713s-105.8,7.831-142.874,27.511c-42.112,8.225-81.792,13.859-118.426,26.046-25.062,8.281-49.331,20.15-67.456,36.356a98.11,98.11,0,0,0-20.685,25.258c-20.813,37.445-7.347,82.758,5.12,124.391q1.869,6.16,3.635,12.394c18.406,64.881,16.563,130.081-16.23,188.709-12.672,22.629-30.72,46.835-60.8,61.332-42.752,20.657-91.8,23.737-134.323,31.924-3.354.657-6.682,1.333-10.01,2.066-50.253,10.967-94.9,30.253-126.9,60.28-34.1,31.924-52.019,78.364-31.539,121.668" transform="translate(193.384 203.467)"/><path class="e" d="M1087.706-120.28a429.914,429.914,0,0,1-44.954,100.054c-8.653,14.234-18.278,28.394-31.616,40.6-33.971,31.1-85.632,45.069-134.374,52.787q-17.408,2.779-35.021,4.77A796.232,796.232,0,0,1,739.572,82.72C694,81.95,648.231,77.311,599.36,77.856S500.647,91,460.02,103.6c-42.086,13.145-87.04,12.281-126.541,23.905-27.085,7.925-53.5,19.718-73.421,36.262a103.757,103.757,0,0,0-23.04,25.99c-23.322,38.76-9.933,86.139,2.33,129.574q1.792,6.46,3.533,12.957C260.8,400.1,257.447,468.325,220.4,528.774c-13.107,21.539-31.309,44.581-60.16,58.834-41.165,20.319-87.962,25.014-128.23,34.647-3.174.751-6.323,1.559-9.472,2.4-47.462,12.694-88.5,33.426-116.864,63.7-30.208,32.225-44.442,77.256-23.04,118.7" transform="translate(196.055 198.832)"/><path class="e" d="M1069.565-125.5a399.611,399.611,0,0,1-43.955,96.711c-8.525,13.746-17.92,27.361-30.72,39.229-32.666,30.234-81.434,45.069-128,54.177q-16.614,3.267-33.536,5.746a765.605,765.605,0,0,1-98.662,7.887c-44.058.732-88.55-2.253-135.834-1.014S503.19,90.1,463.178,101.18c-44.8,12.432-92.16,10.666-134.63,21.783-29.03,7.493-57.7,19.23-79.334,36.037A109.044,109.044,0,0,0,224.1,185.722c-25.856,40.13-12.57,89.594-.589,134.907q1.766,6.7,3.43,13.5c17.229,70.721,12.8,142.1-28.723,204.277-13.7,20.525-32.026,42.384-59.75,56.337C98.915,614.763,54.371,620.96,16.355,632.1c-3,.882-5.965,1.878-8.934,2.76-44.7,14.4-82.1,36.6-106.8,67.116-26.342,32.487-36.864,76.148-14.336,115.734" transform="translate(198.529 194.249)"/><path class="e" d="M1051.695-130.73a369.4,369.4,0,0,1-42.957,93.387C1000.367-24.2,991.023-11.052,978.709.516c-31.36,29.333-77.235,45.069-121.754,55.567q-15.9,3.756-32.1,6.7a736.6,736.6,0,0,1-94.72,11.042c-42.573,2.216-85.734.883-131.43,2.836S506.082,89.246,466.812,98.8c-47.616,11.474-97.331,8.939-142.8,19.53-31.1,7.23-61.824,18.967-85.35,36.093a114.66,114.66,0,0,0-27.341,27.455c-28.365,41.313-15.155,92.918-3.507,140.09q1.741,6.986,3.354,14.028c16.666,73.594,11.392,148.334-34.97,212.07-14.157,19.511-32.614,40.168-59.213,53.914C79.048,621.608,36.732,629.307.969,641.964c-2.816,1-5.632,2.028-8.4,3.1C-49.361,661.194-83.153,684.836-104.2,715.6c-22.451,32.75-29.261,75.115-5.709,112.767" transform="translate(200.732 189.658)"/><path class="e" d="M1034.145-136a342,342,0,0,1-41.933,90.139A196.431,196.431,0,0,1,963.08-9.487c-30.054,28.469-73.037,45.238-115.456,56.975q-15.129,4.206-30.72,7.681a710.894,710.894,0,0,1-91.034,14.14c-40.96,3.756-82.97,4.037-127.078,6.685s-89.6,12.263-128.154,20.356c-50.278,10.535-102.5,7.418-150.886,17.408-33.1,6.948-65.971,18.535-91.392,36.074A120.89,120.89,0,0,0,198.792,178c-30.8,42.8-17.69,96.317-6.272,145.33q1.69,7.267,3.251,14.591c16.077,76.562,10.24,154.7-41.19,219.844-14.618,18.554-33.28,37.952-58.726,51.454C59.4,628.488,19.387,637.69-14.1,651.849c-2.56,1.127-5.274,2.272-7.859,3.437-39.142,17.859-69.325,42.966-86.733,73.97-18.56,33.013-21.658,73.932,2.893,109.8" transform="translate(202.615 185.032)"/><path class="e" d="M1016.968-141.19a315.036,315.036,0,0,1-40.96,86.646,203.9,203.9,0,0,1-28.493,35.079C918.844,8.121,878.754,25.867,838.459,38.9c-9.6,3.117-19.354,6.009-29.184,8.657a678.272,678.272,0,0,1-87.347,17.258c-39.6,5.221-80.154,7.192-122.675,10.535S512.9,87.217,474.812,93.9c-53.12,9.389-107.52,5.784-158.925,15.324-35.123,6.535-70.144,18.065-97.28,35.943a127.227,127.227,0,0,0-31.8,28.919c-33.28,44.018-20.48,99.7-9.293,150.55q1.664,7.512,3.123,15.136c15.514,79.472,9.216,161.273-47.411,227.638-15.053,17.615-33.869,35.68-58.189,48.956C40.3,635.3,2.466,646.133-28.766,661.682c-2.56,1.221-4.915,2.5-7.322,3.756-36.108,19.18-62.96,46.29-76.672,77.406-14.694,33.239-14.08,72.806,11.494,106.814" transform="translate(204.099 180.475)"/><path class="e" d="M1000.253-146.42a288.811,288.811,0,0,1-39.91,83.3,214.434,214.434,0,0,1-27.7,33.8c-27.418,26.722-64.614,45.426-102.81,59.773-9.088,3.437-18.355,6.629-27.725,9.615A648.285,648.285,0,0,1,718.5,60.448c-38.118,6.723-77.363,10.328-118.323,14.385S517.079,86.25,479.5,91.6c-55.885,7.962-112.794,4.169-167.04,13.145-37.146,6.141-74.317,17.6-103.245,35.811a133.786,133.786,0,0,0-34.022,29.633c-35.84,45.332-23.04,103.077-12.186,155.771,1.05,5.2,2.074,10.441,3.021,15.7,14.925,82.383,8.55,168.071-53.76,235.412-15.36,16.732-34.483,33.483-57.677,46.5-33.024,18.572-68.608,30.948-97.562,47.98q-3.4,1.991-6.758,4.113c-33.281,21.068-56.587,49.342-66.56,80.749-10.8,33.5-6.477,71.7,20.1,103.847" transform="translate(205.146 175.884)"/><path class="e" d="M984.333-151.65c-7.974,27.827-21.055,54.731-38.886,79.979a235.624,235.624,0,0,1-26.931,32.337C892.4-13.513,858.1,6.168,822.029,21.829c-8.6,3.756-17.382,7.267-26.266,10.572a616.068,616.068,0,0,1-79.923,23.511c-36.608,8.206-74.573,13.464-113.92,18.216s-79.77,10.929-116.966,15.023c-58.6,6.422-117.939,2.5-175.155,11-39.142,5.821-78.464,17.22-109.21,35.68A139.776,139.776,0,0,0,164.366,166.3c-38.4,46.647-25.6,106.476-15.1,161.01,1.05,5.371,2.022,10.8,2.944,16.244,14.336,85.294,8.166,175.094-59.9,243.186a277.114,277.114,0,0,1-57.139,44.036c-31.514,18.215-64.87,32.168-91.622,50.7-2.1,1.465-4.173,2.948-6.221,4.469-30.551,22.976-50.37,52.473-56.6,84.242-6.912,33.8,1.126,70.59,28.723,100.88" transform="translate(205.399 171.293)"/><path class="e" d="M969.111-156.88c-7.592,26.744-20.35,52.556-37.888,76.655a258.131,258.131,0,0,1-26.137,30.948C880.279-24.32,848.765-3.7,814.9,13.275c-8.09,4.056-16.384,7.906-24.806,11.549A582.078,582.078,0,0,1,713.9,51.453,886.9,886.9,0,0,1,604.337,73.518c-37.555,5.408-76.288,10.4-113.229,13.145-61.235,4.638-123.085.9-183.245,8.9-41.165,5.465-82.611,16.788-115.2,35.68a146.528,146.528,0,0,0-38.323,31.173c-40.96,47.942-28.16,109.838-17.92,166.212,1,5.634,1.971,11.267,2.842,16.9,13.747,88.261,8.038,182.38-66.15,250.98a341.093,341.093,0,0,1-56.627,41.539c-29.9,17.859-61,33.37-85.5,53.313-1.92,1.577-3.814,3.174-5.683,4.807-27.778,24.836-44.14,55.479-46.746,87.547-3.021,34.027,8.73,69.482,37.35,97.913" transform="translate(204.954 166.701)"/><path class="e" d="M954.741-162.11C934.619-88.985,869.365-24.7,785.422,17.247S599.669,79.968,498.139,84.325c-63.8,2.723-128.256-.732-191.334,6.742S179.7,119.235,144.987,158.52c-43.52,49.257-30.72,113.237-20.89,171.451,16.256,95.772,16.026,202.812-69.658,276.049C11.765,642.489-48.6,666.883-86.206,706.225c-52.122,54.553-48.077,134.457,9.421,186.024" transform="translate(203.632 162.11)"/></g><g transform="translate(230.246 553.059)"><path class="e" d="M89.94,625.049A1428.236,1428.236,0,0,1,218.964,509.371c20.48-16.281,42.163-32.487,69.324-42.2,69.453-24.769,152.5-.714,217.907,29.389,60.315,27.764,115.915,60.689,165.632,98.082,49.2,37.032,93.363,78.871,152.985,106.439s141.44,37.8,199.04,8c34.278-17.727,54.912-47.154,62.72-77.369s3.968-61.426-2.714-91.791c-7.68-34.778-18.867-71.041-3.917-104.5,15.514-34.647,60.339-61.182,109.773-64.975,70.323-5.408,132.147,30.516,191.437,58.8,75.289,35.943,162.79,62.7,252.467,58.909s180.326-44.018,207.232-106.889" transform="translate(-89.94 -228.045)"/><path class="e" d="M93.57,637.2A1319.24,1319.24,0,0,1,220.8,523.789c20.275-15.887,41.7-31.68,68.4-41.22,53.632-19.154,115.379-9.389,170.726,9.39q22.36,7.664,43.52,17.032c59.619,26.249,114.765,57.611,164.275,93.425C716.751,637.852,760.68,678.3,819.663,704.8c33.075,14.892,72.269,25.088,110.874,26.929,33.613,1.578,66.97-3.324,94.848-17.314a135.4,135.4,0,0,0,14.157-8.187,123.836,123.836,0,0,0,51.2-71.36,153.175,153.175,0,0,0,4.634-25.84c2.048-22.779-.359-45.82-3.917-68.355-5.606-35.68-13.082-72.318,3.789-105.706s59.7-58.966,107.955-62.834c68.685-5.54,129.254,28.319,187.213,54.609,4.582,2.084,9.19,4.113,13.849,6.122,70.349,30.178,149.965,51.135,230.861,46.328,86.246-5.127,172.723-45.069,197.709-106.608" transform="translate(-84.277 -226.614)"/><path class="e" d="M97.2,653.589A1228.074,1228.074,0,0,1,222.64,542.474c20.07-15.511,41.267-30.872,67.482-40.262,52.685-18.779,113.178-10.065,167.654,7.511q22.028,7.16,42.957,15.962c58.908,24.741,113.583,54.547,162.867,88.786,48.794,33.8,92.6,72.918,151.04,98.5,34.33,15.023,74.547,25.69,114.33,27.981,34.56,1.878,69.12-2.648,98.074-16.732a132.368,132.368,0,0,0,14.694-8.319c28.518-18.572,45.542-45.576,53.376-73.238a165.968,165.968,0,0,0,5.12-26.8c2.56-23.4,1.177-47.1-1.126-70.177-3.533-36.694-7.3-73.557,11.494-106.927,17.92-31.68,59.11-56.731,106.189-60.693,67-5.634,126.336,26.1,182.989,50.421q6.682,2.817,13.517,5.634c68.685,27.812,145.741,46.384,223.411,40.318,82.79-6.441,165.12-46.271,188.186-106.288" transform="translate(-78.614 -229.581)"/><path class="e" d="M100.82,670.461a1143.964,1143.964,0,0,1,123.7-108.917c19.814-15.117,40.781-30.046,66.56-39.285,51.686-18.535,110.95-10.7,164.557,5.634q21.731,6.754,42.445,15.1C556.287,566.2,610.5,594.442,659.566,627.1c48.64,32.337,92.288,69.914,149.939,94.552,35.61,15.211,76.8,26.29,117.76,29.032,35.533,2.347,71.347-1.991,101.3-16.169a135.975,135.975,0,0,0,15.36-8.432c29.645-18.929,47.078-46.741,55.475-75.266a183.548,183.548,0,0,0,5.734-27.549c3.174-24.037,2.688-48.393,1.638-72.017-1.485-37.652-1.613-74.74,19.2-108.129,18.816-30.215,58.522-54.459,104.422-58.571,65.331-5.8,123.418,23.906,178.739,46.234q6.554,2.648,13.209,5.183c67.047,25.445,141.517,41.652,215.936,34.328,79.36-7.793,157.542-47.417,178.714-106.007" transform="translate(-72.967 -232.969)"/><path class="e" d="M104.45,687.387A1063.1,1063.1,0,0,1,226.357,580.854C245.967,566.113,266.7,551.6,292,542.526c50.739-18.215,108.774-11.267,161.485,3.85q21.366,6.161,41.8,13.878c57.494,21.7,111.236,48.373,160.077,79.453,48.384,30.76,91.981,66.872,148.915,90.57,36.89,15.361,79.13,26.891,121.242,30.046,36.454,2.742,73.523-1.3,104.525-15.587a141.793,141.793,0,0,0,15.846-8.544c30.72-19.286,48.64-47.9,57.574-77.275a202.157,202.157,0,0,0,6.323-28.281c3.738-24.657,4.2-49.689,4.429-73.876.563-38.591,3.994-75.885,26.88-109.331C1160.783,418.7,1199,395.15,1243.727,391c63.667-5.915,120.5,21.708,174.541,42.046,4.25,1.615,8.55,3.174,12.8,4.713,65.382,23.079,137.293,36.9,208.486,28.319,75.878-9.126,149.965-48.525,169.19-105.687" transform="translate(-67.304 -236.393)"/><path class="e" d="M108.08,704.286A990.138,990.138,0,0,1,228.2,600.026c19.379-14.347,39.859-28.431,64.691-37.351,49.792-17.9,106.573-11.981,158.413,1.972,14.182,3.756,28.006,8.188,41.216,12.845,56.8,20.166,110.093,45.272,158.72,74.778,48.179,29.22,91.725,63.848,147.917,86.627,38.17,15.493,81.382,27.474,124.7,31.135,37.4,3.117,75.7-.638,107.725-15.023a148.08,148.08,0,0,0,16.435-8.657c31.923-19.624,50.176-49.051,59.673-79.266a215.742,215.742,0,0,0,6.887-29.051c4.326-25.276,5.657-50.966,7.219-75.7,2.56-39.567,9.523-76.993,34.611-110.533,20.48-27.286,57.293-50.064,100.839-54.308,61.978-6.047,117.581,19.511,170.291,37.858,4.173,1.446,8.346,2.873,12.57,4.244,63.718,20.657,133.12,32.168,201.011,22.328,72.448-10.479,142.387-49.67,159.693-105.406" transform="translate(-61.642 -239.79)"/><path class="e" d="M111.71,721.2A921.6,921.6,0,0,1,230.059,619.214c19.174-13.952,39.424-27.623,63.769-36.393,48.819-17.577,104.371-12.6,155.341.131,13.952,3.455,27.571,7.512,40.627,11.774a854.26,854.26,0,0,1,157.338,70.139c47.949,27.642,91.443,60.712,146.893,82.627,39.475,15.624,83.661,28.168,128.154,32.187,38.4,3.512,77.875,0,110.925-14.441a146.67,146.67,0,0,0,17-8.77c33.075-19.981,51.738-50.215,61.8-81.256a243.086,243.086,0,0,0,7.475-29.8c4.89-25.915,7.142-52.262,10.01-77.557,4.557-40.506,14.95-78.139,42.291-111.734,21.094-25.8,56.678-47.811,99.046-52.093,60.339-6.178,114.688,17.314,166.093,33.689,4.045,1.277,8.141,2.535,12.237,3.756,62.08,18.328,128.845,27.417,193.562,16.319,68.992-11.793,134.784-50.7,150.2-105.162" transform="translate(-55.979 -243.205)"/><path class="e" d="M115.34,738.092A859.378,859.378,0,0,1,231.9,638.414c18.944-13.577,38.963-26.816,62.848-35.436,47.872-17.258,102.2-13.258,152.269-1.746,13.722,3.118,27.162,6.8,40.064,10.742a847.935,847.935,0,0,1,155.93,65.463c47.744,26.084,91.213,57.614,145.92,78.7,40.806,15.736,85.965,28.656,131.635,33.238,39.27,3.887,80.051.695,114.15-13.878a148.788,148.788,0,0,0,17.562-8.9c34.227-20.319,53.274-51.341,64-83.247a267.781,267.781,0,0,0,8.013-30.553c5.479-26.534,8.678-53.538,12.8-79.378,6.6-41.482,20.3-79.284,50-112.955a153.679,153.679,0,0,1,97.28-50.027c58.65-6.31,111.744,15.023,161.869,29.5q5.914,1.69,11.9,3.286c60.416,15.962,124.621,22.685,186.112,10.328,65.536-13.145,127.181-51.924,140.8-104.8" transform="translate(-50.316 -246.612)"/><path class="e" d="M119,755a802.479,802.479,0,0,1,114.816-97.406c18.713-13.145,38.4-26.009,61.9-34.459,46.925-16.9,99.84-13.821,149.171-3.606,13.517,2.8,26.752,6.1,39.5,9.69a838.068,838.068,0,0,1,154.547,60.806c47.539,24.525,91.008,54.459,144.87,74.721C825.918,780.6,872.049,794,918.872,799.037c40.243,4.282,82.253,1.371,117.376-13.314a147.4,147.4,0,0,0,18.15-8.995c35.354-20.657,54.835-52.581,66.022-85.237a297.961,297.961,0,0,0,8.6-31.3c6.042-27.173,10.24-54.815,15.565-81.237,8.678-42.422,25.6-80.411,57.7-114.138,21.965-23.042,55.475-43.379,95.514-47.9,56.986-6.441,108.826,12.92,157.619,25.314,3.84.977,7.68,1.878,11.6,2.817,58.88,13.577,120.32,17.934,178.637,4.319,62.106-14.478,119.6-53.031,131.174-104.486" transform="translate(-44.606 -250.018)"/><path class="e" d="M122.59,771.891a750.384,750.384,0,0,1,113.024-95.115c18.585-12.788,38.041-25.2,60.979-33.445,45.952-16.619,97.766-14.46,146.1-5.484,13.286,2.479,26.342,5.408,38.938,8.657a829.862,829.862,0,0,1,153.139,56.149c47.334,22.948,90.829,51.3,143.846,70.759,43.52,15.925,90.547,29.858,138.547,35.342,41.19,4.657,84.48,2.047,120.6-12.751a154.909,154.909,0,0,0,18.714-9.108c36.506-21.032,56.32-53.67,68.122-87.228a330.7,330.7,0,0,0,9.19-32.056c6.6-27.811,11.7-56.111,18.355-83.078,10.7-43.4,30.72-81.575,65.408-115.358,22.272-21.69,54.861-41.144,93.7-45.764,55.322-6.573,105.933,10.723,153.421,21.126,3.738.807,7.5,1.6,11.264,2.347,57.114,11.267,116.173,13.145,171.187-1.671,58.65-15.812,112.026-54.177,121.677-104.2" transform="translate(-39.006 -253.407)"/><path class="e" d="M126.22,788.887a698.792,698.792,0,0,1,111.258-92.843c18.253-12.413,37.555-24.413,60.032-32.525,45-16.319,95.565-15.023,143.027-7.342,13.082,2.141,25.907,4.713,38.4,7.511A822.876,822.876,0,0,1,630.719,715.18c47.1,21.389,90.624,48.149,142.822,66.8,44.8,16.018,92.8,30.459,142,36.393,42.138,5.052,86.6,2.723,123.8-12.169a156.975,156.975,0,0,0,19.277-9.22c37.658-21.37,57.933-54.816,70.246-89.237,3.891-10.911,7.014-21.934,9.754-32.807,7.194-28.412,13.235-57.388,21.146-84.918,12.8-44.356,35.84-82.777,73.114-116.542,22.528-20.375,54.272-38.929,91.929-43.642,53.76-6.7,102.989,8.526,149.171,16.9,3.661.657,7.3,1.277,10.982,1.878,55.424,8.845,111.923,8.45,163.712-7.681,55.168-17.145,104.422-55.285,112.154-103.9" transform="translate(-33.343 -256.9)"/><path class="e" d="M129.85,805.724c31.847-33.034,68.557-63.395,109.466-90.533,17.92-12.037,37.12-23.587,59.11-31.568,44.058-16,93.389-15.736,139.955-9.2,12.8,1.878,25.6,4.019,37.76,6.535a815.537,815.537,0,0,1,150.4,46.835c46.9,19.83,90.445,44.938,141.824,62.834,46.08,16.075,95.078,31.041,145.459,37.445,43.059,5.427,88.781,3.38,127-11.605a159.873,159.873,0,0,0,19.866-9.389c38.784-21.69,59.469-55.923,72.346-91.171,4.07-11.267,7.373-22.535,10.24-33.558,7.68-29.051,14.746-58.684,23.936-86.758,14.822-45.314,40.678-84.036,80.794-117.762,22.707-19.079,53.76-36.694,90.138-41.482,51.994-6.836,100.1,6.31,144.973,12.732,3.533.507,7.091.976,10.65,1.408,53.76,6.479,107.7,3.756,156.16-13.671,51.738-18.5,96.845-56.43,102.656-103.6" transform="translate(-27.68 -260.254)"/><path class="e" d="M133.48,822.577c31.122-32.373,67.255-61.991,107.674-88.261,17.92-11.643,36.659-22.76,58.214-30.609,43.059-15.662,91.162-16.357,136.858-11.061,12.621,1.465,25.062,3.343,37.2,5.5a805.775,805.775,0,0,1,148.992,42.159c46.694,18.272,90.291,41.745,140.8,58.872,47.539,16.112,97.28,31.642,148.915,38.5,44.032,5.821,90.982,4.056,130.253-11.023a161.252,161.252,0,0,0,20.48-9.389c39.936-22.065,61.031-57.106,74.445-93.218,4.224-11.418,7.68-22.948,10.931-34.309,8.32-29.671,16.333-59.942,26.7-88.58,17-46.252,45.542-85.369,88.5-118.983,22.835-17.84,53.069-34.478,88.371-39.342,50.33-6.967,97.28,4.094,140.8,8.544,3.456.338,6.886.657,10.24.939,52.121,4.094,103.449-1.033,148.787-19.68,48.281-19.83,89.241-57.538,93.158-103.284" transform="translate(-22.018 -263.643)"/><path class="e" d="M137.11,839.549c30.4-31.715,65.961-60.585,105.907-85.97,17.613-11.267,36.2-21.971,57.267-29.652,42.112-15.361,88.986-16.9,133.786-12.92,12.39,1.127,24.653,2.629,36.608,4.451a796.585,796.585,0,0,1,147.61,37.558c46.49,16.694,90.163,38.5,139.8,54.909,48.9,16.131,99.661,32.224,152.371,39.548,44.979,6.2,93.158,4.714,133.453-10.46a163.965,163.965,0,0,0,21.018-9.577c40.96-22.422,62.566-58.214,76.544-95.209,4.4-11.681,8.09-23.474,11.494-35.06,8.909-30.309,17.92-61.238,29.491-90.439,19.072-47.21,50.278-86.777,96.2-120.185,23.04-16.638,52.454-32.262,86.6-37.22,48.64-7.1,94.259,1.878,136.5,4.357,3.328.188,6.656.338,10.01.469,50.483,1.728,99.226-5.765,141.312-25.671,44.851-21.239,81.664-58.8,83.737-103.04" transform="translate(-16.355 -267.075)"/><path class="e" d="M140.73,856.449c29.691-31.052,64.69-59.18,104.141-83.7,17.382-10.855,35.84-21.145,56.32-28.676,41.165-15.023,86.784-17.633,130.714-14.8,12.186.789,24.218,1.878,36.045,3.4a790.641,790.641,0,0,1,146.227,32.882c46.285,15.155,90.01,35.267,138.8,50.947,50.278,16.15,101.939,32.825,155.827,40.6,45.9,6.591,95.334,5.389,136.678-9.878a167.585,167.585,0,0,0,21.555-9.69c42.214-22.779,64.128-59.435,78.669-97.2,4.582-11.943,8.448-24,12.083-35.83,9.472-30.929,19.379-62.515,32.282-92.26,21.12-48.168,54.912-88.261,103.911-121.387,22.912-15.474,51.84-30.046,84.787-35.079,47-7.23,91.341-.3,132.3.169h9.677c48.819-.638,95-10.516,133.862-31.68,41.4-22.535,74.086-59.792,74.24-102.7" transform="translate(-10.708 -270.473)"/><path class="e" d="M144.36,873.408c28.981-30.388,63.426-57.765,102.4-81.388a312.7,312.7,0,0,1,55.4-27.717c40.192-14.723,84.48-18.291,127.642-16.657,11.955.451,23.808,1.258,35.456,2.347A781.5,781.5,0,0,1,610.1,778.162c46.08,13.577,89.856,31.924,137.754,46.947,51.686,16.15,104.217,33.445,159.309,41.67,46.848,6.948,97.51,6.065,139.878-9.389a170.886,170.886,0,0,0,22.144-9.8c43.366-23.135,65.664-60.58,80.768-99.209,4.762-12.187,8.806-24.413,12.646-36.562,10.035-31.567,20.89-63.848,35.072-94.12,23.168-49.107,59.443-89.913,111.616-122.57,23.04-14.366,51.2-27.812,83.021-32.957,45.312-7.361,88.422-2.5,128-4.019,3.123-.113,6.246-.282,9.37-.469,47.155-3,90.777-15.248,126.413-37.67,37.939-23.849,66.56-60.937,64.64-102.4" transform="translate(-5.045 -273.949)"/><path class="e" d="M148,890.273c28.262-29.726,62.127-56.363,100.583-79.115a325.826,325.826,0,0,1,54.477-26.741c39.245-14.4,82.406-18.929,124.569-18.535,11.725.132,23.4.582,34.867,1.315a771.615,771.615,0,0,1,143.36,23.512c45.85,12.018,89.728,28.75,136.755,43.022,53.094,16.112,106.5,34.027,162.739,42.7,47.821,7.343,99.712,6.742,143.1-8.732a175.165,175.165,0,0,0,22.733-9.915c44.493-23.417,67.3-61.745,82.893-101.2,4.941-12.45,9.19-25.013,13.235-37.314,10.6-32.187,22.4-65.088,37.862-95.96,25.216-50.083,63.872-91.678,119.3-123.79,23.04-13.277,50.637-25.577,81.229-30.816,43.674-7.511,85.53-4.695,123.853-8.206,3.021-.282,6.042-.6,9.037-.939,45.517-5.389,86.554-20,118.938-43.68,34.509-25.164,58.88-61.97,55.142-102.1" transform="translate(0.634 -277.311)"/><path class="e" d="M151.62,907.326c27.524-29.133,60.831-55.084,98.816-76.993a342.041,342.041,0,0,1,53.53-25.765c38.4-14.1,80.2-19.586,121.5-20.394q17.28-.338,34.3.263a761.176,761.176,0,0,1,142.054,18.779c45.645,10.46,89.6,25.464,135.68,39.041,54.528,16.056,108.8,34.628,166.221,43.773,48.768,7.718,101.888,7.4,146.33-8.169a177.243,177.243,0,0,0,23.3-10.047c45.645-23.812,68.762-62.872,84.966-103.19,5.12-12.694,9.549-25.52,13.824-38.065,11.161-32.806,23.91-66.364,40.627-97.8,27.289-51.022,68.224-93.594,127-124.973,23.04-12.244,50.048-23.361,79.36-28.694,41.984-7.624,82.586-6.892,119.6-12.394,2.918-.432,5.837-.9,8.73-1.408,43.4-7.47,82.441-24.864,111.488-49.67,31.027-26.516,51.2-63.191,45.619-101.8" transform="translate(6.281 -280.788)"/><path class="e" d="M155.25,924.07c26.834-28.41,59.573-53.56,97.024-74.533a361.587,361.587,0,0,1,52.608-24.826c37.325-13.765,78.029-20.262,118.426-22.234,11.29-.582,22.554-.826,33.715-.808a752.03,752.03,0,0,1,140.672,14.216c45.44,8.882,89.6,22.159,134.733,35.079,55.936,15.981,111.078,35.285,169.7,44.806,49.69,8.112,104.064,8.075,149.53-7.606a177.271,177.271,0,0,0,23.859-10.141c46.8-24.168,70.323-64.036,87.04-105.162,5.274-12.957,9.907-26.028,14.387-38.816,11.75-33.445,25.446-67.6,43.52-99.641,29.338-51.98,72.5-95.678,134.733-126.194a312.037,312.037,0,0,1,77.67-26.553c40.32-7.737,79.667-9.089,115.379-16.582,2.816-.582,5.606-1.221,8.4-1.878,41.847-9.993,78.275-29.493,104.013-55.68,27.6-27.849,43.725-64.3,36.122-101.5" transform="translate(11.944 -284.124)"/><path class="e" d="M158.87,941c26.137-27.755,58.319-52.168,95.258-72.261a388.012,388.012,0,0,1,51.686-23.849,435.383,435.383,0,0,1,115.354-24.112c11.059-.92,22.118-1.5,33.152-1.878a742.705,742.705,0,0,1,139.29,9.54c45.21,7.324,89.344,18.779,133.709,31.117,57.37,15.868,113.357,35.811,173.133,45.858,50.637,8.507,106.24,8.751,152.755-7.023a181.637,181.637,0,0,0,24.422-10.253c47.923-24.525,71.859-65.2,89.191-107.171,5.453-13.145,10.24-26.553,14.976-39.586,12.313-34.065,26.957-68.937,46.08-101.406,31.385-52.956,76.8-97.932,142.413-127.414a366.544,366.544,0,0,1,75.878-24.413c38.656-7.868,76.8-11.267,111.155-20.769,2.714-.751,5.427-1.521,8.09-2.347,40.333-12.539,74.192-34.155,96.691-61.726,24.141-29.2,36.122-65.444,26.624-101.2" transform="translate(17.591 -287.556)"/><path class="e" d="M162.5,957.816c25.414-27.1,57.027-50.773,93.44-69.97,48.027-25.879,104.027-42.651,163.021-48.825,10.829-1.258,21.709-2.216,32.563-2.892a729.552,729.552,0,0,1,137.907,4.883c45,5.765,89.216,15.53,132.685,27.154,58.88,15.718,115.661,36.393,176.64,46.947,51.584,8.882,108.416,9.389,155.955-6.46a183.57,183.57,0,0,0,25.011-10.366c49.075-24.882,73.421-66.346,91.29-109.18,5.632-13.465,10.624-27.06,15.539-40.318,12.8-34.7,28.493-70.214,49-103.284,33.459-53.9,80.845-100.354,150.118-128.6a450.1,450.1,0,0,1,74.24-22.291c36.992-8,73.83-13.483,106.931-24.957,2.56-.9,5.12-1.878,7.68-2.817,38.671-15.08,69.853-38.742,89.088-67.6,20.685-30.516,28.544-66.571,17.1-100.9" transform="translate(23.254 -290.866)"/><path class="e" d="M166.13,974.812c57.062-61.745,151.04-102.551,250.726-117.462s204.262-5.258,300.186,19.474c60.288,15.549,117.914,37.013,180.045,47.961s132.045,10.122,184.781-16.356c65.971-33.145,87.987-95.772,109.517-152.24,35.4-92.918,92.16-191.713,209.587-234.98,58.573-21.539,127.1-26.948,182.5-52.581,76.8-35.567,115.2-110.42,89.216-174.268" transform="translate(28.916 -294.36)"/></g><g transform="translate(-676.429 -279.971)"><path class="e" d="M-264.23.887a1680.9,1680.9,0,0,1,155.341-96.73c24.166-13.3,49.459-26.29,78.566-32.319,74.394-15.248,150.17,19.474,207,57.726,52.534,35.29,99.163,75.036,138.906,118.4C354.88,90.894,388.032,137.878,439.9,172.9s129.818,55.886,193.818,34.2c38.067-12.9,65.587-39.116,80.691-67.811S733.428,79.4,734.324,48.641c1.024-35.21-1.1-72.374,21.837-103.284,23.757-31.924,74.393-52.187,123.93-49.388,70.528,4,122.5,47.511,173.85,83.172,65.229,45.276,144.717,83.172,233.779,91.322S1475.9,51.007,1517.812-7.282" transform="translate(264.23 164.518)"/><path class="e" d="M-262,7.285a1560.127,1560.127,0,0,1,153.037-94.7c23.833-12.957,48.819-25.633,77.414-31.492,57.472-11.756,115.789,5.99,165.606,31.924q20.112,10.513,38.63,22.535C224.924-30.776,271.5,7.345,311.44,49.106c39.424,41.351,72.7,86.946,124.211,120.88a283.076,283.076,0,0,0,102.4,41.163c32.666,6.009,66.688,5.634,97.562-4.469a154.766,154.766,0,0,0,15.923-6.2A146.413,146.413,0,0,0,719.5,137.141a167,167,0,0,0,10.906-25.013c7.68-22.122,10.906-45.069,12.928-67.735,3.277-35.886,4.941-72.862,29.722-103.472s73.242-50.1,121.651-47.529c68.915,3.643,120.166,44.957,170.726,78.5,3.968,2.629,8.013,5.258,12.109,7.831,61.773,39,135.014,70.139,215.68,76.111,86.093,6.385,180.992-21.558,220.672-78.683" transform="translate(267.709 172.616)"/><path class="e" d="M-259.69,13.714A1443.4,1443.4,0,0,1-108.957-78.978c23.526-12.6,48.153-24.92,76.262-30.666C23.753-121.212,81.1-104.574,130.326-80.03q19.938,9.972,38.4,21.408c51.864,32.14,98.315,68.7,138.368,108.917,39.6,39.736,73.088,83.923,124.186,116.861,30.157,19.3,67.021,35.079,105.574,42.59,33.51,6.516,68.659,6.535,100.582-3.493a154.634,154.634,0,0,0,16.512-6.216,150.689,150.689,0,0,0,70.5-65.031A180.627,180.627,0,0,0,736.1,109.336c8.346-22.666,12.8-46.177,16.154-69.181,5.53-36.544,10.906-73.238,37.581-103.641,25.344-28.807,72.09-47.98,119.373-45.67,67.3,3.305,117.76,42.4,167.578,73.82q5.914,3.756,11.93,7.324c60.723,36.469,131.943,64.919,209.92,69.238,83.021,4.6,173.8-23.68,211.251-79.66" transform="translate(271.312 180.703)"/><path class="e" d="M-257.41,23.684A1342.837,1342.837,0,0,1-108.93-67c23.219-12.244,47.513-24.168,75.11-29.839,55.424-11.38,111.8,4.169,160.461,27.4q19.706,9.417,38.016,20.281c51.566,30.536,97.974,65.48,138.24,104.091,39.783,38.234,73.421,81.012,124.058,112.861,31.283,19.661,69.12,36.018,108.723,44.13,34.355,7.023,70.656,7.512,103.6-2.5a155.009,155.009,0,0,0,17.1-6.272c33.818-14.685,57.8-39.736,73.088-66.7a203.954,203.954,0,0,0,12.39-26.29C750.9,86.95,756.4,62.913,761.188,39.534,769,2.314,777.982-34.192,806.654-64.276c25.933-27.248,71.066-45.914,117.146-43.83,65.69,2.948,115.507,39.849,164.454,69.125q5.786,3.455,11.725,6.835c59.674,33.9,128.947,59.7,203.955,62.346,79.949,2.817,166.63-25.8,201.83-80.636" transform="translate(274.869 185.212)"/><path class="e" d="M-255.14,35.614A1247.666,1247.666,0,0,1-109.04-53.06C-86.129-64.965-62.193-76.5-35.082-82.073c54.4-11.267,109.8,3.23,157.9,25.145,13.158,5.972,25.779,12.488,37.709,19.192C211.755-8.795,258.063,24.551,298.46,61.585c40.013,36.656,73.958,77.951,124.211,108.786,32.486,20,71.194,36.919,111.846,45.633,35.174,7.512,72.627,8.45,106.624-1.5a157.41,157.41,0,0,0,17.69-6.31c35.046-14.892,59.622-40.675,75.648-68.374a224.453,224.453,0,0,0,13.158-27c9.754-23.755,16.333-48.318,22.528-72.073,10.035-37.9,22.579-74.12,53.325-103.979,26.419-25.652,69.811-43.755,114.816-41.933,64,2.591,113.177,37.295,161.28,64.449,3.789,2.141,7.68,4.263,11.52,6.328C1169.73-3.033,1237.058,20.065,1309.2,21.061c76.8,1.052,159.437-27.905,192.41-81.575" transform="translate(278.41 187.817)"/><path class="e" d="M-252.87,47.509a1162.783,1162.783,0,0,1,143.8-86.665C-86.5-50.7-62.995-61.841-36.268-67.324c53.376-11,107.776,2.329,155.341,22.91,13.03,5.634,25.6,11.756,37.376,18.084,50.906,27.357,97.147,59.1,137.728,94.552C334.368,103.3,368.7,143.112,418.362,172.97c33.741,20.3,73.4,37.8,115,47.116,36.019,8.037,74.624,9.389,109.645-.526a162.061,162.061,0,0,0,18.3-6.329c36.224-15.023,61.44-41.614,78.182-70.064a249.635,249.635,0,0,0,13.926-27.661c10.47-24.3,18.073-49.388,25.6-73.519,12.262-38.534,28.39-74.5,61.312-104.148,26.778-24.112,68.659-41.652,112.64-40.074,62.464,2.253,110.848,34.76,158.208,59.792q5.606,2.948,11.315,5.821c57.6,28.788,122.88,49.238,192.23,48.562,73.83-.714,152.243-30.046,182.989-82.627" transform="translate(281.952 190.42)"/><path class="e" d="M-250.6,59.391A1084.275,1084.275,0,0,1-109.109-25.245C-86.837-36.512-63.541-47.2-37.429-52.606,14.923-63.441,68.35-51.216,115.352-31.949c12.8,5.239,25.293,11,37.069,16.9,50.586,25.793,96.743,55.97,137.472,89.876,40.371,33.52,75.034,71.81,124.083,100.655,35.072,20.657,75.494,38.76,118.221,48.694,36.864,8.507,76.6,10.328,112.64.451a165.619,165.619,0,0,0,18.867-6.385c37.453-15.267,63.232-42.534,80.768-71.735a301.978,301.978,0,0,0,14.643-28.337c11.187-24.826,19.891-50.44,28.928-74.946,14.438-39.248,33.894-74.89,69.12-104.317,27.034-22.535,67.507-39.436,110.259-38.2,60.851,1.878,108.518,32.206,155.085,55.1,3.661,1.878,7.373,3.587,11.11,5.314,56.551,26.253,120.038,44.018,186.368,41.6,70.758-2.479,145.05-32.112,173.568-83.51" transform="translate(285.493 193.034)"/><path class="e" d="M-248.33,71.312A1009.469,1009.469,0,0,1-109.143-11.315c21.965-10.854,44.9-21.239,70.5-26.535,51.354-10.648,103.782.469,150.2,18.422,12.8,4.882,25.062,10.272,36.787,15.868,50.27,24.165,96.362,52.711,137.267,85.012,40.55,31.924,75.571,68.731,124.134,96.692,36.275,20.882,77.491,39.567,121.293,50.121,37.709,9.014,78.592,11.267,115.712,1.446a166.4,166.4,0,0,0,19.456-6.422c38.656-15.455,65.024-43.473,83.328-73.425a291.308,291.308,0,0,0,15.36-28.995c11.955-25.37,21.862-51.51,32.1-76.392,16.691-39.924,39.45-75.284,76.954-104.467,27.238-21.183,66.406-37.445,108.032-36.356,59.238,1.559,106.189,29.652,151.962,50.421,3.584,1.634,7.245,3.249,10.906,4.807,55.5,23.7,116.992,38.816,180.506,34.8,67.687-4.263,137.882-34.234,164.147-84.5" transform="translate(289.034 195.63)"/><path class="e" d="M-246,86.645A940.455,940.455,0,0,1-109.271,6.028C-87.613-4.47-65.008-14.46-39.894-19.681c50.3-10.46,101.709-.357,147.61,16.187,12.6,4.544,24.806,9.54,36.454,14.76,49.992,22.573,96.06,49.517,137.19,80.242,40.73,30.422,76.134,65.726,124.134,92.674,37.4,21.164,79.462,40.45,124.186,51.6,38.528,9.521,80.563,12.225,118.733,2.423a167.289,167.289,0,0,0,20.045-6.441c39.885-15.662,66.842-44.393,85.888-75.115A330.729,330.729,0,0,0,770.525,127c12.621-25.915,23.5-52.581,35.277-77.838,19.072-40.6,45-75.716,84.838-104.542,27.264-19.755,65.229-35.342,105.7-34.478,57.728,1.108,103.961,26.966,148.915,45.745,3.558,1.465,7.117,2.892,10.726,4.3,54.451,21.145,114,33.577,174.643,27.887,64.64-6.028,130.688-36.337,154.726-85.425" transform="translate(292.669 194.794)"/><path class="e" d="M-243.78,104.681a878.494,878.494,0,0,1,134.554-78.59C-87.876,15.95-65.706,6.336-41,1.209,8.278-9.063,58.71-.068,104.047,15.143c12.467,4.188,24.55,8.807,36.147,13.652,49.623,20.991,95.573,46.342,136.832,75.491,40.96,28.844,76.8,62.477,124.109,88.636,38.835,21.408,81.69,41.313,127.565,53.088,39.373,10.028,82.56,13.145,121.754,3.418a170.064,170.064,0,0,0,20.634-6.441c40.96-15.868,68.659-45.332,88.474-76.806,6.272-9.99,11.8-20.187,16.922-30.309,13.338-26.459,25.293-53.651,38.4-79.284,21.2-41.314,50.253-76.186,92.7-104.8,27.238-18.385,64-33.22,103.424-32.619,56.038.864,101.53,24.544,145.69,41.069,3.482,1.3,6.989,2.573,10.522,3.756C1220.617-17.42,1278.217-7.655,1336-15c61.44-7.812,123.494-38.459,145.28-86.383" transform="translate(296.132 191.256)"/><path class="e" d="M-241.51,122.717a821.847,821.847,0,0,1,132.25-76.6c21.017-9.784,42.957-19,67.072-24.056C6.068,11.978,55.5,19.865,100.3,33.78c12.314,3.756,24.32,8.056,35.84,12.525a729.016,729.016,0,0,1,136.627,70.721c40.96,27.286,77.286,59.341,124.058,84.6,40.141,21.69,83.814,42.234,130.714,54.59,40.218,10.535,84.48,14.122,124.774,4.413a176.224,176.224,0,0,0,21.248-6.535c42.291-16.037,70.451-46.252,91.008-78.477,6.5-10.216,12.314-20.657,17.664-30.966,14.054-27,27.136-54.7,41.677-80.749,23.475-41.933,55.526-76.693,100.557-104.974,27.187-17.051,62.95-31.117,101.171-30.741,54.426.507,99.226,21.99,142.566,36.375,3.43,1.127,6.861,2.235,10.24,3.305,52.378,16.037,108.006,23.117,162.918,14.1,58.5-9.558,116.3-40.562,135.859-87.359" transform="translate(299.673 187.735)"/><path class="e" d="M-239.24,140.673A766.534,766.534,0,0,1-109.294,66.1C-88.584,56.713-67,47.83-43.374,42.873c47.232-9.915,95.693-3.117,139.9,9.389,12.186,3.455,24.09,7.324,35.533,11.436a724.229,724.229,0,0,1,136.422,66.083c41.242,25.652,77.927,56.111,124.032,80.505,41.472,21.915,85.914,43.191,133.862,56.074,40.96,11.042,86.528,15.023,127.8,5.39a180.06,180.06,0,0,0,21.837-6.554c43.52-16.244,72.269-47.191,93.568-80.167,6.758-10.441,12.8-21.089,18.432-31.624,14.771-27.567,28.928-55.773,44.877-82.176C858.616,28.62,893.586-6.046,941.3-33.933c27.034-15.774,61.824-28.995,98.867-28.882,52.838.15,96.922,19.455,139.469,31.7,3.354.976,6.733,1.878,10.112,2.8,51.3,13.5,105.062,17.934,157.056,7.249,55.45-11.267,109.133-42.684,126.438-88.261" transform="translate(303.214 184.276)"/><path class="e" d="M-237,158.718A712.966,712.966,0,0,1-109.281,86.157C-88.8,77.068-67.63,68.6-44.514,63.735c46.234-9.709,93.7-4.019,137.344,7.23,12.058,3.117,23.834,6.591,35.226,10.328a722.347,722.347,0,0,1,136.192,61.182c41.472,24.15,78.541,52.994,124.032,76.543,42.88,22.14,87.987,44,137.011,57.557,41.856,11.549,88.474,16.018,130.79,6.385a181.291,181.291,0,0,0,22.426-6.591c44.723-16.432,74.061-48.112,96.154-81.838,6.963-10.685,13.261-21.577,19.174-32.318,15.488-28.168,30.72-56.806,48.051-83.6C870.046,35.416,907.678.675,958.187-26.7c26.829-14.535,60.672-26.891,96.589-27.023,51.2-.188,94.592,16.9,136.346,27.042,3.277.789,6.6,1.559,9.907,2.272,50.278,10.948,102.042,12.695,151.194.338C1404.6-37.22,1454.162-68.863,1469.24-113.35" transform="translate(306.709 180.747)"/><path class="e" d="M-234.69,176.718a667.352,667.352,0,0,1,125.312-70.552c20.1-8.732,40.96-16.807,63.616-21.577,45.21-9.54,91.7-4.939,134.784,4.976,11.9,2.761,23.654,5.934,34.918,9.22A720.284,720.284,0,0,1,259.9,155.217c41.625,22.572,79.206,49.8,124.134,72.486,44.006,22.366,89.958,44.9,140.032,59.06,42.7,12.056,90.47,16.9,133.837,7.38a184.907,184.907,0,0,0,23.04-6.648c45.926-16.619,75.878-49.032,98.713-83.51,7.219-10.911,13.747-22.028,19.942-32.976,16.2-28.638,32.614-57.858,51.2-85.05,30.336-43.9,70.835-78.721,124.16-105.462,26.6-13.352,59.52-24.788,94.31-25.164,49.613-.545,92.16,14.347,133.12,22.347,3.251.62,6.477,1.221,9.728,1.784,49.229,8.375,99.047,7.512,145.331-6.554,49.306-14.892,94.72-46.947,107.52-90.251" transform="translate(310.312 177.245)"/><path class="e" d="M-232.42,194.766c36.8-26.6,78.1-49.63,122.88-68.524,19.763-8.394,40.345-16.075,62.464-20.657,44.186-9.389,89.6-5.878,132.224,2.742,11.776,2.385,23.347,5.108,34.586,8.112a717.68,717.68,0,0,1,135.68,51.642c42.01,20.863,80.051,46.44,124.186,68.318,45.491,22.535,92.16,45.783,143.36,60.543,43.52,12.563,92.442,17.934,136.858,8.375a191.053,191.053,0,0,0,23.6-6.685c47.13-16.9,77.67-49.971,101.274-85.2C792.117,202.3,798.9,190.9,805.353,179.8c16.87-29.182,34.381-58.928,54.4-86.439C892.5,48.723,935.477,13.738,991.8-12.327c26.342-12.206,58.368-22.685,92.16-23.3,48-.883,89.933,11.812,130.074,17.671,3.174.469,6.349.9,9.523,1.277,48.179,5.84,96.051,2.235,139.469-13.427,46.234-16.676,87.552-49.032,98.176-91.209" transform="translate(313.854 173.751)"/><path class="e" d="M-230.15,212.746c35.977-26.056,76.577-48.435,120.7-66.534a353.165,353.165,0,0,1,61.44-19.924c43.162-9.164,87.706-6.779,129.638.507,11.648,2.028,23.04,4.375,34.3,7a716.843,716.843,0,0,1,135.526,46.947c41.856,19.417,80.41,43.3,123.827,64.355,46.874,22.666,94.31,46.684,146.458,62.1,44.365,13.145,94.438,18.779,139.878,9.389a189.178,189.178,0,0,0,24.192-6.7c48.333-17.014,79.36-50.91,103.833-86.89,7.68-11.267,14.694-22.929,21.427-34.29,17.638-29.858,36.25-60.092,57.626-88.073,34.893-45.238,80.589-80.58,139.93-105.8,26.086-11.08,57.242-20.563,89.754-21.427,46.387-1.239,87.6,9.239,126.95,12.976,3.1.3,6.221.563,9.344.789,47.13,3.268,93.03-2.986,133.581-20.338,43.187-18.422,80.384-51.135,88.755-92.167" transform="translate(317.395 170.23)"/><path class="e" d="M-227.87,230.728c35.1-25.5,74.953-47.222,118.375-64.505a365.566,365.566,0,0,1,60.16-19.1c42.138-8.976,85.709-7.718,127.078-1.746,11.52,1.671,22.861,3.756,34,5.9a713.9,713.9,0,0,1,135.3,42.121c42.163,17.877,81.2,40.13,123.955,60.393,48.256,22.873,96.384,47.511,149.581,63.548,45.21,13.539,96.41,19.812,142.9,10.328a191.861,191.861,0,0,0,24.781-6.76c49.562-17.183,81.306-51.811,106.394-88.561,7.91-11.587,15.181-23.38,22.2-34.947,18.355-30.272,38.042-61.069,60.826-89.387,37.12-45.914,85.376-81.726,147.789-105.969,25.8-10.028,56.09-18.46,87.475-19.568,44.774-1.577,85.273,6.7,123.827,8.319,3.046.131,6.093.207,9.139.263,46.08.732,90.035-8.206,127.719-27.211,40.115-20.206,73.19-53.257,79.36-93.143" transform="translate(320.952 166.745)"/><path class="e" d="M-225.6,248.818c34.238-24.955,73.358-46.026,116.07-62.515a385.5,385.5,0,0,1,58.88-18.272c41.114-8.788,83.712-8.638,124.518-3.981q17.05,1.972,33.664,4.807A710.335,710.335,0,0,1,242.752,206.19c42.342,16.319,81.92,36.9,123.93,56.337,49.664,23,98.483,48.431,152.73,65.031,46.08,14.047,98.406,20.769,145.92,11.267a196.527,196.527,0,0,0,25.37-6.8c50.765-17.389,83.123-52.75,108.979-90.251,8.141-11.812,15.642-23.83,23.04-35.68,19.046-30.8,39.834-62.1,64-90.815,39.4-46.572,90.112-83.021,155.674-106.138,25.6-9,54.938-16.338,85.2-17.69,43.187-1.878,82.944,4.131,120.7,3.624,2.97,0,5.939-.113,8.934-.244,44.521-1.6,87.194-13.545,121.856-34.1,37.043-21.971,66-55.36,69.914-94.1" transform="translate(324.493 163.172)"/><path class="e" d="M-223.33,266.739c33.384-24.4,71.771-44.806,113.767-60.487a403.766,403.766,0,0,1,57.856-17.446c40.115-8.619,81.715-9.633,121.958-6.216,11.238.92,22.374,2.178,33.28,3.756a709.264,709.264,0,0,1,134.963,32.506c42.5,14.741,82.56,33.633,123.878,52.318,51.2,23.117,100.608,49.332,155.878,66.534,46.874,14.554,100.378,21.708,148.941,12.3a198.679,198.679,0,0,0,25.984-6.817c51.968-17.6,84.89-53.689,111.513-92.016,8.371-12.037,16.128-24.3,23.706-36.281,19.763-31.342,41.651-63.172,67.2-92.261,41.626-47.248,94.72-84.5,163.533-106.307A339.535,339.535,0,0,1,1141.995.567c41.574-2.291,80.614,1.6,117.555-1.052q4.378-.3,8.755-.732c43.607-4.309,84.223-18.663,115.994-40.994,33.971-23.755,58.88-57.482,60.467-95.059" transform="translate(328.034 159.748)"/><path class="e" d="M-221.06,284.7c32.532-23.838,70.189-43.588,111.462-58.459a431.091,431.091,0,0,1,56.7-16.619c39.091-8.432,79.718-10.554,119.373-8.469,11.11.563,22.144,1.446,33.075,2.573A709.068,709.068,0,0,1,234.21,231.541c42.675,13.2,83.251,30.365,123.853,48.3,52.557,23.192,102.707,50.215,159.027,68.017,47.718,15.023,102.4,22.666,151.987,13.3a203.943,203.943,0,0,0,26.5-6.854c53.171-17.784,86.707-54.628,114.074-93.632,8.627-12.263,16.614-24.75,24.448-36.938,20.48-31.924,43.52-64.242,70.4-93.707C948.4,82.1,1004,43.846,1076.015,23.565a395.406,395.406,0,0,1,80.64-13.99c39.962-2.629,78.285-.939,114.432-5.634,2.867-.376,5.709-.807,8.55-1.258,42.674-7.02,81.215-23.785,110.08-47.886,30.925-25.52,51.61-59.585,51.047-96.016" transform="translate(331.575 156.281)"/><path class="e" d="M-218.78,302.758c31.666-23.3,68.588-42.4,109.133-56.468A468.15,468.15,0,0,1-54.1,230.5a508.42,508.42,0,0,1,116.813-10.7q16.474.31,32.742,1.465A707.972,707.972,0,0,1,229.911,244.3c42.854,11.643,83.942,27.1,123.853,44.281,54.093,23.248,104.781,51.135,162.15,69.5,48.64,15.568,104.346,23.605,155.008,14.291a203.824,203.824,0,0,0,27.136-6.911c54.374-17.971,88.525-55.529,116.659-95.3,8.832-12.488,17.075-25.2,25.19-37.558,21.222-32.431,45.286-65.313,73.6-95.153,46.08-48.581,104.166-88.017,179.2-106.626A482.964,482.964,0,0,1,1171.146,18.6c38.4-2.986,75.955-3.512,111.309-10.4,2.79-.545,5.581-1.127,8.346-1.765,41.757-9.693,78.257-28.836,104.269-54.684,27.853-27.286,44.442-61.707,41.626-96.993" transform="translate(335.132 152.743)"/><path class="e" d="M-216.51,320.682c71.3-53.107,173.824-80.749,275.482-82.27s202.24,21.821,290.483,58.853c55.475,23.286,106.88,52,165.3,71s127.386,27.417,185.754,8.338c73.062-23.868,110.08-82.533,145.178-135.208C903.362,154.64,983.336,64.971,1109.6,37.967c62.9-13.446,131.635-9.69,192.435-27.586,84.3-24.826,140.391-93.369,130.56-159.62" transform="translate(338.673 149.24)"/></g><g transform="translate(-109.356 -141.871)"><path class="e" d="M-41.8,1026.056c-10.752-63.848,75.162-117.8,161.818-127.7S293.608,908.914,379.5,922.04,561.973,939.486,633.7,902.454c91.7-47.342,112.9-146.926,207.36-191.394,73.523-34.647,169.242-24.281,244.557,1.5,42.6,14.572,78.822,39.1,119.526,56.186,184.653,77.463,197.12,235.787,353.971,259.392,169.728,25.6,261.888-35.154,293.939-77.2,40.96-53.952,109.542-193.986-58.214-291.3-68.173-39.529-135.45-81.669-185.574-133.724-75.085-77.914-74.573-197.066,21.427-261.458,65.792-44.13,166.835-60.28,211.533-116.861,30.029-38.027,25.933-87.059,0-126.739S1771.6-50.255,1722.677-75.7" transform="translate(42.717 75.7)"/><path class="e" d="M-40.565,1026.408c-7.424-65.726,78.029-122.438,167.27-133.743,87.04-11.023,175.488,9.3,261.376,23.774,84.864,14.328,179.2,20.807,250.573-12.845C729.995,860.515,755.671,765.983,849.9,722.1c75.059-34.76,169.242-28.3,246.374-5.765,44.314,12.957,83.584,36.074,126.208,53.388,180.762,73.463,195.738,226.642,349.082,249.928,165.043,24.995,256.717-32.488,290.022-73.951,42.214-52.581,107.52-187.451-51-283.561-65.357-39.661-130.15-82.627-179.482-134.325-72.858-76.092-73.523-190.981,17.075-254.829,62.694-44.168,160.1-62.158,204.6-118.006,30.541-38.2,28.672-86.514,6.118-126.476-22.784-40.431-64.358-73.576-111.258-100.9" transform="translate(45.371 78.597)"/><path class="e" d="M-39.233,1026.7c-4.1-67.51,80.9-127.039,172.723-139.734,87.578-12.094,177.382,8.019,263.27,23.887,83.866,15.492,175.693,24.15,246.963-6.141,90.957-38.8,120.96-128.429,215.219-171.564,76.467-35.022,169.344-32.375,248.166-13.032,46.08,11.267,88.32,33.032,132.915,50.59,176.64,69.632,194.15,217.478,344.192,240.37,160.282,24.412,251.392-29.8,285.978-70.59,43.341-51.116,105.549-180.991-43.725-276.049-62.592-39.83-124.9-83.547-173.414-134.964-70.656-74.233-72.474-184.934,12.8-248.163,59.571-44.112,153.293-63.923,197.606-119.039,31.053-38.346,31.411-86.007,12.083-126.232C1855.832-4.99,1817.739-39.9,1772.709-69.12" transform="translate(47.93 81.476)"/><path class="e" d="M-37.8,1026.971c-.768-69.35,83.763-131.64,178.176-145.743,88.038-13.145,179.2,6.723,265.165,24,82.842,16.638,172.288,27.492,243.328.582,90.6-34.534,125.03-119.171,219.213-161.667,77.952-35.173,169.523-36.487,249.984-20.3,47.9,9.634,93.03,30.046,139.6,47.811,172.493,65.951,192.691,208.314,339.328,230.98,155.469,23.849,246.042-27.117,281.907-67.228,44.442-49.689,103.6-174.644-36.48-268.35C1782.593,627.038,1723,582.55,1675.1,531.491c-68.147-72.543-71.449-178.925,8.371-241.534,56.5-44.3,146.458-66.008,190.746-120.335,31.437-38.628,34.2-85.575,18.1-125.987-16.64-41.764-51.2-78.383-94.438-109.424" transform="translate(50.385 84.4)"/><path class="e" d="M-36.28,1027.293C-33.72,956.1,50.35,891.071,147.374,875.56c88.448-14.159,181.094,5.408,267.034,24.074,81.92,17.784,168.96,30.854,239.718,7.305C744.341,876.687,783.2,797.045,877.307,755.187c79.36-35.342,169.779-40.656,251.776-27.567,49.766,7.944,97.766,27,146.278,45.069,168.192,62.44,191.232,199.169,334.464,221.478,150.682,23.3,240.64-24.412,277.862-63.848,45.517-48.262,101.683-168.409-29.209-260.707-57.088-40.243-114.1-85.538-161.28-136.184-65.869-70.721-70.426-172.953,4.019-234.867,53.453-44.468,139.7-67.979,183.859-121.612,31.9-38.7,36.992-85.068,24.09-125.725-13.542-42.534-44.826-80.749-86.042-113.744" transform="translate(52.759 87.271)"/><path class="e" d="M-34.76,1027.544C-28.846,954.531,54.84,886.8,154.347,869.8c88.909-15.173,182.989,4.094,268.928,24.187C504.12,912.9,588.83,928.3,659.358,908.016,749.291,882.158,792.478,807.4,886.533,766.16c80.947-35.492,170.061-44.881,253.594-34.816,51.635,6.216,102.4,24,152.96,42.215,163.84,59.041,189.773,190,329.574,211.995,145.92,22.722,235.341-21.746,273.92-60.506,46.541-46.835,99.84-162.268-21.99-253.027-54.349-40.525-108.749-86.514-155.162-136.8-63.565-68.918-69.427-167.132-.307-228.238,50.3-44.525,132.813-69.8,176.794-122.626,32.41-38.872,39.91-84.636,30.08-125.48-10.394-43.323-38.4-83.266-77.619-118.063" transform="translate(55.13 90.194)"/><path class="e" d="M-33.24,1027.848C-24,953,59.125,882.555,161.32,864.115c89.37-16.15,184.858,2.742,270.822,24.3,79.846,20,162.15,37.67,232.474,20.657,89.6-21.558,137.216-91.322,231.142-131.941a532.024,532.024,0,0,1,255.385-42.084c53.555,4.469,107.11,21.014,159.667,39.436,159.283,55.792,188.314,180.916,324.71,202.587,141.082,22.215,229.914-19.1,269.773-57.144,47.565-45.445,97.971-156.278-14.746-245.384a1273.651,1273.651,0,0,1-149.094-137.423c-61.44-67.078-68.454-161.179-4.659-221.591,47.232-44.731,126.131-71.735,169.958-123.809,32.87-39.041,42.752-84.242,36.071-125.218C1935.6,22.333,1911-19.244,1873.7-55.9" transform="translate(57.501 93.082)"/><path class="e" d="M-31.72,1028.134c12.6-76.674,95.232-149.8,200.013-169.742,89.856-17.107,186.88,1.39,272.717,24.413,78.848,21.107,158.72,41.05,228.838,27.473C759.038,893,811.134,828.233,904.984,788.215c83.942-35.793,170.752-53.52,257.2-49.351,55.45,2.667,111.744,18.047,166.4,36.619,154.573,52.581,186.88,171.7,319.846,193.047,136.294,21.577,224.512-16.394,265.728-53.783,48.64-44.037,96.23-150.4-7.475-237.722a1487.741,1487.741,0,0,1-143-138.062c-59.033-65.256-67.507-155.376-9.011-214.924,44.16-44.938,119.373-73.632,163.046-124.955,31.432-37.424,46.13-81.12,42.035-124.973-3.968-45.069-25.318-88.261-60.8-126.7" transform="translate(59.873 95.988)"/><path class="e" d="M-30.2,1028.455c15.872-78.514,98.1-154.306,205.466-175.789,90.317-18.046,188.621,0,274.611,24.506,77.85,22.159,155.366,44.412,225.28,34.177,88.781-12.995,145.382-72.712,239.1-112.11,85.453-35.924,171.136-57.914,259-56.618,57.4.845,116.4,15.023,173.03,33.8,149.862,49.576,185.4,162.531,314.88,183.545,131.507,21.032,219.11-13.727,261.709-50.4,49.51-42.665,94.592-144.6-.256-230.079-46.08-41.614-92.774-89.388-136.909-138.663-56.781-63.435-66.56-149.63-13.363-208.276,40.96-45.2,112.64-75.547,156.16-126.138,32-37.325,48.684-80.619,48.051-124.71-1.01-46.344-19.12-91.622-52.4-131.02" transform="translate(62.244 98.859)"/><path class="e" d="M-28.68,1028.714C-9.429,948.379,72.312,869.939,182.238,846.973c90.8-18.985,190.515-1.371,276.48,24.619,76.8,23.211,151.936,47.755,221.594,40.9,88.422-8.713,149.478-63.416,243.2-102.213,87.04-36.055,171.52-62.364,260.813-63.848,59.315-1.014,120.986,12.169,179.712,31.041,145.075,46.628,183.91,153.367,310.067,174.061,126.72,20.45,213.658-11.061,257.664-47.06,50.458-41.313,93.082-139.1,7.014-222.417-43.52-42.083-87.5-90.326-130.842-139.283-54.528-61.576-65.766-143.94-17.715-201.629,37.914-45.5,105.882-77.425,149.2-127.283,32.6-37.287,51.243-80.216,54.042-124.466,2.5-47.242-12.754-94.079-44.083-135.4" transform="translate(64.615 101.773)"/><path class="e" d="M-27.16,1029.045C-4.581,946.869,76.725,865.8,189.211,841.256c91.29-19.887,192.435-2.761,278.4,24.713,75.9,24.262,148.48,51.135,217.984,47.623,88.013-4.432,153.6-54.083,247.066-92.3,88.5-36.168,171.878-66.853,262.63-71.134,61.21-2.892,125.568,9.277,186.368,28.168,140.262,43.774,182.477,144.222,305.229,164.6,121.907,19.887,208.179-8.432,253.594-43.7,51.4-39.905,91.7-133.687,14.259-214.755-40.7-42.647-82.176-91.284-124.749-139.9-52.3-59.754-65-138.306-22.067-194.981,34.739-45.839,99.149-79.322,142.259-128.448,34.842-39.68,54.809-82.721,60.032-124.2,6.069-48.08-6.254-96.45-35.584-139.677" transform="translate(66.986 104.635)"/><path class="e" d="M-25.64,1029.27C.293,945.329,81.138,861.575,196.158,835.51c91.776-20.807,194.33-4.188,280.32,24.826,74.906,25.276,145.1,54.459,214.323,54.346,87.629-.169,157.7-44.769,251.059-82.4C1031.9,796,1114.072,760.921,1206.283,753.9c63.155-4.807,130.176,6.4,193.075,25.445C1534.731,820.337,1580.35,914.4,1699.7,934.437c117.146,19.324,202.7-5.765,249.549-40.318,52.3-38.553,90.522-128.41,21.53-207.112-37.914-43.191-76.8-92.223-118.682-140.522-50.074-57.9-64.307-132.729-26.419-188.333,31.514-46.215,92.416-81.219,135.347-129.574,35.354-39.849,57.933-82.345,66.022-123.941,9.627-48.919.2-98.838-27.187-144" transform="translate(69.357 107.602)"/><path class="e" d="M-24.12,1029.619c29.261-85.857,109.7-172.128,227.277-199.807,92.16-21.69,196.275-5.634,282.214,24.938,73.933,26.29,141.7,57.8,210.714,61.05,87.245,4.112,161.792-35.417,255.027-72.468,91.571-36.393,172.57-75.961,266.24-85.669,65.05-6.742,134.707,3.568,199.68,22.666,130.432,38.272,179.481,126.082,295.45,145.612,112.307,18.929,197.12-3.155,245.53-36.957,53.171-37.22,89.6-123.283,28.749-199.469-35-43.905-71.68-93.162-112.64-141.142-47.872-56.036-63.718-127.189-30.72-181.667,28.16-46.628,85.683-83.1,128.41-130.757,35.84-40,61.107-81.951,72.038-123.715,13.2-49.752,6.683-101.237-18.791-148.353" transform="translate(71.729 110.447)"/><path class="e" d="M-22.6,1029.851C9.989,942.173,90.04,853.33,210.13,824.091c92.774-22.535,198.2-7.08,284.16,25.032,72.986,27.3,138.24,61.163,207.078,67.792,86.861,8.357,165.914-26.084,259.021-62.571s172.877-80.543,268.032-92.936c66.944-8.695,139.264.789,206.438,19.868,125.44,35.68,178.022,116.936,290.611,136.147,107.52,18.347,191.667-.545,241.459-33.6,54.042-35.905,88.729-118.307,36.019-191.808-32.077-44.656-66.381-94.1-106.573-141.762-45.67-54.2-63.206-121.725-35.123-175.019,24.832-47.1,78.976-84.993,121.5-131.94,36.505-40.13,64.281-81.538,78-123.452,16.8-50.532,13.2-103.559-10.368-152.616" transform="translate(74.1 113.388)"/><path class="e" d="M-21.07,1030.146C14.949,940.628,94.437,849.212,217.189,818.34c93.286-23.436,200.141-8.544,286,25.145,72.064,28.281,134.886,64.487,203.469,74.5C793.138,930.6,876.671,901.267,969.65,865.4c94.72-36.581,173.158-85.162,269.85-100.185,68.813-10.7,143.77-1.972,213.12,17.07,120.5,33.07,176.64,107.772,285.721,126.663,102.707,17.765,186.163,2.047,237.415-30.253,54.912-34.572,88.217-113.387,43.264-184.146-28.877-45.445-61.056-95.021-100.429-142.381-43.52-52.318-62.848-116.279-39.449-168.371,21.325-47.567,72.243-86.871,114.56-133.086,36.89-40.281,67.482-81.125,83.994-123.208,20.4-51.327,19.723-105.926-1.946-156.973" transform="translate(76.487 116.285)"/><path class="e" d="M-19.55,1030.477c39.245-91.34,118.426-185.31,243.61-217.835,93.8-24.3,202.24-10.028,287.9,25.258,71.117,29.239,131.482,67.829,199.834,81.218,86.093,16.9,174.08-7.361,266.982-42.759,96.2-36.675,173.414-89.8,271.642-107.453,70.682-12.695,148.275-4.657,219.827,14.272,115.481,30.591,175.078,98.608,280.832,117.18,97.92,17.2,180.608,4.639,233.37-26.872,55.757-33.276,87.987-108.617,50.534-176.521-25.6-46.309-55.808-95.941-94.362-142.982-41.318-50.459-62.592-110.8-43.8-161.724,17.741-48.074,65.536-88.768,107.52-134.25,37.427-40.431,70.733-80.749,90.009-122.945,23.976-52.09,26.213-108.244,6.426-161.273" transform="translate(78.858 119.147)"/><path class="e" d="M-18,1030.745c42.5-93.162,121.293-189.667,248.986-223.807,94.31-25.182,204.083-11.549,289.792,25.333C591,862.486,648.778,903.443,717,920.212c85.709,21.107,178.278,2.009,270.95-32.844,97.766-36.731,173.67-94.458,273.459-114.7,72.5-14.723,152.73-7.3,226.509,11.474,110.438,28.168,173.619,89.444,275.968,107.7,93.107,16.62,175.053,7.192,229.325-23.511,56.576-32.018,88.013-103.885,57.754-168.841-21.99-47.229-50.56-96.88-88.243-143.621-39.168-48.581-62.49-105.425-48.179-155.076,14-48.581,58.88-90.627,100.711-135.4,37.939-40.581,73.984-80.242,95.974-122.7C2138.82,89.855,2144,32.133,2126.076-22.9" transform="translate(81.276 122.052)"/><path class="e" d="M-16.51,1031.014c45.926-95,124.339-194.042,254.515-229.759,94.72-26.027,206.08-13.051,291.686,25.445,69.3,31.173,124.723,74.383,192.589,94.664,85.427,25.22,182.426,11.361,274.944-22.929,99.328-36.825,173.875-99.152,275.251-122.063,74.24-16.751,157.184-9.859,233.19,8.695,105.421,25.727,172.237,80.111,271.1,98.213,88.371,15.906,169.5,9.746,225.28-20.15,57.4-30.76,88.4-99.171,65.024-161.2-18.931-50.445-46.545-98.915-82.176-144.24-37.018-46.684-62.515-99.979-52.531-148.353,10.24-49.088,52.122-92.5,93.773-136.56,38.4-40.713,77.261-79.773,101.99-122.457,31.188-53.566,39.3-112.848,23.245-169.892" transform="translate(83.6 124.976)"/><path class="e" d="M-15,1031.309c49.28-96.862,127.309-198.4,259.994-235.825,95.36-26.872,208.1-14.572,293.581,25.558C607,853.154,659.918,898.786,727.554,922.448c85.043,29.5,186.547,20.751,279.04-13.014,100.89-36.882,174.08-103.829,277.069-129.236,76.109-18.779,161.587-12.356,239.872,5.878,100.352,23.4,170.752,70.965,266.24,88.749,83.584,15.342,163.84,12.263,221.235-16.788,58.214-29.52,89.114-94.4,72.269-153.555-14.968-50.882-40.636-99.747-76.083-144.841-34.893-44.806-62.643-94.533-56.883-141.78,6.042-49.557,45.44-94.364,86.861-137.724,39.014-40.844,80.537-79.266,107.98-122.194C2179.919,103.65,2190.97,42.8,2176.795-16.27" transform="translate(85.956 127.873)"/><path class="e" d="M-13.47,1031.631c52.582-98.683,130.253-202.812,265.421-241.778,95.9-27.7,210.125-16.112,295.475,25.652,67.558,33.051,117.939,81.106,185.344,108.11,84.685,33.8,190.771,30.253,282.906-3.117,102.554-36.788,174.234-108.523,278.861-136.5,77.9-20.845,165.99-14.742,246.579,3.1,95.258,21.089,169.293,61.858,261.35,79.247,78.771,14.779,158.311,14.779,217.165-13.427s90.112-89.519,79.539-145.874c-9.4-50.027-34.969-99.528-70.016-145.48-32.794-42.91-62.9-88.993-61.235-135.114,1.818-50.008,38.861-96.185,79.923-138.964,39.68-40.919,83.84-78.871,113.971-121.95,38.368-55,52.374-117.412,40.064-178.531" transform="translate(88.343 130.744)"/><path class="e" d="M-11.95,1031.929c55.91-100.561,133.3-206.962,270.874-247.881,96.486-28.431,212.173-17.671,297.37,25.765,66.56,33.99,114.56,84.505,181.76,114.814,84.3,38.046,194.867,39.586,286.873,6.8,104.09-36.882,174.362-113.218,280.678-143.771,79.667-22.891,170.317-16.995,253.235.319,90.291,18.779,167.834,52.581,256.486,69.764,74.01,14.216,152.73,17.258,213.146-10.066,59.827-27.06,91.366-84.5,86.759-138.231-4.352-50.816-29.8-100.467-64-146.081-30.72-41.032-63.257-83.4-65.587-128.485-2.56-50.365,32.128-98.063,73.011-140.034,40.192-41.088,87.04-78.252,119.962-121.687,41.965-55.682,58.94-119.649,48.512-182.812" transform="translate(90.714 133.676)"/><path class="e" d="M-10.43,1032.168C48.834,929.823,125.788,820.812,265.9,778.39c97-29.351,214.246-19.23,299.264,25.877,65.843,34.91,111.155,87.791,178.15,121.481,83.942,42.309,198.963,48.919,290.867,16.713,105.6-37.013,174.49-117.932,282.47-151.039,81.434-24.976,174.669-19.136,259.942-2.5s166.4,43.511,251.6,60.3c69.12,13.634,147.149,19.737,209.1-6.7,60.646-25.877,92.9-79.115,94.029-130.569s-24.7-101.406-57.856-146.719c-28.6-39.117-63.718-77.67-69.939-121.819-7.117-50.7,25.4-99.96,66.073-141.2s90.419-77.726,125.952-121.443c45.52-56.377,65.422-121.912,56.832-187.131" transform="translate(93.085 136.573)"/></g><g transform="translate(922.957 -541.148)"><path class="e" d="M425.733,1550.075c-74.6-33.8-78.106-116.786-34.355-172.54S511.365,1284.88,579.1,1244.017s132.864-93.406,138.445-157.611c7.168-82.083-85.376-156.616-73.523-238.492,9.242-63.735,80.23-111.978,154.829-138.964,42.163-15.23,90.906-20.563,134.579-33.145,198.093-56.881,374.118,35.191,497.485-39.6,133.555-81.087,126.745-171.845,102.067-216.558-31.616-57.294-137.5-184.164-346.01-149.217-84.685,14.2-171.52,26.29-258.33,22.328-129.843-5.99-256.1-80.956-264.4-176.165-5.555-65.257,40.525-133.142,8.346-194.136C651.013-118.559,596.332-146.878,538.015-157s-119.834-4.037-177.485,7.962" transform="translate(-360.53 399.116)"/><path class="e" d="M427.665,1553.27c-74.445-36.9-81.2-121.33-37.3-179.432,42.88-56.712,119.808-94.5,189-134.532,68.378-39.548,134.3-89.35,143.36-151.32,11.443-79.209-72.909-153.123-60.493-234.473,10.086-64.693,75.955-114.551,148.224-144.484,41.523-17.22,90.675-25.183,135.68-38.722,191.283-57.313,363.366,30.14,484.25-43,129.946-78.7,126.285-167.132,103.117-212.2-29.389-57.05-131.814-178.906-333.338-148.56-82.97,12.525-169.139,22.741-255.078,18.535-126.541-6.009-248.985-77.632-260.045-169.385-7.68-63.51,34.227-130.476,2.765-190.906-21.427-41.314-73.958-70.59-130.56-82.74-57.114-12.244-118.374-9.258-176.794.469" transform="translate(-356.548 395.695)"/><path class="e" d="M431.124,1556.942c-74.24-39.962-84.326-125.819-40.269-186.305,42.01-57.651,119.629-96.392,190.31-135.565,68.992-38.234,135.68-85.312,148.2-145.029,15.744-76.318-60.672-149.63-47.488-230.548,10.726-65.726,71.68-117.105,141.645-150.062,40.96-19.267,90.445-29.8,137.037-44.281,184.678-57.426,352.717,25.239,471.04-46.177,126.362-76.317,125.824-162.4,104.141-207.713-27.136-56.787-126.182-173.742-320.64-147.9-81.51,10.817-167.014,19.06-252.032,14.591-123.136-6.122-241.92-74.421-255.718-162.756-9.651-61.782,28.16-127.809-2.79-187.676-21.274-41.783-71.68-71.848-126.541-86.007-55.962-14.441-116.89-14.516-176.128-7.042" transform="translate(-354.171 391.798)"/><path class="e" d="M434.625,1561.046c-74.24-43-87.4-130.344-43.213-193.178,41.19-58.552,119.424-98.251,191.59-136.56,69.581-36.975,137.165-81.275,153.088-138.757,20.045-73.444-48.307-146.156-34.458-226.623,11.469-66.609,67.456-119.772,135.04-155.639,40.243-21.352,90.189-34.4,138.24-49.858,178.15-57.313,342.067,20.337,457.984-49.313,122.752-73.951,125.44-157.743,105.19-203.319-24.96-56.524-120.653-168.634-307.993-147.245-79.974,9.127-164.659,15.286-248.858,10.742-119.757-6.479-234.88-71.266-251.392-156.109C718.171,55.093,751.451-9.92,721.5-69.261c-21.274-42.121-69.453-73.238-122.522-89.275-54.81-16.657-115.43-19.774-175.437-14.554" transform="translate(-351.86 387.45)"/><path class="e" d="M438.123,1565.635c-74.035-46.065-90.47-134.851-46.08-200.051,40.371-59.454,119.219-100.167,192.9-137.593,70.17-35.68,138.6-77.238,157.926-132.467,24.371-70.552-35.84-142.719-21.427-222.68,12.237-67.6,63.181-122.551,128.486-161.235,39.6-23.474,89.907-38.966,139.443-55.435,171.7-57.05,331.443,15.436,444.877-52.468,119.142-71.548,124.851-152.916,106.24-198.887-22.784-56.243-115.2-163.62-295.322-146.607-78.515,7.512-162.355,11.643-245.76,6.873-116.378-6.648-227.84-68.092-247.014-149.461-13.747-58.365,15.36-122.4-13.926-181.2-21.146-42.5-67.226-74.458-118.5-92.542-53.76-18.91-113.971-25.013-174.771-22.065" transform="translate(-349.521 382.636)"/><path class="e" d="M441.664,1570.571c-73.882-49.126-93.491-139.34-49.126-206.925,39.6-60.355,118.989-102.063,194.176-138.626,70.758-34.365,140.186-73.143,162.816-126.194,28.851-67.6-23.5-139.152-8.4-218.737,13-68.524,58.88-125.368,121.882-166.813,38.938-25.615,89.6-43.53,140.8-61.013,165.325-56.618,320.794,10.535,431.744-55.623,115.533-69.163,124.339-148.165,107.264-194.455-20.48-55.961-109.9-158.719-282.624-145.968-77.107,5.634-160.051,8-242.586,3C904.589,252.406,796.633,194.267,774.925,116.5,759.1,59.81,783.987-3.23,755.417-61.464,734.4-104.355,690.47-137.293,640.96-157.236c-52.557-21.22-112.512-30.272-174.08-29.577" transform="translate(-347.251 377.399)"/><path class="e" d="M445.244,1575.995c-73.754-52.187-96.538-143.828-52.1-213.816,38.835-61.219,118.733-103.979,195.482-139.621,71.27-33.107,141.619-69.106,167.68-119.922,33.28-64.712-11.085-135.659,4.608-214.811,13.8-69.482,54.528-128.241,115.2-172.39,38.4-27.812,89.421-48.074,141.9-66.571,159-56.092,310.144,5.634,418.611-58.778,111.949-66.8,123.8-143.414,108.314-190.061-18.483-55.642-104.653-153.987-269.952-145.292a2095.474,2095.474,0,0,1-239.437-.864c-109.67-6.986-214.144-61.858-238.336-136.147C779.3,62.681,800.009.654,772.131-57.034c-20.889-43.191-62.72-77.219-110.438-99.059-51.43-23.549-111.027-35.53-173.414-37.107" transform="translate(-344.995 371.825)"/><path class="e" d="M448.859,1581.326c-73.6-55.228-99.507-148.353-55.066-220.689,38.144-62.1,118.5-105.913,196.813-140.654,71.808-31.924,143.053-65.05,172.544-113.631,37.5-61.8,1.357-132.165,17.638-210.886,14.566-70.4,50.125-131.152,108.7-177.968,37.581-30.046,89.19-52.581,143.129-72.148,152.755-55.416,299.52.732,405.479-61.97,108.339-64.412,123.264-138.645,109.363-185.629-16.384-55.341-101.785-164.691-257.305-144.6-73.344,9.389-155.418.695-236.262-4.732-106.317-7.117-207.36-58.74-234.01-129.48-20.1-53.407-3.456-114.4-30.72-171.526C769.079-94,731.864-129.771,682.715-154.911c-50.278-25.915-109.542-40.769-172.723-44.619" transform="translate(-342.696 366.268)"/><path class="e" d="M452.413,1586.676c-73.472-58.214-102.4-152.766-58.035-227.581C431.805,1296.2,512.6,1251.266,592.6,1217.446c72.32-30.628,144.512-61.013,177.434-107.359,41.8-58.909,13.8-128.691,30.72-206.943,15.36-71.359,45.67-134.137,102.118-183.563,36.839-32.281,88.934-57.088,144.333-77.726,146.56-54.628,288.845-4.169,392.345-65.088,104.73-61.97,122.675-133.856,110.387-181.2-14.285-55.041-96.358-161.5-244.608-144.015-72.243,8.507-153.114-2.93-233.114-8.582-102.963-7.267-200.73-55.661-229.683-122.851-22.3-51.773-9.7-111.715-36.2-168.277-19.606-41.679-55.155-78.337-102.4-105.594-49.872-28.469-109.334-46.484-172.057-52.13" transform="translate(-340.516 360.693)"/><path class="e" d="M456.047,1592.041c-73.293-61.331-105.421-157.2-60.979-234.436,36.736-63.848,117.914-109.8,199.4-142.719,72.832-29.408,145.92-56.957,182.272-101.068,46.08-56.017,26.266-125.2,43.7-203.019,16.179-72.317,41.191-137.086,95.539-189.141,36.1-34.534,88.729-61.557,145.561-83.3,140.442-53.745,278.2-9.051,379.213-68.223,101.12-59.642,122.112-129.086,111.437-176.8-12.237-54.7-90.854-158.062-231.936-143.358-71.271,7.512-150.784-6.573-229.965-12.45-99.609-7.4-194.15-52.581-225.28-116.185-24.6-50.177-15.949-109.049-41.779-165.047-19.163-42.026-53.109-79.6-98.406-108.917-48.59-31.027-107.872-51.659-171.366-59.642" transform="translate(-338.338 355.083)"/><path class="e" d="M459.716,1597.32c-73.165-64.393-108.365-161.649-64-241.327,36.045-64.656,117.606-111.753,200.678-143.7,73.318-28.168,147.379-52.881,187.161-94.777,50.432-53.106,38.758-121.687,56.73-199.056,17-73.237,36.634-140.146,88.934-194.718,35.3-36.825,88.525-65.989,146.79-88.88,134.374-52.769,267.546-13.953,366.08-71.36,97.536-57.257,121.5-124.3,112.461-172.371-10.24-54.459-85.248-154.494-219.238-142.719-70.477,6.2-148.48-10.2-226.816-16.319-96.256-7.512-187.674-49.482-221-109.537C860.56,73.978,865.322,16.177,840.157-39.258,819.805-84.046,786.6-122.411,745.77-151.406c-47.289-33.58-106.4-56.828-170.7-67.134" transform="translate(-336.17 349.579)"/><path class="e" d="M463.355,1602.678c-73.011-67.453-111.258-166.1-66.893-248.2,35.379-65.5,117.3-113.744,201.984-144.71,73.8-27,148.787-48.825,192-88.505,54.733-50.214,51.2-118.194,69.734-195.168,17.92-74.2,32.051-143.189,82.355-200.3,34.458-39.116,88.371-70.4,148.019-94.439,128.358-51.717,256.9-18.779,352.973-74.552,93.9-54.872,120.832-119.509,113.485-167.939-8.192-54.064-79.744-132.2-206.592-142.062-69.683-5.427-146.15-13.821-223.641-20.187-92.9-7.643-181.325-46.384-216.653-102.871C880.737,76.8,881.71,20.033,857.185-34.839a304.855,304.855,0,0,0-90.342-115.415C720.9-186.4,661.965-212.277,596.833-224.9" transform="translate(-333.998 343.996)"/><path class="e" d="M467.044,1608.019c-72.883-70.514-114.15-170.531-69.862-255.092,34.739-66.346,116.966-115.734,203.29-145.724,74.24-25.8,150.2-44.806,196.89-82.214,58.88-47.323,63.718-114.7,82.765-191.225,18.688-75.115,27.392-146.25,75.776-205.892,33.587-41.426,88.192-74.8,149.222-100.016,122.394-50.7,246.4-23.624,339.84-77.707,90.445-52.337,120.192-114.72,114.534-163.526-6.246-53.708-74.931-128.391-193.92-141.4-68.582-7.512-143.846-17.427-220.493-24.056-89.6-7.737-175.078-43.191-212.326-96.223C900.887,79.607,898.122,23.89,874.263-30.4c-20.019-45.558-48.794-86.27-86.323-118.682C743.37-187.789,684.6-216.3,618.6-231.24" transform="translate(-331.85 338.43)"/><path class="e" d="M470.735,1613.36C398.005,1539.8,353.717,1438.4,397.9,1351.395c34.15-67.191,116.659-117.763,204.6-146.757,74.726-24.638,151.629-40.75,201.754-75.942,63.309-44.412,76.237-111.19,95.8-187.282s22.733-149.311,69.12-211.469c32.691-43.736,88.064-79.134,150.451-105.594,116.48-49.407,235.75-28.525,326.707-80.749,86.835-49.971,119.5-109.95,115.558-159.113-4.275-53.388-70.093-124.842-181.222-140.842-67.507-9.652-141.542-21.014-217.369-27.905-86.17-7.831-168.96-40.112-207.974-89.575-34.458-43.7-40.832-98.383-64-152.109-19.866-45.952-46.362-87.829-82.3-121.95-43.183-41.26-101.787-72.421-168.678-89.688" transform="translate(-329.73 332.864)"/><path class="e" d="M474.451,1618.8c-72.6-76.618-119.859-179.395-75.8-268.838,33.536-68.036,116.3-119.809,205.9-147.771,75.187-23.493,153.037-36.713,206.618-69.67,67.584-41.539,88.755-107.678,108.826-183.357,20.48-76.993,17.92-152.353,62.592-217.046,31.744-46.046,87.987-83.435,151.654-111.171,110.643-48.168,225.126-33.426,313.6-84,83.226-47.586,118.809-105.162,116.608-154.682-2.355-53.069-65.229-121.48-168.576-140.109-66.381-12.075-139.213-24.713-214.2-31.886-82.842-7.906-162.918-36.9-203.622-82.909C940.883,85.358,931,31.594,908.422-21.513c-19.712-46.327-43.9-89.406-78.285-125.218-41.759-43.8-100.188-77.612-167.987-97.2" transform="translate(-327.609 327.289)"/><path class="e" d="M478.161,1624.03c-72.448-79.66-122.675-183.807-78.746-275.711,32.922-68.862,115.968-121.837,207.181-148.785,75.648-22.347,154.445-32.675,211.507-63.379,71.859-38.666,101.274-104.185,121.83-179.413,21.325-77.989,13.235-155.433,56.013-222.642,30.72-48.356,87.936-87.7,152.883-116.729,104.96-46.947,214.477-38.346,300.467-87.172,79.616-45.2,118.067-100.354,117.76-150.231-.461-52.712-60.314-118.307-155.9-139.452-65.229-14.4-136.909-28.168-211.046-35.68-79.36-7.981-157-33.671-199.3-76.261-40.064-40.318-53.35-93.087-75.29-145.649-19.533-46.722-41.421-91-74.24-128.485C810.966-191.906,752.7-228.367,683.959-250.27" transform="translate(-325.508 321.724)"/><path class="e" d="M481.893,1629.371c-72.32-82.721-125.44-188.24-81.715-282.585,32.333-69.689,115.61-123.941,208.486-149.818,76.083-21.2,155.853-28.638,216.371-57.088,76.134-35.793,113.818-100.673,134.861-175.489,22.2-78.871,8.422-158.475,49.408-228.22,29.8-50.7,87.936-91.9,154.112-122.307,99.1-45.539,203.8-43.191,287.334-90.307,76.007-42.835,117.325-95.584,118.682-145.856,1.434-52.393-55.219-115.415-143.206-138.813-64-17.014-134.6-31.774-207.9-39.436-76.134-8.113-151.168-30.4-194.841-69.689-42.957-38.44-59.546-90.4-80.9-142.4-19.328-47.116-38.886-92.58-70.221-131.753-38.859-48.876-96.952-87.995-166.656-112.223" transform="translate(-323.403 316.158)"/><path class="e" d="M485.662,1634.711c-72.192-85.782-128.282-192.634-84.685-289.476,31.77-70.515,115.2-125.988,209.766-150.813,76.544-20.112,157.235-24.638,221.235-50.816,80.307-33.032,126.362-97.162,147.866-171.564,23.04-79.848,3.61-161.5,42.854-233.8,28.774-52.975,87.987-96.054,155.315-127.884,93.389-44.149,193.024-48.262,274.2-93.462,72.294-40.562,116.557-90.758,119.757-141.461,3.277-52.093-49.971-112.673-130.56-138.175a1080.3,1080.3,0,0,0-204.8-43.36c-72.73-8.131-145.332-26.91-190.541-62.928C1000.247,94.45,980.459,43.221,959.723-8.2c-19.149-47.511-36.352-94.157-66.2-135.02-37.382-51.392-95.292-93.172-165.965-119.734" transform="translate(-321.335 310.592)"/><path class="e" d="M489.418,1640.1c-72.038-88.843-131.046-197.066-87.629-296.349,31.181-71.36,114.867-128.109,211.072-151.846,76.979-19,158.72-20.657,226.1-44.525,84.634-30.14,138.931-93.669,160.922-167.639,24.013-80.749-1.28-164.56,36.249-239.374,27.7-55.285,88.167-100.167,156.519-133.462,87.731-42.722,182.374-53.163,261.12-96.617,68.659-38.177,115.738-86.026,120.755-137.086,5.12-51.773-44.467-110.082-117.76-137.5-63.444-23.323-131.449-39.262-201.574-47.248-69.479-8.131-139.674-23.4-186.266-56.337-48.9-34.516-71.68-85.106-91.93-135.94-18.944-47.9-33.766-95.772-62.182-138.288-35.908-53.9-93.641-98.339-165.3-127.246" transform="translate(-319.255 304.974)"/><path class="e" d="M493.188,1645.4c-71.91-91.885-133.811-201.478-90.6-303.241,30.72-72.167,114.509-130.231,212.48-152.86,77.414-17.9,160.051-16.619,230.963-38.234,88.934-27.267,151.68-90.138,173.927-163.7,25.165-81.688-6.144-167.6,29.67-244.971,26.675-57.595,88.346-104.129,157.773-138.964,82.125-41.313,171.725-58.083,247.936-99.772,64.973-35.868,114.918-81.406,121.7-132.654s-38.682-107.6-105.19-136.86c-58.88-25.971-127.719-42.4-198.426-51.116-66.15-8.131-133.965-19.774-181.888-49.651-51.994-32.356-77.849-82.458-97.485-132.692C975.415-47.646,962.871-96.6,935.863-140.864c-34.386-56.409-91.936-103.528-164.608-134.776" transform="translate(-317.214 299.452)"/><path class="e" d="M496.9,1650.715c-71.68-94.946-136.32-205.854-93.568-310.114,30.259-72.975,114.176-132.372,213.683-153.874,77.9-16.9,161.485-12.6,235.853-31.924,93.235-24.413,164.147-86.608,186.88-159.752,26.01-82.627-11.059-170.625,23.04-250.548,25.6-59.9,88.653-108.035,159-144.6,76.6-39.811,161.075-62.966,234.8-102.927,61.44-33.408,114.048-76.524,122.88-128.166,8.7-51.172-32.486-105.162-92.518-136.222-56.73-29.351-125.44-45.9-195.277-54.966-62.822-8.15-128.23-16.075-177.613-43C1058.95,104.575,1030,54.83,1011.027,5.16c-18.483-48.712-28.57-98.852-54.17-144.841-32.863-58.88-90.194-108.662-163.84-142.269" transform="translate(-315.116 293.912)"/><path class="e" d="M500.757,1656.082c-71.68-98.007-139.238-210.323-96.538-317.006,29.568-73.839,113.818-134.532,215.04-154.888,78.336-15.774,162.918-8.544,240.64-25.689,97.536-21.483,176.64-83.1,199.961-155.865,26.854-83.566-15.974-173.629,16.512-256.125,24.474-62.2,89.088-111.847,160.2-150.231s150.4-67.773,221.7-105.988c57.856-31.023,113.152-71.773,123.878-123.753,10.5-50.891-25.856-102.664-79.821-135.565S1379.3,181.6,1310.177,172.138c-59.494-8.15-122.47-12.225-173.261-36.337C1078.651,108.158,1046.6,58.657,1028.3,9.569s-25.958-100.392-50.15-148.109C946.773-199.909,889.6-252.365,814.894-288.32" transform="translate(-313.134 288.32)"/></g></g></g></g></g></g></svg>