<svg xmlns="http://www.w3.org/2000/svg" width="9.646" height="8.536" viewBox="0 0 9.646 8.536"><defs><style>.a{stroke:#000;stroke-width:0.5px;}</style></defs><g transform="translate(-15.75 -89.717)"><g transform="translate(16 90)"><g transform="translate(0 0)"><path class="a" d="M117.836,3.782,121.624.091a.323.323,0,0,1,.449,0,.305.305,0,0,1,0,.439L118.509,4l3.563,3.472a.305.305,0,0,1,0,.439.323.323,0,0,1-.449,0l-3.788-3.691a.305.305,0,0,1,0-.439Z" transform="translate(-117.742 0)"/></g></g><g transform="translate(20.723 90)"><g transform="translate(0 0)"><path class="a" d="M117.836,3.782,121.624.091a.323.323,0,0,1,.449,0,.305.305,0,0,1,0,.439L118.509,4l3.563,3.472a.305.305,0,0,1,0,.439.323.323,0,0,1-.449,0l-3.788-3.691a.305.305,0,0,1,0-.439Z" transform="translate(-117.742 0)"/></g></g></g></svg>