<svg xmlns="http://www.w3.org/2000/svg" xmlns:xlink="http://www.w3.org/1999/xlink" width="418" height="1055" viewBox="0 0 418 1055"><defs><style>.a,.e{fill:none;stroke:#fff;}.b{fill:#f6f6f6;}.c{isolation:isolate;}.d{clip-path:url(#a);}.e{stroke-miterlimit:10;}</style><clipPath id="a"><rect class="a" width="418" height="1055"/></clipPath></defs><g transform="translate(0 -4016)"><rect class="b" width="418" height="1055" transform="translate(0 4016)"/><g class="c" transform="translate(0 4016)"><g transform="translate(0 0)"><g class="d"><g transform="translate(-85.96 -341.808)"><path class="e" d="M169.253-52.3Q164.2,29.5,156.605,108.578c-2.228,23.383-4.745,47.062-9.083,65.743-11.1,47.757-30.519,49.233-47.093,38.86-15.285-9.568-30.215-25.989-44.475-48.917-14.112-22.687-27.762-51.974-42.883-61.589s-32.708,5.9-40.855,55.011c-4.845,29.266-5.619,66.291-3.726,100.09s6.237,64.878,11.055,94.207C-14.937,385.55-8.532,419.56-7.7,458.968c.858,40.82-5.1,82.569-14.586,102.22-13.494,27.959-30.012,10.416-45.149,0-19.225-13.262-39.847-13.157-57.413,19.293s-31.143,102.937-29.338,176.608" transform="translate(154.349 283.834)"/><path class="e" d="M166.827-57.53c-3.271,53.31-7.419,105.794-12.419,157.146C152.18,122.43,149.724,145.5,145.5,163.8c-10.81,46.766-29.6,49.339-45.717,40.441a81.869,81.869,0,0,1-11.417-7.675c-10.907-8.633-21.591-20.9-31.928-36.646-13.789-21.085-27.155-48.5-41.936-57.288s-31.444,7.274-40.053,53.007a401.958,401.958,0,0,0-6.382,55.727c-.634,13.819-.761,27.9-.379,41.854q.247,9.724.785,19.293c1.481,25.808,4.634,51.068,8.081,75.083.34,2.383.685,4.744,1.03,7.127,5.391,36.835,11.083,74.514,11.395,115.735.3,39.682-5.229,80.123-14.48,99.416-13.149,27.579-29.182,11.786-43.824,2.973-1.153-.7-2.311-1.349-3.475-1.919-17.576-8.9-35.955-5.271-51.637,25.429-16.708,32.724-29.489,101.693-27.467,173.276" transform="translate(153.361 278.036)"/><path class="e" d="M164.433-62.76c-3.186,52.084-7.262,103.329-12.2,153.414-2.189,22.245-4.622,44.742-8.744,62.643-10.5,45.754-28.687,49.4-44.342,41.98a74.413,74.413,0,0,1-11.1-6.6c-10.611-7.557-21.025-18.649-31.121-33.146C43.454,136.2,30.372,110.621,15.942,102.588s-30.274,8.666-39.235,50.983a409.043,409.043,0,0,0-8.148,53.345c-1.094,13.531-1.657,27.6-1.671,41.748-.01,6.732.1,13.458.323,20.136.936,27.284,4.066,54.821,7.446,80.945.34,2.593.674,5.166,1.014,7.738,5.263,40.061,10.258,81.325,10.025,124.4-.195,38.48-5.363,77.55-14.357,96.653C-41.471,605.7-57,591.653-71.154,584.505c-1.114-.569-2.228-1.1-3.342-1.56-16.975-6.958-34.562-1.687-49.449,29.287-15.878,33.019-27.846,100.449-25.618,169.945" transform="translate(152.347 272.239)"/><path class="e" d="M162-68c-3.1,50.861-7.105,100.874-11.979,149.7-2.166,21.675-4.567,43.562-8.577,61.146-10.264,44.7-27.773,49.444-42.972,43.477a63.139,63.139,0,0,1-10.787-5.5c-10.312-6.454-20.454-16.339-30.307-29.54-13.143-17.648-25.941-41.369-40.031-48.622s-29.194,9.931-38.427,48.98c-4.021,16.994-7.7,32.091-9.908,50.92-1.568,13.149-2.578,27.153-2.991,41.5-.2,7-.253,14.051-.162,21.085.39,28.76,3.5,58.679,6.817,86.828.329,2.783.657,5.566.991,8.434,5.135,43.414,9.468,87.987,8.682,133.236-.635,37.194-5.5,75.041-14.246,93.849-12.447,26.778-27.506,14.486-41.167,8.961-1.08-.422-2.161-.822-3.241-1.16-16.368-5.039-33.17,1.876-47.266,33.124-15.037,33.314-26.175,99.1-23.725,166.571" transform="translate(151.376 266.43)"/><path class="e" d="M159.565-73.21c-3.019,49.62-6.949,98.381-11.762,145.929-2.133,21.085-4.511,42.339-8.409,59.5-9.952,43.814-26.855,49.634-41.591,45.143a55.562,55.562,0,0,1-10.47-4.407c-10.022-5.427-19.9-14.175-29.517-26.145-12.809-15.982-25.334-37.953-39.073-44.278s-28.2,11.027-37.6,46.935c-4.455,16.868-8.816,30.257-11.7,48.5a407.033,407.033,0,0,0-4.3,41.558c-.382,7.181-.59,14.478-.624,21.8-.162,30.236,2.929,62.5,6.182,92.774l.969,8.961c5.029,46.619,8.682,94.46,7.329,141.9-1.019,35.844-5.636,72.553-14.135,91.087C-47.229,622.424-61.8,611.882-74.969,608c-1.041-.316-2.083-.569-3.124-.78-15.755-3.163-31.767,5.44-45.071,36.9-14.185,33.588-24.5,97.961-21.848,163.282" transform="translate(150.398 260.655)"/><path class="e" d="M157.148-78.44c-2.935,48.394-6.793,95.918-11.545,142.2-2.105,20.537-4.455,41.221-8.231,57.984-9.674,42.781-25.947,49.7-40.226,46.682a50.627,50.627,0,0,1-10.153-3.331c-9.721-4.348-19.322-11.925-28.692-22.645-12.5-14.3-24.727-34.326-38.127-40.061s-27.289,12.061-36.8,44.974c-4.89,16.868-9.935,28.422-13.433,46.113a353.473,353.473,0,0,0-5.569,41.453c-.57,7.375-.943,14.947-1.114,22.6-.707,31.627,2.361,66.291,5.569,98.572.312,3.2.629,6.326.941,9.594,4.89,49.95,7.908,101,5.97,150.694-1.348,34.558-5.764,70.065-14.018,88.325-11.8,26.04-25.874,17.248-38.533,14.991q-1.5-.253-3-.38c-15.159-1.181-30.385,9-42.883,40.8-13.338,33.883-22.884,96.716-19.971,159.95" transform="translate(149.406 254.858)"/><path class="e" d="M154.649-83.67C151.8-36.5,148.009,9.786,143.316,54.795c-2.083,19.989-4.389,40.061-8.064,56.444-9.39,41.833-25.033,49.824-38.851,48.285a45.838,45.838,0,0,1-9.841-2.235C77.135,154.01,67.8,147.6,58.675,138.144,46.5,125.493,34.555,107.36,21.507,102.468s-26.442,12.82-35.994,42.992c-5.363,16.868-11.06,26.5-15.2,43.6a303.821,303.821,0,0,0-6.878,41.369c-.761,7.561-1.3,15.417-1.6,23.425-1.253,33.188,1.8,70.107,4.918,104.56q.468,5.1.924,10.205c4.762,53.219,7.179,107.407,4.611,159.444-1.637,33.209-5.9,67.472-13.923,85.521-11.395,25.6-24.994,18.534-37.185,17.943h-2.885c-14.558.759-28.993,12.651-40.711,44.637-12.5,34.179-21.235,95.473-18.105,156.619" transform="translate(148.509 249.06)"/><path class="e" d="M152.14-88.9c-2.759,45.946-6.47,91-11.1,134.733-2.049,19.419-4.327,38.881-7.9,54.821-9.1,40.842-24.114,49.908-37.475,49.845a40.049,40.049,0,0,1-9.518-1.16c-9.13-2.187-18.191-7.422-27.077-15.645-11.851-10.922-23.513-27.242-36.2-31.353s-27.1,7.591-35.2,40.968c-6.544,12.63-12.18,24.817-16.953,41.305a262.208,262.208,0,0,0-8.187,41.263c-.949,7.745-1.651,15.893-2.088,24.269-1.8,34.643,1.231,73.8,4.288,110.3q.457,5.419.9,10.838c4.634,56.486,6.483,113.859,3.252,168.173-1.894,31.88-6.015,65.131-13.812,82.758-11.049,25.2-24.159,19.883-35.86,20.937a15.994,15.994,0,0,0-2.785.379c-13.951,2.678-27.606,16.13-38.528,48.5-11.645,34.474-19.581,94.228-16.229,153.288" transform="translate(147.592 243.263)"/><path class="e" d="M149.676-94.13C147-49.41,143.362-5.6,138.794,36.871c-2.022,18.829-4.266,37.721-7.724,53.345-8.816,39.787-23.2,49.971-36.1,51.363a42,42,0,0,1-9.206,0c-8.833-1.122-17.624-5.179-26.27-12.124-11.528-9.341-22.906-23.8-35.264-27.221s-26.275,7.907-34.367,39.028c-7.073,11.934-13.31,22.94-18.718,38.986-3.881,11.079-7.106,25.114-9.468,41.2-1.136,7.908-2,16.333-2.573,25.07-2.345,36.119.668,77.7,3.659,116.178q.446,5.693.88,11.449c4.505,59.755,5.82,120.184,1.894,176.9-2.127,30.447-6.176,62.475-13.695,79.891-10.7,24.8-23.318,21.233-34.529,23.91-.885.211-1.765.485-2.651.78-13.366,4.618-26.214,19.693-36.344,52.333-10.8,34.727-17.927,92.964-14.357,149.935" transform="translate(146.648 237.465)"/><path class="e" d="M147.162-99.36c-2.588,43.5-6.154,86.074-10.659,127.269-1.994,18.26-4.216,36.54-7.557,51.785-8.532,38.881-22.288,50.056-34.729,52.923a37.047,37.047,0,0,1-8.911,1.012c-8.538-.041-17.058-2.926-25.462-8.624-11.205-7.569-22.277-20.2-34.317-22.73S.086,110.351-8,139.216c-7.6,11.259-14.43,21.085-20.478,36.477-4.336,10.6-8.016,24.614-10.787,41.095-1.321,8.07-2.348,16.78-3.052,25.892-2.89,37.594.1,81.493,3.03,122.04q.434,6.009.858,12.061c4.377,63.044,5.2,126.51.557,185.674C-40.2,591.678-44.2,622.5-51.44,639.646c-10.37,24.416-22.5,22.6-33.22,26.925-.847.337-1.671.717-2.534,1.16-12.742,6.536-24.822,23.193-34.161,56.17-9.952,35.022-16.273,91.719-12.481,146.6" transform="translate(145.754 231.668)"/><path class="e" d="M144.633-104.59c-2.5,42.274-6,83.617-10.442,123.537-1.966,17.711-4.155,35.4-7.385,50.245-8.248,37.953-21.374,50.224-33.359,54.568a39.389,39.389,0,0,1-8.565,2.109c-8.242,1.02-16.492-.7-24.655-5.145-10.877-5.967-21.681-16.741-33.376-18.491S2.179,110.666-5.9,137.149c-8.12,10.543-15.549,19.293-22.243,34.073C-32.7,181.3-37.045,194.774-40.2,212.232c-1.5,8.231-2.7,17.224-3.536,26.715-3.436,39.07-.468,85.31,2.395,127.922q.426,6.325.841,12.651c4.255,66.312,4.617,132.983-.819,194.4-2.473,27.959-6.455,57.6-13.455,74.451C-64.8,672.369-76.419,672.305-86.65,678.294c-.808.464-1.615.97-2.417,1.539-12.141,8.434-23.43,26.82-31.973,60.008-9.111,35.317-14.625,90.475-10.581,143.378" transform="translate(144.875 225.871)"/><path class="e" d="M142.028-109.82c-2.42,41.051-5.845,81.159-10.231,119.8-1.938,17.142-4.093,34.221-7.212,48.706C116.621,95.589,104.124,109,92.6,114.819A40.2,40.2,0,0,1,84.348,118a37.325,37.325,0,0,1-23.836-1.708C49.93,112.078,39.427,103.159,28.1,102.189S4.263,110.771-3.835,135.1c-8.643,9.889-16.674,17.458-24,31.627-5.012,9.678-9.83,23.193-13.366,40.9-1.687,8.389-3.042,17.665-4.021,27.537C-49.2,275.76-46.266,324.319-43.47,369q.418,6.642.813,13.3c4.132,69.58,4.088,139.477-2.172,203.153C-47.452,612.107-51.4,640.53-58.2,657.145c-9.651,23.615-20.812,25.3-30.552,32.914-.763.612-1.532,1.244-2.295,1.94-11.534,10.395-22.037,30.383-29.79,63.845-8.265,35.612-12.971,89.231-8.738,139.941" transform="translate(144.072 220.073)"/><path class="e" d="M139.423-115C137.086-75.2,133.729-36.361,129.4.967c-1.9,16.573-4.032,33.04-7.045,47.146-7.674,35.844-19.542,50.414-30.63,57.688a42.477,42.477,0,0,1-7.93,4.217,36.1,36.1,0,0,1-23.04,1.877c-10.231-2.551-20.478-9.594-31.455-9.783S6.281,110.9-1.784,133c-9.161,9.235-17.794,15.561-25.763,29.245-5.452,9.3-10.732,22.624-14.675,40.82a271.262,271.262,0,0,0-4.5,28.359c-4.528,42.043-1.6,92.921,1.114,139.667q.407,6.916.791,13.916c4,72.849,3.6,146.055-3.531,211.882C-51.1,622.3-55.03,649.477-61.574,665.754c-9.3,23.193-19.971,26.652-29.221,35.844-.73.738-1.454,1.5-2.178,2.319-10.932,12.314-20.645,33.968-27.606,67.682-7.418,35.845-11.317,87.988-6.861,136.61" transform="translate(143.262 214.331)"/><path class="e" d="M136.773-120.28c-2.244,38.607-5.521,76.248-9.779,112.341-1.882,15.982-3.976,31.88-6.878,45.586-7.39,34.917-18.629,50.6-29.233,59.27a57.856,57.856,0,0,1-7.619,5.356c-7.353,4.243-14.79,6.042-22.227,5.377-9.913-.865-19.871-6.072-30.5-5.461S9.061,116.947.223,131.095c-9.156,14.759-18.935,13.79-27.528,26.841-5.892,8.9-11.64,22.139-15.972,40.715a261.137,261.137,0,0,0-5.012,29.182c-5.074,43.519-2.161,96.717.507,145.486q.39,7.253.769,14.548c3.9,76.138,3.169,152.739-4.89,220.612-2.851,24.184-6.811,50.056-13.088,66.059-8.955,22.814-19.136,28.085-27.9,38.9-.691.843-1.376,1.75-2.061,2.7-10.325,14.253-19.253,37.531-25.423,71.52-6.572,36.182-9.668,86.744-5.012,133.278" transform="translate(142.504 208.478)"/><path class="e" d="M134.068-125.5c-2.162,37.377-5.367,73.777-9.562,108.587-1.855,15.434-3.9,30.721-6.683,44.046-7.106,33.947-17.716,50.6-27.846,60.83a67.056,67.056,0,0,1-7.3,6.452c-7.072,5.323-14.254,8.286-21.464,8.856-9.585.822-19.264-2.53-29.55-1.139S10.855,116.576,2.151,129.016C-7.6,142.975-17.9,140.993-27.138,153.475c-6.315,8.413-12.553,21.591-17.259,40.462a254.716,254.716,0,0,0-5.463,30c-5.625,45.059-2.734,100.6-.128,151.474q.384,7.527.746,15.16c3.748,79.406,2.785,159.55-6.249,229.362-2.98,23.046-6.967,47.589-13,63.255-8.6,22.476-18.295,29.435-26.565,41.938-.652.991-1.3,2.109-1.944,3.1-9.724,16.172-17.86,41.094-23.235,75.358-5.731,36.477-8.02,85.5-3.119,129.946" transform="translate(141.801 202.692)"/><path class="e" d="M131.285-130.73c-2.076,36.159-5.21,71.328-9.345,104.855-1.821,14.759-3.854,29.519-6.533,42.507-6.822,32.935-16.8,50.6-26.487,62.39a79.208,79.208,0,0,1-6.984,7.527c-6.76,6.4-13.655,10.544-20.606,12.4-9.262,2.488-18.651.991-28.592,3.184S12.589,116.259,4.046,126.991c-10.359,12.883-21.174,10.036-31.065,21.928-6.767,8.118-13.45,21.3-18.568,40.525a247.628,247.628,0,0,0-5.948,30.826c-6.171,46.387-3.3,104.328-.763,157.294q.379,7.844.73,15.751c3.626,82.632,2.478,166.55-7.607,238.112-3.08,21.907-7.1,45.1-12.882,60.535C-80.31,714-89.516,722.641-97.3,736.852c-.613,1.118-1.225,2.277-1.827,3.479-9.122,18.112-16.474,44.658-21.051,79.2-4.884,36.772-6.366,84.34-1.242,126.615" transform="translate(141.175 196.895)"/><path class="e" d="M128.411-136c-1.99,34.965-5.051,68.931-9.122,101.208-1.724,14.427-3.848,28.118-6.338,40.842-6.538,31.965-15.889,50.794-25.117,63.972a102.089,102.089,0,0,1-6.683,8.624c-6.468,7.449-13.094,12.761-19.8,15.877-8.911,4.217-18.05,4.533-27.645,7.506S14.21,115.8,5.823,124.884C-5.115,136.713-16.476,133.212-27,144.43c-7.2,7.8-14.352,20.811-19.882,40.5a242.209,242.209,0,0,0-6.432,31.627c-6.7,48.053-3.848,108.145-1.364,163.176q.368,8.16.707,16.383c3.5,85.963,2.228,173.7-8.961,246.841-3.18,20.832-7.24,42.613-12.776,57.773C-83.641,722.368-92.345,732.7-99.63,748.6c-.557,1.265-1.147,2.551-1.71,3.858-8.515,20.052-15.081,48.242-18.868,83.054-4.038,37.067-4.712,83.011.629,123.284" transform="translate(140.641 191.053)"/><path class="e" d="M125.419-141.19c-1.909,33.685-4.9,66.357-8.911,97.286-1.715,13.877-3.791,27.072-6.2,39.387-6.237,30.974-14.959,50.9-23.725,65.532q-3.133,5.25-6.349,9.72c-6.174,8.528-12.532,15.011-19,19.377C52.619,95.973,43.8,98.187,34.547,101.94S15.762,115.266,7.475,122.772c-11.556,10.542-23.391,6.494-34.573,17.205-7.641,7.338-15.26,20.284-21.163,40.357a237.934,237.934,0,0,0-6.917,32.471c-7.24,49.423-4.455,111.94-2.022,169.038q.362,8.434.679,16.994c3.375,89.231,2,181.078-10.314,255.592-3.275,19.778-7.368,40.061-12.659,54.968-7.557,21.254-15.789,33.42-22.583,50.878-.557,1.37-1.069,2.8-1.593,4.217-7.855,21.535-13.7,51.974-16.68,86.912-3.2,37.32-3.063,81.746,2.5,119.931" transform="translate(140.219 185.3)"/><path class="e" d="M122.308-146.42c-1.818,32.463-4.737,63.9-8.682,93.533-1.7,13.324-3.714,26.028-6.026,37.953-5.965,30-14.057,51-22.366,67.113-1.977,3.859-3.993,7.443-6.031,10.8-5.878,9.6-11.963,17.249-18.189,22.877C52.721,93.4,44.184,97.448,35.273,102S17.2,114.822,9.02,120.832c-12.158,8.94-24.538,4.681-36.339,14.759-8.081,6.895-16.167,19.757-22.46,40.209a234.011,234.011,0,0,0-7.4,33.272c-7.8,50.9-5.012,115.735-2.651,174.9q.343,8.761.657,17.627c3.247,92.5,1.86,188.71-11.7,264.321-3.342,18.787-7.5,37.594-12.547,52.206C-90.6,738.979-98.343,752.874-104.641,772q-.741,2.235-1.47,4.618c-7.24,23.656-12.31,55.4-14.48,90.665-2.35,37.615-1.409,80.5,4.372,116.6" transform="translate(139.922 179.502)"/><path class="e" d="M118.972-151.65c-1.735,31.244-4.581,61.453-8.46,89.8-1.691,12.681-3.65,24.824-5.859,36.308C98.973,3.451,91.51,25.548,83.663,43.133,81.792,47.35,79.882,51.293,77.949,55c-5.584,10.678-11.4,19.51-17.387,26.4C52.6,90.616,44.339,96.52,35.779,101.854s-17.354,12.271-25.446,16.868c-12.748,7.211-25.657,2.8-38.1,12.356-8.515,6.536-17.07,19.335-23.758,40.061a231.148,231.148,0,0,0-7.88,34.2c-8.354,52.375-5.569,119.552-3.286,180.782.228,6.03.44,12.124.64,18.238,3.119,95.768,1.777,196.6-13.032,273.05a398.059,398.059,0,0,1-12.43,49.444c-6.856,20.453-14.112,36.119-19.932,56.93-.457,1.645-.908,3.31-1.353,5.018-6.646,25.8-10.958,58.917-12.313,94.587-1.5,37.953.245,79.259,6.249,113.268" transform="translate(139.85 173.705)"/><path class="e" d="M115.437-156.88c-1.652,30.028-4.427,59.01-8.242,86.069-1.675,12.08-3.575,23.692-5.686,34.748-5.4,28.022-12.252,51.173-19.62,70.234q-2.64,6.832-5.4,12.967a180.554,180.554,0,0,1-16.574,29.9c-7.75,10.747-15.723,19.034-23.836,24.775-8.17,6.072-16.6,11.681-24.632,14.759-13.321,5.208-26.777,1.012-39.864,9.994-8.955,6.136-17.972,18.85-25.061,40.061a229.547,229.547,0,0,0-8.337,35c-8.911,53.83-6.126,123.326-3.9,186.623q.326,9.488.618,18.976c2.991,99.1,1.749,204.777-14.391,281.8A450.813,450.813,0,0,1-91.8,735.667c-6.5,20.052-13.271,37.468-18.6,59.86-.418,1.771-.83,3.563-1.236,5.4-6.043,27.886-9.6,62.292-10.169,98.3-.657,38.206,1.9,78.015,8.125,109.937" transform="translate(139.976 167.907)"/><path class="e" d="M111.647-162.11C107.27-80.005,93.074-7.831,74.813,39.272S34.4,109.7,12.316,114.588c-13.878,3.057-27.9-.822-41.624,7.569s-27.651,31.627-35.2,75.737C-73.979,253.2-71.194,325.036-69.056,390.4c3.536,107.533,3.486,227.717-15.154,309.949-9.284,40.947-22.416,68.336-30.6,112.509-11.339,61.252-10.459,150.968,2.049,208.867" transform="translate(140.352 162.11)"/></g><g transform="translate(50.089 620.656)"><path class="e" d="M89.94,656.382q12.995-68.065,28.069-129.883c4.455-18.281,9.172-36.477,15.081-47.378,15.109-27.811,33.176-.8,47.4,33,13.121,31.173,25.217,68.141,36.033,110.127,10.7,41.58,20.311,88.557,33.281,119.51s30.77,42.444,43.3,8.982c7.457-19.9,11.946-52.944,13.644-86.87s.863-68.969-.59-103.063c-1.671-39.049-4.1-79.764-.852-117.338,3.375-38.9,13.127-68.695,23.881-72.954,15.3-6.072,28.748,34.263,41.646,66.017,16.379,40.357,35.414,70.4,54.923,66.143s39.229-49.423,45.082-120.015" transform="translate(-89.94 -210.625)"/><path class="e" d="M93.57,669.819c8.5-44.632,17.746-87.163,27.679-127.333,4.411-17.838,9.072-35.57,14.881-46.281,11.667-21.507,25.1-10.542,37.141,10.543a210.164,210.164,0,0,1,9.468,19.124c12.97,29.473,24.967,64.686,35.737,104.9,10.665,39.787,20.222,85.2,33.053,114.955,7.2,16.72,15.722,28.169,24.12,30.236,7.312,1.771,14.569-3.732,20.634-19.44,1.08-2.8,2.109-5.869,3.08-9.193,5.953-20.474,9.568-49.908,11.138-80.123.5-9.58.836-19.271,1.008-29.013.445-25.576-.078-51.447-.852-76.749-1.22-40.061-2.846-81.2.824-118.687s12.987-66.207,23.485-70.55c14.942-6.22,28.119,31.8,40.727,61.315,1,2.34,2,4.618,3.013,6.874,15.3,33.884,32.624,57.414,50.223,52.017,18.763-5.756,37.575-50.6,43.011-119.7" transform="translate(-91.548 -208.818)"/><path class="e" d="M97.2,688.641c8.343-43.867,17.461-85.549,27.289-124.76,4.366-17.416,8.977-34.664,14.68-45.206,11.461-21.085,24.621-11.3,36.473,8.434a191.762,191.762,0,0,1,9.345,17.922c12.815,27.779,24.709,61.245,35.431,99.689,10.615,37.953,20.144,81.873,32.858,110.591,7.468,16.868,16.217,28.844,24.872,31.417,7.518,2.108,15.037-2.973,21.336-18.787,1.123-2.819,2.192-5.941,3.2-9.341,6.2-20.853,9.908-51.173,11.612-82.231.534-9.934.906-19.982,1.114-30.088.557-26.272.256-52.881-.245-78.794-.769-41.2-1.587-82.59,2.5-120.058,3.9-35.57,12.859-63.7,23.1-68.146,14.575-6.326,27.484,29.308,39.808,56.613q1.453,3.163,2.941,6.326c14.942,31.227,31.705,52.08,48.6,45.269,18.011-7.232,35.921-51.953,40.939-119.341" transform="translate(-93.157 -212.564)"/><path class="e" d="M100.82,708.059c8.189-43.141,17.182-84.009,26.91-122.293,4.311-16.974,8.872-33.736,14.48-44.11,11.244-20.811,24.137-12.018,35.8,6.326a177.639,177.639,0,0,1,9.234,16.952C199.9,591,211.7,622.705,222.373,659.374c10.581,36.308,20.077,78.5,32.619,106.163,7.747,17.079,16.708,29.519,25.618,32.6,7.73,2.636,15.521-2.235,22.037-18.154,1.173-2.842,2.29-6.006,3.342-9.467,6.449-21.253,10.242-52.48,12.068-84.508q.858-15.317,1.247-30.932c.691-26.989.585-54.336.356-80.861-.323-42.275-.351-83.918,4.177-121.407,4.093-33.926,12.731-61.146,22.717-65.764,14.213-6.515,26.849,26.841,38.884,51.911q1.426,2.973,2.874,5.819c14.586,28.57,30.786,46.766,46.976,38.543,17.264-8.75,34.273-53.24,38.878-119.024" transform="translate(-94.761 -216.843)"/><path class="e" d="M104.45,727.542c8.029-42.351,16.895-82.337,26.52-119.615,4.266-16.552,8.777-32.85,14.279-43.034,11.038-20.453,23.663-12.651,35.13,4.322a154.3,154.3,0,0,1,9.094,15.582c12.508,24.363,24.2,54.313,34.824,89.21,10.526,34.537,20.01,75.084,32.4,101.693,8.025,17.248,17.214,30.194,26.376,33.736,7.931,3.078,15.995-1.455,22.739-17.5,1.209-2.878,2.361-6.084,3.447-9.594,6.683-21.654,10.581-53.788,12.525-86.765q.913-15.725,1.376-31.754c.813-27.685.913-55.791.964-82.948.122-43.329.869-85.2,5.848-122.757,4.283-32.26,12.6-58.7,22.327-63.36,13.851-6.642,26.214,24.374,37.971,47.209.924,1.813,1.86,3.563,2.785,5.292,14.224,25.913,29.868,41.432,45.355,31.8,16.507-10.247,32.624-54.484,36.807-118.666" transform="translate(-96.369 -221.166)"/><path class="e" d="M108.08,746.992c7.871-41.6,16.609-80.747,26.131-117.064,4.216-16.109,8.671-31.922,14.073-41.938,10.832-20.094,23.184-13.452,34.462,2.214a134.61,134.61,0,0,1,8.966,14.422c12.357,22.642,23.95,50.832,34.529,83.96,10.481,32.808,19.954,71.689,32.179,97.265,8.3,17.4,17.7,30.847,27.127,34.959,8.137,3.5,16.468-.717,23.435-16.868,1.252-2.91,2.447-6.159,3.575-9.72,6.945-22.034,10.916-55.074,12.982-89q.973-16.15,1.5-32.618c.941-28.38,1.231-57.224,1.57-84.993.557-44.426,2.072-86.448,7.53-124.106,4.455-30.636,12.464-56.212,21.937-60.978,13.483-6.789,25.579,21.907,37.046,42.507.908,1.623,1.816,3.226,2.734,4.765,13.862,23.193,28.96,36.118,43.729,25.07,15.761-11.765,30.976-55.77,34.741-118.35" transform="translate(-97.978 -225.456)"/><path class="e" d="M111.71,766.464c7.712-40.856,16.325-79.163,25.746-114.513,4.171-15.666,8.576-31.016,13.873-40.862,10.62-19.735,22.706-14.148,33.794.148a126.608,126.608,0,0,1,8.838,13.22c12.2,20.945,23.7,47.387,34.228,78.752,10.431,31.037,19.893,68.168,31.956,92.774,8.588,17.543,18.2,31.627,27.879,36.14,8.354,3.943,16.941,0,24.131-16.214a99.66,99.66,0,0,0,3.7-9.847c7.2-22.435,11.255-56.381,13.444-91.235.7-11.112,1.22-22.329,1.626-33.462,1.064-29.1,1.554-58.679,2.178-87.081.991-45.48,3.252-87.734,9.2-125.455,4.589-28.971,12.33-53.682,21.547-58.49,13.126-6.937,24.95,19.44,36.133,37.826.88,1.434,1.771,2.846,2.662,4.217,13.505,20.579,28.03,30.784,42.109,18.323,15.009-13.241,29.322-56.929,32.674-118.076" transform="translate(-99.586 -229.768)"/><path class="e" d="M115.34,785.9c7.554-40.093,16.04-77.549,25.356-111.919,4.121-15.244,8.476-30.109,13.672-39.787,10.414-19.377,22.232-14.886,33.125-1.961a107.3,107.3,0,0,1,8.716,12.06c12.047,19.243,23.437,43.922,33.922,73.5,10.387,29.287,19.843,64.689,31.744,88.367,8.877,17.669,18.7,32.176,28.637,37.32,8.543,4.365,17.415.78,24.833-15.582a97.577,97.577,0,0,0,3.82-9.994c7.446-22.814,11.589-57.646,13.923-93.47.73-11.386,1.292-22.9,1.743-34.305,1.192-29.793,1.888-60.113,2.785-89.126,1.437-46.577,4.416-89.021,10.877-126.826,4.689-27.411,12.2-51.194,21.163-56.17,12.759-7.085,24.309,16.868,35.214,33.124q1.287,1.9,2.59,3.69c13.143,17.922,27.111,25.471,40.488,11.6,14.257-14.759,27.668-58.3,30.63-117.675" transform="translate(-101.194 -234.069)"/><path class="e" d="M119,805.365C126.4,766.019,134.763,729.4,143.978,696c4.071-14.759,8.354-29.2,13.466-38.691,10.208-18.976,21.72-15.518,32.452-4.048a94.261,94.261,0,0,1,8.593,10.88c11.9,17.522,23.185,40.448,33.621,68.273,10.342,27.537,19.8,61.147,31.516,83.9,9.161,17.8,19.2,32.85,29.383,38.5,8.755,4.807,17.894,1.539,25.535-14.949a92.348,92.348,0,0,0,3.949-10.1c7.691-23.193,11.929-59.038,14.363-95.7.769-11.681,1.37-23.489,1.871-35.148,1.314-30.51,2.228-61.547,3.386-91.214,1.888-47.631,5.569-90.286,12.553-128.154,4.778-25.871,12.068-48.706,20.779-53.788,12.4-7.232,23.675,14.506,34.289,28.423.835,1.1,1.671,2.108,2.523,3.163,12.809,15.244,26.175,20.136,38.862,4.849,13.511-16.256,26.019-59.544,28.536-117.317" transform="translate(-102.816 -238.37)"/><path class="e" d="M122.59,824.8c7.243-38.589,15.48-74.362,24.588-106.8,4.043-14.359,8.276-28.3,13.266-37.552,10-18.66,21.269-16.235,31.783-6.157a81.37,81.37,0,0,1,8.471,9.72c11.74,15.812,22.928,36.983,33.315,63.044,10.3,25.766,19.759,57.6,31.293,79.448,9.468,17.88,19.7,33.525,30.14,39.682,8.961,5.229,18.378,2.3,26.236-14.317a93.55,93.55,0,0,0,4.071-10.226c7.942-23.615,12.252-60.261,14.82-97.939.808-11.976,1.448-24.058,2-35.992,1.437-31.227,2.545-63,3.993-93.28,2.328-48.727,6.683-91.593,14.229-129.525,4.845-24.353,11.935-46.2,20.383-51.384,12.035-7.38,23.045,12.039,33.376,23.72.813.907,1.632,1.792,2.45,2.636,12.425,12.651,25.273,14.759,37.241-1.877,12.759-17.754,24.371-60.83,26.47-117" transform="translate(-104.407 -242.649)"/><path class="e" d="M126.22,844.376c7.084-37.853,15.2-72.792,24.2-104.244,3.971-13.937,8.17-27.411,13.06-36.519,9.791-18.323,20.79-16.868,31.115-8.244a77.015,77.015,0,0,1,8.354,8.434c11.588,14.106,22.676,33.522,33.02,57.815,10.247,24.016,19.715,54.062,31.07,75,9.746,17.986,20.188,34.2,30.892,40.863,9.167,5.672,18.841,3.057,26.933-13.663a91.566,91.566,0,0,0,4.194-10.353c8.192-23.995,12.6-61.547,15.282-100.2.847-12.25,1.526-24.627,2.122-36.835,1.565-31.9,2.879-64.436,4.6-95.346,2.785-49.8,7.8-92.943,15.906-130.853,4.9-22.877,11.807-43.709,20-49,11.7-7.527,22.4,9.573,32.452,18.976.8.738,1.587,1.434,2.389,2.109,12.057,9.931,24.348,9.488,35.615-8.624,12-19.251,22.717-62.074,24.4-116.663" transform="translate(-106.015 -247.06)"/><path class="e" d="M129.85,863.749c6.928-37.091,14.914-71.18,23.814-101.651,3.9-13.515,8.075-26.483,12.859-35.444,9.585-17.964,20.316-17.669,30.447-10.332a64.533,64.533,0,0,1,8.215,7.337c11.433,12.4,22.421,30.059,32.719,52.586,10.2,22.265,19.676,50.456,30.853,70.55,10.025,18.049,20.684,34.853,31.644,42.043,9.367,6.094,19.314,3.8,27.629-13.03a91.07,91.07,0,0,0,4.322-10.542c8.437-24.353,12.937-62.791,15.738-102.367.885-12.651,1.6-25.3,2.228-37.679,1.671-32.618,3.208-65.89,5.207-97.412,3.225-50.878,8.849-94.355,17.576-132.224,4.94-21.422,11.7-41.2,19.609-46.577,11.311-7.675,21.775,7.085,31.538,14.3q1.153.854,2.317,1.581c11.7,7.274,23.43,4.217,33.972-15.35,11.255-20.769,21.068-63.36,22.332-116.326" transform="translate(-107.623 -251.295)"/><path class="e" d="M133.48,883.146a973.73,973.73,0,0,1,23.424-99.1c3.9-13.073,7.975-25.555,12.664-34.369,9.367-17.585,19.832-18.365,29.773-12.419a50.56,50.56,0,0,1,8.092,6.178c11.277,10.67,22.164,26.569,32.413,47.336,10.158,20.516,19.642,46.872,30.63,66.1,10.342,18.091,21.163,35.528,32.4,43.224,9.579,6.536,19.793,4.554,28.336-12.377a86.291,86.291,0,0,0,4.455-10.542c8.688-24.775,13.277-64.119,16.2-104.666.919-12.82,1.671-25.766,2.378-38.522,1.81-33.314,3.553-67.3,5.809-99.458,3.7-51.932,9.908-95.852,19.253-133.594,4.968-20.031,11.545-38.712,19.225-44.173,10.949-7.823,21.163,4.6,30.63,9.594.752.38,1.5.738,2.228,1.054,11.339,4.6,22.505-1.16,32.368-22.1,10.5-22.266,19.414-64.6,20.266-115.967" transform="translate(-109.232 -255.574)"/><path class="e" d="M137.11,902.682c6.612-35.609,14.35-68.026,23.04-96.527,3.832-12.651,7.875-24.669,12.458-33.293,9.161-17.247,19.358-18.977,29.1-14.506a41.526,41.526,0,0,1,7.964,5c11.124,8.972,21.91,23.137,32.112,42.17C251.9,824.268,261.4,848.747,272.2,867.175c10.637,18.112,21.681,36.182,33.148,44.4,9.785,6.958,20.266,5.292,29.032-11.744a86.7,86.7,0,0,0,4.572-10.753c8.911-25.175,13.611-65.363,16.652-106.9.958-13.115,1.76-26.356,2.5-39.366,1.938-34.031,3.9-68.758,6.416-101.545,4.149-53.007,10.938-97.433,20.929-134.944,5.012-18.681,11.411-36.224,18.841-41.79,10.581-7.97,20.506,2.109,29.695,4.892.724.211,1.448.379,2.177.527,10.982,1.94,21.586-6.473,30.742-28.823,9.757-23.847,17.766-66.017,18.217-115.693" transform="translate(-110.84 -259.908)"/><path class="e" d="M140.73,922.133c6.459-34.865,14.073-66.448,22.655-93.976,3.781-12.187,7.8-23.742,12.252-32.2,8.955-16.868,18.879-19.8,28.436-16.615a32.9,32.9,0,0,1,7.841,3.816c10.967,7.267,21.653,19.669,31.811,36.92,10.069,17.015,19.581,39.6,30.2,57.2,10.938,18.133,22.176,36.856,33.9,45.586,9.986,7.4,20.74,6.051,29.734-11.091a86.193,86.193,0,0,0,4.689-10.88c9.184-25.576,13.951-66.734,17.114-109.136,1-13.41,1.838-26.947,2.629-40.23,2.061-34.727,4.216-70.192,7.023-103.59,4.595-54.083,11.946-99.1,22.605-136.293,4.984-17.374,11.278-33.736,18.445-39.387,10.225-8.118,19.871-.337,28.781.19h2.105c10.62-.717,20.667-11.808,29.121-35.57,9.005-25.3,16.117-67.134,16.151-115.314" transform="translate(-112.444 -264.198)"/><path class="e" d="M144.36,941.661c6.3-34.12,13.8-64.858,22.277-91.382a199.146,199.146,0,0,1,12.052-31.121c8.744-16.531,18.378-20.537,27.768-18.7a31.756,31.756,0,0,1,7.713,2.635c10.811,5.528,21.4,16.153,31.51,31.627,10.024,15.245,19.548,35.845,29.968,52.713,11.244,18.133,22.672,37.552,34.657,46.787,10.192,7.8,21.213,6.81,30.43-10.542a85.205,85.205,0,0,0,4.817-11.006c9.434-25.977,14.285-68.02,17.571-111.392,1.036-13.684,1.916-27.41,2.751-41.052,2.183-35.444,4.544-71.689,7.63-105.678,5.04-55.137,12.932-100.955,24.282-137.621,5.012-16.13,11.138-31.227,18.061-37,9.857-8.265,19.236-2.8,27.846-4.512a18.12,18.12,0,0,0,2.038-.527c10.258-3.374,19.748-17.121,27.5-42.3,8.254-26.778,14.48-68.421,14.062-114.976" transform="translate(-114.053 -268.587)"/><path class="e" d="M148,961.067c6.148-33.377,13.515-63.284,21.881-88.831a199.817,199.817,0,0,1,11.851-30.025c8.538-16.172,17.927-21.254,27.1-20.811a29.685,29.685,0,0,1,7.585,1.476c10.647,3.814,21.125,12.683,31.187,26.4,9.974,13.495,19.52,32.281,29.75,48.306,11.55,18.091,23.168,38.206,35.4,47.947,10.4,8.244,21.692,7.57,31.132-9.8a84.737,84.737,0,0,0,4.945-11.133c9.679-26.293,14.641-69.327,18.033-113.627,1.075-13.979,2-28.085,2.879-41.9,2.306-36.14,4.873-73.08,8.237-107.744,5.486-56.233,13.9-102.937,25.952-138.992,5.012-14.907,11.016-28.718,17.671-34.6,9.5-8.434,18.607-5.271,26.944-9.214.657-.316,1.314-.675,1.966-1.054,9.9-6.052,18.829-22.456,25.874-49.044,7.507-28.254,12.809-69.58,12-114.639" transform="translate(-115.665 -272.833)"/><path class="e" d="M151.62,980.7c5.988-32.711,13.234-61.849,21.5-86.448a201.687,201.687,0,0,1,11.645-28.928c8.354-15.835,17.448-21.992,26.431-22.9a26.55,26.55,0,0,1,7.463.3c10.5,2.058,20.879,9.142,30.9,21.085,9.93,11.744,19.492,28.591,29.517,43.836,11.862,18.028,23.669,38.881,36.161,49.149,10.609,8.666,22.165,8.308,31.833-9.172a83.777,83.777,0,0,0,5.068-11.28c9.93-26.736,14.959-70.592,18.484-115.862,1.114-14.253,2.077-28.655,3.007-42.739,2.428-36.835,5.2-74.514,8.838-109.81,5.937-57.288,14.842-105.087,27.629-140.32,5.012-13.747,10.888-26.23,17.264-32.218,9.133-8.56,17.966-7.738,26.019-13.916q.952-.727,1.9-1.581c9.441-8.388,17.935-27.917,24.254-55.77,6.75-29.772,11.138-70.951,9.924-114.3" transform="translate(-117.269 -277.223)"/><path class="e" d="M155.25,999.967c5.838-31.9,12.96-60.137,21.107-83.686A205.016,205.016,0,0,1,187.8,888.407c8.12-15.455,16.975-22.751,25.763-24.965a27.456,27.456,0,0,1,7.335-.907c10.338.381,20.622,5.745,30.6,15.961,9.885,9.973,19.492,24.88,29.311,39.387,12.169,17.943,24.165,39.619,36.918,50.309,10.81,9.109,22.639,9.067,32.53-8.539a81.343,81.343,0,0,0,5.19-11.386c10.18-27.136,15.3-71.9,18.935-118.076,1.147-14.549,2.155-29.224,3.13-43.583,2.556-37.552,5.536-75.906,9.468-111.877,6.382-58.363,15.772-107.428,29.311-141.691,5.16-13.393,10.869-23.467,16.9-29.814,8.771-8.687,17.331-10.2,25.1-18.618.613-.654,1.22-1.371,1.827-2.109,9.1-11.22,17.028-33.115,22.628-62.517,6-31.269,9.512-72.195,7.858-113.964" transform="translate(-118.878 -281.435)"/><path class="e" d="M158.87,1019.462c5.686-31.164,12.687-58.574,20.723-81.135a210.345,210.345,0,0,1,11.244-26.777c7.872-14.618,16.37-23.786,25.095-27.073a32.252,32.252,0,0,1,7.212-2.108c10.18-1.335,20.363,2.264,30.3,10.711,9.835,8.223,19.436,21.085,29.088,34.938,12.481,17.817,24.66,40.209,37.664,51.489,11.016,9.552,23.112,9.825,33.231-7.886a81.311,81.311,0,0,0,5.313-11.512c10.425-27.537,15.633-73.207,19.4-120.332,1.186-14.76,2.228-29.814,3.258-44.447,2.679-38.248,5.864-77.4,10.025-113.858,6.828-59.46,16.707-109.958,30.981-143.061,5.144-11.959,10.7-21.183,16.507-27.411,8.409-8.834,16.708-12.651,24.181-23.32.59-.843,1.181-1.708,1.76-2.635,8.774-14.079,16.14-38.349,21.035-69.306a561.874,561.874,0,0,0,5.792-113.627" transform="translate(-120.482 -285.769)"/><path class="e" d="M162.5,1038.8c5.529-30.429,12.406-57.008,20.327-78.563,10.448-29.057,22.631-47.888,35.465-54.821a34.008,34.008,0,0,1,7.084-3.247c10.021-3.067,20.1-1.225,30,5.482,9.791,6.473,19.409,17.437,28.865,30.489C297.051,955.789,309.4,979,322.669,990.854c11.222,9.973,23.585,10.542,33.927-7.253a80.052,80.052,0,0,0,5.441-11.639c10.676-27.937,15.972-74.493,19.86-122.588,1.225-15.118,2.311-30.383,3.38-45.269,2.785-38.965,6.2-78.836,10.659-115.967,7.279-60.514,17.587-112.678,32.658-144.39,5.125-10.555,10.541-18.948,16.151-25.028,8.047-8.982,16.061-15.139,23.262-28.022.557-1.012,1.114-2.109,1.671-3.163,8.413-16.932,15.2-43.5,19.381-75.906a601.913,601.913,0,0,0,3.72-113.289" transform="translate(-122.09 -289.948)"/><path class="e" d="M166.13,1058.373c12.414-69.327,32.858-115.145,54.545-131.886s44.436-5.9,65.3,21.865c13.115,17.458,25.652,41.558,39.168,53.851s28.726,11.365,40.2-18.365C379.7,946.623,384.486,876.3,389.17,812.9c7.7-104.328,20.049-215.256,45.595-263.836,12.742-24.184,27.651-30.257,39.7-59.038,16.708-39.935,25.061-123.979,19.409-195.668" transform="translate(-123.698 -294.36)"/></g><g transform="translate(-147.154 -314.672)"><path class="e" d="M-264.23,17.185Q-248.207-40.9-230.436-91.423c5.257-14.928,10.76-29.519,17.092-36.287,16.184-17.121,32.669,21.865,45.032,64.815,11.429,39.624,21.573,84.25,30.218,132.941,8.549,48.2,15.761,100.955,27.044,140.278s28.241,62.749,42.164,38.4c8.281-14.485,14.268-43.92,17.554-76.138S-47.194,105.341-47,70.8c.223-39.534-.239-81.261,4.751-115.967,5.168-35.844,16.184-58.6,26.96-55.453C.055-96.125,11.361-47.271,22.532-7.231,36.723,43.6,54.015,86.154,73.39,95.3s40.939-21.844,50.056-87.292" transform="translate(264.23 168.531)"/><path class="e" d="M-262,23.237q15.737-57.119,33.293-106.331c5.185-14.549,10.62-28.781,16.841-35.359,12.5-13.2,25.189,6.726,36.027,35.844q4.375,11.8,8.4,25.3c11.364,37.809,21.5,80.611,30.185,127.5,8.577,46.429,15.816,97.623,27.022,135.724,6.282,21.38,14.118,38.459,22.277,46.218,7.106,6.747,14.508,6.325,21.224-5.018a59.534,59.534,0,0,0,3.464-6.958c6.833-16.067,11.779-42.549,14.786-71.12.95-9.158,1.743-18.539,2.372-28.085,1.671-24.838,2.372-50.6,2.812-76.053.713-40.293,1.075-81.81,6.466-116.178s15.933-56.255,26.465-53.366c14.992,4.09,26.142,50.477,37.141,88.135.863,2.952,1.743,5.9,2.634,8.792,13.438,43.793,29.372,78.752,46.92,85.457C95.062,84.91,115.707,53.536,124.339-10.6" transform="translate(263.242 178.757)"/><path class="e" d="M-259.69,29.324C-249.392-8.129-238.437-42.9-226.9-74.751c5.118-14.148,10.476-27.98,16.591-34.432,12.28-12.988,24.755,5.693,35.464,33.251q4.338,11.2,8.354,24.037c11.283,36.086,21.388,77.141,30.1,122.293,8.616,44.616,15.9,94.229,27.016,131.212,6.56,21.675,14.58,39.387,22.967,47.821,7.29,7.316,14.937,7.338,21.881-3.922a55.631,55.631,0,0,0,3.592-6.979c7.1-16.3,12.18-43.6,15.338-73.017,1-9.4,1.848-19.026,2.534-28.823,1.816-25.45,2.785-51.848,3.514-77.677,1.2-41.031,2.372-82.231,8.176-116.368C-25.857-89.7-15.688-111.228-5.4-108.635,9.24-104.924,20.217-61.025,31.054-25.75q1.286,4.217,2.6,8.223c13.21,40.947,28.7,72.891,45.667,77.74,18.061,5.166,37.809-26.588,45.957-89.442" transform="translate(262.218 188.968)"/><path class="e" d="M-257.41,39.888C-247.3,3.07-236.5-30.958-225.109-61.932c5.051-13.747,10.336-27.136,16.34-33.5,12.057-12.777,24.321,4.681,34.908,30.763q4.287,10.573,8.27,22.772c11.218,34.286,21.314,73.521,30.074,116.874,8.655,42.929,15.972,90.96,26.988,126.72,6.806,22.076,15.037,40.441,23.652,49.55,7.474,7.886,15.371,8.434,22.538-2.8a52.94,52.94,0,0,0,3.72-7.042c7.357-16.488,12.575-44.616,15.9-74.894q1.569-14.456,2.7-29.519c1.966-26.061,3.163-53.05,4.2-79.3,1.7-41.79,3.653-82.779,9.891-116.558,5.642-30.594,15.46-51.553,25.485-49.212,14.29,3.31,25.128,44.742,35.776,77.614q1.259,3.88,2.551,7.675c12.982,38.058,28.052,67.029,44.37,70,17.393,3.163,36.25-28.971,43.907-90.539" transform="translate(261.208 194.661)"/><path class="e" d="M-255.14,52.918c9.914-36.185,20.539-69.469,31.783-99.563,4.984-13.368,10.191-26.314,16.089-32.576,11.834-12.651,23.886,3.627,34.351,28.233,2.863,6.705,5.608,14.021,8.2,21.549,11.144,32.5,21.219,69.936,30.007,111.518,8.7,41.158,16.089,87.524,27.022,122.145,7.067,22.455,15.488,41.453,24.332,51.236,7.652,8.434,15.8,9.488,23.2-1.687a50.866,50.866,0,0,0,3.848-7.085c7.624-16.72,12.971-45.67,16.457-76.77q1.646-14.857,2.863-30.32c2.122-26.672,3.553-54.252,4.9-80.924,2.183-42.549,4.912-83.222,11.6-116.747C-14.741-86.875-5.3-107.2,4.489-105.156c13.923,2.91,24.621,41.875,35.086,72.364.824,2.4,1.671,4.786,2.506,7.106C54.835,9.525,69.482,35.46,85.176,36.577c16.708,1.181,34.685-31.332,41.858-91.593" transform="translate(260.202 197.95)"/><path class="e" d="M-252.87,65.909C-243.146,30.36-232.685-2.18-221.588-31.4c4.912-12.967,10.024-25.471,15.839-31.627C-194.137-75.381-182.3-60.41-171.955-37.3c2.835,6.325,5.569,13.2,8.131,20.3,11.074,30.716,21.134,66.359,29.962,106.163,8.744,39.387,16.212,84.087,27.016,117.612,7.34,22.793,15.967,42.444,25.017,52.9,7.836,9.024,16.234,10.542,23.853-.59a49.246,49.246,0,0,0,3.982-7.106c7.88-16.868,13.366-46.724,17.008-78.668q1.72-15.231,3.03-31.058c2.278-27.284,3.932-55.453,5.569-82.548C-25.72,16.444-22.211-23.934-15.05-57.227c5.825-27.073,14.937-46.766,24.5-45,13.589,2.53,24.115,39.028,34.417,67.134q1.22,3.31,2.462,6.536C58.865,3.772,73.066,26.734,88.153,25.975c16.062-.8,33.12-33.736,39.808-92.774" transform="translate(259.197 201.237)"/><path class="e" d="M-250.6,78.886a984.676,984.676,0,0,1,30.781-95.03c4.845-12.651,9.913-24.648,15.594-30.721,11.389-12.166,23.012,1.56,33.237,23.193,2.785,5.883,5.5,12.356,8.064,18.976,11,28.96,21.046,62.843,29.906,100.913,8.783,37.637,16.323,80.629,26.994,113.015,7.63,23.193,16.423,43.519,25.718,54.673,8.02,9.551,16.663,11.6,24.5.506a48.267,48.267,0,0,0,4.1-7.169c8.148-17.142,13.756-47.757,17.571-80.544,1.214-10.542,2.228-21.085,3.186-31.817,2.434-27.874,4.327-56.634,6.293-84.15C-21.506,16.664-17.274-23.355-9.611-56.4-3.73-81.7,5.075-100.674,14.376-99.282c13.238,2.109,23.608,36.161,33.738,61.863.8,2.108,1.6,4.027,2.417,5.967,12.3,29.477,26.114,49.423,40.544,46.7,15.393-2.783,31.555-36.055,37.759-93.765" transform="translate(258.191 204.538)"/><path class="e" d="M-248.33,91.907A903.118,903.118,0,0,1-218.05-.867c4.778-12.187,9.768-23.847,15.338-29.793,11.172-11.955,22.577.527,32.674,20.684,2.785,5.482,5.452,11.533,8,17.817,10.936,27.133,20.963,59.183,29.862,95.452,8.822,35.844,16.44,77.171,27,108.566,7.892,23.446,16.858,44.426,26.387,56.276,8.2,10.121,17.1,12.651,25.173,1.624a46.191,46.191,0,0,0,4.233-7.211c8.409-17.353,14.146-48.812,18.128-82.442,1.264-10.711,2.361-21.654,3.341-32.555,2.6-28.486,4.756-57.836,6.984-85.774,3.631-44.827,8.582-84.53,16.741-117.3C1.743-79.3,10.263-97.562,19.319-96.34c12.887,1.75,23.1,33.293,33.059,56.613.78,1.834,1.576,3.648,2.372,5.4C66.824-7.72,80.2,9.254,94.018,4.742c14.725-4.786,30-38.438,35.71-94.882" transform="translate(257.185 207.816)"/><path class="e" d="M-246,109.24c9.141-33.647,19.1-63.954,29.745-90.518,4.712-11.787,9.629-23,15.092-28.865,10.943-11.744,22.126-.4,32.112,18.175,2.74,5.1,5.4,10.711,7.931,16.573,10.876,25.345,20.9,55.6,29.845,90.1,8.861,34.158,16.563,73.8,27,104.054,8.137,23.763,17.287,45.417,27.016,57.941,8.382,10.69,17.526,13.726,25.83,2.72a44.089,44.089,0,0,0,4.361-7.232c8.677-17.585,14.541-49.845,18.685-84.34,1.32-10.964,2.467-22.16,3.52-33.293,2.746-29.1,5.112-59.038,7.674-87.4C-13.036,21.569-7.394-17.86,1.271-50.225c5.931-22.181,14.19-39.682,23-38.712,12.558,1.244,22.616,30.278,32.4,51.363.774,1.645,1.548,3.247,2.333,4.828C70.841-9,83.8,4.954,96.989-1.435c14.062-6.768,28.431-40.8,33.66-95.915" transform="translate(256.153 206.76)"/><path class="e" d="M-243.78,129.985c8.961-33.013,18.766-62.572,29.272-88.241,4.645-11.386,9.468-22.181,14.842-27.937,10.721-11.533,21.692-1.434,31.555,15.645,2.712,4.7,5.341,9.889,7.864,15.329,10.8,23.569,20.792,52.033,29.767,84.761,8.911,32.386,16.708,70.15,27,99.521C-95.033,253.1-85.71,275.45-75.73,288.67c8.565,11.259,17.961,14.759,26.487,3.838a42.4,42.4,0,0,0,4.489-7.232c8.911-17.817,14.937-50.9,19.247-86.237,1.364-11.217,2.567-22.666,3.681-34.031,2.9-29.709,5.5-60.24,8.354-89.021C-8.861,29.6-2.54-9.555,6.694-41.689c5.926-20.642,13.923-37.3,22.5-36.625,12.191.97,22.087,27.558,31.694,46.113.757,1.455,1.52,2.889,2.289,4.217C74.793-7.109,87.324,3.855,99.894-4.389c13.366-8.771,26.866-43.182,31.605-96.991" transform="translate(255.169 202.292)"/><path class="e" d="M-241.51,150.729c8.773-32.384,18.415-61.209,28.77-86.006,4.572-10.985,9.345-21.338,14.591-27.01,10.5-11.323,21.252-2.467,31,13.157a159.734,159.734,0,0,1,7.8,14.064c10.724,21.791,20.705,48.457,29.723,79.406,8.911,30.636,16.813,66.628,26.988,94.988,8.732,24.353,18.233,47.42,28.436,61.294,8.749,11.829,18.378,15.856,27.144,4.955a42.721,42.721,0,0,0,4.622-7.338c9.2-18.007,15.326-51.932,19.8-88.114,1.415-11.47,2.679-23.193,3.843-34.769,3.057-30.32,5.9-61.42,9.067-90.665C-4.625,37.608,2.347-1.42,12.144-33.174,18.058-52.319,25.838-68.112,34.153-67.69c11.84.569,21.586,24.69,31.015,40.842.746,1.265,1.493,2.509,2.228,3.711C78.79-5.131,90.892,2.818,102.838-7.3c12.726-10.732,25.3-45.543,29.556-98.087" transform="translate(254.163 197.847)"/><path class="e" d="M-239.24,171.374c8.583-31.753,18.063-59.831,28.269-83.728,4.505-10.542,9.2-20.516,14.341-26.082,10.275-11.133,20.818-3.5,30.436,10.543a144.266,144.266,0,0,1,7.73,12.841c10.659,20.034,20.626,44.953,29.678,74.2,8.972,28.8,16.953,63,26.983,90.391,9.022,24.606,18.69,48.5,29.121,62.96,8.911,12.4,18.824,16.868,27.8,6.051a41.7,41.7,0,0,0,4.751-7.359c9.468-18.238,15.722-52.986,20.355-90.012,1.47-11.723,2.785-23.678,4.01-35.507C-12.552,154.717-9.473,123.047-6,93.4-.406,45.56,7.2,6.637,17.583-24.674,23.464-42.385,31.032-57.229,39.091-57.1c11.495.169,21.085,21.844,30.341,35.591.73,1.1,1.465,2.108,2.2,3.142C82.792-3.21,94.487,1.767,105.8-10.231c12.063-12.651,23.741-47.926,27.506-99.1" transform="translate(253.157 193.48)"/><path class="e" d="M-237,192.129c8.4-31.147,17.72-58.488,27.785-81.472,4.455-10.205,9.061-19.714,14.09-25.175,10.058-10.9,20.383-4.512,29.879,8.118a127.68,127.68,0,0,1,7.663,11.6c10.585,18.2,20.536,41.268,29.628,68.695,9.022,27.115,17.086,59.5,26.983,85.942,9.328,24.859,19.141,49.4,29.806,64.625,9.106,12.967,19.247,17.986,28.453,7.169a40.382,40.382,0,0,0,4.879-7.4c9.729-18.449,16.112-54.02,20.918-91.888,1.515-12,2.885-24.227,4.171-36.287,3.369-31.627,6.683-63.782,10.453-93.87,6.126-48.5,14.313-87.5,25.3-118.244,5.836-16.32,13.2-30.194,21.012-30.341C55.159-46.616,64.6-27.429,73.682-16.043c.713.886,1.437,1.75,2.155,2.551,10.938,12.293,22.2,14.253,32.892.38C120.123-27.872,130.905-63.4,134.186-113.35" transform="translate(252.165 189.024)"/><path class="e" d="M-234.69,212.829c8.2-30.506,17.357-57.108,27.261-79.216,4.372-9.8,8.911-18.871,13.839-24.227,9.835-10.711,19.949-5.545,29.322,5.587a119.112,119.112,0,0,1,7.6,10.353c10.513,16.41,20.448,37.693,29.578,63.36,9.055,25.344,17.231,55.917,27,81.388,9.573,25.112,19.57,50.414,30.463,66.312,9.289,13.536,19.681,18.976,29.116,8.286a39.8,39.8,0,0,0,5.012-7.464c9.991-18.66,16.507-55.053,21.475-93.765,1.571-12.25,2.991-24.733,4.338-37.025,3.525-32.155,7.1-64.963,11.138-95.494,6.6-49.3,15.41-88.388,27.01-118.413C34.251-22.479,41.413-35.32,48.981-35.741c10.793-.611,20.049,16.109,28.96,25.091.707.7,1.409,1.371,2.116,2,10.71,9.4,21.547,8.434,31.616-7.359C122.4-32.726,132.28-68.718,135.064-117.34" transform="translate(251.141 184.601)"/><path class="e" d="M-232.42,233.582c8.005-29.867,16.989-55.724,26.732-76.939,4.3-9.425,8.777-18.049,13.589-23.193,9.612-10.542,19.492-6.6,28.765,3.078a87.266,87.266,0,0,1,7.524,9.109c10.437,14.609,20.352,34.087,29.517,57.984,9.139,23.425,17.415,52.143,27.016,76.707,9.9,25.3,20.049,51.405,31.187,67.978,9.468,14.106,20.11,20.136,29.773,9.4a39.762,39.762,0,0,0,5.135-7.506c10.253-18.976,16.9-56.107,22.032-95.662,1.615-12.5,3.091-25.3,4.494-37.763,3.67-32.766,7.479-66.165,11.835-97.054C12.3,69.6,21.651,30.323,33.9,1.057c5.731-13.705,12.7-25.471,20.049-26.166,10.442-.991,19.564,13.262,28.3,19.841a24.417,24.417,0,0,0,2.072,1.434c10.481,6.557,20.9,2.509,30.341-15.076,10.058-18.723,19.047-55.053,21.358-102.41" transform="translate(250.136 180.189)"/><path class="e" d="M-230.15,254.262c7.827-29.255,16.659-54.383,26.259-74.7,4.213-9.38,8.7-16.887,13.366-22.371,9.39-10.289,19.08-7.612,28.2.569a74.653,74.653,0,0,1,7.463,7.865c10.37,12.844,20.275,30.552,29.483,52.712,9.106,21.8,17.493,48.622,26.938,72.258,10.2,25.45,20.517,52.417,31.861,69.728,9.651,14.759,20.545,21.085,30.43,10.542a37.85,37.85,0,0,0,5.263-7.527c10.515-19.1,17.264-57.161,22.589-97.56,1.671-12.651,3.2-25.745,4.661-38.5C.2,193.748,4.251,159.8,8.9,128.385,16.492,77.591,26.433,37.91,39.342,9.593,45.017-2.848,51.8-13.5,58.868-14.465,68.959-15.857,77.926-4.092,86.485.1A20.605,20.605,0,0,0,88.518.99c10.253,3.669,20.238-3.353,29.06-22.835,9.4-20.684,17.487-57.414,19.308-103.485" transform="translate(249.13 175.744)"/><path class="e" d="M-227.87,274.94c7.635-28.635,16.306-53.021,25.752-72.427,4.143-8.932,8.532-16.122,13.088-21.443,9.167-10.079,18.646-8.666,27.645-1.961a73.277,73.277,0,0,1,7.4,6.621c10.3,11.02,20.186,26.91,29.433,47.294,9.172,20.073,17.665,45.059,26.966,67.809,10.5,25.681,20.968,53.345,32.541,71.351,9.835,15.2,20.974,22.245,31.087,11.6a37.321,37.321,0,0,0,5.391-7.591C-17.79,356.9-10.884,318.017-5.426,276.754c1.721-13.009,3.3-26.251,4.828-39.239C3.4,203.526,7.678,168.946,12.635,137.15,20.71,85.6,31.208,45.389,44.786,18.168,50.4,6.909,56.988-2.558,63.816-3.8c9.74-1.771,18.551,7.527,26.938,9.341a16.162,16.162,0,0,0,1.988.3c10.025.822,19.587-9.214,27.785-30.552,8.727-22.687,15.922-59.8,17.264-104.581" transform="translate(248.12 171.343)"/><path class="e" d="M-225.6,295.751c7.448-28.02,15.959-51.678,25.251-70.192a94.925,94.925,0,0,1,12.809-20.516c8.944-9.868,18.211-9.7,27.088-4.47a49.52,49.52,0,0,1,7.323,5.4c10.235,9.194,20.12,23.28,29.416,41.917,9.211,18.323,17.821,41.432,26.96,63.255,10.8,25.829,21.425,54.378,33.226,73.017,10.024,15.771,21.408,23.32,31.744,12.651a37.029,37.029,0,0,0,5.519-7.633c11.044-19.525,18.083-59.228,23.708-101.334,1.771-13.262,3.4-26.757,5.012-40.061C6.6,213.2,11.123,178.055,16.381,145.816,24.952,93.525,35.984,52.6,50.247,26.644,55.816,16.544,62.2,8.3,68.781,6.782c9.4-2.108,18.044,4.639,26.259,4.069a8.861,8.861,0,0,0,1.944-.274c9.685-1.8,18.969-15.208,26.509-38.29C131.551-52.383,137.85-89.872,138.7-133.37" transform="translate(247.114 166.832)"/><path class="e" d="M-223.33,316.351c7.263-27.392,15.614-50.308,24.749-67.915a94.237,94.237,0,0,1,12.586-19.588c8.727-9.678,17.777-10.816,26.532-6.979a34.811,34.811,0,0,1,7.24,4.217c10.157,7.384,20.024,19.65,29.361,36.5,9.245,16.552,17.961,37.763,26.949,58.743,11.138,25.956,21.887,55.39,33.911,74.7,10.2,16.341,21.837,24.374,32.4,13.811a36.067,36.067,0,0,0,5.653-7.654C-12.643,382.432-5.481,341.906.311,298.872c1.821-13.515,3.509-27.284,5.157-40.736,4.3-35.191,9.061-70.93,14.619-103.59C29.143,101.5,40.693,59.663,55.663,35.184c5.711-9.611,11.8-15.588,18.027-17.69,9.044-2.572,17.537,1.792,25.574-1.181a15.9,15.9,0,0,0,1.9-.822c9.487-4.838,18.322-20.955,25.234-46.028,7.39-26.672,12.809-64.541,13.154-106.732" transform="translate(246.108 162.509)"/><path class="e" d="M-221.06,337.007c7.077-26.766,15.269-48.941,24.248-65.637a95.49,95.49,0,0,1,12.336-18.66c8.5-9.467,17.342-11.85,25.969-9.509a33.412,33.412,0,0,1,7.2,2.889c10.077,5.635,19.921,16.129,29.294,31.227,9.284,14.823,18.111,34.094,26.944,54.23,11.434,26.04,22.344,56.381,34.6,76.37,10.381,16.868,22.277,25.45,33.064,14.928a36.135,36.135,0,0,0,5.764-7.7c11.567-19.967,18.863-61.336,24.816-105.13,1.877-13.768,3.614-27.79,5.319-41.474C12.94,232.7,17.952,196.413,23.8,163.331,33.351,109.522,45.447,66.572,61.113,43.8c5.629-8.266,11.532-13.552,17.543-15.708,8.693-2.952,17.031-1.054,24.894-6.325.624-.422,1.242-.907,1.86-1.413,9.284-7.882,17.668-26.706,23.947-53.767,6.728-28.654,11.227-66.9,11.1-107.807" transform="translate(245.102 158.13)"/><path class="e" d="M-218.78,357.773c6.889-26.16,14.921-47.61,23.741-63.4a98.108,98.108,0,0,1,12.085-17.732c8.253-9.006,16.828-13.061,25.412-12.018a29.7,29.7,0,0,1,7.123,1.645c10,3.845,19.832,12.54,29.249,25.871,9.323,13.073,18.261,30.425,26.944,49.718,11.768,26.1,22.795,57.414,35.275,78.035,10.581,17.479,22.7,26.5,33.721,16.046a35.151,35.151,0,0,0,5.9-7.759C-7.5,408-.067,365.828,6.053,321.17c1.921-14.021,3.715-28.3,5.48-42.17,4.617-36.414,9.852-73.333,16.011-106.837,10.025-54.547,22.661-98.825,38.984-119.72,5.538-6.93,11.26-11.533,17.064-13.726,8.354-3.353,16.524-3.943,24.215-11.681.607-.611,1.214-1.265,1.816-1.982,9.084-10.883,17.025-32.377,22.683-61.4,6.059-30.636,9.668-69.285,9.056-108.9" transform="translate(244.092 153.663)"/><path class="e" d="M-216.51,378.39c15.51-59.628,37.815-90.665,59.93-92.373s44,24.5,63.193,66.08c12.068,26.145,23.251,58.384,35.96,79.722s27.712,30.784,40.41,9.362c15.894-26.8,23.947-92.668,31.583-151.812C27.114,191.956,44.512,91.276,71.979,60.956c13.683-15.1,28.637-10.88,41.863-30.974,18.339-27.874,30.541-104.834,28.4-179.222" transform="translate(243.086 149.24)"/></g><g transform="translate(-23.79 -159.613)"><path class="e" d="M-42.518,1161.354c-2.339-71.689,16.351-132.266,35.2-143.378s37.765,11.85,56.449,26.588,39.7,19.588,55.3-21.992c19.949-53.155,24.56-164.969,45.11-214.9,15.995-38.9,36.818-27.263,53.2,1.687,9.267,16.362,17.147,43.9,26,63.086,40.17,86.975,42.883,264.742,77,291.246,36.924,28.739,56.973-39.471,63.945-86.68,8.911-60.577,23.83-217.807-12.664-327.07-14.831-44.384-29.466-91.7-40.371-150.146-16.334-87.481-16.223-221.265,4.661-293.566,14.313-49.55,36.294-67.683,46.018-131.212,6.533-42.7,5.642-97.75,0-142.3S351.98-47.13,341.337-75.7" transform="translate(42.717 75.7)"/><path class="e" d="M-40.918,1161.343c-1.615-73.8,16.975-137.474,36.389-150.167,18.935-12.377,38.177,10.437,56.861,26.693,18.462,16.088,38.984,23.362,54.511-14.422,19.871-48.369,25.457-154.51,45.957-203.786,16.329-39.028,36.818-31.775,53.6-6.473,9.64,14.548,18.183,40.5,27.456,59.944,39.324,82.484,42.582,254.474,75.941,280.62,35.9,28.064,55.848-36.477,63.093-83.033,9.184-59.037,23.391-210.47-11.094-318.383-14.218-44.531-28.314-92.774-39.045-150.82-15.85-85.436-15.995-214.434,3.715-286.123C340.1,265.8,361.293,245.6,370.973,182.9c6.644-42.887,6.237-97.138,1.331-142.007-4.957-45.4-14-82.611-24.2-113.289" transform="translate(41.963 79.358)"/><path class="e" d="M-39.345,1161.271c-.891-75.8,17.6-142.639,37.575-156.893,19.052-13.579,38.589,9,57.273,26.82,18.245,17.395,38.221,27.115,53.726-6.9,19.787-43.561,26.314-144.2,46.82-192.632,16.635-39.324,36.84-36.35,53.988-14.633,10.025,12.651,19.214,37.088,28.915,56.8,38.427,78.183,42.237,244.185,74.878,269.887,34.869,27.41,54.689-33.462,62.213-79.258,9.429-57.393,22.962-203.217-9.512-309.949-13.617-44.721-27.172-93.807-37.726-151.538-15.371-83.349-15.766-207.645,2.785-278.638,12.959-49.529,33.348-71.773,42.988-133.657,6.755-43.055,6.833-96.569,2.629-141.733C372.919,2.885,364.632-36.312,354.836-69.12" transform="translate(41.237 82.994)"/><path class="e" d="M-37.8,1161.164c-.167-77.867,18.222-147.806,38.761-163.64,19.152-14.759,38.984,7.548,57.686,26.947,18.022,18.681,37.481,30.868,52.935.653,19.709-38.775,27.2-133.805,47.689-181.52,16.958-39.492,36.879-40.968,54.383-22.793,10.42,10.817,20.238,33.736,30.369,53.682,37.525,74.05,41.919,233.9,73.819,259.345,33.822,26.778,53.525-30.447,61.328-75.484,9.668-55.791,22.538-196.09-7.936-301.3-13.015-44.932-25.98-94.883-36.4-152.212-14.825-81.451-15.544-200.9,1.821-271.194,12.291-49.739,31.861-74.114,41.5-135.112,6.839-43.372,7.44-96.084,3.937-141.459-3.62-46.893-11.138-88.009-20.545-122.862" transform="translate(40.539 86.685)"/><path class="e" d="M-36.28,1161.123c.557-79.933,18.846-152.95,39.953-170.366,19.241-15.9,39.4,6.072,58.092,27.031,17.821,19.968,36.757,34.643,52.15,8.2,19.626-33.968,28.08-123.389,48.552-170.387,17.264-39.682,36.935-45.649,54.773-30.953,10.827,8.919,21.269,30.32,31.822,50.6,36.59,70.107,41.6,223.626,72.761,248.676,32.78,26.166,52.35-27.411,60.448-71.689,9.9-54.188,22.121-189.09-6.354-292.722C363.5,714.334,351.1,663.477,340.831,606.611,326.5,527.2,325.51,412.418,341.705,342.9c11.628-49.929,30.391-76.328,40-136.546,6.939-43.456,8.047-95.515,5.241-141.164A738.544,738.544,0,0,0,368.226-62.52" transform="translate(39.865 90.31)"/><path class="e" d="M-34.76,1161c1.286-81.978,19.492-158.032,41.139-177.113,19.342-17.037,39.808,4.6,58.5,27.157,17.587,21.233,36.016,38.522,51.359,15.751,19.565-29.034,28.96-112.973,49.421-159.276,17.61-39.851,37-50.393,55.168-39.091,11.233,6.979,22.277,26.946,33.276,47.4,35.643,66.291,41.284,213.338,71.7,238.028,31.744,25.512,51.2-24.417,59.59-67.936,10.125-52.586,21.72-182.2-4.784-284.1-11.823-45.5-23.658-97.139-33.755-153.6-13.828-77.382-15.1-187.656-.067-256.266,10.943-49.992,28.893-78.373,38.461-137.685,7.051-43.646,8.682-95.03,6.544-140.89C389.533,24.728,383.44-20.12,374.908-59.19" transform="translate(39.191 94.001)"/><path class="e" d="M-33.24,1160.933c2.01-84.045,20.094-163.134,42.326-183.84C28.528,958.96,49.3,980.172,68,1004.377c17.37,22.455,35.275,42.3,50.574,23.193,19.492-24.206,29.851-102.536,50.284-148.143,17.933-40.061,37.068-55.2,55.558-47.251,11.651,5.018,23.3,23.594,34.735,44.279,34.651,62.643,40.967,203.133,70.639,227.465,30.692,24.944,50.017-21.443,58.688-64.161,10.348-51.026,21.313-175.469-3.208-275.517-11.854-48.164-22.7-99.754-32.435-154.3-13.366-75.316-14.892-180.972-1.014-248.8,10.275-50.224,27.439-80.544,36.974-139.013,7.151-43.836,9.3-94.587,7.847-140.594-1.57-49.592-6.922-96.274-15.037-137.432" transform="translate(38.518 97.648)"/><path class="e" d="M-31.72,1160.848c2.74-86.09,20.717-168.195,43.512-190.587,19.548-19.208,40.655,1.56,59.328,27.411,17.153,23.7,34.529,46.091,49.783,30.847,19.4-19.4,30.736-92.12,51.153-137.051,18.261-40.188,37.146-60.092,55.953-55.411,12.063,2.994,24.309,20.263,36.2,41.116,33.627,59.038,40.655,192.779,69.581,216.753,29.65,24.226,48.842-18.407,57.808-60.387,10.581-49.444,20.935-168.869-1.626-266.914-11.239-49.088-21.63-100.867-31.109-155.017-12.842-73.27-14.686-174.457-1.96-241.317,9.607-50.456,25.969-82.674,35.47-140.3,6.838-42.02,10.035-91.081,9.145-140.32-.863-50.6-5.508-99.1-13.227-142.26" transform="translate(37.844 101.317)"/><path class="e" d="M-30.2,1160.808c3.453-88.156,21.341-173.255,44.7-197.377,19.648-20.263,41.034,0,59.741,27.516,16.936,24.88,33.8,49.866,49.009,38.375,19.314-14.591,31.627-81.641,52.016-125.877,18.59-40.336,37.23-65.026,56.343-63.571,12.486.949,25.323,16.868,37.642,37.953,32.6,55.664,40.332,182.491,68.5,206.084,28.609,23.615,47.667-15.413,56.934-56.592,10.771-47.905,20.578-162.354-.056-258.333C384.6,722.262,374.445,668.622,364.844,613.3c-12.352-71.225-14.48-168-2.907-233.853,8.911-50.752,24.5-84.825,33.972-141.628C402.871,195.906,406.5,147.3,406.362,97.79c-.22-52.035-4.159-102.873-11.4-147.11" transform="translate(37.171 104.942)"/><path class="e" d="M-28.68,1160.691c4.188-90.2,21.97-178.273,45.884-204.06,19.754-21.317,41.446-1.539,60.147,27.642,16.708,26.061,33.053,53.619,48.207,45.923,19.236-9.783,32.518-71.2,52.907-114.765,18.935-40.483,37.313-70.023,56.739-71.689,12.9-1.138,26.32,13.663,39.1,34.854,31.561,52.354,40.009,172.2,67.454,195.436,27.567,22.962,46.48-12.419,56.054-52.839,10.977-46.387,20.25-156.176,1.526-249.73-9.468-47.251-19.035-101.419-28.464-156.387-11.862-69.138-14.307-161.616-3.854-226.389,8.248-51.089,23.034-86.933,32.457-142.914,7.093-41.866,11.148-90.067,11.757-139.751C411.772,52.979,408.455.39,401.639-46" transform="translate(36.498 108.622)"/><path class="e" d="M-27.16,1160.662c4.912-92.268,22.6-183.291,47.071-210.849,19.86-22.329,41.863-3.1,60.565,27.748,16.513,27.242,32.3,57.414,47.422,53.471,19.147-4.976,33.415-60.724,53.748-103.632,19.253-40.609,37.391-75.062,57.134-79.869,13.316-3.247,27.317,10.416,40.544,31.627,30.514,49.149,39.7,161.932,66.4,184.809,26.52,22.329,45.289-9.467,55.168-49.065,11.183-44.806,19.949-150.1,3.1-241.127-8.855-47.884-17.877-102.494-27.139-157.083-11.378-67.092-14.14-155.291-4.8-218.925C379.613,346.3,393.625,308.7,403,253.546c7.58-44.552,11.924-92.879,13.06-139.456C417.383,60.105,414.7,5.8,408.322-42.74" transform="translate(35.824 112.236)"/><path class="e" d="M-25.64,1160.5C-20,1066.25-2.411,972.211,22.611,942.945c19.965-23.362,42.276-4.7,60.982,27.874,16.3,28.38,31.566,61.146,46.625,61.02,19.063-.19,34.306-50.266,54.617-92.521C204.423,898.582,222.3,859.2,242.36,851.31c13.739-5.4,28.319,7.19,42,28.57,29.45,46.028,39.374,151.643,65.338,174.14,25.485,21.7,44.1-6.473,54.288-45.269,11.378-43.287,19.693-144.179,4.684-232.546-8.248-48.5-16.708-103.548-25.819-157.779-10.893-65-13.99-149.028-5.747-211.461,6.856-51.89,20.1-91.192,29.444-145.486a1070.4,1070.4,0,0,0,14.363-139.161c2.094-54.926.044-110.975-5.914-161.679" transform="translate(35.151 115.983)"/><path class="e" d="M-24.12,1160.493c6.366-96.4,23.864-193.265,49.443-224.344,20.049-24.353,42.7-6.325,61.395,28,16.084,29.519,30.825,64.9,45.84,68.547,18.98,4.618,35.2-39.766,55.48-81.367,19.921-40.863,37.542-85.289,57.919-96.19,14.151-7.57,29.305,4.006,43.44,25.449,28.375,42.971,39.045,141.564,64.274,163.493,24.432,21.253,42.883-3.543,53.414-41.5,11.567-41.79,19.492-138.422,6.254-223.964-7.613-49.3-15.594-104.6-24.5-158.474-10.414-62.918-13.862-142.808-6.683-203.976,6.126-52.354,18.64-93.3,27.935-146.814a1162.721,1162.721,0,0,0,15.672-138.908A1092.172,1092.172,0,0,0,421.67-36.12" transform="translate(34.477 119.574)"/><path class="e" d="M-22.6,1160.342c7.09-98.445,24.5-198.2,50.629-231.027,20.183-25.3,43.117-7.949,61.818,28.106,15.878,30.657,30.074,68.674,45.049,76.117,18.9,9.383,36.094-29.287,56.349-70.255s37.609-90.433,58.309-104.349c14.563-9.762,30.3.886,44.91,22.308,27.289,40.062,38.728,131.3,63.221,152.866,23.391,20.6,41.7-.611,52.528-37.721,11.757-40.314,19.3-132.835,7.836-215.361-6.978-50.14-14.441-105.657-23.185-159.17-9.935-60.851-13.75-136.673-7.641-196.512,5.4-52.881,17.181-95.43,26.431-148.143a1259.9,1259.9,0,0,0,16.969-138.612A1113.65,1113.65,0,0,0,428.369-32.77" transform="translate(33.804 123.288)"/><path class="e" d="M-21.07,1160.269c7.836-100.511,25.128-203.153,51.832-237.817,20.294-26.314,43.54-9.594,62.219,28.233,15.677,31.754,29.344,72.406,44.264,83.644,18.813,14.169,36.985-18.766,57.212-59.038,20.606-41.073,37.67-95.62,58.7-112.488,14.97-12.018,31.276-2.214,46.363,19.166,26.214,37.131,38.427,121.007,62.158,142.218,22.344,19.947,40.5,2.3,51.649-33.968,11.946-38.817,19.191-127.311,9.412-206.759-6.282-51.026-13.283-106.69-21.848-159.866-9.468-58.743-13.672-130.558-8.582-189.048,4.639-53.408,15.716-97.539,24.922-149.429,8.025-45.227,14.68-91.087,18.272-138.338a1133.052,1133.052,0,0,0-.423-176.249" transform="translate(33.126 126.946)"/><path class="e" d="M-19.55,1160.24c8.538-102.557,25.763-208.066,53-244.585,20.405-27.284,44-11.259,62.631,28.359,15.471,32.829,28.6,76.159,43.473,91.192,18.729,18.976,37.87-8.265,58.081-48.01,20.929-41.179,37.726-100.828,59.095-120.648,15.376-14.253,32.257-5.229,47.822,16.025,25.123,34.347,38.088,110.717,61.094,131.57,21.3,19.314,39.291,5.208,50.769-30.172,12.13-37.363,19.141-121.955,10.994-198.2-5.569-52-12.141-107.723-20.528-160.541-8.989-56.655-13.617-124.4-9.529-181.583,3.859-53.977,14.257-99.668,23.391-150.736,8.142-45.4,15.388-90.665,19.581-138.043a1148.905,1148.905,0,0,0,1.4-181.077" transform="translate(32.452 130.559)"/><path class="e" d="M-18,1160.134c9.245-104.6,26.387-212.958,54.166-251.29,20.517-28.275,44.4-12.967,63.043,28.444,15.276,33.926,27.846,79.912,42.688,98.741,18.646,23.7,38.784,2.256,58.944-36.877,21.269-41.242,37.781-106.057,59.49-128.787,15.772-16.53,33.226-8.2,49.276,12.883,24.025,31.627,37.77,100.428,60.036,120.922,20.255,18.66,38.082,8.076,49.889-26.4C431.839,941.82,438.678,861.128,432.1,788.2c-4.784-53.029-11-108.777-19.2-161.258-8.521-54.547-13.594-118.371-10.481-174.119,3.046-54.547,12.809-101.756,21.909-152.022,8.253-45.565,16.095-90.1,20.879-137.769A1161.115,1161.115,0,0,0,448.435-22.9" transform="translate(31.765 134.228)"/><path class="e" d="M-16.51,1160.027c9.991-106.669,27.049-217.871,55.369-257.974,20.606-29.224,44.832-14.654,63.455,28.57,15.076,35,27.133,83.518,41.9,106.289,18.584,28.317,39.686,12.756,59.813-25.745,21.608-41.348,37.826-111.329,59.88-137.052,16.151-18.808,34.195-11.069,50.73,9.762,22.934,28.886,37.469,89.948,58.978,110.274,19.225,17.859,36.874,10.943,49.009-22.624,12.486-34.537,19.23-111.349,14.146-180.993-4.118-56.64-10.126-111.062-17.877-161.953-8.053-52.417-13.6-112.256-11.428-166.571,2.228-55.116,11.339-103.864,20.4-153.33,8.354-45.712,16.808-89.569,22.188-137.495C456.833,111.041,458.6,44.48,455.1-19.57" transform="translate(31.105 137.92)"/><path class="e" d="M-15,1159.953C-4.279,1051.2,12.7,937.191,41.561,895.169c20.745-30.172,45.272-16.362,63.867,28.7,14.886,36.055,26.4,87.291,41.112,113.858,18.5,33.125,40.583,23.3,60.7-14.612,21.948-41.41,37.87-116.578,60.275-145.106,16.557-21.085,35.153-13.874,52.183,6.6,21.831,26.272,37.146,79.68,57.919,99.647,18.183,17.227,35.643,13.768,48.129-18.85,12.664-33.146,19.386-105.994,15.722-172.412-3.256-57.131-8.84-112-16.551-162.628-7.591-50.309-13.628-106.142-12.375-159.191,1.314-55.643,9.885-105.952,18.9-154.637,8.487-45.86,17.521-89,23.491-137.2C462.5,118.376,464.9,50.059,461.816-16.27" transform="translate(30.436 141.578)"/><path class="e" d="M-13.47,1159.913c11.439-110.8,28.336-227.717,57.741-271.469,20.862-31.1,45.712-18.091,64.279,28.8,14.7,37.109,25.657,91.066,40.321,121.386,18.423,37.953,41.5,33.968,61.545-3.5,22.31-41.305,37.9-121.85,60.665-153.267,16.947-23.4,36.111-16.552,53.642,3.479,20.723,23.678,36.829,69.454,56.856,88.978,17.136,16.594,34.44,16.594,47.243-15.076s19.6-100.512,17.3-163.788a1500.552,1500.552,0,0,0-15.232-163.345c-7.134-48.179-13.683-99.922-13.321-151.706.4-56.149,8.454-108,17.387-156.028,8.632-45.944,18.239-88.557,24.794-136.926C468.1,125.7,471.148,55.624,468.47-13" transform="translate(29.758 145.203)"/><path class="e" d="M-11.95,1159.838c12.163-112.91,29-232.377,58.927-278.322,20.99-31.922,46.157-19.841,64.692,28.929,14.48,38.164,24.922,94.882,39.541,128.914,18.339,42.718,42.393,44.447,62.408,7.633,22.644-41.411,37.932-127.121,61.06-161.426,17.331-25.7,37.052-19.082,55.09.358,19.643,21.085,36.512,59.038,55.8,78.331,16.1,15.961,33.226,19.377,46.369-11.3,13.015-30.384,19.876-94.882,18.874-155.206-.947-57.056-6.482-112.8-13.923-164.02-6.683-46.07-13.761-93.638-14.268-144.263-.557-56.55,6.989-110.106,15.883-157.23,8.744-46.134,18.935-87.861,26.1-136.63,9.129-62.52,12.822-134.342,10.553-205.262" transform="translate(29.085 148.905)"/><path class="e" d="M-10.43,1159.7C2.463,1044.787,19.2,922.389,49.684,874.759c21.1-32.956,46.608-21.591,65.1,29.055,14.324,39.2,24.181,98.572,38.756,136.4,18.261,47.5,43.284,54.926,63.277,18.766,22.973-41.558,37.959-132.413,61.45-169.586,17.716-28.043,38-21.486,56.549-2.8s36.2,48.854,54.734,67.7c15.037,15.308,32.012,22.16,45.489-7.527,13.193-29.055,20.211-88.831,20.456-146.6S450.124,686.3,442.912,635.424c-6.221-43.92-13.862-87.208-15.215-136.778-1.548-56.929,5.525-112.235,14.374-158.538s19.67-87.271,27.4-136.356c9.9-63.3,14.232-136.882,12.363-210.111" transform="translate(28.411 152.563)"/></g><g transform="translate(200.785 -607.921)"><path class="e" d="M374.715,1760.334c-16.229-37.953-16.992-131.128-7.474-193.728s26.1-104.033,40.839-149.914,28.9-104.876,30.118-176.966c1.559-92.162-18.573-175.849-15.995-267.779,2.01-71.562,17.454-125.73,33.682-156.029,9.172-17.1,19.776-23.088,29.277-37.215,43.094-63.866,81.388,39.513,108.226-44.468,29.054-91.045,27.573-192.948,22.2-243.152-6.878-64.33-29.912-206.78-75.273-167.541-18.423,15.94-37.313,29.519-56.2,25.07-28.247-6.726-55.714-90.9-57.518-197.8-1.209-73.27,8.816-149.492,1.816-217.976-4.695-46.05-16.591-77.846-29.277-89.21s-26.069-4.533-38.611,8.94" transform="translate(-360.53 428.22)"/><path class="e" d="M377.132,1764.4c-16.2-41.432-17.665-136.23-8.114-201.466,9.328-63.677,26.064-106.1,41.117-151.052,14.875-44.4,29.216-100.323,31.187-169.9,2.489-88.936-15.861-171.927-13.16-263.267,2.194-72.638,16.524-128.618,32.246-162.228,9.033-19.335,19.726-28.275,29.517-43.477,41.613-64.351,79.049,33.841,105.346-48.285,28.269-88.367,27.473-187.656,22.433-238.26-6.393-64.056-28.676-200.876-72.516-166.8-18.05,14.064-36.8,25.534-55.491,20.811-27.528-6.747-54.166-87.165-56.572-190.186-1.671-71.309,7.446-146.5.6-214.35-4.661-46.387-16.089-79.258-28.4-92.9-12.425-13.747-25.752-10.395-38.461.527" transform="translate(-361.661 423.901)"/><path class="e" d="M379.077,1769.067c-16.151-44.869-18.345-141.269-8.76-209.184,9.139-64.731,26.025-108.229,41.4-152.212,15.009-42.929,29.517-95.789,32.24-162.839,3.425-85.689-13.2-168-10.331-258.86,2.333-73.8,15.594-131.485,30.814-168.489,8.911-21.633,19.676-33.462,29.812-49.718,40.176-64.478,76.732,28.338,102.473-51.848,27.49-85.689,27.373-182.343,22.655-233.221-5.9-63.761-27.45-195.078-69.754-166.065-17.732,12.145-36.333,21.4-54.829,16.383-26.788-6.874-52.629-83.56-55.63-182.743-2.1-69.369,6.126-143.5-.607-210.723-4.628-46.914-15.594-80.671-27.528-96.569-12.174-16.214-25.429-16.3-38.316-7.907" transform="translate(-362.336 418.98)"/><path class="e" d="M381,1774.284c-16.151-48.285-19.013-146.351-9.4-216.9,8.961-65.742,25.98-110.316,41.68-153.33,15.137-41.516,29.84-91.255,33.3-155.8,4.361-82.463-10.509-164.1-7.5-254.453,2.495-74.788,14.675-134.48,29.377-174.752,8.755-23.974,19.62-38.628,30.074-55.981,38.756-64.351,74.415,22.835,99.633-55.369,26.7-83.032,27.289-177.113,22.884-228.287-5.43-63.466-26.248-189.343-67-165.327-17.4,10.247-35.821,17.163-54.138,12.061-26.053-7.274-51.1-80.017-54.689-175.279-2.54-67.472,4.7-140.468-1.816-207.1-4.628-47.294-15.109-82.231-26.654-100.238-11.924-18.7-25.111-22.2-38.166-16.341" transform="translate(-362.992 413.49)"/><path class="e" d="M382.932,1780.109c-16.106-51.721-19.681-151.411-10.025-224.618,8.783-66.755,25.936-112.467,41.964-154.49,15.265-40.061,30.151-86.722,34.356-148.733,5.3-79.216-7.8-160.245-4.661-250.025,2.662-75.906,13.745-137.6,27.952-181.035,8.615-26.356,19.559-43.751,30.335-62.243,37.352-64.056,72.1,17.332,96.781-58.911,25.919-80.334,27.161-171.695,23.112-223.311-4.957-63.149-25.061-183.713-64.246-164.61-17.081,8.434-35.32,13.073-53.464,7.717C479.718,312.387,455.47,243.4,451.3,152.036,448.308,86.5,454.64,14.6,448.269-51.413c-4.6-47.715-14.625-83.6-25.78-103.907-11.7-21.233-24.794-28.085-38.021-24.775" transform="translate(-363.657 407.411)"/><path class="e" d="M384.841,1786.384c-16.073-55.158-20.339-156.451-10.687-232.335,8.616-67.767,25.885-114.6,42.242-155.649,15.393-38.585,30.5-82.126,35.42-141.691,6.276-75.906-5.112-156.239-1.827-245.6,2.829-76.939,12.809-140.763,26.515-187.3,8.471-28.76,19.492-48.875,30.63-68.5,35.966-63.571,69.787,11.829,93.924-62.454,25.134-77.656,27.049-166.36,23.335-218.335-4.455-62.833-23.909-178.21-61.484-163.893-16.774,6.326-34.819,8.982-52.774,3.374-24.588-7.654-48.073-72.933-52.8-160.246C453.9,90.1,459.312,19.318,453.1-46.066c-4.572-48.158-14.129-85.141-24.9-107.533-11.434-23.826-24.477-33.989-37.87-33.209" transform="translate(-364.301 400.799)"/><path class="e" d="M386.751,1793.254c-16.045-58.595-21-161.489-11.333-240.073,8.448-68.737,25.83-116.747,42.526-156.766,15.5-37.173,30.809-77.593,36.478-134.648,7.24-72.659-2.411-152.318,1-241.191,3-78.014,11.862-143.989,25.061-193.56,8.354-31.227,19.453-53.977,30.87-74.746,34.59-62.981,67.471,6.325,91.067-66,24.354-75,26.932-161.026,23.563-213.4-4.021-62.474-22.767-172.9-58.727-163.134a90.217,90.217,0,0,1-52.088-.97c-23.858-7.844-46.586-69.454-51.849-152.866-3.9-61.8.607-131.443-5.458-196.216-4.544-48.5-13.644-86.7-24.025-111.223-11.188-26.44-24.154-39.893-37.726-41.664" transform="translate(-364.942 393.76)"/><path class="e" d="M388.691,1800.018c-16.011-62.011-21.647-166.571-11.979-247.79,8.3-69.728,25.78-118.919,42.816-157.927,15.622-35.844,31.121-73.038,37.536-127.585,8.159-69.39.3-148.4,3.837-236.784,3.169-79.047,10.9-147.257,23.647-199.822A331.942,331.942,0,0,1,515.685,749.1c33.231-62.222,65.159.822,88.21-69.58C627.464,607.2,630.71,523.852,627.686,471.1c-3.564-62.137-22.143-184.915-55.976-162.354-15.956,10.543-33.81.78-51.4-5.313-23.129-7.991-45.11-65.954-50.908-145.381-4.372-59.965-.752-128.449-6.683-192.59-4.369-46.5-12.464-86.665-23.157-114.892-10.938-29.1-23.83-45.776-37.575-50.1" transform="translate(-365.595 386.743)"/><path class="e" d="M390.557,1806.8c-15.984-65.363-22.277-171.526-12.625-255.528,8.142-70.614,25.718-121.07,43.122-159.044,15.733-34.39,31.438-68.505,38.6-120.543,9.094-66.143,3-144.495,6.683-232.356,3.341-80.123,9.935-150.61,22.215-206.106,8.014-36.245,19.347-64.1,31.4-87.271,31.884-61.336,62.837-4.681,85.353-73.08,22.784-69.58,26.688-150.293,24.014-203.449-3.108-61.8-20.962-181.33-53.213-161.7-15.716,9.552-33.309-3.289-50.713-9.636-22.4-8.16-43.668-62.5-49.967-137.938-4.851-58.131-2.111-125.434-7.875-188.942-4.265-46.8-12-87.957-22.277-118.561-10.849-31.964-23.785-52.193-37.43-58.532" transform="translate(-366.215 379.704)"/><path class="e" d="M392.44,1813.613c-15.945-68.864-22.934-176.5-13.266-263.224,7.992-71.689,25.652-123.284,43.378-160.246,15.844-33.019,31.744-63.951,39.652-113.479,10.025-62.9,5.714-140.573,9.507-227.949,3.52-81.2,8.961-153.92,20.784-212.367,7.853-38.775,19.3-69.117,31.666-93.533,30.553-60.345,60.52-10.163,82.5-76.6,22-66.966,26.565-144.938,24.243-198.515-2.662-61.42-19.765-177.472-50.457-160.963-15.5,8.434-32.8-7.38-50.028-13.979-21.67-8.307-42.237-59.038-49.009-130.452-5.352-56.339-3.47-122.44-9.089-185.316C468.15-70.2,460.765-112.384,450.911-145.3c-10.571-34.837-23.467-58-37.28-66.966" transform="translate(-366.833 372.621)"/><path class="e" d="M394.326,1820.31c-15.917-72.3-23.574-181.5-13.923-270.963,7.841-72.6,25.585-125.476,43.657-161.342,15.95-31.628,32.062-59.375,40.716-106.416,10.971-59.628,8.432-136.631,12.341-223.5,3.7-82.232,7.969-157.357,19.347-218.63,7.68-41.347,19.258-74.092,31.934-99.8,29.233-59.248,58.2-15.666,79.639-80.123C629.256,595.254,634.469,519.981,632.5,466c-2.228-61.146-18.545-173.466-47.694-160.246-15.332,6.958-32.3-11.449-49.343-18.323-20.94-8.434-40.828-55.559-48.079-122.989C481.528,109.9,482.564,45,477.089-17.242c-4.428-50.288-11.651-93.364-20.534-125.919-10.288-37.7-23.147-63.807-37.135-75.379" transform="translate(-367.449 365.671)"/><path class="e" d="M396.207,1827.107c-15.883-75.737-24.2-186.5-14.552-278.68,7.7-73.544,25.518-127.711,43.941-162.48,16.056-30.32,32.368-54.821,41.769-99.373,11.907-56.381,11.138-132.709,15.17-219.136,3.9-83.306,6.973-160.773,17.916-224.892,7.5-43.92,19.225-79.048,32.2-106.036,27.924-58.068,55.887-21.085,76.788-83.707,20.428-61.61,26.286-134.185,24.688-188.563-1.782-60.7-17.348-148.438-44.943-159.508-15.159-6.094-31.794-15.519-48.652-22.666-20.211-8.582-39.446-52.08-47.132-115.5-6.393-52.712-6.182-116.452-11.517-178.062-4.389-50.709-11.138-95.093-19.654-129.588-9.994-40.584-22.816-69.639-36.985-83.813" transform="translate(-368.066 358.621)"/><path class="e" d="M398.087,1833.882c-15.855-79.174-24.833-191.473-15.2-286.418,7.557-74.493,25.446-129.946,44.225-163.619,16.151-28.971,32.674-50.309,42.833-92.31,12.809-53.134,13.862-128.787,18.005-214.708,4.066-84.34,5.959-164.21,16.485-231.175,7.307-46.513,19.186-83.981,32.463-112.3,26.626-56.929,53.6-26.525,73.931-87.249C630.5,587.341,636.976,517.3,635.745,462.5c-1.359-60.3-16.3-144.158-42.186-158.77-14.92-8.434-31.293-19.567-47.967-27.01C526.1,268.03,507.5,228.222,499.4,168.678c-6.934-50.9-7.535-113.458-12.726-174.415C482.32-56.889,476.061-102.6,467.9-138.993c-9.7-43.46-22.482-75.476-36.84-92.247" transform="translate(-368.676 351.593)"/><path class="e" d="M399.953,1840.657c-15.822-82.59-25.457-196.448-15.844-294.135,7.429-75.442,25.379-132.224,44.509-164.779,16.256-27.663,32.986-45.754,43.891-85.267,13.773-49.866,16.585-124.844,20.84-210.28s4.945-167.646,15.037-237.438c7.112-49.107,19.158-88.852,32.73-118.561,25.34-55.474,51.286-32.028,71.074-90.665,18.891-56.107,26-123.452,25.139-178.653-.93-59.945-15.248-140.173-39.424-158.137-14.686-10.838-30.792-23.594-47.288-31.332-18.746-8.792-36.757-45.037-45.244-100.575-7.5-49.065-8.883-110.464-13.923-170.788-4.322-51.595-10.086-98.614-17.9-136.926-9.394-46.327-22.143-81.314-36.7-100.7" transform="translate(-369.278 344.565)"/><path class="e" d="M401.825,1847.548c-15.794-86.027-26.075-201.425-16.49-301.852,7.3-76.391,25.3-134.522,44.793-165.917,16.357-26.377,33.293-41.221,44.949-78.226,14.7-46.64,19.308-120.9,23.675-205.873,4.455-86.448,3.9-171.062,13.617-243.7,6.906-51.7,19.141-93.68,32.992-124.823,24.07-54.083,48.975-37.531,68.222-94.313,18.105-53.429,25.847-118.076,25.368-173.677-.512-59.586-14.19-136.4-36.673-157.315-14.441-13.558-30.285-27.748-46.6-35.8-18.022-8.877-35.442-41.432-44.3-93.09C503.3,125.794,501.146,65.428,496.234,5.8c-4.288-52.017-9.551-100.385-17.031-140.594-9.085-49.184-21.8-87.143-36.545-109.136" transform="translate(-369.88 337.526)"/><path class="e" d="M403.686,1854.2c-15.761-89.442-26.687-206.379-17.131-309.569,7.162-77.318,25.228-136.8,45.071-167.056,16.457-25.091,33.6-36.688,46.013-71.162,15.633-43.414,22.032-116.979,26.5-201.445,4.639-87.566,2.879-174.52,12.185-249.983,6.683-54.294,19.13-98.467,33.259-131.064,22.834-52.712,46.659-43.055,65.365-97.876,17.32-50.751,25.685-112.678,25.618-168.679-.1-59.186-13.121-132.835-33.916-156.577-14.19-16.172-29.784-31.627-45.912-40.061-17.264-8.961-34.156-37.805-43.356-85.626-8.716-45.269-11.606-104.518-16.379-163.535C496.758-40.9,492-90.615,484.857-132.7c-8.77-52.039-21.445-92.977-36.4-117.57" transform="translate(-370.477 330.498)"/><path class="e" d="M405.554,1860.972c-15.733-92.88-27.289-211.356-17.777-317.287,7.034-78.246,25.15-139.16,45.355-168.215,16.552-23.8,33.905-32.155,47.071-64.1,16.563-40.188,24.761-113.036,29.338-197.039,4.828-88.557,1.832-177.936,10.749-256.245,6.482-56.93,19.13-103.19,33.526-137.326,21.558-51.131,44.336-48.5,62.508-101.4,16.535-48.095,25.524-107.322,25.819-163.767.312-58.827-12.013-129.588-31.154-155.86-13.923-19.1-29.283-35.676-45.227-44.278-16.563-9.109-32.886-34.137-42.387-78.246-9.345-43.161-12.954-101.5-17.6-159.887-4.2-52.9-8.46-103.949-15.276-147.932-8.454-54.878-21.091-98.8-36.255-126" transform="translate(-371.075 323.47)"/><path class="e" d="M407.411,1867.746c-15.705-96.316-27.907-216.289-18.423-325.024,6.911-79.174,25.061-141.459,45.634-169.333,16.652-22.582,34.206-27.664,48.129-57.056,17.471-37.088,27.489-109.093,32.168-192.632,5.012-89.653.785-181.331,9.323-262.507,6.26-59.481,19.141-107.849,33.788-143.589,20.316-49.571,41.992-54.188,59.651-104.94,15.727-45.544,25.356-101.9,26.053-158.833.713-58.49-10.871-126.51-28.4-155.143-14.243-23.341-29.216-39.7-44.553-48.685-15.822-9.13-31.616-30.215-41.451-70.656-9.969-41.01-14.274-98.53-18.785-156.26-4.166-53.345-7.908-105.72-14.4-151.6-8.132-57.7-20.73-104.613-36.1-134.438" transform="translate(-371.662 316.442)"/><path class="e" d="M409.272,1874.588c-15.672-99.753-28.509-221.266-19.063-332.741,6.783-80.123,24.989-143.841,45.918-170.493,16.747-21.338,34.529-23.193,49.187-49.992,18.412-33.842,30.224-105.172,35.008-188.225,5.224-90.666-.278-184.768,7.886-268.77,6.026-62.074,19.18-112.467,34.05-149.851,19.086-47.968,39.675-59.691,56.806-108.482,14.937-42.866,25.178-96.59,26.27-153.92,1.114-58.131-9.674-123.6-25.618-154.384-13.8-26.187-28.6-44.084-43.852-53.05-15.115-9.13-30.385-26.272-40.521-63.255-10.637-38.754-15.594-95.557-20-152.634C511.221-25,508-78.742,501.815-126.479,494-186.994,481.443-236.894,465.854-269.35" transform="translate(-372.253 309.348)"/><path class="e" d="M411.116,1881.307c-15.644-103.169-29.11-226.221-19.709-340.48,6.683-81.029,24.911-146.224,46.224-171.631,16.841-20.094,34.818-18.66,50.245-42.929,19.347-30.615,33-101.208,37.837-183.8,5.474-91.72-1.337-188.183,6.455-275.053,5.8-64.667,19.219-116.916,34.323-156.028,17.866-46.387,37.358-65.216,53.938-112.024,14.135-40.272,25-91.4,26.476-148.944S638.488,329.6,624.02,296.753c-12.809-29.16-27.785-47.61-43.167-57.393-14.391-9.13-29.143-22.2-39.569-55.749-11.311-36.329-16.936-92.584-21.207-148.986-4.054-54.273-6.783-109.241-12.659-158.938-7.481-63.336-20-116.242-35.81-151.327" transform="translate(-372.833 302.376)"/><path class="e" d="M412.975,1888.048c-15.594-106.605-29.656-231.133-20.355-348.2,6.583-81.936,24.839-148.628,46.486-172.77,16.947-18.976,35.13-14.148,51.309-35.844,20.283-27.411,35.71-97.244,40.655-179.37,5.658-92.774-2.406-191.578,5.012-281.315,5.569-67.261,19.286-121.3,34.59-162.354,16.663-44.7,35.041-70.7,51.081-115.567,13.366-37.51,24.811-85.921,26.732-143.9,1.894-57.456-7.067-118.076-20.127-152.95-12.341-32.956-27.289-51.532-42.482-61.716-13.667-9.151-27.9-18.049-38.639-48.285-11.99-33.736-18.289-89.59-22.416-145.36-4.021-54.694-6.215-110.991-11.784-162.628-7.149-66.11-19.621-122.005-35.643-159.74" transform="translate(-373.429 295.381)"/><path class="e" d="M414.808,1894.857c-15.594-110.043-30.291-236.152-21-355.935,6.432-82.906,24.761-151.052,46.781-173.908,17.042-17.712,35.442-9.594,52.35-28.845,21.219-24.121,38.427-93.3,43.5-175,5.842-93.828-3.475-194.951,3.592-287.577,5.324-69.833,19.381-125.582,34.852-168.68s32.719-76.1,48.229-119c12.586-34.832,24.616-80.587,26.949-138.95,2.283-57.14-5.625-115.271-17.365-152.212s-26.765-55.432-41.8-66.059c-12.943-9.151-26.643-13.726-37.692-40.8-12.675-31.037-19.648-86.617-23.63-141.733s-5.647-112.72-10.91-166.3c-6.825-68.905-19.263-127.8-35.515-168.174" transform="translate(-373.992 288.32)"/></g></g></g></g></g></svg>