<svg xmlns="http://www.w3.org/2000/svg" width="17.499" height="18.845" viewBox="0 0 17.499 18.845"><defs><style>.a{fill:#f18f20;}</style></defs><g transform="translate(-17.066)"><g transform="translate(17.066 12.115)"><g transform="translate(0)"><path class="a" d="M33.892,307.2a.673.673,0,0,0-.673.673v4.038a.673.673,0,0,1-.673.673H19.085a.673.673,0,0,1-.673-.673v-4.038a.673.673,0,0,0-1.346,0v4.038a2.019,2.019,0,0,0,2.019,2.019H32.546a2.019,2.019,0,0,0,2.019-2.019v-4.038A.673.673,0,0,0,33.892,307.2Z" transform="translate(-17.066 -307.2)"/></g></g><g transform="translate(21.785)"><g transform="translate(0)"><path class="a" d="M144.6,11.639a.673.673,0,0,0-.935,0l-2.218,2.216V.673a.673.673,0,0,0-1.346,0V13.855l-2.216-2.216a.673.673,0,0,0-.952.952l3.365,3.365a.673.673,0,0,0,.952,0h0l3.365-3.365A.673.673,0,0,0,144.6,11.639Z" transform="translate(-136.742)"/></g></g></g></svg>