<svg xmlns="http://www.w3.org/2000/svg" xmlns:xlink="http://www.w3.org/1999/xlink" width="1920" height="1139" viewBox="0 0 1920 1139"><defs><style>.a,.e{fill:none;stroke:#fff;stroke-width:2px;}.b{fill:#f6f6f6;}.c{isolation:isolate;}.d{clip-path:url(#a);}.e{stroke-miterlimit:10;}</style><clipPath id="a"><rect class="a" width="1920" height="1139"/></clipPath></defs><g transform="translate(0 -1610)"><g transform="translate(0 21)"><rect class="b" width="1920" height="1139" transform="translate(0 1589)"/><g class="c" transform="translate(0 1589)"><g transform="translate(0 0)"><g transform="translate(0 0)"><g class="d"><g transform="translate(-395.134 -369.69)"><path class="e" d="M1333.162-52.3a1400.051,1400.051,0,0,1-58.138,174.164c-10.24,25.314-21.811,50.948-41.753,71.172-51.021,51.7-140.288,53.3-216.473,42.069a981.954,981.954,0,0,1-204.442-52.957c-64.87-24.561-127.616-56.267-197.12-66.675s-150.349,6.391-187.8,59.554c-22.272,31.683-25.83,71.766-17.126,108.356s28.672,70.236,50.816,101.987c25.37,36.339,54.81,73.158,58.624,115.82,3.942,44.191-23.424,89.387-67.046,110.661-62.029,30.267-137.958,11.276-207.539,0-88.371-14.358-183.168-14.244-263.91,20.886S-161.9,744.174-153.609,823.929" transform="translate(154.349 302.954)"/><path class="e" d="M1313.989-57.53A1309.218,1309.218,0,0,1,1256.9,112.594c-10.24,24.7-21.529,49.67-40.96,69.483-49.69,50.628-136.064,53.413-210.15,43.781q-26.394-3.424-52.48-8.309a950.3,950.3,0,0,1-146.765-39.672c-63.386-22.826-124.826-52.5-192.768-62.019s-144.538,7.875-184.115,57.385a140.309,140.309,0,0,0-29.338,60.33,147.519,147.519,0,0,0-1.741,45.31,166.38,166.38,0,0,0,3.61,20.886c6.81,27.939,21.3,55.285,37.146,81.284,1.562,2.579,3.149,5.136,4.736,7.715,24.781,39.877,50.944,80.668,52.378,125.293,1.382,42.959-24.038,86.739-66.56,107.626-60.442,29.856-134.144,12.76-201.446,3.218-5.3-.753-10.624-1.461-15.974-2.077-80.794-9.633-165.274-5.706-237.363,27.528-76.8,35.426-135.552,110.091-126.259,187.586" transform="translate(157.83 296.246)"/><path class="e" d="M1294.752-62.76a1231.492,1231.492,0,0,1-56.09,166.083c-10.061,24.082-21.248,48.437-40.192,67.817-48.256,49.533-131.865,53.482-203.827,45.447q-25.6-2.876-51.046-7.145a923.547,923.547,0,0,1-143.053-35.883c-61.9-20.932-122.035-48.62-188.365-57.317s-139.162,9.382-180.352,55.194c-16.64,18.489-30.208,36.727-37.453,57.75a140.729,140.729,0,0,0-7.68,45.2,147.361,147.361,0,0,0,1.485,21.8c4.3,29.537,18.688,59.348,34.227,87.63,1.562,2.808,3.1,5.592,4.659,8.377,24.192,43.37,47.155,88.041,46.08,134.674-.9,41.658-24.653,83.955-66,104.635-58.88,29.4-130.278,14.2-195.328,6.46q-7.68-.924-15.36-1.689c-78.029-7.533-158.874-1.826-227.3,31.706-72.986,35.746-128,108.744-117.76,183.979" transform="translate(161.399 289.538)"/><path class="e" d="M1275.666-68A1161.8,1161.8,0,0,1,1220.6,94.066c-9.958,23.465-20.992,47.159-39.424,66.2-47.181,48.392-127.667,53.527-197.53,47.068q-24.883-2.283-49.587-5.958a898.551,898.551,0,0,1-139.315-31.98c-60.416-19.105-119.245-44.785-184.013-52.637s-134.2,10.751-176.64,53.025c-18.483,18.4-35.379,34.742-45.542,55.125A135.843,135.843,0,0,0,374.8,269.828a130.456,130.456,0,0,0-.742,22.826c1.792,31.135,16.077,63.525,31.334,94,1.51,3.013,3.021,6.026,4.557,9.13,23.6,47,43.52,95.254,39.91,144.239-2.918,40.265-25.293,81.238-65.485,101.6-57.216,28.989-126.438,15.682-189.235,9.7-4.966-.456-9.933-.89-14.9-1.256C105,644.611,27.769,652.1-37.025,685.926c-69.12,36.065-120.32,107.283-109.056,180.327" transform="translate(164.818 282.817)"/><path class="e" d="M1256.555-73.21a1091.558,1091.558,0,0,1-54.067,157.98c-9.8,22.826-20.736,45.835-38.656,64.415-45.747,47.433-123.443,53.733-191.181,48.871q-24.166-1.712-48.128-4.771a876.882,876.882,0,0,1-135.68-28.3c-58.88-17.3-116.454-41.087-179.61-47.935s-129.613,11.938-172.851,50.811c-20.48,18.261-40.525,32.756-53.76,52.5a134.246,134.246,0,0,0-19.763,44.99,117.456,117.456,0,0,0-2.867,23.6c-.742,32.733,13.466,67.657,28.416,100.435l4.454,9.7c23.117,50.469,39.91,102.261,33.69,153.62-4.685,38.8-25.907,78.545-64.973,98.609-55.6,28.555-122.573,17.142-183.117,12.942q-7.181-.514-14.362-.845C91.679,659.99,18.079,669.3-43.08,703.36c-65.2,36.362-112.64,106.051-100.429,176.766" transform="translate(168.262 276.135)"/><path class="e" d="M1237.4-78.44A1023.994,1023.994,0,0,1,1184.329,75.5c-9.677,22.233-20.48,44.625-37.837,62.772-44.467,46.314-119.27,53.8-184.909,50.537q-23.4-1.164-46.669-3.607a848.987,848.987,0,0,1-131.891-24.515c-57.446-15.476-113.664-37.161-175.258-43.37S482.326,130.374,438.6,166.006c-22.477,18.261-45.67,30.77-61.747,49.921a135.233,135.233,0,0,0-25.6,44.876,112.536,112.536,0,0,0-5.12,24.47c-3.251,34.239,10.854,71.766,25.6,106.712,1.434,3.47,2.893,6.848,4.326,10.386,22.477,54.075,36.352,109.337,27.443,163.139-6.2,37.412-26.5,75.852-64.435,95.619-54.246,28.19-118.938,18.672-177.126,16.229-4.582-.182-9.19-.319-13.8-.411C78.46,675.669,8.47,686.694-48.976,721.116c-61.312,36.682-105.19,104.7-91.8,173.16" transform="translate(171.752 269.427)"/><path class="e" d="M1218.621-83.67a959.153,959.153,0,0,1-52.1,149.9c-9.575,21.639-20.173,43.37-37.069,61.106-43.162,45.287-115.072,53.938-178.586,52.272q-22.656-.593-45.235-2.42a824.931,824.931,0,0,1-128.179-20.726c-55.962-13.7-110.874-33.326-170.854-38.622s-121.549,13.878-165.453,46.543c-24.653,18.261-50.842,28.693-69.888,47.2a137.989,137.989,0,0,0-31.616,44.785,108.848,108.848,0,0,0-7.373,25.36c-5.76,35.928,8.269,75.9,22.6,113.2q2.15,5.524,4.25,11.048c21.888,57.613,33,116.277,21.2,172.612-7.526,35.951-27.11,73.044-64,92.583-52.378,27.711-114.893,20.064-170.931,19.425H132.132C65.213,691.416-1.142,704.29-55,738.918c-57.446,37-97.613,103.357-83.226,169.553" transform="translate(174.913 262.719)"/><path class="e" d="M1199.651-88.9A895.183,895.183,0,0,1,1148.63,56.959c-9.421,21.023-19.891,42.092-36.3,59.348-41.83,44.214-110.848,54.03-172.262,53.961q-21.888,0-43.75-1.255a795.119,795.119,0,0,1-124.467-16.937c-54.477-11.824-108.083-29.491-166.4-33.943s-124.57,8.217-161.818,44.351c-30.08,13.673-55.987,26.866-77.926,44.717a142.947,142.947,0,0,0-37.632,44.671,107.218,107.218,0,0,0-9.6,26.273c-8.269,37.5,5.658,79.892,19.712,119.4q2.1,5.866,4.147,11.733c21.3,61.151,29.8,123.261,14.95,182.062-8.7,34.513-27.648,70.51-63.488,89.593C243,708.213,182.742,702.461,128.956,703.6c-4.25,0-8.474.228-12.8.411-64.128,2.9-126.9,17.462-177.1,52.5-53.53,37.321-90.01,102.01-74.6,165.946" transform="translate(178.14 256.01)"/><path class="e" d="M1180.659-94.13a837.579,837.579,0,0,1-50.022,141.819c-9.293,20.384-19.61,40.836-35.507,57.75-40.525,43.073-106.649,54.1-165.939,55.6q-21.146.548-42.317,0a774.452,774.452,0,0,1-120.755-13.125c-52.992-10.112-105.293-25.771-162.1-29.469S483.238,127.01,446.042,160.7c-32.512,12.92-61.184,24.835-86.042,42.206a148.938,148.938,0,0,0-43.52,44.6,107.408,107.408,0,0,0-11.827,27.14c-10.778,39.1,3.072,84.114,16.819,125.772q2.048,6.163,4.045,12.395c20.71,64.689,26.752,130.109,8.7,191.512-9.779,32.961-28.39,67.634-62.95,86.488C222.093,717.661,164.083,713.8,112.55,716.7c-4.07.228-8.115.525-12.186.844-61.44,5-120.5,21.32-167.066,56.655-49.638,37.595-82.406,100.641-66,162.317" transform="translate(181.464 249.302)"/><path class="e" d="M1161.843-99.36a781.831,781.831,0,0,1-49,137.779c-9.165,19.767-19.379,39.558-34.739,56.061-39.219,42.092-102.451,54.189-159.642,57.294q-20.48,1.141-40.96,1.1a748,748,0,0,1-117.043-9.336c-51.507-8.195-102.4-21.867-157.747-24.607S485.773,127.669,448.6,158.918c-34.918,12.189-66.33,22.826-94.131,39.489A156.811,156.811,0,0,0,304.883,242.9a108.247,108.247,0,0,0-14.029,28.031c-13.286,40.7.461,88.223,13.926,132.118q2,6.505,3.942,13.057c20.122,68.25,23.91,136.957,2.56,201.007-10.675,31.637-29.082,65.009-62.362,83.567-47.667,26.433-103.424,24.47-152.7,29.149-3.891.365-7.68.776-11.648,1.255C26,738.156-29.529,756.188-72.461,791.888c-45.747,37.914-74.8,99.294-57.37,158.71" transform="translate(184.612 242.594)"/><path class="e" d="M1143.082-104.59a728.033,728.033,0,0,1-48,133.739c-9.037,19.174-19.1,38.325-33.946,54.395-37.914,41.087-98.253,54.372-153.344,59.074q-19.61,1.689-39.373,2.283a725.423,725.423,0,0,1-113.331-5.57c-50-6.46-99.661-18.124-153.421-20.019s-113.408,9.131-150.528,37.8C413.815,168.525,379.665,178,348.893,194c-20.966,10.911-40.934,25.5-55.45,44.4a110.845,110.845,0,0,0-16.256,28.921c-15.8,42.3-2.15,92.355,11.008,138.486,1.306,4.565,2.56,9.131,3.866,13.7,19.558,71.788,21.222,143.964-3.763,210.457-11.366,30.268-29.67,62.361-61.85,80.6-46.08,25.976-99.482,25.908-146.509,32.39-3.712.5-7.424,1.05-11.11,1.666-55.808,9.13-107.7,29.035-146.97,64.963-41.882,38.234-67.226,97.947-48.64,155.218" transform="translate(187.706 235.886)"/><path class="e" d="M1124.586-109.82a678.259,678.259,0,0,1-47.027,129.7c-8.909,18.558-18.816,37.047-33.152,52.728-36.608,39.946-94.054,54.463-147.021,60.763q-18.893,2.283-37.939,3.447a705.359,705.359,0,0,1-109.568-1.849c-48.64-4.565-96.922-14.221-148.966-15.271s-109.594,9.29-146.816,35.632c-39.731,10.705-76.646,18.9-110.336,34.239-23.04,10.477-45.184,25.109-61.44,44.283a114.159,114.159,0,0,0-18.483,29.811c-18.278,43.94-4.787,96.509,8.064,144.878q1.92,7.19,3.738,14.4c19,75.326,18.79,151-9.984,219.93-12.058,28.852-30.182,59.622-61.44,77.609-44.365,25.565-95.667,27.391-140.442,35.632-3.507.662-7.04,1.347-10.547,2.1C.209,769.467-48.073,791.107-83.708,827.332c-37.99,38.554-59.622,96.6-40.166,151.5" transform="translate(190.535 229.178)"/><path class="e" d="M1106.045-115a627.734,627.734,0,0,1-46.08,125.544c-8.755,17.941-18.534,35.769-32.384,51.039-35.277,38.8-89.83,54.577-140.8,62.452q-18.125,2.853-36.454,4.565a680.857,680.857,0,0,1-105.907,2.032c-47.027-2.762-94.131-10.386-144.589-10.591s-105.8,9.519-142.874,33.44c-42.112,10-81.792,16.846-118.426,31.66-25.062,10.066-49.331,24.492-67.456,44.191a117.651,117.651,0,0,0-20.685,30.7c-20.813,45.515-7.347,100.595,5.12,151.2q1.869,7.487,3.635,15.065c18.406,78.864,16.563,158.117-16.23,229.38-12.672,27.506-30.72,56.928-60.8,74.55-42.752,25.109-91.8,28.852-134.323,38.8-3.354.8-6.682,1.621-10.01,2.511-50.253,13.331-94.9,36.773-126.9,73.272-34.1,38.8-52.019,95.254-31.539,147.891" transform="translate(193.384 222.534)"/><path class="e" d="M1087.706-120.28A583.681,583.681,0,0,1,1042.752,1.338c-8.653,17.3-18.278,34.513-31.616,49.35-33.971,37.8-85.632,54.783-134.374,64.164q-17.408,3.378-35.021,5.8a656.4,656.4,0,0,1-102.169,5.821c-45.568-.936-91.341-6.574-140.211-5.912s-98.714,15.978-139.341,31.295c-42.086,15.978-87.04,14.928-126.541,29.058-27.085,9.633-53.5,23.968-73.421,44.077a121.782,121.782,0,0,0-23.04,31.591c-23.322,47.113-9.933,104.7,2.33,157.5q1.792,7.852,3.533,15.75c17.92,82.425,14.566,165.353-22.477,238.83-13.107,26.182-31.309,54.189-60.16,71.514-41.165,24.7-87.962,30.4-128.23,42.115-3.174.913-6.323,1.894-9.472,2.922-47.462,15.43-88.5,40.63-116.864,77.426-30.208,39.17-44.442,93.907-23.04,144.284" transform="translate(196.055 215.762)"/><path class="e" d="M1069.565-125.5A541.6,541.6,0,0,1,1025.609-7.945c-8.525,16.709-17.92,33.258-30.72,47.684-32.666,36.75-81.434,54.783-128,65.854q-16.614,3.972-33.536,6.985a633.038,633.038,0,0,1-98.662,9.587c-44.058.89-88.55-2.739-135.834-1.233s-95.667,15.636-135.68,29.1c-44.8,15.111-92.16,12.965-134.63,26.478-29.03,9.108-57.7,23.374-79.334,43.8A125.921,125.921,0,0,0,224.1,252.8c-25.856,48.78-12.57,108.9-.589,163.983q1.766,8.149,3.43,16.412c17.229,85.963,12.8,172.726-28.723,248.3-13.7,24.949-32.026,51.519-59.75,68.479-39.552,24.333-84.1,31.865-122.112,45.4-3,1.073-5.965,2.283-8.934,3.355-44.7,17.508-82.1,44.488-106.8,81.581-26.342,39.489-36.864,92.56-14.336,140.678" transform="translate(198.529 209.067)"/><path class="e" d="M1051.695-130.73a499.735,499.735,0,0,1-42.957,113.515c-8.371,15.978-17.715,31.957-30.029,46.018-31.36,35.655-77.235,54.783-121.754,67.543q-15.9,4.565-32.1,8.149a612.124,612.124,0,0,1-94.72,13.422c-42.573,2.693-85.734,1.073-131.43,3.447s-92.621,15.294-131.891,26.912c-47.616,13.947-97.331,10.865-142.8,23.739-31.1,8.788-61.824,23.054-85.35,43.872a130.247,130.247,0,0,0-27.341,33.372c-28.365,50.218-15.155,112.944-3.507,170.283q1.741,8.491,3.354,17.051c16.666,89.456,11.392,180.3-34.97,257.776-14.157,23.717-32.614,48.825-59.213,65.534C79.048,783.756,36.732,793.114.969,808.5c-2.816,1.21-5.632,2.465-8.4,3.766C-49.361,831.873-83.153,860.611-104.2,898c-22.451,39.809-29.261,91.3-5.709,137.071" transform="translate(200.732 202.359)"/><path class="e" d="M1034.145-136A461.856,461.856,0,0,1,992.212-26.434,236.98,236.98,0,0,1,963.08,17.78c-30.054,34.6-73.037,54.988-115.456,69.255q-15.129,5.113-30.72,9.336a595.028,595.028,0,0,1-91.034,17.188c-40.96,4.565-82.97,4.908-127.078,8.126s-89.6,14.905-128.154,24.744c-50.278,12.805-102.5,9.016-150.886,21.16-33.1,8.446-65.971,22.529-91.392,43.849a135.262,135.262,0,0,0-29.568,34.239c-30.8,52.021-17.69,117.075-6.272,176.652q1.69,8.834,3.251,17.736c16.077,93.063,10.24,188.042-41.19,267.226-14.618,22.553-33.28,46.132-58.726,62.544C59.4,793.254,19.387,804.439-14.1,821.65c-2.56,1.37-5.274,2.762-7.859,4.177C-61.1,847.535-91.282,878.053-108.69,915.74c-18.56,40.128-21.658,89.866,2.893,133.465" transform="translate(202.615 195.599)"/><path class="e" d="M1016.968-141.19a424.366,424.366,0,0,1-40.96,105.32A245.081,245.081,0,0,1,947.516,6.769c-28.672,33.532-68.762,55.1-109.056,70.944-9.6,3.789-19.354,7.3-29.184,10.523a573.366,573.366,0,0,1-87.347,20.977c-39.6,6.346-80.154,8.742-122.675,12.806S512.9,136.445,474.812,144.571c-53.12,11.413-107.52,7.03-158.925,18.626-35.123,7.944-70.144,21.959-97.28,43.689a140.464,140.464,0,0,0-31.8,35.152c-33.28,53.5-20.48,121.184-9.293,183q1.664,9.13,3.123,18.4c15.514,96.6,9.216,196.031-47.411,276.7-15.053,21.411-33.869,43.37-58.189,59.508C40.3,802.65,2.466,815.821-28.766,834.721c-2.56,1.484-4.915,3.036-7.322,4.565C-72.2,862.6-99.048,895.552-112.76,933.376c-14.694,40.4-14.08,88.5,11.494,129.835" transform="translate(204.099 188.942)"/><path class="e" d="M1000.253-146.42a388.192,388.192,0,0,1-39.91,101.257,257.148,257.148,0,0,1-27.7,41.087c-27.418,32.482-64.614,55.217-102.81,72.656-9.088,4.177-18.355,8.058-27.725,11.687A555.159,555.159,0,0,1,718.5,105.033c-38.118,8.172-77.363,12.554-118.323,17.485S517.079,136.4,479.5,142.9c-55.885,9.678-112.794,5.067-167.04,15.978-37.146,7.464-74.317,21.388-103.245,43.53a145.868,145.868,0,0,0-34.022,36.02c-35.84,55.1-23.04,125.293-12.186,189.343,1.05,6.323,2.074,12.691,3.021,19.083,14.925,100.138,8.55,204.294-53.76,286.149-15.36,20.338-34.483,40.7-57.677,56.518C21.566,812.1-14.019,827.14-42.972,847.843q-3.4,2.42-6.758,5c-33.281,25.609-56.587,59.977-66.56,98.153-10.8,40.722-6.477,87.15,20.1,126.229" transform="translate(205.146 182.234)"/><path class="e" d="M984.333-151.65a356.174,356.174,0,0,1-38.886,97.217,281.341,281.341,0,0,1-26.931,39.307C892.4,16.259,858.1,40.181,822.029,59.218c-8.6,4.565-17.382,8.834-26.266,12.851a536.271,536.271,0,0,1-79.923,28.578c-36.608,9.975-74.573,16.366-113.92,22.141s-79.77,13.285-116.966,18.261c-58.6,7.807-117.939,3.036-175.155,13.376-39.142,7.076-78.464,20.932-109.21,43.37a150.863,150.863,0,0,0-36.224,37.024c-38.4,56.7-25.6,129.424-15.1,195.712,1.05,6.528,2.022,13.125,2.944,19.745,14.336,103.677,8.166,212.832-59.9,295.6A291.638,291.638,0,0,1,35.162,799.4c-31.514,22.142-64.87,39.1-91.622,61.631-2.1,1.78-4.173,3.583-6.221,5.432-30.551,27.928-50.37,63.783-56.6,102.4-6.912,41.087,1.126,85.8,28.723,122.622" transform="translate(205.399 175.526)"/><path class="e" d="M969.111-156.88A325.467,325.467,0,0,1,931.223-63.7a307.052,307.052,0,0,1-26.137,37.618c-24.806,30.336-56.32,55.4-90.189,76.034-8.09,4.93-16.384,9.61-24.806,14.038A516.93,516.93,0,0,1,713.9,96.354a750.438,750.438,0,0,1-109.568,26.821c-37.555,6.574-76.288,12.646-113.229,15.978-61.235,5.638-123.085,1.1-183.245,10.82-41.165,6.642-82.611,20.407-115.2,43.37a156.655,156.655,0,0,0-38.323,37.891c-40.96,58.275-28.16,133.51-17.92,202.035,1,6.848,1.971,13.7,2.842,20.544C153.009,561.1,147.3,675.5,73.111,758.884a353.948,353.948,0,0,1-56.627,50.492c-29.9,21.708-61,40.562-85.5,64.8-1.92,1.917-3.814,3.858-5.683,5.843-27.778,30.189-44.14,67.436-46.746,106.415-3.021,41.361,8.73,84.457,37.35,119.016" transform="translate(204.954 168.818)"/><path class="e" d="M954.741-162.11C934.619-73.225,869.365,4.909,785.422,55.9s-185.754,76.239-287.283,81.535c-63.8,3.31-128.256-.89-191.334,8.195s-127.1,34.239-161.818,81.992c-43.52,59.873-30.72,137.642-20.89,208.4C140.354,552.441,140.123,682.55,54.44,771.572,11.765,815.9-48.6,845.552-86.206,893.373c-52.122,66.31-48.077,163.436,9.421,226.116" transform="translate(203.632 162.11)"/></g><g transform="translate(230.246 672.258)"><path class="e" d="M89.94,680.04A1569.443,1569.443,0,0,1,218.964,539.43c20.48-19.79,42.163-39.489,69.324-51.29,69.453-30.108,152.5-.867,217.907,35.723A887.631,887.631,0,0,1,671.828,643.084c49.2,45.013,93.363,95.87,152.985,129.379s141.44,45.949,199.04,9.724c34.278-21.548,54.912-57.317,62.72-94.044s3.968-74.664-2.714-111.574c-7.68-42.274-18.867-86.352-3.917-127.028,15.514-42.114,60.339-74.368,109.773-78.979,70.323-6.574,132.147,37.092,191.437,71.469,75.289,43.689,162.79,76.217,252.467,71.606s180.326-53.5,207.232-129.927" transform="translate(-89.94 -197.471)"/><path class="e" d="M93.57,694.453A1447.235,1447.235,0,0,1,220.8,556.6c20.275-19.311,41.7-38.508,68.4-50.1,53.632-23.283,115.379-11.413,170.726,11.413q22.36,9.316,43.52,20.7a871.085,871.085,0,0,1,164.275,113.56c49.024,43.073,92.954,92.241,151.936,124.448,33.075,18.1,72.269,30.5,110.874,32.733,33.613,1.918,66.97-4.04,94.848-21.046a131.985,131.985,0,0,0,14.157-9.952c27.366-22.164,43.981-54.03,51.2-86.74a222.78,222.78,0,0,0,4.634-31.409c2.048-27.688-.359-55.7-3.917-83.087-5.606-43.37-13.082-87.9,3.789-128.489s59.7-71.674,107.955-76.376c68.685-6.734,129.254,34.422,187.213,66.378,4.582,2.534,9.19,5,13.849,7.441,70.349,36.682,149.965,62.156,230.861,56.312,86.246-6.232,172.723-54.783,197.709-129.584" transform="translate(-84.277 -195.381)"/><path class="e" d="M97.2,715.108A1344.77,1344.77,0,0,1,222.64,580.045c20.07-18.854,41.267-37.526,67.482-48.939,52.685-22.826,113.178-12.235,167.654,9.13q22.028,8.7,42.957,19.4A854.418,854.418,0,0,1,663.6,667.561c48.794,41.087,92.6,88.634,151.04,119.723,34.33,18.261,74.547,31.227,114.33,34.011,34.56,2.282,69.12-3.219,98.074-20.338a128.408,128.408,0,0,0,14.694-10.112c28.518-22.575,45.542-55.4,53.376-89.022a240.919,240.919,0,0,0,5.12-32.573c2.56-28.442,1.177-57.248-1.126-85.3-3.533-44.6-7.3-89.41,11.494-129.972,17.92-38.508,59.11-68.958,106.189-73.774,67-6.848,126.336,31.728,182.989,61.288q6.682,3.424,13.517,6.848c68.685,33.806,145.741,56.381,223.411,49.008,82.79-7.829,165.12-56.244,188.186-129.2" transform="translate(-78.614 -199.715)"/><path class="e" d="M100.82,736.448a1250.525,1250.525,0,0,1,123.7-132.392c19.814-18.375,40.781-36.522,66.56-47.752,51.686-22.529,110.95-13.011,164.557,6.848q21.731,8.21,42.445,18.352A837.473,837.473,0,0,1,659.566,683.742c48.64,39.307,92.288,84.982,149.939,114.93,35.61,18.489,76.8,31.957,117.76,35.289,35.533,2.853,71.347-2.42,101.3-19.653a130.963,130.963,0,0,0,15.36-10.249c29.645-23.009,47.078-56.814,55.475-91.487a265.638,265.638,0,0,0,5.734-33.486c3.174-29.218,2.688-58.823,1.638-87.539-1.485-45.766-1.613-90.848,19.2-131.433,18.816-36.727,58.522-66.2,104.422-71.2,65.331-7.053,123.418,29.058,178.739,56.2q6.554,3.218,13.209,6.3c67.047,30.929,141.517,50.628,215.936,41.726,79.36-9.473,157.542-57.636,178.714-128.854" transform="translate(-72.967 -204.666)"/><path class="e" d="M104.45,757.863A1159.567,1159.567,0,0,1,226.357,628.369c19.61-17.918,40.346-35.563,65.638-46.588,50.739-22.141,108.774-13.7,161.485,4.68q21.366,7.489,41.8,16.869a821.092,821.092,0,0,1,160.077,96.577C703.746,737.3,747.343,781.191,804.277,810c36.89,18.672,79.13,32.687,121.242,36.522,36.454,3.332,73.523-1.575,104.525-18.946a136,136,0,0,0,15.846-10.386c30.72-23.442,48.64-58.23,57.574-93.93a291.712,291.712,0,0,0,6.323-34.376c3.738-29.971,4.2-60.4,4.429-89.8.563-46.908,3.994-92.241,26.88-132.894,19.686-34.924,57.907-63.548,102.63-68.593,63.667-7.19,120.5,26.387,174.541,51.108,4.25,1.963,8.55,3.858,12.8,5.729,65.382,28.053,137.293,44.854,208.486,34.422,75.878-11.094,149.965-58.983,169.19-128.466" transform="translate(-67.304 -209.669)"/><path class="e" d="M108.08,779.238A1077.892,1077.892,0,0,1,228.2,652.507c19.379-17.439,39.859-34.559,64.691-45.4,49.792-21.753,106.573-14.563,158.413,2.4,14.182,4.565,28.006,9.952,41.216,15.613a803.986,803.986,0,0,1,158.72,90.894c48.179,35.518,91.725,77.609,147.917,105.3,38.17,18.832,81.382,33.395,124.7,37.846,37.4,3.789,75.7-.776,107.725-18.261a141.294,141.294,0,0,0,16.435-10.523c31.923-23.854,50.176-59.622,59.673-96.35a310.465,310.465,0,0,0,6.887-35.312c4.326-30.724,5.657-61.95,7.219-92.013,2.56-48.095,9.523-93.588,34.611-134.355,20.48-33.166,57.293-60.855,100.839-66.013,61.978-7.35,117.581,23.716,170.291,46.018,4.173,1.757,8.346,3.492,12.57,5.159,63.718,25.109,133.12,39.1,201.011,27.14,72.448-12.737,142.387-60.375,159.693-128.123" transform="translate(-61.642 -214.632)"/><path class="e" d="M111.71,800.639A1001.2,1001.2,0,0,1,230.059,676.67c19.174-16.959,39.424-33.577,63.769-44.237,48.819-21.365,104.371-15.316,155.341.16,13.952,4.2,27.571,9.131,40.627,14.312a788.548,788.548,0,0,1,157.338,85.256c47.949,33.6,91.443,73.8,146.893,100.435,39.475,18.991,83.661,34.239,128.154,39.124,38.4,4.268,77.875,0,110.925-17.553a139.306,139.306,0,0,0,17-10.66c33.075-24.287,51.738-61.037,61.8-98.769a348.811,348.811,0,0,0,7.475-36.225c4.89-31.5,7.142-63.525,10.01-94.272,4.557-49.236,14.95-94.98,42.291-135.816,21.094-31.363,56.678-58.116,99.046-63.32,60.339-7.51,114.688,21.046,166.093,40.95,4.045,1.552,8.141,3.082,12.237,4.565,62.08,22.278,128.845,33.326,193.562,19.836,68.992-14.335,134.784-61.631,150.2-127.827" transform="translate(-55.979 -219.622)"/><path class="e" d="M115.34,822.005A931.554,931.554,0,0,1,231.9,700.844c18.944-16.5,38.963-32.6,62.848-43.073,47.872-20.977,102.2-16.115,152.269-2.123,13.722,3.789,27.162,8.263,40.064,13.057a774.445,774.445,0,0,1,155.93,79.572c47.744,31.706,91.213,70.031,145.92,95.665,40.806,19.128,85.965,34.833,131.635,40.4,39.27,4.725,80.051.845,114.15-16.869a140.791,140.791,0,0,0,17.562-10.82c34.227-24.7,53.274-62.407,64-101.189,3.354-12.326,5.939-24.789,8.013-37.138,5.479-32.253,8.678-65.077,12.8-96.486,6.6-50.423,20.3-96.372,50-137.3,21.555-29.674,56.089-55.422,97.28-60.809,58.65-7.669,111.744,18.261,161.869,35.86q5.914,2.054,11.9,3.995c60.416,19.4,124.621,27.574,186.112,12.554,65.536-15.978,127.181-63.114,140.8-127.393" transform="translate(-50.316 -224.598)"/><path class="e" d="M119,843.394a867.882,867.882,0,0,1,114.816-118.4c18.713-15.978,38.4-31.614,61.9-41.886,46.925-20.544,99.84-16.8,149.171-4.383,13.517,3.4,26.752,7.419,39.5,11.778a757.383,757.383,0,0,1,154.547,73.911c47.539,29.811,91.008,66.2,144.87,90.825,42.112,19.265,88.243,35.563,135.066,41.681,40.243,5.2,82.253,1.666,117.376-16.184A138.844,138.844,0,0,0,1054.4,869.8c35.354-25.109,54.835-63.913,66.022-103.608,3.533-12.646,6.3-25.429,8.6-38.051,6.042-33.03,10.24-66.63,15.565-98.746,8.678-51.564,25.6-97.742,57.7-138.738,21.965-28.008,55.475-52.729,95.514-58.23,56.986-7.829,108.826,15.7,157.619,30.77,3.84,1.187,7.68,2.283,11.6,3.424,58.88,16.5,120.32,21.8,178.637,5.25,62.106-17.6,119.6-64.461,131.174-127" transform="translate(-44.606 -229.575)"/><path class="e" d="M122.59,864.757A809.66,809.66,0,0,1,235.614,749.142c18.585-15.544,38.041-30.632,60.979-40.653,45.952-20.2,97.766-17.576,146.1-6.665,13.286,3.013,26.342,6.574,38.938,10.523A742.154,742.154,0,0,1,634.769,780.6C682.1,808.49,725.6,842.958,778.615,866.606c43.52,19.357,90.547,36.294,138.547,42.959,41.19,5.661,84.48,2.488,120.6-15.5a145.367,145.367,0,0,0,18.714-11.07c36.506-25.565,56.32-65.237,68.122-106.028,3.712-12.965,6.656-26.045,9.19-38.964,6.6-33.806,11.7-68.2,18.355-100.983,10.7-52.751,30.72-99.157,65.408-140.221,22.272-26.364,54.861-50.012,93.7-55.628,55.322-7.989,105.933,13.034,153.421,25.68,3.738.981,7.5,1.94,11.264,2.853,57.114,13.7,116.173,15.978,171.187-2.032,58.65-19.22,112.026-65.854,121.677-126.662" transform="translate(-39.006 -234.526)"/><path class="e" d="M126.22,886.273A752.184,752.184,0,0,1,237.478,773.421c18.253-15.088,37.555-29.674,60.032-39.535,45-19.836,95.565-18.261,143.027-8.925,13.082,2.6,25.907,5.729,38.4,9.13a728.3,728.3,0,0,1,151.783,62.589c47.1,26,90.624,58.526,142.822,81.193,44.8,19.471,92.8,37.024,142,44.237,42.138,6.141,86.6,3.31,123.8-14.791a146.792,146.792,0,0,0,19.277-11.208c37.658-25.976,57.933-66.63,70.246-108.47,3.891-13.262,7.014-26.661,9.754-39.877,7.194-34.536,13.235-69.757,21.146-103.22,12.8-53.916,35.84-100.618,73.114-141.659,22.528-24.766,54.272-47.319,91.929-53.048,53.76-8.149,102.989,10.363,149.171,20.543,3.661.8,7.3,1.552,10.982,2.283,55.424,10.751,111.923,10.272,163.712-9.336,55.168-20.84,104.422-67.2,112.154-126.3" transform="translate(-33.343 -239.63)"/><path class="e" d="M129.85,907.563A701.7,701.7,0,0,1,239.316,797.518c17.92-14.632,37.12-28.67,59.11-38.371,44.058-19.448,93.389-19.128,139.955-11.185,12.8,2.283,25.6,4.885,37.76,7.943a714.531,714.531,0,0,1,150.4,56.929c46.9,24.1,90.445,54.623,141.824,76.376,46.08,19.539,95.078,37.732,145.459,45.516,43.059,6.6,88.781,4.109,127-14.107a149.157,149.157,0,0,0,19.866-11.413c38.784-26.364,59.469-67.976,72.346-110.821,4.07-13.7,7.373-27.391,10.24-40.79,7.68-35.312,14.746-71.332,23.936-105.457,14.822-55.08,40.678-102.147,80.794-143.143,22.707-23.191,53.76-44.6,90.138-50.423,51.994-8.309,100.1,7.67,144.973,15.476,3.533.616,7.091,1.187,10.65,1.712,53.76,7.875,107.7,4.565,156.16-16.617,51.738-22.484,96.845-68.593,102.656-125.932" transform="translate(-27.68 -244.53)"/><path class="e" d="M133.48,928.88A653.871,653.871,0,0,1,241.154,821.6c17.92-14.152,36.659-27.665,58.214-37.206,43.059-19.037,91.162-19.882,136.858-13.445,12.621,1.78,25.062,4.063,37.2,6.688a699.073,699.073,0,0,1,148.992,51.245c46.694,22.21,90.291,50.743,140.8,71.56,47.539,19.585,97.28,38.462,148.915,46.794,44.032,7.076,90.982,4.93,130.253-13.4a149.569,149.569,0,0,0,20.48-11.413c39.936-26.821,61.031-69.414,74.445-113.309,4.224-13.878,7.68-27.894,10.931-41.7,8.32-36.066,16.333-72.861,26.7-107.671,17-56.221,45.542-103.768,88.5-144.627,22.835-21.685,53.069-41.909,88.371-47.821,50.33-8.468,97.28,4.976,140.8,10.386,3.456.411,6.886.8,10.24,1.141,52.121,4.976,103.449-1.255,148.787-23.922,48.281-24.1,89.241-69.939,93.158-125.544" transform="translate(-22.018 -249.481)"/><path class="e" d="M137.11,950.353a607.82,607.82,0,0,1,105.907-104.5c17.613-13.7,36.2-26.707,57.267-36.043,42.112-18.672,88.986-20.544,133.786-15.7,12.39,1.37,24.653,3.2,36.608,5.41a684.757,684.757,0,0,1,147.61,45.652c46.49,20.292,90.163,46.794,139.8,66.744,48.9,19.608,99.661,39.17,152.371,48.072,44.979,7.533,93.158,5.73,133.453-12.714a151.9,151.9,0,0,0,21.018-11.641c40.96-27.254,62.566-70.761,76.544-115.729,4.4-14.2,8.09-28.533,11.494-42.617,8.909-36.841,17.92-74.436,29.491-109.931,19.072-57.385,50.278-105.48,96.2-146.088,23.04-20.224,52.454-39.215,86.6-45.241,48.64-8.628,94.259,2.283,136.5,5.3,3.328.228,6.656.411,10.01.571,50.483,2.1,99.226-7.008,141.312-31.2,44.851-25.816,81.664-71.469,83.737-125.247" transform="translate(-16.355 -254.496)"/><path class="e" d="M140.73,971.728A567.436,567.436,0,0,1,244.871,869.992c17.382-13.194,35.84-25.7,56.32-34.856,41.165-18.261,86.784-21.434,130.714-17.987,12.186.959,24.218,2.283,36.045,4.132A673.672,673.672,0,0,1,614.176,861.25c46.285,18.421,90.01,42.868,138.8,61.927,50.278,19.63,101.939,39.9,155.827,49.35,45.9,8.012,95.334,6.551,136.678-12.007a154.853,154.853,0,0,0,21.555-11.778c42.214-27.688,64.128-72.245,78.669-118.148,4.582-14.518,8.448-29.172,12.083-43.553,9.472-37.595,19.379-75.988,32.282-112.145,21.12-58.549,54.912-107.283,103.911-147.548,22.912-18.809,51.84-36.522,84.787-42.639,47-8.788,91.341-.365,132.3.205h9.677c48.819-.776,95-12.783,133.862-38.508,41.4-27.392,74.086-72.679,74.24-124.836" transform="translate(-10.708 -259.46)"/><path class="e" d="M144.36,993.2a527.981,527.981,0,0,1,102.4-98.929,295.232,295.232,0,0,1,55.4-33.691c40.192-17.9,84.48-22.233,127.642-20.247,11.955.548,23.808,1.529,35.456,2.853A660.449,660.449,0,0,1,610.1,877.422c46.08,16.5,89.856,38.8,137.754,57.066,51.686,19.63,104.217,40.653,159.309,50.651,46.848,8.446,97.51,7.373,139.878-11.413a157.477,157.477,0,0,0,22.144-11.915c43.366-28.122,65.664-73.637,80.768-120.591,4.762-14.814,8.806-29.674,12.646-44.442,10.035-38.371,20.89-77.609,35.072-114.4,23.168-59.69,59.443-109.292,111.616-148.986,23.04-17.462,51.2-33.806,83.021-40.06,45.312-8.948,88.422-3.036,128-4.885,3.123-.137,6.246-.342,9.37-.571,47.155-3.652,90.777-18.535,126.413-45.789,37.939-28.989,66.56-74.071,64.64-124.471" transform="translate(-5.045 -264.539)"/><path class="e" d="M148,1014.521a492.518,492.518,0,0,1,100.583-96.167,306.389,306.389,0,0,1,54.477-32.5c39.245-17.508,82.406-23.009,124.569-22.53,11.725.16,23.4.708,34.867,1.6A647.4,647.4,0,0,1,605.856,893.5c45.85,14.609,89.728,34.947,136.755,52.294,53.094,19.585,106.5,41.361,162.739,51.907,47.821,8.925,99.712,8.195,143.1-10.614a160.992,160.992,0,0,0,22.733-12.052c44.493-28.464,67.3-75.052,82.893-123.01,4.941-15.134,9.19-30.4,13.235-45.356,10.6-39.124,22.4-79.116,37.862-116.642,25.216-60.878,63.872-111.437,119.3-150.47,23.04-16.138,50.637-31.089,81.229-37.458,43.674-9.13,85.53-5.706,123.853-9.975,3.021-.342,6.042-.73,9.037-1.141,45.517-6.551,86.554-24.31,118.938-53.094,34.509-30.587,58.88-75.326,55.142-124.106" transform="translate(0.634 -269.452)"/><path class="e" d="M151.62,1036.1a457.553,457.553,0,0,1,98.816-93.587,320.327,320.327,0,0,1,53.53-31.318c38.4-17.143,80.2-23.808,121.5-24.789q17.28-.411,34.3.32a634.587,634.587,0,0,1,142.054,22.826c45.645,12.714,89.6,30.952,135.68,47.456,54.528,19.516,108.8,42.091,166.221,53.208,48.768,9.382,101.888,8.993,146.33-9.929a162.559,162.559,0,0,0,23.3-12.212c45.645-28.943,68.762-76.422,84.966-125.43,5.12-15.43,9.549-31.021,13.824-46.269,11.161-39.877,23.91-80.668,40.627-118.879,27.289-62.019,68.224-113.766,127-151.908,23.04-14.883,50.048-28.4,79.36-34.878,41.984-9.268,82.586-8.377,119.6-15.065,2.918-.525,5.837-1.1,8.73-1.712,43.4-9.08,82.441-30.223,111.488-60.375,31.027-32.231,51.2-76.81,45.619-123.741" transform="translate(6.281 -274.531)"/><path class="e" d="M155.25,1057.275a426.577,426.577,0,0,1,97.024-90.6A337.281,337.281,0,0,1,304.882,936.5c37.325-16.731,78.029-24.629,118.426-27.026,11.29-.708,22.554-1,33.715-.982a623.825,623.825,0,0,1,140.672,17.28c45.44,10.8,89.6,26.935,134.733,42.639,55.936,19.425,111.078,42.89,169.7,54.464,49.69,9.861,104.064,9.815,149.53-9.245a162.165,162.165,0,0,0,23.859-12.326c46.8-29.377,70.323-77.837,87.04-127.827,5.274-15.75,9.907-31.637,14.387-47.182,11.75-40.654,25.446-82.174,43.52-121.116,29.338-63.183,72.5-116.3,134.733-153.392a276.655,276.655,0,0,1,77.67-32.276c40.32-9.4,79.667-11.048,115.379-20.156,2.816-.707,5.606-1.484,8.4-2.283,41.847-12.147,78.275-35.85,104.013-67.68,27.6-33.851,43.725-78.157,36.122-123.375" transform="translate(11.944 -279.405)"/><path class="e" d="M158.87,1078.7a397.589,397.589,0,0,1,95.258-87.835,360.331,360.331,0,0,1,51.686-28.989,369.73,369.73,0,0,1,115.354-29.309c11.059-1.119,22.118-1.826,33.152-2.283a613.7,613.7,0,0,1,139.29,11.6c45.21,8.9,89.344,22.826,133.709,37.823,57.37,19.288,113.357,43.529,173.133,55.741,50.637,10.34,106.24,10.637,152.755-8.537a165.828,165.828,0,0,0,24.422-12.463c47.923-29.811,71.859-79.253,89.191-130.269,5.453-15.978,10.24-32.276,14.976-48.117,12.313-41.407,26.957-83.795,46.08-123.261,31.385-64.37,76.8-119.038,142.413-154.875a322.414,322.414,0,0,1,75.878-29.674c38.656-9.564,76.8-13.7,111.155-25.246,2.714-.913,5.427-1.849,8.09-2.853,40.333-15.242,74.192-41.516,96.691-75.03,24.141-35.495,36.122-79.549,26.624-123.01" transform="translate(17.591 -284.42)"/><path class="e" d="M162.5,1099.95a369.473,369.473,0,0,1,93.44-85.05c48.027-31.456,104.027-51.843,163.021-59.348,10.829-1.529,21.709-2.693,32.563-3.515a601.369,601.369,0,0,1,137.907,5.935c45,7.008,89.216,18.877,132.685,33.007,58.88,19.105,115.661,44.237,176.64,57.065,51.584,10.8,108.416,11.413,155.955-7.852a167.212,167.212,0,0,0,25.011-12.6c49.075-30.244,73.421-80.645,91.29-132.711,5.632-16.366,10.624-32.893,15.539-49.008,12.8-42.182,28.493-85.347,49-125.544,33.459-65.511,80.845-121.983,150.118-156.314a392.747,392.747,0,0,1,74.24-27.095c36.992-9.724,73.83-16.389,106.931-30.336,2.56-1.1,5.12-2.283,7.68-3.424,38.671-18.33,69.853-47.092,89.088-82.174,20.685-37.092,28.544-80.919,17.1-122.645" transform="translate(23.254 -289.255)"/><path class="e" d="M166.13,1121.467c57.062-75.052,151.04-124.654,250.726-142.778s204.262-6.391,300.186,23.671c60.288,18.9,117.914,44.99,180.045,58.3s132.045,12.3,184.781-19.882c65.971-40.289,87.987-116.414,109.517-185.052,35.4-112.944,92.16-233.032,209.587-285.624,58.573-26.181,127.1-32.755,182.5-63.913,76.8-43.233,115.2-134.218,89.216-211.827" transform="translate(28.916 -294.36)"/></g><g transform="translate(-676.429 -340.312)"><path class="e" d="M-264.23,29.492A1668.926,1668.926,0,0,1-108.889-88.086c24.166-16.161,49.459-31.957,78.566-39.284,74.394-18.535,150.17,23.671,207,70.168A835.384,835.384,0,0,1,315.584,86.717C354.88,138.9,388.032,196.009,439.9,238.58s129.818,67.931,193.818,41.567c38.067-15.682,65.587-47.547,80.691-82.425s19.021-72.793,19.917-110.182c1.024-42.8-1.1-87.972,21.837-125.544,23.757-38.8,74.393-63.434,123.93-60.033,70.528,4.862,122.5,57.75,173.85,101.1,65.229,55.034,144.717,101.1,233.779,111s188.186-23.648,230.093-94.5" transform="translate(264.23 171.561)"/><path class="e" d="M-262,35.281A1546.6,1546.6,0,0,1-108.963-79.831c23.833-15.75,48.819-31.158,77.414-38.279,57.472-14.289,115.789,7.282,165.606,38.8a464.069,464.069,0,0,1,38.63,27.391A819.117,819.117,0,0,1,311.44,86.115c39.424,50.263,72.7,105.685,124.211,146.932,28.877,23.146,64.9,41.635,102.4,50.035,32.666,7.3,66.688,6.848,97.562-5.433a139.544,139.544,0,0,0,15.923-7.533c31.411-17.394,54.144-46.063,67.968-76.993a227.8,227.8,0,0,0,10.906-30.4c7.68-26.889,10.906-54.783,12.928-82.334,3.277-43.621,4.941-88.566,29.722-125.772s73.242-60.9,121.651-57.773c68.915,4.428,120.166,54.646,170.726,95.413,3.968,3.2,8.013,6.391,12.109,9.519,61.773,47.41,135.014,85.256,215.68,92.515,86.093,7.761,180.992-26.2,220.672-95.642" transform="translate(267.709 183.394)"/><path class="e" d="M-259.69,41.111A1428.651,1428.651,0,0,1-108.957-71.559c23.526-15.316,48.153-30.29,76.262-37.275,56.448-14.061,113.792,6.163,163.021,36q19.938,12.121,38.4,26.022A804.065,804.065,0,0,1,307.094,85.576c39.6,48.3,73.088,102.01,124.186,142.047,30.157,23.465,67.021,42.639,105.574,51.77,33.51,7.921,68.659,7.943,100.582-4.246a138.745,138.745,0,0,0,16.512-7.555c32.614-17.645,55.987-47.2,70.5-79.047a245.018,245.018,0,0,0,11.648-31.2c8.346-27.551,12.8-56.13,16.154-84.092,5.53-44.42,10.906-89.022,37.581-125.978,25.344-35.015,72.09-58.321,119.373-55.513,67.3,4.017,117.76,51.542,167.578,89.73q5.914,4.565,11.93,8.9c60.723,44.328,131.943,78.91,209.92,84.16,83.021,5.592,173.8-28.784,211.251-96.829" transform="translate(271.312 195.209)"/><path class="e" d="M-257.41,52.123A1326.861,1326.861,0,0,1-108.93-58.105c23.219-14.883,47.513-29.377,75.11-36.271,55.424-13.833,111.8,5.067,160.461,33.3q19.706,11.447,38.016,24.652A789.993,789.993,0,0,1,302.9,90.105c39.783,46.474,73.421,98.472,124.058,137.185,31.283,23.9,69.12,43.781,108.723,53.641,34.355,8.537,70.656,9.131,103.6-3.036a138.549,138.549,0,0,0,17.1-7.624c33.818-17.85,57.8-48.3,73.088-81.079a275.115,275.115,0,0,0,12.39-31.957c9.037-28.213,14.541-57.431,19.328-85.849C769,26.146,777.982-18.228,806.654-54.8c25.933-33.121,71.066-55.81,117.146-53.276,65.69,3.584,115.507,48.437,164.454,84.023q5.786,4.2,11.725,8.309c59.674,41.2,128.947,72.564,203.955,75.783,79.949,3.424,166.63-31.363,201.83-98.016" transform="translate(274.869 201.796)"/><path class="e" d="M-255.14,65.984A1230.939,1230.939,0,0,1-109.04-41.8c22.912-14.472,46.848-28.487,73.958-35.266,54.4-13.7,109.8,3.926,157.9,30.564,13.158,7.259,25.779,15.179,37.709,23.328A773.191,773.191,0,0,1,298.46,97.553c40.013,44.557,73.958,94.751,124.211,132.232,32.486,24.31,71.194,44.876,111.846,55.468,35.174,9.13,72.627,10.272,106.624-1.826a140.152,140.152,0,0,0,17.69-7.67c35.046-18.1,59.622-49.442,75.648-83.11a301.2,301.2,0,0,0,13.158-32.824c9.754-28.875,16.333-58.732,22.528-87.607C780.2,26.152,792.745-17.879,823.49-54.173c26.419-31.181,69.811-53.185,114.816-50.971,64,3.15,113.177,45.333,161.28,78.339,3.789,2.6,7.68,5.182,11.52,7.692,58.624,38.12,125.952,66.2,198.093,67.406,76.8,1.278,159.437-33.92,192.41-99.157" transform="translate(278.41 205.602)"/><path class="e" d="M-252.87,79.8A1145.229,1145.229,0,0,1-109.075-25.54C-86.5-39.578-62.995-53.114-36.268-59.779c53.376-13.376,107.776,2.83,155.341,27.848,13.03,6.848,25.6,14.289,37.376,21.982a759.661,759.661,0,0,1,137.728,114.93c40.192,42.639,74.522,91.031,124.186,127.324,33.741,24.675,73.4,45.949,115,57.271,36.019,9.77,74.624,11.413,109.645-.639a143.688,143.688,0,0,0,18.3-7.692c36.224-18.261,61.44-50.583,78.182-85.164a333.217,333.217,0,0,0,13.926-33.623c10.47-29.537,18.073-60.033,25.6-89.364,12.262-46.839,28.39-90.551,61.312-126.594,26.778-29.309,68.659-50.628,112.64-48.711,62.464,2.739,110.848,42.251,158.208,72.679q5.606,3.584,11.315,7.076c57.6,34.993,122.88,59.85,192.23,59.029,73.83-.867,152.243-36.522,182.989-100.435" transform="translate(281.952 209.405)"/><path class="e" d="M-250.6,93.605A1065.959,1065.959,0,0,1-109.109-9.273c22.272-13.7,45.568-26.684,71.68-33.258C14.923-55.7,68.35-40.841,115.352-17.422c12.8,6.369,25.293,13.376,37.069,20.544A744.472,744.472,0,0,1,289.893,112.368c40.371,40.745,75.034,87.287,124.083,122.348C449.048,259.825,489.47,281.83,532.2,293.9c36.864,10.34,76.6,12.554,112.64.548a146.454,146.454,0,0,0,18.867-7.761c37.453-18.558,63.232-51.7,80.768-87.2,5.581-11.413,10.24-22.826,14.643-34.445,11.187-30.176,19.891-61.311,28.928-91.1,14.438-47.707,33.894-91.031,69.12-126.8C884.2-80.239,924.67-100.783,967.422-99.276c60.851,2.283,108.518,39.147,155.085,66.972,3.661,2.283,7.373,4.36,11.11,6.46,56.551,31.911,120.038,53.5,186.368,50.56,70.758-3.013,145.05-39.033,173.568-101.508" transform="translate(285.493 213.225)"/><path class="e" d="M-248.33,107.458A990.6,990.6,0,0,1-109.143,7.022c21.965-13.194,44.9-25.817,70.5-32.253,51.354-12.942,103.782.571,150.2,22.392,12.8,5.935,25.062,12.486,36.787,19.288A729.606,729.606,0,0,1,285.609,119.784c40.55,38.8,75.571,83.544,124.134,117.532,36.275,25.383,77.491,48.095,121.293,60.923,37.709,10.957,78.592,13.7,115.712,1.758A146.7,146.7,0,0,0,666.2,292.19c38.656-18.786,65.024-52.843,83.328-89.25,5.811-11.6,10.854-23.442,15.36-35.244,11.955-30.838,21.862-62.612,32.1-92.857,16.691-48.528,39.45-91.51,76.954-126.982,27.238-25.748,66.406-45.515,108.032-44.192,59.238,1.895,106.189,36.043,151.962,61.288,3.584,1.986,7.245,3.949,10.906,5.843,55.5,28.807,116.992,47.182,180.506,42.3C1393.04,7.912,1463.235-28.518,1489.5-89.624" transform="translate(289.034 217.017)"/><path class="e" d="M-246,126.3a921.387,921.387,0,0,1,136.73-97.993C-87.613,15.548-65.008,3.4-39.894-2.941c50.3-12.714,101.709-.434,147.61,19.676,12.6,5.524,24.806,11.6,36.454,17.941a717.4,717.4,0,0,1,137.19,97.536c40.73,36.978,76.134,79.892,124.134,112.647,37.4,25.725,79.462,49.168,124.186,62.726,38.528,11.573,80.563,14.86,118.733,2.945a147.008,147.008,0,0,0,20.045-7.829c39.885-19.037,66.842-53.961,85.888-91.3,6.067-11.87,11.341-23.99,16.179-36.043,12.621-31.5,23.5-63.913,35.277-94.615,19.072-49.35,45-92.035,84.838-127.073,27.264-24.013,65.229-42.959,105.7-41.909,57.728,1.347,103.961,32.778,148.915,55.6,3.558,1.78,7.117,3.515,10.726,5.227,54.451,25.7,114,40.813,174.643,33.9,64.64-7.327,130.688-44.169,154.726-103.836" transform="translate(292.669 215.795)"/><path class="e" d="M-243.78,149.092A858.753,858.753,0,0,1-109.226,53.564C-87.876,41.238-65.706,29.551-41,23.319c49.28-12.486,99.712-1.552,145.05,16.937,12.467,5.09,24.55,10.705,36.147,16.595a704.067,704.067,0,0,1,136.832,91.761c40.96,35.061,76.8,75.943,124.109,107.74,38.835,26.022,81.69,50.218,127.565,64.53,39.373,12.189,82.56,15.978,121.754,4.154a148.97,148.97,0,0,0,20.634-7.829c40.96-19.288,68.659-55.1,88.474-93.359,6.272-12.143,11.8-24.538,16.922-36.841,13.338-32.162,25.293-65.214,38.4-96.372,21.2-50.218,50.253-92.606,92.7-127.393,27.238-22.347,64-40.38,103.424-39.649,56.038,1.05,101.53,29.834,145.69,49.921,3.482,1.575,6.989,3.127,10.522,4.565,53.4,22.6,111,34.468,168.781,25.542,61.44-9.5,123.494-46.748,145.28-105" transform="translate(296.132 210.626)"/><path class="e" d="M-241.51,171.88A801.8,801.8,0,0,1-109.26,78.772c21.017-11.892,42.957-23.1,67.072-29.24C6.068,37.274,55.5,46.861,100.3,63.775c12.314,4.565,24.32,9.792,35.84,15.225a693.347,693.347,0,0,1,136.627,85.964c40.96,33.166,77.286,72.131,124.058,102.832,40.141,26.364,83.814,51.336,130.714,66.356,40.218,12.806,84.48,17.165,124.774,5.364a154.107,154.107,0,0,0,21.248-7.944c42.291-19.494,70.451-56.221,91.008-95.391,6.5-12.417,12.314-25.109,17.664-37.64,14.054-32.824,27.136-66.493,41.677-98.153,23.475-50.971,55.526-93.222,100.557-127.6,27.187-20.726,62.95-37.823,101.171-37.366,54.426.616,99.226,26.729,142.566,44.214,3.43,1.37,6.861,2.716,10.24,4.017C1230.823,3.149,1286.451,11.754,1341.363.8c58.5-11.619,116.3-49.3,135.859-106.187" transform="translate(299.673 205.483)"/><path class="e" d="M-239.24,194.555a746.226,746.226,0,0,1,129.946-90.643C-88.584,92.5-67,81.7-43.374,75.676,3.858,63.624,52.318,71.887,96.53,87.089c12.186,4.2,24.09,8.9,35.533,13.9a679.313,679.313,0,0,1,136.422,80.325c41.242,31.181,77.927,68.2,124.032,97.856,41.472,26.638,85.914,52.5,133.862,68.159,40.96,13.422,86.528,18.261,127.8,6.551a157.045,157.045,0,0,0,21.837-7.966c43.52-19.745,72.269-57.362,93.568-97.445,6.758-12.691,12.8-25.634,18.432-38.439,14.771-33.509,28.928-67.794,44.877-99.887,25.728-51.793,60.7-93.93,108.416-127.827,27.034-19.174,61.824-35.244,98.867-35.107,52.838.183,96.922,23.648,139.469,38.531,3.354,1.187,6.733,2.283,10.112,3.4,51.3,16.412,105.062,21.8,157.056,8.811,55.45-13.7,109.133-51.884,126.438-107.283" transform="translate(303.214 200.429)"/><path class="e" d="M-237,217.356a692.479,692.479,0,0,1,127.719-88.2C-88.8,118.108-67.63,107.813-44.514,101.9c46.234-11.8,93.7-4.885,137.344,8.788,12.058,3.789,23.834,8.012,35.226,12.554a667.745,667.745,0,0,1,136.192,74.368c41.472,29.354,78.541,64.415,124.032,93.04,42.88,26.912,87.987,53.482,137.011,69.962,41.856,14.038,88.474,19.471,130.79,7.761a157.789,157.789,0,0,0,22.426-8.012c44.723-19.973,74.061-58.481,96.154-99.477,6.963-12.988,13.261-26.227,19.174-39.284,15.488-34.239,30.72-69.049,48.051-101.622,28.16-52.5,65.792-94.729,116.3-128.009,26.829-17.667,60.672-32.687,96.589-32.847,51.2-.228,94.592,20.544,136.346,32.87,3.277.959,6.6,1.895,9.907,2.762,50.278,13.308,102.042,15.43,151.194.411,52.377-15.978,101.939-54.44,117.018-108.516" transform="translate(306.709 195.273)"/><path class="e" d="M-234.69,240.1a646.841,646.841,0,0,1,125.312-85.758c20.1-10.614,40.96-20.429,63.616-26.227,45.21-11.6,91.7-6,134.784,6.049,11.9,3.355,23.654,7.213,34.918,11.208A656.622,656.622,0,0,1,259.9,213.959c41.625,27.437,79.206,60.535,124.134,88.109,44.006,27.186,89.958,54.577,140.032,71.788,42.7,14.654,90.47,20.543,133.837,8.971a160.642,160.642,0,0,0,23.04-8.08c45.926-20.2,75.878-59.6,98.713-101.508,7.219-13.262,13.747-26.775,19.942-40.083,16.2-34.81,32.614-70.327,51.2-103.38,30.336-53.368,70.835-95.687,124.16-128.192,26.6-16.229,59.52-30.131,94.31-30.587,49.613-.662,92.16,17.439,133.12,27.163,3.251.753,6.477,1.484,9.728,2.168,49.229,10.18,99.047,9.13,145.331-7.966,49.306-18.1,94.72-57.065,107.52-109.7" transform="translate(310.312 190.156)"/><path class="e" d="M-232.42,262.89A602.7,602.7,0,0,1-109.54,179.6c19.763-10.2,40.345-19.539,62.464-25.109,44.186-11.413,89.6-7.145,132.224,3.333,11.776,2.9,23.347,6.209,34.586,9.861a645.35,645.35,0,0,1,135.68,62.772c42.01,25.36,80.051,56.449,124.186,83.042,45.491,27.391,92.16,55.65,143.36,73.592,43.52,15.271,92.442,21.8,136.858,10.18a165.678,165.678,0,0,0,23.6-8.126C730.55,368.6,761.09,328.4,784.693,285.58c7.424-13.536,14.208-27.391,20.659-40.882,16.87-35.472,34.381-71.629,54.4-105.069C892.5,85.371,935.477,42.846,991.8,11.163c26.342-14.837,58.368-27.574,92.16-28.327,48-1.073,89.933,14.358,130.074,21.479,3.174.571,6.349,1.1,9.523,1.552,48.179,7.1,96.051,2.716,139.469-16.321,46.234-20.27,87.552-59.6,98.176-110.867" transform="translate(313.854 185.051)"/><path class="e" d="M-230.15,285.61a562.039,562.039,0,0,1,120.7-80.873,310.829,310.829,0,0,1,61.44-24.218c43.162-11.139,87.706-8.24,129.638.616,11.648,2.465,23.04,5.318,34.3,8.514a636.185,636.185,0,0,1,135.526,57.066c41.856,23.6,80.41,52.637,123.827,78.225,46.874,27.551,94.31,56.746,146.458,75.486,44.365,15.978,94.438,22.826,139.878,11.413a163.727,163.727,0,0,0,24.192-8.149c48.333-20.681,79.36-61.882,103.833-105.617,7.68-13.7,14.694-27.871,21.427-41.681,17.638-36.294,36.25-73.044,57.626-107.055,34.893-54.988,80.589-97.947,139.93-128.6C1034.72,7.267,1065.875-4.26,1098.387-5.31c46.387-1.507,87.6,11.23,126.95,15.773,3.1.365,6.221.685,9.344.959,47.13,3.972,93.03-3.629,133.581-24.721,43.187-22.392,80.384-62.156,88.755-112.031" transform="translate(317.395 179.907)"/><path class="e" d="M-227.87,308.324A522.29,522.29,0,0,1-109.5,229.916,320.924,320.924,0,0,1-49.336,206.7c42.138-10.911,85.709-9.382,127.078-2.123,11.52,2.032,22.861,4.565,34,7.167a625.5,625.5,0,0,1,135.3,51.2c42.163,21.73,81.2,48.78,123.955,73.409,48.256,27.8,96.384,57.75,149.581,77.244,45.21,16.458,96.41,24.082,142.9,12.554a165.814,165.814,0,0,0,24.781-8.217c49.562-20.886,81.306-62.977,106.394-107.648,7.91-14.084,15.181-28.419,22.2-42.479,18.355-36.8,38.042-74.231,60.826-108.653,37.12-55.81,85.376-99.34,147.789-128.808,25.8-12.189,56.09-22.438,87.475-23.785,44.774-1.917,85.273,8.149,123.827,10.112,3.046.16,6.093.251,9.139.32,46.08.89,90.035-9.975,127.719-33.075,40.115-24.561,73.19-64.735,79.36-113.218" transform="translate(320.952 174.815)"/><path class="e" d="M-225.6,331.189A486.6,486.6,0,0,1-109.53,255.2a337.53,337.53,0,0,1,58.88-22.21c41.114-10.683,83.712-10.5,124.518-4.839q17.05,2.4,33.664,5.843a614.909,614.909,0,0,1,135.219,45.379c42.342,19.836,81.92,44.853,123.93,68.478,49.664,27.962,98.483,58.869,152.73,79.047,46.08,17.074,98.406,25.246,145.92,13.7a169.583,169.583,0,0,0,25.37-8.263c50.765-21.137,83.123-64.119,108.979-109.7,8.141-14.358,15.642-28.966,23.04-43.37,19.046-37.435,39.834-75.486,64-110.387,39.4-56.609,90.112-100.915,155.674-129.014,25.6-10.934,54.938-19.859,85.2-21.5,43.187-2.283,82.944,5.022,120.7,4.405,2.97,0,5.939-.137,8.934-.3,44.521-1.948,87.194-16.464,121.856-41.452,37.043-26.707,66-67.292,69.914-114.382" transform="translate(324.493 169.595)"/><path class="e" d="M-223.33,353.813a453.179,453.179,0,0,1,113.767-73.523,352.409,352.409,0,0,1,57.856-21.206c40.115-10.477,81.715-11.71,121.958-7.555,11.238,1.118,22.374,2.648,33.28,4.565a607.194,607.194,0,0,1,134.963,39.512c42.5,17.918,82.56,40.882,123.878,63.594,51.2,28.1,100.608,59.964,155.878,80.873,46.874,17.69,100.378,26.387,148.941,14.951a171.12,171.12,0,0,0,25.984-8.286c51.968-21.388,84.89-65.26,111.513-111.848,8.371-14.632,16.128-29.537,23.706-44.1,19.763-38.1,41.651-76.787,67.2-112.145,41.626-57.431,94.72-102.718,163.533-129.219a286.838,286.838,0,0,1,82.867-19.151c41.574-2.785,80.614,1.94,117.555-1.278q4.378-.365,8.755-.89c43.607-5.238,84.223-22.686,115.994-49.83,33.971-28.875,58.88-69.871,60.467-115.546" transform="translate(328.034 164.593)"/><path class="e" d="M-221.06,376.5A421.9,421.9,0,0,1-109.6,305.443a375.128,375.128,0,0,1,56.7-20.2c39.091-10.249,79.718-12.828,119.373-10.295,11.11.685,22.144,1.758,33.075,3.127A601.15,601.15,0,0,1,234.21,311.88c42.675,16.047,83.251,36.91,123.853,58.709,52.557,28.19,102.707,61.037,159.027,82.676,47.718,18.261,102.4,27.551,151.987,16.161a175.46,175.46,0,0,0,26.5-8.331c53.171-21.616,86.707-66.4,114.074-113.811,8.627-14.905,16.614-30.085,24.448-44.9,20.48-38.8,43.52-78.088,70.4-113.9,43.9-58.252,99.507-104.749,171.52-129.4a332.532,332.532,0,0,1,80.64-17.005c39.962-3.2,78.285-1.141,114.432-6.848,2.867-.457,5.709-.982,8.55-1.529,42.674-8.533,81.215-28.912,110.08-58.207,30.925-31.021,51.61-72.427,51.047-116.71" transform="translate(331.575 159.527)"/><path class="e" d="M-218.78,399.314a392.038,392.038,0,0,1,109.133-68.638,406.115,406.115,0,0,1,55.552-19.2A421.43,421.43,0,0,1,62.718,298.468c10.982.251,21.888.867,32.742,1.78a595.015,595.015,0,0,1,134.451,28.008c42.854,14.152,83.942,32.938,123.853,53.824,54.093,28.259,104.781,62.156,162.15,84.48,48.64,18.923,104.346,28.692,155.008,17.371a175.142,175.142,0,0,0,27.136-8.4c54.374-21.845,88.525-67.5,116.659-115.843,8.832-15.179,17.075-30.633,25.19-45.652,21.222-39.421,45.286-79.389,73.6-115.66,46.08-59.051,104.166-106.986,179.2-129.607a404.41,404.41,0,0,1,78.438-14.86c38.4-3.629,75.955-4.268,111.309-12.646,2.79-.662,5.581-1.37,8.346-2.146,41.757-11.782,78.257-35.051,104.269-66.47,27.853-33.166,44.442-75.007,41.626-117.9" transform="translate(335.132 154.358)"/><path class="e" d="M-216.51,421.963c71.3-64.553,173.824-98.153,275.482-100s202.24,26.524,290.483,71.537c55.475,28.3,106.88,63.206,165.3,86.306S642.14,513.13,700.508,489.939c73.062-29.012,110.08-100.321,145.178-164.349C903.362,220.133,983.336,111.138,1109.6,78.314c62.9-16.344,131.635-11.778,192.435-33.532,84.3-30.176,140.391-113.492,130.56-194.023" transform="translate(338.673 149.24)"/></g><g transform="translate(-109.356 -172.448)"><path class="e" d="M-41.8,1263.513c-10.752-77.609,75.162-143.188,161.818-155.218s173.594,12.828,259.482,28.784,182.477,21.205,254.208-23.808c91.7-57.545,112.9-178.592,207.36-232.645,73.523-42.114,169.242-29.514,244.557,1.826,42.6,17.713,78.822,47.524,119.526,68.3,184.653,94.158,197.12,286.606,353.971,315.3,169.728,31.112,261.888-42.731,293.939-93.839,40.96-65.58,109.542-235.794-58.214-354.08-68.173-48.049-135.45-99.271-185.574-162.545-75.085-94.706-74.573-239.538,21.427-317.809,65.792-53.642,166.835-73.272,211.533-142.047,30.029-46.223,25.933-105.822,0-154.054S1771.6-44.771,1722.677-75.7" transform="translate(42.717 75.7)"/><path class="e" d="M-40.565,1263.228c-7.424-79.891,78.029-148.826,167.27-162.568,87.04-13.4,175.488,11.3,261.376,28.9,84.864,17.416,179.2,25.291,250.573-15.613,91.341-52.363,117.018-167.27,211.251-220.615,75.059-42.251,169.242-34.4,246.374-7.008,44.314,15.75,83.584,43.849,126.208,64.895,180.762,89.3,195.738,275.489,349.082,303.794,165.043,30.382,256.717-39.49,290.022-89.89,42.214-63.913,107.52-227.851-51-344.675-65.357-48.209-130.15-100.435-179.482-163.276-72.858-92.492-73.523-232.142,17.075-309.752,62.694-53.687,160.1-75.555,204.6-143.44,30.541-46.428,28.672-105.16,6.118-153.734C1836.119,1.1,1794.545-39.188,1747.646-72.4" transform="translate(45.371 79.933)"/><path class="e" d="M-39.233,1262.879c-4.1-82.061,80.9-154.42,172.723-169.85,87.578-14.7,177.382,9.747,263.27,29.035,83.866,18.831,175.693,29.354,246.963-7.464,90.957-47.159,120.96-156.108,215.219-208.54,76.467-42.571,169.344-39.352,248.166-15.841,46.08,13.7,88.32,40.151,132.915,61.493,176.64,84.64,194.15,264.35,344.192,292.175,160.282,29.674,251.392-36.225,285.978-85.8,43.341-62.133,105.549-220-43.725-335.545-62.592-48.414-124.9-101.554-173.414-164.052-70.656-90.232-72.474-224.792,12.8-301.648,59.571-53.619,153.293-77.7,197.606-144.7,31.053-46.611,31.411-104.544,12.083-153.438-19.712-49.875-57.8-92.309-102.835-127.827" transform="translate(47.93 84.14)"/><path class="e" d="M-37.8,1262.488c-.768-84.3,83.763-160.011,178.176-177.154,88.038-15.978,179.2,8.172,265.165,29.172,82.842,20.224,172.288,33.417,243.328.707,90.6-41.977,125.03-144.855,219.213-196.51,77.952-42.753,169.523-44.351,249.984-24.675,47.9,11.71,93.03,36.522,139.6,58.116,172.493,80.165,192.691,253.211,339.328,280.762,155.469,28.989,246.042-32.961,281.907-81.718,44.442-60.4,103.6-212.283-36.48-326.186C1782.593,776.359,1723,722.284,1675.1,660.22c-68.147-88.178-71.449-217.488,8.371-293.591,56.5-53.847,146.458-80.234,190.746-146.27,31.437-46.954,34.2-104.019,18.1-153.141-16.64-50.765-51.2-95.277-94.438-133.008" transform="translate(50.385 88.411)"/><path class="e" d="M-36.28,1262.175c2.56-86.534,86.63-165.581,183.654-184.435,88.448-17.211,181.094,6.574,267.034,29.263,81.92,21.616,168.96,37.5,239.718,8.88C744.341,1079.109,783.2,982.3,877.307,931.424c79.36-42.959,169.779-49.419,251.776-33.509,49.766,9.656,97.766,32.824,146.278,54.783,168.192,75.9,191.232,242.094,334.464,269.212,150.682,28.327,240.64-29.674,277.862-77.609,45.517-58.664,101.683-204.705-29.209-316.9-57.088-48.917-114.1-103.974-161.28-165.536-65.869-85.963-70.426-210.229,4.019-285.487,53.453-54.052,139.7-82.631,183.859-147.822,31.9-47.045,36.992-103.4,24.09-152.821-13.542-51.7-44.826-98.153-86.042-138.258" transform="translate(52.759 92.605)"/><path class="e" d="M-34.76,1261.762c5.914-88.748,89.6-171.083,189.107-191.74,88.909-18.443,182.989,4.976,268.928,29.4,80.845,22.986,165.555,41.7,236.083,17.051,89.933-31.431,133.12-122.3,227.174-172.429,80.947-43.141,170.061-54.555,253.594-42.32,51.635,7.555,102.4,29.172,152.96,51.313,163.84,71.766,189.773,230.955,329.574,257.685,145.92,27.62,235.341-26.433,273.92-73.546,46.541-56.928,99.84-197.241-21.99-307.56-54.349-49.259-108.749-105.16-155.162-166.289-63.565-83.772-69.427-203.153-.307-277.429,50.3-54.121,132.813-84.845,176.794-149.055,32.41-47.25,39.91-102.878,30.08-152.525-10.394-52.66-38.4-101.211-77.619-143.508" transform="translate(55.13 96.876)"/><path class="e" d="M-33.24,1261.423C-24,1170.437,59.125,1084.816,161.32,1062.4c89.37-19.631,184.858,3.333,270.822,29.537,79.846,24.31,162.15,45.789,232.474,25.109,89.6-26.2,137.216-111,231.142-160.377,82.432-43.37,170.394-59.759,255.385-51.154,53.555,5.433,107.11,25.543,159.667,47.935,159.283,67.817,188.314,219.908,324.71,246.249,141.082,27,229.914-23.215,269.773-69.46,47.565-55.239,97.971-189.96-14.746-298.27a1410.975,1410.975,0,0,1-149.094-167.042c-61.44-81.536-68.454-195.918-4.659-269.349,47.232-54.372,126.131-87.2,169.958-150.493,32.87-47.456,42.752-102.4,36.071-152.205C1935.6,39.194,1911-11.343,1873.7-55.9" transform="translate(57.501 101.096)"/><path class="e" d="M-31.72,1261.057c12.6-93.2,95.232-182.084,200.013-206.326,89.856-20.794,186.88,1.689,272.717,29.674,78.848,25.657,158.72,49.9,228.838,33.395,89.19-21,141.286-99.727,235.136-148.37,83.942-43.507,170.752-65.055,257.2-59.987,55.45,3.242,111.744,21.936,166.4,44.511,154.573,63.913,186.88,208.7,319.846,234.653,136.294,26.227,224.512-19.927,265.728-65.374,48.64-53.528,96.23-182.815-7.475-288.957a1670.473,1670.473,0,0,1-143-167.818c-59.033-79.321-67.507-188.864-9.011-261.246,44.16-54.623,119.373-89.5,163.046-151.886,31.432-45.49,46.13-98.6,42.035-151.908-3.968-54.783-25.318-107.283-60.8-154.008" transform="translate(59.873 105.341)"/><path class="e" d="M-30.2,1260.743c15.872-95.436,98.1-187.563,205.466-213.676,90.317-21.936,188.621,0,274.611,29.788,77.85,26.935,155.366,53.984,225.28,41.543,88.781-15.8,145.382-88.383,239.1-136.272,85.453-43.666,171.136-70.4,259-68.821,57.4,1.027,116.4,18.261,173.03,41.087,149.862,60.261,185.4,197.561,314.88,223.1,131.507,25.566,219.11-16.686,261.709-61.266,49.51-51.861,94.592-175.762-.256-279.666-46.08-50.583-92.774-108.653-136.909-168.548-56.781-77.107-66.56-181.879-13.363-253.165,40.96-54.943,112.64-91.83,156.16-153.323,32-45.37,48.684-97.994,48.051-151.589-1.01-56.333-19.12-111.368-52.4-159.258" transform="translate(62.244 109.535)"/><path class="e" d="M-28.68,1260.342c19.251-97.65,100.992-192.995,210.918-220.911,90.8-23.077,190.515-1.666,276.48,29.925,76.8,28.213,151.936,58.047,221.594,49.715,88.422-10.591,149.478-77.084,243.2-124.243,87.04-43.826,171.52-75.806,260.813-77.609,59.315-1.232,120.986,14.792,179.712,37.732,145.075,56.677,183.91,186.421,310.067,211.576,126.72,24.857,213.658-13.445,257.664-57.2,50.458-50.218,93.082-169.074,7.014-270.354-43.52-51.153-87.5-109.794-130.842-169.3-54.528-74.847-65.766-174.963-17.715-245.085,37.914-55.308,105.882-94.112,149.2-154.716,32.6-45.323,51.243-97.5,54.042-151.292,2.5-57.424-12.754-114.356-44.083-164.577" transform="translate(64.615 113.794)"/><path class="e" d="M-27.16,1260.042c22.579-99.887,103.885-198.428,216.371-228.262,91.29-24.173,192.435-3.355,278.4,30.039,75.9,29.491,148.48,62.156,217.984,57.887,88.013-5.387,153.6-65.74,247.066-112.191,88.5-43.963,171.878-81.261,262.63-86.466,61.21-3.515,125.568,11.277,186.368,34.239,140.262,53.208,182.477,175.305,305.229,200.071,121.907,24.173,208.179-10.249,253.594-53.116,51.4-48.506,91.7-162.5,14.259-261.04-40.7-51.838-82.176-110.958-124.749-170.055-52.3-72.633-65-168.115-22.067-237,34.739-55.719,99.149-96.418,142.259-156.131,34.842-48.232,54.809-100.549,60.032-150.972C2016.285,68.6,2003.962,9.8,1974.632-42.74" transform="translate(66.986 117.975)"/><path class="e" d="M-25.64,1259.587c25.933-102.033,106.778-203.837,221.8-235.52,91.776-25.291,194.33-5.09,280.32,30.176,74.906,30.724,145.1,66.2,214.323,66.059,87.629-.205,157.7-54.417,251.059-100.161,90.035-44.1,172.211-86.739,264.422-95.276,63.155-5.844,130.176,7.784,193.075,30.93,135.373,49.83,180.992,164.166,300.339,188.522,117.146,23.488,202.7-7.008,249.549-49.008,52.3-46.862,90.522-156.085,21.53-251.75-37.914-52.5-76.8-112.1-118.682-170.808-50.074-70.373-64.307-161.336-26.419-228.924,31.514-56.175,92.416-98.723,135.347-157.5,35.354-48.437,57.933-100.093,66.022-150.653,9.627-59.462.2-120.14-27.187-175.031" transform="translate(69.357 122.31)"/><path class="e" d="M-24.12,1259.312c29.261-104.362,109.7-209.225,227.277-242.871,92.16-26.364,196.275-6.848,282.214,30.313,73.933,31.956,141.7,70.259,210.714,74.208,87.245,5,161.792-43.05,255.027-88.086,91.571-44.237,172.57-92.332,266.24-104.133,65.05-8.195,134.707,4.337,199.68,27.551,130.432,46.52,179.481,153.255,295.45,176.995,112.307,23.008,197.12-3.835,245.53-44.922,53.171-45.241,89.6-149.854,28.749-242.46-35-53.368-71.68-113.241-112.64-171.562-47.872-68.113-63.718-154.6-30.72-220.82,28.16-56.678,85.683-101.006,128.41-158.939,35.84-48.62,61.107-99.613,72.038-150.379,13.2-60.474,6.683-123.057-18.791-180.327" transform="translate(71.729 126.466)"/><path class="e" d="M-22.6,1258.873C9.989,1152.3,90.04,1044.307,210.13,1008.766c92.774-27.391,198.2-8.605,284.16,30.427,72.986,33.189,138.24,74.345,207.078,82.4,86.861,10.158,165.914-31.706,259.021-76.057s172.877-97.9,268.032-112.966c66.944-10.569,139.264.959,206.438,24.15,125.44,43.37,178.022,142.138,290.611,165.49,107.52,22.3,191.667-.662,241.459-40.836,54.042-43.644,88.729-143.805,36.019-233.147-32.077-54.281-66.381-114.382-106.573-172.315-45.67-65.876-63.206-147.959-35.123-212.74,24.832-57.248,78.976-103.311,121.5-160.377,36.505-48.78,64.281-99.111,78-150.059A292.361,292.361,0,0,0,2050.385-32.77" transform="translate(74.1 130.763)"/><path class="e" d="M-21.07,1258.52c36.019-108.812,115.507-219.93,238.259-257.456,93.286-28.487,200.141-10.386,286,30.564,72.064,34.376,134.886,78.385,203.469,90.552,86.477,15.339,170.01-20.315,262.989-63.913,94.72-44.466,173.158-103.517,269.85-121.778,68.813-13.011,143.77-2.4,213.12,20.749,120.5,40.2,176.64,131,285.721,153.962,102.707,21.594,186.163,2.488,237.415-36.773,54.912-42.023,88.217-137.825,43.264-223.834-28.877-55.239-61.056-115.5-100.429-173.068-43.52-63.594-62.848-141.34-39.449-204.66,21.325-57.819,72.243-105.594,114.56-161.769,36.89-48.962,67.482-98.609,83.994-149.763a296.376,296.376,0,0,0-1.946-190.8" transform="translate(76.487 134.995)"/><path class="e" d="M-19.55,1258.22c39.245-111.027,118.426-225.249,243.61-264.784,93.8-29.537,202.24-12.189,287.9,30.7,71.117,35.54,131.482,82.448,199.834,98.723,86.093,20.544,174.08-8.948,266.982-51.975,96.2-44.58,173.414-109.155,271.642-130.611,70.682-15.431,148.275-5.661,219.827,17.348,115.481,37.184,175.078,119.86,280.832,142.435,97.92,20.909,180.608,5.638,233.37-32.664,55.757-40.448,87.987-132.027,50.534-214.566-25.6-56.289-55.808-116.619-94.362-173.8-41.318-61.334-62.592-134.674-43.8-196.579,17.741-58.435,65.536-107.9,107.52-163.184,37.427-49.145,70.733-98.153,90.009-149.443A301.128,301.128,0,0,0,2100.77-26.21" transform="translate(78.858 139.177)"/><path class="e" d="M-18,1257.832c42.5-113.241,121.293-230.545,248.986-272.043,94.31-30.61,204.083-14.038,289.792,30.793,70.221,36.727,128,86.511,196.224,106.9,85.709,25.657,178.278,2.442,270.95-39.923,97.766-44.648,173.67-114.816,273.459-139.422,72.5-17.9,152.73-8.879,226.509,13.947,110.438,34.239,173.619,108.721,275.968,130.908,93.107,20.2,175.053,8.743,229.325-28.578,56.576-38.919,88.013-126.275,57.754-205.23-21.99-57.408-50.56-117.76-88.243-174.575-39.168-59.051-62.49-128.146-48.179-188.5,14-59.051,58.88-110.159,100.711-164.577,37.939-49.327,73.984-97.536,95.974-149.146C2138.82,114.156,2144,43.994,2126.076-22.9" transform="translate(81.276 143.422)"/><path class="e" d="M-16.51,1257.441c45.926-115.478,124.339-235.863,254.515-279.278,94.72-31.637,206.08-15.864,291.686,30.929,69.3,37.892,124.723,90.414,192.589,115.067,85.427,30.656,182.426,13.81,274.944-27.871,99.328-44.762,173.875-120.522,275.251-148.37,74.24-20.361,157.184-11.984,233.19,10.569,105.421,31.272,172.237,97.377,271.1,119.381,88.371,19.334,169.5,11.847,225.28-24.492,57.4-37.389,88.4-120.545,65.024-195.94A706.9,706.9,0,0,0,1984.9,682.107c-37.018-56.746-62.515-121.527-52.531-180.327,10.24-59.668,52.122-112.442,93.773-165.992,38.4-49.487,77.261-96.966,101.99-148.85,31.188-65.111,39.3-137.17,23.245-206.508" transform="translate(83.6 147.693)"/><path class="e" d="M-15,1257.089c49.28-117.738,127.309-241.159,259.994-286.652,95.36-32.664,208.1-17.713,293.581,31.066C607,1040.536,659.918,1096,727.554,1124.765c85.043,35.86,186.547,25.223,279.04-15.818,100.89-44.831,174.08-126.206,277.069-157.09,76.109-22.826,161.587-15.019,239.872,7.145,100.352,28.441,170.752,86.26,266.24,107.876,83.584,18.649,163.84,14.906,221.235-20.406,58.214-35.883,89.114-114.747,72.269-186.649A571.973,571.973,0,0,0,2007.2,683.763c-34.893-54.463-62.643-114.907-56.883-172.338,6.042-60.238,45.44-114.7,86.861-167.407,39.014-49.647,80.537-96.349,107.98-148.53,34.766-65.993,45.817-139.952,31.642-211.759" transform="translate(85.956 151.926)"/><path class="e" d="M-13.47,1256.776c52.582-119.952,130.253-246.523,265.421-293.887,95.9-33.669,210.125-19.585,295.475,31.18,67.558,40.174,117.939,98.587,185.344,131.411,84.685,41.087,190.771,36.773,282.906-3.789,102.554-44.716,174.234-131.913,278.861-165.924,77.9-25.337,165.99-17.919,246.579,3.766,95.258,25.634,169.293,75.19,261.35,96.326,78.771,17.964,158.311,17.964,217.165-16.321s90.112-108.813,79.539-177.314c-9.4-60.809-34.969-120.979-70.016-176.834-32.794-52.158-62.9-108.174-61.235-164.235,1.818-60.786,38.861-116.916,79.923-168.914,39.68-49.738,83.84-95.87,113.971-148.233,38.368-66.853,52.374-142.717,40.064-217.009" transform="translate(88.343 156.12)"/><path class="e" d="M-11.95,1256.417c55.91-122.234,133.3-251.567,270.874-301.306,96.486-34.559,212.173-21.479,297.37,31.317,66.56,41.315,114.56,102.718,181.76,139.559,84.3,46.246,194.867,48.118,286.873,8.263,104.09-44.83,174.362-137.619,280.678-174.757,79.667-27.825,170.317-20.658,253.235.388,90.291,22.826,167.834,63.913,256.486,84.8,74.01,17.279,152.73,20.977,213.146-12.235,59.827-32.892,91.366-102.718,86.759-168.023-4.352-61.768-29.8-122.12-64-177.565-30.72-49.875-63.257-101.371-65.587-156.177-2.56-61.22,32.128-119.2,73.011-170.215,40.192-49.944,87.04-95.117,119.962-147.914,41.965-67.683,58.94-145.437,48.512-222.213" transform="translate(90.714 160.404)"/><path class="e" d="M-10.43,1256c59.264-124.4,136.218-256.909,276.326-308.473,97-35.677,214.246-23.374,299.264,31.454,65.843,42.434,111.155,106.713,178.15,147.663,83.942,51.427,198.963,59.463,290.867,20.316,105.6-44.991,174.49-143.349,282.47-183.591,81.434-30.359,174.669-23.26,259.942-3.036s166.4,52.888,251.6,73.294c69.12,16.572,147.149,23.991,209.1-8.149,60.646-31.454,92.9-96.167,94.029-158.71s-24.7-123.261-57.856-178.341c-28.6-47.547-63.718-94.409-69.939-148.074-7.117-61.631,25.4-121.5,66.073-171.63s90.419-94.478,125.952-147.617c45.52-68.528,65.422-148.187,56.832-227.463" transform="translate(93.085 164.637)"/></g><g transform="translate(922.957 -657.779)"><path class="e" d="M425.733,1919.095c-74.6-41.087-78.106-141.956-34.355-209.727S511.365,1596.743,579.1,1547.073s132.864-113.537,138.445-191.58c7.168-99.774-85.376-190.37-73.523-289.893,9.242-77.472,80.23-136.112,154.829-168.914,42.163-18.512,90.906-24.995,134.579-40.288,198.093-69.141,374.118,42.776,497.485-48.141,133.555-98.564,126.745-208.882,102.067-263.232-31.616-69.643-137.5-223.856-346.01-181.377-84.685,17.257-171.52,31.957-258.33,27.14-129.843-7.281-256.1-98.4-264.4-214.132C658.693,97.336,704.773,14.82,672.594-59.32c-21.581-49.852-76.262-84.274-134.579-96.578S418.181-160.8,360.53-146.219" transform="translate(-360.53 450.196)"/><path class="e" d="M427.665,1923.818c-74.445-44.853-81.2-147.48-37.3-218.1,42.88-68.935,119.808-114.862,189-163.527,68.378-48.072,134.3-108.607,143.36-183.933,11.443-96.281-72.909-186.125-60.493-285.008,10.086-78.636,75.955-139.24,148.224-175.625,41.523-20.932,90.675-30.61,135.68-47.068,191.283-69.665,363.366,36.636,484.25-52.272,129.946-95.665,126.285-203.153,103.117-257.936C1504.119,471,1401.693,322.881,1200.17,359.768c-82.97,15.225-169.139,27.642-255.078,22.529-126.541-7.3-248.985-94.363-260.045-205.892-7.68-77.2,34.227-158.6,2.765-232.051-21.427-50.218-73.958-85.8-130.56-100.572-57.114-14.883-118.374-11.253-176.794.571" transform="translate(-356.548 445.198)"/><path class="e" d="M431.124,1929.238c-74.24-48.574-84.326-152.935-40.269-226.458,42.01-70.076,119.629-117.167,190.31-164.782,68.992-46.474,135.68-103.7,148.2-176.287,15.744-92.766-60.672-181.879-47.488-280.237,10.726-79.892,71.68-142.344,141.645-182.4,40.96-23.42,90.445-36.225,137.037-53.824,184.678-69.8,352.717,30.678,471.04-56.13,126.362-92.766,125.824-197.4,104.141-252.48-27.136-69.026-126.182-211.188-320.64-179.779-81.51,13.148-167.014,23.168-252.032,17.736-123.136-7.441-241.92-90.46-255.718-197.835-9.651-75.1,28.16-155.355-2.79-228.125-21.274-50.788-71.68-87.333-126.541-104.544-55.962-17.553-116.89-17.645-176.128-8.56" transform="translate(-354.171 439.504)"/><path class="e" d="M434.625,1935.293c-74.24-52.272-87.4-158.436-43.213-234.813,41.19-71.172,119.424-119.427,191.59-165.992,69.581-44.944,137.165-98.792,153.088-168.663,20.045-89.273-48.307-177.656-34.458-275.466,11.469-80.964,67.456-145.585,135.04-189.183,40.243-25.953,90.189-41.818,138.24-60.6,178.15-69.666,342.067,24.721,457.984-59.942,122.752-89.889,125.44-191.74,105.19-247.139-24.96-68.707-120.653-204.979-307.993-178.98-79.974,11.094-164.659,18.58-248.858,13.057-119.757-7.875-234.88-86.625-251.392-189.754-11.674-73.044,21.606-152.068-8.346-224.2-21.274-51.2-69.453-89.022-122.522-108.516-54.81-20.247-115.43-24.036-175.437-17.69" transform="translate(-351.86 433.152)"/><path class="e" d="M438.123,1942.053c-74.035-55.993-90.47-163.915-46.08-243.167,40.371-72.268,119.219-121.755,192.9-167.247,70.17-43.37,138.6-93.885,157.926-161.017,24.371-85.757-35.84-173.479-21.427-270.673,12.237-82.174,63.181-148.964,128.486-195.985,39.6-28.533,89.907-47.364,139.443-67.383,171.7-69.346,331.443,18.763,444.877-63.776,119.142-86.968,124.851-185.874,106.24-241.752-22.784-68.364-115.2-198.885-295.322-178.2-78.515,9.13-162.355,14.152-245.76,8.354-116.378-8.08-227.84-82.768-247.014-181.674-13.747-70.944,15.36-148.781-13.926-220.25-21.146-51.656-67.226-90.506-118.5-112.487-53.76-22.986-113.971-30.4-174.771-26.821" transform="translate(-349.521 426.118)"/><path class="e" d="M441.664,1949.339c-73.882-59.714-93.491-169.371-49.126-251.522,39.6-73.364,118.989-124.061,194.176-168.5,70.758-41.771,140.186-88.907,162.816-153.392,28.851-82.174-23.5-169.142-8.4-265.88,13-83.293,58.88-152.388,121.882-202.765,38.938-31.135,89.6-52.911,140.8-74.162,165.325-68.821,320.794,12.805,431.744-67.611,115.533-84.069,124.339-180.1,107.264-236.365-20.48-68.022-109.9-192.927-282.624-177.428-77.107,6.848-160.051,9.724-242.586,3.652-113.024-8.286-220.979-78.956-242.688-173.479C759.1,112.972,783.987,36.344,755.417-34.44,734.4-86.575,690.47-126.612,640.96-150.853c-52.557-25.794-112.512-36.8-174.08-35.951" transform="translate(-347.251 418.468)"/><path class="e" d="M445.244,1957.3c-73.754-63.434-96.538-174.826-52.1-259.9,38.835-74.413,118.733-126.389,195.482-169.713,71.27-40.242,141.619-84,167.68-145.768,33.28-78.659-11.085-164.9,4.608-261.109,13.8-84.457,54.528-155.88,115.2-209.545,38.4-33.806,89.421-58.435,141.9-80.919,159-68.182,310.144,6.848,418.611-71.446,111.949-81.193,123.8-174.323,108.314-231.024-18.483-67.634-104.653-187.175-269.952-176.606a1724.6,1724.6,0,0,1-239.437-1.05c-109.67-8.491-214.144-75.19-238.336-165.49-17.92-66.9,2.791-142.3-25.088-212.42-20.889-52.5-62.72-93.861-110.438-120.408-51.43-28.624-111.027-43.187-173.414-45.1" transform="translate(-344.995 410.323)"/><path class="e" d="M448.859,1965.145c-73.6-67.131-99.507-180.326-55.066-268.253,38.144-75.486,118.5-128.74,196.813-170.969,71.808-38.8,143.053-79.07,172.544-138.121,37.5-75.121,1.357-160.65,17.638-256.338,14.566-85.575,50.125-159.418,108.7-216.324,37.581-36.522,89.19-63.913,143.129-87.7,152.755-67.36,299.52.89,405.479-75.326,108.339-78.294,123.264-168.526,109.363-225.637-16.384-67.269-101.785-200.185-257.305-175.762-73.344,11.413-155.418.845-236.262-5.752-106.317-8.651-207.36-71.4-234.01-157.387-20.1-64.918-3.456-139.057-30.72-208.494-20.081-50.336-57.3-93.822-106.445-124.38-50.278-31.5-109.542-49.556-172.723-54.235" transform="translate(-342.696 402.204)"/><path class="e" d="M452.413,1973.017c-73.472-70.761-102.4-185.691-58.035-276.631,37.427-76.445,118.221-131.068,198.221-172.178,72.32-37.229,144.512-74.162,177.434-130.5,41.8-71.606,13.8-156.428,30.72-251.545,15.36-86.739,45.67-163.047,102.118-223.126,36.839-39.238,88.934-69.392,144.333-94.478,146.56-66.4,288.845-5.068,392.345-79.116,104.73-75.326,122.675-162.705,110.387-220.25-14.285-66.9-96.358-196.305-244.608-175.054-72.243,10.34-153.114-3.561-233.114-10.432-102.963-8.834-200.73-67.657-229.683-149.329-22.3-62.932-9.7-135.793-36.2-204.545-19.606-50.662-55.155-95.221-102.4-128.352-49.872-34.6-109.334-56.5-172.057-63.366" transform="translate(-340.516 394.059)"/><path class="e" d="M456.047,1980.915c-73.293-74.55-105.421-191.077-60.979-284.962,36.736-77.609,117.914-133.464,199.4-173.479,72.832-35.745,145.92-69.232,182.272-122.851,46.08-68.09,26.266-152.182,43.7-246.774,16.179-87.9,41.191-166.631,95.539-229.905,36.1-41.977,88.729-74.824,145.561-101.257,140.442-65.328,278.2-11,379.213-82.927,101.12-72.5,122.112-156.907,111.437-214.909-12.237-66.493-90.854-192.128-231.936-174.255-71.271,9.13-150.784-7.989-229.965-15.134-99.609-8.994-194.15-63.913-225.28-141.226-24.6-60.992-15.949-132.552-41.779-200.619-19.163-51.084-53.109-96.752-98.406-132.392-48.59-37.714-107.872-62.793-171.366-72.5" transform="translate(-338.338 385.863)"/><path class="e" d="M459.716,1988.683c-73.165-78.271-108.365-196.488-64-293.339,36.045-78.591,117.606-135.839,200.678-174.666,73.318-34.239,147.379-64.278,187.161-115.2,50.432-64.552,38.758-147.914,56.73-241.958,17-89.022,36.634-170.351,88.934-236.684,35.3-44.762,88.525-80.211,146.79-108.036,134.374-64.142,267.546-16.96,366.08-86.74,97.536-69.6,121.5-151.087,112.461-209.522-10.24-66.2-85.248-187.791-219.238-173.479-70.477,7.533-148.48-12.395-226.816-19.836-96.256-9.13-187.674-60.147-221-133.145C860.56,137.024,865.322,66.765,840.157-.618A335.136,335.136,0,0,0,745.77-136.936c-47.289-40.818-106.4-69.076-170.7-81.6" transform="translate(-336.17 377.821)"/><path class="e" d="M463.355,1996.568c-73.011-81.991-111.258-201.9-66.893-301.694,35.379-79.618,117.3-138.258,201.984-175.9,73.8-32.824,148.787-59.348,192-107.58,54.733-61.036,51.2-143.667,69.734-237.232,17.92-90.186,32.051-174.05,82.355-243.464,34.458-47.547,88.371-85.575,148.019-114.793,128.358-62.863,256.9-22.826,352.973-90.62,93.9-66.7,120.832-145.266,113.485-204.135-8.192-65.717-79.744-160.7-206.592-172.68-69.683-6.6-146.15-16.8-223.641-24.538-92.9-9.29-181.325-56.381-216.653-125.042C880.737,141.826,881.71,72.822,857.185,6.124c-20.173-54.9-51.2-102.946-90.342-140.29C720.9-178.1,661.965-209.556,596.833-224.9" transform="translate(-333.998 369.664)"/><path class="e" d="M467.044,2004.425c-72.883-85.712-114.15-207.284-69.862-310.071,34.739-80.645,116.966-140.678,203.29-177.131,74.24-31.364,150.2-54.463,196.89-99.933,58.88-57.522,63.718-139.422,82.765-232.439,18.688-91.3,27.392-177.771,75.776-250.266,33.587-50.355,88.192-90.917,149.222-121.572,122.394-61.631,246.4-28.715,339.84-94.455,90.445-63.616,120.192-139.445,114.534-198.77-6.246-65.283-74.931-156.063-193.92-171.881-68.582-9.131-143.846-21.183-220.493-29.24-89.6-9.4-175.078-52.5-212.326-116.961-31.872-55.1-34.637-122.828-58.5-188.818C854.244-42.49,825.47-91.977,787.94-131.375,743.37-178.425,684.6-213.084,618.6-231.24" transform="translate(-331.85 361.532)"/><path class="e" d="M470.735,2012.284c-72.73-89.41-117.018-212.672-72.832-318.425,34.15-81.673,116.659-143.144,204.6-178.387,74.726-29.948,151.629-49.533,201.754-92.309,63.309-53.984,76.237-135.154,95.8-227.646s22.733-181.491,69.12-257.045c32.691-53.162,88.064-96.189,150.451-128.352,116.48-60.056,235.75-34.673,326.707-98.152,86.835-60.74,119.5-133.647,115.558-193.406-4.275-64.895-70.093-151.749-181.222-171.2-67.507-11.733-141.542-25.542-217.369-33.92-86.17-9.519-168.96-48.757-207.974-108.881-34.458-53.117-40.832-119.586-64-184.892-19.866-55.856-46.362-106.758-82.3-148.233-43.183-50.153-101.787-88.029-168.678-109.018" transform="translate(-329.73 353.4)"/><path class="e" d="M474.451,2020.268c-72.6-93.13-119.859-218.059-75.8-326.78,33.536-82.7,116.3-145.631,205.9-179.619,75.187-28.556,153.037-44.625,206.618-84.685,67.584-50.491,88.755-130.885,108.826-222.875,20.48-93.587,17.92-185.189,62.592-263.825,31.744-55.97,87.987-101.417,151.654-135.131,110.643-58.549,225.126-40.631,313.6-102.1,83.226-57.842,118.809-127.827,116.608-188.019-2.355-64.507-65.229-147.663-168.576-170.306-66.381-14.677-139.213-30.039-214.2-38.759-82.842-9.61-162.918-44.853-203.622-100.778C940.883,156.327,931,90.976,908.422,26.423c-19.712-56.312-43.9-108.675-78.285-152.205C788.378-179.027,729.95-220.121,662.15-243.93" transform="translate(-327.609 345.255)"/><path class="e" d="M478.161,2027.988c-72.448-96.828-122.675-223.422-78.746-335.134,32.922-83.7,115.968-148.1,207.181-180.851,75.648-27.163,154.445-39.718,211.507-77.038,71.859-47,101.274-126.64,121.83-218.082,21.325-94.8,13.235-188.932,56.013-270.627,30.72-58.777,87.936-106.6,152.883-141.888,104.96-57.065,214.477-46.611,300.467-105.959,79.616-54.943,118.067-121.983,117.76-182.609-.461-64.073-60.314-143.805-155.9-169.508-65.229-17.508-136.909-34.239-211.046-43.37-79.36-9.7-157-40.927-199.3-92.7-40.064-49.008-53.35-113.149-75.29-177.04C905.988-23.606,884.1-77.43,851.28-122.991,810.966-179.327,752.7-223.647,683.959-250.27" transform="translate(-325.508 337.124)"/><path class="e" d="M481.893,2035.847c-72.32-100.549-125.44-228.81-81.715-343.489,32.333-84.708,115.61-150.653,208.486-182.107,76.083-25.771,155.853-34.81,216.371-69.391,76.134-43.507,113.818-122.371,134.861-213.311,22.2-95.87,8.422-192.63,49.408-277.407,29.8-61.631,87.936-111.711,154.112-148.667,99.1-55.353,203.8-52.5,287.334-109.771,76.007-52.066,117.325-116.185,118.682-177.291,1.434-63.685-55.219-140.29-143.206-168.731-64-20.681-134.6-38.622-207.9-47.935-76.134-9.861-151.168-36.956-194.841-84.708-42.957-46.725-59.546-109.885-80.9-173.091C923.263-17.323,903.7-72.585,872.37-120.2c-38.859-59.41-96.952-106.96-166.656-136.409" transform="translate(-323.403 328.992)"/><path class="e" d="M485.662,2043.7c-72.192-104.27-128.282-234.151-84.685-351.865,31.77-85.712,115.2-153.141,209.766-183.317,76.544-24.447,157.235-29.948,221.235-61.768,80.307-40.151,126.362-118.1,147.866-208.54,23.04-97.057,3.61-196.305,42.854-284.186,28.774-64.393,87.987-116.756,155.315-155.446,93.389-53.664,193.024-58.663,274.2-113.606,72.294-49.3,116.557-110.319,119.757-171.95,3.277-63.32-49.971-136.957-130.56-167.955a917.155,917.155,0,0,0-204.8-52.706c-72.73-9.884-145.332-32.71-190.541-76.491-45.824-44.4-65.613-106.667-86.349-169.165-19.149-57.75-36.352-114.45-66.2-164.12-37.382-62.469-95.292-113.252-165.965-145.54" transform="translate(-321.335 320.86)"/><path class="e" d="M489.418,2051.64c-72.038-107.991-131.046-239.538-87.629-360.221,31.181-86.74,114.867-155.72,211.072-184.572,76.979-23.1,158.72-25.109,226.1-54.121,84.634-36.636,138.931-113.857,160.922-203.769,24.013-98.153-1.28-200.026,36.249-290.965,27.7-67.2,88.167-121.755,156.519-162.226,87.731-51.93,182.374-64.621,261.12-117.441,68.659-46.406,115.738-104.567,120.755-166.631,5.12-62.932-44.467-133.807-117.76-167.133a744.751,744.751,0,0,0-201.574-57.431c-69.479-9.884-139.674-28.441-186.266-68.479C1020.029,176.7,997.245,115.2,977,53.412,958.051-4.817,943.229-63,914.813-114.68c-35.908-65.513-93.641-119.533-165.3-154.67" transform="translate(-319.255 312.651)"/><path class="e" d="M493.188,2059.433c-71.91-111.689-133.811-244.9-90.6-368.6,30.72-87.721,114.509-158.3,212.48-185.805,77.414-21.754,160.051-20.2,230.963-46.474,88.934-33.143,151.68-109.565,173.927-198.976,25.165-99.294-6.144-203.724,29.67-297.768C1076.3,891.805,1137.975,835.242,1207.4,792.9c82.125-50.217,171.725-70.6,247.936-121.275,64.973-43.6,114.918-98.952,121.7-161.244s-38.682-130.794-105.19-166.357c-58.88-31.569-127.719-51.541-198.426-62.133-66.15-9.884-133.965-24.036-181.888-60.352-51.994-39.33-77.849-100.23-97.485-161.29C975.415,1.493,962.871-58.015,935.863-111.816c-34.386-68.566-91.936-125.841-164.608-163.823" transform="translate(-317.214 304.584)"/><path class="e" d="M496.9,2067.252c-71.68-115.409-136.32-250.221-93.568-376.951,30.259-88.7,114.176-160.9,213.683-187.038,77.9-20.544,161.485-15.316,235.853-38.8,93.235-29.674,164.147-105.274,186.88-194.182,26.01-100.435-11.059-207.4,23.04-304.547,25.6-72.816,88.653-131.319,159-175.762,76.6-48.391,161.075-76.536,234.8-125.11,61.44-40.608,114.048-93.017,122.88-155.789,8.7-62.2-32.486-127.827-92.518-165.581-56.73-35.677-125.44-55.787-195.277-66.812-62.822-9.907-128.23-19.539-177.613-52.272C1058.95,187.881,1030,127.415,1011.027,67.04c-18.483-59.211-28.57-120.157-54.17-176.058-32.863-71.57-90.194-132.081-163.84-172.931" transform="translate(-315.116 296.49)"/><path class="e" d="M500.757,2075.149c-71.68-119.13-139.238-255.654-96.538-385.329,29.568-89.753,113.818-163.527,215.04-188.27,78.336-19.174,162.918-10.386,240.64-31.226,97.536-26.113,176.64-101.006,199.961-189.457,26.854-101.577-15.974-211.051,16.512-311.326,24.474-75.6,89.088-135.953,160.2-182.609s150.4-82.38,221.7-128.831c57.856-37.709,113.152-87.242,123.878-150.425,10.5-61.859-25.856-124.791-79.821-164.782s-123.034-60.01-192.154-71.514c-59.494-9.907-122.47-14.86-173.261-44.169-58.266-33.6-90.317-93.77-108.621-153.438s-25.958-122.029-50.15-180.03c-31.372-74.6-88.547-138.358-163.251-182.062" transform="translate(-313.134 288.32)"/></g></g></g></g></g></g></g></svg>