<svg xmlns="http://www.w3.org/2000/svg" xmlns:xlink="http://www.w3.org/1999/xlink" width="1920" height="741" viewBox="0 0 1920 741"><defs><style>.a,.e{fill:none;stroke:#fff;stroke-width:2px;}.b{fill:#f6f6f6;}.c{isolation:isolate;}.d{clip-path:url(#a);}.e{stroke-miterlimit:10;}</style><clipPath id="a"><rect class="a" width="1920" height="741"/></clipPath></defs><g transform="translate(0 -2377.32)"><rect class="b" width="1920" height="741" transform="translate(0 2377.32)"/><g class="c" transform="translate(0 2377.32)"><g transform="translate(0 0)"><g transform="translate(0 0)"><g class="d"><g transform="translate(-395.183 -239.16)"><path class="e" d="M1333.345-52.3A714.566,714.566,0,0,1,1275.2,60.548c-10.241,16.4-21.814,33.011-41.759,46.115-51.027,33.5-140.305,34.535-216.5,27.258A1431.223,1431.223,0,0,1,812.475,99.608C747.6,83.694,684.843,63.151,615.331,56.407S464.963,60.548,427.506,94.994c-22.275,20.529-25.834,46.5-17.129,70.208s28.676,45.509,50.822,66.082c25.373,23.546,54.816,47.4,58.631,75.045,3.943,28.633-23.427,57.918-67.055,71.7-62.036,19.612-137.975,7.306-207.565,0-88.382-9.3-183.191-9.229-263.943,13.533s-143.173,72.2-134.877,123.881" transform="translate(154.349 214.709)"/><path class="e" d="M1314.169-57.53A669.4,669.4,0,0,1,1257.074,52.7c-10.241,16-21.532,32.183-40.965,45.021-49.7,32.8-136.081,34.609-210.176,28.367q-26.4-2.219-52.486-5.384A1379.619,1379.619,0,0,1,806.664,95C743.271,80.21,681.823,60.983,613.872,54.815S469.317,59.918,429.734,92c-14.734,11.593-24.762,24.953-29.341,39.09a62.619,62.619,0,0,0-1.741,29.358,74.171,74.171,0,0,0,3.61,13.533c6.81,18.1,21.3,35.821,37.15,52.667,1.562,1.671,3.149,3.328,4.737,5,24.784,25.838,50.95,52.268,52.384,81.182,1.383,27.835-24.041,56.2-66.568,69.735-60.449,19.345-134.16,8.268-201.471,2.085-5.3-.488-10.625-.947-15.976-1.346-80.8-6.241-165.294-3.7-237.392,17.837-76.809,22.954-135.569,71.332-126.275,121.545" transform="translate(157.831 212.204)"/><path class="e" d="M1294.93-62.76a631.011,631.011,0,0,1-56.1,107.612c-10.062,15.6-21.25,31.385-40.2,43.941-48.262,32.094-131.882,34.653-203.852,29.447q-25.6-1.864-51.053-4.629a1351.614,1351.614,0,0,1-143.07-23.25c-61.909-13.562-122.05-31.5-188.388-37.138S473.095,59.3,431.9,88.986c-16.642,11.98-30.212,23.8-37.457,37.419a62.029,62.029,0,0,0-6.2,43.409c4.3,19.138,18.69,38.454,34.231,56.779,1.562,1.819,3.1,3.624,4.66,5.428,24.195,28.1,47.161,57.045,46.086,87.261-.9,26.992-24.656,54.4-66,67.8-58.887,19.05-130.294,9.2-195.352,4.186q-7.681-.6-15.362-1.094c-78.038-4.881-158.893-1.183-227.33,20.543-72.995,23.161-128.016,70.46-117.774,119.208" transform="translate(161.401 209.699)"/><path class="e" d="M1275.842-68a596.559,596.559,0,0,1-55.072,105.009c-9.96,15.2-20.995,30.556-39.429,42.891-47.187,31.355-127.683,34.683-197.554,30.5q-24.886-1.479-49.593-3.86A1325.9,1325.9,0,0,1,794.861,85.816C734.437,73.437,675.6,56.8,610.825,51.711S476.614,58.677,434.164,86.068c-18.486,11.921-35.384,22.51-45.548,35.718-7.21,9.223-11.85,19.047-13.749,29.107a55.027,55.027,0,0,0-.742,14.79c1.792,20.174,16.079,41.161,31.338,60.905,1.511,1.952,3.021,3.9,4.557,5.916,23.606,30.453,43.525,61.719,39.915,93.458-2.919,26.09-25.3,52.638-65.493,65.83-57.223,18.783-126.454,10.161-189.258,6.286-4.967-.3-9.934-.577-14.9-.813C105.035,393.73,27.79,398.581-37.011,420.5c-69.128,23.368-120.335,69.513-109.069,116.841" transform="translate(164.82 207.189)"/><path class="e" d="M1256.728-73.21a561.883,561.883,0,0,1-54.074,102.362c-9.806,14.79-20.739,29.7-38.661,41.737-45.753,30.734-123.458,34.816-191.2,31.665q-24.169-1.109-48.134-3.091a1303.63,1303.63,0,0,1-135.7-18.34C730.071,69.913,672.49,54.5,609.327,50.065S479.7,57.8,436.454,82.988C415.972,94.82,395.924,104.211,382.688,117c-9.4,9-16.088,18.857-19.766,29.151a50.964,50.964,0,0,0-2.868,15.293c-.743,21.209,13.467,43.838,28.419,65.076l4.455,6.286c23.12,32.7,39.915,66.259,33.694,99.537-4.685,25.143-25.91,50.893-64.981,63.893-55.61,18.5-122.588,11.107-183.139,8.386q-7.182-.333-14.363-.547C91.708,401.861,18.1,407.9-43.067,429.962c-65.211,23.561-112.654,68.715-100.441,114.534" transform="translate(168.265 204.693)"/><path class="e" d="M1237.568-78.44A528.451,528.451,0,0,1,1184.492,21.3c-9.678,14.405-20.482,28.915-37.841,40.673-44.473,30.009-119.285,34.86-184.932,32.745q-23.4-.754-46.674-2.337A1271.545,1271.545,0,0,1,783.138,76.5C725.684,66.473,669.459,52.422,607.858,48.4S482.4,56.859,438.673,79.947C416.193,91.779,393,99.883,376.918,112.292c-11.5,8.721-20.176,18.572-25.6,29.077a51.572,51.572,0,0,0-5.121,15.855c-3.252,22.185,10.856,46.5,25.6,69.143,1.434,2.248,2.893,4.437,4.327,6.729,22.48,35.038,36.356,70.844,27.447,105.7-6.2,24.241-26.5,49.147-64.443,61.956-54.253,18.266-118.952,12.1-177.148,10.516-4.583-.118-9.192-.207-13.8-.266-69.692-.828-139.691,6.315-197.144,28.619-61.32,23.768-105.2,67.842-91.813,112.2" transform="translate(171.756 202.188)"/><path class="e" d="M1218.789-83.67a496.419,496.419,0,0,1-52.1,97.126c-9.576,14.021-20.176,28.1-37.074,39.593C1086.446,82.393,1014.526,88,951.005,86.918q-22.659-.385-45.241-1.568A1244.211,1244.211,0,0,1,777.569,71.921C721.6,63.047,666.682,50.328,606.694,46.9S485.13,55.889,441.221,77.053c-24.656,11.832-50.848,18.591-69.9,30.586-13.657,8.415-24.391,18.266-31.62,29.018a53.428,53.428,0,0,0-7.374,16.432c-5.761,23.28,8.27,49.177,22.608,73.344q2.151,3.579,4.25,7.158c21.891,37.33,33,75.34,21.2,111.842-7.527,23.294-27.114,47.328-64.008,59.988-52.384,17.955-114.907,13-170.952,12.586H132.165c-66.927.532-133.29,8.874-187.159,31.31-57.453,23.975-97.625,66.969-83.236,109.86" transform="translate(174.917 199.683)"/><path class="e" d="M1199.815-88.9a464.384,464.384,0,0,1-51.027,94.508c-9.422,13.622-19.894,27.273-36.305,38.454C1070.648,72.711,1001.621,79.07,940.2,79.026q-21.891,0-43.756-.813A1206.97,1206.97,0,0,1,771.961,67.238c-54.484-7.661-108.1-19.109-166.421-21.993S480.956,50.57,443.7,73.983c-30.084,8.859-55.994,17.408-77.936,28.974-15.779,8.092-28.578,17.936-37.637,28.944a56.575,56.575,0,0,0-9.6,17.023c-8.27,24.3,5.658,51.765,19.714,77.367q2.1,3.8,4.148,7.6c21.3,39.623,29.8,79.866,14.952,117.965-8.705,22.363-27.651,45.686-63.5,58.051-50.8,17.674-111.066,13.947-164.859,14.686-4.25,0-8.475.148-12.8.266C52.052,426.74-10.727,436.176-60.935,458.879c-53.536,24.182-90.021,66.1-74.608,107.523" transform="translate(178.144 197.178)"/><path class="e" d="M1180.821-94.13a435.81,435.81,0,0,1-50.028,91.89c-9.294,13.208-19.612,26.459-35.512,37.419-40.53,27.909-106.663,35.052-165.96,36.029q-21.148.355-42.322,0a1182.352,1182.352,0,0,1-120.77-8.5c-53-6.552-105.306-16.7-162.119-19.094s-120.8,5.546-158,27.376c-32.516,8.371-61.192,16.092-86.052,27.347-17.844,7.771-32.671,17.616-43.525,28.9a60.91,60.91,0,0,0-11.829,17.585c-10.779,25.335,3.072,54.5,16.821,81.493q2.048,3.993,4.045,8.031c20.713,41.915,26.755,84.3,8.705,124.088-9.78,21.357-28.394,43.823-62.958,56.039-49.184,17.393-107.2,14.894-158.74,16.772-4.071.148-8.116.34-12.187.547C38.946,435.028-20.12,445.6-66.692,468.5c-49.645,24.359-82.417,65.209-66,105.172" transform="translate(181.469 194.673)"/><path class="e" d="M1162-99.36c-11.9,30.51-28.293,60.377-49,89.273-9.166,12.808-19.381,25.631-34.743,36.324C1039.031,53.51,975.791,61.349,918.594,63.36q-20.482.739-40.965.71a1147.332,1147.332,0,0,1-117.058-6.049C709.058,52.711,658.159,43.852,602.8,42.077S485.849,47.742,448.674,67.989c-34.923,7.9-66.338,14.79-94.143,25.587-19.933,7.433-36.85,17.266-49.593,28.826a65.637,65.637,0,0,0-14.031,18.162c-13.288,26.371.461,57.164,13.928,85.6q2,4.215,3.943,8.46c20.124,44.222,23.913,88.74,2.56,130.241-10.677,20.5-29.085,42.122-62.369,54.146C201.3,436.143,145.532,434.871,96.246,437.9c-3.892.237-7.681.5-11.649.813-58.58,4.585-114.113,16.269-157.05,39.4-45.753,24.566-74.812,64.337-57.377,102.835" transform="translate(184.618 192.167)"/><path class="e" d="M1143.239-104.59c-11.5,29.653-27.57,58.653-48.006,86.655-9.038,12.424-19.1,24.832-33.95,35.245-37.918,26.622-98.265,35.23-153.363,38.277q-19.612,1.094-39.378,1.479A1116.52,1116.52,0,0,1,755.2,53.456c-50-4.186-99.673-11.743-153.44-12.971S488.336,46.4,451.212,64.978c-37.329,7.4-71.484,13.533-102.259,23.9-20.969,7.07-40.939,16.52-55.456,28.767a71.553,71.553,0,0,0-16.258,18.739c-15.8,27.406-2.151,59.84,11.009,89.731,1.306,2.958,2.56,5.916,3.866,8.874,19.561,46.515,21.225,93.281-3.764,136.364-11.368,19.612-29.674,40.406-61.857,52.224C180.407,440.408,127,440.364,79.966,444.564c-3.712.325-7.425.68-11.112,1.08C13.039,451.56-38.858,464.457-78.133,487.736c-41.887,24.773-67.234,63.464-48.646,100.572" transform="translate(187.713 189.662)"/><path class="e" d="M1124.741-109.82c-11.127,28.8-26.873,56.929-47.033,84.037-8.91,12.024-18.818,24-33.156,34.165-36.613,25.883-94.066,35.289-147.039,39.371q-18.9,1.479-37.944,2.233a1087.66,1087.66,0,0,1-109.581-1.2C701.341,45.83,653.054,39.574,601,38.894S491.4,44.913,454.169,61.981c-39.736,6.937-76.656,12.246-110.35,22.185-23.043,6.789-45.19,16.269-61.448,28.693a78,78,0,0,0-18.485,19.316c-18.281,28.471-4.788,62.532,8.065,93.872q1.92,4.659,3.738,9.333c19,48.807,18.793,97.836-9.985,142.5-12.059,18.695-30.186,38.632-61.448,50.286-44.37,16.565-95.679,17.748-140.459,23.087-3.508.429-7.041.873-10.548,1.361C.225,459.907-48.063,473.928-83.7,497.4c-38,24.98-59.63,62.591-40.171,98.162" transform="translate(190.542 187.157)"/><path class="e" d="M1106.2-115c-10.743,27.917-26.178,55.161-46.086,81.345-8.756,11.625-18.537,23.176-32.388,33.071-35.281,25.143-89.841,35.363-140.817,40.466q-18.127,1.849-36.459,2.958a1049.79,1049.79,0,0,1-105.92,1.316c-47.033-1.79-94.143-6.729-144.607-6.863S494.1,43.46,457.029,58.96c-42.117,6.478-81.8,10.915-118.44,20.514-25.065,6.522-49.337,15.87-67.464,28.633A84.533,84.533,0,0,0,250.437,128c-20.815,29.491-7.348,65.18,5.121,97.969q1.869,4.851,3.636,9.761c18.409,51.1,16.565,102.451-16.232,148.625-12.674,17.822-30.724,36.886-60.807,48.3C139.4,448.929,90.341,451.355,47.814,457.8c-3.354.518-6.682,1.05-10.011,1.627-50.259,8.637-94.911,23.827-126.915,47.476-34.1,25.143-52.026,61.719-31.543,95.825" transform="translate(193.392 184.676)"/><path class="e" d="M1087.856-120.28c-10.316,27.081-25.38,53.484-44.959,78.8-8.654,11.211-18.281,22.363-31.62,31.976C977.3,14.99,925.634,25.993,876.886,32.072q-17.41,2.189-35.025,3.757A1009.563,1009.563,0,0,1,739.678,39.6c-45.574-.606-91.352-4.26-140.228-3.831S500.724,46.123,460.092,56.047C418,66.4,373.041,65.72,333.536,74.875c-27.088,6.241-53.511,15.53-73.43,28.56A91.928,91.928,0,0,0,237.063,123.9c-23.324,30.527-9.934,67.842,2.33,102.051q1.792,5.088,3.533,10.205c17.922,53.407,14.568,107.139-22.48,154.748-13.109,16.964-31.313,35.111-60.167,46.337-41.17,16-87.972,19.7-128.246,27.288-3.175.592-6.324,1.228-9.473,1.893-47.468,10-88.51,26.326-116.878,50.168-30.212,25.38-44.447,60.846-23.043,93.488" transform="translate(196.064 182.147)"/><path class="e" d="M1069.712-125.5c-9.939,26.218-24.675,51.751-43.961,76.169-8.526,10.826-17.922,21.549-30.724,30.9-32.67,23.812-81.444,35.5-128.016,42.669q-16.616,2.573-33.54,4.526A968.423,968.423,0,0,1,734.8,34.972c-44.063.577-88.561-1.775-135.85-.8S503.268,44.3,463.25,53.031c-44.806,9.791-92.171,8.4-134.647,17.156-29.034,5.9-57.71,15.145-79.344,28.382a98.62,98.62,0,0,0-25.117,21.046c-25.859,31.606-12.571,70.563-.589,106.252q1.767,5.28,3.431,10.634c17.231,55.7,12.8,111.916-28.727,160.886-13.7,16.166-32.03,33.381-59.758,44.37C98.943,457.523,54.394,462.4,16.373,471.174c-3,.7-5.966,1.479-8.935,2.174-44.7,11.344-82.109,28.826-106.816,52.86-26.346,25.587-36.869,59.974-14.338,91.151" transform="translate(198.538 179.646)"/><path class="e" d="M1051.839-130.73c-9.542,25.363-23.952,50.033-42.962,73.551-8.372,10.353-17.717,20.706-30.033,29.817C947.481-4.26,901.6,8.134,857.076,16.4q-15.9,2.958-32.106,5.28a927.987,927.987,0,0,1-94.732,8.7c-42.578,1.745-85.745.7-131.447,2.233S506.16,42.52,466.884,50.049c-47.622,9.037-97.343,7.04-142.814,15.382-31.108,5.694-61.832,14.938-85.361,28.426-11.077,6.307-20.311,13.61-27.344,21.623-28.368,32.538-15.157,73.181-3.508,110.334q1.741,5.5,3.354,11.048c16.668,57.962,11.393,116.826-34.974,167.024-14.159,15.367-32.618,31.636-59.22,42.462C79.074,461.8,36.752,467.867.984,477.836c-2.816.784-5.633,1.6-8.4,2.44-41.938,12.7-75.734,31.325-96.78,55.551-22.454,25.794-29.264,59.16-5.709,88.814" transform="translate(200.741 177.141)"/><path class="e" d="M1034.288-136c-9.149,24.526-23.223,48.352-41.938,70.992A168.012,168.012,0,0,1,963.213-36.36C933.155-13.938,890.168-.73,847.743,8.513q-15.131,3.313-30.724,6.049A890.384,890.384,0,0,1,725.975,25.7c-40.965,2.958-82.98,3.18-127.094,5.265S509.269,40.623,470.711,47c-50.285,8.3-102.515,5.842-150.9,13.71-33.1,5.472-65.979,14.6-91.4,28.412-11.9,6.408-21.888,13.9-29.572,22.185-30.8,33.706-17.692,75.858-6.273,114.46q1.69,5.724,3.252,11.492c16.079,60.3,10.241,121.84-41.2,173.147C140,425.016,121.331,440.294,95.881,450.928,59.422,466.1,19.4,473.349-14.084,484.5c-2.56.887-5.274,1.79-7.86,2.707-39.147,14.065-69.333,33.84-86.743,58.258-18.562,26-21.66,58.228,2.893,86.477" transform="translate(202.624 174.617)"/><path class="e" d="M1017.109-141.19c-8.778,23.628-22.536,46.546-40.965,68.241a175.274,175.274,0,0,1-28.5,27.628C918.972-23.594,878.877-9.618,838.578.646c-9.6,2.455-19.356,4.733-29.188,6.818a842.681,842.681,0,0,1-87.358,13.592c-39.608,4.112-80.163,5.665-122.69,8.3S512.983,38.7,474.885,43.967c-53.127,7.395-107.533,4.555-158.944,12.069-35.128,5.147-70.153,14.228-97.292,28.308-12.719,6.517-23.467,14.215-31.8,22.777-33.284,34.668-20.483,78.52-9.294,118.572q1.664,5.916,3.124,11.921C196.195,300.2,189.9,364.629,133.262,416.9c-15.055,13.873-33.873,28.1-58.2,38.558C40.323,470.363,2.481,478.9-28.754,491.143c-2.56.961-4.916,1.967-7.322,2.958-36.112,15.106-62.968,36.457-76.681,60.964-14.7,26.179-14.082,57.341,11.5,84.126" transform="translate(204.109 172.131)"/><path class="e" d="M1000.392-146.42c-8.359,22.771-21.775,44.823-39.915,65.609a184.921,184.921,0,0,1-27.7,26.622C905.353-33.143,868.151-18.412,829.951-7.113,820.862-4.406,811.594-1.892,802.223.46A796.837,796.837,0,0,1,718.6,16.507C680.48,21.8,641.231,24.642,600.266,27.836s-83.108,8.992-120.693,13.207C423.681,47.315,366.765,44.327,312.512,51.4c-37.15,4.836-74.326,13.858-103.257,28.2-13.535,6.618-25.039,14.508-34.027,23.339-35.844,35.7-23.043,81.183-12.187,122.683,1.05,4.1,2.074,8.223,3.021,12.364,14.927,64.884,8.551,132.371-53.767,185.408a233.8,233.8,0,0,1-57.684,36.62C21.583,474.643-14.005,484.39-42.962,497.8q-3.405,1.568-6.759,3.239c-33.285,16.593-56.594,38.862-66.568,63.6-10.8,26.385-6.478,56.468,20.1,81.789" transform="translate(205.157 169.626)"/><path class="e" d="M984.47-151.65c-7.975,21.916-21.058,43.106-38.891,62.991a204.381,204.381,0,0,1-26.935,25.468c-26.115,20.336-60.423,35.836-96.5,48.171-8.6,2.958-17.385,5.724-26.269,8.327a746.836,746.836,0,0,1-79.933,18.517c-36.612,6.463-74.582,10.6-113.934,14.346S522.23,34.778,485.029,38c-58.606,5.058-117.954,1.967-175.177,8.667-39.147,4.585-78.474,13.562-109.223,28.1-14.36,6.742-26.613,14.856-36.228,23.989C126,135.5,138.8,182.62,149.295,225.57c1.05,4.23,2.023,8.5,2.944,12.793,14.338,67.176,8.167,137.9-59.911,191.531-16.261,12.993-35.483,24.659-57.146,34.683C3.664,478.923-29.7,489.912-56.452,504.51q-3.149,1.73-6.222,3.52c-30.555,18.1-50.376,41.327-56.609,66.348-6.913,26.622,1.127,55.6,28.727,79.452" transform="translate(205.409 167.12)"/><path class="e" d="M969.245-156.88c-7.593,21.063-20.353,41.393-37.893,60.373a225.037,225.037,0,0,1-26.141,24.374c-24.809,19.656-56.327,35.9-90.2,49.266-8.091,3.195-16.386,6.227-24.809,9.1A693.542,693.542,0,0,1,714.008,7.2,1101.023,1101.023,0,0,1,604.426,24.579c-37.56,4.26-76.3,8.194-113.243,10.353-61.243,3.653-123.1.71-183.267,7.01-41.17,4.3-82.621,13.222-115.214,28.1C177.579,76.894,164.613,85.2,154.374,94.6,113.409,132.354,126.21,181.1,136.452,225.5c1,4.437,1.971,8.874,2.842,13.311,13.749,69.513,8.039,143.641-66.159,197.669A349.46,349.46,0,0,1,16.5,469.2c-29.9,14.065-61.012,26.282-85.515,41.989q-2.88,1.864-5.684,3.786c-27.781,19.561-44.145,43.695-46.751,68.951-3.021,26.8,8.731,54.723,37.355,77.115" transform="translate(204.965 164.615)"/><path class="e" d="M954.873-162.11C934.749-104.518,869.487-53.891,785.534-20.85s-185.776,49.4-287.319,52.83c-63.8,2.145-128.272-.577-191.358,5.31S179.738,59.474,145.02,90.415C101.495,129.209,114.3,179.6,124.128,225.448c16.258,75.429,16.028,159.732-69.666,217.414C11.781,471.584-48.591,490.8-86.2,521.781c-52.128,42.965-48.083,105.9,9.422,146.51" transform="translate(203.642 162.11)"/></g><g transform="translate(230.275 435.961)"><path class="e" d="M89.94,570.852a1373.01,1373.01,0,0,1,129.04-91.107c20.482-12.823,42.168-25.587,69.333-33.233,69.461-19.508,152.518-.562,217.934,23.146,60.322,21.866,115.93,47.8,165.652,77.248,49.209,29.166,93.375,62.118,153,83.83s141.457,29.772,199.064,6.3c34.283-13.962,54.919-37.138,62.728-60.935s3.968-48.378-2.714-72.294c-7.681-27.391-18.87-55.951-3.917-82.306,15.516-27.288,60.347-48.186,109.786-51.174,70.332-4.26,132.163,24.034,191.46,46.308,75.3,28.308,162.811,49.384,252.5,46.4s180.348-34.668,207.257-84.185" transform="translate(-89.94 -258.176)"/><path class="e" d="M93.57,580.765a1270.7,1270.7,0,0,1,127.248-89.317c20.278-12.512,41.707-24.951,68.411-32.464,53.639-15.086,115.393-7.395,170.747,7.4q22.363,6.036,43.525,13.415c59.626,20.674,114.779,45.374,164.3,73.58,49.03,27.909,92.965,59.766,151.955,80.635a383.434,383.434,0,0,0,110.887,21.209c33.617,1.242,66.978-2.618,94.86-13.636a147.935,147.935,0,0,0,14.159-6.448c27.37-14.361,43.986-35.008,51.206-56.2a97.825,97.825,0,0,0,4.634-20.351c2.048-17.94-.359-36.088-3.917-53.836-5.607-28.1-13.083-56.956,3.789-83.253S1155.077,375.05,1203.339,372c68.693-4.363,129.27,22.3,187.236,43.009q6.875,2.462,13.851,4.822c70.358,23.768,149.984,40.273,230.889,36.487,86.257-4.038,172.744-35.5,197.733-83.963" transform="translate(-84.276 -257.395)"/><path class="e" d="M97.2,592.959a1185.324,1185.324,0,0,1,125.455-87.513c20.073-12.216,41.272-24.315,67.49-31.71,52.691-14.79,113.191-7.927,167.675,5.916q22.03,5.639,42.962,12.572c58.915,19.485,113.6,42.96,162.887,69.927,48.8,26.622,92.607,57.43,151.059,77.574a417.335,417.335,0,0,0,114.344,22.037c34.564,1.479,69.129-2.085,98.086-13.178a145.35,145.35,0,0,0,14.7-6.552c28.522-14.627,45.548-35.9,53.382-57.681a106.382,106.382,0,0,0,5.121-21.105c2.56-18.429,1.177-37.093-1.127-55.27-3.533-28.9-7.3-57.933,11.5-84.215,17.922-24.951,59.118-44.681,106.2-47.8,67-4.437,126.351,20.558,183.011,39.711q6.682,2.219,13.519,4.437c68.693,21.9,145.759,36.531,223.439,31.754,82.8-5.073,165.14-36.443,188.209-83.712" transform="translate(-78.612 -259.014)"/><path class="e" d="M100.82,605.427a1106.319,1106.319,0,0,1,123.714-85.782c19.817-11.906,40.786-23.664,66.568-30.941,51.693-14.6,110.964-8.43,164.577,4.437q21.734,5.319,42.45,11.891c58.213,18.284,112.433,40.523,161.5,66.245,48.646,25.469,92.3,55.063,149.958,74.468,35.614,11.98,76.81,20.706,117.775,22.865,35.537,1.849,71.356-1.568,101.312-12.734a150.371,150.371,0,0,0,15.362-6.641c29.648-14.908,47.084-36.812,55.482-59.279a118.294,118.294,0,0,0,5.735-21.7c3.175-18.931,2.688-38.114,1.639-56.72-1.485-29.654-1.613-58.864,19.2-85.161,18.818-23.8,58.529-42.891,104.435-46.13,65.339-4.57,123.433,18.828,178.761,36.413q6.554,2.085,13.211,4.082c67.055,20.041,141.534,32.8,215.963,27.036,79.37-6.138,157.562-37.345,178.735-83.49" transform="translate(-72.964 -260.863)"/><path class="e" d="M104.45,617.929a1030.681,1030.681,0,0,1,121.922-83.9c19.612-11.61,40.351-23.043,65.647-30.186,50.745-14.346,108.788-8.874,161.5,3.032q21.369,4.853,41.81,10.93c57.5,17.089,111.25,38.1,160.1,62.577,48.39,24.226,91.992,52.667,148.934,71.332,36.894,12.1,79.139,21.18,121.256,23.664,36.459,2.159,73.532-1.021,104.538-12.276a157.466,157.466,0,0,0,15.848-6.729c30.724-15.189,48.646-37.73,57.581-60.861a131,131,0,0,0,6.324-22.274c3.738-19.419,4.2-39.135,4.429-58.184.563-30.394,3.994-59.767,26.883-86.108,19.689-22.629,57.914-41.175,102.643-44.444,63.675-4.659,120.514,17.1,174.562,33.115,4.25,1.272,8.552,2.5,12.8,3.712,65.39,18.177,137.31,29.062,208.512,22.3,75.888-7.188,149.983-38.218,169.211-83.238" transform="translate(-67.3 -262.731)"/><path class="e" d="M108.08,630.417A962.057,962.057,0,0,1,228.21,548.3c19.382-11.3,39.864-22.392,64.7-29.417,49.8-14.095,106.586-9.436,158.432,1.553,14.184,2.958,28.01,6.448,41.221,10.116,56.811,15.883,110.107,35.656,158.739,58.894,48.185,23.013,91.736,50.286,147.935,68.226,38.174,12.2,81.392,21.638,124.713,24.522,37.406,2.455,75.708-.5,107.738-11.832a165.236,165.236,0,0,0,16.437-6.818c31.927-15.456,50.182-38.632,59.681-62.429a140.491,140.491,0,0,0,6.887-22.88c4.327-19.907,5.658-40.14,7.22-59.619,2.56-31.163,9.525-60.639,34.615-87.054,20.483-21.49,57.3-39.43,100.851-42.773,61.985-4.762,117.6,15.367,170.312,29.817,4.173,1.139,8.347,2.263,12.571,3.343,63.726,16.269,133.136,25.335,201.036,17.585,72.457-8.253,142.4-39.12,159.712-83.016" transform="translate(-61.636 -264.585)"/><path class="e" d="M111.71,642.914a897.557,897.557,0,0,1,118.364-80.325c19.177-10.989,39.429-21.756,63.777-28.663,48.825-13.843,104.384-9.924,155.36.1,13.954,2.721,27.575,5.916,40.632,9.273C545.949,558,598.783,576.543,647.2,598.544c47.955,21.771,91.454,47.816,146.911,65.076,39.48,12.305,83.671,22.185,128.169,25.35,38.4,2.766,77.885,0,110.939-11.374a164.4,164.4,0,0,0,17-6.907c33.079-15.737,51.744-39.549,61.806-64a159.109,159.109,0,0,0,7.476-23.472c4.89-20.41,7.143-41.161,10.011-61.083,4.557-31.9,14.952-61.541,42.3-88,21.1-20.322,56.685-37.656,99.059-41.028,60.346-4.866,114.7,13.636,166.113,26.533,4.045,1.006,8.142,2,12.238,2.958,62.088,14.435,128.861,21.593,193.585,12.852,69-9.288,134.8-39.933,150.214-82.824" transform="translate(-55.972 -266.449)"/><path class="e" d="M115.34,655.392c34.728-28.124,73.74-54.4,116.571-78.506,18.946-10.693,38.968-21.12,62.856-27.909,47.878-13.592,102.208-10.442,152.288-1.375,13.723,2.455,27.165,5.354,40.069,8.46,55.385,13.5,107.747,30.809,155.949,51.558C690.822,628.163,734.3,653,789.01,669.605c40.811,12.394,85.975,22.57,131.651,26.178,39.275,3.061,80.061.547,114.164-10.93a167.326,167.326,0,0,0,17.564-7.01c34.231-16,53.28-40.436,64.008-65.564a176.055,176.055,0,0,0,8.014-24.063c5.479-20.9,8.679-42.166,12.8-62.517,6.606-32.671,20.3-62.444,50-88.962,21.558-19.227,56.1-35.91,97.292-39.4,58.657-4.969,111.758,11.832,161.889,23.235q5.914,1.331,11.906,2.588c60.423,12.572,124.636,17.866,186.135,8.134,65.544-10.353,127.2-40.894,140.817-82.543" transform="translate(-50.308 -268.307)"/><path class="e" d="M119,667.884c34.018-27.6,72.465-53.285,114.83-76.716,18.716-10.353,38.4-20.484,61.908-27.14,46.931-13.311,99.852-10.885,149.19-2.84,13.518,2.2,26.755,4.807,39.506,7.632,54.688,12.291,106.589,28.372,154.566,47.89,47.545,19.316,91.019,42.891,144.888,58.85,42.117,12.483,88.254,23.043,135.082,27.007,40.248,3.372,82.263,1.08,117.391-10.486A166.5,166.5,0,0,0,1054.513,685c35.358-16.269,54.842-41.412,66.031-67.132a196.92,196.92,0,0,0,8.6-24.655c6.042-21.4,10.241-43.172,15.567-63.982,8.68-33.411,25.6-63.331,57.71-89.894,21.968-18.147,55.482-34.165,95.525-37.729,56.993-5.073,108.839,10.176,157.639,19.937,3.84.769,7.681,1.479,11.6,2.218,58.887,10.693,120.335,14.124,178.659,3.4,62.113-11.4,119.618-41.767,131.191-82.292" transform="translate(-44.597 -270.166)"/><path class="e" d="M122.59,680.367c33.3-27.068,71.164-52.161,113.038-74.912,18.588-10.072,38.046-19.848,60.987-26.341,45.958-13.089,97.778-11.388,146.117-4.319,13.288,1.952,26.346,4.259,38.942,6.818a982.645,982.645,0,0,1,153.158,44.222c47.34,18.074,90.84,40.406,143.864,55.729,43.525,12.542,90.558,23.516,138.564,27.835,41.2,3.668,84.49,1.612,120.616-10.043a175.552,175.552,0,0,0,18.716-7.173c36.51-16.565,56.327-42.27,68.13-68.7a219.626,219.626,0,0,0,9.192-25.247c6.606-21.9,11.7-44.193,18.358-65.431,10.7-34.18,30.724-64.248,65.416-90.855,22.275-17.083,54.868-32.4,93.707-36.043,55.328-5.176,105.946,8.445,153.44,16.639,3.738.636,7.5,1.257,11.266,1.849,57.12,8.874,116.187,10.353,171.208-1.316,58.657-12.453,112.039-42.669,121.692-82.07" transform="translate(-38.996 -272.015)"/><path class="e" d="M126.22,692.908c32.568-26.552,69.862-51.06,111.271-73.122,18.255-9.776,37.56-19.227,60.039-25.617,45.01-12.853,95.577-11.832,143.045-5.783,13.083,1.686,25.91,3.712,38.4,5.916a983.259,983.259,0,0,1,151.8,40.554c47.11,16.846,90.635,37.922,142.84,52.608,44.806,12.616,92.811,23.99,142.021,28.663,42.143,3.978,86.615,2.145,123.817-9.584a178.5,178.5,0,0,0,19.279-7.262c37.662-16.831,57.94-43.172,70.255-70.282a238.37,238.37,0,0,0,9.755-25.838c7.194-22.377,13.237-45.2,21.148-66.881,12.8-34.934,35.844-65.195,73.123-91.787a192.68,192.68,0,0,1,91.941-34.372c53.766-5.28,103,6.715,149.19,13.311,3.661.518,7.3,1.006,10.984,1.479,55.431,6.966,111.937,6.655,163.732-6.049,55.175-13.5,104.435-43.542,112.167-81.833" transform="translate(-33.332 -273.921)"/><path class="e" d="M129.85,705.357c31.851-26.017,68.565-49.929,109.479-71.3,17.922-9.48,37.125-18.576,59.118-24.862,44.063-12.6,93.4-12.394,139.972-7.247,12.8,1.479,25.6,3.165,37.765,5.147A983.091,983.091,0,0,1,626.6,643.978c46.9,15.618,90.456,35.392,141.841,49.487,46.086,12.66,95.09,24.448,145.477,29.491,43.065,4.274,88.792,2.662,127.017-9.14a182.265,182.265,0,0,0,19.868-7.395c38.789-17.083,59.476-44.045,72.354-71.806a254.532,254.532,0,0,0,10.241-26.43c7.681-22.88,14.747-46.219,23.939-68.33,14.824-35.688,40.683-66.185,80.8-92.748,22.71-15.027,53.767-28.9,90.149-32.671,52-5.384,100.108,4.969,144.99,10.028,3.533.4,7.092.769,10.651,1.109,53.767,5.1,107.713,2.958,156.179-10.767,51.744-14.568,96.857-44.444,102.669-81.6" transform="translate(-27.668 -275.751)"/><path class="e" d="M133.48,717.81c31.126-25.5,67.263-48.823,107.687-69.513,17.922-9.17,36.664-17.926,58.221-24.108,43.064-12.335,91.173-12.882,136.874-8.711,12.622,1.154,25.065,2.633,37.2,4.333a979.535,979.535,0,0,1,149.01,33.2c46.7,14.391,90.3,32.878,140.817,46.367,47.545,12.69,97.292,24.921,148.933,30.32,44.037,4.585,90.994,3.195,130.269-8.682a184.758,184.758,0,0,0,20.483-7.395c39.941-17.378,61.038-44.976,74.454-73.418,4.225-8.992,7.681-18.074,10.933-27.022,8.321-23.368,16.335-47.21,26.7-69.765,17-36.428,45.548-67.235,88.51-93.709,22.838-14.051,53.075-27.155,88.382-30.985,50.336-5.487,97.292,3.224,140.818,6.73,3.456.266,6.887.518,10.241.739,52.128,3.224,103.462-.813,148.806-15.5,48.287-15.618,89.252-45.317,93.17-81.345" transform="translate(-22.004 -277.6)"/><path class="e" d="M137.11,730.347c30.4-24.978,65.97-47.716,105.92-67.709,17.615-8.874,36.2-17.3,57.274-23.353,42.117-12.1,89-13.311,133.8-10.175,12.392.887,24.656,2.07,36.612,3.505a975.942,975.942,0,0,1,147.628,29.58c46.5,13.148,90.174,30.32,139.819,43.246,48.9,12.7,99.673,25.38,152.39,31.148,44.985,4.881,93.17,3.713,133.469-8.238a188.106,188.106,0,0,0,21.02-7.543c40.965-17.659,62.574-45.849,76.553-74.986,4.4-9.2,8.091-18.487,11.5-27.613,8.91-23.871,17.922-48.23,29.495-71.229,19.074-37.182,50.285-68.345,96.217-94.656,23.043-13.1,52.461-25.409,86.615-29.314,48.646-5.591,94.271,1.479,136.516,3.431,3.328.148,6.657.266,10.011.37,50.49,1.361,99.238-4.54,141.33-20.218,44.857-16.728,81.674-46.308,83.748-81.153" transform="translate(-16.34 -279.473)"/><path class="e" d="M140.73,742.835c29.695-24.456,64.7-46.61,104.154-65.919,17.384-8.549,35.844-16.654,56.327-22.584,41.17-11.832,86.795-13.888,130.73-11.655,12.187.621,24.221,1.479,36.049,2.677a975.856,975.856,0,0,1,146.245,25.9c46.291,11.935,90.021,27.776,138.82,40.125C803.34,724.1,855.007,737.229,908.9,743.352c45.906,5.191,95.346,4.245,136.7-7.78a192.639,192.639,0,0,0,21.558-7.632c42.22-17.94,64.136-46.81,78.678-76.553,4.583-9.406,8.449-18.9,12.085-28.219,9.473-24.359,19.382-49.236,32.286-72.664,21.123-37.936,54.919-69.513,103.923-95.6,22.915-12.187,51.846-23.664,84.8-27.628,47.007-5.694,91.352-.237,132.317.133h9.678c48.825-.5,95.013-8.282,133.879-24.951,41.4-17.748,74.1-47.091,74.249-80.887" transform="translate(-10.692 -281.326)"/><path class="e" d="M144.36,755.351c28.985-23.933,63.434-45.495,102.413-64.1a352.362,352.362,0,0,1,55.405-21.83c40.2-11.6,84.49-14.405,127.657-13.119,11.957.355,23.811.991,35.46,1.849a971.153,971.153,0,0,1,144.863,22.185c46.086,10.693,89.867,25.143,137.77,36.975,51.693,12.719,104.23,26.341,159.328,32.819,46.854,5.472,97.522,4.777,139.9-7.4a197.025,197.025,0,0,0,22.147-7.72c43.371-18.221,65.672-47.713,80.778-78.136,4.762-9.6,8.807-19.227,12.648-28.8,10.036-24.862,20.892-50.286,35.076-74.128,23.171-38.676,59.451-70.815,111.63-96.535,23.043-11.314,51.206-21.9,83.031-25.956,45.318-5.8,88.433-1.967,128.016-3.165,3.124-.089,6.247-.222,9.371-.37,47.161-2.366,90.789-12.01,126.428-29.669,37.944-18.783,66.568-47.994,64.648-80.65" transform="translate(-5.028 -283.223)"/><path class="e" d="M148,767.82c28.266-23.412,62.134-44.391,100.595-62.311a368.571,368.571,0,0,1,54.483-21.061c39.25-11.344,82.416-14.908,124.585-14.6,11.726.1,23.4.459,34.871,1.035A964.541,964.541,0,0,1,605.912,689.4c45.855,9.465,89.739,22.643,136.772,33.884,53.1,12.69,106.509,26.8,162.759,33.633,47.827,5.783,99.724,5.31,143.122-6.878a202.4,202.4,0,0,0,22.736-7.809c44.5-18.443,67.311-48.63,82.9-79.7,4.941-9.806,9.192-19.7,13.237-29.388,10.6-25.35,22.4-51.262,37.867-75.577,25.219-39.445,63.88-72.2,119.311-97.5,23.043-10.457,50.643-20.144,81.239-24.271,43.679-5.916,85.54-3.7,123.868-6.463,3.021-.222,6.042-.473,9.038-.74,45.523-4.245,86.564-15.751,118.952-34.4,34.513-19.819,58.887-48.807,55.149-80.413" transform="translate(0.652 -285.058)"/><path class="e" d="M151.62,780.41c27.528-22.945,60.838-43.384,98.828-60.639a388.357,388.357,0,0,1,53.536-20.292c38.4-11.107,80.215-15.426,121.512-16.062q17.282-.266,34.308.207a956.424,956.424,0,0,1,142.072,14.79c45.65,8.238,89.611,20.055,135.7,30.749,54.535,12.645,108.813,27.273,166.241,34.476,48.774,6.079,101.9,5.827,146.348-6.434a205.168,205.168,0,0,0,23.3-7.913c45.651-18.754,68.77-49.517,84.977-81.271,5.121-10,9.55-20.1,13.826-29.979,11.163-25.838,23.913-52.268,40.632-77.027,27.293-40.184,68.232-73.713,127.017-98.428,23.043-9.643,50.054-18.4,79.37-22.6,41.989-6,82.6-5.428,119.618-9.761,2.919-.34,5.838-.71,8.731-1.109,43.405-5.884,82.451-19.583,111.5-39.12,31.031-20.884,51.206-49.769,45.625-80.177" transform="translate(6.3 -286.955)"/><path class="e" d="M155.25,792.79c26.838-22.376,59.58-42.183,97.036-58.7A412.139,412.139,0,0,1,304.9,714.536c37.329-10.841,78.038-15.958,118.44-17.511,11.291-.459,22.556-.651,33.719-.636a948.732,948.732,0,0,1,140.689,11.2c45.445,7,89.611,17.452,134.749,27.628C788.442,747.8,843.591,763,902.222,770.5c49.7,6.389,104.077,6.36,149.548-5.99a205.674,205.674,0,0,0,23.862-7.987c46.8-19.035,70.332-50.434,87.051-82.824,5.274-10.205,9.908-20.5,14.389-30.571,11.752-26.341,25.45-53.244,43.525-78.476,29.341-40.939,72.508-75.355,134.749-99.389a372.247,372.247,0,0,1,77.68-20.913c40.325-6.093,79.677-7.158,115.394-13.059,2.816-.459,5.607-.961,8.4-1.479,41.852-7.871,78.285-23.229,104.026-43.853,27.6-21.933,43.73-50.641,36.126-79.94" transform="translate(11.964 -288.775)"/><path class="e" d="M158.87,805.3c26.14-21.86,58.326-41.087,95.269-56.912A444.138,444.138,0,0,1,305.832,729.6,538.851,538.851,0,0,1,421.2,710.611c11.06-.725,22.121-1.183,33.156-1.479a939.954,939.954,0,0,1,139.307,7.513c45.215,5.768,89.355,14.79,133.725,24.507,57.377,12.5,113.371,28.2,173.154,36.117,50.643,6.7,106.253,6.892,152.774-5.531a211.155,211.155,0,0,0,24.425-8.075c47.929-19.316,71.868-51.351,89.2-84.407,5.453-10.353,10.241-20.913,14.978-31.177,12.315-26.829,26.96-54.294,46.086-79.866,31.389-41.708,76.809-77.13,142.43-100.35a440.349,440.349,0,0,1,75.887-19.227c38.661-6.2,76.81-8.874,111.169-16.358,2.714-.592,5.428-1.2,8.091-1.849,40.338-9.876,74.2-26.9,96.7-48.615,24.144-23,36.126-51.543,26.628-79.7" transform="translate(17.612 -290.648)"/><path class="e" d="M162.5,817.737c25.417-21.344,57.034-39.988,93.451-55.108,48.033-20.382,104.04-33.591,163.041-38.454,10.83-.991,21.711-1.745,32.567-2.278a925.09,925.09,0,0,1,137.924,3.845c45.01,4.541,89.227,12.231,132.7,21.386,58.887,12.379,115.675,28.663,176.662,36.975,51.59,7,108.429,7.4,155.974-5.088a213.776,213.776,0,0,0,25.014-8.164c49.081-19.6,73.43-52.253,91.3-85.989,5.633-10.6,10.625-21.312,15.541-31.754,12.8-27.332,28.5-55.3,49-81.345,33.463-42.448,80.855-79.038,150.137-101.282a544.5,544.5,0,0,1,74.249-17.556c37-6.3,73.839-10.619,106.944-19.656,2.56-.71,5.12-1.479,7.681-2.218,38.676-11.877,69.862-30.513,89.1-53.244,20.687-24.034,28.548-52.431,17.1-79.467" transform="translate(23.276 -292.454)"/><path class="e" d="M166.13,830.277c57.069-48.63,151.059-80.768,250.757-92.512S621.175,733.624,717.11,753.1c60.3,12.246,117.928,29.151,180.067,37.774s132.061,7.972,184.8-12.882c65.979-26.1,88-75.429,109.53-119.9,35.409-73.181,92.171-150.991,209.613-185.068,58.58-16.964,127.12-21.224,182.525-41.412,76.81-28.012,115.214-86.965,89.227-137.251" transform="translate(28.94 -294.36)"/></g><g transform="translate(-676.512 -220.125)"><path class="e" d="M-264.23-27.305q73.661-40.745,155.36-76.183C-84.7-113.96-59.4-124.195-30.294-128.943c74.4-12.009,150.188,15.337,207.027,45.465,52.541,27.794,99.175,59.1,138.923,93.251,39.3,33.81,72.457,70.815,124.329,98.4S569.818,152.186,633.826,135.1c38.072-10.161,65.6-30.808,80.7-53.407s19.023-47.165,19.919-71.392c1.024-27.731-1.1-57,21.84-81.345,23.76-25.143,74.4-41.1,123.945-38.9,70.537,3.15,122.511,37.419,173.871,65.505,65.237,35.659,144.735,65.505,233.808,71.924s188.209-15.322,230.121-61.231" transform="translate(264.23 157.576)"/><path class="e" d="M-262-20.306A1676.613,1676.613,0,0,1-108.944-94.893c23.836-10.205,48.825-20.188,77.424-24.8,57.479-9.259,115.8,4.718,165.627,25.143q20.114,8.28,38.635,17.748c52.243,26.521,98.827,56.545,138.769,89.435,39.429,32.568,72.713,68.478,124.226,95.2,28.88,15,64.9,26.977,102.413,32.42,32.67,4.733,66.7,4.437,97.574-3.52,5.493-1.418,10.813-3.048,15.925-4.881,31.415-11.27,54.151-29.846,67.976-49.887a119.183,119.183,0,0,0,10.907-19.7c7.681-17.423,10.907-35.5,12.93-53.348,3.277-28.264,4.941-57.385,29.725-81.493s73.251-39.46,121.666-37.434c68.924,2.869,120.181,35.407,170.748,61.822,3.968,2.071,8.014,4.141,12.11,6.167,61.78,30.719,135.031,55.241,215.706,59.944,86.1,5.029,181.014-16.979,220.7-61.97" transform="translate(267.71 161.995)"/><path class="e" d="M-259.69-13.286a1553.592,1553.592,0,0,1,150.751-73c23.529-9.924,48.159-19.626,76.272-24.152,56.455-9.111,113.806,3.993,163.041,23.324q19.941,7.854,38.4,16.861c51.871,25.313,98.327,54.11,138.385,85.782,39.608,31.3,73.1,66.1,124.2,92.038a360.747,360.747,0,0,0,105.587,33.544c33.515,5.132,68.668,5.147,100.595-2.751,5.7-1.406,11.215-3.042,16.514-4.9,32.618-11.433,55.994-30.586,70.511-51.218a130.1,130.1,0,0,0,11.649-20.218c8.347-17.852,12.8-36.369,16.156-54.486,5.53-28.781,10.907-57.681,37.585-81.626,25.347-22.688,72.1-37.789,119.387-35.969,67.311,2.6,117.774,33.4,167.6,58.14q5.914,2.958,11.931,5.768C1149.61-17.427,1220.838,4.98,1298.825,8.381c83.031,3.624,173.82-18.65,211.277-62.739" transform="translate(271.314 166.407)"/><path class="e" d="M-257.41-4.343a1447.79,1447.79,0,0,1,148.5-71.421c23.222-9.643,47.519-19.035,75.119-23.5,55.431-8.963,111.809,3.283,160.481,21.579Q146.4-70.27,164.709-61.714c51.572,24.05,97.986,51.572,138.257,81.981,39.787,30.113,73.43,63.8,124.073,88.888a389.592,389.592,0,0,0,108.737,34.757c34.359,5.531,70.665,5.916,103.616-1.967,5.9-1.4,11.617-3.056,17.1-4.94,33.822-11.566,57.812-31.3,73.1-52.534a148.228,148.228,0,0,0,12.392-20.706c9.038-18.28,14.543-37.212,19.33-55.625,7.809-29.314,16.8-58.066,45.471-81.759,25.936-21.46,71.074-36.162,117.16-34.52,65.7,2.322,115.521,31.384,164.475,54.442q5.786,2.721,11.726,5.384c59.681,26.7,128.963,47.018,203.98,49.1,79.958,2.219,166.651-20.322,201.855-63.508" transform="translate(274.871 168.867)"/><path class="e" d="M-255.14,5.683A1347.217,1347.217,0,0,1-109.022-64.156c22.914-9.377,46.853-18.458,73.967-22.85,54.407-8.874,109.812,2.544,157.92,19.8,13.16,4.7,25.782,9.835,37.713,15.115,51.234,22.794,97.548,49.056,137.95,78.225,40.018,28.87,73.967,61.393,124.226,85.679a421.421,421.421,0,0,0,111.86,35.94c35.179,5.916,72.636,6.656,106.637-1.183,6.1-1.4,12.016-3.062,17.692-4.969,35.051-11.728,59.63-32.035,75.657-53.851a164.488,164.488,0,0,0,13.16-21.268C757.516,47.776,764.1,28.43,770.292,9.721c10.036-29.846,22.582-58.376,53.331-81.892,26.422-20.2,69.82-34.461,114.83-33.026,64.008,2.041,113.192,29.373,161.3,50.759,3.789,1.686,7.681,3.357,11.521,4.984,58.631,24.7,125.968,42.891,198.117,43.675,76.81.828,159.457-21.978,192.433-64.248" transform="translate(278.413 170.289)"/><path class="e" d="M-252.87,15.681A1257.692,1257.692,0,0,1-109.057-52.575c22.582-9.1,46.085-17.866,72.815-22.185,53.383-8.667,107.789,1.834,155.36,18.044,13.032,4.437,25.6,9.259,37.381,14.243,50.912,21.546,97.159,46.548,137.745,74.468,40.2,27.628,74.531,58.983,124.2,82.5,33.745,15.988,73.4,29.772,115.009,37.108,36.024,6.33,74.633,7.4,109.658-.414,6.308-1.4,12.427-3.062,18.306-4.984,36.228-11.832,61.448-32.775,78.192-55.182a184.508,184.508,0,0,0,13.928-21.786c10.472-19.138,18.076-38.9,25.6-57.9,12.264-30.349,28.394-58.672,61.32-82.026,26.781-18.99,68.668-32.8,112.654-31.562,62.472,1.775,110.862,27.376,158.227,47.091q5.607,2.322,11.317,4.585c57.607,22.673,122.9,38.779,192.254,38.247,73.84-.562,152.262-23.664,183.011-65.076" transform="translate(281.955 171.709)"/><path class="e" d="M-250.6,25.672A1174.89,1174.89,0,0,1-109.091-40.987c22.274-8.874,45.573-17.29,71.689-21.549C14.956-71.069,68.39-61.441,115.4-46.267c12.8,4.126,25.3,8.667,37.073,13.311,50.592,20.314,96.755,44.081,137.489,70.785C330.335,64.23,365,94.387,414.058,117.1c35.076,16.269,75.5,30.527,118.235,38.351,36.869,6.7,76.6,8.134,112.654.355,6.5-1.4,12.807-3.081,18.87-5.029,37.457-12.024,63.24-33.5,80.778-56.5a224.716,224.716,0,0,0,14.645-22.318c11.189-19.552,19.894-39.726,28.932-59.027,14.44-30.911,33.9-58.983,69.129-82.159C884.336-86.969,924.815-100.28,967.572-99.3c60.859,1.479,108.532,25.365,155.1,43.394,3.661,1.479,7.374,2.825,11.112,4.186,56.557,20.676,120.053,34.668,186.391,32.76,70.767-1.952,145.068-25.291,173.589-65.771" transform="translate(285.497 173.135)"/><path class="e" d="M-248.33,35.689a1095.8,1095.8,0,0,1,139.2-65.076c21.968-8.549,44.908-16.728,70.511-20.9,51.36-8.386,103.8.37,150.214,14.509,12.8,3.845,25.065,8.09,36.792,12.5,50.276,19.032,96.374,41.514,137.284,66.954,40.555,25.143,75.58,54.132,124.15,76.154,36.28,16.446,77.5,31.163,121.308,39.475,37.714,7.1,78.6,8.874,115.726,1.139a199.532,199.532,0,0,0,19.458-5.058c38.661-12.172,65.032-34.239,83.338-57.829A218.238,218.238,0,0,0,765.017,74.72c11.957-19.981,21.865-40.569,32.106-60.166,16.693-31.444,39.454-59.293,76.963-82.277C901.328-84.406,940.5-97.215,982.132-96.357c59.246,1.228,106.2,23.353,151.981,39.711,3.584,1.287,7.246,2.559,10.907,3.786,55.508,18.665,117.006,30.571,180.528,27.406,67.695-3.357,137.9-26.962,164.167-66.555" transform="translate(289.039 174.552)"/><path class="e" d="M-246,47.563A1022.5,1022.5,0,0,1-109.254-15.931c21.66-8.268,44.268-16.136,69.385-20.248,50.31-8.238,101.721-.281,147.628,12.749,12.6,3.579,24.809,7.513,36.459,11.625,50,17.778,96.071,39,137.207,63.2,40.735,23.96,76.144,51.765,124.15,72.989,37.406,16.668,79.472,31.858,124.2,40.643,38.533,7.5,80.573,9.628,118.747,1.908a201.13,201.13,0,0,0,20.047-5.073c39.89-12.335,66.85-34.964,85.9-59.16A249.855,249.855,0,0,0,770.65,79.347c12.622-20.41,23.5-41.412,35.281-61.3,19.074-31.976,45.01-59.633,84.849-82.336C918.047-79.853,956.017-92.129,996.5-91.449c57.735.873,103.974,21.238,148.933,36.029,3.559,1.154,7.118,2.278,10.728,3.387,54.458,16.654,114.011,26.445,174.665,21.963,64.648-4.748,130.7-28.619,154.745-67.28" transform="translate(292.675 174.096)"/><path class="e" d="M-243.78,60.911A957.234,957.234,0,0,1-109.21-.985c21.353-7.987,43.525-15.559,68.232-19.6C8.309-28.672,58.747-21.588,104.09-9.608c12.469,3.3,24.553,6.937,36.152,10.752,49.629,16.532,95.585,36.5,136.849,59.456,40.965,22.717,76.809,49.206,124.124,69.809,38.84,16.861,81.7,32.538,127.58,41.811,39.378,7.9,82.57,10.353,121.768,2.692A205.049,205.049,0,0,0,671.2,169.84c40.965-12.5,68.668-35.7,88.484-60.491a285.59,285.59,0,0,0,16.924-23.871c13.339-20.839,25.3-42.255,38.4-62.444,21.2-32.538,50.259-60,92.709-82.543,27.242-14.479,64.008-26.164,103.437-25.69,56.045.68,101.542,19.331,145.708,32.346,3.482,1.021,6.99,2.026,10.523,2.958,53.408,14.642,111.015,22.333,168.8,16.55,61.448-6.153,123.51-30.29,145.3-68.034" transform="translate(296.138 172.165)"/><path class="e" d="M-241.51,74.265c40.331-22.716,84.661-42.935,132.266-60.329C-88.224,6.23-66.282-1.032-42.164-5.01,6.1-12.952,55.538-6.74,100.343,4.219c12.315,2.958,24.323,6.345,35.844,9.865,49.3,15.286,95.189,33.99,136.644,55.7,40.965,21.49,77.3,46.736,124.073,66.629,40.146,17.083,83.825,33.263,130.73,42.995,40.223,8.3,84.49,11.122,124.79,3.476a212.767,212.767,0,0,0,21.251-5.147c42.3-12.631,70.46-36.428,91.019-61.808,6.5-8.046,12.315-16.269,17.666-24.389,14.056-21.268,27.139-43.083,41.682-63.6,23.478-33.026,55.533-60.4,100.569-82.676,27.191-13.429,62.958-24.507,101.184-24.211,54.432.4,99.238,17.319,142.584,28.648,3.431.887,6.862,1.76,10.241,2.6C1231-35.063,1286.639-29.488,1341.558-36.587c58.5-7.528,116.315-31.946,135.876-68.8" transform="translate(299.68 170.244)"/><path class="e" d="M-239.24,87.57C-199.782,65.3-156.2,45.6-109.278,28.838c20.713-7.395,42.3-14.391,65.928-18.3,47.238-7.809,95.7-2.455,139.921,7.4,12.187,2.721,24.093,5.768,35.537,9.007,49,14.053,94.824,31.532,136.439,52.046,41.247,20.2,77.936,44.193,124.047,63.4,41.477,17.26,85.924,34.017,133.879,44.163,40.965,8.7,86.539,11.832,127.811,4.245a217.915,217.915,0,0,0,21.84-5.162c43.525-12.793,72.278-37.167,93.58-63.139,6.759-8.223,12.8-16.609,18.434-24.906,14.773-21.712,28.932-43.926,44.882-64.721C858.751-.682,893.725-27.985,941.449-49.948c27.037-12.424,61.832-22.836,98.879-22.747,52.845.118,96.934,15.322,139.486,24.966,3.354.769,6.734,1.479,10.113,2.2C1241.237-34.892,1295-31.4,1347-39.817c55.457-8.874,109.146-33.618,126.454-69.513" transform="translate(303.222 168.357)"/><path class="e" d="M-237,100.928C-198.4,79.08-155.538,59.9-109.266,43.779-88.783,36.621-67.61,29.951-44.49,26.12c46.239-7.646,93.707-3.165,137.361,5.694,12.059,2.455,23.837,5.191,35.23,8.135C176.763,52.712,222.512,68.9,264.31,88.135c41.477,19.02,78.55,41.738,124.047,60.284,42.885,17.437,88,34.653,137.028,45.331,41.861,9.1,88.484,12.616,130.806,5.029a219.807,219.807,0,0,0,22.428-5.191c44.729-12.941,74.07-37.892,96.165-64.455,6.964-8.416,13.262-16.994,19.177-25.454,15.49-22.185,30.724-44.74,48.057-65.845,28.164-34.017,65.8-61.379,116.315-82.943,26.832-11.447,60.679-21.179,96.6-21.283,51.206-.148,94.6,13.311,136.362,21.3,3.277.621,6.605,1.228,9.908,1.79,50.285,8.623,102.054,10,151.212.266C1404.8-53.391,1454.37-78.312,1469.45-113.35" transform="translate(306.717 166.431)"/><path class="e" d="M-234.69,114.257c37.707-21.4,79.794-40.059,125.328-55.566C-89.264,51.814-68.4,45.454-45.739,41.7c45.215-7.513,91.71-3.89,134.8,3.919,11.905,2.174,23.657,4.674,34.923,7.262,48.332,11.511,94.007,26.44,135.978,44.444,41.631,17.778,79.216,39.223,124.15,57.09,44.012,17.615,89.969,35.363,140.049,46.515,42.706,9.5,90.482,13.311,133.853,5.813a224.537,224.537,0,0,0,23.043-5.236c45.932-13.089,75.888-38.617,98.726-65.771,7.22-8.593,13.749-17.349,19.945-25.971,16.207-22.555,32.618-45.568,51.206-66.984,30.34-34.579,70.844-62,124.175-83.061,26.6-10.516,59.527-19.523,94.322-19.819,49.619-.429,92.171,11.3,133.136,17.6,3.252.488,6.478.961,9.729,1.405,49.235,6.6,99.059,5.916,145.349-5.162,49.312-11.728,94.732-36.975,107.533-71.081" transform="translate(310.322 164.52)"/><path class="e" d="M-232.42,127.626c36.8-20.95,78.105-39.088,122.9-53.969C-89.759,67.046-69.174,61-47.053,57.388c44.191-7.4,89.611-4.629,132.24,2.159,11.777,1.878,23.35,4.023,34.59,6.389a845.667,845.667,0,0,1,135.7,40.673c42.015,16.432,80.061,36.576,124.2,53.806,45.5,17.748,92.171,36.058,143.378,47.683,43.525,9.895,92.453,14.125,136.874,6.6a232.351,232.351,0,0,0,23.606-5.265c47.135-13.311,77.68-39.356,101.286-67.1,7.425-8.77,14.21-17.748,20.662-26.489,16.872-22.984,34.385-46.411,54.407-68.079C892.634,12.6,935.621-14.95,991.948-35.479c26.346-9.614,58.375-17.866,92.171-18.354,48.006-.7,89.944,9.3,130.09,13.917q4.762.555,9.524,1.006c48.185,4.6,96.063,1.76,139.486-10.575,46.239-13.134,87.563-38.617,98.188-71.835" transform="translate(313.864 162.614)"/><path class="e" d="M-230.15,140.935c35.981-20.521,76.586-38.147,120.719-52.4A424.074,424.074,0,0,1-47.984,72.842c43.167-7.218,87.716-5.339,129.654.4,11.649,1.6,23.043,3.446,34.308,5.517a854.527,854.527,0,0,1,135.543,36.975c41.861,15.293,80.419,34.106,123.842,50.685,46.879,17.852,94.322,36.768,146.476,48.911,44.37,10.353,94.45,14.79,139.9,7.395a230.477,230.477,0,0,0,24.2-5.28c48.339-13.4,79.37-40.1,103.846-68.434,7.681-8.874,14.7-18.059,21.43-27.007,17.641-23.516,36.254-47.328,57.633-69.365,34.9-35.629,80.6-63.464,139.947-83.327,26.09-8.726,57.249-16.2,89.765-16.875,46.393-.976,87.614,7.277,126.966,10.22,3.1.237,6.221.444,9.345.621,47.135,2.573,93.042-2.352,133.6-16.018,43.193-14.509,80.394-40.273,88.766-72.59" transform="translate(317.406 160.693)"/><path class="e" d="M-227.87,154.255c35.1-20.086,74.963-37.191,118.389-50.8A439.938,439.938,0,0,1-49.314,88.409c42.143-7.07,85.719-6.079,127.094-1.375,11.521,1.316,22.864,2.958,34,4.644a860.543,860.543,0,0,1,135.313,33.174c42.168,14.08,81.213,31.606,123.97,47.565,48.262,18.014,96.4,37.419,149.6,50.05,45.215,10.664,96.421,15.6,142.917,8.134a233.981,233.981,0,0,0,24.784-5.324c49.568-13.533,81.316-40.806,106.407-69.75,7.911-9.125,15.183-18.414,22.2-27.524,18.357-23.842,38.046-48.1,60.833-70.4,37.125-36.162,85.387-64.366,147.807-83.46,25.808-7.9,56.1-14.539,87.486-15.411,44.78-1.242,85.284,5.28,123.842,6.552,3.047.1,6.094.163,9.14.207,46.086.577,90.046-6.463,127.734-21.431,40.12-15.914,73.2-41.945,79.37-73.359" transform="translate(320.963 158.791)"/><path class="e" d="M-225.6,167.637c34.242-19.655,73.367-36.249,116.085-49.236A465,465,0,0,1-50.628,104.01c41.119-6.922,83.722-6.8,124.534-3.136q17.052,1.553,33.668,3.786a865.136,865.136,0,0,1,135.236,29.4c42.348,12.852,81.93,29.062,123.945,44.37,49.67,18.118,98.5,38.143,152.748,51.218,46.086,11.063,98.419,16.358,145.938,8.874a240.026,240.026,0,0,0,25.373-5.354c50.771-13.7,83.133-41.545,108.992-71.081,8.142-9.3,15.644-18.769,23.043-28.1,19.049-24.256,39.839-48.911,64.008-71.525,39.4-36.679,90.123-65.387,155.693-83.593,25.6-7.084,54.944-12.867,85.207-13.932,43.192-1.479,82.954,3.254,120.719,2.854,2.97,0,5.94-.089,8.935-.192,44.526-1.262,87.2-10.668,121.871-26.859,37.048-17.3,66.005-43.6,69.922-74.113" transform="translate(324.505 156.842)"/><path class="e" d="M-223.33,180.923c33.388-19.214,71.78-35.289,113.781-47.639a488.35,488.35,0,0,1,57.863-13.74c40.12-6.789,81.725-7.587,121.973-4.9,11.24.725,22.377,1.716,33.284,2.958a871.95,871.95,0,0,1,134.98,25.6c42.5,11.61,82.57,26.489,123.893,41.205,51.206,18.207,100.62,38.853,155.9,52.4,46.879,11.462,100.39,17.1,148.959,9.688a243.016,243.016,0,0,0,25.987-5.369c51.974-13.858,84.9-42.285,111.527-72.471,8.372-9.48,16.13-19.138,23.709-28.574C848.29,115.4,870.18,90.334,895.732,67.424,937.363,30.212,990.464.869,1059.285-16.3a422.031,422.031,0,0,1,82.877-12.409c41.58-1.8,80.624,1.257,117.57-.828q4.378-.237,8.756-.577c43.613-3.394,84.234-14.7,116.008-32.287,33.975-18.709,58.887-45.272,60.474-74.867" transform="translate(328.047 154.974)"/><path class="e" d="M-221.06,194.233c32.536-18.775,70.2-34.329,111.476-46.041A522.754,522.754,0,0,1-52.873,135.1c39.1-6.641,79.728-8.312,119.387-6.67,11.112.444,22.147,1.139,33.079,2.026a878.8,878.8,0,0,1,134.673,21.9c42.68,10.4,83.261,23.916,123.868,38.04,52.563,18.266,102.72,39.549,159.047,53.569,47.724,11.832,102.413,17.852,152.006,10.471a249.693,249.693,0,0,0,26.5-5.4c53.178-14.006,86.718-43.024,114.088-73.743,8.628-9.658,16.617-19.493,24.451-29.092,20.483-25.143,43.525-50.6,70.409-73.8,43.909-37.744,99.52-67.871,171.541-83.845a493.317,493.317,0,0,1,80.65-11.019c39.966-2.071,78.294-.74,114.446-4.437,2.868-.3,5.71-.636,8.551-.991,42.679-5.529,81.225-18.733,110.093-37.715,30.929-20.1,51.616-46.929,51.053-75.621" transform="translate(331.589 153.082)"/><path class="e" d="M-218.78,207.6c31.67-18.35,68.6-33.4,109.146-44.474a569.178,569.178,0,0,1,55.559-12.438,641.811,641.811,0,0,1,116.827-8.43q16.476.244,32.746,1.154a883.754,883.754,0,0,1,134.468,18.147c42.86,9.17,83.953,21.342,123.868,34.875,54.1,18.31,104.794,40.273,162.17,54.738,48.646,12.261,104.358,18.591,155.027,11.255a249.768,249.768,0,0,0,27.139-5.443c54.381-14.154,88.536-43.734,116.674-75.059,8.833-9.835,17.077-19.848,25.193-29.58C861.263,126.8,885.33,100.9,913.647,77.4c46.086-38.262,104.179-69.321,179.222-83.978a604.7,604.7,0,0,1,78.448-9.628c38.4-2.352,75.965-2.766,111.323-8.194,2.791-.429,5.581-.887,8.347-1.39,41.762-7.634,78.267-22.711,104.281-43.069,27.856-21.49,44.447-48.6,41.631-76.39" transform="translate(335.146 151.151)"/><path class="e" d="M-216.51,220.866c71.3-41.826,173.845-63.6,275.515-64.8s202.265,17.186,290.519,46.352c55.482,18.34,106.893,40.954,165.32,55.921s127.4,21.593,185.776,6.567c73.071-18.8,110.094-65,145.2-106.488C903.5,90.092,983.484,19.47,1109.759-1.8c62.907-10.59,131.651-7.632,192.459-21.727,84.311-19.552,140.408-73.536,130.576-125.715" transform="translate(338.688 149.24)"/></g><g transform="translate(-109.369 -111.359)"><path class="e" d="M-41.8,792.032c-10.753-50.286,75.171-92.778,161.837-100.572s173.615,8.312,259.514,18.65,182.5,13.74,254.239-15.426C725.5,657.4,746.7,578.966,841.173,543.943c73.532-27.288,169.262-19.124,244.587,1.183,42.6,11.477,78.832,30.793,119.541,44.252,184.675,61.009,197.144,185.7,354.015,204.295,169.749,20.159,261.92-27.687,293.975-60.8,40.965-42.492,109.556-152.781-58.222-229.423-68.181-31.133-135.466-64.322-185.6-105.32-75.094-61.364-74.582-155.207,21.43-205.922,65.8-34.757,166.856-47.476,211.559-92.038,30.032-29.95,25.936-68.567,0-99.818s-70.639-56.01-119.567-76.05" transform="translate(42.717 75.7)"/><path class="e" d="M-40.565,793.009c-7.425-51.765,78.038-96.431,167.291-105.335,87.051-8.682,175.51,7.321,261.408,18.724,84.874,11.285,179.222,16.387,250.6-10.116C730.09,662.354,755.77,587.9,850.015,553.337c75.068-27.376,169.262-22.289,246.4-4.541,44.319,10.205,83.594,28.412,126.224,42.048,180.784,57.859,195.762,178.5,349.125,196.841,165.063,19.686,256.748-25.587,290.058-58.243,42.219-41.412,107.533-147.634-51-223.33-65.365-31.236-130.166-65.076-179.5-105.793-72.867-59.929-73.532-150.415,17.077-200.7,62.7-34.786,160.122-48.955,204.62-92.941,30.545-30.083,28.676-68.138,6.119-99.611-22.787-31.843-64.366-57.947-111.271-79.467" transform="translate(45.371 77.281)"/><path class="e" d="M-39.233,793.938c-4.1-53.17,80.906-100.055,172.744-110.053,87.588-9.525,177.4,6.315,263.3,18.813,83.876,12.2,175.714,19.02,246.994-4.836,90.968-30.556,120.975-101.149,215.246-135.122,76.477-27.583,169.365-25.5,248.2-10.264,46.086,8.874,88.331,26.016,132.932,39.844,176.662,54.841,194.174,171.284,344.234,189.313,160.3,19.227,251.423-23.472,286.013-55.6,43.346-40.258,105.562-142.546-43.73-217.413-62.6-31.37-124.918-65.8-173.436-106.3-70.665-58.465-72.483-145.652,12.8-195.45,59.578-34.742,153.311-50.345,197.63-93.754,31.057-30.2,31.415-67.738,12.085-99.419-19.714-32.316-57.812-59.811-102.848-82.824" transform="translate(47.931 78.852)"/><path class="e" d="M-37.8,794.857c-.768-54.62,83.774-103.678,178.2-114.786,88.049-10.353,179.222,5.295,265.2,18.9,82.852,13.1,172.309,21.653,243.358.458C739.566,672.233,774,605.574,868.2,572.1c77.962-27.7,169.544-28.737,250.015-15.988,47.9,7.587,93.042,23.664,139.614,37.655,172.514,51.943,192.715,164.066,339.37,181.918,155.488,18.783,246.072-21.357,281.942-52.948,44.447-39.134,103.616-137.547-36.484-211.35-59.835-31.518-119.439-66.555-167.342-106.769-68.156-57.134-71.458-140.919,8.372-190.229,56.506-34.89,146.476-51.987,190.769-94.775,31.441-30.423,34.206-67.4,18.1-99.226-16.642-32.893-51.206-61.734-94.45-86.182" transform="translate(50.386 80.447)"/><path class="e" d="M-36.28,795.805c2.56-56.069,86.641-107.287,183.677-119.5,88.459-11.152,181.117,4.26,267.066,18.961,81.93,14.006,168.981,24.3,239.748,5.753C744.437,677.189,783.3,614.465,877.419,581.5c79.37-27.835,169.8-32.021,251.807-21.712,49.773,6.256,97.779,21.268,146.3,35.5,168.213,49.177,191.255,156.863,334.505,174.434,150.7,18.354,240.67-19.227,277.9-50.286,45.523-38.01,101.7-132.637-29.213-205.33-57.1-31.695-114.113-67.369-161.3-107.257-65.877-55.7-70.434-136.216,4.02-184.979,53.459-35.023,139.716-53.54,183.882-95.78,31.9-30.482,37-67,24.093-99.019-13.544-33.5-44.831-63.6-86.052-89.583" transform="translate(52.761 82.013)"/><path class="e" d="M-34.76,796.71c5.914-57.5,89.611-110.851,189.13-124.236,88.92-11.95,183.011,3.224,268.961,19.049,80.855,14.894,165.576,27.021,236.112,11.048,89.944-20.366,133.136-79.245,227.2-111.724,80.957-27.953,170.082-35.348,253.625-27.421,51.642,4.9,102.413,18.9,152.979,33.248,163.86,46.5,189.8,149.646,329.615,166.965,145.938,17.9,235.37-17.127,273.954-47.654,46.547-36.886,99.852-127.8-21.993-199.281-54.355-31.917-108.762-68.138-155.181-107.745-63.573-54.279-69.436-131.631-.307-179.758,50.31-35.067,132.829-54.975,176.815-96.579,32.414-30.615,39.915-66.659,30.084-98.827-10.395-34.121-38.4-65.579-77.629-92.985" transform="translate(55.133 83.608)"/><path class="e" d="M-33.24,797.648C-24,738.695,59.136,683.218,161.344,668.693c89.381-12.719,184.88,2.159,270.856,19.138C512.056,703.583,594.37,717.5,664.7,704.1c89.611-16.979,137.233-71.924,231.171-103.915,82.442-28.1,170.415-38.72,255.417-33.145,53.562,3.52,107.123,16.55,159.687,31.059,159.3,43.941,188.337,142.487,324.75,159.555,141.1,17.5,229.942-15.041,269.806-45.006,47.571-35.792,97.983-123.083-14.747-193.261-54.5-33.785-104.352-69.972-149.113-108.233-61.448-52.83-68.463-126.943-4.66-174.523,47.238-35.23,126.146-56.5,169.979-97.511,32.875-30.748,42.757-66.348,36.075-98.62-7.22-34.786-31.825-67.531-69.128-96.4" transform="translate(57.504 85.184)"/><path class="e" d="M-31.72,798.577c12.6-60.388,95.244-117.98,200.037-133.687,89.867-13.474,186.9,1.094,272.75,19.227,78.858,16.624,158.74,32.331,228.867,21.638,89.2-13.607,141.3-64.618,235.165-96.135,83.953-28.19,170.773-42.152,257.235-38.868,55.456,2.1,111.758,14.213,166.42,28.841,154.592,41.412,186.9,135.225,319.886,152.042,136.311,16.994,224.54-12.912,265.761-42.359,48.646-34.683,96.242-118.453-7.476-187.227a1394.212,1394.212,0,0,1-143.019-108.737c-59.041-51.4-67.515-122.373-9.012-169.272,44.165-35.393,119.387-57.992,163.066-98.413C1949.4,116.151,1964.095,81.737,1960,47.2c-3.968-35.5-25.322-69.513-60.807-99.788" transform="translate(59.876 86.77)"/><path class="e" d="M-30.2,799.525c15.874-61.837,98.111-121.53,205.491-138.45,90.328-14.213,188.644,0,274.645,19.3,77.859,17.452,155.385,34.978,225.308,26.918,88.792-10.235,145.4-57.267,239.133-88.3,85.463-28.293,171.157-45.612,259.027-44.592,57.4.666,116.417,11.832,173.052,26.622,149.881,39.046,185.418,128.008,314.919,144.558,131.523,16.565,219.137-10.812,261.741-39.7,49.516-33.6,94.6-113.883-.256-181.208-46.086-32.775-92.786-70.4-136.926-109.21-56.788-49.961-66.568-117.847-13.365-164.036,40.965-35.6,112.654-59.5,156.179-99.345,32.007-29.4,48.69-63.495,48.057-98.221-1.01-36.5-19.122-72.16-52.409-103.19" transform="translate(62.248 88.336)"/><path class="e" d="M-28.68,800.434c19.254-63.272,101-125.05,210.944-143.138,90.814-14.953,190.539-1.08,276.514,19.39C535.588,694.966,610.733,714.3,680.4,708.9c88.433-6.863,149.5-49.946,243.23-80.5,87.051-28.4,171.541-49.118,260.845-50.286,59.323-.8,121,9.584,179.734,24.448,145.093,36.724,183.933,120.79,310.105,137.089,126.735,16.106,213.684-8.711,257.7-37.064,50.464-32.538,93.093-109.55,7.015-175.173-43.525-33.144-87.512-71.14-130.858-109.7-54.535-48.5-65.774-113.366-17.717-158.8,37.918-35.836,105.894-60.979,149.215-100.247,32.608-29.367,51.25-63.177,54.048-98.028,2.5-37.208-12.755-74.1-44.089-106.636" transform="translate(64.619 89.926)"/><path class="e" d="M-27.16,801.387c22.582-64.721,103.9-128.57,216.4-147.9,91.3-15.663,192.459-2.174,278.434,19.464,75.913,19.109,148.5,40.273,218.011,37.508,88.024-3.491,153.619-42.6,247.1-72.693,88.51-28.486,171.9-52.652,262.663-56.025,61.217-2.278,125.583,7.306,186.391,22.185,140.28,34.476,182.5,113.588,305.266,129.635,121.922,15.663,208.2-6.641,253.625-34.416,51.411-31.429,91.71-105.29,14.261-169.139-40.709-33.588-82.186-71.894-124.764-110.186-52.307-47.062-65.006-108.929-22.07-153.565,34.744-36.1,99.161-62.473,142.277-101.164,34.846-31.251,54.816-65.15,60.04-97.821,6.069-37.868-6.255-75.963-35.589-110.008" transform="translate(66.991 91.488)"/><path class="e" d="M-25.64,802.282C.3,736.17,81.151,670.207,196.186,649.678c91.787-16.388,194.354-3.3,280.354,19.552,74.915,19.907,145.119,42.891,214.349,42.8,87.64-.133,157.716-35.259,251.09-64.9,90.046-28.574,172.232-56.2,264.455-61.733,63.163-3.786,130.192,5.043,193.1,20.04,135.39,32.287,181.014,106.37,300.376,122.151,117.16,15.219,202.726-4.541,249.579-31.754,52.307-30.364,90.533-101.134,21.532-163.119-37.918-34.017-76.809-72.634-118.7-110.674-50.08-45.6-64.315-104.536-26.423-148.329,31.518-36.4,92.427-63.967,135.364-102.051,35.358-31.384,57.94-64.854,66.031-97.614,9.628-38.528.2-77.844-27.191-113.41" transform="translate(69.363 93.107)"/><path class="e" d="M-24.12,803.244c29.264-67.62,109.709-135.566,227.3-157.366,92.171-17.083,196.3-4.437,282.249,19.641,73.942,20.706,141.714,45.524,210.74,48.082,87.255,3.239,161.812-27.894,255.058-57.075,91.583-28.663,172.591-59.826,266.273-67.472,65.057-5.31,134.724,2.81,199.7,17.852,130.448,30.142,179.5,99.3,295.486,114.682,112.321,14.908,197.144-2.485,245.56-29.107,53.178-29.314,89.611-97.1,28.752-157.1-35-34.579-71.689-73.373-112.654-111.162-47.878-44.133-63.726-100.173-30.724-143.079,28.163-36.724,85.694-65.446,128.425-102.983,35.844-31.5,61.115-64.544,72.047-97.437,13.206-39.184,6.684-79.734-18.793-116.841" transform="translate(71.734 94.659)"/><path class="e" d="M-22.6,804.139C9.993,735.085,90.054,665.113,210.158,642.085c92.786-17.748,198.22-5.576,284.195,19.715,72.995,21.5,138.257,48.171,207.1,53.392,86.872,6.582,165.934-20.543,259.053-49.28s172.9-63.434,268.065-73.2c66.952-6.848,139.281.621,206.464,15.648,125.455,28.1,178.044,92.1,290.647,107.228,107.533,14.45,191.691-.429,241.489-26.459,54.048-28.279,88.741-93.177,36.024-151.065-32.081-35.171-66.389-74.113-106.586-111.65-45.676-42.684-63.214-95.869-35.128-137.843,24.835-37.094,78.986-66.94,121.513-103.915,36.51-31.606,64.289-64.218,78.013-97.23,16.8-39.8,13.2-81.562-10.369-120.2" transform="translate(74.106 96.264)"/><path class="e" d="M-21.07,805.073c36.024-70.5,115.521-142.5,238.289-166.817,93.3-18.458,200.165-6.729,286.038,19.8,72.073,22.274,134.9,50.789,203.494,58.672,86.487,9.939,170.031-13.163,263.021-41.412,94.732-28.811,173.18-67.073,269.883-78.9,68.821-8.43,143.787-1.553,213.146,13.444,120.514,26.045,176.662,84.88,285.757,99.759,102.72,13.991,186.186,1.612,237.444-23.827,54.919-27.228,88.228-89.3,43.269-145.031-28.881-35.792-61.064-74.838-100.441-112.138-43.525-41.205-62.856-91.58-39.454-132.607,21.327-37.463,72.252-68.419,114.574-104.817,36.894-31.725,67.49-63.893,84-97.037,20.4-40.425,19.725-83.426-1.946-123.63" transform="translate(76.493 97.844)"/><path class="e" d="M-19.55,806.026C19.7,734.087,98.89,660.077,224.09,634.461c93.81-19.138,202.265-7.9,287.933,19.893,71.126,23.028,131.5,53.422,199.858,63.967,86.1,13.311,174.1-5.8,267.015-33.677,96.216-28.885,173.436-70.726,271.675-84.629,70.69-10,148.293-3.668,219.854,11.24,115.5,24.093,175.1,77.662,280.867,92.29,97.932,13.548,180.63,3.653,233.4-21.165,55.764-26.208,88-85.545,50.541-139.026-25.6-36.472-55.815-75.562-94.373-112.612-41.323-39.741-62.6-87.261-43.807-127.372,17.743-37.862,65.544-69.913,107.533-105.734,37.432-31.843,70.741-63.6,90.021-96.83,23.979-41.026,26.216-85.252,6.427-127.017" transform="translate(78.865 99.406)"/><path class="e" d="M-18,806.939C24.5,733.566,103.308,657.56,231.016,630.672c94.322-19.833,204.108-9.1,289.828,19.952,70.229,23.8,128.016,56.054,196.248,69.262,85.719,16.624,178.3,1.582,270.984-25.868,97.779-28.929,173.692-74.394,273.493-90.338,72.508-11.6,152.748-5.753,226.537,9.037,110.452,22.185,173.641,70.445,276,84.821,93.119,13.089,175.074,5.665,229.353-18.517,56.583-25.217,88.024-81.819,57.761-132.977a545.153,545.153,0,0,0-88.254-113.114c-39.173-38.262-62.5-83.031-48.185-122.136,14-38.262,58.887-71.377,100.723-106.636,37.944-31.961,73.993-63.2,95.986-96.638,27.595-41.614,32.771-87.075,14.85-130.419" transform="translate(81.284 100.991)"/><path class="e" d="M-16.51,807.859C29.422,733.036,107.844,655.033,238.036,626.9c94.732-20.5,206.105-10.279,291.722,20.04C599.067,671.495,654.5,705.526,722.371,721.5c85.438,19.863,182.448,8.948,274.978-18.059,99.34-29,173.9-78.091,275.285-96.135,74.249-13.193,157.2-7.765,233.219,6.848,105.434,20.262,172.258,63.094,271.137,77.352,88.382,12.527,169.518,7.676,225.308-15.87,57.4-24.226,88.408-78.106,65.032-126.958-18.933-39.73-46.551-77.9-82.186-113.6-37.022-36.768-62.523-78.742-52.538-116.841,10.241-38.661,52.128-72.856,93.784-107.553,38.4-32.065,77.27-62.828,102-96.446,31.192-42.188,39.3-88.878,23.248-133.805" transform="translate(83.608 102.586)"/><path class="e" d="M-15,808.792c49.286-76.287,127.324-156.257,260.026-185.733,95.372-21.165,208.128-11.477,293.617,20.129,68.437,25.291,121.359,61.231,189,79.866C812.7,746.29,914.215,739.4,1006.719,712.8c100.9-29.048,174.1-81.774,277.1-101.785,76.118-14.79,161.607-9.732,239.9,4.629,100.364,18.428,170.773,55.892,266.273,69.9,83.594,12.084,163.86,9.658,221.262-13.222,58.222-23.25,89.125-74.349,72.277-120.938-14.97-40.075-40.641-78.56-76.092-114.076-34.9-35.289-62.651-74.453-56.89-111.665,6.042-39.031,45.446-74.32,86.871-108.47,39.019-32.168,80.547-62.429,107.994-96.239,34.771-42.76,45.823-90.68,31.646-137.207" transform="translate(85.964 104.167)"/><path class="e" d="M-13.47,809.74C39.119,732.019,116.8,650.008,251.983,619.318c95.909-21.815,210.151-12.69,295.512,20.2,67.567,26.031,117.954,63.878,185.367,85.146,84.7,26.622,190.795,23.827,282.94-2.455,102.566-28.974,174.255-85.472,278.9-107.509,77.911-16.417,166.011-11.61,246.609,2.44,95.269,16.609,169.314,48.718,261.382,62.414,78.781,11.64,158.33,11.64,217.192-10.575s90.123-70.5,79.549-114.889c-9.4-39.4-34.974-78.387-70.025-114.578-32.8-33.8-62.907-70.09-61.243-106.414,1.818-39.386,38.865-75.755,79.933-109.446,39.685-32.227,83.85-62.118,113.985-96.047,38.373-43.317,52.381-92.473,40.069-140.609" transform="translate(88.352 105.734)"/><path class="e" d="M-11.95,810.684c55.917-79.2,133.316-163,270.907-195.229,96.5-22.392,212.2-13.918,297.406,20.292,66.568,26.77,114.574,66.555,181.782,90.426,84.311,29.965,194.891,31.177,286.909,5.354,104.1-29.048,174.383-89.169,280.713-113.233,79.677-18.029,170.338-13.385,253.266.252,90.3,14.79,167.854,41.412,256.518,54.945,74.019,11.2,152.749,13.592,213.172-7.927,59.835-21.312,91.378-66.555,86.769-108.87-4.353-40.022-29.8-79.127-64.008-115.052-30.724-32.316-63.265-65.683-65.6-101.193-2.56-39.667,32.132-77.234,73.02-110.289,40.2-32.361,87.051-61.63,119.977-95.839,41.97-43.854,58.947-94.234,48.518-143.981" transform="translate(90.723 107.333)"/><path class="e" d="M-10.43,811.573C48.841,730.968,125.8,645.112,265.93,611.7c97.01-23.117,214.273-15.145,299.3,20.381C631.082,659.576,676.4,701.225,743.4,727.758c83.953,33.322,198.988,38.528,290.9,13.163,105.613-29.151,174.511-92.881,282.505-118.956,81.444-19.671,174.69-15.071,259.974-1.967s166.421,34.268,251.628,47.491c69.129,10.738,147.167,15.544,209.127-5.28,60.654-20.381,92.914-62.31,94.04-102.835s-24.707-79.866-57.863-115.555c-28.6-30.808-63.726-61.172-69.948-95.943-7.118-39.933,25.4-78.727,66.082-111.206s90.43-61.216,125.968-95.647c45.525-44.4,65.43-96.016,56.839-147.383" transform="translate(93.095 108.914)"/></g><g transform="translate(923.07 -425.825)"><path class="e" d="M425.741,1186.388c-74.608-26.622-78.115-91.979-34.359-135.891s120-72.974,187.748-105.157,132.88-73.566,138.462-124.133c7.169-64.647-85.387-123.349-73.532-187.833,9.243-50.2,80.24-88.193,154.848-109.446,42.168-11.995,90.917-16.2,134.6-26.1,198.117-44.8,374.164,27.716,497.546-31.192,133.572-63.863,126.761-135.344,102.08-170.559-31.62-45.124-137.515-145.046-346.052-117.522-84.7,11.181-171.541,20.706-258.361,17.585-129.859-4.718-256.134-63.76-264.429-138.745-5.556-51.4,40.53-104.861,8.347-152.9-21.583-32.3-76.272-54.6-134.6-62.577s-119.848-3.18-177.507,6.271" transform="translate(-360.53 348.774)"/><path class="e" d="M427.673,1188.077c-74.454-29.062-81.213-95.558-37.3-141.319C433.254,1002.092,510.192,972.334,579.4,940.8c68.386-31.148,134.314-70.371,143.378-119.178,11.445-62.384-72.918-120.6-60.5-184.669C672.362,586,738.239,546.736,810.517,523.161c41.528-13.563,90.686-19.834,135.7-30.5,191.307-45.139,363.411,23.738,484.309-33.869,129.962-61.985,126.3-131.631,103.13-167.127-29.392-44.932-131.831-140.9-333.379-117-82.98,9.865-169.16,17.911-255.11,14.6-126.556-4.733-249.016-61.142-260.077-133.406C677.406,5.835,719.318-46.906,687.852-94.5c-21.43-32.538-73.967-55.6-130.576-65.165-57.121-9.643-118.389-7.291-176.815.37" transform="translate(-356.547 346.907)"/><path class="e" d="M431.132,1190.026c-74.249-31.473-84.337-99.093-40.274-146.732,42.015-45.405,119.644-75.917,190.334-106.769,69-30.112,135.7-67.191,148.217-114.224,15.746-60.107-60.68-117.847-47.494-181.577,10.728-51.765,71.689-92.231,141.662-118.187,40.965-15.174,90.456-23.472,137.054-34.875,184.7-45.228,352.76,19.878,471.1-36.369,126.377-60.107,125.839-127.9,104.153-163.593-27.139-44.725-126.2-136.837-320.679-116.486-81.521,8.519-167.035,15.012-252.063,11.492-123.151-4.822-241.95-58.613-255.75-128.185C697.738,5.861,735.554-46.14,704.6-93.291c-21.276-32.908-71.689-56.587-126.556-67.738-55.969-11.374-116.9-11.433-176.15-5.546" transform="translate(-354.169 344.781)"/><path class="e" d="M434.634,1192.206c-74.249-33.869-87.409-102.658-43.218-152.145,41.2-46.115,119.439-77.381,191.614-107.553,69.589-29.122,137.182-64.011,153.107-109.284,20.047-57.844-48.313-115.111-34.462-178.486,11.47-52.46,67.464-94.331,135.057-122.58,40.248-16.816,90.2-27.1,138.257-39.267,178.172-45.139,342.109,16.017,458.04-38.839,122.767-58.243,125.455-124.236,105.2-160.132C1513.269,239.4,1417.564,151.105,1230.2,167.951c-79.984,7.188-164.68,12.039-248.888,8.46-119.772-5.1-234.909-56.128-251.423-122.95C718.214,6.133,751.5-45.07,721.543-91.806c-21.276-33.174-69.461-57.681-122.537-70.312-54.816-13.119-115.445-15.574-175.458-11.462" transform="translate(-351.859 342.409)"/><path class="e" d="M438.132,1194.655c-74.044-36.28-90.482-106.207-46.086-157.558,40.376-46.825,119.234-78.89,192.92-108.367,70.178-28.1,138.615-60.831,157.946-104.329,24.374-55.566-35.844-112.4-21.43-175.38,12.238-53.244,63.189-96.52,128.5-126.987,39.608-18.487,89.918-30.689,139.46-43.66,171.721-44.932,331.484,12.157,444.932-41.323,119.157-56.35,124.867-120.435,106.253-156.641-22.787-44.3-115.214-128.866-295.358-115.466-78.525,5.916-162.375,9.17-245.79,5.413-116.392-5.236-227.868-53.629-247.045-117.714C738.687,6.675,767.8-43.759,738.508-90.067c-21.148-33.47-67.234-58.642-118.517-72.885-53.766-14.894-113.985-19.7-174.793-17.378" transform="translate(-349.519 339.782)"/><path class="e" d="M441.673,1197.276c-73.891-38.691-93.5-109.742-49.132-162.971,39.608-47.535,119-80.384,194.2-109.18,70.767-27.066,140.2-57.607,162.836-99.389,28.855-53.244-23.5-109.594-8.4-172.274,13.006-53.969,58.887-98.738,121.9-131.38,38.942-20.174,89.611-34.284,140.817-48.053,165.345-44.592,320.833,8.3,431.8-43.808,115.547-54.472,124.354-116.693,107.277-153.151-20.483-44.074-109.915-125.005-282.659-114.963-77.117,4.437-160.071,6.3-242.616,2.366-113.038-5.369-221.006-51.159-242.718-112.4-15.823-44.651,9.063-94.3-19.51-140.165-21.02-33.78-64.955-59.722-114.472-75.429-52.563-16.713-112.526-23.841-174.1-23.294" transform="translate(-347.249 336.925)"/><path class="e" d="M445.254,1200.2c-73.763-41.1-96.549-113.277-52.1-168.4,38.84-48.215,118.747-81.892,195.506-109.964,71.279-26.075,141.637-54.427,167.7-94.449,33.284-50.966-11.086-106.843,4.609-169.183,13.8-54.723,54.535-101,115.214-135.773,38.4-21.9,89.432-37.862,141.918-52.431,159.021-44.178,310.182,4.437,418.663-46.293,111.963-52.608,123.817-112.952,108.327-149.69-18.486-43.823-104.666-121.278-269.985-114.43-79.731,3.368-159.8,3.14-239.466-.68-109.684-5.5-214.171-48.718-238.365-107.228-17.922-43.35,2.791-92.2-25.091-137.636-20.892-34.017-62.728-60.817-110.452-78.017-51.437-18.547-111.041-27.983-173.436-29.225" transform="translate(-344.992 333.883)"/><path class="e" d="M448.868,1203.054c-73.609-43.5-99.52-116.841-55.072-173.812,38.149-48.911,118.517-83.416,196.837-110.777C662.45,893.321,733.7,867.231,763.2,828.969c37.509-48.674,1.357-104.092,17.641-166.092,14.568-55.448,50.131-103.294,108.711-140.165,37.585-23.664,89.2-41.412,143.147-56.823,152.774-43.645,299.557.577,405.528-48.807,108.352-50.73,123.279-109.195,109.376-146.2C1531.216,227.3,1445.8,141.173,1290.265,157c-73.353,7.4-155.437.547-236.291-3.727-106.33-5.605-207.386-46.263-234.038-101.977-20.1-42.063-3.456-90.1-30.724-135.092-20.083-32.615-57.3-60.791-106.458-80.591C632.469-184.8,573.2-196.5,510.009-199.53" transform="translate(-342.692 330.851)"/><path class="e" d="M452.423,1205.918c-73.481-45.849-102.413-120.317-58.042-179.24,37.432-49.532,118.235-84.924,198.245-111.561,72.329-24.122,144.53-48.053,177.455-84.555,41.81-46.4,13.8-101.356,30.724-162.986C816.167,611.373,846.481,561.93,902.936,523c36.843-25.424,88.945-44.962,144.351-61.216,146.578-43.024,288.88-3.283,392.394-51.262,104.743-48.807,122.69-105.423,110.4-142.709-14.286-43.35-96.37-127.194-244.638-113.425-72.252,6.7-153.132-2.307-233.142-6.759-102.976-5.724-200.754-43.838-229.712-96.756-22.3-40.776-9.7-87.986-36.2-132.534-19.608-32.826-55.162-61.7-102.413-83.164C654.1-187.244,594.626-201.434,531.9-205.88" transform="translate(-340.512 327.809)"/><path class="e" d="M456.057,1208.786c-73.3-48.3-105.434-123.807-60.987-184.639C431.811,973.861,513,937.67,594.493,911.743c72.841-23.161,145.938-44.858,182.294-79.6,46.086-44.119,26.269-98.605,43.7-159.9,16.181-56.956,41.2-107.967,95.551-148.965,36.1-27.2,88.74-48.482,145.579-65.608,140.459-42.329,278.229-7.129,379.259-53.732,101.132-46.973,122.127-101.667,111.45-139.248-12.238-43.083-90.865-124.488-231.964-112.907-71.279,5.916-150.8-5.176-229.993-9.806-99.622-5.827-194.175-41.412-225.308-91.506-24.6-39.519-15.951-85.886-41.784-129.99-19.166-33.1-53.115-62.69-98.418-85.782-48.6-24.436-107.885-40.686-171.388-46.973" transform="translate(-338.333 324.748)"/><path class="e" d="M459.726,1211.612c-73.174-50.715-108.378-127.313-64.008-190.067,36.049-50.922,117.621-88.015,200.7-113.173,73.327-22.185,147.4-41.649,187.184-74.645,50.438-41.826,38.763-95.839,56.737-156.774,17-57.681,36.638-110.378,88.945-153.358,35.307-29,88.536-51.972,146.809-70,134.391-41.56,267.578-10.989,366.125-56.2,97.548-45.095,121.513-97.9,112.475-135.758-10.241-42.891-85.259-121.678-219.266-112.4-70.485,4.881-148.5-8.031-226.844-12.853-96.268-5.916-187.7-38.972-221.032-86.27C860.62,11.844,865.382-33.679,840.214-77.34c-20.355-35.274-53.562-65.49-94.4-88.326C698.521-192.113,639.4-210.423,575.094-218.54" transform="translate(-336.165 321.745)"/><path class="e" d="M463.365,1214.481c-73.02-53.126-111.271-130.818-66.9-195.48,35.384-51.587,117.314-89.583,202.009-113.972,73.814-21.268,148.806-38.454,192.023-69.706,54.74-39.548,51.206-93.088,69.743-153.713,17.922-58.435,32.055-112.774,82.365-157.75,34.462-30.808,88.382-55.448,148.037-74.379,128.374-40.732,256.927-14.79,353.016-58.716,93.912-43.217,120.847-94.124,113.5-132.267-8.193-42.581-79.754-104.122-206.618-111.887-69.692-4.274-146.168-10.885-223.669-15.9-92.914-6.02-181.347-36.531-216.68-81.02C880.8,12.717,881.772-31.994,857.244-75.21c-20.175-35.57-51.206-66.7-90.354-90.9C720.945-194.577,662-214.958,596.86-224.9" transform="translate(-333.992 318.698)"/><path class="e" d="M467.055,1217.341c-72.892-55.537-114.164-134.308-69.871-200.908C431.927,964.18,514.165,925.282,600.5,901.662c74.249-20.322,150.214-35.289,196.914-64.751C856.3,799.64,861.139,746.574,880.187,686.3c18.69-59.16,27.4-115.185,75.785-162.158,33.591-32.627,88.2-58.909,149.241-78.772,122.409-39.933,246.43-18.606,339.882-61.2,90.456-41.22,120.207-90.352,114.548-128.792-6.247-42.3-74.94-101.12-193.944-111.369-68.591-5.916-143.864-13.725-220.52-18.946-89.611-6.093-175.1-34.017-212.353-75.784-31.876-35.7-34.641-79.585-58.5-122.343-20.022-35.881-48.8-67.945-86.334-93.473-44.575-30.485-103.356-52.942-169.365-64.706" transform="translate(-331.845 315.662)"/><path class="e" d="M470.746,1220.2c-72.739-57.933-117.032-137.8-72.841-206.321,34.155-52.919,116.674-92.748,204.62-115.584,74.736-19.4,151.647-32.094,201.778-59.811,63.317-34.978,76.246-87.572,95.807-147.5s22.736-117.6,69.129-166.551c32.7-34.446,88.075-62.325,150.47-83.164,116.494-38.913,235.779-22.466,326.747-63.6,86.846-39.356,119.515-86.6,115.573-125.316-4.276-42.048-70.1-98.324-181.245-110.925-67.515-7.6-141.56-16.55-217.4-21.978-86.18-6.167-168.981-31.591-208-70.548C920.926,14.487,914.551-28.582,891.38-70.9c-19.868-36.191-46.367-69.173-82.314-96.046-43.188-32.5-101.8-57.038-168.7-70.637" transform="translate(-329.724 312.625)"/><path class="e" d="M474.462,1223.139c-72.61-60.344-119.874-141.29-75.811-211.735,33.54-53.584,116.315-94.36,205.926-116.383,75.2-18.5,153.056-28.915,206.643-54.871,67.592-32.715,88.766-84.806,108.839-144.41,20.483-60.639,17.922-119.991,62.6-170.943,31.748-36.265,88-65.712,151.673-87.557,110.657-37.936,225.154-26.326,313.638-66.156,83.236-37.478,118.824-82.824,116.622-121.826-2.355-41.8-65.237-95.677-168.6-110.348-66.389-9.51-139.23-19.464-214.222-25.113-82.852-6.227-162.939-29.062-203.648-65.3-37.176-33.085-47.059-75.429-69.641-117.255-19.714-36.487-43.909-70.415-78.294-98.62-41.764-34.5-100.2-61.126-168.008-76.553" transform="translate(-327.603 309.583)"/><path class="e" d="M478.172,1225.909c-72.457-62.739-122.69-144.765-78.755-217.147C432.343,954.526,515.4,912.8,606.623,891.58c75.657-17.6,154.464-25.735,211.533-49.916C890.025,811.211,919.442,759.608,940,700.36c21.327-61.423,13.237-122.417,56.02-175.351,30.724-38.084,87.947-69.069,152.9-91.935,104.973-36.975,214.5-30.2,300.5-68.655,79.626-35.6,118.082-79.038,117.775-118.32-.461-41.516-60.321-93.177-155.923-109.831-65.237-11.344-136.925-22.185-211.072-28.1-79.37-6.286-157.024-26.518-199.321-60.062-40.069-31.754-53.357-73.314-75.3-114.712-19.535-36.8-41.426-71.673-74.249-101.193C811.018-204.3,752.748-233.02,684-250.27" transform="translate(-325.501 306.546)"/><path class="e" d="M481.9,1228.768c-72.329-65.15-125.455-148.255-81.725-222.561,32.337-54.886,115.624-97.614,208.512-117.995,76.092-16.7,155.872-22.555,216.4-44.962,76.144-28.19,113.832-79.289,134.877-138.213,22.2-62.118,8.423-124.813,49.414-179.743,29.8-39.933,87.947-72.382,154.131-96.328,99.11-35.866,203.827-34.017,287.37-71.125,76.016-33.736,117.339-75.281,118.7-114.874,1.434-41.264-55.226-90.9-143.224-109.328-64.008-13.4-134.622-25.025-207.923-31.059-76.144-6.389-151.187-23.945-194.865-54.886C980.6,17.42,964.012-23.5,942.659-64.458c-19.33-37.108-38.891-72.915-70.229-103.767-38.864-38.494-96.964-69.3-166.677-88.385" transform="translate(-323.396 303.509)"/><path class="e" d="M485.674,1231.628c-72.2-67.561-128.3-151.717-84.7-227.989C432.753,948.1,516.193,904.413,610.771,884.86c76.553-15.84,157.254-19.4,221.262-40.022,80.317-26.016,126.377-76.524,147.884-135.122,23.043-62.887,3.61-127.194,42.86-184.136,28.778-41.723,88-75.651,155.334-100.72,93.4-34.771,193.048-38.01,274.235-73.61,72.3-31.946,116.571-71.48,119.772-111.413,3.277-41.027-49.977-88.74-130.576-108.825a1337.363,1337.363,0,0,0-204.825-34.15c-72.739-6.4-145.349-21.194-190.564-49.561-45.83-28.767-65.621-69.114-86.359-109.609-19.151-37.419-36.356-74.157-66.21-106.34-37.387-40.476-95.3-73.381-165.985-94.3" transform="translate(-321.327 300.472)"/><path class="e" d="M489.431,1234.516c-72.047-69.972-131.063-155.206-87.64-233.4,31.185-56.2,114.881-100.9,211.1-119.592,76.989-14.968,158.739-16.269,226.127-35.067,84.644-23.738,138.948-73.773,160.941-132.031,24.016-63.6-1.28-129.605,36.254-188.529,27.7-43.542,88.178-78.89,156.538-105.113,87.742-33.647,182.4-41.871,261.152-76.095,68.668-30.068,115.752-67.753,120.77-107.967,5.121-40.776-44.473-86.7-117.775-108.293-63.452-18.369-131.465-30.923-201.6-37.212-69.487-6.4-139.691-18.428-186.289-44.37-48.9-27.184-71.689-67.028-91.941-107.065-18.946-37.729-33.771-75.429-62.19-108.914-35.912-42.449-93.652-77.451-165.32-100.217" transform="translate(-319.246 297.407)"/><path class="e" d="M493.2,1237.351c-71.919-72.368-133.828-158.682-90.609-238.83C433.315,941.684,517.114,895.953,615.1,878.131c77.424-14.095,160.071-13.089,230.992-30.112,88.945-21.475,151.7-70.992,173.948-128.925,25.168-64.337-6.145-132,29.674-192.936,26.678-45.361,88.357-82.011,157.792-109.446,82.135-32.538,171.746-45.745,247.966-78.579,64.981-28.249,114.933-64.115,121.717-104.477s-38.686-84.747-105.2-107.79c-58.887-20.455-127.734-33.4-198.45-40.258-66.158-6.4-133.981-15.574-181.91-39.1-52-25.483-77.859-64.943-97.5-104.506-18.639-38.07-31.185-76.627-58.2-111.487C901.54-213.919,843.983-251.03,771.3-275.64" transform="translate(-317.205 294.394)"/><path class="e" d="M496.915,1240.2c-71.689-74.778-136.337-162.128-93.58-244.242C433.6,938.48,517.526,891.7,617.045,874.764c77.91-13.311,161.5-9.924,235.882-25.143,93.246-19.227,164.167-68.212,186.9-125.819,26.013-65.076-11.061-134.382,23.043-197.329,25.6-47.18,88.664-85.087,159.021-113.883,76.6-31.355,161.095-49.591,234.832-81.064,61.448-26.311,114.062-60.269,122.895-100.942,8.705-40.3-32.49-82.824-92.53-107.287-56.737-23.117-125.456-36.147-195.3-43.29-62.83-6.419-128.246-12.66-177.635-33.869-55.124-23.664-84.081-62.843-103.053-101.963C992.618-94.191,982.53-133.68,956.927-169.9c-32.867-46.373-90.2-85.581-163.86-112.049" transform="translate(-315.107 291.371)"/><path class="e" d="M500.77,1243.07c-71.689-77.189-139.256-165.648-96.55-249.671,29.572-58.154,113.832-105.956,215.067-121.988,78.346-12.424,162.938-6.729,240.669-20.233,97.548-16.92,176.662-65.446,199.986-122.757,26.858-65.816-15.976-136.749,16.514-201.721,24.477-48.985,89.1-88.089,160.225-118.32S1387.1,355,1458.4,324.9c57.863-24.433,113.166-56.528,123.894-97.466,10.5-40.081-25.859-80.857-79.831-106.769s-123.049-38.883-192.177-46.337c-59.5-6.419-122.485-9.628-173.282-28.619-58.273-21.771-90.328-60.757-108.634-99.419s-25.962-79.068-50.157-116.649C946.841-218.688,889.66-260,814.946-288.32" transform="translate(-313.125 288.32)"/></g></g></g></g></g></g></svg>