<svg id="Layer_2" data-name="Layer 2" xmlns="http://www.w3.org/2000/svg" width="36" height="36" viewBox="0 0 36 36">
  <g id="Layer_1" data-name="Layer 1">
    <path id="Path_34310" data-name="Path 34310" d="M104.63,126.51a12.936,12.936,0,0,0-.259-1.782c-.045-.229-.09-.466-.131-.7-.065-.384-.128-.77-.19-1.16a34.926,34.926,0,0,0-.842-4.136c-.146-.506-.286-.615-.787-.615H96.633a2.2,2.2,0,0,0,1.1-1.358,1.956,1.956,0,0,0-.147-1.442,2.046,2.046,0,0,0-2.522-1.012c-1.113.4-1.491,1.325-1.16,2.821h-.538V116.9c0-.227-.007-.462.007-.691a.989.989,0,0,0-.46-.93c-1.361-.989-2.725-2.006-4.006-2.964a1.065,1.065,0,0,0-.73-.219q-.978.046-1.956.088c-.791.035-1.61.07-2.414.111a1.657,1.657,0,0,0-.585.155c-.944.422-1.9.858-2.824,1.279l-.994.453-.2.087-.021.009v-.4a.593.593,0,0,0-.663-.65c-.6,0-1.2,0-1.78,0a.6.6,0,0,0-.663.658c-.008.458-.014,1,0,1.548.007.229-.046.316-.227.375a4.007,4.007,0,0,0-.728.331,2.3,2.3,0,0,0-.342.249c-.046.039-.093.077-.14.114l-.032.025V121.8l.033.025a1.7,1.7,0,0,1,.166.132,2.633,2.633,0,0,0,.414.287,2.261,2.261,0,0,0,.36.137.9.9,0,0,1,.46.234.985.985,0,0,1,.048.569c-.008.1-.017.2-.017.292v2.467h-.331a.586.586,0,0,0-.644.644c-.007.862-.006,1.74,0,2.586v1.175a.723.723,0,0,0,.5.683q.887.389,1.773.783c.64.284,1.3.58,1.957.863a.373.373,0,0,1,.249.318,2.98,2.98,0,0,0,1.059,1.74H75.688a.569.569,0,0,0-.569.57h0a.569.569,0,0,0,.569.569h28.38a.561.561,0,0,0,.562-.548h0a.561.561,0,0,0-.561-.561H100.56a3.081,3.081,0,0,0,.576-2.6l2.78-1.052.094-.035c.079-.03.157-.059.235-.091a.606.606,0,0,0,.4-.595c0-.386,0-.779.008-1.16C104.665,128.337,104.675,127.415,104.63,126.51Zm-28.579-5.171a.548.548,0,0,1-.254-.108.786.786,0,0,1-.039-.358v-.957c0-.813.007-1.657-.012-2.485-.006-.283.072-.414.3-.462Zm26.56-.105.782,4.693h-4.6v-4.693Zm-7.5-5.612a.905.905,0,0,1,.647-.261h0a.872.872,0,0,1,.625.268.883.883,0,0,1,.254.642.9.9,0,0,1-.9.86h-.009a.889.889,0,0,1-.876-.886.872.872,0,0,1,.256-.623ZM93.4,118.3h1.757v7.632H93.4Zm-4.265-4.382.817.606c.683.507,1.389,1.031,2.088,1.542a.391.391,0,0,1,.187.364v4.544a.425.425,0,0,1-.079.271c-.752.663-1.5,1.308-2.3,1.992l-.489.421-.346-9.824C89.061,113.862,89.1,113.889,89.139,113.917Zm-1.287-.658.385,11.062-3.579.162-.387-11.063Zm-3.444,12.37c1.459-.046,2.9-.11,4.282-.188a1.19,1.19,0,0,0,.644-.264c.693-.58,1.388-1.177,2.059-1.757l.731-.63c.031-.026.061-.051.1-.083v3.222H82.629v-.805l.215.087c.254.1.5.2.746.278A2.583,2.583,0,0,0,84.407,125.629ZM79.4,115.441c.856-.381,1.721-.775,2.56-1.156l1.021-.465c.048-.022.1-.041.16-.064l.369,10.473-.155-.059c-.234-.089-.454-.172-.663-.265a.2.2,0,0,1-.072-.126,3.339,3.339,0,0,1,0-.539.679.679,0,0,0-.474-.731c-.4-.166-.809-.344-1.2-.513-.5-.215-1.017-.437-1.529-.649a.291.291,0,0,1-.221-.326c.009-1.768.009-3.533,0-5.247a.285.285,0,0,1,.208-.334Zm-2.154-1.057h.8v1.982c0,1.652,0,3.36-.008,5.039a.8.8,0,0,0,.562.847c.509.205,1.023.427,1.52.642.379.166.771.331,1.16.5a.254.254,0,0,1,.193.287c-.008.557-.007,1.1-.006,1.683v.562H77.235Zm2.381,17.181-1.212-.536h1.421Zm2.912,2.706a1.844,1.844,0,0,1-1.319-.545,1.867,1.867,0,0,1,1.311-3.2h.02a1.871,1.871,0,1,1-.012,3.743Zm1.893.466a3.137,3.137,0,0,0,1.05-1.684.337.337,0,0,1,.189-.074c1.032-.007,2.081-.006,3.1-.006h6.417a3.169,3.169,0,0,0,.645,1.764Zm.791-3.724h10.6c-.022.041-.044.083-.066.124-.123.229-.239.446-.371.653,0,0-.035.031-.218.032H87.061c-.458,0-.933,0-1.4,0-.143,0-.189-.018-.221-.154a4.491,4.491,0,0,0-.173-.53c-.016-.041-.032-.086-.048-.128Zm14.294,3.2a1.876,1.876,0,0,1-3.191-1.331,1.9,1.9,0,0,1,.58-1.336,1.832,1.832,0,0,1,1.284-.536h.033a1.888,1.888,0,0,1,1.851,1.879,1.857,1.857,0,0,1-.557,1.325Zm1.134-3.091-.071-.094h.31Zm2.836-3.215h-1.437v1.129h1.43v.812h-.024c-.072,0-.14.008-.208.008h-.859c-5.882,0-11.971,0-17.956,0a1.134,1.134,0,0,1-.485-.123,3.029,3.029,0,0,0-2.845.007.839.839,0,0,1-.34.115c-1.267.007-2.555.006-3.8,0h-.6a.788.788,0,0,1-.1-.01v-1.277h1.932v-1.154H76.255v-.322h19.7c.7,0,.86-.166.86-.874v-6.952H98.5c1.134,0,2.307,0,3.46-.007.166,0,.219.037.249.192s.068.316.111.481c.011.044.022.088.034.133h-.017c-.075,0-.141.008-.207.008H98.4c-.591,0-.771.183-.771.78v5.452c0,.6.187.783.8.783h5.058Z" transform="translate(-71.533 -105.907)" fill="#c2c2c2"/>
    <path id="Path_34311" data-name="Path 34311" d="M155.408,341.07a1.351,1.351,0,0,0-1.338,1.331,1.334,1.334,0,0,0,1.331,1.332h0a1.332,1.332,0,0,0,0-2.663Zm0,1.74h0a.4.4,0,0,1-.278-.12.406.406,0,0,1-.123-.281.414.414,0,0,1,.4-.4h0a.414.414,0,0,1,.4.4.419.419,0,0,1-.4.4Z" transform="translate(-144.41 -315.914)" fill="#c2c2c2"/>
    <path id="Path_34312" data-name="Path 34312" d="M345.039,347.49a1.281,1.281,0,0,0-1.282,1.3,1.3,1.3,0,0,0,.391.919,1.277,1.277,0,0,0,.9.369h.016a1.3,1.3,0,0,0,1.283-1.308,1.281,1.281,0,0,0-.388-.911A1.3,1.3,0,0,0,345.039,347.49Zm.02,1.692a.39.39,0,0,1-.281-.108.4.4,0,0,1-.122-.282.393.393,0,0,1,.384-.41h.009a.4.4,0,0,1,.009.8Z" transform="translate(-318.383 -321.802)" fill="#c2c2c2"/>
    <rect id="Rectangle_21553" data-name="Rectangle 21553" width="36" height="36" fill="none"/>
  </g>
</svg>
