<svg id="Group_7780" data-name="Group 7780" xmlns="http://www.w3.org/2000/svg" width="36" height="36" viewBox="0 0 36 36">
  <rect id="Rectangle_21972" data-name="Rectangle 21972" width="36" height="36" rx="3" fill="none"/>
  <g id="Group_7781" data-name="Group 7781" transform="translate(-3.459 -3.177)">
    <path id="Path_34882" data-name="Path 34882" d="M103.074,305.245a2.3,2.3,0,0,0-.867-1.8,2.375,2.375,0,0,0-2.215-.292q-1.294.339-2.589.67c-2.209.569-4.493,1.156-6.723,1.794a4.06,4.06,0,0,1-3.32-.245,4.149,4.149,0,0,0-.668-.278l-.016-.005.158-.047a5.89,5.89,0,0,0,1.006-.365,3.714,3.714,0,0,0,1.134-.866,1.5,1.5,0,0,0,.129-1.767,1.616,1.616,0,0,0-1.523-.905c-.773.012-1.554.031-2.324.055l-9.913.313-.12.005c-.293.015-.465.012-.612-.212-.1-.148-.337-.16-.573-.16-.465-.005-.935,0-1.391,0-.589,0-1.2,0-1.8-.009a.822.822,0,0,0-.824.438l-.016.03v8.913l.023.034a.975.975,0,0,0,.923.425c.655-.016,1.324-.012,1.969-.01.272,0,.548,0,.816,0,.915,0,1.039-.089,1.1-1h.573c.114,0,.229,0,.342.006a5.63,5.63,0,0,0,.764-.012,13.969,13.969,0,0,1,4.931.648c.364.093.74.19,1.11.278,1.334.316,2.689.653,4,.978l1.578.392h.015a1.175,1.175,0,0,0,.675-.055c2.813-1.094,5.69-2.209,8.552-3.317l1.4-.533c.889-.337,1.8-.685,2.7-1.049a2.811,2.811,0,0,0,1.431-1.375,1.444,1.444,0,0,0,.164-.678ZM86.6,303.784c-.6.2-1.228.4-1.834.622-.231.089-.563.356-.579.6s.307.557.527.648c1.266.524,2.558,1.029,3.843,1.5a1.522,1.522,0,0,0,.86.034c2.024-.52,4.08-1.055,6.067-1.573l4.823-1.253a2.425,2.425,0,0,1,.809-.054.79.79,0,0,1,.672.428.733.733,0,0,1-.1.744,2.068,2.068,0,0,1-.851.723c-4.056,1.591-8.172,3.184-12.228,4.737a1.108,1.108,0,0,1-.622.011c-1.343-.329-2.705-.668-4.024-1-1.6-.4-3.256-.81-4.885-1.207a2.431,2.431,0,0,0-.578-.056h-3.65v-5.92a.754.754,0,0,1,.078-.013l6.858-.216q2.658-.094,5.311-.183h.186c.465-.013.686.038.77.386.069.267-.229.633-.622.766Q87.015,303.653,86.6,303.784ZM73.549,302.4v7.279H71.3V302.4Z" transform="translate(-65.083 -275.932)" fill="#c1c1c1"/>
    <path id="Path_34883" data-name="Path 34883" d="M188.643,92.457h.81v9.429c0,.631.209.845.824.845s1.26,0,1.892,0,1.264,0,1.892,0c.662,0,.844-.188.844-.861V92.455h.686c.437,0,.706-.1.824-.306s.07-.48-.142-.848l-.588-1.019c-.922-1.6-1.876-3.258-2.826-4.877a1.619,1.619,0,0,0-.365-.393c-.063-.054-.123-.106-.178-.161l-.041-.041-.2.006-.036.033c-.041.038-.089.074-.136.112a1.117,1.117,0,0,0-.3.31c-1.192,2.045-2.393,4.127-3.57,6.179a.693.693,0,0,0-.065.691A.76.76,0,0,0,188.643,92.457Zm.973-1.265,2.578-4.477,2.585,4.473c-1.057.1-1.1.22-1.1,1.382v8.9h-2.968V92.509C190.712,91.39,190.658,91.267,189.616,91.192Z" transform="translate(-172.495 -78.847)" fill="#c1c1c1"/>
    <path id="Path_34884" data-name="Path 34884" d="M286.029,191.936a6.06,6.06,0,0,0,4.33,1.794h.1a6.126,6.126,0,0,0,.038-12.25h-.04a6.076,6.076,0,0,0-6.208,5.98,6.306,6.306,0,0,0,1.776,4.476Zm-.52-4.356a4.71,4.71,0,0,1,1.423-3.439,4.836,4.836,0,0,1,3.434-1.427h.169a4.881,4.881,0,0,1-.18,9.759h-.025A4.813,4.813,0,0,1,286.862,191a4.747,4.747,0,0,1-1.355-3.409v-.008Z" transform="translate(-260.278 -166.922)" fill="#c1c1c1"/>
    <path id="Path_34885" data-name="Path 34885" d="M330.2,215.315c.548,0,.553.051.99.485h-2.589v1.057h2.831c-.306.779-.9.789-1.58.773-.255-.005-.517.012-.765.008l-.451-.008.005.339a1.714,1.714,0,0,0,.718,1.093,12,12,0,0,1,1.529,1.581,1.41,1.41,0,0,0,1.221.6,2.766,2.766,0,0,0,.51-.052l.241-.044-2.336-2.465a2.176,2.176,0,0,0,1.962-1.623.334.334,0,0,1,.164-.2,5.012,5.012,0,0,1,.622-.033V215.8h-.711c.047-.012.022.04-.141-.089a.5.5,0,0,1-.164-.3h1.008V214.35H328.6v.963h.915C329.863,215.316,329.863,215.316,330.2,215.315Z" transform="translate(-300.682 -196.87)" fill="#c1c1c1"/>
  </g>
</svg>
