<svg xmlns="http://www.w3.org/2000/svg" xmlns:xlink="http://www.w3.org/1999/xlink" width="36" height="36" viewBox="0 0 36 36">
  <defs>
    <clipPath id="clip-path">
      <rect id="Rectangle_21615" data-name="Rectangle 21615" width="36" height="36" transform="translate(716.257 1255.257)" fill="#fff" stroke="#707070" stroke-width="1"/>
    </clipPath>
  </defs>
  <g id="Mask_Group_4696" data-name="Mask Group 4696" transform="translate(-716.257 -1255.257)" clip-path="url(#clip-path)">
    <g id="Layer_2" data-name="Layer 2" transform="translate(720.509 1260.574)">
      <g id="Layer_1" data-name="Layer 1">
        <path id="Path_34853" data-name="Path 34853" d="M26.738,207.121H.542a.546.546,0,0,1-.542-.55V196.15a.546.546,0,0,1,.542-.55h26.2a.546.546,0,0,1,.542.55v10.42A.546.546,0,0,1,26.738,207.121Zm-25.654-1.1H26.2V196.7H1.084Z" transform="translate(0 -181.64)" fill="#c2c2c2" stroke="#c2c2c2" stroke-width="0.5"/>
        <path id="Path_34854" data-name="Path 34854" d="M19.89,143.037H.55a.55.55,0,0,1-.55-.55V138.24a.55.55,0,0,1,.55-.55H19.89a.55.55,0,0,1,.55.55v4.246a.55.55,0,0,1-.55.55ZM1.1,141.936H19.34v-3.145H1.1Z" transform="translate(0 -127.78)" fill="#c2c2c2" stroke="#c2c2c2" stroke-width="0.5"/>
        <path id="Path_34855" data-name="Path 34855" d="M29.862,23.389H24.294a.551.551,0,0,1-.543-.639l1.468-8.988a.55.55,0,0,1,.543-.462h2.633a.55.55,0,0,1,.543.462L30.4,22.75a.55.55,0,0,1-.543.639Zm-4.92-1.1h4.273L27.927,14.4h-1.7Z" transform="translate(-22.001 -12.324)" fill="#c2c2c2" stroke="#c2c2c2" stroke-width="0.5"/>
        <path id="Path_34856" data-name="Path 34856" d="M111.75,41.921h-5.568a.551.551,0,0,1-.54-.656l1.468-7.52a.55.55,0,0,1,.54-.445h2.632a.55.55,0,0,1,.54.445l1.468,7.52a.551.551,0,0,1-.54.656Zm-4.9-1.1h4.232L109.83,34.4H108.1Z" transform="translate(-98.036 -30.856)" fill="#c2c2c2" stroke="#c2c2c2" stroke-width="0.5"/>
        <path id="Path_34857" data-name="Path 34857" d="M54.494,247.652H49.73a.55.55,0,0,1-.55-.55V243.66a.55.55,0,0,1,.55-.55h4.763a.55.55,0,0,1,.55.55V247.1A.55.55,0,0,1,54.494,247.652Zm-4.213-1.1h3.663v-2.34H50.281Z" transform="translate(-45.571 -225.664)" fill="#c2c2c2" stroke="#c2c2c2" stroke-width="0.5"/>
        <path id="Path_34858" data-name="Path 34858" d="M154.124,247.652H149.36a.55.55,0,0,1-.55-.55V243.66a.55.55,0,0,1,.55-.55h4.763a.55.55,0,0,1,.55.55V247.1A.55.55,0,0,1,154.124,247.652Zm-4.213-1.1h3.663v-2.34h-3.663Z" transform="translate(-138.101 -225.664)" fill="#c2c2c2" stroke="#c2c2c2" stroke-width="0.5"/>
        <path id="Path_34859" data-name="Path 34859" d="M253.754,247.652H248.99a.55.55,0,0,1-.55-.55V243.66a.55.55,0,0,1,.55-.55h4.763a.55.55,0,0,1,.55.55V247.1A.55.55,0,0,1,253.754,247.652Zm-4.213-1.1H253.2v-2.34h-3.663Z" transform="translate(-230.63 -225.664)" fill="#c2c2c2" stroke="#c2c2c2" stroke-width="0.5"/>
        <path id="Path_34860" data-name="Path 34860" d="M226.619,5.709h-7.407a.551.551,0,0,1-.459-.247,2.566,2.566,0,0,1-.444-2.227,3.091,3.091,0,0,1,1.576-1.7A3.416,3.416,0,0,1,222.513,0h.057a4.315,4.315,0,0,1,2.924,1.493,2.342,2.342,0,0,1,1.658,1.136,3.529,3.529,0,0,1-.026,2.748.55.55,0,0,1-.5.332Zm-7.095-1.1h6.7a2.092,2.092,0,0,0-.042-1.454,1.371,1.371,0,0,0-1.068-.613.552.552,0,0,1-.341-.2,3.43,3.43,0,0,0-2.2-1.241h-.039a2.456,2.456,0,0,0-1.845,1.2.545.545,0,0,1-.233.182,2.1,2.1,0,0,0-1.093,1.079A1.368,1.368,0,0,0,219.525,4.608Z" transform="translate(-202.621)" fill="#c2c2c2" stroke="#c2c2c2" stroke-width="0.5"/>
      </g>
    </g>
  </g>
</svg>
