<svg xmlns="http://www.w3.org/2000/svg" width="6.803" height="7.164" viewBox="0 0 6.803 7.164"><defs><style>.a{fill:#fff;}</style></defs><g transform="translate(-178.5 -290)"><g transform="translate(60.758 290)"><g transform="translate(117.742 0)"><path class="a" d="M121.529,3.385l-3.313-3.3a.278.278,0,0,0-.392.393l3.116,3.108-3.116,3.108a.278.278,0,0,0,.392.393l3.313-3.3a.278.278,0,0,0,0-.393Z" transform="translate(-117.742 0)"/></g></g><g transform="translate(63.692 290)"><g transform="translate(117.742 0)"><path class="a" d="M121.529,3.385l-3.313-3.3a.278.278,0,0,0-.392.393l3.116,3.108-3.116,3.108a.278.278,0,0,0,.392.393l3.313-3.3a.278.278,0,0,0,0-.393Z" transform="translate(-117.742 0)"/></g></g></g></svg>