<svg xmlns="http://www.w3.org/2000/svg" xmlns:xlink="http://www.w3.org/1999/xlink" width="1920" height="780" viewBox="0 0 1920 780"><defs><style>.a,.f{fill:none;stroke:#fff;stroke-width:2px;}.b{fill:#f6f6f6;}.c{opacity:0.559;}.d{fill:#ececec;opacity:0.5;}.e{clip-path:url(#a);}.f{stroke-miterlimit:10;}</style><clipPath id="a"><rect class="a" width="1920" height="780"/></clipPath></defs><g transform="translate(0 -2327)"><g transform="translate(0 324)"><rect class="b" width="1920" height="780" transform="translate(0 2003)"/><g class="c" transform="translate(0 2003)"><rect class="d" width="1919" height="780" transform="translate(1)"/><g class="e"><g transform="translate(-395.183 -252.896)"><path class="f" d="M1333.345-52.3A769.769,769.769,0,0,1,1275.2,66.73c-10.241,17.3-21.814,34.82-41.759,48.642-51.027,35.335-140.305,36.427-216.5,28.751A1363.376,1363.376,0,0,1,812.475,107.93C747.6,91.144,684.843,69.476,615.331,62.362s-150.367,4.368-187.825,40.7c-22.275,21.653-25.834,49.047-17.129,74.054s28.676,48,50.822,69.7c25.373,24.836,54.816,50,58.631,79.156,3.943,30.2-23.427,61.091-67.055,75.63-62.036,20.686-137.975,7.707-207.565,0-88.382-9.813-183.191-9.735-263.943,14.274S-161.9,492.04-153.609,546.547" transform="translate(154.349 223.606)"/><path class="f" d="M1314.169-57.53a720.908,720.908,0,0,1-57.095,116.269c-10.241,16.879-21.532,33.946-40.965,47.487-49.7,34.6-136.081,36.5-210.176,29.921q-26.4-2.34-52.486-5.678a1314.654,1314.654,0,0,1-146.783-27.113c-63.393-15.6-124.841-35.881-192.792-42.386s-144.555,5.382-184.138,39.219c-14.734,12.228-24.762,26.32-29.341,41.231a69.533,69.533,0,0,0-1.741,30.967,81.674,81.674,0,0,0,3.61,14.274c6.81,19.095,21.3,37.784,37.15,55.552,1.562,1.763,3.149,3.51,4.737,5.273,24.784,27.254,50.95,55.131,52.384,85.63,1.383,29.36-24.041,59.281-66.568,73.555-60.449,20.405-134.16,8.721-201.471,2.2-5.3-.515-10.625-1-15.976-1.42-80.8-6.583-165.294-3.9-237.392,18.814-76.809,24.212-135.569,75.24-126.275,128.2" transform="translate(157.831 220.678)"/><path class="f" d="M1294.93-62.76a679.341,679.341,0,0,1-56.1,113.507c-10.062,16.458-21.25,33.1-40.2,46.348-48.262,33.853-131.882,36.551-203.852,31.06q-25.6-1.966-51.053-4.883a1287.1,1287.1,0,0,1-143.07-24.524c-61.909-14.305-122.05-33.229-188.388-39.172S473.095,65.989,431.9,97.3c-16.642,12.636-30.212,25.1-37.457,39.469a68.679,68.679,0,0,0-6.2,45.787c4.3,20.187,18.69,40.561,34.231,59.889,1.562,1.919,3.1,3.822,4.66,5.725,24.195,29.64,47.161,60.17,46.086,92.042-.9,28.47-24.656,57.378-66,71.511-58.887,20.093-130.294,9.7-195.352,4.415q-7.681-.632-15.362-1.155c-78.038-5.148-158.893-1.248-227.33,21.669-72.995,24.43-128.016,74.32-117.774,125.738" transform="translate(161.401 217.749)"/><path class="f" d="M1275.842-68a642.046,642.046,0,0,1-55.072,110.762C1210.81,58.8,1199.775,74.992,1181.34,88c-47.187,33.073-127.683,36.583-197.554,32.168q-24.886-1.56-49.593-4.072A1261.741,1261.741,0,0,1,794.861,94.243C734.437,81.185,675.6,63.635,610.825,58.269S476.614,65.616,434.164,94.508c-18.486,12.574-35.384,23.744-45.548,37.675a73.332,73.332,0,0,0-13.749,30.7,61.169,61.169,0,0,0-.742,15.6c1.792,21.279,16.079,43.416,31.338,64.242,1.511,2.059,3.021,4.118,4.557,6.24,23.606,32.121,43.525,65.1,39.915,98.578-2.919,27.519-25.3,55.521-65.493,69.437-57.223,19.812-126.454,10.717-189.258,6.63-4.967-.312-9.934-.608-14.9-.858-75.248-3.728-152.492,1.388-217.294,24.508C-106.14,471.909-157.346,520.582-146.081,570.5" transform="translate(164.82 214.814)"/><path class="f" d="M1256.728-73.21a604.491,604.491,0,0,1-54.074,107.969c-9.806,15.6-20.739,31.325-38.661,44.024-45.753,32.417-123.458,36.723-191.2,33.4q-24.169-1.17-48.134-3.26a1239.763,1239.763,0,0,1-135.7-19.344C730.071,77.754,672.49,61.5,609.327,56.818S479.7,64.977,436.454,91.544c-20.482,12.48-40.53,22.386-53.767,35.881-9.4,9.492-16.088,19.89-19.766,30.748a56.378,56.378,0,0,0-2.868,16.131c-.743,22.371,13.467,46.239,28.419,68.641l4.455,6.63c23.12,34.492,39.915,69.889,33.694,104.99-4.685,26.52-25.91,53.681-64.981,67.393-55.61,19.516-122.588,11.716-183.139,8.845q-7.182-.351-14.363-.577c-72.431-2.34-146.04,4.025-207.206,27.3-65.211,24.851-112.654,72.479-100.441,120.808" transform="translate(168.265 211.896)"/><path class="f" d="M1237.568-78.44a568.3,568.3,0,0,1-53.075,105.208c-9.678,15.195-20.482,30.5-37.841,42.9-44.473,31.653-119.285,36.77-184.932,34.539q-23.4-.8-46.674-2.465A1208.506,1208.506,0,0,1,783.138,84.988c-57.454-10.577-113.678-25.4-175.279-29.64S482.4,64.271,438.673,88.623c-22.48,12.48-45.676,21.029-61.755,34.118-11.5,9.2-20.176,19.589-25.6,30.67a56.53,56.53,0,0,0-5.121,16.724c-3.252,23.4,10.856,49.047,25.6,72.931,1.434,2.371,2.893,4.68,4.327,7.1,22.48,36.957,36.356,74.725,27.447,111.495-6.2,25.569-26.5,51.84-64.443,65.35-54.253,19.266-118.952,12.761-177.148,11.092-4.583-.125-9.192-.218-13.8-.281-69.692-.874-139.691,6.661-197.144,30.187-61.32,25.07-105.2,71.558-91.813,118.344" transform="translate(171.756 208.967)"/><path class="f" d="M1218.789-83.67a533.62,533.62,0,0,1-52.1,102.447c-9.576,14.789-20.176,29.641-37.074,41.762C1086.446,91.49,1014.526,97.4,951.005,96.263q-22.659-.406-45.241-1.654A1181.837,1181.837,0,0,1,777.569,80.445c-55.969-9.36-110.887-22.776-170.875-26.4S485.13,63.534,441.221,85.858c-24.656,12.48-50.848,19.609-69.9,32.261-13.657,8.876-24.391,19.266-31.62,30.608a57.916,57.916,0,0,0-7.374,17.332c-5.761,24.555,8.27,51.871,22.608,77.362q2.151,3.775,4.25,7.55c21.891,39.375,33,79.468,21.2,117.969-7.527,24.57-27.114,49.921-64.008,63.275C264,451.154,201.473,445.928,145.428,445.491H132.165c-66.927.562-133.29,9.36-187.159,33.026C-112.447,503.8-152.619,549.155-138.23,594.4" transform="translate(174.917 206.038)"/><path class="f" d="M1199.815-88.9a499.005,499.005,0,0,1-51.027,99.686c-9.422,14.368-19.894,28.767-36.305,40.561C1070.648,81.564,1001.621,88.272,940.2,88.225q-21.891,0-43.756-.858A1145.86,1145.86,0,0,1,771.961,75.792c-54.484-8.081-108.1-20.156-166.421-23.2S480.956,58.21,443.7,82.906c-30.084,9.345-55.994,18.361-77.936,30.561C349.988,122,337.189,132.385,328.131,144a60.639,60.639,0,0,0-9.6,17.956c-8.27,25.631,5.658,54.6,19.714,81.6q2.1,4.009,4.148,8.019c21.3,41.793,29.8,84.241,14.952,124.428-8.705,23.588-27.651,48.189-63.5,61.231-50.8,18.642-111.066,14.711-164.859,15.491-4.25,0-8.475.156-12.8.281C52.052,454.987-10.727,464.94-60.935,488.887c-53.536,25.507-90.021,69.717-74.608,113.414" transform="translate(178.144 203.109)"/><path class="f" d="M1180.821-94.13a468.086,468.086,0,0,1-50.028,96.924c-9.294,13.931-19.612,27.909-35.512,39.469-40.53,29.438-106.663,36.973-165.96,38q-21.148.374-42.322,0a1121.966,1121.966,0,0,1-120.77-8.97c-53-6.911-105.306-17.613-162.119-20.14s-120.8,5.85-158,28.876C413.6,88.861,384.922,97,360.061,108.876c-17.844,8.2-32.671,18.581-43.525,30.483a64.584,64.584,0,0,0-11.829,18.549c-10.779,26.723,3.072,57.487,16.821,85.957q2.048,4.212,4.045,8.471c20.713,44.211,26.755,88.921,8.705,130.886-9.78,22.527-28.394,46.224-62.958,59.109-49.184,18.346-107.2,15.71-158.74,17.691-4.071.156-8.116.359-12.187.577C38.946,464.016-20.12,475.17-66.692,499.319c-49.645,25.694-82.417,68.782-66,110.934" transform="translate(181.469 200.181)"/><path class="f" d="M1162-99.36A438.05,438.05,0,0,1,1113-5.2c-9.166,13.51-19.381,27.035-34.743,38.314-39.224,28.767-102.464,37.035-159.661,39.157q-20.482.78-40.965.749a1088.3,1088.3,0,0,1-117.058-6.381C709.058,61.042,658.159,51.7,602.8,49.825S485.849,55.8,448.674,77.157c-34.923,8.331-66.338,15.6-94.143,26.988-19.933,7.84-36.85,18.212-49.593,30.4a68.929,68.929,0,0,0-14.031,19.157c-13.288,27.815.461,60.3,13.928,90.294q2,4.446,3.943,8.923c20.124,46.645,23.913,93.6,2.56,137.376-10.677,21.622-29.085,44.429-62.369,57.113C201.3,465.478,145.532,464.137,96.246,467.335c-3.892.25-7.681.53-11.649.858-58.58,4.836-114.113,17.16-157.05,41.559-45.753,25.912-74.812,67.861-57.377,108.469" transform="translate(184.618 197.252)"/><path class="f" d="M1143.239-104.59a409.079,409.079,0,0,1-48.006,91.4c-9.038,13.1-19.1,26.193-33.95,37.175-37.918,28.08-98.265,37.16-153.363,40.373q-19.612,1.154-39.378,1.56A1058.8,1058.8,0,0,1,755.2,62.114c-50-4.415-99.673-12.387-153.44-13.681s-113.422,6.24-150.547,25.834c-37.329,7.8-71.484,14.274-102.259,25.21-20.969,7.457-40.939,17.425-55.456,30.343a74.49,74.49,0,0,0-16.258,19.766c-15.8,28.907-2.151,63.119,11.009,94.647,1.306,3.12,2.56,6.24,3.866,9.36,19.561,49.063,21.225,98.391-3.764,143.834-11.368,20.686-29.674,42.62-61.857,55.085C180.407,470.264,127,470.217,79.966,474.648c-3.712.343-7.425.717-11.112,1.139-55.815,6.24-107.712,19.844-146.988,44.4-41.887,26.13-67.234,66.941-48.646,106.082" transform="translate(187.713 194.323)"/><path class="f" d="M1124.741-109.82c-11.127,30.372-26.873,60.047-47.033,88.641C1068.8-8.5,1058.89,4.14,1044.552,14.857c-36.613,27.3-94.066,37.222-147.039,41.528q-18.9,1.56-37.944,2.356a1031.277,1031.277,0,0,1-109.581-1.264C701.341,54.357,653.054,47.758,601,47.041S491.4,53.39,454.169,71.393c-39.736,7.317-76.656,12.917-110.35,23.4-23.043,7.161-45.19,17.16-61.448,30.265a80.58,80.58,0,0,0-18.485,20.374c-18.281,30.031-4.788,65.958,8.065,99.015q1.92,4.914,3.738,9.844c19,51.481,18.793,103.2-9.985,150.308-12.059,19.719-30.186,40.748-61.448,53.041-44.37,17.472-95.679,18.72-140.459,24.352-3.508.452-7.041.92-10.548,1.435C.225,491.117-48.063,505.907-83.7,530.664c-38,26.349-59.63,66.02-40.171,103.539" transform="translate(190.542 191.394)"/><path class="f" d="M1106.2-115c-10.743,29.446-26.178,58.183-46.086,85.8-8.756,12.262-18.537,24.446-32.388,34.882-35.281,26.52-89.841,37.3-140.817,42.682q-18.127,1.95-36.459,3.12a995.368,995.368,0,0,1-105.92,1.388c-47.033-1.888-94.143-7.1-144.607-7.239S494.1,52.141,457.029,68.49c-42.117,6.833-81.8,11.513-118.44,21.638-25.065,6.88-49.337,16.739-67.464,30.2a86.762,86.762,0,0,0-20.687,20.982c-20.815,31.107-7.348,68.75,5.121,103.336q1.869,5.117,3.636,10.3c18.409,53.9,16.565,108.063-16.232,156.767-12.674,18.8-30.724,38.907-60.807,50.951-42.757,17.16-91.813,19.719-134.34,26.52-3.354.546-6.682,1.108-10.011,1.716-50.259,9.111-94.911,25.132-126.915,50.077-34.1,26.52-52.026,65.1-31.543,101.074" transform="translate(193.392 188.493)"/><path class="f" d="M1087.856-120.28c-10.316,28.564-25.38,56.414-44.959,83.118-8.654,11.825-18.281,23.588-31.62,33.728C977.3,22.4,925.634,34.007,876.886,40.418q-17.41,2.309-35.025,3.962a957.417,957.417,0,0,1-102.182,3.978c-45.574-.64-91.352-4.493-140.228-4.04s-98.726,10.92-139.358,21.388C418,76.626,373.041,75.909,333.536,85.565c-27.088,6.583-53.511,16.38-73.43,30.124a93.767,93.767,0,0,0-23.043,21.591c-23.324,32.2-9.934,71.558,2.33,107.642q1.792,5.366,3.533,10.764c17.922,56.332,14.568,113.008-22.48,163.225-13.109,17.894-31.313,37.035-60.167,48.876-41.17,16.879-87.972,20.779-128.246,28.783-3.175.624-6.324,1.295-9.473,2-47.468,10.546-88.51,27.768-116.878,52.916-30.212,26.77-44.447,64.18-23.043,98.609" transform="translate(196.064 185.536)"/><path class="f" d="M1069.712-125.5c-9.939,27.654-24.675,54.586-43.961,80.341-8.526,11.419-17.922,22.73-30.724,32.589-32.67,25.116-81.444,37.441-128.016,45.007q-16.616,2.714-33.54,4.774A918.808,918.808,0,0,1,734.8,43.763c-44.063.608-88.561-1.872-135.85-.842s-95.679,10.686-135.7,19.89c-44.806,10.327-92.171,8.861-134.647,18.1-29.034,6.225-57.71,15.975-79.344,29.937a100.135,100.135,0,0,0-25.117,22.2c-25.859,33.338-12.571,74.429-.589,112.072q1.767,5.569,3.431,11.217c17.231,58.75,12.8,118.047-28.727,169.7-13.7,17.051-32.03,35.21-59.758,46.8-39.557,16.63-84.106,21.778-122.127,31.029-3,.733-5.966,1.56-8.935,2.293-44.7,11.965-82.109,30.4-106.816,55.755-26.346,26.989-36.869,63.259-14.338,96.144" transform="translate(198.538 182.613)"/><path class="f" d="M1051.839-130.73c-9.542,26.753-23.952,52.774-42.962,77.58-8.372,10.92-17.717,21.84-30.033,31.45C947.481,2.668,901.6,15.741,857.076,24.461q-15.9,3.12-32.106,5.569A881.1,881.1,0,0,1,730.238,39.2c-42.578,1.841-85.745.733-131.447,2.356S506.16,52.011,466.884,59.952c-47.622,9.532-97.343,7.426-142.814,16.224-31.108,6.006-61.832,15.756-85.361,29.984a106.976,106.976,0,0,0-27.344,22.808c-28.368,34.321-15.157,77.19-3.508,116.378q1.741,5.8,3.354,11.653c16.668,61.137,11.393,123.227-34.974,176.174-14.159,16.209-32.618,33.369-59.22,44.788-37.944,16.3-80.266,22.7-116.033,33.213-2.816.827-5.633,1.685-8.4,2.574-41.938,13.4-75.734,33.041-96.78,58.594-22.454,27.207-29.264,62.4-5.709,93.68" transform="translate(200.741 179.684)"/><path class="f" d="M1034.288-136c-9.149,25.87-23.223,51-41.938,74.881A172.72,172.72,0,0,1,963.213-30.9C933.155-7.251,890.168,6.68,847.743,16.43q-15.131,3.494-30.724,6.381a846.3,846.3,0,0,1-91.045,11.747c-40.965,3.12-82.98,3.354-127.094,5.554S509.269,50.3,470.711,57.022c-50.285,8.752-102.515,6.162-150.9,14.461-33.1,5.772-65.979,15.4-91.4,29.968-11.9,6.759-21.888,14.665-29.572,23.4-30.8,35.553-17.692,80.014-6.273,120.73q1.69,6.037,3.252,12.121c16.079,63.6,10.241,128.515-41.2,182.632C140,455.749,121.331,471.864,95.881,483.081,59.422,499.087,19.4,506.731-14.084,518.493c-2.56.936-5.274,1.888-7.86,2.855-39.147,14.836-69.333,35.694-86.743,61.45-18.562,27.425-21.66,61.418,2.893,91.215" transform="translate(202.624 176.732)"/><path class="f" d="M1017.109-141.19c-8.778,24.923-22.536,49.1-40.965,71.98a179.979,179.979,0,0,1-28.5,29.141C918.972-17.152,878.877-2.41,838.578,8.417c-9.6,2.59-19.356,4.992-29.188,7.192a802.17,802.17,0,0,1-87.358,14.337c-39.608,4.337-80.163,5.975-122.69,8.752s-86.36,9.859-124.457,15.413c-53.127,7.8-107.533,4.8-158.944,12.73-35.128,5.429-70.153,15.007-97.292,29.859-12.719,6.874-23.467,14.994-31.8,24.024-33.284,36.567-20.483,82.822-9.294,125.067q1.664,6.24,3.124,12.574c15.516,66.02,9.217,133.975-47.417,189.106-15.055,14.633-33.873,29.64-58.2,40.67C40.323,503.865,2.481,512.866-28.754,525.783c-2.56,1.014-4.916,2.075-7.322,3.12-36.112,15.933-62.968,38.454-76.681,64.3-14.7,27.612-14.082,60.482,11.5,88.735" transform="translate(204.109 173.826)"/><path class="f" d="M1000.392-146.42c-8.359,24.019-21.775,47.279-39.915,69.2a189.748,189.748,0,0,1-27.7,28.08C905.353-26.938,868.151-11.4,829.951.519c-9.089,2.855-18.357,5.507-27.728,7.987A760.049,760.049,0,0,1,718.6,25.432c-38.123,5.585-77.373,8.58-118.338,11.95s-83.108,9.485-120.693,13.931c-55.892,6.615-112.807,3.463-167.061,10.92-37.15,5.1-74.326,14.617-103.257,29.75-13.535,6.98-25.039,15.3-34.027,24.617-35.844,37.659-23.043,85.63-12.187,129.4,1.05,4.321,2.074,8.674,3.021,13.042,14.927,68.438,8.551,139.622-53.767,195.565a232.644,232.644,0,0,1-57.684,38.626C21.583,508.666-14.005,518.947-42.962,533.1q-3.405,1.654-6.759,3.416c-33.285,17.5-56.594,40.99-66.568,67.081-10.8,27.831-6.478,59.562,20.1,86.269" transform="translate(205.157 170.897)"/><path class="f" d="M984.47-151.65c-7.975,23.117-21.058,45.467-38.891,66.441a209.436,209.436,0,0,1-26.935,26.864c-26.115,21.45-60.423,37.8-96.5,50.81-8.6,3.12-17.385,6.037-26.269,8.783A714.216,714.216,0,0,1,715.944,20.78C679.331,27.6,641.362,31.965,602.01,35.912s-79.779,9.079-116.981,12.48c-58.606,5.335-117.954,2.075-175.177,9.142C270.7,62.37,231.379,71.839,200.629,87.174c-14.36,7.112-26.613,15.67-36.228,25.3-38.4,38.751-25.6,88.454-15.106,133.757,1.05,4.462,2.023,8.97,2.944,13.494,14.338,70.856,8.167,145.457-59.911,202.023-16.261,13.705-35.483,26.01-57.146,36.583C3.664,513.467-29.7,525.058-56.452,540.456q-3.149,1.825-6.222,3.713c-30.555,19.087-50.376,43.591-56.609,69.982-6.913,28.081,1.127,58.641,28.727,83.8" transform="translate(205.409 167.968)"/><path class="f" d="M969.245-156.88c-7.593,22.217-20.353,43.66-37.893,63.68A230.343,230.343,0,0,1,905.212-67.49c-24.809,20.733-56.327,37.862-90.2,51.964-8.091,3.37-16.386,6.568-24.809,9.594a665.421,665.421,0,0,1-76.195,22.121A1048.245,1048.245,0,0,1,604.426,34.52c-37.56,4.493-76.3,8.643-113.243,10.92-61.243,3.853-123.1.749-183.267,7.395-41.17,4.54-82.621,13.947-115.214,29.64-15.123,7.226-28.089,15.987-38.328,25.9-40.965,39.827-28.163,91.246-17.922,138.078,1,4.68,1.971,9.36,2.842,14.04,13.749,73.321,8.039,151.51-66.159,208.5A345.485,345.485,0,0,1,16.5,503.495c-29.9,14.836-61.012,27.722-85.515,44.289q-2.88,1.966-5.684,3.994c-27.781,20.632-44.145,46.088-46.751,72.728-3.021,28.268,8.731,57.721,37.355,81.34" transform="translate(204.965 165.039)"/><path class="f" d="M954.873-162.11c-20.124,60.747-85.386,114.147-169.339,149s-185.776,52.1-287.319,55.724c-63.8,2.262-128.272-.608-191.358,5.6s-127.12,23.4-161.838,56.036c-43.525,40.919-30.724,94.07-20.892,142.43C140.386,326.241,140.156,415.162,54.462,476,11.781,506.3-48.591,526.564-86.2,559.246c-52.128,45.319-48.083,111.7,9.422,154.536" transform="translate(203.642 162.11)"/></g><g transform="translate(230.274 459.209)"><path class="f" d="M89.94,581.861a1375.581,1375.581,0,0,1,129.04-96.1c20.482-13.525,42.168-26.988,69.333-35.054,69.461-20.577,152.518-.593,217.934,24.414,60.322,23.064,115.93,50.416,165.652,81.48,49.209,30.764,93.375,65.521,153,88.422s141.457,31.4,199.064,6.646c34.283-14.727,54.919-39.172,62.728-64.273s3.968-51.028-2.714-76.254c-7.681-28.892-18.87-59.016-3.917-86.815,15.516-28.783,60.347-50.826,109.786-53.977,70.332-4.493,132.163,25.35,191.46,48.844,75.3,29.859,162.811,52.089,252.5,48.938s180.348-36.567,207.257-88.8" transform="translate(-89.94 -252.056)"/><path class="f" d="M93.57,592.227a1272.58,1272.58,0,0,1,127.248-94.21c20.278-13.2,41.707-26.317,68.411-34.242,53.639-15.912,115.393-7.8,170.747,7.8q22.363,6.367,43.525,14.15c59.626,21.806,114.779,47.86,164.3,77.611,49.03,29.437,92.965,63.04,151.955,85.052a365.925,365.925,0,0,0,110.887,22.371c33.617,1.31,66.978-2.761,94.86-14.383a144.349,144.349,0,0,0,14.159-6.8c27.37-15.148,43.986-36.926,51.206-59.281a108,108,0,0,0,4.634-21.466c2.048-18.923-.359-38.065-3.917-56.785-5.607-29.64-13.083-60.077,3.789-87.814s59.707-48.985,107.969-52.2c68.693-4.6,129.27,23.525,187.236,45.366q6.875,2.6,13.851,5.086c70.358,25.07,149.984,42.479,230.889,38.486,86.257-4.259,172.744-37.441,197.733-88.563" transform="translate(-84.276 -251.143)"/><path class="f" d="M97.2,605.274a1186.532,1186.532,0,0,1,125.455-92.307c20.073-12.886,41.272-25.647,67.49-33.447,52.691-15.6,113.191-8.362,167.675,6.24q22.03,5.948,42.962,13.26c58.915,20.553,113.6,45.314,162.887,73.758,48.8,28.081,92.607,60.576,151.059,81.823,34.334,12.48,74.556,21.341,114.344,23.244,34.564,1.56,69.129-2.2,98.086-13.9a141.675,141.675,0,0,0,14.7-6.911c28.522-15.429,45.548-37.862,53.382-60.841a117.335,117.335,0,0,0,5.121-22.262c2.56-19.438,1.177-39.126-1.127-58.3-3.533-30.483-7.3-61.106,11.5-88.828,17.922-26.318,59.118-47.128,106.2-50.42,67-4.68,126.351,21.684,183.011,41.887q6.682,2.34,13.519,4.68c68.693,23.1,145.759,38.533,223.439,33.494,82.8-5.351,165.14-38.439,188.209-88.3" transform="translate(-78.612 -253.036)"/><path class="f" d="M100.82,618.637a1106.994,1106.994,0,0,1,123.714-90.482c19.817-12.558,40.786-24.96,66.568-32.636,51.693-15.4,110.964-8.892,164.577,4.68q21.734,5.611,42.45,12.542c58.213,19.286,112.433,42.744,161.5,69.874,48.646,26.864,92.3,58.08,149.958,78.547C845.206,673.8,886.4,683,927.367,685.281c35.537,1.95,71.356-1.653,101.312-13.432a146.461,146.461,0,0,0,15.362-7c29.648-15.725,47.084-38.829,55.482-62.526a130.279,130.279,0,0,0,5.735-22.885c3.175-19.968,2.688-40.2,1.639-59.827-1.485-31.279-1.613-62.089,19.2-89.826,18.818-25.1,58.529-45.241,104.435-48.657,65.339-4.821,123.433,19.859,178.761,38.408q6.554,2.2,13.211,4.306c67.055,21.138,141.534,34.6,215.963,28.517,79.37-6.474,157.562-39.391,178.735-88.063" transform="translate(-72.964 -255.197)"/><path class="f" d="M104.45,632.037a1030.782,1030.782,0,0,1,121.922-88.5c19.612-12.246,40.351-24.305,65.647-31.84,50.745-15.132,108.788-9.36,161.5,3.2q21.369,5.119,41.81,11.529c57.5,18.026,111.25,40.185,160.1,66,48.39,25.553,91.992,55.553,148.934,75.24,36.894,12.761,79.139,22.34,121.256,24.961,36.459,2.278,73.532-1.076,104.538-12.948a153.175,153.175,0,0,0,15.848-7.1c30.724-16.022,48.646-39.8,57.581-64.2a144.077,144.077,0,0,0,6.324-23.494c3.738-20.483,4.2-41.278,4.429-61.371.563-32.059,3.994-63.041,26.883-90.825,19.689-23.868,57.914-43.431,102.643-46.879,63.675-4.914,120.514,18.034,174.562,34.929,4.25,1.342,8.552,2.636,12.8,3.916,65.39,19.173,137.31,30.655,208.512,23.525,75.888-7.582,149.983-40.311,169.211-87.8" transform="translate(-67.3 -257.381)"/><path class="f" d="M108.08,645.421a961.711,961.711,0,0,1,120.13-86.613c19.382-11.918,39.864-23.619,64.7-31.029,49.8-14.867,106.586-9.953,158.432,1.638,14.184,3.12,28.01,6.8,41.221,10.67,56.811,16.753,110.107,37.609,158.739,62.12,48.185,24.274,91.736,53.041,147.935,71.964,38.174,12.87,81.392,22.823,124.713,25.865,37.406,2.59,75.708-.53,107.738-12.48a160.591,160.591,0,0,0,16.437-7.191c31.927-16.3,50.182-40.748,59.681-65.849a154.314,154.314,0,0,0,6.887-24.134c4.327-21,5.658-42.339,7.22-62.885,2.56-32.87,9.525-63.961,34.615-91.823,20.483-22.667,57.3-41.59,100.851-45.116,61.985-5.023,117.6,16.209,170.312,31.45,4.173,1.2,8.347,2.387,12.571,3.526,63.726,17.16,133.136,26.723,201.036,18.549,72.457-8.7,142.4-41.263,159.712-87.564" transform="translate(-61.636 -259.549)"/><path class="f" d="M111.71,658.816a896.783,896.783,0,0,1,118.364-84.725c19.177-11.591,39.429-22.948,63.777-30.233,48.825-14.6,104.384-10.468,155.36.109,13.954,2.87,27.575,6.24,40.632,9.781,56.106,15.5,108.94,35.061,157.357,58.267,47.955,22.964,91.454,50.436,146.911,68.641,39.48,12.979,83.671,23.4,128.169,26.739,38.4,2.917,77.885,0,110.939-12a159.6,159.6,0,0,0,17-7.285c33.079-16.6,51.744-41.715,61.806-67.5a174.536,174.536,0,0,0,7.476-24.758c4.89-21.528,7.143-43.416,10.011-64.429,4.557-33.65,14.952-64.913,42.3-92.821,21.1-21.435,56.685-39.718,99.059-43.275,60.346-5.133,114.7,14.383,166.113,27.987,4.045,1.061,8.142,2.106,12.238,3.12,62.088,15.226,128.861,22.776,193.585,13.557,69-9.8,134.8-42.121,150.214-87.361" transform="translate(-55.972 -261.727)"/><path class="f" d="M115.34,672.19c34.728-29.664,73.74-57.377,116.571-82.806,18.946-11.279,38.968-22.277,62.856-29.438,47.878-14.337,102.208-11.014,152.288-1.451,13.723,2.59,27.165,5.647,40.069,8.923,55.385,14.238,107.747,32.5,155.949,54.383,47.75,21.669,91.224,47.862,145.938,65.381,40.811,13.073,85.975,23.806,131.651,27.612,39.275,3.229,80.061.577,114.164-11.529a162.374,162.374,0,0,0,17.564-7.394c34.231-16.88,53.28-42.651,64.008-69.156a192.894,192.894,0,0,0,8.014-25.381c5.479-22.043,8.679-44.476,12.8-65.942,6.606-34.461,20.3-65.864,50-93.836,21.558-20.28,56.1-37.877,97.292-41.559,58.657-5.242,111.758,12.48,161.889,24.508q5.914,1.4,11.906,2.73c60.423,13.26,124.636,18.845,186.135,8.58,65.544-10.92,127.2-43.135,140.817-87.065" transform="translate(-50.308 -263.9)"/><path class="f" d="M119,685.58c34.018-29.112,72.465-56.2,114.83-80.918,18.716-10.92,38.4-21.606,61.908-28.626,46.931-14.04,99.852-11.482,149.19-3,13.518,2.324,26.755,5.07,39.506,8.05C539.121,594.053,591.023,611.015,639,631.6c47.545,20.374,91.019,45.241,144.888,62.074,42.117,13.166,88.254,24.305,135.082,28.486,40.248,3.557,82.263,1.139,117.391-11.061a161.391,161.391,0,0,0,18.153-7.472c35.358-17.16,54.842-43.681,66.031-70.81a215.485,215.485,0,0,0,8.6-26.006c6.042-22.573,10.241-45.537,15.567-67.487,8.68-35.241,25.6-66.8,57.71-94.818,21.968-19.142,55.482-36.037,95.525-39.8,56.993-5.351,108.839,10.733,157.639,21.029,3.84.811,7.681,1.56,11.6,2.34,58.887,11.279,120.335,14.9,178.659,3.588,62.113-12.028,119.618-44.055,131.191-86.8" transform="translate(-44.597 -266.073)"/><path class="f" d="M122.59,698.958c33.3-28.551,71.164-55.019,113.038-79.016,18.588-10.623,38.046-20.935,60.987-27.784,45.958-13.806,97.778-12.012,146.117-4.555,13.288,2.059,26.346,4.493,38.942,7.192A943.926,943.926,0,0,1,634.832,641.44c47.34,19.064,90.84,42.62,143.864,58.782,43.525,13.229,90.558,24.8,138.564,29.36,41.2,3.869,84.49,1.7,120.616-10.593a170.056,170.056,0,0,0,18.716-7.566c36.51-17.472,56.327-44.585,68.13-72.463a240.017,240.017,0,0,0,9.192-26.63c6.606-23.1,11.7-46.614,18.358-69.016,10.7-36.052,30.724-67.768,65.416-95.832a178.7,178.7,0,0,1,93.707-38.018c55.328-5.46,105.946,8.908,153.44,17.55,3.738.671,7.5,1.326,11.266,1.95,57.12,9.36,116.187,10.92,171.208-1.389,58.657-13.135,112.039-45.007,121.692-86.566" transform="translate(-38.996 -268.235)"/><path class="f" d="M126.22,712.4c32.568-28.006,69.862-53.857,111.271-77.127,18.255-10.312,37.56-20.281,60.039-27.02,45.01-13.557,95.577-12.48,143.045-6.1,13.083,1.779,25.91,3.916,38.4,6.24a942.9,942.9,0,0,1,151.8,42.776c47.11,17.769,90.635,40,142.84,55.49,44.806,13.307,92.811,25.3,142.021,30.233,42.143,4.2,86.615,2.262,123.817-10.109a172.768,172.768,0,0,0,19.279-7.66c37.662-17.753,57.94-45.537,70.255-74.132a260.2,260.2,0,0,0,9.755-27.254c7.194-23.6,13.237-47.674,21.148-70.544,12.8-36.848,35.844-68.766,73.123-96.815a186.844,186.844,0,0,1,91.941-36.255c53.766-5.569,103,7.083,149.19,14.04,3.661.546,7.3,1.061,10.984,1.56,55.431,7.348,111.937,7.02,163.732-6.38,55.175-14.243,104.435-45.927,112.167-86.316" transform="translate(-33.332 -270.464)"/><path class="f" d="M129.85,725.744c31.851-27.443,68.565-52.664,109.479-75.209,17.922-10,37.125-19.594,59.118-26.224,44.063-13.291,93.4-13.073,139.972-7.644,12.8,1.56,25.6,3.338,37.765,5.429A941.164,941.164,0,0,1,626.6,661c46.9,16.474,90.456,37.331,141.841,52.2,46.086,13.354,95.09,25.787,145.477,31.107,43.065,4.508,88.792,2.808,127.017-9.641a176.4,176.4,0,0,0,19.868-7.8c38.789-18.018,59.476-46.458,72.354-75.739A277.573,277.573,0,0,0,1143.4,623.25c7.681-24.134,14.747-48.751,23.939-72.073,14.824-37.643,40.683-69.811,80.8-97.829,22.71-15.85,53.767-30.483,90.149-34.461,52-5.679,100.108,5.242,144.99,10.577,3.533.421,7.092.811,10.651,1.17,53.767,5.382,107.713,3.12,156.179-11.357,51.744-15.366,96.857-46.879,102.669-86.067" transform="translate(-27.668 -272.603)"/><path class="f" d="M133.48,739.091c31.126-26.894,67.263-51.5,107.687-73.322,17.922-9.672,36.664-18.907,58.221-25.428,43.064-13.011,91.173-13.588,136.874-9.188,12.622,1.217,25.065,2.777,37.2,4.571a936.249,936.249,0,0,1,149.01,35.022c46.7,15.179,90.3,34.679,140.817,48.907,47.545,13.385,97.292,26.286,148.933,31.98,44.037,4.836,90.994,3.37,130.269-9.157a178.585,178.585,0,0,0,20.483-7.8c39.941-18.33,61.038-47.44,74.454-77.44,4.225-9.485,7.681-19.064,10.933-28.5,8.321-24.648,16.335-49.8,26.7-73.586,17-38.423,45.548-70.919,88.51-98.843,22.838-14.82,53.075-28.642,88.382-32.683,50.336-5.788,97.292,3.4,140.818,7.1,3.456.281,6.887.546,10.241.78,52.128,3.4,103.462-.858,148.806-16.349,48.287-16.474,89.252-47.8,93.17-85.8" transform="translate(-22.004 -274.765)"/><path class="f" d="M137.11,752.528c30.4-26.347,65.97-50.33,105.92-71.418,17.615-9.36,36.2-18.252,57.274-24.633,42.117-12.761,89-14.04,133.8-10.733,12.392.936,24.656,2.184,36.612,3.7a931.438,931.438,0,0,1,147.628,31.2c46.5,13.869,90.174,31.98,139.819,45.615,48.9,13.4,99.673,26.77,152.39,32.854,44.985,5.148,93.17,3.916,133.469-8.689a181.808,181.808,0,0,0,21.02-7.956c40.965-18.627,62.574-48.361,76.553-79.093,4.4-9.7,8.091-19.5,11.5-29.126,8.91-25.179,17.922-50.872,29.495-75.131,19.074-39.219,50.285-72.089,96.217-99.842,23.043-13.822,52.461-26.8,86.615-30.92,48.646-5.9,94.271,1.56,136.516,3.619,3.328.156,6.657.281,10.011.39,50.49,1.435,99.238-4.789,141.33-21.325,44.857-17.644,81.674-48.844,83.748-85.6" transform="translate(-16.34 -276.954)"/><path class="f" d="M140.73,765.912c29.695-25.8,64.7-49.163,104.154-69.53,17.384-9.017,35.844-17.566,56.327-23.822,41.17-12.48,86.795-14.649,130.73-12.293,12.187.655,24.221,1.56,36.049,2.824a930.1,930.1,0,0,1,146.245,27.316c46.291,12.589,90.021,29.3,138.82,42.323C803.34,746.147,855.007,760,908.9,766.458c45.906,5.476,95.346,4.477,136.7-8.206a186.063,186.063,0,0,0,21.558-8.05c42.22-18.923,64.136-49.375,78.678-80.747,4.583-9.922,8.449-19.937,12.085-29.765,9.473-25.694,19.382-51.933,32.286-76.644,21.123-40.015,54.919-73.321,103.923-100.84,22.915-12.855,51.846-24.96,84.8-29.141,47.007-6.006,91.352-.25,132.317.141h9.678c48.825-.53,95.013-8.736,133.879-26.318,41.4-18.72,74.1-49.671,74.249-85.318" transform="translate(-10.692 -279.122)"/><path class="f" d="M144.36,779.331c28.985-25.244,63.434-47.987,102.413-67.612a341.756,341.756,0,0,1,55.405-23.026c40.2-12.231,84.49-15.195,127.657-13.837,11.957.374,23.811,1.045,35.46,1.95a924.441,924.441,0,0,1,144.863,23.4c46.086,11.279,89.867,26.521,137.77,39,51.693,13.416,104.23,27.784,159.328,34.617,46.854,5.772,97.522,5.039,139.9-7.8a190.25,190.25,0,0,0,22.147-8.143c43.371-19.219,65.672-50.326,80.778-82.416,4.762-10.125,8.807-20.28,12.648-30.374,10.036-26.224,20.892-53.041,35.076-78.188,23.171-40.795,59.451-74.694,111.63-101.823,23.043-11.934,51.206-23.1,83.031-27.378,45.318-6.115,88.433-2.075,128.016-3.339,3.124-.094,6.247-.234,9.371-.39,47.161-2.5,90.789-12.668,126.428-31.294,37.944-19.812,66.568-50.623,64.648-85.068" transform="translate(-5.028 -281.339)"/><path class="f" d="M148,792.693C176.266,768,210.134,745.87,248.595,726.968a357.2,357.2,0,0,1,54.483-22.215c39.25-11.965,82.416-15.725,124.585-15.4,11.726.109,23.4.484,34.871,1.092A917.119,917.119,0,0,1,605.912,709.98c45.855,9.984,89.739,23.884,136.772,35.74,53.1,13.385,106.509,28.268,162.759,35.475,47.827,6.1,99.724,5.6,143.122-7.254A195.338,195.338,0,0,0,1071.3,765.7c44.5-19.453,67.311-51.294,82.9-84.07,4.941-10.343,9.192-20.779,13.237-31,10.6-26.739,22.4-54.07,37.867-79.717,25.219-41.606,63.88-76.161,119.311-102.837,23.043-11.03,50.643-21.248,81.239-25.6,43.679-6.24,85.54-3.9,123.868-6.817,3.021-.234,6.042-.5,9.038-.78,45.523-4.477,86.564-16.614,118.952-36.286,34.513-20.9,58.887-51.481,55.149-84.819" transform="translate(0.652 -283.484)"/><path class="f" d="M151.62,806.189c27.528-24.2,60.838-45.76,98.828-63.961a376.075,376.075,0,0,1,53.536-21.4c38.4-11.716,80.215-16.271,121.512-16.942q17.282-.281,34.308.218a908.563,908.563,0,0,1,142.072,15.6c45.65,8.689,89.611,21.154,135.7,32.433C792.108,765.472,846.387,780.9,903.815,788.5c48.774,6.412,101.9,6.147,146.348-6.786a197.954,197.954,0,0,0,23.3-8.346c45.651-19.781,68.77-52.23,84.977-85.723,5.121-10.546,9.55-21.2,13.826-31.622,11.163-27.253,23.913-55.131,40.632-81.246,27.293-42.386,68.232-77.752,127.017-103.82,23.043-10.171,50.054-19.407,79.37-23.837,41.989-6.334,82.6-5.725,119.618-10.3,2.919-.359,5.838-.749,8.731-1.17,43.405-6.206,82.451-20.656,111.5-41.263,31.031-22.028,51.206-52.495,45.625-84.569" transform="translate(6.3 -285.702)"/><path class="f" d="M155.25,819.456c26.838-23.6,59.58-44.494,97.036-61.917A398.831,398.831,0,0,1,304.9,736.915c37.329-11.435,78.038-16.833,118.44-18.471,11.291-.484,22.556-.686,33.719-.671a900.565,900.565,0,0,1,140.689,11.81c45.445,7.379,89.611,18.408,134.749,29.141C788.442,772,843.591,788.037,902.222,795.946c49.7,6.739,104.077,6.708,149.548-6.318a198.305,198.305,0,0,0,23.862-8.424c46.8-20.077,70.332-53.2,87.051-87.361,5.274-10.764,9.908-21.622,14.389-32.246,11.752-27.784,25.45-56.161,43.525-82.775,29.341-43.181,72.508-79.484,134.749-104.834a357.078,357.078,0,0,1,77.68-22.059c40.325-6.427,79.677-7.55,115.394-13.775,2.816-.484,5.607-1.014,8.4-1.56,41.852-8.3,78.285-24.5,104.026-46.255,27.6-23.135,43.73-53.415,36.126-84.319" transform="translate(11.964 -287.83)"/><path class="f" d="M158.87,832.862c26.14-23.057,58.326-43.338,95.269-60.03a429.445,429.445,0,0,1,51.693-19.812A513.3,513.3,0,0,1,421.2,732.989c11.06-.764,22.121-1.248,33.156-1.56a891.68,891.68,0,0,1,139.307,7.925c45.215,6.084,89.355,15.6,133.725,25.85,57.377,13.182,113.371,29.75,173.154,38.1,50.643,7.067,106.253,7.27,152.774-5.834a203.545,203.545,0,0,0,24.425-8.518c47.929-20.374,71.868-54.164,89.2-89.031,5.453-10.92,10.241-22.059,14.978-32.885,12.315-28.3,26.96-57.269,46.086-84.241,31.389-43.993,76.809-81.355,142.43-105.848a421.824,421.824,0,0,1,75.887-20.28c38.661-6.536,76.81-9.36,111.169-17.254,2.714-.624,5.428-1.264,8.091-1.95,40.338-10.417,74.2-28.373,96.7-51.278,24.144-24.258,36.126-54.367,26.628-84.07" transform="translate(17.612 -290.02)"/><path class="f" d="M162.5,846.19c25.417-22.514,57.034-42.179,93.451-58.127,48.033-21.5,104.04-35.432,163.041-40.561,10.83-1.045,21.711-1.841,32.567-2.4a877.316,877.316,0,0,1,137.924,4.056c45.01,4.789,89.227,12.9,132.7,22.558,58.887,13.057,115.675,30.234,176.662,39,51.59,7.379,108.429,7.8,155.974-5.366a206,206,0,0,0,25.014-8.611c49.081-20.67,73.43-55.116,91.3-90.7,5.633-11.185,10.625-22.48,15.541-33.494,12.8-28.829,28.5-58.329,49-85.8,33.463-44.773,80.855-83.368,150.137-106.831a520.942,520.942,0,0,1,74.249-18.518c37-6.646,73.839-11.2,106.944-20.733,2.56-.749,5.12-1.56,7.681-2.34,38.676-12.527,69.862-32.184,89.1-56.161,20.687-25.35,28.548-55.3,17.1-83.82" transform="translate(23.276 -292.131)"/><path class="f" d="M166.13,859.635c57.069-51.294,151.059-85.193,250.757-97.579s204.287-4.368,300.222,16.177c60.3,12.917,117.928,30.748,180.067,39.843s132.061,8.409,184.8-13.588c65.979-27.535,88-79.561,109.53-126.471,35.409-77.19,92.171-159.263,209.613-195.206,58.58-17.894,127.12-22.386,182.525-43.681,76.81-29.547,115.214-91.73,89.227-144.77" transform="translate(28.94 -294.36)"/></g><g transform="translate(-676.512 -232.819)"><path class="f" d="M-264.23-21.579q73.661-42.977,155.36-80.357c24.169-11.045,49.465-21.84,78.576-26.848,74.4-12.667,150.188,16.178,207.027,47.955,52.541,29.317,99.175,62.335,138.923,98.36,39.3,35.662,72.457,74.694,124.329,103.788s129.834,46.426,193.842,28.408c38.072-10.717,65.6-32.5,80.7-56.333s19.023-49.749,19.919-75.3c1.024-29.251-1.1-60.123,21.84-85.8,23.76-26.52,74.4-43.353,123.945-41.029,70.537,3.323,122.511,39.469,173.871,69.094,65.237,37.612,144.735,69.094,233.808,75.864s188.209-16.162,230.121-64.585" transform="translate(264.23 158.986)"/><path class="f" d="M-262-14.7A1641.433,1641.433,0,0,1-108.944-93.374c23.836-10.764,48.825-21.294,77.424-26.162,57.479-9.766,115.8,4.976,165.627,26.52q20.114,8.733,38.635,18.72c52.243,27.974,98.827,59.643,138.769,94.335,39.429,34.352,72.713,72.229,124.226,100.419,28.88,15.819,64.9,28.455,102.413,34.2,32.67,4.992,66.7,4.68,97.574-3.713,5.493-1.5,10.813-3.215,15.925-5.148,31.415-11.887,54.151-31.481,67.976-52.62a127.9,127.9,0,0,0,10.907-20.78c7.681-18.377,10.907-37.441,12.93-56.27,3.277-29.812,4.941-60.529,29.725-85.957s73.251-41.621,121.666-39.484c68.924,3.026,120.181,37.347,170.748,65.209,3.968,2.184,8.014,4.368,12.11,6.505,61.78,32.4,135.031,58.267,215.706,63.228,86.1,5.3,181.014-17.909,220.7-65.365" transform="translate(267.71 164.152)"/><path class="f" d="M-259.69-7.8a1520.527,1520.527,0,0,1,150.751-77c23.529-10.468,48.159-20.7,76.272-25.475,56.455-9.61,113.806,4.212,163.041,24.6q19.941,8.284,38.4,17.784c51.871,26.7,98.327,57.075,138.385,90.482,39.608,33.01,73.1,69.718,124.2,97.08a347.561,347.561,0,0,0,105.587,35.381c33.515,5.413,68.668,5.429,100.595-2.9,5.7-1.483,11.215-3.209,16.514-5.164,32.618-12.059,55.994-32.261,70.511-54.024a139.291,139.291,0,0,0,11.649-21.326c8.347-18.83,12.8-38.361,16.156-57.471,5.53-30.358,10.907-60.841,37.585-86.1,25.347-23.931,72.1-39.859,119.387-37.94,67.311,2.746,117.774,35.225,167.6,61.325q5.914,3.12,11.931,6.084c60.731,30.3,131.959,53.93,209.946,57.518,83.031,3.822,173.82-19.672,211.277-66.176" transform="translate(271.314 169.311)"/><path class="f" d="M-257.41,1.35a1416.493,1416.493,0,0,1,148.5-75.334C-85.69-84.155-61.392-94.061-33.792-98.773c55.431-9.454,111.809,3.463,160.481,22.761q19.709,7.823,38.021,16.848C216.281-33.8,262.7-4.767,302.966,27.309c39.787,31.762,73.43,67.3,124.073,93.758a375.393,375.393,0,0,0,108.737,36.661c34.359,5.835,70.665,6.24,103.616-2.075a176.367,176.367,0,0,0,17.1-5.211c33.822-12.2,57.812-33.01,73.1-55.412a158.348,158.348,0,0,0,12.392-21.84c9.038-19.282,14.543-39.25,19.33-58.673,7.809-30.92,16.8-61.247,45.471-86.238,25.936-22.636,71.074-38.143,117.16-36.411,65.7,2.449,115.521,33.1,164.475,57.425q5.786,2.87,11.726,5.678c59.681,28.158,128.963,49.593,203.98,51.793,79.958,2.34,166.651-21.435,201.855-66.988" transform="translate(274.871 172.187)"/><path class="f" d="M-255.14,11.763A1317.7,1317.7,0,0,1-109.022-61.9c22.914-9.89,46.853-19.469,73.967-24.1,54.407-9.36,109.812,2.683,157.92,20.889,13.16,4.961,25.782,10.374,37.713,15.943,51.234,24.042,97.548,51.744,137.95,82.51C338.546,63.79,372.5,98.095,422.755,123.71a406.1,406.1,0,0,0,111.86,37.909c35.179,6.24,72.636,7.02,106.637-1.248a179.611,179.611,0,0,0,17.692-5.242c35.051-12.371,59.63-33.79,75.657-56.8A175.368,175.368,0,0,0,747.761,75.9c9.755-19.734,16.335-40.14,22.531-59.874,10.036-31.481,22.582-61.574,53.331-86.379,26.422-21.31,69.82-36.349,114.83-34.835,64.008,2.153,113.192,30.982,161.3,53.54,3.789,1.778,7.681,3.541,11.521,5.257,58.631,26.052,125.968,45.241,198.117,46.068,76.81.874,159.457-23.182,192.433-67.768" transform="translate(278.413 173.849)"/><path class="f" d="M-252.87,22.146a1229.717,1229.717,0,0,1,143.813-72c22.582-9.594,46.085-18.845,72.815-23.4,53.383-9.142,107.789,1.934,155.36,19.032,13.032,4.68,25.6,9.766,37.381,15.023,50.912,22.726,97.159,49.1,137.745,78.547,40.2,29.141,74.531,62.214,124.2,87.018,33.745,16.864,73.4,31.4,115.009,39.141,36.024,6.677,74.633,7.8,109.658-.437a185.465,185.465,0,0,0,18.306-5.257c36.228-12.48,61.448-34.57,78.192-58.2a196.3,196.3,0,0,0,13.928-22.979c10.472-20.187,18.076-41.029,25.6-61.075,12.264-32.012,28.394-61.886,61.32-86.519,26.781-20.031,68.668-34.6,112.654-33.291,62.472,1.872,110.862,28.876,158.227,49.671q5.607,2.449,11.317,4.836c57.607,23.915,122.9,40.9,192.254,40.342,73.84-.593,152.262-24.96,183.011-68.641" transform="translate(281.955 175.509)"/><path class="f" d="M-250.6,32.521a1148.343,1148.343,0,0,1,141.509-70.31c22.274-9.36,45.573-18.237,71.689-22.73,52.358-9,105.792,1.154,152.8,17.16,12.8,4.352,25.3,9.142,37.073,14.04,50.592,21.427,96.755,46.5,137.489,74.663C330.335,73.191,365,105,414.058,128.962c35.076,17.16,75.5,32.2,118.235,40.451,36.869,7.067,76.6,8.58,112.654.374a189.935,189.935,0,0,0,18.87-5.3,162.138,162.138,0,0,0,80.778-59.593A238.684,238.684,0,0,0,759.239,81.35c11.189-20.624,19.894-41.9,28.932-62.261,14.44-32.6,33.9-62.214,69.129-86.659C884.336-86.29,924.815-100.33,967.572-99.3c60.859,1.56,108.532,26.754,155.1,45.771,3.661,1.56,7.374,2.98,11.112,4.415,56.557,21.809,120.053,36.567,186.391,34.555,70.767-2.059,145.068-26.676,173.589-69.374" transform="translate(285.497 177.177)"/><path class="f" d="M-248.33,42.924a1070.662,1070.662,0,0,1,139.2-68.641c21.968-9.017,44.908-17.644,70.511-22.043,51.36-8.845,103.8.39,150.214,15.3,12.8,4.056,25.065,8.533,36.792,13.182C198.667.8,244.764,24.515,285.675,51.349c40.555,26.52,75.58,57.1,124.15,80.326,36.28,17.347,77.5,32.87,121.308,41.637,37.714,7.488,78.6,9.36,115.726,1.2a191.241,191.241,0,0,0,19.458-5.335c38.661-12.839,65.032-36.115,83.338-61a231.414,231.414,0,0,0,15.362-24.087c11.957-21.076,21.865-42.791,32.106-63.462,16.693-33.166,39.454-62.541,76.963-86.784,27.242-17.6,66.414-31.107,108.045-30.2,59.246,1.295,106.2,24.633,151.981,41.887,3.584,1.357,7.246,2.7,10.907,3.994,55.508,19.688,117.006,32.246,180.528,28.907,67.695-3.541,137.9-28.439,164.167-70.2" transform="translate(289.039 178.833)"/><path class="f" d="M-246,55.5A998.727,998.727,0,0,1-109.254-11.471c21.66-8.721,44.268-17.02,69.385-21.357,50.31-8.689,101.721-.3,147.628,13.447,12.6,3.775,24.809,7.925,36.459,12.262,50,18.752,96.071,41.136,137.207,66.66,40.735,25.272,76.144,54.6,124.15,76.987,37.406,17.581,79.472,33.6,124.2,42.87,38.533,7.909,80.573,10.156,118.747,2.012a192.649,192.649,0,0,0,20.047-5.351c39.89-13.011,66.85-36.879,85.9-62.4A264.411,264.411,0,0,0,770.65,89.026c12.622-21.528,23.5-43.681,35.281-64.663,19.074-33.728,45.01-62.9,84.849-86.847,27.267-16.411,65.237-29.36,105.715-28.642,57.735.92,103.974,22.4,148.933,38,3.559,1.217,7.118,2.4,10.728,3.572,54.458,17.566,114.011,27.893,174.665,23.166,64.648-5.008,130.7-30.186,154.745-70.966" transform="translate(292.675 178.3)"/><path class="f" d="M-243.78,69.8A934.568,934.568,0,0,1-109.21,4.515C-87.857-3.91-65.685-11.9-40.978-16.156,8.309-24.689,58.747-17.217,104.09-4.58,116.559-1.1,128.643,2.736,140.242,6.761c49.629,17.438,95.585,38.5,136.849,62.713,40.965,23.962,76.809,51.9,124.124,73.633,38.84,17.784,81.7,34.321,127.58,44.1,39.378,8.331,82.57,10.92,121.768,2.839A196.323,196.323,0,0,0,671.2,184.7c40.965-13.182,68.668-37.659,88.484-63.805a301.747,301.747,0,0,0,16.924-25.179c13.339-21.981,25.3-44.57,38.4-65.864,21.2-34.321,50.259-63.29,92.709-87.065,27.242-15.273,64.008-27.6,103.437-27.1C1067.2-83.6,1112.7-63.924,1156.866-50.2c3.482,1.076,6.99,2.137,10.523,3.12,53.408,15.444,111.015,23.556,168.8,17.457,61.448-6.49,123.51-31.949,145.3-71.761" transform="translate(296.138 176.043)"/><path class="f" d="M-241.51,84.106c40.331-23.96,84.661-45.287,132.266-63.633C-88.224,12.345-66.282,4.685-42.164.489,6.1-7.888,55.538-1.336,100.343,10.224c12.315,3.12,24.323,6.693,35.844,10.405,49.3,16.123,95.189,35.852,136.644,58.751,40.965,22.667,77.3,49.3,124.073,70.279,40.146,18.018,83.825,35.085,130.73,45.35,40.223,8.752,84.49,11.731,124.79,3.666a203.639,203.639,0,0,0,21.251-5.429c42.3-13.323,70.46-38.423,91.019-65.193,6.5-8.486,12.315-17.16,17.666-25.725,14.056-22.433,27.139-45.444,41.682-67.081C847.52.411,879.575-28.465,924.611-51.959,951.8-66.124,987.569-77.809,1025.795-77.5c54.432.421,99.238,18.268,142.584,30.218,3.431.936,6.862,1.856,10.241,2.746,52.384,13.323,108.019,19.2,162.938,11.716,58.5-7.941,116.315-33.7,135.876-72.572" transform="translate(299.68 173.797)"/><path class="f" d="M-239.24,98.356c39.458-23.493,83.041-44.268,129.962-61.949,20.713-7.8,42.3-15.179,65.928-19.3,47.238-8.237,95.7-2.59,139.921,7.8,12.187,2.87,24.093,6.084,35.537,9.5,49,14.822,94.824,33.26,136.439,54.9,41.247,21.31,77.936,46.614,124.047,66.878,41.477,18.206,85.924,35.881,133.879,46.582,40.965,9.173,86.539,12.48,127.811,4.477a208.457,208.457,0,0,0,21.84-5.445c43.525-13.494,72.278-39.2,93.58-66.6,6.759-8.674,12.8-17.519,18.434-26.271,14.773-22.9,28.932-46.333,44.882-68.267,25.731-35.4,60.705-64.2,108.429-87.361,27.037-13.1,61.832-24.087,98.879-23.993,52.845.125,96.934,16.162,139.486,26.333,3.354.811,6.734,1.56,10.113,2.324C1241.237-30.814,1295-27.132,1347-36.009c55.457-9.36,109.146-35.459,126.454-73.321" transform="translate(303.222 171.591)"/><path class="f" d="M-237,112.667c38.6-23.045,81.462-43.274,127.734-60.279C-88.783,44.837-67.61,37.8-44.49,33.76,1.749,25.7,49.218,30.422,92.871,39.767c12.059,2.59,23.837,5.476,35.23,8.58C176.763,61.809,222.512,78.88,264.31,99.172c41.477,20.062,78.55,44.024,124.047,63.587,42.885,18.393,88,36.551,137.028,47.815,41.861,9.594,88.484,13.307,130.806,5.3A210.206,210.206,0,0,0,678.62,210.4c44.729-13.65,74.07-39.968,96.165-67.986,6.964-8.877,13.262-17.925,19.177-26.848,15.49-23.4,30.724-47.191,48.057-69.452,28.164-35.881,65.8-64.741,116.315-87.486,26.832-12.075,60.679-22.34,96.6-22.449,51.206-.156,94.6,14.04,136.362,22.464,3.277.655,6.605,1.295,9.908,1.888,50.285,9.095,102.054,10.546,151.212.281,52.384-10.92,101.952-37.207,117.032-74.164" transform="translate(306.717 169.339)"/><path class="f" d="M-234.69,126.945c37.707-22.571,79.794-42.253,125.328-58.61C-89.264,61.08-68.4,54.372-45.739,50.41c45.215-7.925,91.71-4.1,134.8,4.134,11.905,2.293,23.657,4.93,34.923,7.66a808,808,0,0,1,135.978,46.879c41.631,18.752,79.216,41.372,124.15,60.217,44.012,18.58,89.969,37.3,140.049,49.063,42.706,10.015,90.482,14.04,133.853,6.131a214.663,214.663,0,0,0,23.043-5.523c45.932-13.806,75.888-40.732,98.726-69.374,7.22-9.064,13.749-18.3,19.945-27.394,16.207-23.79,32.618-48.064,51.206-70.654,30.34-36.473,70.844-65.4,124.175-87.611,26.6-11.092,59.527-20.592,94.322-20.9,49.619-.452,92.171,11.919,133.136,18.564,3.252.515,6.478,1.014,9.729,1.482,49.235,6.958,99.059,6.24,145.349-5.444,49.312-12.371,94.732-39,107.533-74.975" transform="translate(310.322 167.105)"/><path class="f" d="M-232.42,141.264c36.8-22.1,78.105-41.229,122.9-56.925,19.765-6.973,40.35-13.354,62.471-17.16,44.191-7.8,89.611-4.883,132.24,2.278,11.777,1.981,23.35,4.243,34.59,6.739a813.106,813.106,0,0,1,135.7,42.9c42.015,17.332,80.061,38.579,124.2,56.754,45.5,18.72,92.171,38.034,143.378,50.3,43.525,10.437,92.453,14.9,136.874,6.958a222.066,222.066,0,0,0,23.606-5.554c47.135-14.04,77.68-41.512,101.286-70.778,7.425-9.251,14.21-18.72,20.662-27.94,16.872-24.243,34.385-48.954,54.407-71.808,32.746-37.082,75.734-66.145,132.061-87.8,26.346-10.14,58.375-18.845,92.171-19.36,48.006-.733,89.944,9.813,130.09,14.68q4.762.585,9.524,1.061c48.185,4.852,96.063,1.856,139.486-11.154,46.239-13.853,87.563-40.732,98.188-75.77" transform="translate(313.864 164.876)"/><path class="f" d="M-230.15,155.521c35.981-21.645,76.586-40.236,120.719-55.272A406.285,406.285,0,0,1-47.984,83.7c43.167-7.613,87.716-5.632,129.654.421,11.649,1.685,23.043,3.635,34.308,5.819a819.808,819.808,0,0,1,135.543,39c41.861,16.131,80.419,35.974,123.842,53.462,46.879,18.829,94.322,38.782,146.476,51.59,44.37,10.92,94.45,15.6,139.9,7.8a220.215,220.215,0,0,0,24.2-5.569c48.339-14.134,79.37-42.292,103.846-72.182,7.681-9.36,14.7-19.048,21.43-28.486,17.641-24.8,36.254-49.921,57.633-73.165,34.9-37.581,80.6-66.941,139.947-87.892,26.09-9.2,57.249-17.082,89.765-17.8,46.393-1.03,87.614,7.675,126.966,10.78,3.1.25,6.221.468,9.345.655,47.135,2.714,93.042-2.48,133.6-16.9,43.193-15.3,80.394-42.48,88.766-76.566" transform="translate(317.406 162.63)"/><path class="f" d="M-227.87,169.788c35.1-21.186,74.963-39.229,118.389-53.587a421.3,421.3,0,0,1,60.167-15.865c42.143-7.457,85.719-6.412,127.094-1.451,11.521,1.388,22.864,3.12,34,4.9a823.836,823.836,0,0,1,135.313,34.991c42.168,14.851,81.213,33.338,123.97,50.17,48.262,19,96.4,39.469,149.6,52.791,45.215,11.248,96.421,16.458,142.917,8.58a223.5,223.5,0,0,0,24.784-5.616c49.568-14.274,81.316-43.041,106.407-73.571,7.911-9.625,15.183-19.422,22.2-29.032C835.326,116.95,855.015,91.366,877.8,67.84,914.926,29.7,963.188-.052,1025.609-20.192c25.808-8.331,56.1-15.335,87.486-16.255,44.78-1.31,85.284,5.569,123.842,6.911,3.047.109,6.094.172,9.14.218,46.086.608,90.046-6.817,127.734-22.6,40.12-16.786,73.2-44.242,79.37-77.377" transform="translate(320.963 160.407)"/><path class="f" d="M-225.6,184.126c34.242-20.731,73.367-38.235,116.085-51.933a445.1,445.1,0,0,1,58.887-15.179c41.119-7.3,83.722-7.176,124.534-3.307q17.052,1.638,33.668,3.994A826.621,826.621,0,0,1,242.81,148.714c42.348,13.557,81.93,30.654,123.945,46.8,49.67,19.11,98.5,40.233,152.748,54.024,46.086,11.669,98.419,17.254,145.938,9.36a229.237,229.237,0,0,0,25.373-5.647c50.771-14.446,83.133-43.821,108.992-74.975,8.142-9.813,15.644-19.8,23.043-29.64,19.049-25.584,39.839-51.59,64.008-75.443C926.26,34.5,976.98,4.224,1042.55-14.98c25.6-7.473,54.944-13.572,85.207-14.7,43.192-1.56,82.954,3.432,120.719,3.011,2.97,0,5.94-.094,8.935-.2,44.526-1.331,87.2-11.252,121.871-28.33,37.048-18.252,66.005-45.99,69.922-78.173" transform="translate(324.505 158.128)"/><path class="f" d="M-223.33,198.354c33.388-20.267,71.78-37.222,113.781-50.248a467.2,467.2,0,0,1,57.863-14.493c40.12-7.16,81.725-8,121.973-5.164,11.24.764,22.377,1.81,33.284,3.12a831.655,831.655,0,0,1,134.98,27c42.5,12.246,82.57,27.94,123.893,43.462,51.206,19.2,100.62,40.982,155.9,55.272,46.879,12.09,100.39,18.034,148.959,10.218a232,232,0,0,0,25.987-5.663c51.974-14.617,84.9-44.6,111.527-76.441,8.372-10,16.13-20.187,23.709-30.14,19.766-26.037,41.656-52.479,67.208-76.644,41.631-39.25,94.732-70.2,163.553-88.313a401.709,401.709,0,0,1,82.877-13.089c41.58-1.9,80.624,1.326,117.57-.874q4.378-.25,8.756-.608c43.613-3.58,84.234-15.5,116.008-34.055,33.975-19.734,58.887-47.752,60.474-78.969" transform="translate(328.047 155.943)"/><path class="f" d="M-221.06,212.61c32.536-19.8,70.2-36.21,111.476-48.564A499.9,499.9,0,0,1-52.873,150.24c39.1-7,79.728-8.767,119.387-7.036,11.112.468,22.147,1.2,33.079,2.137a836.941,836.941,0,0,1,134.673,23.1c42.68,10.967,83.261,25.226,123.868,40.124,52.563,19.266,102.72,41.715,159.047,56.5,47.724,12.48,102.413,18.829,152.006,11.045a238.339,238.339,0,0,0,26.5-5.694c53.178-14.773,86.718-45.381,114.088-77.783,8.628-10.187,16.617-20.561,24.451-30.686,20.483-26.52,43.525-53.368,70.409-77.845,43.909-39.812,99.52-71.59,171.541-88.438a469.234,469.234,0,0,1,80.65-11.622c39.966-2.184,78.294-.78,114.446-4.68,2.868-.312,5.71-.671,8.551-1.045,42.679-5.831,81.225-19.759,110.093-39.781,30.929-21.2,51.616-49.5,51.053-79.764" transform="translate(331.589 153.731)"/><path class="f" d="M-218.78,226.925c31.67-19.355,68.6-35.226,109.146-46.91A544.033,544.033,0,0,1-54.075,166.9,609.156,609.156,0,0,1,62.752,158q16.476.257,32.746,1.217a840.534,840.534,0,0,1,134.468,19.141c42.86,9.672,83.953,22.511,123.868,36.785,54.1,19.313,104.794,42.48,162.17,57.737,48.646,12.933,104.358,19.61,155.027,11.872a238.384,238.384,0,0,0,27.139-5.741c54.381-14.929,88.536-46.13,116.674-79.171,8.833-10.374,17.077-20.935,25.193-31.2C861.263,141.7,885.33,114.385,913.647,89.6c46.086-40.358,104.179-73.118,179.222-88.578a574.8,574.8,0,0,1,78.448-10.156c38.4-2.48,75.965-2.917,111.323-8.643,2.791-.452,5.581-.936,8.347-1.466,41.762-8.052,78.267-23.955,104.281-45.428,27.856-22.667,44.447-51.262,41.631-80.575" transform="translate(335.146 151.474)"/><path class="f" d="M-216.51,241.141c71.3-44.118,173.845-67.081,275.515-68.345s202.265,18.128,290.519,48.891c55.482,19.344,106.893,43.2,165.32,58.985s127.4,22.776,185.776,6.927c73.071-19.828,110.094-68.563,145.2-112.322C903.5,103.2,983.484,28.712,1109.759,6.279c62.907-11.17,131.651-8.05,192.459-22.917,84.311-20.624,140.408-77.564,130.576-132.6" transform="translate(338.688 149.24)"/></g><g transform="translate(-109.37 -118.094)"><path class="f" d="M-41.8,839.567c-10.753-53.041,75.171-97.861,161.837-106.082s173.615,8.767,259.514,19.672,182.5,14.493,254.239-16.271c91.71-39.328,112.91-122.056,207.385-159,73.532-28.783,169.262-20.171,244.587,1.248,42.6,12.106,78.832,32.48,119.541,46.676,184.675,64.351,197.144,195.877,354.015,215.486,169.749,21.263,261.92-29.2,293.975-64.133,40.965-44.82,109.556-161.151-58.222-241.991-68.181-32.839-135.466-67.845-185.6-111.089-75.094-64.726-74.582-163.709,21.43-217.2,65.8-36.661,166.856-50.077,211.559-97.08,30.032-31.591,25.936-72.323,0-105.286S1771.822-54.562,1722.894-75.7" transform="translate(42.717 75.7)"/><path class="f" d="M-40.565,840.418c-7.425-54.6,78.038-101.714,167.291-111.105,87.051-9.157,175.51,7.722,261.408,19.75,84.874,11.9,179.222,17.285,250.6-10.671C730.09,702.605,755.77,624.073,850.015,587.616c75.068-28.876,169.262-23.51,246.4-4.789,44.319,10.764,83.594,29.968,126.224,44.352,180.784,61.028,195.762,188.28,349.125,207.624,165.063,20.764,256.748-26.988,290.058-61.434,42.219-43.681,107.533-155.722-51-235.564-65.365-32.948-130.166-68.641-179.5-111.589-72.867-63.212-73.532-158.655,17.077-211.7,62.7-36.692,160.122-51.637,204.62-98.032,30.545-31.731,28.676-71.87,6.119-105.068C1836.35-22.167,1794.771-49.7,1747.866-72.4" transform="translate(45.371 77.548)"/><path class="f" d="M-39.233,841.217c-4.1-56.083,80.906-105.536,172.744-116.081,87.588-10.047,177.4,6.661,263.3,19.843,83.876,12.87,175.714,20.062,246.994-5.1,90.968-32.23,120.975-106.69,215.246-142.524,76.477-29.094,169.365-26.895,248.2-10.827,46.086,9.36,88.331,27.441,132.932,42.027,176.662,57.846,194.174,180.667,344.234,199.683,160.3,20.28,251.423-24.758,286.013-58.641,43.346-42.464,105.562-150.356-43.73-229.324-62.6-33.088-124.918-69.405-173.436-112.119-70.665-61.668-72.483-153.631,12.8-206.157,59.578-36.645,153.311-53.1,197.63-98.89,31.057-31.856,31.415-71.449,12.085-104.865-19.714-34.087-57.812-63.087-102.848-87.361" transform="translate(47.931 79.385)"/><path class="f" d="M-37.8,842c-.768-57.612,83.774-109.358,178.2-121.074,88.049-10.92,179.222,5.585,265.2,19.937,82.852,13.822,172.309,22.839,243.358.484,90.609-28.689,125.046-99,219.24-134.3,77.962-29.219,169.544-30.311,250.015-16.864,47.9,8,93.042,24.96,139.614,39.718,172.514,54.788,192.715,173.054,339.37,191.883,155.488,19.812,246.072-22.527,281.942-55.849,44.447-41.279,103.616-145.082-36.484-222.927-59.835-33.244-119.439-70.2-167.342-112.618-68.156-60.264-71.458-148.639,8.372-200.65,56.506-36.8,146.476-54.835,190.769-99.966,31.441-32.09,34.206-71.09,18.1-104.662C1875.911-9.582,1841.346-40,1798.1-65.79" transform="translate(50.386 81.25)"/><path class="f" d="M-36.28,842.826c2.56-59.141,86.641-113.164,183.677-126.05,88.459-11.763,181.117,4.493,267.066,20,81.93,14.773,168.981,25.631,239.748,6.069,90.226-25.132,129.091-91.293,223.208-126.066,79.37-29.36,169.8-33.775,251.807-22.9,49.773,6.6,97.779,22.433,146.3,37.441,168.213,51.871,191.255,165.456,334.505,183.99,150.7,19.36,240.67-20.28,277.9-53.041,45.523-40.093,101.7-139.9-29.213-216.578-57.1-33.431-114.113-71.059-161.3-113.133-65.877-58.751-70.434-143.678,4.02-195.113,53.459-36.941,139.716-56.473,183.882-101.027,31.9-32.152,37-70.669,24.093-104.444-13.544-35.335-44.831-67.081-86.052-94.491" transform="translate(52.761 83.081)"/><path class="f" d="M-34.76,843.6c5.914-60.654,89.611-116.924,189.13-131.042,88.92-12.6,183.011,3.4,268.961,20.093,80.855,15.71,165.576,28.5,236.112,11.654,89.944-21.482,133.136-83.586,227.2-117.844,80.957-29.485,170.082-37.285,253.625-28.923,51.642,5.164,102.413,19.937,152.979,35.069,163.86,49.047,189.8,157.843,329.615,176.111,145.938,18.876,235.37-18.065,273.954-50.264,46.547-38.907,99.852-134.8-21.993-210.2-54.355-33.665-108.762-71.87-155.181-113.648-63.573-57.253-69.436-138.842-.307-189.606,50.31-36.988,132.829-57.986,176.815-101.87,32.414-32.293,39.915-70.31,30.084-104.241-10.395-35.99-38.4-69.172-77.629-98.079" transform="translate(55.133 84.946)"/><path class="f" d="M-33.24,844.407c9.243-62.183,92.376-120.7,194.584-136.019,89.381-13.416,184.88,2.278,270.856,20.187,79.856,16.615,162.17,31.294,232.5,17.161,89.611-17.91,137.233-75.865,231.171-109.608,82.442-29.64,170.415-40.841,255.417-34.96,53.562,3.713,107.123,17.457,159.687,32.761,159.3,46.349,188.337,150.293,324.75,168.3,141.1,18.455,229.942-15.865,269.806-47.472C1953.1,717,2003.516,624.926,1890.785,550.9c-54.5-35.636-104.352-73.806-149.113-114.163-61.448-55.724-68.463-133.9-4.66-184.083,47.238-37.16,126.146-59.593,169.979-102.852,32.875-32.433,42.757-69.983,36.075-104.023-7.22-36.692-31.825-71.231-69.128-101.682" transform="translate(57.504 86.789)"/><path class="f" d="M-31.72,845.2c12.6-63.7,95.244-124.443,200.037-141.011,89.867-14.212,186.9,1.154,272.75,20.281,78.858,17.535,158.74,34.1,228.867,22.823,89.2-14.352,141.3-68.157,235.165-101.4,83.953-29.734,170.773-44.461,257.235-41,55.456,2.215,111.758,14.992,166.42,30.42C1483.346,679,1515.657,777.952,1648.64,795.69c136.311,17.925,224.54-13.619,265.761-44.679,48.646-36.582,96.242-124.942-7.476-197.484a1404.5,1404.5,0,0,1-143.019-114.693c-59.041-54.211-67.515-129.076-9.012-178.545,44.165-37.331,119.387-61.169,163.066-103.8C1949.4,125.4,1964.095,89.1,1960,52.665c-3.968-37.441-25.322-73.321-60.807-105.255" transform="translate(59.876 88.642)"/><path class="f" d="M-30.2,846.026C-14.326,780.8,67.911,717.838,175.291,699.991c90.328-14.992,188.644,0,274.645,20.358,77.859,18.408,155.385,36.895,225.308,28.393,88.792-10.8,145.4-60.4,239.133-93.134,85.463-29.843,171.157-48.111,259.027-47.035,57.4.7,116.417,12.48,173.052,28.081,149.881,41.185,185.418,135.02,314.919,152.477,131.523,17.472,219.137-11.4,261.741-41.871,49.516-35.444,94.6-120.122-.256-191.134-46.086-34.57-92.786-74.257-136.926-115.192-56.788-52.7-66.568-124.3-13.365-173.022,40.965-37.55,112.654-62.76,156.179-104.787,32.007-31.008,48.69-66.973,48.057-103.6-1.01-38.5-19.122-76.113-52.409-108.843" transform="translate(62.248 90.473)"/><path class="f" d="M-28.68,846.8c19.254-66.738,101-131.9,210.944-150.979,90.814-15.772,190.539-1.139,276.514,20.452,76.809,19.282,151.955,39.671,221.621,33.977,88.433-7.238,149.5-52.682,243.23-84.912,87.051-29.953,171.541-51.808,260.845-53.041,59.323-.842,121,10.109,179.734,25.787,145.093,38.735,183.933,127.407,310.105,144.6,126.735,16.989,213.684-9.189,257.7-39.094,50.464-34.32,93.093-115.551,7.015-184.769-43.525-34.96-87.512-75.037-130.858-115.707-54.535-51.153-65.774-119.576-17.717-167.5,37.918-37.8,105.894-64.32,149.215-105.738,32.608-30.976,51.25-66.638,54.048-103.4,2.5-39.246-12.755-78.155-44.089-112.478" transform="translate(64.619 92.333)"/><path class="f" d="M-27.16,847.629c22.582-68.267,103.9-135.613,216.4-156,91.3-16.521,192.459-2.293,278.434,20.53,75.913,20.156,148.5,42.48,218.011,39.562,88.024-3.682,153.619-44.929,247.1-76.675,88.51-30.046,171.9-55.537,262.663-59.094,61.217-2.4,125.583,7.706,186.391,23.4,140.28,36.364,182.5,119.81,305.266,136.736,121.922,16.521,208.2-7,253.625-36.3,51.411-33.151,91.71-111.058,14.261-178.4-40.709-35.428-82.186-75.833-124.764-116.222-52.307-49.64-65.006-114.9-22.07-161.978,34.744-38.08,99.161-65.9,142.277-106.706,34.846-32.963,54.816-68.719,60.04-103.18,6.069-39.942-6.255-80.124-35.589-116.035" transform="translate(66.991 94.158)"/><path class="f" d="M-25.64,848.388C.3,778.655,81.151,709.078,196.186,687.425c91.787-17.285,194.354-3.479,280.354,20.624,74.915,21,145.119,45.241,214.349,45.147,87.64-.141,157.716-37.191,251.09-68.454,90.046-30.14,172.232-59.281,264.455-65.115,63.163-3.994,130.192,5.32,193.1,21.138,135.39,34.055,181.014,112.2,300.376,128.842,117.16,16.053,202.726-4.789,249.579-33.494,52.307-32.027,90.533-106.675,21.532-172.055-37.918-35.881-76.809-76.613-118.7-116.737-50.08-48.1-64.315-110.263-26.423-156.455,31.518-38.392,92.427-67.471,135.364-107.642,35.358-33.1,57.94-68.407,66.031-102.962,9.628-40.639.2-82.108-27.191-119.623" transform="translate(69.363 96.051)"/><path class="f" d="M-24.12,849.226C5.144,777.9,85.589,706.234,203.185,683.239c92.171-18.018,196.3-4.68,282.249,20.717,73.942,21.84,141.714,48.018,210.74,50.716,87.255,3.416,161.812-29.422,255.058-60.2,91.583-30.233,172.591-63.1,266.273-71.168,65.057-5.6,134.724,2.964,199.7,18.83,130.448,31.793,179.5,104.74,295.486,120.964,112.321,15.725,197.144-2.621,245.56-30.7,53.178-30.92,89.611-102.416,28.752-165.706-35-36.473-71.689-77.393-112.654-117.252-47.878-46.551-63.726-105.66-30.724-150.917,28.163-38.736,85.694-69.031,128.425-108.625,35.844-33.229,61.115-68.08,72.047-102.774,13.206-41.33,6.684-84.1-18.793-123.242" transform="translate(71.734 97.866)"/><path class="f" d="M-22.6,849.986C9.993,777.149,90.054,703.344,210.158,679.054c92.786-18.72,198.22-5.881,284.195,20.795,72.995,22.683,138.257,50.81,207.1,56.317,86.872,6.942,165.934-21.669,259.053-51.98s172.9-66.91,268.065-77.206c66.952-7.223,139.281.655,206.464,16.505,125.455,29.641,178.044,97.143,290.647,113.1,107.533,15.241,191.691-.452,241.489-27.909,54.048-29.828,88.741-98.282,36.024-159.341-32.081-37.1-66.389-78.173-106.586-117.766-45.676-45.022-63.214-101.121-35.128-145.394,24.835-39.126,78.986-70.607,121.513-109.607,36.51-33.338,64.289-67.736,78.013-102.556,16.8-41.979,13.2-86.03-10.369-126.783" transform="translate(74.106 99.742)"/><path class="f" d="M-21.07,850.79C14.954,776.424,94.451,700.482,217.219,674.835c93.3-19.469,200.165-7.1,286.038,20.889,72.073,23.494,134.9,53.571,203.494,61.886,86.487,10.484,170.031-13.884,263.021-43.681,94.732-30.389,173.18-70.747,269.883-83.228,68.821-8.892,143.787-1.638,213.146,14.181,120.514,27.472,176.662,89.53,285.757,105.224,102.72,14.758,186.186,1.7,237.444-25.132,54.919-28.72,88.228-94.194,43.269-152.976-28.881-37.753-61.064-78.937-100.441-118.281-43.525-43.462-62.856-96.6-39.454-139.872,21.327-39.515,72.252-72.167,114.574-110.559,36.894-33.463,67.49-67.393,84-102.353,20.4-42.639,19.725-88-1.946-130.4" transform="translate(76.493 101.59)"/><path class="f" d="M-19.55,851.617C19.7,775.737,98.89,697.673,224.09,670.654c93.81-20.187,202.265-8.331,287.933,20.982,71.126,24.289,131.5,56.348,199.858,67.471,86.1,14.041,174.1-6.115,267.015-35.521,96.216-30.467,173.436-74.6,271.675-89.265,70.69-10.546,148.293-3.869,219.854,11.856,115.5,25.413,175.1,81.917,280.867,97.345,97.932,14.29,180.63,3.853,233.4-22.324,55.764-27.644,88-90.232,50.541-146.642-25.6-38.47-55.815-79.7-94.373-118.781-41.323-41.918-62.6-92.042-43.807-134.35,17.743-39.937,65.544-73.742,107.533-111.526,37.432-33.587,70.741-67.081,90.021-102.135,23.979-43.273,26.216-89.922,6.427-133.975" transform="translate(78.865 103.416)"/><path class="f" d="M-18,852.4c42.5-77.393,121.308-157.563,249.016-185.924,94.322-20.92,204.108-9.594,289.828,21.045,70.229,25.1,128.016,59.125,196.248,73.056,85.719,17.535,178.3,1.669,270.984-27.285,97.779-30.514,173.692-78.469,273.493-95.287,72.508-12.23,152.748-6.068,226.537,9.532,110.452,23.4,173.641,74.3,276,89.468,93.119,13.806,175.074,5.975,229.353-19.532,56.583-26.6,88.024-86.3,57.761-140.262-21.993-39.234-50.566-80.482-88.254-119.311-39.173-40.358-62.5-87.58-48.185-128.827,14-40.358,58.887-75.287,100.723-112.478,37.944-33.712,73.993-66.66,95.986-101.932,27.595-43.894,32.771-91.845,14.85-137.563" transform="translate(81.284 105.269)"/><path class="f" d="M-16.51,853.186c45.932-78.922,124.354-161.2,254.546-190.869,94.732-21.622,206.105-10.842,291.722,21.138,69.308,25.9,124.738,61.792,192.613,78.641,85.438,20.951,182.448,9.438,274.978-19.048,99.34-30.592,173.9-82.369,275.285-101.4,74.249-13.915,157.2-8.19,233.219,7.223,105.434,21.372,172.258,66.551,271.137,81.59,88.382,13.213,169.518,8.1,225.308-16.739,57.4-25.553,88.408-82.385,65.032-133.912-18.933-41.906-46.551-82.172-82.186-119.826-37.022-38.782-62.523-83.056-52.538-123.242,10.241-40.779,52.128-76.847,93.784-113.445,38.4-33.821,77.27-66.27,102-101.729,31.192-44.5,39.3-93.747,23.248-141.136" transform="translate(83.608 107.134)"/><path class="f" d="M-15,853.99c49.286-80.466,127.324-164.817,260.026-195.908,95.372-22.324,208.128-12.106,293.617,21.232,68.437,26.676,121.359,64.585,189,84.241,85.054,24.508,186.57,17.238,279.074-10.811,100.9-30.639,174.1-86.254,277.1-107.361,76.118-15.6,161.607-10.265,239.9,4.883C1624.088,669.7,1694.5,709.22,1790,723.993c83.594,12.746,163.86,10.187,221.262-13.947,58.222-24.524,89.125-78.423,72.277-127.563-14.97-42.27-40.641-82.863-76.092-120.325-34.9-37.222-62.651-78.532-56.89-117.782,6.042-41.169,45.446-78.391,86.871-114.412,39.019-33.93,80.547-65.849,107.994-101.511,34.771-45.1,45.823-95.648,31.646-144.724" transform="translate(85.964 108.982)"/><path class="f" d="M-13.47,854.811C39.119,772.832,116.8,686.328,251.983,653.958c95.909-23.01,210.151-13.385,295.512,21.31,67.567,27.457,117.954,67.378,185.367,89.811,84.7,28.08,190.795,25.132,282.94-2.59,102.566-30.561,174.255-90.154,278.9-113.4,77.911-17.316,166.011-12.246,246.609,2.574,95.269,17.519,169.314,51.387,261.382,65.833,78.781,12.277,158.33,12.277,217.192-11.154S2110,631.977,2099.43,585.161c-9.4-41.559-34.974-82.681-70.025-120.855-32.8-35.647-62.907-73.93-61.243-112.244,1.818-41.543,38.865-79.9,79.933-115.442,39.685-33.993,83.85-65.521,113.985-101.308,38.373-45.69,52.381-97.538,40.069-148.312" transform="translate(88.352 110.814)"/><path class="f" d="M-11.95,855.624c55.917-83.54,133.316-171.93,270.907-205.924,96.5-23.619,212.2-14.68,297.406,21.4,66.568,28.237,114.574,70.2,181.782,95.38,84.311,31.606,194.891,32.885,286.909,5.647,104.1-30.639,174.383-94.054,280.713-119.436,79.677-19.017,170.338-14.118,253.266.265,90.3,15.6,167.854,43.681,256.518,57.955,74.019,11.809,152.749,14.336,213.172-8.362,59.835-22.48,91.378-70.2,86.769-114.833-4.353-42.214-29.8-83.461-64.008-121.354-30.724-34.086-63.265-69.281-65.6-106.737-2.56-41.84,32.132-81.465,73.02-116.331,40.2-34.133,87.051-65.006,119.977-101.09,41.97-46.257,58.947-99.4,48.518-151.869" transform="translate(90.723 112.684)"/><path class="f" d="M-10.43,856.381C48.841,771.36,125.8,680.8,265.93,645.559c97.01-24.383,214.273-15.975,299.3,21.5,65.851,29,111.169,72.931,178.172,100.918,83.953,35.147,198.988,40.639,290.9,13.884,105.613-30.748,174.511-97.97,282.505-125.473,81.444-20.748,174.69-15.9,259.974-2.075s166.421,36.146,251.628,50.092c69.129,11.326,147.167,16.4,209.127-5.569,60.654-21.5,92.914-65.724,94.04-108.469s-24.707-84.241-57.863-121.885c-28.6-32.5-63.726-64.523-69.948-101.2-7.118-42.121,25.4-83.04,66.082-117.3s90.43-64.569,125.968-100.887c45.525-46.834,65.43-101.276,56.839-155.457" transform="translate(93.095 114.532)"/></g><g transform="translate(923.07 -449.787)"><path class="f" d="M425.741,1260.261c-74.608-28.081-78.115-97.018-34.359-143.335s120-76.972,187.748-110.918,132.88-77.6,138.462-130.933c7.169-68.189-85.387-130.106-73.532-198.123C653.3,624,724.3,583.927,798.907,561.51c42.168-12.652,90.917-17.082,134.6-27.534,198.117-47.253,374.164,29.235,497.546-32.9,133.572-67.362,126.761-142.758,102.08-179.9-31.62-47.6-137.515-152.992-346.052-123.96-84.7,11.794-171.541,21.84-258.361,18.549-129.859-4.976-256.134-67.253-264.429-146.346C658.73,15.2,704.815-41.191,672.632-91.86c-21.583-34.071-76.272-57.6-134.6-66s-119.848-3.354-177.507,6.614" transform="translate(-360.53 358.999)"/><path class="f" d="M427.673,1262.256c-74.454-30.655-81.213-100.794-37.3-149.06,42.885-47.113,119.823-78.5,189.028-111.761,68.386-32.854,134.314-74.226,143.378-125.707,11.445-65.8-72.918-127.2-60.5-194.785,10.088-53.743,75.965-95.162,148.242-120.028,41.528-14.306,90.686-20.92,135.7-32.168,191.307-47.612,363.411,25.038,484.309-35.724,129.962-65.381,126.3-138.842,103.13-176.283-29.392-47.394-131.831-148.624-333.379-123.414-82.98,10.405-169.16,18.892-255.11,15.4-126.556-4.992-249.016-64.491-260.077-140.714-7.681-52.76,34.232-108.391,2.765-158.592-21.43-34.321-73.967-58.641-130.576-68.735-57.121-10.171-118.389-7.691-176.815.39" transform="translate(-356.547 356.817)"/><path class="f" d="M431.132,1264.554c-74.249-33.2-84.337-104.521-40.274-154.77,42.015-47.893,119.644-80.076,190.334-112.619,69-31.762,135.7-70.872,148.217-120.481,15.746-63.4-60.68-124.3-47.494-191.524,10.728-54.6,71.689-97.283,141.662-124.662,40.965-16.006,90.456-24.758,137.054-36.785,184.7-47.706,352.76,20.967,471.1-38.361,126.377-63.4,125.839-134.911,104.153-172.554-27.139-47.175-126.2-144.334-320.679-122.868-81.521,8.986-167.035,15.834-252.063,12.121-123.151-5.086-241.95-61.824-255.75-135.207C697.738,15.52,735.554-39.331,704.6-89.064c-21.276-34.711-71.689-59.687-126.556-71.449-55.969-12-116.9-12.059-176.15-5.85" transform="translate(-354.169 354.331)"/><path class="f" d="M434.634,1267.125c-74.249-35.725-87.409-108.281-43.218-160.48,41.2-48.642,119.439-81.62,191.614-113.445,69.589-30.717,137.182-67.518,153.107-115.27,20.047-61.013-48.313-121.417-34.462-188.264,11.47-55.334,67.464-99.5,135.057-129.295,40.248-17.738,90.2-28.58,138.257-41.419,178.172-47.612,342.109,16.895,458.04-40.966,122.767-61.434,125.455-131.042,105.2-168.9-24.963-46.957-120.668-140.09-308.031-122.322-79.984,7.582-164.68,12.7-248.888,8.923C861.541,190.3,746.4,136.481,729.889,66,718.214,16.078,751.5-37.93,721.543-87.227c-21.276-34.991-69.461-60.841-122.537-74.164-54.816-13.837-115.445-16.427-175.458-12.09" transform="translate(-351.859 351.558)"/><path class="f" d="M438.132,1270.009c-74.044-38.267-90.482-112.026-46.086-166.19,40.376-49.39,119.234-83.212,192.92-114.3,70.178-29.641,138.615-64.164,157.946-110.044,24.374-58.61-35.844-118.562-21.43-184.988,12.238-56.161,63.189-101.807,128.5-133.944,39.608-19.5,89.918-32.371,139.46-46.052,171.721-47.394,331.484,12.823,444.932-43.587,119.157-59.437,124.867-127.033,106.253-165.222-22.787-46.723-115.214-135.925-295.358-121.791-78.525,6.24-162.375,9.672-245.79,5.71-116.392-5.522-227.868-56.567-247.045-124.162C738.687,16.95,767.8-36.247,738.508-85.091c-21.148-35.3-67.234-61.855-118.517-76.878C566.224-177.679,506.006-182.749,445.2-180.3" transform="translate(-349.519 348.486)"/><path class="f" d="M441.673,1273.1c-73.891-40.81-93.5-115.754-49.132-171.9,39.608-50.139,119-84.787,194.2-115.161,70.767-28.549,140.2-60.763,162.836-104.834,28.855-56.161-23.5-115.6-8.4-181.712,13.006-56.926,58.887-104.148,121.9-138.577,38.942-21.279,89.611-36.162,140.817-50.685,165.345-47.035,320.833,8.752,431.8-46.208,115.547-57.456,124.354-123.086,107.277-161.541-20.483-46.489-109.915-131.853-282.659-121.261-77.117,4.68-160.071,6.646-242.616,2.5-113.038-5.663-221.006-53.961-242.718-118.562-15.823-47.1,9.063-99.467-19.51-147.844-21.02-35.631-64.955-62.994-114.472-79.561-52.563-17.628-112.526-25.148-174.1-24.57" transform="translate(-347.249 345.146)"/><path class="f" d="M445.254,1276.531c-73.763-43.353-96.549-119.482-52.1-177.624,38.84-50.857,118.747-86.379,195.506-115.988,71.279-27.5,141.637-57.409,167.7-99.623,33.284-53.758-11.086-112.7,4.609-178.451,13.8-57.721,54.535-106.534,115.214-143.21,38.4-23.1,89.432-39.937,141.918-55.3,159.021-46.6,310.182,4.68,418.663-48.829,111.963-55.49,123.817-119.139,108.327-157.89-18.486-46.224-104.666-127.922-269.985-120.7-79.731,3.552-159.8,3.312-239.466-.718-109.684-5.8-214.171-51.387-238.365-113.1-17.922-45.724,2.791-97.252-25.091-145.176-20.892-35.881-62.728-64.148-110.452-82.291C610.292-181.937,550.688-191.89,488.293-193.2" transform="translate(-344.992 341.59)"/><path class="f" d="M448.868,1279.889c-73.609-45.881-99.52-123.242-55.072-183.334,38.149-51.59,118.517-87.986,196.837-116.846,71.817-26.521,143.07-54.039,172.565-94.4,37.509-51.34,1.357-109.795,17.641-175.191,14.568-58.486,50.131-108.952,108.711-147.844,37.585-24.961,89.2-43.681,143.147-59.936,152.774-46.036,299.557.608,405.528-51.481C1546.578,397.352,1561.5,335.684,1547.6,296.652c-16.386-45.974-101.8-136.814-257.337-120.122-73.353,7.8-155.437.577-236.291-3.931-106.33-5.913-207.386-48.8-234.038-107.564C799.836,20.668,816.479-30,789.211-77.458c-20.083-34.4-57.3-64.121-106.458-85.006C632.469-183.992,573.2-196.332,510.009-199.53" transform="translate(-342.692 338.045)"/><path class="f" d="M452.423,1283.258c-73.481-48.361-102.413-126.908-58.042-189.06,37.432-52.245,118.235-89.577,198.245-117.673,72.329-25.444,144.53-50.685,177.455-89.187,41.81-48.938,13.8-106.908,30.724-171.915,15.362-59.281,45.676-111.433,102.131-152.493,36.843-26.817,88.945-47.425,144.351-64.57,146.578-45.381,288.88-3.463,392.394-54.071,104.743-51.481,122.69-111.2,110.4-150.527-14.286-45.724-96.37-134.162-244.638-119.638-72.252,7.067-153.132-2.434-233.142-7.129C969.325,160.96,871.547,120.758,842.59,64.94c-22.3-43.01-9.7-92.806-36.2-139.794-19.608-34.624-55.162-65.077-102.413-87.72C654.1-186.223,594.626-201.19,531.9-205.88" transform="translate(-340.512 334.488)"/><path class="f" d="M456.057,1286.634c-73.3-50.95-105.434-130.59-60.987-194.754,36.741-53.041,117.928-91.215,199.423-118.562,72.841-24.43,145.938-47.316,182.294-83.961,46.086-46.536,26.269-104.007,43.7-168.654,16.181-60.076,41.2-113.882,95.551-157.126,36.1-28.689,88.74-51.138,145.579-69.2,140.459-44.648,278.229-7.519,379.259-56.676,101.132-49.547,122.127-107.236,111.45-146.877-12.238-45.444-90.865-131.307-231.964-119.093-71.279,6.24-150.8-5.46-229.993-10.343-99.622-6.147-194.175-43.681-225.308-96.519-24.6-41.684-15.951-90.591-41.784-137.111-19.166-34.912-53.115-66.124-98.418-90.482-48.6-25.775-107.885-42.915-171.388-49.546" transform="translate(-338.333 330.91)"/><path class="f" d="M459.726,1289.958c-73.174-53.493-108.378-134.287-64.008-200.479,36.049-53.712,117.621-92.837,200.7-119.373,73.327-23.4,147.4-43.93,187.184-78.735,50.438-44.117,38.763-101.09,56.737-165.363,17-60.841,36.638-116.425,88.945-161.759,35.307-30.592,88.536-54.819,146.809-73.836,134.391-43.837,267.578-11.591,366.125-59.281,97.548-47.565,121.513-103.258,112.475-143.195-10.241-45.241-85.259-128.343-219.266-118.562-70.485,5.148-148.5-8.471-226.844-13.557-96.268-6.24-187.7-41.107-221.032-91C860.62,24.465,865.382-23.552,840.214-69.6c-20.355-37.207-53.562-69.078-94.4-93.165-47.295-27.9-106.414-47.209-170.722-55.771" transform="translate(-336.165 327.399)"/><path class="f" d="M463.365,1293.333c-73.02-56.036-111.271-137.984-66.9-206.188,35.384-54.414,117.314-94.491,202.009-120.216C672.287,944.5,747.279,926.368,790.5,893.4c54.74-41.715,51.206-98.188,69.743-162.133,17.922-61.637,32.055-118.952,82.365-166.392,34.462-32.5,88.382-58.485,148.037-78.454,128.374-42.963,256.927-15.6,353.016-61.933,93.912-45.584,120.847-99.28,113.5-139.513-8.193-44.913-79.754-109.826-206.618-118.016-69.692-4.508-146.168-11.482-223.669-16.77-92.914-6.349-181.347-38.533-216.68-85.458-29.392-39-28.419-86.16-52.947-131.744-20.175-37.519-51.206-70.357-90.354-95.879C720.945-192.916,662-214.414,596.86-224.9" transform="translate(-333.992 323.837)"/><path class="f" d="M467.055,1296.7c-72.892-58.579-114.164-141.666-69.871-211.914,34.744-55.116,116.981-96.145,203.315-121.058,74.249-21.435,150.214-37.222,196.914-68.3,58.887-39.313,63.726-95.286,82.775-158.857,18.69-62.4,27.4-121.495,75.785-171.041,33.591-34.414,88.2-62.136,149.241-83.087,122.409-42.121,246.43-19.625,339.882-64.554,90.456-43.478,120.207-95.3,114.548-135.847-6.247-44.617-74.94-106.659-193.944-117.47-68.591-6.24-143.864-14.477-220.52-19.984-89.611-6.427-175.1-35.881-212.353-79.936-31.876-37.659-34.641-83.945-58.5-129.045a284.767,284.767,0,0,0-86.334-98.594c-44.575-32.155-103.356-55.843-169.365-68.251" transform="translate(-331.845 320.286)"/><path class="f" d="M470.746,1300.059c-72.739-61.106-117.032-145.347-72.841-217.623,34.155-55.818,116.674-97.829,204.62-121.916,74.736-20.467,151.647-33.852,201.778-63.087,63.317-36.894,76.246-92.369,95.807-155.581s22.736-124.038,69.129-175.675c32.7-36.333,88.075-65.74,150.47-87.72,116.494-41.044,235.779-23.7,326.747-67.081,86.846-41.512,119.515-91.34,115.573-132.181-4.276-44.352-70.1-103.711-181.245-117-67.515-8.019-141.56-17.457-217.4-23.182-86.18-6.505-168.981-33.322-208-74.413-34.462-36.3-40.837-81.73-64.008-126.362-19.868-38.174-46.367-72.962-82.314-101.308-43.188-34.276-101.8-60.163-168.7-74.507" transform="translate(-329.724 316.736)"/><path class="f" d="M474.462,1303.506c-72.61-63.649-119.874-149.029-75.811-223.333,33.54-56.52,116.315-99.53,205.926-122.758,75.2-19.516,153.056-30.5,206.643-57.877,67.592-34.508,88.766-89.452,108.839-152.321,20.483-63.961,17.922-126.565,62.6-180.308,31.748-38.252,88-69.312,151.673-92.354,110.657-40.015,225.154-27.768,313.638-69.78,83.236-39.531,118.824-87.361,116.622-128.5-2.355-44.086-65.237-100.918-168.6-116.394-66.389-10.031-139.23-20.53-214.222-26.489-82.852-6.568-162.939-30.655-203.648-68.875-37.176-34.9-47.059-79.561-69.641-123.679-19.714-38.486-43.909-74.273-78.294-104.023-41.764-36.39-100.2-64.475-168.008-80.747" transform="translate(-327.603 313.179)"/><path class="f" d="M478.172,1306.776c-72.457-66.176-122.69-152.695-78.755-229.042,32.926-57.206,115.982-101.215,207.206-123.6,75.657-18.564,154.464-27.144,211.533-52.651C890.025,869.36,919.442,814.931,940,752.437c21.327-64.788,13.237-129.123,56.02-184.957,30.724-40.171,87.947-72.853,152.9-96.972,104.973-39,214.5-31.856,300.5-72.416,79.626-37.55,118.082-83.368,117.775-124.8-.461-43.79-60.321-98.282-155.923-115.848-65.237-11.965-136.925-23.4-211.072-29.641-79.37-6.63-157.024-27.971-199.321-63.353-40.069-33.494-53.357-77.33-75.3-121-19.535-38.813-41.426-75.6-74.249-106.737-40.32-38.5-98.59-68.792-167.342-86.987" transform="translate(-325.501 309.629)"/><path class="f" d="M481.9,1310.14c-72.329-68.719-125.455-156.377-81.725-234.753,32.337-57.892,115.624-102.962,208.512-124.459,76.092-17.613,155.872-23.79,216.4-47.425,76.144-29.734,113.832-83.633,134.877-145.784,22.2-65.521,8.423-131.651,49.414-189.59,29.8-42.121,87.947-76.348,154.131-101.6,99.11-37.831,203.827-35.881,287.37-75.022,76.016-35.584,117.339-79.405,118.7-121.167,1.434-43.525-55.226-95.879-143.224-115.317-64.008-14.134-134.622-26.4-207.923-32.76-76.144-6.74-151.187-25.257-194.865-57.893-42.962-31.934-59.553-75.1-80.906-118.3-19.33-39.141-38.891-76.909-70.229-109.451-38.864-40.6-96.964-73.1-166.677-93.227" transform="translate(-323.396 306.078)"/><path class="f" d="M485.674,1313.5c-72.2-71.262-128.3-160.028-84.7-240.478,31.774-58.579,115.214-104.662,209.792-125.286,76.553-16.708,157.254-20.467,221.262-42.214C912.351,878.084,958.411,824.809,979.917,763c23.043-66.332,3.61-134.162,42.86-194.223,28.778-44.008,88-79.8,155.334-106.238,93.4-36.676,193.048-40.093,274.235-77.643,72.3-33.7,116.571-75.4,119.772-117.517,3.277-43.275-49.977-93.6-130.576-114.787a1273.923,1273.923,0,0,0-204.825-36.021c-72.739-6.755-145.349-22.355-190.564-52.276-45.83-30.342-65.621-72.9-86.359-115.614-19.151-39.469-36.356-78.22-66.21-112.166-37.387-42.694-95.3-77.4-165.985-99.467" transform="translate(-321.327 302.528)"/><path class="f" d="M489.431,1316.9c-72.047-73.8-131.063-163.709-87.64-246.188,31.185-59.281,114.881-106.425,211.1-126.143,76.989-15.787,158.739-17.16,226.127-36.988,84.644-25.038,138.948-77.814,160.941-139.264,24.016-67.081-1.28-136.7,36.254-198.856,27.7-45.927,88.178-83.212,156.538-110.871,87.742-35.491,182.4-44.164,261.152-80.263,68.668-31.715,115.752-71.465,120.77-113.882,5.121-43.01-44.473-91.449-117.775-114.225-63.452-19.375-131.465-32.617-201.6-39.25-69.487-6.755-139.691-19.438-186.289-46.8-48.9-28.673-71.689-70.7-91.941-112.93-18.946-39.8-33.771-79.561-62.19-114.88-35.912-44.774-93.652-81.694-165.32-105.707" transform="translate(-319.246 298.944)"/><path class="f" d="M493.2,1320.236c-71.919-76.332-133.828-167.376-90.609-251.914,30.724-59.951,114.523-108.188,212.506-126.986,77.424-14.867,160.071-13.806,230.992-31.762,88.945-22.651,151.7-74.881,173.948-135.987,25.168-67.861-6.145-139.232,29.674-203.506,26.678-47.846,88.357-86.5,157.792-115.442,82.135-34.321,171.746-48.251,247.966-82.884,64.981-29.8,114.933-67.627,121.717-110.2s-38.686-89.389-105.2-113.695c-58.887-21.575-127.734-35.225-198.45-42.464-66.158-6.755-133.981-16.427-181.91-41.247-52-26.879-77.859-68.5-97.5-110.231-18.639-40.155-31.185-80.825-58.2-117.595-34.391-46.861-91.947-86-164.628-111.963" transform="translate(-317.205 295.421)"/><path class="f" d="M496.915,1323.582c-71.689-78.875-136.337-171.01-93.58-257.622,30.263-60.623,114.19-109.966,213.71-127.828,77.91-14.04,161.5-10.468,235.882-26.52,93.246-20.28,164.167-71.949,186.9-132.712,26.013-68.641-11.061-141.744,23.043-208.138,25.6-49.765,88.664-89.748,159.021-120.122,76.6-33.073,161.095-52.308,234.832-85.505,61.448-27.753,114.062-63.571,122.895-106.472,8.705-42.511-32.49-87.361-92.53-113.164-56.737-24.383-125.456-38.127-195.3-45.662-62.83-6.771-128.246-13.354-177.635-35.725C1059.032,39.15,1030.075-2.175,1011.1-43.438c-18.485-40.467-28.573-82.12-54.176-120.325-32.867-48.913-90.2-90.269-163.86-118.188" transform="translate(-315.107 291.887)"/><path class="f" d="M500.77,1326.961c-71.689-81.418-139.256-174.722-96.55-263.348,29.572-61.34,113.832-111.76,215.067-128.671,78.346-13.1,162.938-7.1,240.669-21.341,97.548-17.847,176.662-69.031,199.986-129.482,26.858-69.421-15.976-144.24,16.514-212.772,24.477-51.668,89.1-92.915,160.225-124.8S1387.1,390.244,1458.4,358.5c57.863-25.772,113.166-59.624,123.894-102.806,10.5-42.277-25.859-85.287-79.831-112.618S1379.419,102.061,1310.291,94.2c-59.5-6.771-122.485-10.156-173.282-30.186-58.273-22.964-90.328-64.086-108.634-104.865s-25.962-83.4-50.157-123.039c-31.376-50.981-88.557-94.559-163.271-124.428" transform="translate(-313.125 288.32)"/></g></g></g></g></g></svg>