<svg xmlns="http://www.w3.org/2000/svg" xmlns:xlink="http://www.w3.org/1999/xlink" width="1920" height="1188" viewBox="0 0 1920 1188"><defs><style>.a,.d{fill:none;stroke:#fff;stroke-width:2px;}.b{fill:#ececec;opacity:0.5;}.c{clip-path:url(#a);}.d{stroke-miterlimit:10;}</style><clipPath id="a"><rect class="a" width="1920" height="1188"/></clipPath></defs><g transform="translate(0 -4471)"><rect class="b" width="1919" height="1188" transform="translate(1 4471)"/><g transform="translate(0 4471)"><g transform="translate(0 0)"><g class="c"><g transform="translate(-395.183 -384.963)"><path class="d" d="M1333.345-52.3A1497.8,1497.8,0,0,1,1275.2,128.889c-10.241,26.335-21.814,53-41.759,74.043-51.027,53.787-140.305,55.449-216.5,43.766a951.622,951.622,0,0,1-204.467-55.093C747.6,166.054,684.843,133.069,615.331,122.24S464.963,128.889,427.506,184.2c-22.275,32.961-25.834,74.661-17.129,112.727s28.676,73.069,50.822,106.1c25.373,37.805,54.816,76.109,58.631,120.492,3.943,45.974-23.427,92.993-67.055,115.125-62.036,31.488-137.975,11.731-207.565,0C156.83,623.705,62.021,623.824-18.731,660.371S-161.9,776.3-153.609,859.275" transform="translate(154.349 313.066)"/><path class="d" d="M1314.169-57.53a1400.445,1400.445,0,0,1-57.095,176.986c-10.241,25.694-21.532,51.673-40.965,72.286-49.7,52.671-136.081,55.568-210.176,45.547q-26.4-3.562-52.486-8.644a921.45,921.45,0,0,1-146.783-41.272c-63.393-23.747-124.841-54.618-192.792-64.521s-144.555,8.193-184.138,59.7a148.452,148.452,0,0,0-29.341,62.763,159.541,159.541,0,0,0-1.741,47.138,179.446,179.446,0,0,0,3.61,21.729c6.81,29.066,21.3,57.515,37.15,84.563,1.562,2.683,3.149,5.343,4.737,8.027,24.784,41.486,50.95,83.922,52.384,130.347,1.383,44.692-24.041,90.239-66.568,111.967-60.449,31.061-134.16,13.275-201.471,3.348-5.3-.784-10.625-1.52-15.976-2.161-80.8-10.021-165.294-5.937-237.392,28.639-76.809,36.855-135.569,114.532-126.275,195.153" transform="translate(157.831 305.876)"/><path class="d" d="M1294.93-62.76a1317.084,1317.084,0,0,1-56.1,172.783c-10.062,25.053-21.25,50.391-40.2,70.552-48.262,51.531-131.882,55.639-203.852,47.28q-25.6-2.992-51.053-7.433a894.538,894.538,0,0,1-143.07-37.33c-61.909-21.776-122.05-50.581-188.388-59.629s-139.179,9.76-180.374,57.42c-16.642,19.235-30.212,38.209-37.457,60.08a151.736,151.736,0,0,0-7.681,47.019,159.373,159.373,0,0,0,1.485,22.678c4.3,30.729,18.69,61.742,34.231,91.165,1.562,2.921,3.1,5.818,4.66,8.715,24.195,45.119,47.161,91.592,46.086,140.107-.9,43.338-24.656,87.341-66,108.856-58.887,30.586-130.294,14.771-195.352,6.72q-7.681-.962-15.362-1.757c-78.038-7.836-158.893-1.9-227.33,32.985-72.995,37.188-128.016,113.131-117.774,191.4" transform="translate(161.401 298.686)"/><path class="d" d="M1275.842-68a1242.42,1242.42,0,0,1-55.072,168.6c-9.96,24.412-20.995,49.061-39.429,68.866-47.187,50.344-127.683,55.687-197.554,48.966q-24.886-2.375-49.593-6.2a869.359,869.359,0,0,1-139.332-33.27c-60.424-19.876-119.26-46.591-184.035-54.76s-134.212,11.185-176.662,55.164c-18.486,19.14-35.384,36.143-45.548,57.349a145.507,145.507,0,0,0-13.749,46.734,141.137,141.137,0,0,0-.742,23.747c1.792,32.391,16.079,66.088,31.338,97.79,1.511,3.135,3.021,6.269,4.557,9.5,23.606,48.895,43.525,99.1,39.915,150.057-2.919,41.89-25.3,84.516-65.493,105.7C327.219,700.4,257.988,686.56,195.184,680.339c-4.967-.475-9.934-.926-14.9-1.306-75.248-5.675-152.492,2.114-217.294,37.307-69.128,37.52-120.335,111.611-109.069,187.6" transform="translate(164.82 291.483)"/><path class="d" d="M1256.728-73.21a1167.085,1167.085,0,0,1-54.074,164.353c-9.806,23.747-20.739,47.684-38.661,67.014-45.753,49.346-123.458,55.9-191.2,50.842q-24.169-1.781-48.134-4.963a847.516,847.516,0,0,1-135.7-29.446c-58.887-18-116.469-42.745-179.632-49.869S479.7,137.141,436.454,177.582c-20.482,19-40.53,34.077-53.767,54.618a142.551,142.551,0,0,0-19.766,46.805,126.874,126.874,0,0,0-2.868,24.554c-.743,34.053,13.467,70.386,28.419,104.487l4.455,10.093c23.12,52.5,39.915,106.386,33.694,159.817-4.685,40.37-25.91,81.713-64.981,102.587-55.61,29.708-122.588,17.834-183.139,13.465q-7.182-.534-14.363-.879c-72.431-3.562-146.04,6.127-207.206,41.557-65.211,37.829-112.654,110.329-100.441,183.9" transform="translate(168.265 284.321)"/><path class="d" d="M1237.568-78.44a1094.673,1094.673,0,0,1-53.075,160.15c-9.678,23.13-20.482,46.425-37.841,65.3-44.473,48.183-119.285,55.972-184.932,52.576q-23.4-1.211-46.674-3.752a819.733,819.733,0,0,1-131.907-25.5c-57.454-16.1-113.678-38.66-175.279-45.119S482.4,138.8,438.673,175.866c-22.48,19-45.676,32.011-61.755,51.935a142.231,142.231,0,0,0-25.6,46.687,121.173,121.173,0,0,0-5.121,25.457c-3.252,35.621,10.856,74.661,25.6,111.017,1.434,3.609,2.893,7.124,4.327,10.8,22.48,56.257,36.356,113.748,27.447,169.72-6.2,38.921-26.5,78.911-64.443,99.476-54.253,29.328-118.952,19.425-177.148,16.884-4.583-.19-9.192-.332-13.8-.427-69.692-1.33-139.691,10.14-197.144,45.95-61.32,38.161-105.2,108.927-91.813,180.144" transform="translate(171.756 277.131)"/><path class="d" d="M1218.789-83.67a1025.193,1025.193,0,0,1-52.1,155.946c-9.576,22.512-20.176,45.119-37.074,63.571-43.167,47.114-115.086,56.114-178.608,54.381q-22.659-.617-45.241-2.517a795.731,795.731,0,0,1-128.195-21.562C721.6,151.9,666.682,131.478,606.694,125.968s-121.564,14.438-165.473,48.42c-24.656,19-50.848,29.85-69.9,49.109a143.683,143.683,0,0,0-31.62,46.592,116.719,116.719,0,0,0-7.374,26.383c-5.761,37.378,8.27,78.959,22.608,117.761q2.151,5.747,4.25,11.493c21.891,59.937,33,120.967,21.2,179.575-7.527,37.4-27.114,75.99-64.008,96.318C264,730.448,201.473,722.493,145.428,721.828H132.165c-66.927.855-133.29,14.248-187.159,50.272-57.453,38.494-97.625,107.526-83.236,176.393" transform="translate(174.917 269.941)"/><path class="d" d="M1199.815-88.9a956.651,956.651,0,0,1-51.027,151.743c-9.422,21.871-19.894,43.789-36.305,61.742-41.835,46-110.862,56.209-172.284,56.138q-21.891,0-43.756-1.306A766.279,766.279,0,0,1,771.961,161.8c-54.484-12.3-108.1-30.681-166.421-35.312s-124.585,8.549-161.838,46.14c-30.084,14.224-55.994,27.95-77.936,46.52a147.437,147.437,0,0,0-37.637,46.473,114.451,114.451,0,0,0-9.6,27.333c-8.27,39.016,5.658,83.115,19.714,124.221q2.1,6.1,4.148,12.206c21.3,63.618,29.8,128.234,14.952,189.406-8.705,35.905-27.651,73.354-63.5,93.207-50.8,28.378-111.066,22.393-164.859,23.581-4.25,0-8.475.238-12.8.427-64.136,3.016-126.915,18.167-177.123,54.618-53.536,38.826-90.021,106.125-74.608,172.641" transform="translate(178.144 262.752)"/><path class="d" d="M1180.821-94.13a894.917,894.917,0,0,1-50.028,147.54c-9.294,21.206-19.612,42.483-35.512,60.08-40.53,44.811-106.663,56.28-165.96,57.848q-21.148.57-42.322,0a745.768,745.768,0,0,1-120.77-13.654c-53-10.52-105.306-26.81-162.119-30.657s-120.8,8.905-158,43.956c-32.516,13.441-61.192,25.837-86.052,43.908a152.327,152.327,0,0,0-43.525,46.4,114.1,114.1,0,0,0-11.829,28.235c-10.779,40.679,3.072,87.508,16.821,130.846q2.048,6.412,4.045,12.895c20.713,67.3,26.755,135.358,8.705,199.237-9.78,34.291-28.394,70.362-62.958,89.977-49.184,27.927-107.2,23.913-158.74,26.929-4.071.238-8.116.546-12.187.879-61.448,5.2-120.514,22.18-167.086,58.94-49.645,39.111-82.417,104.7-66,168.865" transform="translate(181.469 255.562)"/><path class="d" d="M1162-99.36a835.19,835.19,0,0,1-49,143.337c-9.166,20.565-19.381,41.154-34.743,58.323-39.224,43.789-102.464,56.375-159.661,59.6q-20.482,1.187-40.965,1.14a719.828,719.828,0,0,1-117.058-9.713c-51.514-8.525-102.413-22.75-157.767-25.6s-116.955,9.1-154.131,41.6c-34.923,12.681-66.338,23.747-94.143,41.082A159.144,159.144,0,0,0,304.938,256.7a114.458,114.458,0,0,0-14.031,29.161c-13.288,42.341.461,91.782,13.928,137.448q2,6.768,3.943,13.583c20.124,71,23.913,142.482,2.56,209.116-10.677,32.913-29.085,67.631-62.369,86.938C201.3,760.447,145.532,758.4,96.246,763.273c-3.892.38-7.681.807-11.649,1.306C26.017,771.94-29.516,790.7-72.453,827.841c-45.753,39.444-74.812,103.3-57.377,165.113" transform="translate(184.618 248.372)"/><path class="d" d="M1143.239-104.59a777.54,777.54,0,0,1-48.006,139.134c-9.038,19.948-19.1,39.871-33.95,56.589-37.918,42.745-98.265,56.565-153.363,61.457q-19.612,1.757-39.378,2.375A697.769,697.769,0,0,1,755.2,149.17c-50-6.72-99.673-18.855-153.44-20.826s-113.422,9.5-150.547,39.325c-37.329,11.873-71.484,21.729-102.259,38.375C327.984,217.4,308.013,232.57,293.5,252.232a116.67,116.67,0,0,0-16.258,30.087c-15.8,44-2.151,96.08,11.009,144.073,1.306,4.749,2.56,9.5,3.866,14.248,19.561,74.684,21.225,149.772-3.764,218.947-11.368,31.489-29.674,64.877-61.857,83.851-46.086,27.024-99.494,26.953-146.527,33.7-3.712.522-7.425,1.092-11.112,1.734-55.815,9.5-107.712,30.206-146.988,67.584-41.887,39.776-67.234,101.9-48.646,161.479" transform="translate(187.713 241.183)"/><path class="d" d="M1124.741-109.82a724.21,724.21,0,0,1-47.033,134.93c-8.91,19.306-18.818,38.541-33.156,54.855-36.613,41.557-94.066,56.66-147.039,63.214q-18.9,2.375-37.944,3.586a678.284,678.284,0,0,1-109.581-1.923c-48.646-4.749-96.934-14.794-148.985-15.887S491.4,138.621,454.169,166.025c-39.736,11.137-76.656,19.662-110.35,35.62-23.043,10.9-45.19,26.122-61.448,46.069a119.634,119.634,0,0,0-18.485,31.013c-18.281,45.713-4.788,100.4,8.065,150.722q1.92,7.48,3.738,14.984c19,78.365,18.793,157.086-9.985,228.8-12.059,30.016-30.186,62.027-61.448,80.74-44.37,26.6-95.679,28.5-140.459,37.069-3.508.689-7.041,1.4-10.548,2.185C.225,804.938-48.063,827.45-83.7,865.136c-38,40.109-59.63,100.5-40.171,157.609" transform="translate(190.542 233.993)"/><path class="d" d="M1106.2-115a670.058,670.058,0,0,1-46.086,130.608c-8.756,18.665-18.537,37.212-32.388,53.1-35.281,40.37-89.841,56.779-140.817,64.972q-18.127,2.968-36.459,4.749a654.719,654.719,0,0,1-105.92,2.114c-47.033-2.873-94.143-10.8-144.607-11.019s-105.818,9.9-142.891,34.789c-42.117,10.4-81.8,17.525-118.44,32.937-25.065,10.472-49.337,25.48-67.464,45.974a122.806,122.806,0,0,0-20.687,31.94c-20.815,47.351-7.348,104.653,5.121,157.3q1.869,7.789,3.636,15.673c18.409,82.046,16.565,164.5-16.232,238.633-12.674,28.615-30.724,59.225-60.807,77.558C139.4,790.449,90.341,794.343,47.814,804.7c-3.354.831-6.682,1.686-10.011,2.612-50.259,13.868-94.911,38.256-126.915,76.228-34.1,40.37-52.026,99.1-31.543,153.857" transform="translate(193.392 226.872)"/><path class="d" d="M1087.856-120.28A622.916,622.916,0,0,1,1042.9,6.244c-8.654,18-18.281,35.905-31.62,51.341C977.3,96.91,925.634,114.578,876.886,124.338q-17.41,3.515-35.025,6.032a631.435,631.435,0,0,1-102.182,6.056c-45.574-.974-91.352-6.839-140.228-6.15S500.724,146.9,460.092,162.832c-42.092,16.623-87.051,15.53-126.556,30.23-27.088,10.021-53.511,24.934-73.43,45.855a126.605,126.605,0,0,0-23.043,32.866c-23.324,49.014-9.934,108.927,2.33,163.854q1.792,8.169,3.533,16.385c17.922,85.75,14.568,172.023-22.48,248.465-13.109,27.238-31.313,56.375-60.167,74.4C119.109,800.58,72.307,806.517,32.033,818.7c-3.175.95-6.324,1.971-9.473,3.039-47.468,16.053-88.51,42.27-116.878,80.55-30.212,40.75-44.447,97.7-23.043,150.1" transform="translate(196.064 219.614)"/><path class="d" d="M1069.712-125.5A577.852,577.852,0,0,1,1025.751-3.2c-8.526,17.383-17.922,34.6-30.724,49.607-32.67,38.233-81.444,56.993-128.016,68.51q-16.616,4.132-33.54,7.267a609.413,609.413,0,0,1-98.674,9.974c-44.063.926-88.561-2.85-135.85-1.282s-95.679,16.267-135.7,30.277C418.445,176.87,371.079,174.638,328.6,188.7c-29.034,9.475-57.71,24.317-79.344,45.57a130.5,130.5,0,0,0-25.117,33.792c-25.859,50.747-12.571,113.3-.589,170.6q1.767,8.478,3.431,17.074c17.231,89.431,12.8,179.693-28.727,258.32-13.7,25.956-32.03,53.6-59.758,71.241-39.557,25.314-84.106,33.151-122.127,47.233-3,1.116-5.966,2.375-8.935,3.491-44.7,18.214-82.109,46.283-106.816,84.872-26.346,41.082-36.869,96.294-14.338,146.353" transform="translate(198.538 212.438)"/><path class="d" d="M1051.839-130.73a533,533,0,0,1-42.962,118.094c-8.372,16.623-17.717,33.246-30.033,47.874C947.481,72.33,901.6,92.23,857.076,105.5q-15.9,4.749-32.106,8.478a590.035,590.035,0,0,1-94.732,13.963c-42.578,2.8-85.745,1.116-131.447,3.586s-92.632,15.91-131.907,28c-47.622,14.509-97.343,11.3-142.814,24.7-31.108,9.143-61.832,23.984-85.361,45.642a134.551,134.551,0,0,0-27.344,34.718c-28.368,52.243-15.157,117.5-3.508,177.152q1.741,8.834,3.354,17.739c16.668,93.065,11.393,187.577-34.974,268.175-14.159,24.673-32.618,50.795-59.22,68.177C79.074,820.646,36.752,830.382.984,846.387c-2.816,1.259-5.633,2.565-8.4,3.918-41.938,20.4-75.734,50.3-96.78,89.194-22.454,41.415-29.264,94.988-5.709,142.6" transform="translate(200.741 205.248)"/><path class="d" d="M1034.288-136A492.45,492.45,0,0,1,992.35-22.014a247.655,247.655,0,0,1-29.136,46c-30.058,36-73.046,57.206-115.47,72.048q-15.131,5.319-30.724,9.713a574.586,574.586,0,0,1-91.045,17.881c-40.965,4.749-82.98,5.106-127.094,8.454s-89.611,15.507-128.17,25.742c-50.285,13.322-102.515,9.38-150.9,22.013-33.1,8.786-65.979,23.438-91.4,45.618a139.318,139.318,0,0,0-29.572,35.62c-30.8,54.119-17.692,121.8-6.273,183.778q1.69,9.19,3.252,18.451c16.079,96.817,10.241,195.628-41.2,278.006C140,764.771,121.331,789.3,95.881,806.375c-36.459,24.365-76.477,36-109.966,53.906-2.56,1.425-5.274,2.873-7.86,4.346-39.147,22.583-69.333,54.333-86.743,93.54-18.562,41.747-21.66,93.492,2.893,138.848" transform="translate(202.624 198.003)"/><path class="d" d="M1017.109-141.19A452.282,452.282,0,0,1,976.143-31.621a255.948,255.948,0,0,1-28.5,44.359c-28.676,34.884-68.77,57.325-109.069,73.806-9.6,3.942-19.356,7.6-29.188,10.947a555.035,555.035,0,0,1-87.358,21.823c-39.608,6.6-80.163,9.1-122.69,13.322s-86.36,15.008-124.457,23.462c-53.127,11.873-107.533,7.314-158.944,19.378-35.128,8.264-70.153,22.845-97.292,45.452a144.291,144.291,0,0,0-31.8,36.57c-33.284,55.663-20.483,126.073-9.294,190.38q1.664,9.5,3.124,19.14c15.516,100.5,9.217,203.939-47.417,287.861-15.055,22.275-33.873,45.119-58.2,61.908-34.743,23.937-72.585,37.639-103.821,57.3-2.56,1.543-4.916,3.158-7.322,4.749-36.112,24.254-62.968,58.536-76.681,97.885-14.7,42.032-14.082,92.067,11.5,135.073" transform="translate(204.109 190.869)"/><path class="d" d="M1000.392-146.42A413.575,413.575,0,0,1,960.476-41.078a268.434,268.434,0,0,1-27.7,42.745C905.353,35.458,868.151,59.11,829.951,77.253c-9.089,4.346-18.357,8.383-27.728,12.158a539.134,539.134,0,0,1-83.62,25.765c-38.123,8.5-77.373,13.061-118.338,18.19s-83.108,14.438-120.693,21.206c-55.892,10.069-112.807,5.272-167.061,16.623-37.15,7.765-74.326,22.251-103.257,45.285a149.469,149.469,0,0,0-34.027,37.473c-35.844,57.325-23.043,130.347-12.187,196.981,1.05,6.578,2.074,13.2,3.021,19.853,14.927,104.178,8.551,212.535-53.767,297.692-15.362,21.159-34.487,42.341-57.684,58.8-33.028,23.486-68.616,39.135-97.574,60.674q-3.405,2.517-6.759,5.2c-33.285,26.642-56.594,62.4-66.568,102.112-10.8,42.365-6.478,90.666,20.1,131.321" transform="translate(205.157 183.679)"/><path class="d" d="M984.47-151.65A379.3,379.3,0,0,1,945.578-50.512,293.453,293.453,0,0,1,918.644-9.619c-26.115,32.652-60.423,57.539-96.5,77.344-8.6,4.749-17.385,9.19-26.269,13.37a522.865,522.865,0,0,1-79.933,29.731C679.331,121.2,641.362,127.852,602.01,133.86s-79.779,13.821-116.981,19c-58.606,8.121-117.954,3.158-175.177,13.916-39.147,7.362-78.474,21.776-109.223,45.119A154.269,154.269,0,0,0,164.4,250.41C126,309.4,138.8,385.056,149.295,454.017c1.05,6.792,2.023,13.654,2.944,20.541,14.338,107.859,8.167,221.417-59.911,307.523a296.7,296.7,0,0,1-57.146,55.687C3.664,860.8-29.7,878.447-56.452,901.885c-2.1,1.852-4.173,3.728-6.222,5.652-30.555,29.055-50.376,66.355-56.609,106.529-6.913,42.744,1.127,89.265,28.727,127.569" transform="translate(205.409 176.489)"/><path class="d" d="M969.245-156.88a346.434,346.434,0,0,1-37.893,96.935A320.053,320.053,0,0,1,905.212-20.81c-24.809,31.56-56.327,57.634-90.2,79.1-8.091,5.129-16.386,10-24.809,14.6a506.443,506.443,0,0,1-76.195,33.673,726.622,726.622,0,0,1-109.581,27.9c-37.56,6.839-76.3,13.156-113.243,16.623-61.243,5.865-123.1,1.14-183.267,11.256-41.17,6.91-82.621,21.23-115.214,45.119a159.878,159.878,0,0,0-38.328,39.42c-40.965,60.626-28.163,138.9-17.922,210.185,1,7.124,1.971,14.248,2.842,21.372,13.749,111.611,8.039,230.631-66.159,317.378A359.045,359.045,0,0,1,16.5,848.354c-29.9,22.583-61.012,42.2-85.515,67.418-1.92,1.995-3.815,4.013-5.684,6.079-27.781,31.407-44.145,70.156-46.751,110.708-3.021,43.03,8.731,87.864,37.355,123.817" transform="translate(204.965 169.3)"/><path class="d" d="M954.873-162.11C934.749-69.639,869.487,11.647,785.534,64.7s-185.776,79.315-287.319,84.824c-63.8,3.443-128.272-.926-191.358,8.525s-127.12,35.62-161.838,85.3c-43.525,62.288-30.724,143.194-20.892,216.81,16.258,121.11,16.028,256.468-69.666,349.081C11.781,855.353-48.591,886.2-86.2,935.951c-52.128,68.985-48.083,170.029,9.422,235.237" transform="translate(203.642 162.11)"/></g><g transform="translate(230.274 699.015)"><path class="d" d="M89.94,692.551A1610.853,1610.853,0,0,1,218.98,546.269c20.482-20.588,42.168-41.082,69.333-53.359,69.461-31.322,152.518-.9,217.934,37.164A889.6,889.6,0,0,1,671.9,654.1c49.209,46.829,93.375,99.737,153,134.6s141.457,47.8,199.064,10.116c34.283-22.417,54.919-59.629,62.728-97.838s3.968-77.676-2.714-116.075c-7.681-43.979-18.87-89.835-3.917-132.152,15.516-43.813,60.347-77.368,109.786-82.165,70.332-6.839,132.163,38.589,191.46,74.352,75.3,45.452,162.811,79.291,252.5,74.494s180.348-55.663,207.257-135.168" transform="translate(-89.94 -190.516)"/><path class="d" d="M93.57,707.479A1484.933,1484.933,0,0,1,220.818,564.071c20.278-20.089,41.707-40.061,68.411-52.124,53.639-24.222,115.393-11.873,170.747,11.873A479.034,479.034,0,0,1,503.5,545.359,871.153,871.153,0,0,1,667.8,663.5c49.03,44.81,92.965,95.962,151.955,129.468,33.079,18.832,72.278,31.726,110.887,34.053,33.617,1.995,66.978-4.2,94.86-21.895a132.108,132.108,0,0,0,14.159-10.354c27.37-23.058,43.986-56.209,51.206-90.239a240.476,240.476,0,0,0,4.634-32.676c2.048-28.805-.359-57.943-3.917-86.439-5.607-45.119-13.083-91.45,3.789-133.672s59.707-74.565,107.969-79.457c68.693-7.005,129.27,35.81,187.236,69.056,4.583,2.636,9.192,5.2,13.851,7.742,70.358,38.161,149.984,64.663,230.889,58.584,86.257-6.483,172.744-56.993,197.733-134.812" transform="translate(-84.276 -188.275)"/><path class="d" d="M97.2,729.1A1379.294,1379.294,0,0,1,222.656,588.593c20.073-19.615,41.272-39.04,67.49-50.913,52.691-23.747,113.191-12.728,167.675,9.5q22.03,9.054,42.962,20.185A852.64,852.64,0,0,1,663.669,679.639c48.8,42.745,92.607,92.21,151.059,124.553,34.334,19,74.556,32.486,114.344,35.383,34.564,2.375,69.129-3.348,98.086-21.158a128.383,128.383,0,0,0,14.7-10.52c28.522-23.486,45.548-57.634,53.382-92.613a259.985,259.985,0,0,0,5.121-33.887c2.56-29.589,1.177-59.557-1.127-88.743-3.533-46.4-7.3-93.017,11.5-135.215,17.922-40.061,59.118-71.74,106.2-76.75,67-7.124,126.351,33.008,183.011,63.761q6.682,3.562,13.519,7.124c68.693,35.169,145.759,58.655,223.439,50.985,82.8-8.145,165.14-58.512,188.209-134.408" transform="translate(-78.612 -192.921)"/><path class="d" d="M100.82,751.461A1282.139,1282.139,0,0,1,224.534,613.728c19.817-19.116,40.786-38,66.568-49.679,51.693-23.438,110.964-13.536,164.577,7.124q21.734,8.541,42.45,19.093a833.808,833.808,0,0,1,161.5,106.363c48.646,40.892,92.3,88.41,149.958,119.566,35.614,19.235,76.81,33.246,117.775,36.713,35.537,2.969,71.356-2.517,101.312-20.446A130.748,130.748,0,0,0,1044.04,821.8c29.648-23.937,47.084-59.106,55.482-95.178a286.5,286.5,0,0,0,5.735-34.837c3.175-30.4,2.688-61.2,1.639-91.07-1.485-47.613-1.613-94.513,19.2-136.735,18.818-38.209,58.529-68.866,104.435-74.067,65.339-7.338,123.433,30.23,178.761,58.465q6.554,3.349,13.211,6.554c67.055,32.177,141.534,52.671,215.963,43.41,79.37-9.855,157.562-59.961,178.735-134.052" transform="translate(-72.964 -198.227)"/><path class="d" d="M104.45,773.9A1188.413,1188.413,0,0,1,226.372,639.18c19.612-18.641,40.351-37,65.647-48.468,50.745-23.035,108.788-14.248,161.5,4.868q21.369,7.792,41.81,17.549A815.627,815.627,0,0,1,655.43,713.6c48.39,38.9,91.992,84.563,148.934,114.532,36.894,19.425,79.139,34.006,121.256,38,36.459,3.467,73.532-1.638,104.538-19.71a135.693,135.693,0,0,0,15.848-10.8c30.724-24.388,48.646-60.579,57.581-97.719a314.506,314.506,0,0,0,6.324-35.763c3.738-31.18,4.2-62.835,4.429-93.421.563-48.8,3.994-95.962,26.883-138.255,19.689-36.333,57.914-66.112,102.643-71.36,63.675-7.48,120.514,27.452,174.562,53.17,4.25,2.042,8.552,4.013,12.8,5.96,65.39,29.185,137.31,46.663,208.512,35.81,75.888-11.541,149.983-61.362,169.211-133.648" transform="translate(-67.3 -203.589)"/><path class="d" d="M108.08,796.291A1104.246,1104.246,0,0,1,228.21,664.447c19.382-18.143,39.864-35.953,64.7-47.233,49.8-22.631,106.586-15.15,158.432,2.493,14.184,4.749,28.01,10.354,41.221,16.243A796.721,796.721,0,0,1,651.3,730.511c48.185,36.95,91.736,80.74,147.935,109.545,38.174,19.591,81.392,34.742,124.713,39.372,37.406,3.942,75.708-.807,107.738-19a140.763,140.763,0,0,0,16.437-10.947c31.927-24.816,50.182-62.027,59.681-100.236a334.577,334.577,0,0,0,6.887-36.737c4.327-31.963,5.658-64.449,7.22-95.724,2.56-50.035,9.525-97.363,34.615-139.775,20.483-34.5,57.3-63.31,100.851-68.676,61.985-7.647,117.6,24.673,170.312,47.874,4.173,1.828,8.347,3.633,12.571,5.367,63.726,26.122,133.136,40.679,201.036,28.235,72.457-13.251,142.4-62.811,159.712-133.292" transform="translate(-61.636 -208.909)"/><path class="d" d="M111.71,818.712a1025.244,1025.244,0,0,1,118.364-128.97C249.25,672.1,269.5,654.81,293.851,643.72c48.825-22.227,104.384-15.934,155.36.166,13.954,4.369,27.575,9.5,40.632,14.889A779.573,779.573,0,0,1,647.2,747.471c47.955,34.956,91.454,76.774,146.911,104.487,39.48,19.757,83.671,35.62,128.169,40.7,38.4,4.441,77.885,0,110.939-18.261a138.688,138.688,0,0,0,17-11.09c33.079-25.267,51.744-63.5,61.806-102.753a375.727,375.727,0,0,0,7.476-37.686c4.89-32.771,7.143-66.088,10.011-98.075,4.557-51.222,14.952-98.811,42.3-141.294,21.1-32.629,56.685-60.46,99.059-65.874,60.346-7.813,114.7,21.895,166.113,42.6,4.045,1.615,8.142,3.206,12.238,4.749,62.088,23.177,128.861,34.671,193.585,20.636,69-14.913,134.8-64.117,150.214-132.983" transform="translate(-55.972 -214.256)"/><path class="d" d="M115.34,841.1A953.53,953.53,0,0,1,231.911,715.047c18.946-17.169,38.968-33.911,62.856-44.81,47.878-21.824,102.208-16.765,152.288-2.209,13.723,3.942,27.165,8.6,40.069,13.583a763.74,763.74,0,0,1,155.949,82.782c47.75,32.985,91.224,72.856,145.938,99.524,40.811,19.9,85.975,36.238,131.651,42.032,39.275,4.916,80.061.879,114.164-17.549a140.007,140.007,0,0,0,17.564-11.256c34.231-25.694,53.28-64.924,64.008-105.27,3.354-12.823,5.94-25.789,8.014-38.636,5.479-33.555,8.679-67.7,12.8-100.378,6.606-52.457,20.3-100.26,50-142.838,21.558-30.871,56.1-57.658,97.292-63.262,58.657-7.979,111.758,19,161.889,37.306q5.914,2.137,11.906,4.156c60.423,20.185,124.636,28.686,186.135,13.061,65.544-16.623,127.2-65.66,140.817-132.532" transform="translate(-50.308 -219.59)"/><path class="d" d="M119,863.5A887.913,887.913,0,0,1,233.83,740.329c18.716-16.623,38.4-32.889,61.908-43.576,46.931-21.372,99.852-17.478,149.19-4.56,13.518,3.538,26.755,7.718,39.506,12.253A745.069,745.069,0,0,1,639,781.339c47.545,31.014,91.019,68.866,144.888,94.489,42.117,20.042,88.254,37,135.082,43.362,40.248,5.414,82.263,1.733,117.391-16.837a137.888,137.888,0,0,0,18.153-11.375c35.358-26.122,54.842-66.492,66.031-107.788,3.533-13.156,6.3-26.454,8.6-39.586,6.042-34.362,10.241-69.318,15.567-102.73,8.68-53.644,25.6-101.685,57.71-144.334,21.968-29.138,55.482-54.856,95.525-60.579,56.993-8.145,108.839,16.338,157.639,32.011,3.84,1.235,7.681,2.375,11.6,3.562,58.887,17.169,120.335,22.678,178.659,5.462,62.113-18.309,119.618-67.061,131.191-132.128" transform="translate(-44.597 -224.924)"/><path class="d" d="M122.59,885.885A827.969,827.969,0,0,1,235.628,765.606c18.588-16.171,38.046-31.868,60.987-42.293,45.958-21.016,97.778-18.285,146.117-6.934,13.288,3.135,26.346,6.839,38.942,10.947a728.292,728.292,0,0,1,153.158,71c47.34,29.019,90.84,64.877,143.864,89.479,43.525,20.138,90.558,37.758,138.564,44.692,41.2,5.889,84.49,2.588,120.616-16.124a144.239,144.239,0,0,0,18.716-11.517c36.51-26.6,56.327-67.869,68.13-110.3,3.713-13.488,6.657-27.1,9.192-40.536,6.606-35.169,11.7-70.956,18.358-105.057,10.7-54.879,30.724-103.157,65.416-145.878,22.275-27.428,54.868-52.03,93.707-57.871,55.328-8.311,105.946,13.56,153.44,26.715,3.738,1.021,7.5,2.018,11.266,2.968,57.12,14.248,116.187,16.623,171.208-2.114,58.657-19.995,112.039-68.51,121.692-131.772" transform="translate(-38.996 -230.23)"/><path class="d" d="M126.22,908.43a768.818,768.818,0,0,1,111.271-117.4c18.255-15.7,37.56-30.871,60.039-41.13,45.01-20.636,95.577-19,143.045-9.285,13.083,2.707,25.91,5.96,38.4,9.5a712.93,712.93,0,0,1,151.8,65.114c47.11,27.048,90.635,60.887,142.84,84.468,44.806,20.256,92.811,38.518,142.021,46.022,42.143,6.388,86.615,3.443,123.817-15.388a145.569,145.569,0,0,0,19.279-11.66c37.662-27.024,57.94-69.318,70.255-112.846,3.892-13.8,7.015-27.737,9.755-41.486,7.194-35.929,13.237-72.571,21.148-107.384,12.8-56.091,35.844-104.677,73.123-147.374,22.531-25.765,54.279-49.228,91.941-55.188,53.766-8.478,103,10.781,149.19,21.372,3.661.831,7.3,1.615,10.984,2.375,55.431,11.185,111.937,10.686,163.732-9.712,55.175-21.681,104.435-69.911,112.167-131.392" transform="translate(-33.332 -235.701)"/><path class="d" d="M129.85,930.732A716.856,716.856,0,0,1,239.329,816.247c17.922-15.222,37.125-29.826,59.118-39.919,44.063-20.232,93.4-19.9,139.972-11.636,12.8,2.375,25.6,5.082,37.765,8.264A697.755,697.755,0,0,1,626.6,832.182c46.9,25.077,90.456,56.826,141.841,79.457,46.086,20.327,95.09,39.254,145.477,47.351,43.065,6.863,88.792,4.274,127.017-14.675a147.857,147.857,0,0,0,19.868-11.873c38.789-27.428,59.476-70.719,72.354-115.292,4.071-14.248,7.374-28.5,10.241-42.436,7.681-36.737,14.747-74.209,23.939-109.711,14.824-57.3,40.683-106.268,80.8-148.917,22.71-24.127,53.767-46.4,90.149-52.457,52-8.644,100.108,7.979,144.99,16.1,3.533.641,7.092,1.235,10.651,1.781,53.767,8.193,107.713,4.749,156.179-17.288,51.744-23.391,96.857-71.36,102.669-131.012" transform="translate(-27.668 -240.953)"/><path class="d" d="M133.48,953.065A667.617,667.617,0,0,1,241.167,841.454c17.922-14.723,36.664-28.781,58.221-38.707,43.064-19.805,91.173-20.684,136.874-13.987,12.622,1.852,25.065,4.227,37.2,6.958a681.046,681.046,0,0,1,149.01,53.312c46.7,23.106,90.3,52.79,140.817,74.447,47.545,20.375,97.292,40.014,148.933,48.681,44.037,7.361,90.994,5.129,130.269-13.94a148.013,148.013,0,0,0,20.483-11.873c39.941-27.9,61.038-72.214,74.454-117.88,4.225-14.438,7.681-29.019,10.933-43.386,8.321-37.52,16.335-75.8,26.7-112.015,17-58.489,45.548-107.954,88.51-150.461,22.838-22.56,53.075-43.6,88.382-49.75,50.336-8.81,97.292,5.177,140.818,10.8,3.456.427,6.887.831,10.241,1.187,52.128,5.177,103.462-1.306,148.806-24.887,48.287-25.077,89.252-72.761,93.17-130.608" transform="translate(-22.004 -246.259)"/><path class="d" d="M137.11,975.561A620.234,620.234,0,0,1,243.03,866.847c17.615-14.248,36.2-27.784,57.274-37.5,42.117-19.425,89-21.372,133.8-16.338,12.392,1.425,24.656,3.324,36.612,5.628a665.6,665.6,0,0,1,147.628,47.494c46.5,21.111,90.174,48.681,139.819,69.436,48.9,20.4,99.673,40.75,152.39,50.011,44.985,7.837,93.17,5.961,133.469-13.227a150.317,150.317,0,0,0,21.02-12.111c40.965-28.354,62.574-73.616,76.553-120.4,4.4-14.771,8.091-29.684,11.5-44.336,8.91-38.328,17.922-77.439,29.495-114.365,19.074-59.7,50.285-109.735,96.217-151.981,23.043-21.04,52.461-40.8,86.615-47.067,48.646-8.976,94.271,2.375,136.516,5.509,3.328.237,6.657.427,10.011.594,50.49,2.185,99.238-7.29,141.33-32.462,44.857-26.858,81.674-74.352,83.748-130.3" transform="translate(-16.34 -251.634)"/><path class="d" d="M140.73,997.955a578.713,578.713,0,0,1,104.154-105.84c17.384-13.726,35.844-26.739,56.327-36.262,41.17-19,86.795-22.3,130.73-18.713,12.187,1,24.221,2.375,36.049,4.3A653.411,653.411,0,0,1,614.235,883.02c46.291,19.164,90.021,44.6,138.82,64.426,50.285,20.422,101.952,41.51,155.846,51.341,45.906,8.335,95.346,6.815,136.7-12.491a153.118,153.118,0,0,0,21.558-12.253c42.22-28.805,64.136-75.159,78.678-122.914,4.583-15.1,8.449-30.349,12.085-45.309,9.473-39.111,19.382-79.054,32.286-116.669,21.123-60.911,54.919-111.611,103.923-153.5,22.915-19.568,51.846-38,84.8-44.359,47.007-9.143,91.352-.38,132.317.214h9.678c48.825-.807,95.013-13.3,133.879-40.061,41.4-28.5,74.1-75.61,74.249-129.872" transform="translate(-10.692 -256.954)"/><path class="d" d="M144.36,1020.449A538.118,538.118,0,0,1,246.773,917.53a293.385,293.385,0,0,1,55.405-35.05c40.2-18.618,84.49-23.13,127.657-21.064,11.957.57,23.811,1.591,35.46,2.968A639.287,639.287,0,0,1,610.158,900c46.086,17.169,89.867,40.37,137.77,59.368,51.693,20.422,104.23,42.293,159.328,52.695,46.854,8.786,97.522,7.67,139.9-11.873a155.638,155.638,0,0,0,22.147-12.4c43.371-29.256,65.672-76.608,80.778-125.455,4.762-15.412,8.807-30.871,12.648-46.235,10.036-39.919,20.892-80.74,35.076-119.02,23.171-62.1,59.451-113.7,111.63-155,23.043-18.167,51.206-35.169,83.031-41.676,45.318-9.309,88.433-3.158,128.016-5.082,3.124-.142,6.247-.356,9.371-.594,47.161-3.8,90.789-19.283,126.428-47.636,37.944-30.159,66.568-77.059,64.648-129.492" transform="translate(-5.028 -262.398)"/><path class="d" d="M148,1042.789A501.662,501.662,0,0,1,248.595,942.743a304.2,304.2,0,0,1,54.483-33.816c39.25-18.214,82.416-23.937,124.585-23.438,11.726.166,23.4.736,34.871,1.662a625.536,625.536,0,0,1,143.378,29.731c45.855,15.2,89.739,36.356,136.772,54.4,53.1,20.375,106.509,43.029,162.759,54,47.827,9.285,99.724,8.525,143.122-11.043a159,159,0,0,0,22.736-12.538c44.5-29.612,67.311-78.08,82.9-127.973,4.941-15.744,9.192-31.631,13.237-47.185,10.6-40.7,22.4-82.307,37.867-121.347,25.219-63.333,63.88-115.933,119.311-156.54,23.043-16.789,50.643-32.344,81.239-38.969,43.679-9.5,85.54-5.937,123.868-10.377,3.021-.356,6.042-.76,9.038-1.187,45.523-6.815,86.564-25.291,118.952-55.236,34.513-31.821,58.887-78.365,55.149-129.112" transform="translate(0.652 -267.663)"/><path class="d" d="M151.62,1065.4a465.793,465.793,0,0,1,98.828-97.363,317.7,317.7,0,0,1,53.536-32.581c38.4-17.834,80.215-24.768,121.512-25.789q17.282-.427,34.308.333a612.176,612.176,0,0,1,142.072,23.747c45.65,13.227,89.611,32.2,135.7,49.37,54.535,20.3,108.813,43.789,166.241,55.354,48.774,9.76,101.9,9.357,146.348-10.33a160.475,160.475,0,0,0,23.3-12.7c45.651-30.111,68.77-79.5,84.977-130.49,5.121-16.053,9.55-32.272,13.826-48.135,11.163-41.486,23.913-83.922,40.632-123.674,27.293-64.521,68.232-118.355,127.017-158.036,23.043-15.483,50.054-29.541,79.37-36.285,41.989-9.641,82.6-8.715,119.618-15.673,2.919-.546,5.838-1.14,8.731-1.781,43.405-9.447,82.451-31.442,111.5-62.811,31.031-33.531,51.206-79.909,45.625-128.732" transform="translate(6.3 -273.107)"/><path class="d" d="M155.25,1087.581a433.892,433.892,0,0,1,97.036-94.252A334.247,334.247,0,0,1,304.9,961.936c37.329-17.406,78.038-25.623,118.44-28.117,11.291-.736,22.556-1.045,33.719-1.021a601.017,601.017,0,0,1,140.689,17.977C643.195,962.007,687.36,978.8,732.5,995.134c55.943,20.209,111.092,44.621,169.723,56.66,49.7,10.259,104.077,10.211,149.548-9.618a160.006,160.006,0,0,0,23.862-12.823c46.8-30.562,70.332-80.977,87.051-132.983,5.274-16.385,9.908-32.913,14.389-49.085,11.752-42.293,25.45-85.489,43.525-126,29.341-65.732,72.508-120.991,134.749-159.58a270.92,270.92,0,0,1,77.68-33.578c40.325-9.784,79.677-11.493,115.394-20.968,2.816-.736,5.607-1.543,8.4-2.375,41.852-12.637,78.285-37.3,104.026-70.41,27.6-35.217,43.73-81.31,36.126-128.352" transform="translate(11.964 -278.331)"/><path class="d" d="M158.87,1110.03a404.13,404.13,0,0,1,95.269-91.379,356.781,356.781,0,0,1,51.693-30.159A358.313,358.313,0,0,1,421.2,958c11.06-1.163,22.121-1.9,33.156-2.374A590.7,590.7,0,0,1,593.663,967.69c45.215,9.261,89.355,23.747,133.725,39.349,57.377,20.066,113.371,45.286,173.154,57.99,50.643,10.758,106.253,11.066,152.774-8.881a163.528,163.528,0,0,0,24.425-12.966c47.929-31.013,71.868-82.449,89.2-135.524,5.453-16.623,10.241-33.578,14.978-50.058,12.315-43.077,26.96-87.175,46.086-128.234,31.389-66.967,76.809-123.841,142.43-161.123a315.153,315.153,0,0,1,75.887-30.871c38.661-9.95,76.81-14.248,111.169-26.264,2.714-.95,5.428-1.923,8.091-2.968,40.338-15.857,74.2-43.19,96.7-78.056,24.144-36.927,36.126-82.758,26.628-127.973" transform="translate(17.612 -283.706)"/><path class="d" d="M162.5,1132.287a375.271,375.271,0,0,1,93.451-88.482c48.033-32.725,104.04-53.935,163.041-61.742,10.83-1.591,21.711-2.8,32.567-3.657a578.493,578.493,0,0,1,137.924,6.174c45.01,7.29,89.227,19.639,132.7,34.338,58.887,19.876,115.675,46.022,176.662,59.368,51.59,11.232,108.429,11.874,155.974-8.169a164.777,164.777,0,0,0,25.014-13.108c49.081-31.465,73.43-83.9,91.3-138.065,5.633-17.027,10.625-34.219,15.541-50.985,12.8-43.884,28.5-88.79,49-130.608,33.463-68.154,80.855-126.9,150.137-162.619a383.146,383.146,0,0,1,74.249-28.188c37-10.116,73.839-17.05,106.944-31.56,2.56-1.14,5.12-2.375,7.681-3.562,38.676-19.069,69.862-48.991,89.1-85.489,20.687-38.589,28.548-84.183,17.1-127.593" transform="translate(23.276 -288.889)"/><path class="d" d="M166.13,1154.832c57.069-78.08,151.059-129.682,250.757-148.537s204.287-6.649,300.222,24.626c60.3,19.663,117.928,46.805,180.067,60.65s132.061,12.8,184.8-20.684c65.979-41.913,88-121.11,109.53-192.517,35.409-117.5,92.171-242.433,209.613-297.146,58.58-27.238,127.12-34.077,182.525-66.492,76.81-44.977,115.214-139.632,89.227-220.372" transform="translate(28.94 -294.36)"/></g><g transform="translate(-676.512 -354.401)"><path class="d" d="M-264.23,36A1677.112,1677.112,0,0,1-108.87-86.321C-84.7-103.134-59.4-119.567-30.294-127.19c74.4-19.283,150.188,24.626,207.027,73A854.908,854.908,0,0,1,315.656,95.533c39.3,54.286,72.457,113.7,124.329,157.989s129.834,70.671,193.842,43.243c38.072-16.314,65.6-49.465,80.7-85.75s19.023-75.729,19.919-114.627c1.024-44.526-1.1-91.521,21.84-130.608,23.76-40.37,74.4-65.993,123.945-62.455C950.767-91.617,1002.742-36.595,1054.1,8.5c65.237,57.254,144.735,105.175,233.808,115.482s188.209-24.6,230.121-98.313" transform="translate(264.23 173.164)"/><path class="d" d="M-262,41.651A1553.648,1553.648,0,0,1-108.944-78.106c23.836-16.385,48.825-32.415,77.424-39.824,57.479-14.866,115.8,7.575,165.627,40.37a464.693,464.693,0,0,1,38.635,28.5,836.264,836.264,0,0,1,138.769,143.6c39.429,52.291,72.713,109.949,124.226,152.859,28.88,24.079,64.9,43.314,102.413,52.053,32.67,7.6,66.7,7.124,97.574-5.652a137.216,137.216,0,0,0,15.925-7.837c31.415-18.1,54.151-47.921,67.976-80.1a243.308,243.308,0,0,0,10.907-31.631c7.681-27.974,10.907-56.993,12.93-85.655,3.277-45.38,4.941-92.138,29.725-130.846s73.251-63.357,121.666-60.1c68.924,4.607,120.181,56.85,170.748,99.262,3.968,3.325,8.014,6.649,12.11,9.9,61.78,49.322,135.031,88.695,215.706,96.247,86.1,8.074,181.014-27.262,220.7-99.5" transform="translate(267.71 185.846)"/><path class="d" d="M-259.69,47.344A1434.684,1434.684,0,0,1-108.939-69.872c23.529-15.934,48.159-31.512,76.272-38.779C23.788-123.279,81.139-102.239,130.374-71.2a467.243,467.243,0,0,1,38.4,27.072A819.015,819.015,0,0,1,307.164,93.6c39.608,50.249,73.1,106.125,124.2,147.777,30.16,24.412,67.029,44.359,105.587,53.858,33.515,8.24,68.668,8.264,100.595-4.417a136.245,136.245,0,0,0,16.514-7.86c32.618-18.356,55.994-49.109,70.511-82.236a261.455,261.455,0,0,0,11.649-32.462c8.347-28.663,12.8-58.394,16.156-87.484,5.53-46.212,10.907-92.613,37.585-131.06,25.347-36.428,72.1-60.674,119.387-57.753,67.311,4.179,117.774,53.621,167.6,93.349q5.914,4.749,11.931,9.261c60.731,46.117,131.959,82.093,209.946,87.555,83.031,5.818,173.82-29.945,211.277-100.735" transform="translate(271.314 198.509)"/><path class="d" d="M-257.41,58.592a1331.965,1331.965,0,0,1,148.5-114.674C-85.69-71.565-61.392-86.644-33.792-93.816c55.431-14.391,111.809,5.272,160.481,34.647a457.922,457.922,0,0,1,38.021,25.647A802.588,802.588,0,0,1,302.966,98.107c39.787,48.349,73.43,102.444,124.073,142.719,31.287,24.863,69.128,45.547,108.737,55.805,34.359,8.881,70.665,9.5,103.616-3.158a135.951,135.951,0,0,0,17.1-7.932c33.822-18.57,57.812-50.249,73.1-84.349a293.286,293.286,0,0,0,12.392-33.246c9.038-29.351,14.543-59.747,19.33-89.312,7.809-47.067,16.8-93.231,45.471-131.273,25.936-34.457,71.074-58.061,117.16-55.426,65.7,3.728,115.521,50.391,164.475,87.413q5.786,4.369,11.726,8.644c59.681,42.863,128.963,75.492,203.98,78.84,79.958,3.562,166.651-32.628,201.855-101.97" transform="translate(274.871 205.569)"/><path class="d" d="M-255.14,72.893A1235.256,1235.256,0,0,1-109.022-39.24C-86.108-54.3-62.169-68.876-35.055-75.929c54.407-14.248,109.812,4.084,157.92,31.8,13.16,7.552,25.782,15.792,37.713,24.269a783.472,783.472,0,0,1,137.95,125.6C338.546,152.09,372.5,204.309,422.755,243.3c32.49,25.291,71.2,46.687,111.86,57.705,35.179,9.5,72.636,10.686,106.637-1.9a137.4,137.4,0,0,0,17.692-7.979c35.051-18.831,59.63-51.436,75.657-86.463a320.82,320.82,0,0,0,13.16-34.148c9.755-30.04,16.335-61.1,22.531-91.141,10.036-47.921,22.582-93.729,53.331-131.487,26.422-32.438,69.82-55.33,114.83-53.027,64.008,3.277,113.192,47.162,161.3,81.5,3.789,2.707,7.681,5.391,11.521,8,58.631,39.657,125.968,68.866,198.117,70.125,76.81,1.33,159.457-35.288,192.433-103.157" transform="translate(278.413 209.648)"/><path class="d" d="M-252.87,87.151A1148.809,1148.809,0,0,1-109.057-22.442c22.582-14.6,46.085-28.686,72.815-35.62,53.383-13.916,107.789,2.945,155.36,28.971,13.032,7.124,25.6,14.866,37.381,22.868A767.643,767.643,0,0,1,294.244,113.344c40.2,44.359,74.531,94.7,124.2,132.461,33.745,25.671,73.4,47.8,115.009,59.581,36.024,10.164,74.633,11.874,109.658-.665a140.741,140.741,0,0,0,18.306-8c36.228-19,61.448-52.623,78.192-88.6a354.618,354.618,0,0,0,13.928-34.979c10.472-30.729,18.076-62.455,25.6-92.969,12.264-48.729,28.394-94.2,61.32-131.7,26.781-30.491,68.668-52.671,112.654-50.676,62.472,2.85,110.862,43.956,158.227,75.61q5.607,3.728,11.317,7.362c57.607,36.4,122.9,62.265,192.254,61.41,73.84-.9,152.262-38,183.011-104.487" transform="translate(281.955 213.724)"/><path class="d" d="M-250.6,101.389A1068.856,1068.856,0,0,1-109.091-5.639C-86.817-19.887-63.518-33.4-37.4-40.238,14.956-53.94,68.39-38.481,115.4-14.116,128.2-7.491,140.693-.2,152.47,7.256A750.205,750.205,0,0,1,289.959,120.909C330.335,163.3,365,211.717,414.058,248.193c35.076,26.122,75.5,49.014,118.235,61.576,36.869,10.757,76.6,13.061,112.654.57a143.358,143.358,0,0,0,18.87-8.074c37.457-19.306,63.24-53.787,80.778-90.713,5.581-11.874,10.241-23.747,14.645-35.834,11.189-31.394,19.894-63.784,28.932-94.774,14.44-49.631,33.9-94.7,69.129-131.915,27.037-28.5,67.515-49.869,110.273-48.3,60.859,2.375,108.532,40.726,155.1,69.674,3.661,2.375,7.374,4.536,11.112,6.72,56.557,33.2,120.053,55.663,186.391,52.6,70.767-3.135,145.068-40.607,173.589-105.6" transform="translate(285.497 217.818)"/><path class="d" d="M-248.33,115.681a992.9,992.9,0,0,1,139.2-104.487C-87.158-2.532-64.218-15.664-38.615-22.36c51.36-13.465,103.8.594,150.214,23.3C124.4,7.11,136.665,13.925,148.391,21A733.011,733.011,0,0,1,285.675,128.5c40.555,40.37,75.58,86.914,124.15,122.273,36.28,26.407,77.5,50.035,121.308,63.381,37.714,11.4,78.6,14.248,115.726,1.828a143.467,143.467,0,0,0,19.458-8.121c38.661-19.544,65.032-54.974,83.338-92.851,5.812-12.063,10.856-24.388,15.362-36.665,11.957-32.082,21.865-65.138,32.106-96.6,16.693-50.486,39.454-95.2,76.963-132.1C901.328-77.145,940.5-97.71,982.132-96.332c59.246,1.971,106.2,37.5,151.981,63.761,3.584,2.066,7.246,4.108,10.907,6.079,55.508,29.969,117.006,49.085,180.528,44,67.695-5.391,137.9-43.291,164.167-106.861" transform="translate(289.039 221.882)"/><path class="d" d="M-246,135.323A923.187,923.187,0,0,1-109.254,33.377C-87.593,20.1-64.986,7.469-39.869.868,10.441-12.36,61.852.416,107.759,21.337,120.355,27.084,132.568,33.4,144.218,40A718.525,718.525,0,0,1,281.425,141.473c40.735,38.47,76.144,83.114,124.15,117.191,37.406,26.763,79.472,51.151,124.2,65.257,38.533,12.04,80.573,15.459,118.747,3.063a143.677,143.677,0,0,0,20.047-8.145c39.89-19.8,66.85-56.138,85.9-94.988,6.068-12.348,11.342-24.958,16.181-37.5,12.622-32.771,23.5-66.492,35.281-98.431,19.074-51.341,45.01-95.748,84.849-132.2,27.267-24.982,65.237-44.692,105.715-43.6,57.735,1.4,103.974,34.1,148.933,57.848,3.559,1.852,7.118,3.657,10.728,5.438,54.458,26.739,114.011,42.46,174.665,35.264,64.648-7.623,130.7-45.95,154.745-108.025" transform="translate(292.675 220.573)"/><path class="d" d="M-243.78,159.2A860,860,0,0,1-109.21,59.814C-87.857,46.991-65.685,34.833-40.978,28.35,8.309,15.36,58.747,26.735,104.09,45.97c12.469,5.3,24.553,11.137,36.152,17.264A703.023,703.023,0,0,1,277.09,158.7C318.055,195.172,353.9,237.7,401.215,270.783c38.84,27.072,81.7,52.243,127.58,67.133,39.378,12.681,82.57,16.623,121.768,4.322a145.449,145.449,0,0,0,20.636-8.145c40.965-20.066,68.668-57.325,88.484-97.125,6.273-12.633,11.8-25.528,16.924-38.328,13.339-33.46,25.3-67.845,38.4-100.26,21.2-52.243,50.259-96.341,92.709-132.532C934.963-57.4,971.729-76.161,1011.158-75.4c56.045,1.092,101.542,31.037,145.708,51.935,3.482,1.639,6.99,3.253,10.523,4.749C1220.8,4.793,1278.4,17.141,1336.19,7.856c61.448-9.879,123.51-48.634,145.3-109.236" transform="translate(296.138 215.033)"/><path class="d" d="M-241.51,183.065A802.611,802.611,0,0,1-109.244,86.2c21.02-12.372,42.962-24.032,67.08-30.42C6.1,43.029,55.538,53,100.343,70.6c12.315,4.749,24.323,10.187,35.844,15.839a690.12,690.12,0,0,1,136.644,89.431c40.965,34.5,77.3,75.04,124.073,106.98,40.146,27.428,83.825,53.407,130.73,69.033,40.223,13.322,84.49,17.858,124.79,5.581a150.411,150.411,0,0,0,21.251-8.264c42.3-20.28,70.46-58.489,91.019-99.239,6.5-12.918,12.315-26.122,17.666-39.159,14.056-34.148,27.139-69.175,41.682-102.112C847.52,55.662,879.575,11.706,924.611-24.057,951.8-45.619,987.569-63.405,1025.795-62.93c54.432.641,99.238,27.808,142.584,46,3.431,1.425,6.862,2.826,10.241,4.179C1231,7.527,1286.639,16.48,1341.558,5.081c58.5-12.087,116.315-51.293,135.876-110.471" transform="translate(299.68 209.52)"/><path class="d" d="M-239.24,206.814a746.63,746.63,0,0,1,129.962-94.3c20.713-11.873,42.3-23.106,65.928-29.375C3.887,70.6,52.354,79.2,96.571,95.013c12.187,4.369,24.093,9.261,35.537,14.462A674.031,674.031,0,0,1,268.547,193.04c41.247,32.438,77.936,70.956,124.047,101.8,41.477,27.713,85.924,54.618,133.879,70.909,40.965,13.963,86.539,19,127.811,6.815a153.2,153.2,0,0,0,21.84-8.288C719.649,343.739,748.4,304.6,769.7,262.9c6.759-13.2,12.8-26.668,18.434-39.99C802.911,188.053,817.069,152.385,833.02,119c25.731-53.882,60.705-97.719,108.429-132.983,27.037-19.947,61.832-36.665,98.879-36.523,52.845.19,96.934,24.6,139.486,40.085,3.354,1.235,6.734,2.375,10.113,3.538C1241.237,10.189,1295,15.793,1347,2.281c55.457-14.248,109.146-53.977,126.454-111.611" transform="translate(303.222 204.104)"/><path class="d" d="M-237,230.7a692.5,692.5,0,0,1,127.734-91.758c20.482-11.493,41.656-22.2,64.776-28.354C1.749,98.307,49.218,105.5,92.871,119.727c12.059,3.942,23.837,8.335,35.23,13.061A660.352,660.352,0,0,1,264.31,210.155c41.477,30.539,78.55,67.014,124.047,96.793,42.885,28,88,55.639,137.028,72.785,41.861,14.6,88.484,20.256,130.806,8.074a153.852,153.852,0,0,0,22.428-8.335c44.729-20.779,74.07-60.84,96.165-103.489,6.964-13.512,13.262-27.285,19.177-40.869,15.49-35.62,30.724-71.835,48.057-105.722,28.164-54.618,65.8-98.55,116.315-133.173,26.832-18.38,60.679-34.006,96.6-34.172,51.206-.237,94.6,21.372,136.362,34.2,3.277,1,6.605,1.971,9.908,2.873,50.285,13.844,102.054,16.053,151.212.427C1404.8-17.08,1454.37-57.093,1469.45-113.35" transform="translate(306.717 198.578)"/><path class="d" d="M-234.69,254.514A646.554,646.554,0,0,1-109.362,165.3c20.1-11.042,40.965-21.254,63.624-27.285,45.215-12.063,91.71-6.245,134.8,6.293,11.905,3.491,23.657,7.5,34.923,11.66a647.259,647.259,0,0,1,135.978,71.36c41.631,28.544,79.216,62.977,124.15,91.663,44.012,28.283,89.969,56.779,140.049,74.684,42.706,15.246,90.482,21.372,133.853,9.333a156.545,156.545,0,0,0,23.043-8.406c45.932-21.016,75.888-62,98.726-105.6,7.22-13.8,13.749-27.855,19.945-41.7,16.207-36.214,32.618-73.164,51.206-107.55C881.274,84.224,921.779,40.2,975.11,6.382c26.6-16.884,59.527-31.346,94.322-31.821C1119.051-26.128,1161.6-7.3,1202.568,2.82c3.252.784,6.478,1.544,9.729,2.256,49.235,10.591,99.059,9.5,145.349-8.288,49.312-18.831,94.732-59.367,107.533-114.128" transform="translate(310.322 193.093)"/><path class="d" d="M-232.42,278.389a602.154,602.154,0,0,1,122.9-86.653c19.765-10.615,40.35-20.327,62.471-26.122,44.191-11.874,89.611-7.433,132.24,3.467,11.777,3.016,23.35,6.459,34.59,10.259a634.106,634.106,0,0,1,135.7,65.3c42.015,26.383,80.061,58.726,124.2,86.391,45.5,28.5,92.171,57.9,143.378,76.56,43.525,15.887,92.453,22.678,136.874,10.591a161.381,161.381,0,0,0,23.606-8.454c47.135-21.372,77.68-63.191,101.286-107.74,7.425-14.082,14.21-28.5,20.662-42.531,16.872-36.9,34.385-74.518,54.407-109.307C892.634,93.709,935.621,49.468,991.948,16.507c26.346-15.436,58.375-28.686,92.171-29.47,48.006-1.116,89.944,14.937,130.09,22.346,3.175.594,6.35,1.14,9.524,1.615,48.185,7.385,96.063,2.826,139.486-16.979,46.239-21.087,87.563-62,98.188-115.339" transform="translate(313.864 187.622)"/><path class="d" d="M-230.15,302.187a561.2,561.2,0,0,1,120.719-84.136,303.865,303.865,0,0,1,61.447-25.2c43.167-11.589,87.716-8.573,129.654.641,11.649,2.565,23.043,5.533,34.308,8.858a623.162,623.162,0,0,1,135.543,59.368c41.861,24.554,80.419,54.761,123.842,81.381,46.879,28.663,94.322,59.035,146.476,78.531,44.37,16.623,94.45,23.747,139.9,11.873a159.428,159.428,0,0,0,24.2-8.478c48.339-21.515,79.37-64.378,103.846-109.877,7.681-14.248,14.7-29,21.43-43.362,17.641-37.758,36.254-75.99,57.633-111.373,34.9-57.206,80.6-101.9,139.947-133.79,26.09-14.011,57.249-26,89.765-27.1,46.393-1.567,87.614,11.684,126.966,16.409,3.1.38,6.221.712,9.345,1C1282,21.07,1327.9,13.162,1368.459-8.78c43.193-23.3,80.394-64.663,88.766-116.55" transform="translate(317.406 182.109)"/><path class="d" d="M-227.87,325.977a521.213,521.213,0,0,1,118.389-81.571,313.542,313.542,0,0,1,60.167-24.151C-7.171,208.9,36.406,210.5,77.78,218.047c11.521,2.113,22.864,4.749,34,7.457a610.811,610.811,0,0,1,135.313,53.265c42.168,22.607,81.213,50.747,123.97,76.37,48.262,28.924,96.4,60.08,149.6,80.36,45.215,17.122,96.421,25.053,142.917,13.061a161.385,161.385,0,0,0,24.784-8.549c49.568-21.729,81.316-65.518,106.407-111.991,7.911-14.652,15.183-29.565,22.2-44.193,18.357-38.28,38.046-77.225,60.833-113.036,37.125-58.061,85.387-103.347,147.807-134,25.808-12.681,56.1-23.343,87.486-24.744,44.78-1.995,85.284,8.478,123.842,10.52,3.047.166,6.094.261,9.14.332,46.086.926,90.046-10.377,127.734-34.409,40.12-25.552,73.2-67.346,79.37-117.785" transform="translate(320.963 176.651)"/><path class="d" d="M-225.6,349.929a485.313,485.313,0,0,1,116.085-79.054,329.558,329.558,0,0,1,58.887-23.106c41.119-11.114,83.722-10.924,124.534-5.034q17.052,2.493,33.668,6.079A598.724,598.724,0,0,1,242.81,296.023c42.348,20.636,81.93,46.663,123.945,71.241,49.67,29.09,98.5,61.243,152.748,82.236,46.086,17.763,98.419,26.264,145.938,14.248a164.987,164.987,0,0,0,25.373-8.6c50.771-21.99,83.133-66.705,108.992-114.128,8.142-14.937,15.644-30.135,23.043-45.119,19.049-38.945,39.839-78.531,64.008-114.84,39.4-58.893,90.123-104.985,155.693-134.218,25.6-11.375,54.944-20.66,85.207-22.37,43.192-2.375,82.954,5.224,120.719,4.583,2.97,0,5.94-.142,8.935-.309,44.526-2.026,87.2-17.128,121.871-43.125,37.048-27.784,66.005-70.006,69.922-119" transform="translate(324.505 171.056)"/><path class="d" d="M-223.33,373.623a451.7,451.7,0,0,1,113.781-76.489,343.8,343.8,0,0,1,57.863-22.061c40.12-10.9,81.725-12.182,121.973-7.86,11.24,1.164,22.377,2.755,33.284,4.749a589.614,589.614,0,0,1,134.98,41.106c42.5,18.641,82.57,42.531,123.893,66.159,51.206,29.233,100.62,62.383,155.9,84.136,46.879,18.4,100.39,27.452,148.959,15.554a166.431,166.431,0,0,0,25.987-8.62c51.974-22.251,84.9-67.893,111.527-116.36,8.372-15.222,16.13-30.729,23.709-45.879,19.766-39.634,41.656-79.885,67.208-116.669,41.631-59.747,94.732-106.861,163.553-134.432a277.62,277.62,0,0,1,82.877-19.924c41.58-2.9,80.624,2.018,117.57-1.33q4.378-.38,8.756-.926c43.613-5.449,84.234-23.6,116.008-51.84,33.975-30.04,58.887-72.69,60.474-120.207" transform="translate(328.047 165.695)"/><path class="d" d="M-221.06,397.385a420.245,420.245,0,0,1,111.476-73.924,365.706,365.706,0,0,1,56.711-21.016c39.1-10.662,79.728-13.346,119.387-10.71,11.112.712,22.147,1.829,33.079,3.253a582.341,582.341,0,0,1,134.673,35.169c42.68,16.694,83.261,38.4,123.868,61.077,52.563,29.328,102.72,63.5,159.047,86.012,47.724,19,102.413,28.663,152.006,16.813a170.579,170.579,0,0,0,26.5-8.668c53.178-22.488,86.718-69.08,114.088-118.4,8.628-15.507,16.617-31.3,24.451-46.71,20.483-40.37,43.525-81.238,70.409-118.5,43.909-60.6,99.52-108.975,171.541-134.622a321.488,321.488,0,0,1,80.65-17.691c39.966-3.325,78.294-1.187,114.446-7.124,2.868-.475,5.71-1.021,8.551-1.591,42.679-8.877,81.225-30.078,110.093-60.555,30.929-32.272,51.616-75.349,51.053-121.418" transform="translate(331.589 160.265)"/><path class="d" d="M-218.78,421.282a390.255,390.255,0,0,1,109.146-71.407A395.636,395.636,0,0,1-54.075,329.9,405.957,405.957,0,0,1,62.752,316.368c10.984.261,21.891.9,32.746,1.852a575.156,575.156,0,0,1,134.468,29.137c42.86,14.723,83.953,34.267,123.868,56,54.1,29.4,104.794,64.663,162.17,87.888,48.646,19.686,104.358,29.85,155.027,18.071a170.208,170.208,0,0,0,27.139-8.739c54.381-22.726,88.536-70.22,116.674-120.516,8.833-15.792,17.077-31.868,25.193-47.494,21.225-41.011,45.292-82.592,73.609-120.326,46.086-61.433,104.179-111.3,179.222-134.835a390.558,390.558,0,0,1,78.448-15.459c38.4-3.776,75.965-4.441,111.323-13.156,2.791-.689,5.581-1.425,8.347-2.232C1332.749,34.3,1369.254,10.09,1395.268-22.6c27.856-34.5,44.447-78.033,41.631-122.653" transform="translate(335.146 154.725)"/><path class="d" d="M-216.51,445c71.3-67.156,173.845-102.112,275.515-104.036s202.265,27.594,290.519,74.423c55.482,29.446,106.893,65.755,165.32,89.787s127.4,34.671,185.776,10.544c73.071-30.182,110.094-104.368,145.2-170.978,57.684-109.711,137.668-223.1,263.943-257.251,62.907-17,131.651-12.253,192.459-34.884,84.311-31.394,140.408-118.07,130.576-201.849" transform="translate(338.688 149.24)"/></g><g transform="translate(-109.37 -179.765)"><path class="d" d="M-41.8,1317.536c-10.753-80.74,75.171-148.965,161.837-161.48S293.65,1169.4,379.548,1186s182.5,22.061,254.239-24.768c91.71-59.866,112.91-185.8,207.385-242.029,73.532-43.813,169.262-30.7,244.587,1.9,42.6,18.428,78.832,49.441,119.541,71.051,184.675,97.956,197.144,298.167,354.015,328.017,169.749,32.367,261.92-44.454,293.975-97.624,40.965-68.225,109.556-245.307-58.222-368.363-68.181-49.987-135.466-103.276-185.6-169.1-75.094-98.526-74.582-249.2,21.43-330.629,65.8-55.805,166.856-76.228,211.559-147.778,30.032-48.088,25.936-110.091,0-160.268S1771.822-43.523,1722.894-75.7" transform="translate(42.717 75.7)"/><path class="d" d="M-40.565,1317.107c-7.425-83.114,78.038-154.83,167.291-169.126,87.051-13.94,175.51,11.755,261.408,30.064,84.874,18.119,179.222,26.312,250.6-16.243,91.352-54.476,117.032-174.018,211.277-229.515,75.068-43.956,169.262-35.787,246.4-7.29,44.319,16.385,83.594,45.618,126.224,67.513,180.784,92.9,195.762,286.6,349.125,316.049,165.063,31.607,256.748-41.082,290.058-93.516,42.219-66.492,107.533-237.042-51-358.58-65.365-50.154-130.166-104.487-179.5-169.862-72.867-96.223-73.532-241.507,17.077-322.246,62.7-55.853,160.122-78.6,204.62-149.226,30.545-48.3,28.676-109.4,6.119-159.936C1836.35,4.065,1794.771-37.848,1747.866-72.4" transform="translate(45.371 80.236)"/><path class="d" d="M-39.233,1316.611c-4.1-85.37,80.906-160.648,172.744-176.7,87.588-15.293,177.4,10.14,263.3,30.206,83.876,19.591,175.714,30.539,246.994-7.765C734.775,1113.29,764.782,999.945,859.053,945.4c76.477-44.288,169.365-40.94,248.2-16.48,46.086,14.248,88.331,41.771,132.932,63.974,176.662,88.054,194.174,275.014,344.234,303.962,160.3,30.871,251.423-37.686,286.013-89.265,43.346-64.639,105.562-228.873-43.73-349.08-62.6-50.367-124.918-105.651-173.436-170.67-70.665-93.872-72.483-233.86,12.8-313.816,59.578-55.782,153.311-80.835,197.63-150.532C1894.752,175,1895.11,114.729,1875.78,63.863c-19.714-51.887-57.812-96.033-102.848-132.983" transform="translate(47.931 84.746)"/><path class="d" d="M-37.8,1316.071c-.768-87.7,83.774-166.466,178.2-184.3,88.049-16.623,179.222,8.5,265.2,30.349,82.852,21.04,172.309,34.766,243.358.736,90.609-43.671,125.046-150.7,219.24-204.438,77.962-44.478,169.544-46.14,250.015-25.67,47.9,12.182,93.042,38,139.614,60.46,172.514,83.4,192.715,263.425,339.37,292.088,155.488,30.159,246.072-34.291,281.942-85.014,44.447-62.835,103.616-220.847-36.484-339.344-59.835-50.6-119.439-106.862-167.342-171.43-68.156-91.735-71.458-226.261,8.372-305.434,56.506-56.019,146.476-83.471,190.769-152.171,31.441-48.848,34.206-108.215,18.1-159.319-16.642-52.813-51.206-99.12-94.45-138.374" transform="translate(50.386 89.323)"/><path class="d" d="M-36.28,1315.613c2.56-90.025,86.641-172.261,183.677-191.876,88.459-17.905,181.117,6.839,267.066,30.444,81.93,22.488,168.981,39.016,239.748,9.238,90.226-38.256,129.091-138.967,223.208-191.9,79.37-44.692,169.8-51.412,251.807-34.861,49.773,10.045,97.779,34.148,146.3,56.993,168.213,78.959,191.255,251.861,334.505,280.072,150.7,29.47,240.67-30.871,277.9-80.74,45.523-61.03,101.7-212.963-29.213-329.68-57.1-50.89-114.113-108.167-161.3-172.213-65.877-89.431-70.434-218.71,4.02-297,53.459-56.233,139.716-85.964,183.882-153.786,31.9-48.943,37-107.574,24.093-158.986C1895.862,27.529,1864.574-20.8,1823.353-62.52" transform="translate(52.761 93.819)"/><path class="d" d="M-34.76,1315.048c5.914-92.328,89.611-177.984,189.13-199.474,88.92-19.187,183.011,5.177,268.961,30.586,80.855,23.913,165.576,43.386,236.112,17.739,89.944-32.7,133.136-127.236,227.2-179.385,80.957-44.882,170.082-56.755,253.625-44.027,51.642,7.86,102.413,30.348,152.979,53.383,163.86,74.661,189.8,240.272,329.615,268.08,145.938,28.734,235.37-27.5,273.954-76.513,46.547-59.225,99.852-205.2-21.993-319.967-54.355-51.246-108.762-109.4-155.181-173-63.573-87.151-69.436-211.348-.307-288.621,50.31-56.3,132.829-88.268,176.815-155.068,32.414-49.156,39.915-107.028,30.084-158.677-10.395-54.784-38.4-105.294-77.629-149.3" transform="translate(55.133 98.396)"/><path class="d" d="M-33.24,1314.562c9.243-94.655,92.376-183.73,194.584-207.05,89.381-20.422,184.88,3.467,270.856,30.728,79.856,25.291,162.17,47.637,232.5,26.122,89.611-27.262,137.233-115.482,231.171-166.847,82.442-45.119,170.415-62.17,255.417-53.217,53.562,5.652,107.123,26.573,159.687,49.869,159.3,70.552,188.337,228.779,324.75,256.183,141.1,28.093,229.942-24.151,269.806-72.262,47.571-57.468,97.983-197.622-14.747-310.3a1450.558,1450.558,0,0,1-149.113-173.78c-61.448-84.824-68.463-203.821-4.66-280.215,47.238-56.565,126.146-90.714,169.979-156.564,32.875-49.37,42.757-106.529,36.075-158.345-7.22-55.853-31.825-108.429-69.128-154.783" transform="translate(57.504 102.919)"/><path class="d" d="M-31.72,1314.049c12.6-96.959,95.244-189.429,200.037-214.649,89.867-21.634,186.9,1.757,272.75,30.871,78.858,26.692,158.74,51.911,228.867,34.742,89.2-21.847,141.3-103.75,235.165-154.356,83.953-45.262,170.773-67.679,257.235-62.407,55.456,3.372,111.758,22.821,166.42,46.307,154.592,66.492,186.9,217.119,319.886,244.119,136.311,27.285,224.54-20.731,265.761-68.011,48.646-55.687,96.242-190.19-7.476-300.613a1721.914,1721.914,0,0,1-143.019-174.588c-59.041-82.52-67.515-196.482-9.012-271.784,44.165-56.827,119.387-93.112,163.066-158.012,31.436-47.325,46.135-102.58,42.04-158.036-3.968-56.993-25.322-111.611-60.807-160.221" transform="translate(59.876 107.469)"/><path class="d" d="M-30.2,1313.591c15.874-99.286,98.111-195.129,205.491-222.3,90.328-22.821,188.644,0,274.645,30.99,77.859,28.021,155.385,56.162,225.308,43.219,88.792-16.433,145.4-91.948,239.133-141.77,85.463-45.428,171.157-73.236,259.027-71.6,57.4,1.069,116.417,19,173.052,42.745,149.881,62.692,185.418,205.53,314.919,232.1,131.523,26.6,219.137-17.359,261.741-63.737,49.516-53.953,94.6-182.852-.256-290.948-46.086-52.623-92.786-113.036-136.926-175.348-56.788-80.217-66.568-189.216-13.365-263.378,40.965-57.159,112.654-95.534,156.179-159.508,32.007-47.2,48.69-101.947,48.057-157.7C1975.795,57.758,1957.683.5,1924.4-49.32" transform="translate(62.248 111.965)"/><path class="d" d="M-28.68,1313.04c19.254-101.59,101-200.781,210.944-229.823,90.814-24.008,190.539-1.734,276.514,31.132,76.809,29.351,151.955,60.388,221.621,51.721,88.433-11.018,149.5-80.194,243.23-129.255,87.051-45.594,171.541-78.864,260.845-80.74,59.323-1.282,121,15.388,179.734,39.254,145.093,58.964,183.933,193.942,310.105,220.111,126.735,25.861,213.684-13.987,257.7-59.51,50.464-52.243,93.093-175.894,7.015-281.259-43.525-53.217-87.512-114.223-130.858-176.131-54.535-77.866-65.774-182.021-17.717-254.971,37.918-57.539,105.894-97.909,149.215-160.957,32.608-47.152,51.25-101.438,54.048-157.4,2.5-59.741-12.755-118.969-44.089-171.216" transform="translate(64.619 116.529)"/><path class="d" d="M-27.16,1312.595c22.582-103.917,103.9-206.432,216.4-237.47,91.3-25.148,192.459-3.491,278.434,31.251,75.913,30.681,148.5,64.663,218.011,60.222,88.024-5.6,153.619-68.391,247.1-116.716,88.51-45.737,171.9-84.539,262.663-89.953,61.217-3.657,125.583,11.731,186.391,35.62,140.28,55.354,182.5,182.377,305.266,208.142,121.922,25.148,208.2-10.662,253.625-55.259,51.411-50.462,91.71-169.055,14.261-271.57-40.709-53.93-82.186-115.434-124.764-176.915-52.307-75.563-65.006-174.9-22.07-246.565,34.744-57.966,99.161-100.307,142.277-162.429,34.846-50.177,54.816-104.606,60.04-157.063,6.069-60.8-6.255-121.966-35.589-176.63" transform="translate(66.991 121.01)"/><path class="d" d="M-25.64,1311.986C.3,1205.837,81.151,1099.925,196.186,1066.964c91.787-26.312,194.354-5.3,280.354,31.394,74.915,31.963,145.119,68.866,214.349,68.724,87.64-.214,157.716-56.613,251.09-104.2,90.046-45.879,172.232-90.239,264.455-99.12,63.163-6.079,130.192,8.1,193.1,32.177,135.39,51.84,181.014,170.788,300.376,196.126,117.16,24.436,202.726-7.29,249.579-50.985,52.307-48.752,90.533-162.382,21.532-261.905-37.918-54.618-76.809-116.622-118.7-177.7-50.08-73.212-64.315-167.844-26.423-238.158,31.518-58.441,92.427-102.706,135.364-163.854,35.358-50.391,57.94-104.13,66.031-156.73A309.78,309.78,0,0,0,2000.107-39.36" transform="translate(69.363 125.656)"/><path class="d" d="M-24.12,1311.569C5.144,1203,85.589,1093.9,203.185,1058.9c92.171-27.428,196.3-7.124,282.249,31.536,73.942,33.245,141.714,73.093,210.74,77.2,87.255,5.2,161.812-44.786,255.058-91.639,91.583-46.022,172.591-96.056,266.273-108.333,65.057-8.525,134.724,4.512,199.7,28.662,130.448,48.4,179.5,159.437,295.486,184.134,112.321,23.937,197.144-3.99,245.56-46.734,53.178-47.066,89.611-155.9,28.752-252.24-35-55.521-71.689-117.809-112.654-178.482-47.878-70.861-63.726-160.838-30.724-229.728,28.163-58.964,85.694-105.08,128.425-165.35,35.844-50.581,61.115-103.632,72.047-156.445a312.492,312.492,0,0,0-18.793-187.6" transform="translate(71.734 130.111)"/><path class="d" d="M-22.6,1310.977c32.593-110.874,112.654-223.222,232.758-260.2,92.786-28.5,198.22-8.953,284.195,31.654,72.995,34.529,138.257,77.344,207.1,85.727,86.872,10.567,165.934-32.985,259.053-79.125s172.9-101.851,268.065-117.524c66.952-10.995,139.281,1,206.464,25.124,125.455,45.12,178.044,147.872,290.647,172.166,107.533,23.2,191.691-.688,241.489-42.483,54.048-45.4,88.741-149.606,36.024-242.552-32.081-56.47-66.389-119-106.586-179.266-45.676-68.534-63.214-153.928-35.128-221.322C1886.319,423.623,1940.47,375.7,1983,316.335c36.51-50.747,64.289-103.109,78.013-156.113A315.655,315.655,0,0,0,2050.641-32.77" transform="translate(74.106 134.716)"/><path class="d" d="M-21.07,1310.477c36.024-113.2,115.521-228.8,238.289-267.842,93.3-29.636,200.165-10.805,286.038,31.8,72.073,35.763,134.9,81.547,203.494,94.2,86.487,15.958,170.031-21.135,263.021-66.492,94.732-46.259,173.18-107.693,269.883-126.69,68.821-13.536,143.787-2.493,213.146,21.586,120.514,41.818,176.662,136.284,285.757,160.174,102.72,22.465,186.186,2.588,237.444-38.256,54.919-43.718,88.228-143.384,43.269-232.863-28.881-57.468-61.064-120.16-100.441-180.05C1875.3,639.886,1855.974,559,1879.375,493.13c21.327-60.151,72.252-109.854,114.574-168.295,36.894-50.937,67.49-102.587,84-155.8a320.08,320.08,0,0,0-1.946-198.5" transform="translate(76.493 139.252)"/><path class="d" d="M-19.55,1310.033C19.7,1194.527,98.89,1075.7,224.09,1034.568c93.81-30.728,202.265-12.681,287.933,31.94,71.126,36.974,131.5,85.774,199.858,102.706,86.1,21.372,174.1-9.308,267.015-54.072,96.216-46.378,173.436-113.558,271.675-135.88,70.69-16.053,148.293-5.889,219.854,18.048,115.5,38.684,175.1,124.7,280.867,148.181,97.932,21.752,180.63,5.866,233.4-33.982,55.764-42.079,88-137.352,50.541-223.221-25.6-58.56-55.815-121.323-94.373-180.81-41.323-63.808-62.6-140.107-43.807-204.509,17.743-60.792,65.544-112.252,107.533-169.767,37.432-51.127,70.741-102.112,90.021-155.472a325.161,325.161,0,0,0,6.427-203.939" transform="translate(78.865 143.734)"/><path class="d" d="M-18,1309.5c42.5-117.809,121.308-239.844,249.016-283.016,94.322-31.845,204.108-14.6,289.828,32.035,70.229,38.209,128.016,90,196.248,111.207,85.719,26.692,178.3,2.541,270.984-41.533,97.779-46.449,173.692-119.447,273.493-145.047,72.508-18.617,152.748-9.238,226.537,14.51,110.452,35.621,173.641,113.107,276,136.189,93.119,21.016,175.074,9.095,229.353-29.731,56.583-40.489,88.024-131.368,57.761-213.509-21.993-59.724-50.566-122.511-88.254-181.617-39.173-61.433-62.5-133.316-48.185-196.1,14-61.433,58.887-114.6,100.723-171.216,37.944-51.317,73.993-101.471,95.986-155.163a330.7,330.7,0,0,0,14.85-209.4" transform="translate(81.284 148.284)"/><path class="d" d="M-16.51,1308.955c45.932-120.136,124.354-245.377,254.546-290.544,94.732-32.913,206.105-16.5,291.722,32.177,69.308,39.42,124.738,94.062,192.613,119.708,85.438,31.892,182.448,14.367,274.978-28.995,99.34-46.568,173.9-125.384,275.285-154.355,74.249-21.182,157.2-12.467,233.219,10.995,105.434,32.533,172.258,101.3,271.137,124.2,88.382,20.114,169.518,12.325,225.308-25.48,57.4-38.9,88.408-125.408,65.032-203.844a749.21,749.21,0,0,0-82.186-182.4c-37.022-59.035-62.523-126.429-52.538-187.6,10.241-62.075,52.128-116.978,93.784-172.688,38.4-51.483,77.27-100.877,102-154.854A336.95,336.95,0,0,0,2151.642-19.57" transform="translate(83.608 152.862)"/><path class="d" d="M-15,1308.455c49.286-122.487,127.324-250.887,260.026-298.214,95.372-33.982,208.128-18.428,293.617,32.32,68.437,40.607,121.359,98.313,189,128.234,85.054,37.307,186.57,26.24,279.074-16.456,100.9-46.639,174.1-131.3,277.1-163.427,76.118-23.747,161.607-15.625,239.9,7.433,100.364,29.589,170.773,89.74,266.273,112.228,83.594,19.4,163.86,15.507,221.262-21.23,58.222-37.33,89.125-119.376,72.277-194.179A607.713,607.713,0,0,0,2007.444,712c-34.9-56.66-62.651-119.542-56.89-179.29,6.042-62.668,45.446-119.329,86.871-174.16,39.019-51.65,80.547-100.236,107.994-154.522,34.771-68.655,45.823-145.6,31.646-220.3" transform="translate(85.964 157.398)"/><path class="d" d="M-13.47,1308c52.589-124.79,130.269-256.467,265.453-305.743,95.909-35.027,210.151-20.375,295.512,32.438,67.567,41.8,117.954,102.563,185.367,136.712,84.7,42.744,190.795,38.256,282.94-3.942,102.566-46.52,174.255-137.234,278.9-172.617,77.911-26.359,166.011-18.641,246.609,3.918,95.269,26.668,169.314,78.223,261.382,100.212,78.781,18.689,158.33,18.689,217.192-16.979S2110,968.8,2099.43,897.53c-9.4-63.262-34.974-125.859-70.025-183.968-32.8-54.262-62.907-112.537-61.243-170.86,1.818-63.238,38.865-121.632,79.933-175.728,39.685-51.745,83.85-99.737,113.985-154.213,38.373-69.55,52.381-148.475,40.069-225.763" transform="translate(88.352 161.894)"/><path class="d" d="M-11.95,1307.49c55.917-127.165,133.316-261.716,270.907-313.461,96.5-35.953,212.2-22.346,297.406,32.581,66.568,42.982,114.574,106.861,181.782,145.189,84.311,48.112,194.891,50.059,286.909,8.6,104.1-46.639,174.383-143.171,280.713-181.807,79.677-28.947,170.338-21.491,253.266.4,90.3,23.747,167.854,66.492,256.518,88.22,74.019,17.976,152.749,21.823,213.172-12.729,59.835-34.219,91.378-106.861,86.769-174.8-4.353-64.259-29.8-127.046-64.008-184.728-30.724-51.887-63.265-105.46-65.6-162.477-2.56-63.689,32.132-124.007,73.02-177.081,40.2-51.958,87.051-98.954,119.977-153.88,41.97-70.413,58.947-151.3,48.518-231.177" transform="translate(90.723 166.485)"/><path class="d" d="M-10.43,1306.919C48.841,1177.5,125.8,1039.647,265.93,986c97.01-37.117,214.273-24.317,299.3,32.723,65.851,44.146,111.169,111.017,178.172,153.619,83.953,53.5,198.988,61.861,290.9,21.135,105.613-46.806,174.511-149.131,282.505-191,81.444-31.583,174.69-24.2,259.974-3.158s166.421,55.022,251.628,76.251c69.129,17.24,147.167,24.958,209.127-8.478,60.654-32.723,92.914-100.046,94.04-165.113s-24.707-128.234-57.863-185.535c-28.6-49.465-63.726-98.218-69.948-154.047-7.118-64.117,25.4-126.405,66.082-178.554s90.43-98.289,125.968-153.572c45.525-71.292,65.43-154.164,56.839-236.639" transform="translate(93.095 171.022)"/></g><g transform="translate(923.07 -684.674)"><path class="d" d="M425.741,2003.049c-74.608-42.745-78.115-147.683-34.359-218.187s120-117.168,187.748-168.841S712.01,1497.9,717.592,1416.712c7.169-103.8-85.387-198.05-73.532-301.587,9.243-80.6,80.24-141.6,154.848-175.728,42.168-19.259,90.917-26,134.6-41.913,198.117-71.93,374.164,44.5,497.546-50.083,133.572-102.539,126.761-217.309,102.08-273.85-31.62-72.452-137.515-232.887-346.052-188.693-84.7,17.953-171.541,33.246-258.361,28.235-129.859-7.575-256.134-102.373-264.429-222.77-5.556-82.521,40.53-168.366,8.347-245.5-21.583-51.863-76.272-87.674-134.6-100.473s-119.848-5.106-177.507,10.069" transform="translate(-360.53 461.817)"/><path class="d" d="M427.673,2008.12c-74.454-46.663-81.213-153.429-37.3-226.9,42.885-71.716,119.823-119.5,189.028-170.123,68.386-50.011,134.314-112.989,143.378-191.353,11.445-100.165-72.918-193.633-60.5-296.505,10.088-81.808,75.965-144.856,148.242-182.709,41.528-21.776,90.686-31.845,135.7-48.966,191.307-72.476,363.411,38.114,484.309-54.381,129.962-99.523,126.3-211.348,103.13-268.341C1504.26,496.7,1401.821,342.6,1200.273,380.977c-82.98,15.839-169.16,28.757-255.11,23.438-126.556-7.6-249.016-98.17-260.077-214.2-7.681-80.312,34.232-164.994,2.765-241.412-21.43-52.243-73.967-89.265-130.576-104.629-57.121-15.483-118.389-11.707-176.815.594" transform="translate(-356.547 456.46)"/><path class="d" d="M431.132,2013.938c-74.249-50.534-84.337-159.1-40.274-235.594,42.015-72.9,119.644-121.893,190.334-171.43,69-48.349,135.7-107.882,148.217-183.4,15.746-96.508-60.68-189.216-47.494-291.542,10.728-83.115,71.689-148.086,141.662-189.762,40.965-24.364,90.456-37.686,137.054-56,184.7-72.618,352.76,31.916,471.1-58.394,126.377-96.508,125.839-205.364,104.153-262.665-27.139-71.811-126.2-219.707-320.679-187.031-81.521,13.678-167.035,24.1-252.063,18.451-123.151-7.742-241.95-94.109-255.75-205.815-9.652-78.128,28.163-161.622-2.791-237.327C683.323-99.4,632.911-137.42,578.043-155.325c-55.969-18.261-116.9-18.356-176.15-8.905" transform="translate(-354.169 450.357)"/><path class="d" d="M434.634,2020.438c-74.249-54.38-87.409-164.828-43.218-244.285,41.2-74.043,119.439-124.244,191.614-172.688,69.589-46.758,137.182-102.777,153.107-175.466,20.047-92.875-48.313-184.823-34.462-286.579,11.47-84.23,67.464-151.458,135.057-196.815,40.248-27,90.2-43.5,138.257-63.048,178.172-72.476,342.109,25.718,458.04-62.36,122.767-93.516,125.455-199.475,105.2-257.108-24.963-71.478-120.668-213.248-308.031-186.2-79.984,11.541-164.68,19.33-248.888,13.583-119.772-8.193-234.909-90.12-251.423-197.409-11.675-75.99,21.609-158.2-8.347-233.243-21.276-53.264-69.461-92.613-122.537-112.893-54.816-21.064-115.445-25.006-175.458-18.4" transform="translate(-351.859 443.55)"/><path class="d" d="M438.132,2027.692c-74.044-58.251-90.482-170.527-46.086-252.976,40.376-75.183,119.234-126.667,192.92-173.994,70.178-45.119,138.615-97.672,157.946-167.511,24.374-89.217-35.844-180.477-21.43-281.592,12.238-85.489,63.189-154.973,128.5-203.891,39.608-29.684,89.918-49.275,139.46-70.1,171.721-72.143,331.484,19.52,444.932-66.349,119.157-90.476,124.867-193.372,106.253-251.5-22.787-71.122-115.214-206.908-295.358-185.393-78.525,9.5-162.375,14.723-245.79,8.691-116.392-8.406-227.868-86.107-247.045-189C738.687,120.263,767.8,39.286,738.508-35.066c-21.148-53.739-67.234-94.157-118.517-117.025C566.224-176,506.006-183.722,445.2-179.994" transform="translate(-349.519 436.01)"/><path class="d" d="M441.673,2035.511c-73.891-62.122-93.5-176.2-49.132-261.668,39.608-76.323,119-129.065,194.2-175.3,70.767-43.457,140.2-92.494,162.836-159.58,28.855-85.489-23.5-175.965-8.4-276.6,13.006-86.653,58.887-158.535,121.9-210.944,38.942-32.391,89.611-55.046,140.817-77.154,165.345-71.6,320.833,13.322,431.8-70.339,115.547-87.46,124.354-187.364,107.277-245.9-20.483-70.766-109.915-200.71-282.659-184.585-77.117,7.124-160.071,10.116-242.616,3.8-113.038-8.62-221.006-82.141-242.718-180.477-15.823-71.692,9.063-151.411-19.51-225.05-21.02-54.238-64.955-95.89-114.472-121.11-52.563-26.834-112.526-38.28-174.1-37.4" transform="translate(-347.249 427.811)"/><path class="d" d="M445.254,2044.051c-73.763-65.993-96.549-181.878-52.1-270.383,38.84-77.415,118.747-131.487,195.506-176.559,71.279-41.866,141.637-87.389,167.7-151.648,33.284-81.832-11.086-171.548,4.609-271.642,13.8-87.864,54.535-162.168,115.214-218,38.4-35.169,89.432-60.792,141.918-84.183,159.021-70.932,310.182,7.124,418.663-74.328,111.963-84.468,123.817-181.356,108.327-240.343C1526.6,486.6,1440.423,362.242,1275.1,373.237a1658.309,1658.309,0,0,1-239.466-1.092c-109.684-8.834-214.171-78.223-238.365-172.166-17.922-69.6,2.791-148.039-25.091-220.989-20.892-54.618-62.728-97.648-110.452-125.265-51.437-29.779-111.041-44.929-173.436-46.924" transform="translate(-344.992 419.081)"/><path class="d" d="M448.868,2052.468c-73.609-69.84-99.52-187.6-55.072-279.075,38.149-78.531,118.517-133.933,196.837-177.865,71.817-40.37,143.07-82.26,172.565-143.693,37.509-78.151,1.357-167.131,17.641-266.678,14.568-89.027,50.131-165.849,108.711-225.05,37.585-38,89.2-66.491,143.147-91.236,152.774-70.077,299.557.926,405.528-78.365C1546.578,709.053,1561.5,615.181,1547.6,555.766c-16.386-69.982-101.8-208.261-257.337-182.852-73.353,11.873-155.437.879-236.291-5.984-106.33-9-207.386-74.281-234.038-163.735-20.1-67.536-3.456-144.667-30.724-216.9-20.083-52.367-57.3-97.606-106.458-129.4C632.469-175.878,573.2-194.662,510.009-199.53" transform="translate(-342.692 410.379)"/><path class="d" d="M452.423,2060.912c-73.481-73.616-102.413-193.182-58.042-287.79,37.432-79.529,118.235-136.355,198.245-179.124,72.329-38.731,144.53-77.154,177.455-135.761,41.81-74.494,13.8-162.738,30.724-261.692,15.362-90.239,45.676-169.625,102.131-232.127,36.843-40.821,88.945-72.191,144.351-98.289,146.578-69.08,288.88-5.272,392.394-82.307,104.743-78.365,122.69-169.268,110.4-229.135-14.286-69.6-96.37-204.224-244.638-182.116-72.252,10.757-153.132-3.7-233.142-10.852-102.976-9.19-200.754-70.386-229.712-155.353-22.3-65.47-9.7-141.271-36.2-212.8-19.608-52.706-55.162-99.062-102.413-133.529-49.878-36-109.348-58.782-172.078-65.922" transform="translate(-340.512 401.65)"/><path class="d" d="M456.057,2069.387c-73.3-77.557-105.434-198.786-60.987-296.457,36.741-80.74,117.928-138.848,199.423-180.477,72.841-37.188,145.938-72.025,182.294-127.806,46.086-70.838,26.269-158.321,43.7-256.729,16.181-91.449,41.2-173.353,95.551-239.18,36.1-43.671,88.74-77.843,145.579-105.341,140.459-67.964,278.229-11.446,379.259-86.273,101.132-75.42,122.127-163.237,111.45-223.578-12.238-69.175-90.865-199.878-231.964-181.285-71.279,9.5-150.8-8.311-229.993-15.744C990.753,347.161,896.2,290.026,865.067,209.6,840.463,146.143,849.117,71.7,823.283.883,804.117-52.261,770.168-99.773,724.865-136.85c-48.6-39.235-107.885-65.326-171.388-75.42" transform="translate(-338.333 392.866)"/><path class="d" d="M459.726,2077.722c-73.174-81.429-108.378-204.415-64.008-305.173,36.049-81.761,117.621-141.318,200.7-181.712,73.327-35.62,147.4-66.871,187.184-119.851,50.438-67.157,38.763-153.881,56.737-251.718,17-92.613,36.638-177.223,88.945-246.232,35.307-46.568,88.536-83.447,146.809-112.394C1210.487,793.913,1343.675,843,1442.221,770.4c97.548-72.4,121.513-157.181,112.475-217.974-10.241-68.866-85.259-195.366-219.266-180.477-70.485,7.837-148.5-12.895-226.844-20.636-96.268-9.5-187.7-62.573-221.032-138.516C860.62,151.367,865.382,78.273,840.214,8.172c-20.355-56.637-53.562-105.152-94.4-141.817-47.295-42.464-106.414-71.863-170.722-84.9" transform="translate(-336.165 384.246)"/><path class="d" d="M463.365,2086.18c-73.02-85.3-111.271-210.042-66.9-313.864,35.384-82.829,117.314-143.835,202.009-182.994,73.814-34.148,148.806-61.742,192.023-111.92,54.74-63.5,51.206-149.463,69.743-246.8,17.922-93.825,32.055-181.071,82.365-253.285,34.462-49.465,88.382-89.028,148.037-119.424,128.374-65.4,256.927-23.747,353.016-94.275,93.912-69.389,120.847-151.126,113.5-212.369-8.193-68.368-79.754-167.179-206.618-179.646-69.692-6.863-146.168-17.478-223.669-25.528-92.914-9.665-181.347-58.655-216.68-130.086C880.8,156.619,881.772,84.832,857.244,15.443c-20.175-57.112-51.206-107.1-90.354-145.949C720.945-176.213,662-208.937,596.86-224.9" transform="translate(-333.992 375.503)"/><path class="d" d="M467.055,2094.611c-72.892-89.17-114.164-215.646-69.871-322.579,34.744-83.9,116.981-146.353,203.315-184.277,74.249-32.628,150.214-56.66,196.914-103.964,58.887-59.843,63.726-145.047,82.775-241.816,18.69-94.988,27.4-184.941,75.785-260.362,33.591-52.386,88.2-94.584,149.241-126.476,122.409-64.117,246.43-29.874,339.882-98.265,90.456-66.183,120.207-145.07,114.548-206.789-6.247-67.916-74.94-162.358-193.944-178.815-68.591-9.5-143.864-22.037-220.52-30.42-89.611-9.784-175.1-54.618-212.353-121.68-31.876-57.325-34.641-127.782-58.5-196.435C854.3-34.876,825.525-86.36,787.99-127.347c-44.575-48.947-103.356-85-169.365-103.893" transform="translate(-331.845 366.788)"/><path class="d" d="M470.746,2103.041c-72.739-93.017-117.032-221.25-72.841-331.27,34.155-84.967,116.674-148.917,204.62-185.583,74.736-31.156,151.647-51.531,201.778-96.033,63.317-56.162,76.246-140.606,95.807-236.829s22.736-188.812,69.129-267.415c32.7-55.307,88.075-100.07,150.47-133.529,116.494-62.478,235.779-36.072,326.747-102.112,86.846-63.191,119.515-139.039,115.573-201.208-4.276-67.513-70.1-157.87-181.245-178.1-67.515-12.206-141.56-26.573-217.4-35.288-86.18-9.9-168.981-50.724-208-113.273C920.926,167.14,914.551,97.989,891.38,30.048,871.512-28.06,845.013-81.016,809.066-124.164c-43.188-52.176-101.8-91.58-168.7-113.416" transform="translate(-329.724 358.072)"/><path class="d" d="M474.462,2111.6c-72.61-96.888-119.874-226.856-75.811-339.962,33.54-86.035,116.315-151.506,205.926-186.865,75.2-29.707,153.056-46.425,206.643-88.1,67.592-52.528,88.766-136.165,108.839-231.865,20.483-97.363,17.922-192.659,62.6-274.468,31.748-58.228,88-105.508,151.673-140.582,110.657-60.911,225.154-42.27,313.638-106.22,83.236-60.175,118.824-132.983,116.622-195.6-2.355-67.109-65.237-153.619-168.6-177.176-66.389-15.269-139.23-31.251-214.222-40.322-82.852-10-162.939-46.663-203.648-104.843-37.176-53.122-47.059-121.11-69.641-188.266C888.773-21.255,864.578-75.73,830.193-121.016c-41.764-55.393-100.2-98.145-168.008-122.914" transform="translate(-327.603 349.343)"/><path class="d" d="M478.172,2119.893c-72.457-100.735-122.69-232.436-78.755-348.653,32.926-87.08,115.982-154.07,207.206-188.147,75.657-28.259,154.464-41.32,211.533-80.146,71.868-48.9,101.286-131.749,121.845-226.879,21.327-98.621,13.237-196.554,56.02-281.544,30.724-61.148,87.947-110.9,152.9-147.611,104.973-59.367,214.5-48.491,300.5-110.233,79.626-57.159,118.082-126.9,117.775-189.976-.461-66.658-60.321-149.606-155.923-176.345-65.237-18.214-136.925-35.62-211.072-45.119-79.37-10.092-157.024-42.578-199.321-96.436-40.069-50.985-53.357-117.714-75.3-184.182-19.535-59.083-41.426-115.078-74.249-162.477C811.018-176.466,752.748-222.573,684-250.27" transform="translate(-325.501 340.627)"/><path class="d" d="M481.9,2128.323c-72.329-104.605-125.455-238.04-81.725-357.345,32.337-88.125,115.624-156.73,208.512-189.453,76.092-26.81,155.872-36.214,216.4-72.191,76.144-45.262,113.832-127.308,134.877-221.916,22.2-99.737,8.423-200.4,49.414-288.6,29.8-64.117,87.947-116.218,154.131-154.664,99.11-57.586,203.827-54.618,287.37-114.2,76.016-54.167,117.339-120.872,118.7-184.443,1.434-66.254-55.226-145.949-143.224-175.538-64.008-21.515-134.622-40.18-207.923-49.869-76.144-10.259-151.187-38.447-194.865-88.125-42.962-48.61-59.553-114.318-80.906-180.073C923.329-7.67,903.768-65.162,872.43-114.7,833.566-176.5,775.466-225.972,705.753-256.61" transform="translate(-323.396 331.912)"/><path class="d" d="M485.674,2136.754c-72.2-108.476-128.3-243.6-84.7-366.06,31.774-89.17,115.214-159.318,209.792-190.712,76.553-25.433,157.254-31.156,221.262-64.259,80.317-41.771,126.377-122.867,147.884-216.953,23.043-100.972,3.61-204.224,42.86-295.65,28.778-66.99,88-121.466,155.334-161.717,93.4-55.829,193.048-61.03,274.235-118.189,72.3-51.294,116.571-114.769,119.772-178.886,3.277-65.874-49.977-142.482-130.576-174.73a888.776,888.776,0,0,0-204.825-54.832c-72.739-10.283-145.349-34.03-190.564-79.576C1000.323,189,980.532,124.221,959.793,59.2c-19.151-60.08-36.356-119.067-66.21-170.741C856.2-176.528,798.279-229.36,727.6-262.95" transform="translate(-321.327 323.196)"/><path class="d" d="M489.431,2145.266c-72.047-112.346-131.063-249.2-87.64-374.75,31.185-90.239,114.881-162,211.1-192.018,76.989-24.032,158.739-26.121,226.127-56.3,84.644-38.114,138.948-118.45,160.941-211.989,24.016-102.112-1.28-208.095,36.254-302.7,27.7-69.911,88.178-126.667,156.538-168.77,87.742-54.024,182.4-67.228,261.152-122.178,68.668-48.277,115.752-108.785,120.77-173.353,5.121-65.47-44.473-139.2-117.775-173.875a722.928,722.928,0,0,0-201.6-59.747c-69.487-10.283-139.691-29.589-186.289-71.241-48.9-43.647-71.689-107.621-91.941-171.9C958.122,5.854,943.3-54.677,914.878-108.44,878.966-176.6,821.226-232.8,749.559-269.35" transform="translate(-319.246 314.398)"/><path class="d" d="M493.2,2153.629c-71.919-116.194-133.828-254.782-90.609-383.467,30.724-91.259,114.523-164.685,212.506-193.3,77.424-22.631,160.071-21.016,230.992-48.349,88.945-34.481,151.7-113.986,173.948-207,25.168-103.3-6.145-211.942,29.674-309.779C1076.389,938.9,1138.068,880.055,1207.5,836c82.135-52.243,171.746-73.449,247.966-126.168,64.981-45.357,114.933-102.943,121.717-167.749s-38.686-136.07-105.2-173.068c-58.887-32.842-127.734-53.621-198.45-64.639-66.158-10.283-133.981-25.006-181.91-62.787-52-40.916-77.859-104.273-97.5-167.8-18.639-61.125-31.185-123.033-58.2-179C901.54-176.54,843.983-236.126,771.3-275.64" transform="translate(-317.205 305.751)"/><path class="d" d="M496.915,2162.018c-71.689-120.064-136.337-260.313-93.58-392.157,30.263-92.281,114.19-167.392,213.71-194.583,77.91-21.372,161.5-15.934,235.882-40.37,93.246-30.871,164.167-109.521,186.9-202.016,26.013-104.487-11.061-215.765,23.043-316.832,25.6-75.753,88.664-136.616,159.021-182.852,76.6-50.344,161.095-79.624,234.832-130.157,61.448-42.246,114.062-96.769,122.895-162.073,8.705-64.711-32.49-132.983-92.53-172.261-56.737-37.117-125.456-58.038-195.3-69.507-62.83-10.306-128.246-20.327-177.635-54.381-55.124-38-84.081-100.9-103.053-163.712-18.485-61.6-28.573-125-54.176-183.161-32.867-74.457-90.2-137.409-163.86-179.907" transform="translate(-315.107 297.077)"/><path class="d" d="M500.77,2170.49c-71.689-123.935-139.256-265.966-96.55-400.873,29.572-93.373,113.832-170.124,215.067-195.865,78.346-19.948,162.938-10.8,240.669-32.486,97.548-27.166,176.662-105.08,199.986-197.1,26.858-105.674-15.976-219.565,16.514-323.885,24.477-78.65,89.1-141.437,160.225-189.976S1387.1,744.6,1458.4,696.277c57.863-39.23,113.166-90.761,123.894-156.493,10.5-64.354-25.859-129.825-79.831-171.43s-123.049-62.431-192.177-74.4c-59.5-10.306-122.485-15.459-173.282-45.95-58.273-34.956-90.328-97.553-108.634-159.627S1002.413-38.573,978.218-98.914c-31.376-77.6-88.557-143.939-163.271-189.406" transform="translate(-313.125 288.32)"/></g></g></g></g></g></svg>