<svg xmlns="http://www.w3.org/2000/svg" width="98" height="98" viewBox="0 0 98 98"><defs><style>.a{fill:#f18f20;}.b{fill:none;}</style></defs><g transform="translate(-0.033 -0.033)"><path class="a" d="M145.468,279.039a3.348,3.348,0,0,1-1.851-.558l-2.239-1.471a3.381,3.381,0,0,1-.958-4.681l9.333-14.173a3.379,3.379,0,0,1,4.681-.958l2.239,1.473a3.379,3.379,0,0,1,.958,4.681L148.3,277.526a3.394,3.394,0,0,1-2.831,1.523Zm7.1-19.536a.708.708,0,0,0-.1.01.506.506,0,0,0-.32.218L142.813,273.9a.509.509,0,0,0-.073.383.5.5,0,0,0,.218.32l2.237,1.475a.51.51,0,0,0,.7-.146l9.332-14.174a.506.506,0,0,0,.075-.383.513.513,0,0,0-.218-.322l-2.239-1.477A.49.49,0,0,0,152.57,259.5Z" transform="translate(-113.074 -207.484)"/><path class="a" d="M355.079,278.989a3.388,3.388,0,0,1-2.831-1.523l-9.333-14.174a3.382,3.382,0,0,1,.958-4.681l2.247-1.475a3.377,3.377,0,0,1,4.681.958l9.333,14.173a3.383,3.383,0,0,1-.958,4.681l-2.239,1.475A3.359,3.359,0,0,1,355.079,278.989Zm-9.768-17.276,9.333,14.174a.5.5,0,0,0,.32.218.511.511,0,0,0,.383-.073l2.239-1.475a.5.5,0,0,0,.216-.32.492.492,0,0,0-.073-.383L348.4,259.68a.513.513,0,0,0-.322-.218.506.506,0,0,0-.383.075l-2.239,1.473a.51.51,0,0,0-.216.322.494.494,0,0,0,.073.383Z" transform="translate(-276.783 -207.433)"/><path class="a" d="M233.129,283.545a1.431,1.431,0,0,1-1.117-.532,3.125,3.125,0,0,0-4.164-.456,7.188,7.188,0,0,1-8.282-.766,1.437,1.437,0,0,1,1.915-2.136,4.248,4.248,0,0,0,4.936.41,6.015,6.015,0,0,1,7.822,1.14,1.438,1.438,0,0,1-1.115,2.342Z" transform="translate(-177.172 -225.655)"/><path class="a" d="M274.306,294.563a4.386,4.386,0,0,1-2.321-.7,1.438,1.438,0,0,1-.624-1.186V287.1a1.414,1.414,0,0,1,.071-.446,7.1,7.1,0,0,1,3.951-4.175,8.423,8.423,0,0,1,6.255-.462,11.967,11.967,0,0,0,5.07.295,1.436,1.436,0,1,1,.416,2.843c-.41.061-4.078.559-6.589-.485a5.633,5.633,0,0,0-3.951.419,4.432,4.432,0,0,0-2.35,2.258v4.338a.957.957,0,0,0,.4-.054c.575-.211,1.134-1.044,1.555-2.346a1.436,1.436,0,1,1,2.733.881c-.73,2.264-1.866,3.674-3.377,4.191A3.85,3.85,0,0,1,274.306,294.563Z" transform="translate(-219.385 -227.67)"/><path class="a" d="M311.433,334.317a3.831,3.831,0,0,1-2.107-.632l-8.134-5.363a1.437,1.437,0,1,1,1.58-2.4l8.133,5.363a.97.97,0,1,0,1.067-1.62L297.8,320.421a1.437,1.437,0,0,1,1.571-2.408l14.174,9.249a3.842,3.842,0,0,1-2.107,7.054Z" transform="translate(-240.232 -256.914)"/><path class="a" d="M309.021,387.18a3.811,3.811,0,0,1-2.094-.626l-7.328-4.643a1.437,1.437,0,0,1,1.532-2.429l7.338,4.647.021.013a.97.97,0,1,0,1.067-1.62,1.437,1.437,0,1,1,1.58-2.4A3.842,3.842,0,0,1,309.8,387.1,3.885,3.885,0,0,1,309.021,387.18Z" transform="translate(-241.704 -306.638)"/><path class="a" d="M297.185,400.788a3.816,3.816,0,0,1-2.107-.634l-3.378-2.244a1.437,1.437,0,1,1,1.59-2.392l3.373,2.239a.958.958,0,0,0,.724.138.971.971,0,0,0,.755-1.149.958.958,0,0,0-.418-.615,1.437,1.437,0,1,1,1.58-2.4,3.842,3.842,0,0,1-1.341,6.974A3.886,3.886,0,0,1,297.185,400.788Z" transform="translate(-235.289 -318.126)"/><path class="a" d="M276.888,408a3.831,3.831,0,0,1-2.107-.632l-1.546-1.019a1.437,1.437,0,1,1,1.58-2.4l1.546,1.017a.97.97,0,0,0,1.067-1.62l-1.551-1.011a1.436,1.436,0,1,1,1.571-2.406L279,400.948A3.842,3.842,0,0,1,276.9,408Z" transform="translate(-220.351 -323.143)"/><path class="a" d="M197.525,362.718a3.842,3.842,0,0,1-3.2-5.955l3.494-5.305a3.842,3.842,0,1,1,6.418,4.225l-3.494,5.307A3.84,3.84,0,0,1,197.525,362.718Zm3.507-10.117a.967.967,0,0,0-.81.437l-3.494,5.305h0a.97.97,0,0,0,1.62,1.067l3.492-5.305a.969.969,0,0,0-.808-1.5Zm-5.5,4.953Z" transform="translate(-156.596 -282.743)"/><path class="a" d="M175.694,349.331a3.84,3.84,0,0,1-3.2-5.955h0l2.139-3.256a3.843,3.843,0,1,1,6.418,4.227L178.91,347.6a3.846,3.846,0,0,1-3.216,1.728Zm-.8-4.375a.969.969,0,1,0,1.618,1.067l2.141-3.256a.969.969,0,0,0-1.618-1.065Z" transform="translate(-138.94 -273.577)"/><path class="a" d="M221.766,379.326a3.831,3.831,0,0,1-3.2-5.953h0l2.672-4.059a3.843,3.843,0,1,1,6.42,4.225l-2.681,4.059A3.84,3.84,0,0,1,221.766,379.326Zm2.681-8.87a.988.988,0,0,0-.192.021.958.958,0,0,0-.615.418l-2.672,4.057h0a.97.97,0,0,0,1.62,1.067l2.681-4.059a.971.971,0,0,0-.278-1.341.958.958,0,0,0-.546-.163Zm-4.683,3.706Z" transform="translate(-176.181 -297.179)"/><path class="a" d="M247.119,397.951a3.846,3.846,0,0,1-3.2-5.957h0l1.1-1.664a3.843,3.843,0,0,1,6.418,4.227l-1.1,1.663a3.812,3.812,0,0,1-2.434,1.651A3.879,3.879,0,0,1,247.119,397.951Zm1.1-6.478a.967.967,0,0,0-.81.437l-1.1,1.663h0a.969.969,0,1,0,1.618,1.067l1.1-1.663a.969.969,0,0,0-.276-1.341A.958.958,0,0,0,248.222,391.473Zm-3.1,1.31Z" transform="translate(-196.688 -314.17)"/><rect class="a" width="5.062" height="2.873" transform="translate(71.056 69.867) rotate(-31.95)"/><path class="a" d="M123.6,134.029H110.573a7.19,7.19,0,0,1-7.183-7.183V74.683a7.19,7.19,0,0,1,7.183-7.183h30.611a1.436,1.436,0,0,1,1.027.431l11.739,11.988a1.442,1.442,0,0,1,.41,1.006v25.07a1.437,1.437,0,0,1-2.873,0V81.507L140.58,70.369H110.567a4.313,4.313,0,0,0-4.31,4.31v52.168a4.313,4.313,0,0,0,4.31,4.31h13.024a1.437,1.437,0,1,1,0,2.873Z" transform="translate(-83.587 -54.571)"/><path class="a" d="M305.7,82.357h-6.978A6.368,6.368,0,0,1,292.36,76v-7.06a1.437,1.437,0,0,1,2.873,0V76a3.492,3.492,0,0,0,3.488,3.488H305.7a1.437,1.437,0,1,1,0,2.873Z" transform="translate(-236.363 -54.571)"/><path class="a" d="M165.009,137.783H146.6a1.437,1.437,0,0,1,0-2.873h18.412a1.437,1.437,0,1,1,0,2.873Z" transform="translate(-117.357 -109.07)"/><path class="a" d="M179.592,173.443h-33a1.437,1.437,0,1,1,0-2.873h33a1.437,1.437,0,1,1,0,2.873Z" transform="translate(-117.357 -137.9)"/><path class="a" d="M179.592,209.1h-33a1.437,1.437,0,0,1,0-2.873h33a1.437,1.437,0,1,1,0,2.873Z" transform="translate(-117.357 -166.73)"/><rect class="b" width="98" height="98" transform="translate(0.033 0.033)"/></g></svg>