<svg xmlns="http://www.w3.org/2000/svg" width="98" height="98" viewBox="0 0 98 98"><defs><style>.a{fill:none;}.b{fill:#f18f20;}</style></defs><g transform="translate(0.005 0.005)"><rect class="a" width="98" height="98" transform="translate(-0.005 -0.005)"/><path class="b" d="M117.911,351.683H98.565a1.435,1.435,0,0,1-1.435-1.435v-19.1a1.435,1.435,0,0,1,1.435-1.435h19.345a1.435,1.435,0,0,1,1.435,1.435v19.1a1.435,1.435,0,0,1-1.435,1.439ZM100,348.812h16.475V332.581H100Z" transform="translate(-78.541 -266.608)"/><path class="b" d="M218.989,295.549H199.645a1.435,1.435,0,0,1-1.435-1.435V261.725a1.435,1.435,0,0,1,1.435-1.435h19.344a1.433,1.433,0,0,1,1.435,1.435V294.11a1.435,1.435,0,0,1-1.435,1.439Zm-17.908-2.871h16.473V263.161H201.081Z" transform="translate(-160.275 -210.474)"/><path class="b" d="M320.061,238.485H300.715a1.435,1.435,0,0,1-1.435-1.435V191.155a1.435,1.435,0,0,1,1.435-1.435h19.345a1.435,1.435,0,0,1,1.435,1.435v45.891a1.435,1.435,0,0,1-1.435,1.439Zm-17.91-2.871h16.475V192.591H302.151Z" transform="translate(-242.002 -153.41)"/><path class="b" d="M138.478,432.391H69.2a1.435,1.435,0,0,1,0-2.871h69.282a1.435,1.435,0,1,1,0,2.871Z" transform="translate(-54.792 -347.315)"/><path class="b" d="M351.255,93.762a1.435,1.435,0,0,1-1.435-1.435V68.935a1.435,1.435,0,0,1,2.088-1.278L364.4,74.04a1.437,1.437,0,0,1,.08,2.513l-11.789,7.014v8.76A1.435,1.435,0,0,1,351.255,93.762Zm1.435-22.484v8.949l8.088-4.813Z" transform="translate(-282.869 -54.581)"/></g></svg>