<svg xmlns="http://www.w3.org/2000/svg" width="382" height="522" viewBox="0 0 382 522"><defs><style>.a{fill:#f18f20;stroke:rgba(0,0,0,0);}.b{fill:#f6b619;}.c{font-size:14px;font-family:Poppins-Bold, Poppins;font-weight:700;}.d{fill:#4e4e4e;font-size:11px;font-family:Roboto-Regular, Roboto;}.e{stroke:none;}.f{fill:none;}</style></defs><g class="a" transform="translate(2 171)"><circle class="e" cx="2" cy="2" r="2"/><circle class="f" cx="2" cy="2" r="1.5"/></g><g class="a" transform="translate(2 191)"><circle class="e" cx="2" cy="2" r="2"/><circle class="f" cx="2" cy="2" r="1.5"/></g><g class="a" transform="translate(2 211)"><circle class="e" cx="2" cy="2" r="2"/><circle class="f" cx="2" cy="2" r="1.5"/></g><rect class="b" width="108" height="34" rx="8"/><text class="c" transform="translate(54 22)"><tspan x="-33.474" y="0">Agrotech</tspan></text><g transform="translate(2 44)"><g class="a" transform="translate(0 6)"><circle class="e" cx="2" cy="2" r="2"/><circle class="f" cx="2" cy="2" r="1.5"/></g><text class="d" transform="translate(9 12)"><tspan x="0" y="0">Shade-nets</tspan></text></g><g transform="translate(2 65)"><g class="a" transform="translate(0 6)"><circle class="e" cx="2" cy="2" r="2"/><circle class="f" cx="2" cy="2" r="1.5"/></g><text class="d" transform="translate(9 12)"><tspan x="0" y="0">Fishing nets</tspan></text></g><g transform="translate(2 86)"><g class="a" transform="translate(0 6)"><circle class="e" cx="2" cy="2" r="2"/><circle class="f" cx="2" cy="2" r="1.5"/></g><text class="d" transform="translate(9 12)"><tspan x="0" y="0">Bird protection nets</tspan></text></g><rect class="b" width="108" height="34" rx="8" transform="translate(0 120)"/><text class="c" transform="translate(54 142)"><tspan x="-30.212" y="0">Geotech</tspan></text><text class="d" transform="translate(11 177)"><tspan x="0" y="0">Geogrids</tspan></text><text class="d" transform="translate(11 197)"><tspan x="0" y="0">Geonets</tspan></text><text class="d" transform="translate(11 217)"><tspan x="0" y="0">Geocomposite</tspan></text><g class="a" transform="translate(135 51)"><circle class="e" cx="2" cy="2" r="2"/><circle class="f" cx="2" cy="2" r="1.5"/></g><g class="a" transform="translate(135 71)"><circle class="e" cx="2" cy="2" r="2"/><circle class="f" cx="2" cy="2" r="1.5"/></g><g class="a" transform="translate(135 91)"><circle class="e" cx="2" cy="2" r="2"/><circle class="f" cx="2" cy="2" r="1.5"/></g><g class="a" transform="translate(135 171)"><circle class="e" cx="2" cy="2" r="2"/><circle class="f" cx="2" cy="2" r="1.5"/></g><g class="a" transform="translate(135 191)"><circle class="e" cx="2" cy="2" r="2"/><circle class="f" cx="2" cy="2" r="1.5"/></g><g class="a" transform="translate(135 225)"><circle class="e" cx="2" cy="2" r="2"/><circle class="f" cx="2" cy="2" r="1.5"/></g><rect class="b" width="108" height="34" rx="8" transform="translate(137)"/><text class="c" transform="translate(191 22)"><tspan x="-34.321" y="0">Buildtech</tspan></text><text class="d" transform="translate(149 57)"><tspan x="0" y="0">Hoardings</tspan></text><text class="d" transform="translate(149 77)"><tspan x="0" y="0">Awnings</tspan></text><text class="d" transform="translate(149 97)"><tspan x="0" y="0">Canopies</tspan></text><rect class="b" width="108" height="34" rx="8" transform="translate(137 120)"/><text class="c" transform="translate(191 142)"><tspan x="-37.408" y="0">Hometech</tspan></text><text class="d" transform="translate(149 177)"><tspan x="0" y="0">Stuff toys</tspan></text><text class="d" transform="translate(149 197)"><tspan x="0" y="0">Mattress &amp; Pillow </tspan><tspan x="0" y="14">components</tspan></text><text class="d" transform="translate(149 231)"><tspan x="0" y="0">Blinds</tspan></text><rect class="b" width="108" height="34" rx="8" transform="translate(274)"/><text class="c" transform="translate(328 22)"><tspan x="-32.683" y="0">Clothech</tspan></text><g class="a" transform="translate(272 51)"><circle class="e" cx="2" cy="2" r="2"/><circle class="f" cx="2" cy="2" r="1.5"/></g><text class="d" transform="translate(285 57)"><tspan x="0" y="0">Zip fastners</tspan></text><g class="a" transform="translate(272 71)"><circle class="e" cx="2" cy="2" r="2"/><circle class="f" cx="2" cy="2" r="1.5"/></g><text class="d" transform="translate(285 77)"><tspan x="0" y="0">Shoe laces</tspan></text><g class="a" transform="translate(272 91)"><circle class="e" cx="2" cy="2" r="2"/><circle class="f" cx="2" cy="2" r="1.5"/></g><text class="d" transform="translate(285 97)"><tspan x="0" y="0">Umbrella cloth</tspan></text><rect class="b" width="108" height="34" rx="8" transform="translate(274 120)"/><text class="c" transform="translate(328 142)"><tspan x="-32.361" y="0">Indutech</tspan></text><g class="a" transform="translate(272 171)"><circle class="e" cx="2" cy="2" r="2"/><circle class="f" cx="2" cy="2" r="1.5"/></g><text class="d" transform="translate(285 177)"><tspan x="0" y="0">Conveyor belts</tspan></text><g class="a" transform="translate(272 191)"><circle class="e" cx="2" cy="2" r="2"/><circle class="f" cx="2" cy="2" r="1.5"/></g><text class="d" transform="translate(285 197)"><tspan x="0" y="0">Computer paper</tspan><tspan x="0" y="14">ribbon</tspan></text><g class="a" transform="translate(272 225)"><circle class="e" cx="2" cy="2" r="2"/><circle class="f" cx="2" cy="2" r="1.5"/></g><text class="d" transform="translate(285 231)"><tspan x="0" y="0">Paper making</tspan><tspan x="0" y="14">fabric</tspan></text><g class="a" transform="translate(2 319)"><circle class="e" cx="2" cy="2" r="2"/><circle class="f" cx="2" cy="2" r="1.5"/></g><g class="a" transform="translate(2 339)"><circle class="e" cx="2" cy="2" r="2"/><circle class="f" cx="2" cy="2" r="1.5"/></g><g class="a" transform="translate(2 359)"><circle class="e" cx="2" cy="2" r="2"/><circle class="f" cx="2" cy="2" r="1.5"/></g><rect class="b" width="108" height="34" rx="8" transform="translate(0 268)"/><text class="c" transform="translate(54 290)"><tspan x="-33.663" y="0">Meditech</tspan></text><text class="d" transform="translate(11 325)"><tspan x="0" y="0">Diapers</tspan></text><text class="d" transform="translate(11 345)"><tspan x="0" y="0">Sanitary napkins</tspan></text><text class="d" transform="translate(11 365)"><tspan x="0" y="0">Surgical gowns</tspan></text><g class="a" transform="translate(135 319)"><circle class="e" cx="2" cy="2" r="2"/><circle class="f" cx="2" cy="2" r="1.5"/></g><g class="a" transform="translate(135 339)"><circle class="e" cx="2" cy="2" r="2"/><circle class="f" cx="2" cy="2" r="1.5"/></g><g class="a" transform="translate(135 359)"><circle class="e" cx="2" cy="2" r="2"/><circle class="f" cx="2" cy="2" r="1.5"/></g><rect class="b" width="108" height="34" rx="8" transform="translate(137 268)"/><text class="c" transform="translate(191 290)"><tspan x="-33.81" y="0">Mobitech</tspan></text><text class="d" transform="translate(149 325)"><tspan x="0" y="0">Seat belt webbings</tspan></text><text class="d" transform="translate(149 345)"><tspan x="0" y="0">Airbags</tspan></text><text class="d" transform="translate(149 365)"><tspan x="0" y="0">Helmets</tspan></text><rect class="b" width="108" height="34" rx="8" transform="translate(274 268)"/><text class="c" transform="translate(328 290)"><tspan x="-34.706" y="0">Oekotech</tspan></text><g class="a" transform="translate(272 319)"><circle class="e" cx="2" cy="2" r="2"/><circle class="f" cx="2" cy="2" r="1.5"/></g><text class="d" transform="translate(285 325)"><tspan x="0" y="0">Waste disposal</tspan></text><g class="a" transform="translate(272 339)"><circle class="e" cx="2" cy="2" r="2"/><circle class="f" cx="2" cy="2" r="1.5"/></g><text class="d" transform="translate(285 345)"><tspan x="0" y="0">Recycling</tspan></text><g class="a" transform="translate(272 359)"><circle class="e" cx="2" cy="2" r="2"/><circle class="f" cx="2" cy="2" r="1.5"/></g><text class="d" transform="translate(285 365)"><tspan x="0" y="0">Environmental</tspan><tspan x="0" y="14">engineering</tspan></text><g class="a" transform="translate(135 379)"><circle class="e" cx="2" cy="2" r="2"/><circle class="f" cx="2" cy="2" r="1.5"/></g><text class="d" transform="translate(149 385)"><tspan x="0" y="0">Seat upholstery</tspan></text><g class="a" transform="translate(2 459)"><circle class="e" cx="2" cy="2" r="2"/><circle class="f" cx="2" cy="2" r="1.5"/></g><g class="a" transform="translate(2 479)"><circle class="e" cx="2" cy="2" r="2"/><circle class="f" cx="2" cy="2" r="1.5"/></g><g class="a" transform="translate(2 513)"><circle class="e" cx="2" cy="2" r="2"/><circle class="f" cx="2" cy="2" r="1.5"/></g><rect class="b" width="108" height="34" rx="8" transform="translate(0 408)"/><text class="c" transform="translate(54 430)"><tspan x="-33.789" y="0">Packtech</tspan></text><text class="d" transform="translate(11 465)"><tspan x="0" y="0">Leno bags</tspan></text><text class="d" transform="translate(11 485)"><tspan x="0" y="0">Jute hessians and</tspan><tspan x="0" y="14">sacks</tspan></text><text class="d" transform="translate(11 519)"><tspan x="0" y="0">Wrapping fabrics</tspan></text><g class="a" transform="translate(135 459)"><circle class="e" cx="2" cy="2" r="2"/><circle class="f" cx="2" cy="2" r="1.5"/></g><g class="a" transform="translate(135 479)"><circle class="e" cx="2" cy="2" r="2"/><circle class="f" cx="2" cy="2" r="1.5"/></g><rect class="b" width="108" height="34" rx="8" transform="translate(137 408)"/><text class="c" transform="translate(191 430)"><tspan x="-27.93" y="0">Protech</tspan></text><text class="d" transform="translate(149 465)"><tspan x="0" y="0">Bullet proof jackets</tspan></text><text class="d" transform="translate(149 485)"><tspan x="0" y="0">High visibility </tspan><tspan x="0" y="14">clothing</tspan></text><rect class="b" width="108" height="34" rx="8" transform="translate(274 408)"/><text class="c" transform="translate(328 430)"><tspan x="-32.62" y="0">Sportech</tspan></text><g class="a" transform="translate(272 459)"><circle class="e" cx="2" cy="2" r="2"/><circle class="f" cx="2" cy="2" r="1.5"/></g><text class="d" transform="translate(285 465)"><tspan x="0" y="0">Swimwear</tspan></text><g class="a" transform="translate(272 479)"><circle class="e" cx="2" cy="2" r="2"/><circle class="f" cx="2" cy="2" r="1.5"/></g><text class="d" transform="translate(283 485)"><tspan x="0" y="0">Tents</tspan></text><g class="a" transform="translate(272 499)"><circle class="e" cx="2" cy="2" r="2"/><circle class="f" cx="2" cy="2" r="1.5"/></g><text class="d" transform="translate(285 505)"><tspan x="0" y="0">Sports composites</tspan><tspan x="0" y="14">and nets</tspan></text><g class="a" transform="translate(135 513)"><circle class="e" cx="2" cy="2" r="2"/><circle class="f" cx="2" cy="2" r="1.5"/></g><text class="d" transform="translate(149 519)"><tspan x="0" y="0">Industrial gloves</tspan></text></svg>