<svg xmlns="http://www.w3.org/2000/svg" xmlns:xlink="http://www.w3.org/1999/xlink" width="98" height="98" viewBox="0 0 98 98"><defs><style>.a,.c{fill:#f18f20;}.a{stroke:#707070;opacity:0.651;}.b{clip-path:url(#a);}</style><clipPath id="a"><rect class="a" width="98" height="98" transform="translate(611 2611)"/></clipPath></defs><g class="b" transform="translate(-611 -2611)"><g transform="translate(469.851 2619.711)"><path class="c" d="M66.753,81.24H52.112a1.609,1.609,0,0,1-.691-.155H38.962a1.625,1.625,0,0,1-.691.155H26.1a1.609,1.609,0,0,1-.691-.155H1.619A1.614,1.614,0,0,1,.005,79.471V58.322a1.618,1.618,0,0,1,.308-.83,1.682,1.682,0,0,1,.243-.262l.1-.084L9.22,50.656a1.607,1.607,0,0,1,.975-.312H43.3v-6.6h-.183a1.616,1.616,0,0,1-1.583-1.291L38.3,26.27a1.614,1.614,0,0,1,1.583-1.936h5.551L43.314,10a1.614,1.614,0,0,1,1.594-1.85H57.818V3.227H55.559a1.614,1.614,0,0,1,0-3.227H63.3a1.614,1.614,0,1,1,0,3.227H61.045V8.15H73.954A1.614,1.614,0,0,1,75.55,10L73.427,24.331H78.98a1.614,1.614,0,0,1,1.584,1.936L77.336,42.449a1.616,1.616,0,0,1-1.583,1.291h-.185V79.471a1.614,1.614,0,0,1-1.614,1.614h-6.51a1.609,1.609,0,0,1-.691.155Zm1.614-3.382H72.34V43.742H46.522V77.858H50.5V60.8a1.614,1.614,0,0,1,1.614-1.614H66.753A1.614,1.614,0,0,1,68.366,60.8Zm-14.641,0H65.139V62.412H53.725Zm-13.84,0H43.3v-17.8H3.232v17.8H24.487V64.975A1.611,1.611,0,0,1,26.1,63.361H38.271a1.614,1.614,0,0,1,1.614,1.614Zm-12.171,0h8.944V66.6H27.714ZM6.415,56.833H43.291V53.572H10.737ZM44.431,40.514h30l2.582-12.956H41.851ZM48.7,24.331h21.47L72.08,11.377h-25.3ZM21.389,66.6H6.746a1.614,1.614,0,1,1,0-3.227H21.389a1.614,1.614,0,1,1,0,3.227ZM66.753,50.379H52.112a1.614,1.614,0,0,1,0-3.227H66.753a1.614,1.614,0,0,1,0,3.227ZM8.807,43.03a1.614,1.614,0,0,1-.979-2.9l3.744-2.855a1.614,1.614,0,1,1,1.956,2.567L9.784,42.7A1.616,1.616,0,0,1,8.807,43.03Zm3.744-9.023a1.614,1.614,0,0,1-.979-2.9l11.134-8.483a1.614,1.614,0,1,1,1.956,2.567L13.527,33.673a1.594,1.594,0,0,1-.977.331ZM10.978,26.59a1.6,1.6,0,0,1-.906-.28L.713,19.948A1.614,1.614,0,0,1,1.5,17l9.467-.725,2.027-1.463-5.009-5a1.614,1.614,0,0,1,1.276-2.75l13.038,1.05,5.594-4.045a7.061,7.061,0,0,1,9.858,1.592,1.611,1.611,0,0,1-.364,2.253L11.929,26.285A1.62,1.62,0,0,1,10.978,26.59ZM6.341,19.871l4.615,3.135L33.9,6.439a3.851,3.851,0,0,0-4.122.23l-6.084,4.4a1.614,1.614,0,0,1-1.076.3l-9.251-.744,3.249,3.249a1.611,1.611,0,0,1-.2,2.451l-3.937,2.838a1.618,1.618,0,0,1-.82.3Zm56.134-.4H56.389a1.614,1.614,0,1,1,0-3.227h6.087a1.614,1.614,0,1,1,0,3.227Z" transform="translate(150.005)"/></g></g></svg>