<svg xmlns="http://www.w3.org/2000/svg" xmlns:xlink="http://www.w3.org/1999/xlink" width="414" height="379" viewBox="0 0 414 379"><defs><style>.a{fill:#fff;stroke:#707070;opacity:0.195;}.b{fill:#f6f6f6;}.c{opacity:0.8;clip-path:url(#a);}.d{fill:none;stroke:#fff;stroke-miterlimit:10;stroke-width:2px;}</style><clipPath id="a"><rect class="a" width="379" height="414"/></clipPath></defs><g transform="translate(57.815 -2838)"><g transform="translate(-57.815 2838)"><rect class="b" width="379" height="414" transform="translate(414) rotate(90)"/><g class="c" transform="translate(414) rotate(90)"><g transform="translate(-45.279 -282.132)"><path class="d" d="M0,449.18Q25.4,342.46,54.864,245.534c8.708-28.662,17.929-57.193,29.478-74.284,29.533-43.605,64.846-1.256,92.659,51.738,25.647,48.876,49.29,106.84,70.43,172.669,20.922,65.193,39.7,138.85,65.053,187.381s60.143,66.549,84.636,14.083c14.576-31.208,23.35-83.012,26.67-136.205s1.687-108.137-1.154-161.595c-3.266-61.226-8.023-125.064-1.666-183.976C427.568,54.351,446.628,7.638,467.649.96c29.9-9.521,56.192,53.722,81.4,103.509,32.015,63.276,69.222,110.386,107.355,103.707S733.085,130.685,744.526,20" transform="translate(0 249.73)"/><path class="d" d="M0,467.693Q24.924,362.724,54.1,268.047c8.621-27.968,17.733-55.771,29.086-72.565,22.806-33.721,49.062-16.53,72.6,16.53A308.88,308.88,0,0,1,174.291,242c25.351,46.211,48.8,101.423,69.853,164.471C264.99,468.85,283.67,540.06,308.75,586.707c14.064,26.216,30.73,44.167,47.146,47.407,14.293,2.777,28.477-5.852,40.331-30.481q3.167-6.579,6.02-14.414c11.637-32.1,18.7-78.252,21.771-125.625.975-15.021,1.633-30.215,1.97-45.49.871-40.1-.152-80.665-1.665-120.336-2.384-62.813-5.563-127.312,1.611-186.092S451.32,7.869,471.84,1.059C501.046-8.693,526.8,50.913,551.447,97.2c1.948,3.67,3.908,7.24,5.889,10.778C587.25,161.1,621.1,197.994,655.5,189.531c36.674-9.025,73.446-79.343,84.07-187.678" transform="translate(3.951 255.118)"/><path class="d" d="M0,502.5C16.308,433.723,34.129,368.37,53.34,306.89c8.534-27.307,17.548-54.35,28.695-70.879,22.4-33.06,48.126-17.72,71.29,13.224a285.456,285.456,0,0,1,18.266,28.1c25.049,43.555,48.3,96.027,69.255,156.3,20.748,59.507,39.374,128.369,64.226,173.4,14.6,26.447,31.7,45.225,48.615,49.258,14.7,3.306,29.391-4.661,41.7-29.456a148,148,0,0,0,6.248-14.645c12.127-32.7,19.366-80.235,22.7-128.932,1.043-15.575,1.77-31.33,2.177-47.176,1.088-41.192.5-82.913-.479-123.543-1.5-64.6-3.1-129.494,4.888-188.24,7.62-55.771,25.135-99.872,45.154-106.848,28.488-9.918,53.721,45.953,77.811,88.765q2.841,4.959,5.748,9.918c29.206,48.961,61.972,81.657,95,70.979,35.2-11.339,70.213-81.458,80.021-187.116" transform="translate(7.903 243.946)"/><path class="d" d="M0,539C16.006,471.36,33.584,407.282,52.6,347.256c8.426-26.613,17.341-52.895,28.3-69.16,21.978-32.63,47.179-18.844,69.973,9.918a267.368,267.368,0,0,1,18.048,26.58c24.751,40.87,47.8,90.58,68.667,148.074,20.683,56.928,39.243,123.08,63.757,166.454,15.142,26.778,32.657,46.283,50.074,51.11,15.109,4.132,30.338-3.5,43.075-28.464a143.8,143.8,0,0,0,6.531-14.844c12.606-33.324,20.019-82.285,23.589-132.5q1.677-24.016,2.438-48.5c1.35-42.316,1.143-85.194.7-126.783-.631-66.284-.686-131.576,8.164-190.356,8-53.193,24.885-95.872,44.4-103.112,27.78-10.215,52.48,42.085,76,81.392q2.787,4.661,5.617,9.124c28.51,44.8,60.176,73.326,91.821,60.433C687.507,172.9,720.752,103.146,729.754,0" transform="translate(11.844 231.185)"/><path class="d" d="M0,575.664c15.695-66.4,33.023-129.1,51.838-187.546,8.338-25.952,17.156-51.506,27.911-67.474,21.575-32.067,46.253-19.836,68.667,6.777a236.632,236.632,0,0,1,17.776,24.431c24.448,38.2,47.3,85.159,68.068,139.874,20.574,54.151,39.112,117.725,63.322,159.446,15.686,27.043,33.648,47.341,51.555,52.9,15.5,4.827,31.264-2.281,44.446-27.439a145.171,145.171,0,0,0,6.738-15.042C413.384,627.633,421,577.25,424.8,525.545q1.785-24.656,2.689-49.787c1.589-43.407,1.785-87.475,1.883-130.056.24-67.937,1.7-133.593,11.43-192.472,8.371-50.581,24.623-92.037,43.641-99.344,27.073-10.414,51.239,38.217,74.219,74.02,1.807,2.843,3.636,5.587,5.443,8.3,27.8,40.63,58.38,64.962,88.653,49.854C685.025,169.992,716.528,100.633,724.7,0" transform="translate(15.795 218.292)"/><path class="d" d="M0,612.228C15.384,547,32.464,485.624,51.076,428.682c8.24-25.257,16.949-50.052,27.508-65.755,21.173-31.506,45.317-21.092,67.361,3.471A210.128,210.128,0,0,1,163.47,389.01c24.154,35.5,46.814,79.7,67.491,131.643,20.487,51.44,39,112.4,62.9,152.5,16.231,27.274,34.606,48.366,53.024,54.812,15.9,5.488,32.189-1.124,45.807-26.448a145.216,145.216,0,0,0,6.989-15.24c13.574-34.547,21.336-86.352,25.375-139.544q1.9-25.322,2.928-51.143c1.84-44.5,2.406-89.723,3.07-133.262,1.089-69.656,4.05-135.544,14.717-194.588,8.709-48.035,24.362-88.136,42.879-95.608,26.354-10.645,50,34.349,72.411,66.648,1.774,2.545,3.549,5.058,5.345,7.471,27.095,36.365,56.606,56.631,85.474,39.308C682.685,167.115,712.424,98.12,719.783,0" transform="translate(19.747 205.497)"/><path class="d" d="M0,648.857C15.075,584.8,31.91,524.736,50.325,469.311c8.153-24.563,16.764-48.63,27.116-64.069,20.759-30.944,44.381-22.183,66.054.232A201.886,201.886,0,0,1,160.771,426.2c23.855,32.841,46.318,74.3,66.9,123.477,20.389,48.663,38.884,106.881,62.462,145.461,16.786,27.506,35.574,49.589,54.494,56.664,16.328,6.182,33.114,0,47.168-25.423a138.485,138.485,0,0,0,7.228-15.439c14.064-35.175,22-88.4,26.278-143.048,1.361-17.422,2.384-35.01,3.179-52.465,2.079-45.622,3.037-92,4.256-136.535,1.938-71.309,6.357-137.56,17.983-196.7,8.97-45.424,24.1-84.17,42.117-91.707,25.658-10.877,48.768,30.481,70.626,59.309,1.72,2.248,3.462,4.463,5.2,6.612,26.4,32.266,54.788,48.267,82.307,28.729C680.311,164.372,708.288,95.872,714.841,0" transform="translate(23.698 192.637)"/><path class="d" d="M0,685.421c14.765-62.863,31.352-121.591,49.562-175.48,8.055-23.9,16.568-47.209,26.724-62.383,20.356-30.382,43.456-23.34,64.748-3.074a175.369,175.369,0,0,1,17.036,18.91c23.548,30.172,45.811,68.866,66.3,115.245,20.3,45.92,38.786,101.427,62.048,138.552,17.352,27.7,36.554,50.449,55.974,58.515,16.7,6.843,34.039,1.223,48.539-24.431a136.035,136.035,0,0,0,7.468-15.67c14.554-35.77,22.653-90.384,27.214-146.552,1.426-17.852,2.525-35.9,3.407-53.788,2.33-46.713,3.69-94.252,5.443-139.742,2.808-73.028,8.632-139.577,21.26-198.853,9.166-42.977,23.85-80.268,41.366-88.07,24.939-11.108,47.516,26.448,68.83,51.936q2.515,2.975,5.062,5.785c25.69,28.1,52.991,39.936,79.139,18.183C677.993,161.363,704.205,93.1,710,0" transform="translate(27.65 179.81)"/><path class="d" d="M0,722.018c14.464-61.692,30.81-119.106,48.822-171.479,7.957-23.142,16.328-45.787,26.321-60.664,19.953-29.754,42.454-24.332,63.431-6.348a158.45,158.45,0,0,1,16.8,17.059C178.623,528.059,200.69,564,221.088,607.632c20.215,43.176,38.7,95.873,61.6,131.544,17.907,27.9,37.523,51.507,57.433,60.366,17.112,7.538,34.976,2.413,49.911-23.439a129.279,129.279,0,0,0,7.718-15.835c15.033-36.365,23.317-92.566,28.074-150.057,1.5-18.315,2.678-36.828,3.658-55.11,2.569-47.837,4.354-96.5,6.618-143.015,3.69-74.681,10.886-141.561,24.536-200.935,9.34-40.564,23.589-76.367,40.614-84.335,24.231-11.339,46.275,22.745,67.023,44.564,1.633,1.719,3.266,3.306,4.931,4.959,25.037,23.9,51.163,31.572,75.96,7.6C675.576,158.454,700.025,90.583,704.946,0" transform="translate(31.634 166.983)"/><path class="d" d="M0,758.549c14.158-60.5,30.257-116.594,48.06-167.446,7.9-22.513,16.176-44.365,25.93-58.878,19.54-29.258,41.572-25.456,62.125-9.654a141.262,141.262,0,0,1,16.557,15.24c22.948,24.793,44.815,57.987,65.118,98.848,20.128,40.4,38.622,90.319,61.167,124.568,18.506,28.035,38.5,52.565,58.913,62.218,17.515,8.2,35.923,3.6,51.282-22.447a131.432,131.432,0,0,0,7.958-16.034c15.523-37.026,23.948-94.484,28.967-153.561,1.578-18.778,2.83-37.721,3.908-56.432,2.808-48.961,4.975-98.782,7.8-146.255,4.55-76.4,13.063-143.61,27.813-203.084,9.471-38.184,23.328-72.433,39.842-80.566,23.524-11.571,45.045,18.877,65.238,37.192,1.589,1.422,3.19,2.81,4.79,4.132,24.286,19.836,49.4,23.142,72.792-2.942C673.2,155.611,695.9,88.07,700,0" transform="translate(35.542 154.222)"/><path class="d" d="M0,795.476c13.847-59.35,29.7-114.131,47.309-163.446,7.761-21.852,15.969-42.978,25.527-57.259,19.137-28.729,40.636-26.448,60.818-12.926a139.409,139.409,0,0,1,16.329,13.224c22.65,22.117,44.324,52.559,64.541,90.649,20.03,37.654,38.535,84.764,60.731,117.592,19.05,28.2,39.461,53.622,60.383,64.069,17.918,8.893,36.826,4.793,52.643-21.422a128.982,128.982,0,0,0,8.2-16.232c16.013-37.622,24.634-96.5,29.87-157.1,1.655-19.208,2.983-38.613,4.147-57.755,3.059-50.019,5.628-101.03,8.992-149.495,5.443-78.086,15.24-145.726,31.089-205.167,9.579-35.869,23.078-68.532,39.09-76.83,22.86-11.8,43.793,15.009,63.431,29.753,1.557,1.157,3.1,2.248,4.67,3.306,23.567,15.571,47.592,14.877,69.614-13.521,23.459-30.183,44.4-97.327,47.69-182.918" transform="translate(39.493 141.065)"/><path class="d" d="M0,831.841c13.542-58.156,29.152-111.6,46.547-159.38,7.62-21.191,15.784-41.523,25.135-55.573,18.734-28.166,39.711-27.7,59.512-16.2a121.466,121.466,0,0,1,16.056,11.5c22.348,19.44,43.826,47.13,63.953,82.451,19.943,34.91,38.459,79.111,60.307,110.616,19.594,28.3,40.429,54.647,61.852,65.921,18.31,9.554,37.752,5.951,54-20.431a128.589,128.589,0,0,0,8.447-16.53c16.492-38.184,25.287-98.451,30.763-160.5,1.731-19.836,3.135-39.671,4.354-59.077C434.2,563.5,437.2,511.33,441.109,461.906c6.3-79.772,17.3-147.941,34.355-207.316,9.656-33.589,22.86-64.6,38.329-73.028,22.109-12.034,42.563,11.108,61.646,22.414q2.253,1.339,4.528,2.479c22.86,11.406,45.8,6.612,66.4-24.067C668.37,149.825,687.55,83.045,690.021,0" transform="translate(43.445 128.436)"/><path class="d" d="M0,868.306c13.234-56.992,28.6-109.133,45.785-155.38,7.62-20.5,15.588-40.068,24.754-53.887,18.31-27.571,38.764-28.795,58.195-19.472a99.791,99.791,0,0,1,15.817,9.686c22.043,16.73,43.322,41.657,63.355,74.218,19.855,32.167,38.394,73.491,59.871,103.641,20.215,28.365,41.366,55.705,63.322,67.772,18.723,10.248,38.688,7.141,55.386-19.406a122.586,122.586,0,0,0,8.708-16.53c16.982-38.845,25.952-100.534,31.656-164.107,1.8-20.1,3.266-40.4,4.648-60.4,3.538-52.234,6.945-105.525,11.354-155.941,7.228-81.426,19.366-150.288,37.632-209.464,9.71-31.406,22.566-60.7,37.577-69.26,21.4-12.265,41.365,7.207,59.871,15.042,1.47.6,2.928,1.157,4.354,1.653,22.163,7.207,43.989-1.818,63.268-34.646C666.084,146.916,683.5,80.533,685.167,0" transform="translate(47.396 115.675)"/><path class="d" d="M0,905.068C12.925,849.235,28.048,798.41,45.034,753.722c7.489-19.835,15.392-38.679,24.351-52.2,17.907-27.043,37.839-29.753,56.888-22.745a86.288,86.288,0,0,1,15.567,7.835c21.743,14.067,42.826,36.277,62.767,66.119,19.768,29.39,38.339,67.772,59.447,96.666,20.792,28.4,42.378,56.73,64.792,69.623,19.126,10.91,39.613,8.3,56.747-18.414a123.318,123.318,0,0,0,8.937-16.86c17.417-39.473,26.6-102.484,32.548-167.611,1.872-20.563,3.44-41.324,4.888-61.722,3.788-53.358,7.62-107.807,12.54-159.214,8.11-83.111,21.379-152.767,40.908-211.58,9.8-29.291,22.3-56.8,36.826-65.524,20.683-12.5,40.081,3.306,58.042,7.67,1.415.331,2.83.6,4.256.826,21.467,3.042,42.193-10.149,60.089-45.192C663.7,144.007,679.354,77.888,680.235,0" transform="translate(51.348 102.749)"/><path class="d" d="M0,941.632c12.625-54.665,27.508-104.185,44.283-147.346,7.391-19.108,15.24-37.225,23.948-50.482,17.5-26.447,36.9-31.043,55.582-26.051a72.054,72.054,0,0,1,15.327,5.984c21.436,11.394,42.323,30.839,62.179,57.887C221,808.3,239.594,843.71,260.342,871.315c21.38,28.431,43.347,57.788,66.261,71.474,19.518,11.6,40.538,9.488,58.119-17.389a122.933,122.933,0,0,0,9.166-17.059c17.951-40.1,27.269-104.633,33.452-171.116,1.949-21.026,3.592-42.25,5.138-63.077C436.5,619.7,440.718,564.093,446.2,511.727c8.981-84.8,23.35-155.379,44.185-213.7,9.743-27.241,22.044-52.9,36.053-61.755,19.986-12.728,38.84-.529,56.257.3h4.115c20.759-1.124,40.4-18.513,56.921-55.771,17.6-39.671,31.5-105.261,31.568-180.8" transform="translate(55.288 89.955)"/><path class="d" d="M0,978.46c12.324-53.5,26.97-101.692,43.543-143.28,7.208-18.965,15.112-35.339,23.557-48.8,17.09-25.919,35.923-32.2,54.276-29.324a73.036,73.036,0,0,1,15.077,4.133c21.131,8.667,41.822,25.326,61.591,49.589,19.594,23.9,38.209,56.2,58.576,82.649,21.978,28.431,44.316,58.879,67.741,73.359,19.921,12.232,41.464,10.678,59.479-16.53A121.9,121.9,0,0,0,393.256,933c18.44-40.729,27.922-106.65,34.344-174.653,2.025-21.456,3.745-42.977,5.377-64.367,4.267-55.573,8.883-112.4,14.913-165.694,9.852-86.451,25.276-158.289,47.462-215.779,9.8-25.29,21.771-48.961,35.3-58.019,19.268-12.959,37.6-4.4,54.428-7.075,1.328-.2,2.656-.5,3.984-.826,20.051-5.29,38.6-26.844,53.753-66.317C658.954,138.288,671.124,73,670.307,0" transform="translate(59.24 76.863)"/><path class="d" d="M0,1014.892c12.018-52.332,26.418-99.224,42.77-139.28,7.135-18.2,14.9-33.988,23.165-47.076,16.688-25.357,35.041-33.324,52.97-32.63a70.859,70.859,0,0,1,14.826,2.314c20.811,5.98,41.292,19.886,60.96,41.391,19.5,21.158,38.154,50.614,58.151,75.739,22.577,28.365,45.284,59.9,69.2,75.177,20.334,12.926,42.4,11.868,60.851-15.373a121.645,121.645,0,0,0,9.666-17.455c18.919-41.225,28.618-108.7,35.248-178.157,2.1-21.918,3.908-44.035,5.628-65.689,4.507-56.664,9.525-114.584,16.1-168.933,10.722-88.17,27.16-161.4,50.727-217.928,9.8-23.373,21.532-45.027,34.54-54.251,18.571-13.224,36.369-8.265,52.665-14.447,1.285-.5,2.569-1.058,3.843-1.653,19.355-9.488,36.8-35.208,50.575-76.9,14.674-44.3,25.037-109.1,23.448-179.744" transform="translate(63.202 64.201)"/><path class="d" d="M0,1051.885c11.7-51.288,25.867-96.974,42.019-135.544a284.007,284.007,0,0,1,22.762-45.357c16.329-24.828,34.1-34.481,51.663-35.9a64.534,64.534,0,0,1,14.587.463c20.514,3.226,40.81,14.335,60.4,33.059,19.409,18.414,38.1,44.828,57.694,68.731C272.316,965.6,295.394,998.3,319.81,1014.4c20.737,13.587,43.325,13.026,62.223-14.381a120.559,120.559,0,0,0,9.906-17.687c19.409-41.92,29.239-110.683,36.13-181.662,2.177-22.348,4.06-44.927,5.878-67.011,4.746-57.755,10.167-116.832,17.275-172.174,11.6-89.823,29.01-164.768,54-220.01,9.8-21.555,21.281-41.126,33.746-50.515,17.853-13.422,35.117-12.133,50.858-21.819,1.241-.76,2.482-1.587,3.712-2.479C612,253.506,628.6,222.885,640.949,179.215,654.142,132.535,662.72,67.97,660.347,0" transform="translate(67.143 51.11)"/><path class="d" d="M0,1088.052c11.411-50.015,25.332-94.29,41.257-131.213a289.719,289.719,0,0,1,22.37-43.7c15.871-24.232,33.18-35.671,50.357-39.143a66.277,66.277,0,0,1,14.336-1.421c20.208.6,40.309,9.007,59.817,25.026,19.322,15.637,38.1,39.01,57.291,61.755,23.785,28.133,47.233,62.119,72.161,78.88,21.129,14.282,44.25,14.215,63.583-13.389a117.425,117.425,0,0,0,10.145-17.852c19.9-42.547,29.9-112.733,37.011-185.133,2.242-22.811,4.213-45.821,6.118-68.334,5-58.879,10.82-119.014,18.506-175.413,12.475-91.509,30.828-168.438,57.291-222.159,10.086-21,21.246-36.794,33.027-46.746,17.145-13.62,33.876-16,49.062-29.191,1.2-1.025,2.384-2.149,3.571-3.306,17.794-17.592,33.284-51.922,44.229-98.021C651.867,129.659,658.725,65.491,655.492,0" transform="translate(71.094 38.547)"/><path class="d" d="M0,1124.748c11.114-48.862,24.8-91.84,40.506-127.213A298.544,298.544,0,0,1,62.484,955.55c15.386-22.919,32-37.295,49.051-42.448a75.232,75.232,0,0,1,14.1-3.306c19.9-2.094,39.8,3.55,59.229,16.794,19.224,12.893,37.991,33.06,56.856,54.78,24.395,27.935,48.2,63.044,73.62,80.732,21.532,14.976,45.176,15.405,64.955-12.364a117.719,117.719,0,0,0,10.385-18.051C411.054,988.51,421.232,916.9,428.6,843.015c2.319-23.142,4.354-46.746,6.368-69.689,5.236-59.97,11.462-121.361,19.594-178.521,13.346-93.228,32.657-172.4,60.557-224.308,10.055-18.751,20.912-33.213,32.265-42.978,16.437-13.852,32.657-19.835,47.266-36.564,1.154-1.322,2.308-2.678,3.44-4.132,17.15-22.075,31.548-60.128,41.115-108.666C649.472,126.75,654.567,62.945,650.528,0" transform="translate(75.035 25.621)"/><path class="d" d="M0,1160.981c10.807-47.71,24.249-89.384,39.733-123.179,20.422-45.558,44.234-75.085,69.32-85.955a75.283,75.283,0,0,1,13.847-5.091c19.587-4.809,39.3-1.92,58.641,8.6,19.137,10.15,37.937,27.34,56.42,47.8,25.037,27.671,49.181,64.069,75.111,82.649,21.935,15.637,46.1,16.53,66.316-11.372a116.231,116.231,0,0,0,10.635-18.249c20.868-43.8,31.22-116.8,38.818-192.208,2.395-23.7,4.518-47.639,6.608-70.979,5.443-61.094,12.116-123.609,20.835-181.827,14.228-94.881,34.377-176.67,63.834-226.391,10.018-16.55,20.6-29.709,31.569-39.242,15.73-14.083,31.394-23.736,45.47-43.936,1.089-1.587,2.177-3.306,3.266-4.959,16.444-26.547,29.7-68.2,37.882-119.014A758.674,758.674,0,0,0,645.575,0" transform="translate(78.986 13.158)"/><path class="d" d="M0,1197.908c24.264-108.7,64.226-180.537,106.614-206.786s86.857-9.257,127.645,34.283c25.636,27.373,50.139,65.16,76.559,84.433s56.148,17.82,78.573-28.795c28.052-58.35,37.414-168.6,46.569-268.013,15.055-163.578,39.188-337.5,89.121-413.672,24.906-37.919,54.047-47.44,77.6-92.566C635.343,244.177,651.671,112.4,640.622,0" transform="translate(82.938 0)"/></g><g transform="translate(-185.434 -1018.929)"><path class="d" d="M.389,1410.341c-4.572-81.731,31.96-150.794,68.808-163.462s73.816,13.51,110.337,30.313,77.593,22.332,108.095-25.072c38.992-60.6,48.006-188.078,88.174-245,31.264-44.351,71.965-31.082,103.991,1.923,18.114,18.654,33.517,50.048,50.825,71.923,78.518,99.159,83.82,301.828,150.517,332.044,72.172,32.765,111.36-45,124.989-98.822,17.417-69.063,46.58-248.318-24.754-372.886-28.989-50.6-57.6-104.544-78.91-171.179-31.928-99.736-31.71-252.26,9.111-334.688,27.976-56.491,70.942-77.164,89.948-149.592,12.769-48.678,11.027-111.443,0-162.236A373.809,373.809,0,0,0,750.684,0" transform="translate(0 0)"/><path class="d" d="M.192,1401.224c-3.157-83.815,33.18-156.136,71.127-170.552,37.011-14.057,74.621,11.854,111.143,30.318,36.086,18.272,76.2,26.533,106.549-16.38,38.84-54.935,49.759-175.486,89.829-231.45,31.917-44.326,71.965-36.089,104.764-7.352,18.843,16.524,35.542,46,53.666,68.082,76.864,93.682,83.232,289.019,148.437,318.714,70.18,31.874,109.161-41.428,123.324-94.3,17.95-67.052,45.72-239.041-21.684-361.6C759.555,886.119,732,831.328,711.027,765.4c-30.981-97.034-31.263-243.543,7.261-324.964,26.659-56.324,68.079-79.265,87-150.484,12.987-48.709,12.192-110.325,2.6-161.285A408.094,408.094,0,0,0,760.578,0" transform="translate(1.852 10.91)"/><path class="d" d="M.06,1395.967c-1.742-86,34.4-161.836,73.446-178.007,37.24-15.406,75.427,10.215,111.948,30.429,35.662,19.736,74.708,30.764,105.014-7.823,38.677-49.423,51.435-163.6,91.516-218.555,32.515-44.615,72.009-41.242,105.526-16.6,19.594,14.353,37.556,42.079,56.519,64.447,75.111,88.7,82.557,277.045,146.358,306.207,68.155,31.1,106.9-37.965,121.6-89.924,18.429-65.117,44.881-230.564-18.593-351.659-26.615-50.739-53.111-106.43-73.74-171.93-30.044-94.565-30.817-235.588,5.443-316.134,25.331-56.194,65.183-81.432,84.026-151.644,13.2-48.85,13.357-109.565,5.138-160.806A445.46,445.46,0,0,0,770.538,0" transform="translate(3.637 21.753)"/><path class="d" d="M0,1390.579c-.327-88.251,35.618-167.517,75.764-185.463,37.436-16.728,76.2,8.555,112.754,30.54,35.226,21.172,73.261,34.985,103.468.74,38.524-43.946,53.166-151.649,93.214-205.727,33.147-44.759,72.085-46.432,106.3-25.832,20.367,12.259,39.559,38.235,59.36,60.841,73.348,83.925,81.936,265.087,144.29,293.931,66.109,30.349,104.622-34.507,119.873-85.551,18.9-63.231,44.054-222.241-15.512-341.485-25.44-50.924-50.782-107.536-71.149-172.511-28.978-92.313-30.382-227.689,3.56-307.36,24.025-56.372,62.277-84,81.109-153.131,13.367-49.156,14.543-108.9,7.7-160.324A479.405,479.405,0,0,0,780.571,0" transform="translate(5.35 32.762)"/><path class="d" d="M0,1385.388c1.089-90.5,36.837-173.168,78.094-192.886,37.61-18,77.005,6.875,113.548,30.6,34.834,22.607,71.845,39.222,101.933,9.286,38.361-38.458,54.886-139.7,94.9-192.91,33.746-44.927,72.194-51.683,107.061-35.044,21.162,10.1,41.573,34.328,62.2,57.293,71.519,79.374,81.316,253.187,142.221,281.546,64.073,29.625,102.325-31.033,118.153-81.165,19.355-61.351,43.238-214.084-12.42-331.415-24.275-51.158-48.518-108.737-68.58-173.12-28.009-89.9-29.947-219.861,1.709-298.567,22.729-56.529,59.4-86.417,78.181-154.6,13.564-49.2,15.73-108.14,10.243-159.823A517.249,517.249,0,0,0,790.66,0" transform="translate(7.007 43.572)"/><path class="d" d="M0,1379.966c2.515-92.713,38.1-178.725,80.413-200.306,37.806-19.267,77.811,5.2,114.354,30.714,34.377,24.013,70.4,43.567,100.388,17.813,38.241-32.836,56.606-127.767,96.6-180.132,34.421-45.069,72.314-56.992,107.833-44.21,21.957,7.893,43.543,30.475,65.042,53.606,69.668,74.971,80.7,241.273,140.142,269.2,62.048,28.854,100.072-27.614,116.477-76.832,19.79-59.472,42.454-206.053-9.351-321.3A1521.785,1521.785,0,0,1,745.919,754.8c-27.029-87.515-29.522-212.229-.131-289.824,21.39-56.539,56.475-88.636,75.177-155.714,13.781-49.361,16.971-107.474,12.791-159.339C829.336,94.907,817.427,44.187,800.75,0" transform="translate(8.662 54.581)"/><path class="d" d="M0,1374.71c3.93-94.949,39.276-184.3,82.731-207.692,38-20.486,78.605,3.478,115.16,30.824,33.952,25.369,68.95,47.785,98.853,26.2,38.1-27.346,58.347-115.84,98.287-167.364,35.052-45.259,72.455-62.362,108.6-53.382,22.773,5.67,45.545,26.655,67.894,50.023C639.25,1124.094,651.6,1282.81,709.594,1310.3c59.991,28.18,97.764-24.226,114.713-72.486,20.225-57.646,41.659-198.235-6.27-311.264a1805.344,1805.344,0,0,1-63.4-174.319c-26.126-85.088-29.108-204.452-1.981-281.083,20.084-56.741,53.634-90.995,72.27-157.049,13.977-49.523,18.179-106.859,15.338-158.836C837.2,99.237,826.735,46.5,810.874,0" transform="translate(10.316 65.458)"/><path class="d" d="M0,1369.388c5.356-97.154,40.495-189.811,85.05-215.081,38.209-21.677,79.465,1.761,115.965,30.933,33.528,26.745,67.491,52.015,97.307,34.812,37.926-21.891,60.078-103.959,99.985-154.666,35.694-45.353,72.607-67.815,109.368-62.533,23.578,3.379,47.516,22.867,70.757,46.4,65.728,66.625,79.465,217.555,136.006,244.61,57.955,27.34,95.467-20.773,112.993-68.148,20.683-55.8,40.919-190.572-3.179-301.217Q791.3,841.4,763.445,749.558c-25.1-82.687-28.705-196.878-3.832-272.331,18.778-56.941,50.76-93.3,69.331-158.33,13.366-47.42,19.615-102.787,17.874-158.354C845.131,103.436,836.053,48.708,820.965,0" transform="translate(11.971 76.4)"/><path class="d" d="M0,1364.2c6.749-99.38,41.714-195.313,87.368-222.506,38.4-22.842,80.206,0,116.771,31.019,33.1,28.048,66.065,56.215,95.794,43.261,37.751-16.448,61.82-92.035,101.672-141.9,36.336-45.471,72.771-73.305,110.13-71.665,24.406,1.07,49.5,19.016,73.576,42.785,63.725,62.751,78.834,205.724,133.894,232.323,55.92,26.621,93.17-17.376,111.284-63.8,21.053-54,40.223-183.025-.109-291.223-19.594-52.673-39.45-113.142-58.217-175.513-24.144-80.293-28.3-189.394-5.682-263.626,17.417-57.213,47.9-95.624,66.4-159.659,13.608-47.245,20.7-102.043,20.432-157.853-.43-58.66-8.13-115.97-22.283-165.839" transform="translate(13.626 87.211)"/><path class="d" d="M0,1358.808c8.186-101.573,42.944-200.746,89.687-229.784,38.612-24,81.011-1.733,117.565,31.127,32.657,29.346,64.606,60.378,94.226,51.712,37.6-11.017,63.561-80.18,103.414-129.233,37.011-45.587,72.934-78.85,110.9-80.726,25.222-1.282,51.446,15.385,76.417,39.247,61.689,58.954,78.2,193.909,131.847,220.073,53.884,25.856,90.852-13.984,109.564-59.5,21.456-52.234,39.58-175.864,2.983-281.211-18.506-53.208-37.207-114.2-55.637-176.1-23.187-77.853-27.965-181.99-7.533-254.928,16.122-57.529,45.023-97.892,63.442-160.93,13.864-47.143,21.79-101.42,22.98-157.368C860.921,111.456,854.437,52.238,841.115,0" transform="translate(15.28 98.186)"/><path class="d" d="M0,1353.651c9.6-103.788,44.174-206.176,92.006-237.175,38.818-25.117,81.828-3.486,118.382,31.212,32.276,30.643,63.137,64.583,92.692,60.147,37.425-5.6,65.314-68.306,105.058-116.571,37.632-45.68,73.086-84.434,111.676-89.842,26.028-3.652,53.394,11.716,79.248,35.576,59.643,55.286,77.593,182.15,129.79,207.884,51.838,25.117,88.522-10.649,107.834-55.191,21.859-50.4,38.992-168.844,6.063-271.233C825.439,864.6,807.8,803.169,789.7,741.764c-22.239-75.469-27.639-174.679-9.383-246.258,14.772-57.894,42.16-100.183,60.492-162.228,14.815-50.115,23.306-104.475,25.527-156.867C868.917,115.686,863.678,54.6,851.206,0" transform="translate(16.935 108.964)"/><path class="d" d="M0,1348.1c11.027-105.894,45.4-211.551,94.314-244.432,39.025-26.249,82.633-5.283,119.2,31.318,31.851,31.886,61.7,68.7,91.135,68.558,37.262-.213,67.056-56.476,106.756-103.951,38.285-45.769,73.228-90.022,112.438-98.882,26.855-6.065,55.354,8.078,82.1,32.1,57.564,51.715,76.962,170.377,127.711,195.655,49.813,24.377,86.193-7.273,106.114-50.862,22.239-48.635,38.492-161.991,9.155-261.276-16.122-54.487-32.657-116.341-50.466-177.271-21.292-73.036-27.345-167.44-11.234-237.586,13.4-58.3,39.3-102.459,57.553-163.46a715.041,715.041,0,0,0,28.074-156.353C876.94,119.942,872.932,56.968,861.286,0" transform="translate(18.59 120.138)"/><path class="d" d="M0,1343.005c12.442-108.194,46.645-216.908,96.643-251.79,39.188-27.333,83.46-7.1,120,31.426,31.438,33.13,60.252,72.839,89.6,76.933,37.1,5.182,68.8-44.631,108.443-91.321,38.938-45.862,73.38-95.723,113.211-107.957,27.66-8.5,57.28,4.5,84.908,28.563,55.463,48.228,76.32,158.883,125.632,183.494,47.755,23.854,83.82-3.976,104.4-46.571,22.61-46.9,38.1-155.357,12.225-251.364-14.881-55.327-30.48-117.4-47.9-177.862-20.356-70.615-27.094-160.279-13.063-228.93,11.974-58.759,36.434-104.715,54.6-164.776,15.24-50.405,25.984-103.272,30.632-155.9,5.615-62.7,2.842-127.576-7.99-186.949" transform="translate(20.244 130.849)"/><path class="d" d="M0,1337.518c13.857-110.361,47.9-222.187,98.962-258.99,39.45-28.364,84.277-8.911,120.831,31.508,31.035,34.368,58.783,76.985,88.054,85.329,36.935,10.518,70.55-32.832,110.141-78.758S491.5,1015.229,531.961,999.629c28.466-10.944,59.218.993,87.782,25.008,53.34,44.91,75.7,147.187,123.574,171.367,45.72,23.093,81.5-.685,102.674-42.286,22.979-45.193,37.73-148.912,15.316-241.427-13.64-56.208-28.227-118.444-45.317-178.435-19.42-68.216-26.877-153.215-14.935-220.3,10.559-59.281,33.582-106.981,51.664-166.073,15.523-50.512,27.334-102.632,33.169-155.389,7.144-63.605,5.613-130.35-4.409-192.1" transform="translate(21.899 141.924)"/><path class="d" d="M0,1332.228c15.316-112.549,49.116-227.484,101.313-266.3,39.667-29.466,85.1-10.743,121.615,31.614,30.643,35.557,57.357,81.078,86.519,93.662,36.772,15.866,72.292-21.013,111.829-66.109,40.277-45.993,73.631-107.072,114.746-125.961,29.261-13.458,61.134-2.479,90.623,21.462,51.239,41.578,75.111,135.5,121.5,159.251,43.673,22.335,79.161,2.573,100.954-38.036,23.35-43.466,37.512-142.558,18.4-231.522-12.279-57.137-25.962-119.467-42.7-179.012C806.28,665.5,798.062,585.084,808.011,519.59c9.068-59.8,30.719-109.221,48.713-167.326,15.686-50.644,28.695-102,35.716-154.906A729.1,729.1,0,0,0,891.613,0" transform="translate(23.564 152.834)"/><path class="d" d="M0,1327.072c16.688-114.713,50.357-232.727,103.588-273.575,39.885-30.518,86-12.594,122.42,31.72,30.24,36.72,55.909,85.185,84.974,102,36.608,21.225,74.023-9.245,113.527-53.7,40.908-46.06,73.74-112.779,115.508-134.947,30.055-15.943,63.05-5.849,93.475,17.924,49.105,38.418,74.447,123.839,119.416,147.164,41.638,21.6,76.8,5.825,99.234-33.749,23.709-41.791,37.414-136.41,21.488-221.689-10.886-58.158-23.731-120.491-40.125-179.569-17.569-63.37-26.615-139.145-18.625-203.105,7.544-60.375,27.867-111.482,45.72-168.6,15.915-50.776,30.077-101.411,38.274-154.4A737.865,737.865,0,0,0,901.606,0" transform="translate(25.219 163.611)"/><path class="d" d="M0,1321.716c18.07-116.865,51.576-237.922,105.874-280.748,40.1-31.589,86.781-14.487,123.226,31.778,29.859,37.9,54.428,89.28,83.439,110.316,36.445,26.478,75.808,2.521,115.214-41.2,41.572-46.077,73.848-118.49,116.281-143.884,30.828-18.468,64.944-9.164,96.316,14.393,46.961,35.335,73.827,112.2,117.348,135.1,39.591,20.848,74.436,9.022,97.514-29.493,24.057-40.164,37.425-130.315,24.558-211.8-9.351-59.245-21.5-121.529-37.523-180.161-16.655-60.941-26.572-132.247-20.487-194.531,5.954-60.941,25.037-113.684,42.824-169.843,16.133-50.906,31.46-100.658,40.81-153.919C917.127,141.442,919.328,69.035,911.708,0" transform="translate(26.906 174.554)"/><path class="d" d="M0,1316.327C19.529,1197.294,52.872,1073.2,108.225,1028.45c40.277-32.611,87.63-16.353,124.031,31.882,29.468,39.058,53.035,93.2,81.893,118.609,36.325,31.6,77.571,14.235,116.912-28.729C473.3,1104.073,505,1025.98,548.1,997.275c31.568-20.988,66.838-12.353,99.158,10.894,44.827,32.235,73.239,100.375,115.279,123.056,37.577,19.929,72.074,12.212,95.794-25.247,24.406-38.54,37.588-124.256,27.65-201.973A1380.041,1380.041,0,0,0,851.042,723.28C835.3,664.787,824.46,598.012,828.705,537.4c4.354-61.5,22.163-115.9,39.874-171.1,16.328-51.011,32.853-99.951,43.368-153.432C925.21,145.751,928.659,71.474,921.832,0" transform="translate(28.528 185.563)"/><path class="d" d="M0,1311.037c20.955-121.221,54.134-248.295,110.555-295.133,40.549-33.631,88.49-18.237,124.837,31.986,29.1,40.188,51.6,97.3,80.358,126.908,36.162,36.921,79.324,25.969,118.654-16.286,42.9-46.157,74.023-129.94,117.816-161.738,32.363-23.5,68.71-15.464,102,7.356,42.672,29.283,72.607,88.813,113.211,111.069,35.542,19.2,69.668,15.346,94.074-21.01,24.754-36.944,37.893-118.143,30.73-192.173-6.365-63.679-17.279-124.833-32.352-181.268-14.837-56.075-26.637-118.307-24.188-177.437,2.569-62.021,19.322-118.1,36.935-172.361,16.59-51.116,34.246-99.2,45.916-152.925C933.328,150.079,938.027,73.932,932,0" transform="translate(30.172 196.472)"/><path class="d" d="M0,1305.847c22.359-123.359,55.386-253.526,112.863-302.236,40.778-34.625,89.35-20.141,125.642,32.066,28.727,41.315,50.15,101.387,78.812,135.144,36.01,42.254,81.12,37.818,120.3-3.9,43.608-45.987,74.088-135.66,118.578-170.637,33.125-26.057,70.583-18.427,104.851,3.873,40.506,26.362,71.987,77.325,111.132,99.063,33.5,18.474,67.317,18.474,92.343-16.785s38.318-111.9,33.822-182.351c-4-62.536-14.87-124.416-29.772-181.858-13.945-53.64-26.746-111.246-26.039-168.9.773-62.513,16.524-120.237,33.985-173.712,16.873-51.151,35.65-98.593,48.463-152.444C941.293,154.421,947.248,76.4,942.014,0" transform="translate(31.837 207.283)"/><path class="d" d="M0,1300.492C23.774,1174.935,56.682,1042.086,115.181,991c41.028-35.5,90.221-22.063,126.448,32.169,28.3,42.438,48.713,105.51,77.288,143.353,35.846,47.5,82.862,49.425,121.985,8.488,44.261-46.049,74.142-141.36,119.351-179.508,33.876-28.581,72.422-21.219,107.681.4C706.328,1019.343,739.3,1061.547,777,1083c31.47,17.749,64.944,21.547,90.634-12.568,25.44-33.787,38.851-105.51,36.892-172.591C902.673,834.4,891.853,772.4,877.31,715.451c-13.063-51.231-26.9-104.127-27.889-160.422-1.088-62.884,13.662-122.438,31.046-174.842,17.091-51.3,37.011-97.7,51.01-151.934C949.321,158.731,956.539,78.863,952.1,0" transform="translate(33.492 218.324)"/><path class="d" d="M0,1295.1c25.2-127.63,57.923-263.573,117.5-316.475,41.246-36.6,91.1-23.98,127.254,32.271,28,43.535,47.266,109.481,75.753,151.493,35.694,52.761,84.6,61,123.683,20.842,44.9-46.157,74.2-147.067,120.113-188.353,34.627-31.147,74.273-23.863,110.533-3.115s70.757,54.26,106.984,75.2c29.391,17,62.571,24.613,88.914-8.36,25.788-32.27,39.5-98.661,39.983-162.828s-10.5-126.459-24.6-182.967c-12.159-48.78-27.094-96.858-29.74-151.915-3.026-63.229,10.8-124.656,28.1-176.082s38.448-96.928,53.558-151.446C957.386,163.058,965.849,81.333,962.2,0" transform="translate(35.147 229.234)"/></g></g></g></g></svg>