<svg xmlns="http://www.w3.org/2000/svg" width="98" height="98" viewBox="0 0 98 98"><defs><style>.a{fill:none;}.b{fill:#f18f20;}</style></defs><g transform="translate(0 0.042)"><g transform="translate(0 0.411)"><rect class="a" width="98" height="98" transform="translate(0 -0.453)"/><path class="b" d="M126.784,128.993a12.856,12.856,0,0,0,6.75-23.795A12.849,12.849,0,0,0,116.98,91.376c.279-5.651-1.613-11.318-5.547-16.522a34.525,34.525,0,0,0-7.047-7.011l-.031-.019c-.025-.015-.05-.033-.075-.046l-.054-.029-.069-.034-.067-.027-.059-.023a.573.573,0,0,0-.077-.023l-.055-.015-.08-.017h-.53l-.09.021-.042.011-.09.031-.044.017-.082.036-.048.025-.073.04-.054.034c-.015.011-.031.019-.044.031-.484.352-11.863,8.779-12.517,21.654-.019.394-.025.788-.025,1.182a18.751,18.751,0,1,0-5.357,37.035v9.125H68.935a1.435,1.435,0,0,0,0,2.87H138.2a1.435,1.435,0,1,0,0-2.87H121.3v-9.089a12.753,12.753,0,0,0,5.482,1.228Zm3.972-25.337a10.216,10.216,0,0,1-.21,2.019l-.218,1.07.974.494a9.984,9.984,0,1,1-10.007,17.245v-4.527h0v-3.377l6.3-6.3a1.435,1.435,0,0,0-2.022-2.032l-4.269,4.269v-6.448a1.435,1.435,0,1,0-2.87,0v9.913h0v.507l-2.38-2.378a1.435,1.435,0,0,0-2.028,2.028l4.4,4.4v3.9a8.384,8.384,0,0,1-13.227-4.871V115.9a8.35,8.35,0,0,1,5.612-6.146l1.531-.494-.666-1.468a9.986,9.986,0,1,1,19.082-4.139ZM93.063,89.677c.473-9.6,7.984-16.7,10.524-18.835a33.6,33.6,0,0,1,5.606,5.807c3.894,5.183,5.5,10.6,4.783,16.1a12.848,12.848,0,0,0-5.88,13.063,43.168,43.168,0,0,1-2.895,3.262V97.648h0V94.28l4.743-4.745a1.435,1.435,0,1,0-2.028-2.03L105.2,90.22V83.757a1.435,1.435,0,1,0-2.87,0V93.67h0v.507L99.953,91.8a1.435,1.435,0,1,0-2.03,2.028l4.4,4.4v11.247c-5.568-5.562-8.65-11.258-9.2-16.995a.465.465,0,0,0,0-.054,19.3,19.3,0,0,1-.054-2.749Zm-22.7,19.356A15.881,15.881,0,0,1,90.39,93.706c.894,6.555,4.674,12.971,11.289,19.134a15.94,15.94,0,0,1-13.992,12.01v-4.376l6.836-6.836a1.435,1.435,0,1,0-2.03-2.028l-4.806,4.807V106.071a1.435,1.435,0,1,0-2.87,0v3.844L81.6,106.7a1.435,1.435,0,1,0-2.028,2.03l5.247,5.244V119.6a1.441,1.441,0,0,0,0,.639v4.611A15.9,15.9,0,0,1,70.366,109.033Zm17.32,18.7a18.847,18.847,0,0,0,14.507-8.828c.034.323.082.641.144.957v17H87.686Zm17.521,9.129v-11.4a11.237,11.237,0,0,0,13.227,2.346v9.058Z" transform="translate(-54.585 -55.091)"/><path class="b" d="M364.623,84.377a8.453,8.453,0,1,0-8.453-8.453A8.453,8.453,0,0,0,364.623,84.377Zm0-14.035a5.583,5.583,0,1,1-5.583,5.583A5.583,5.583,0,0,1,364.623,70.342Z" transform="translate(-288.021 -54.978)"/></g></g></svg>