<svg xmlns="http://www.w3.org/2000/svg" width="130" height="130" viewBox="0 0 130 130"><defs><style>.a{fill:none;}.b{fill:#fff;}</style></defs><g transform="translate(0 0.094)"><rect class="a" width="130" height="130" transform="translate(0 -0.095)"/><path class="b" d="M161.25,151.565h-2.626V101.328a1.9,1.9,0,0,0-1.9-1.9h-.345V85.57a1.9,1.9,0,0,0-1.9-1.9h-2.218l-5.44-14.934a1.9,1.9,0,0,0-3.575,0L137.8,83.667h-2.22a1.9,1.9,0,0,0-1.9,1.9V99.428h-.667a1.9,1.9,0,0,0-1.9,1.9v7.033l-13.879-8.918V93.58h9.261a1.9,1.9,0,0,0,1.723-2.712l-1.85-3.928,1.776-3.045a1.9,1.9,0,0,0-1.649-2.87h-9.261v-2.7a1.9,1.9,0,1,0-3.806,0V99.446l-13.879,8.918v-7.033a1.9,1.9,0,0,0-1.9-1.9h-.507V85.57a1.9,1.9,0,0,0-1.9-1.9h-2.22L87.574,68.733a1.9,1.9,0,0,0-3.575,0L78.56,83.667H76.34a1.9,1.9,0,0,0-1.9,1.9V99.428h-.507a1.9,1.9,0,0,0-1.9,1.9v50.237H69.4a1.9,1.9,0,0,0-1.9,1.9v6.96a1.9,1.9,0,0,0,1.9,1.9H161.25a1.9,1.9,0,0,0,1.9-1.9v-6.962A1.9,1.9,0,0,0,161.25,151.565Zm-32.362,0v-14.82a1.9,1.9,0,0,0-1.89-1.9h-8.106a1.9,1.9,0,0,0-1.9,1.9v14.82h-3.671V136.745a1.9,1.9,0,0,0-1.9-1.9h-8.1a1.9,1.9,0,0,0-1.9,1.9v14.82h-1.87v-22.9h31.563v22.9Zm-3.806,0h-4.288V138.656h4.293Zm-15.576,0h-4.285V138.656h4.29Zm21.6-26.7H99.545V119.15h31.563Zm3.806,1.9v-23.53h19.9v48.331h-19.9ZM144,91.306h1.819v8.119H144Zm5.625,8.119V87.473h2.956V99.428Zm-4.587-24.484,3.177,8.723h-.492a1.9,1.9,0,0,0-1.9,1.9V87.5H144V85.567a1.9,1.9,0,0,0-1.9-1.9h-.236ZM137.492,87.47h2.7V99.425h-2.707Zm-14.3-2.639-.622,1.05a1.908,1.908,0,0,0-.074,1.776l.995,2.116h-6.262V84.831Zm-7.865,17.915L131.108,112.9v2.456H99.545V112.9ZM84.748,91.306H86.57v8.119H84.748Zm5.628-1.9V87.473h2.956V99.428H90.376ZM85.788,74.941l3.177,8.723h-.492a1.9,1.9,0,0,0-1.9,1.9V87.5H84.748V85.567a1.9,1.9,0,0,0-1.9-1.9h-.236ZM78.243,87.47h2.7V99.425h-2.7Zm-2.408,15.761h19.9v48.334h-19.9Zm83.517,55.293H71.311v-3.154h88.041Z" transform="translate(-50.374 -50.361)"/><path class="b" d="M246.507,228.49a3.23,3.23,0,1,0-3.227-3.227A3.23,3.23,0,0,0,246.507,228.49Zm0-3.806a.578.578,0,1,1-.578.578A.578.578,0,0,1,246.507,224.684Z" transform="translate(-181.555 -165.696)"/><path class="b" d="M128,222.26h-6.6a1.9,1.9,0,0,0-1.9,1.9v6.6a1.9,1.9,0,0,0,1.9,1.9H128a1.9,1.9,0,0,0,1.9-1.9v-6.6A1.9,1.9,0,0,0,128,222.26Zm-1.9,6.6h-2.791v-2.791H126.1Z" transform="translate(-89.18 -165.868)"/><path class="b" d="M128,284.12h-6.6a1.9,1.9,0,0,0-1.9,1.9v6.6a1.9,1.9,0,0,0,1.9,1.9H128a1.9,1.9,0,0,0,1.9-1.9v-6.6A1.9,1.9,0,0,0,128,284.12Zm-1.9,6.6h-2.791v-2.791H126.1Z" transform="translate(-89.18 -212.033)"/><path class="b" d="M128,345.5h-6.6a1.9,1.9,0,0,0-1.9,1.9V354a1.9,1.9,0,0,0,1.9,1.9H128a1.9,1.9,0,0,0,1.9-1.9v-6.6A1.9,1.9,0,0,0,128,345.5Zm-1.9,6.6h-2.791v-2.791H126.1Z" transform="translate(-89.18 -257.839)"/><path class="b" d="M361.68,222.26h-6.6a1.9,1.9,0,0,0-1.9,1.9v6.6a1.9,1.9,0,0,0,1.9,1.9h6.6a1.9,1.9,0,0,0,1.9-1.9v-6.6a1.9,1.9,0,0,0-1.9-1.9Zm-1.9,6.6h-2.791v-2.791h2.791Z" transform="translate(-263.571 -165.868)"/><path class="b" d="M361.68,284.12h-6.6a1.9,1.9,0,0,0-1.9,1.9v6.6a1.9,1.9,0,0,0,1.9,1.9h6.6a1.9,1.9,0,0,0,1.9-1.9v-6.6a1.9,1.9,0,0,0-1.9-1.9Zm-1.9,6.6h-2.791v-2.791h2.791Z" transform="translate(-263.571 -212.033)"/><path class="b" d="M361.68,345.5h-6.6a1.9,1.9,0,0,0-1.9,1.9V354a1.9,1.9,0,0,0,1.9,1.9h6.6a1.9,1.9,0,0,0,1.9-1.9v-6.6a1.9,1.9,0,0,0-1.9-1.9Zm-1.9,6.6h-2.791v-2.791h2.791Z" transform="translate(-263.571 -257.839)"/></g></svg>