<svg xmlns="http://www.w3.org/2000/svg" width="98" height="98" viewBox="0 0 98 98"><defs><style>.a{fill:none;}.b{fill:#f18f20;}</style></defs><rect class="a" width="98" height="98"/><path class="b" d="M157.719,183.715,151.81,172.4a1.574,1.574,0,0,0-1.387-.861H139.946l-1.91-5.1h8.235a1.569,1.569,0,0,0,1.37-.825,1.725,1.725,0,0,0,0-1.655l-3.627-6.626a1.57,1.57,0,0,0-1.372-.836H134.31l-1.91-5.1h4.989a1.57,1.57,0,0,0,1.369-.832,1.725,1.725,0,0,0,0-1.658l-3.406-6.132a1.567,1.567,0,0,0-1.365-.823h-5.109l-2.065-5.52a1.587,1.587,0,0,0-1.472-1.053H120.5a1.557,1.557,0,0,0-1.255.65,1.719,1.719,0,0,0-.27,1.439l1.156,4.483H102.751l1.151-4.511a1.719,1.719,0,0,0-.27-1.439,1.557,1.557,0,0,0-1.255-.65H97.557a1.587,1.587,0,0,0-1.46,1.053l-2.065,5.52H88.924a1.567,1.567,0,0,0-1.365.823l-3.406,6.132a1.725,1.725,0,0,0,0,1.658,1.57,1.57,0,0,0,1.369.832h4.989l-1.99,5.319a1.521,1.521,0,0,0-.774-.214h-7.5a1.57,1.57,0,0,0-1.372.836l-3.627,6.626a1.725,1.725,0,0,0,0,1.655,1.569,1.569,0,0,0,1.37.825h8.235l-1.91,5.1H72.462a1.574,1.574,0,0,0-1.387.861l-5.909,11.333a1.725,1.725,0,0,0,.027,1.641,1.568,1.568,0,0,0,1.362.811h10.91l-3.162,8.41a1.724,1.724,0,0,0,.165,1.539,1.562,1.562,0,0,0,1.307.724H87.359a1.593,1.593,0,0,0,1.525-1.226l2.445-9.462h40.226l2.433,9.457a1.593,1.593,0,0,0,1.525,1.226h11.575a1.563,1.563,0,0,0,1.307-.724,1.724,1.724,0,0,0,.164-1.539l-3.15-8.41h10.91a1.568,1.568,0,0,0,1.362-.811,1.725,1.725,0,0,0,.027-1.641Zm-15.99-23.92,1.825,3.328H136.8l-1.246-3.328Zm-8.655-14.549,1.564,2.819h-3.479l-1.053-2.819Zm-32.763,6.132h22.264l1.318,5.1h-24.9Zm-3.892,15.059h30.043l1.319,5.1H95.105Zm.856-3.313.859-3.328h26.613l.859,3.328Zm23.711-17.878.73,2.819H101.167l.73-2.819Zm-29.338,2.819H88.243l1.564-2.819h2.968l-1.056,2.821Zm-5.685,15.059H79.332l1.817-3.328h6.179l-1.248,3.336A1.01,1.01,0,0,0,85.963,163.123Zm-16.742,19.73,4.177-8h8.3l-2.992,8Zm16.922,10.683H78.115l20.532-54.864h1.679Zm6.035-10.683,2.065-8h34.391l2.065,8Zm44.564,10.683L122.57,138.673h1.679l20.522,54.864Zm8.11-10.683a1.522,1.522,0,0,0-.618.13l-3.041-8.13h8.3l4.177,8Z" transform="translate(-62.201 -116.863)"/></svg>