<svg xmlns="http://www.w3.org/2000/svg" xmlns:xlink="http://www.w3.org/1999/xlink" width="98" height="98" viewBox="0 0 98 98"><defs><style>.a,.c{fill:#f18f20;}.a{stroke:#707070;opacity:0.448;}.b{clip-path:url(#a);}</style><clipPath id="a"><rect class="a" width="98" height="98" transform="translate(1262 2608)"/></clipPath></defs><g class="b" transform="translate(-1262 -2608)"><path class="c" d="M54.243,9.787H36.067l3.36-7.5A1.622,1.622,0,0,0,37.948,0H22.241a1.622,1.622,0,0,0-1.485,2.285l3.36,7.5H5.946A5.954,5.954,0,0,0,0,15.733v48.3a5.952,5.952,0,0,0,5.946,5.946H8.972L3.3,77.833a1.622,1.622,0,1,0,2.631,1.9l2.811-3.913H51.508l2.741,3.892A1.622,1.622,0,1,0,56.9,77.841l-5.535-7.87h2.875a5.952,5.952,0,0,0,5.946-5.946V15.733A5.954,5.954,0,0,0,54.243,9.787Zm-18.8-6.544L32.573,9.656H27.615L24.744,3.243ZM11.16,72.57l1.814-2.594H47.4l1.814,2.594Zm45.785-8.54a2.707,2.707,0,0,1-2.7,2.7H5.946a2.707,2.707,0,0,1-2.7-2.7v-48.3a2.707,2.707,0,0,1,2.7-2.7h48.3a2.707,2.707,0,0,1,2.7,2.7Z" transform="translate(1280.973 2616.972)"/><path class="c" d="M52.376,114.25H80.6a5.952,5.952,0,0,0,5.946-5.946V97.646A5.952,5.952,0,0,0,80.6,91.7H52.376a5.952,5.952,0,0,0-5.946,5.946v10.663a5.952,5.952,0,0,0,5.946,5.941Zm30.932-16.6v10.663a2.7,2.7,0,0,1-2.7,2.7h-12.5V94.943H80.6a2.7,2.7,0,0,1,2.711,2.7Zm-33.626,0a2.7,2.7,0,0,1,2.7-2.7H64.866v16.064H52.376a2.7,2.7,0,0,1-2.7-2.7Z" transform="translate(1244.581 2545.097)"/><path class="c" d="M46,222.84a6,6,0,1,0,6,6A6,6,0,0,0,46,222.84Zm0,8.756a2.757,2.757,0,1,1,2.757-2.757A2.757,2.757,0,0,1,46,231.6Z" transform="translate(1249.621 2442.311)"/><path class="c" d="M188.89,222.84a6,6,0,1,0,6,6A6,6,0,0,0,188.89,222.84Zm0,8.756a2.757,2.757,0,1,1,2.757-2.757A2.757,2.757,0,0,1,188.89,231.6Z" transform="translate(1137.624 2442.311)"/><path class="c" d="M122.007,240.52h-8.616a1.622,1.622,0,1,0,0,3.243h8.616a1.622,1.622,0,0,0,0-3.243Z" transform="translate(1193.368 2428.452)"/></g></svg>