<svg xmlns="http://www.w3.org/2000/svg" width="98" height="98" viewBox="0 0 98 98"><defs><style>.a{fill:none;}.b{fill:#f18f20;}</style></defs><rect class="a" width="98" height="98"/><path class="a" d="M210.012,195.846a14.166,14.166,0,1,0-14.166,14.166A14.166,14.166,0,0,0,210.012,195.846Zm-8.911-7.276.6-.6a1.43,1.43,0,1,1,2.022,2.022l-.6.6a1.43,1.43,0,0,1-2.02-2.02Zm-6.685-2.446a1.43,1.43,0,0,1,2.859,0v.854a1.43,1.43,0,1,1-2.859,0Zm-6.45,1.834a1.433,1.433,0,0,1,2.022,0l.6.6a1.43,1.43,0,1,1-2.02,2.02l-.6-.6a1.43,1.43,0,0,1,0-2.015Zm-1.841,9.317a1.43,1.43,0,1,1,0-2.859h.854a1.43,1.43,0,1,1,0,2.859Zm4.458,5.846-.6.6a1.43,1.43,0,1,1-2.022-2.022l.6-.6a1.43,1.43,0,0,1,2.02,2.02Zm6.692,2.446a1.43,1.43,0,0,1-2.859,0v-.854a1.43,1.43,0,0,1,2.859,0Zm-1.43-3.961a5.76,5.76,0,1,1,5.76-5.76A5.76,5.76,0,0,1,195.846,201.606Zm7.88,2.12a1.433,1.433,0,0,1-2.022,0l-.6-.6a1.43,1.43,0,0,1,2.02-2.02l.6.6a1.43,1.43,0,0,1,0,2.022Zm.98-6.45a1.43,1.43,0,1,1,0-2.859h.862a1.43,1.43,0,1,1,0,2.859Z" transform="translate(-147.05 -147.05)"/><path class="a" d="M114.29,239.6h10.047a16.952,16.952,0,0,1,.309-2.1H116.2Z" transform="translate(-92.505 -192.23)"/><path class="a" d="M84.813,114.263,88.9,109.77a1.431,1.431,0,0,1,1.058-.467h5.69v-2.1c-3.038-.572-5.164-1.788-6.326-3.6A5.877,5.877,0,0,1,88.6,98.9a1.422,1.422,0,0,1,1.031-.964,8.059,8.059,0,0,1,5.829.963c.067.044.13.091.191.137v-.274c-.011-.461-.057-5.438,2.939-8.3a7.448,7.448,0,0,1,6-1.919,1.431,1.431,0,0,1,1.281,1.117c.044.191,1.025,4.811-1.414,8.078a7.864,7.864,0,0,1-5.943,3v8.577h1.4a17.064,17.064,0,0,1,14.353-10.581V82.65A33.121,33.121,0,0,0,82.65,114.263Z" transform="translate(-66.896 -66.896)"/><path class="a" d="M130.432,177.517a4.647,4.647,0,0,0-2.632-.675,3.016,3.016,0,0,0,.5,1.491,6.146,6.146,0,0,0,3.858,2.175A4.431,4.431,0,0,0,130.432,177.517Z" transform="translate(-103.44 -143.133)"/><path class="a" d="M170.669,128.46a4.22,4.22,0,0,0-2.646,1.134c-1.555,1.477-1.94,4.022-2.034,5.337a4.967,4.967,0,0,0,3.622-1.82A7.155,7.155,0,0,0,170.669,128.46Z" transform="translate(-134.35 -103.974)"/><path class="a" d="M335.287,152.016a2.287,2.287,0,0,0,2.287-2.287c0-.6-.884-2.343-2.287-4.329-1.4,1.986-2.287,3.728-2.287,4.329A2.287,2.287,0,0,0,335.287,152.016Z" transform="translate(-269.527 -117.685)"/><path class="a" d="M263.5,98.728a17.054,17.054,0,0,1,15.535,15.535h16.078A33.121,33.121,0,0,0,263.5,82.65ZM279.035,90.8a1.428,1.428,0,0,1,1.117.536c.953,1.184,4.033,5.227,4.033,7.6a5.146,5.146,0,0,1-10.293,0c0-2.371,3.086-6.414,4.033-7.6A1.424,1.424,0,0,1,279.035,90.8Z" transform="translate(-213.274 -66.896)"/><circle class="a" cx="2.901" cy="2.901" r="2.901" transform="translate(45.895 45.895)"/><path class="a" d="M160.3,332.469c-1.115.133-1.553-.839-1.817-1.42a10.7,10.7,0,0,0-1.525-2.569,16.372,16.372,0,0,1-.538,3.612c-.414,1.2-.762,3.374-.017,4.451.126.191.513.743,1.876.783s3.174-.122,3.8-1.144c.553-.905.341-2.606-.549-4.733a1.483,1.483,0,0,1-1.229,1.02Z" transform="translate(-126.241 -265.868)"/><path class="a" d="M279.035,263.5A17.054,17.054,0,0,1,263.5,279.035v16.078A33.121,33.121,0,0,0,295.113,263.5Zm-11.208,20.491h-1.1a1.43,1.43,0,0,1,0-2.859h1.1a1.43,1.43,0,0,1,0,2.859Zm13.659,0h-9.759a1.43,1.43,0,0,1,0-2.859h9.759a.7.7,0,1,0,0-1.4h-1.611a1.43,1.43,0,0,1,0-2.859h1.611a3.559,3.559,0,1,1,0,7.115Zm6.732-8.827h-8.612a1.43,1.43,0,1,1,0-2.859h8.616a.7.7,0,1,0,0-1.4h-1.609a1.43,1.43,0,0,1,0-2.859h1.609a3.559,3.559,0,1,1,0,7.117Z" transform="translate(-213.274 -213.274)"/><path class="a" d="M114.263,279.035A17.054,17.054,0,0,1,98.728,263.5H82.65a33.121,33.121,0,0,0,31.613,31.613ZM99.311,287.6h-.459a4.923,4.923,0,0,1-4.144-2.019c-1.746-2.529-.572-6.281-.332-7.007a28.434,28.434,0,0,0,.492-5.608,1.43,1.43,0,0,1,2.11-1.245,10.2,10.2,0,0,1,3.9,3.848,7.064,7.064,0,0,1,.679-.608,1.43,1.43,0,0,1,2.131.437c2.911,5.265,2.423,8.17,1.5,9.679-1.029,1.675-3,2.522-5.873,2.522Z" transform="translate(-66.896 -213.274)"/><path class="b" d="M103.414,67.48a35.934,35.934,0,1,0,35.934,35.934A35.975,35.975,0,0,0,103.414,67.48Zm33.042,34.5H120.378A17.054,17.054,0,0,0,104.844,86.45V70.372a33.12,33.12,0,0,1,31.613,31.613Zm-33.042,15.6a14.166,14.166,0,1,1,14.166-14.166A14.166,14.166,0,0,1,103.414,117.58Zm-16.964-15.6H76.4l1.906-2.1h8.446A16.947,16.947,0,0,0,86.45,101.984Zm15.535-31.613V86.45A17.063,17.063,0,0,0,87.635,97.025h-1.4V88.447a7.864,7.864,0,0,0,5.943-3c2.44-3.267,1.458-7.882,1.414-8.078a1.431,1.431,0,0,0-1.281-1.117,7.467,7.467,0,0,0-6,1.919c-3,2.859-2.951,7.836-2.939,8.3v.274c-.065-.046-.128-.093-.191-.137a8.058,8.058,0,0,0-5.829-.963,1.422,1.422,0,0,0-1.031.964,5.876,5.876,0,0,0,.728,4.714c1.163,1.809,3.288,3.015,6.326,3.6v2.1H77.681a1.432,1.432,0,0,0-1.058.467l-4.089,4.5H70.372A33.12,33.12,0,0,1,101.984,70.372Zm-15.725,15.2c.093-1.311.478-3.856,2.034-5.337A4.22,4.22,0,0,1,90.938,79.1a7.133,7.133,0,0,1-1.062,4.647A4.941,4.941,0,0,1,86.259,85.571Zm-2.924,6.422a6.146,6.146,0,0,1-3.858-2.175,3.015,3.015,0,0,1-.5-1.491A4.555,4.555,0,0,1,81.612,89a4.452,4.452,0,0,1,1.721,2.991ZM70.373,104.844H86.45a17.054,17.054,0,0,0,15.535,15.535v16.078a33.12,33.12,0,0,1-31.613-31.613Zm34.47,31.613V120.378a17.054,17.054,0,0,0,15.535-15.535h16.078A33.12,33.12,0,0,1,104.844,136.456Z" transform="translate(-54.618 -54.618)"/><path class="b" d="M231.54,225.78a5.76,5.76,0,1,0,5.76,5.76A5.76,5.76,0,0,0,231.54,225.78Zm0,8.661a2.9,2.9,0,1,1,2.9-2.9A2.9,2.9,0,0,1,231.54,234.441Z" transform="translate(-182.744 -182.744)"/><path class="b" d="M323.122,138.718a5.146,5.146,0,0,0,5.146-5.146c0-2.371-3.088-6.414-4.033-7.6a1.43,1.43,0,0,0-2.232,0c-.953,1.184-4.033,5.227-4.033,7.6a5.147,5.147,0,0,0,5.152,5.146Zm0-9.479c1.407,1.986,2.287,3.728,2.287,4.329a2.287,2.287,0,1,1-4.575,0C320.835,132.967,321.714,131.225,323.122,129.238Z" transform="translate(-257.361 -101.527)"/><path class="b" d="M249.93,201.217a1.43,1.43,0,0,0,1.43-1.43v-.858a1.43,1.43,0,1,0-2.859,0v.854a1.43,1.43,0,0,0,1.43,1.433Z" transform="translate(-201.133 -159.854)"/><path class="b" d="M282.8,215.926a1.418,1.418,0,0,0,1.01-.419l.6-.6a1.43,1.43,0,1,0-2.022-2.022l-.6.6a1.43,1.43,0,0,0,1.01,2.44Z" transform="translate(-227.743 -171.965)"/><path class="b" d="M298.693,249.93a1.43,1.43,0,0,0-1.43-1.43h-.854a1.43,1.43,0,0,0,0,2.859h.862A1.43,1.43,0,0,0,298.693,249.93Z" transform="translate(-238.754 -201.133)"/><path class="b" d="M283.961,281.941a1.43,1.43,0,0,0-2.02,2.021l.6.6a1.43,1.43,0,0,0,2.022-2.022Z" transform="translate(-227.889 -227.889)"/><path class="b" d="M249.93,295a1.43,1.43,0,0,0-1.43,1.43v.858a1.43,1.43,0,0,0,2.859,0v-.854A1.43,1.43,0,0,0,249.93,295Z" transform="translate(-201.133 -238.77)"/><path class="b" d="M213.486,281.941l-.6.6a1.43,1.43,0,0,0,2.022,2.022l.6-.6a1.43,1.43,0,0,0-2.02-2.02Z" transform="translate(-171.965 -227.889)"/><path class="b" d="M201.217,249.93a1.43,1.43,0,0,0-1.43-1.43h-.858a1.43,1.43,0,1,0,0,2.859h.854a1.43,1.43,0,0,0,1.433-1.43Z" transform="translate(-159.854 -201.133)"/><path class="b" d="M213.486,215.506a1.43,1.43,0,0,0,2.02-2.02l-.6-.6a1.43,1.43,0,0,0-2.022,2.022Z" transform="translate(-171.965 -171.965)"/><path class="b" d="M350.541,287.35h-1.609a1.43,1.43,0,0,0,0,2.859h1.609a.7.7,0,1,1,0,1.4H341.93a1.43,1.43,0,1,0,0,2.859h8.616a3.559,3.559,0,1,0,0-7.117Z" transform="translate(-275.597 -232.578)"/><path class="b" d="M310.349,333.666h-1.611a1.43,1.43,0,1,0,0,2.859h1.611a.7.7,0,1,1,0,1.4H300.59a1.43,1.43,0,0,0,0,2.859h9.759a3.559,3.559,0,1,0,0-7.115Z" transform="translate(-242.137 -270.065)"/><path class="b" d="M275.476,356h-1.1a1.43,1.43,0,0,0,0,2.859h1.1a1.43,1.43,0,1,0,0-2.859Z" transform="translate(-220.923 -288.143)"/><path class="b" d="M150.912,309.541a1.43,1.43,0,0,0-2.123-.442,7.066,7.066,0,0,0-.679.608,10.205,10.205,0,0,0-3.9-3.848,1.43,1.43,0,0,0-2.11,1.245,29.076,29.076,0,0,1-.492,5.608c-.25.726-1.414,4.477.332,7.007a4.9,4.9,0,0,0,4.144,2.019h.459c2.872,0,4.843-.846,5.865-2.522C153.327,317.71,153.815,314.805,150.912,309.541Zm-.94,8.2c-.625,1.024-2.411,1.189-3.8,1.144s-1.75-.6-1.876-.783c-.743-1.077-.4-3.252.017-4.451a16.465,16.465,0,0,0,.538-3.612,10.706,10.706,0,0,1,1.525,2.569c.263.581.7,1.553,1.817,1.42A1.483,1.483,0,0,0,149.424,313c.883,2.123,1.094,3.824.536,4.729Z" transform="translate(-114.124 -247.419)"/></svg>