<svg xmlns="http://www.w3.org/2000/svg" xmlns:xlink="http://www.w3.org/1999/xlink" width="98" height="98" viewBox="0 0 98 98"><defs><style>.a,.c{fill:#f18f20;}.a{stroke:#707070;}.b{clip-path:url(#a);}</style><clipPath id="a"><rect class="a" width="98" height="98" transform="translate(1367 3051)"/></clipPath></defs><g class="b" transform="translate(-1367 -3051)"><g transform="translate(1374.576 3058.521)"><g transform="translate(0)"><path class="c" d="M66.214,82.971a1.651,1.651,0,0,1-1.651-1.651v-46.5a1.512,1.512,0,0,1,0-.2v-.689A30.631,30.631,0,1,0,33.932,64.563H45.944V49.245H33.932A15.318,15.318,0,1,1,49.25,33.928v47.4a1.651,1.651,0,1,1-3.3,0V67.864H33.932A33.932,33.932,0,1,1,67.864,33.932V46.2H81.329a1.651,1.651,0,1,1,0,3.3H67.864v5.478h5.907a1.651,1.651,0,0,1,0,3.3H67.864v6.283H81.329a1.651,1.651,0,1,1,0,3.3H67.864V81.329a1.651,1.651,0,0,1-1.651,1.642ZM33.932,21.916a12.016,12.016,0,0,0,0,24.033H45.944V33.932A12.032,12.032,0,0,0,33.932,21.916Zm22.7,61.055a1.651,1.651,0,0,1-1.651-1.651v-17.5a1.651,1.651,0,1,1,3.3,0V81.331a1.651,1.651,0,0,1-1.651,1.64ZM33.932,58.28A24.209,24.209,0,0,1,14.7,48.858a1.651,1.651,0,1,1,2.606-2.025,20.934,20.934,0,0,0,16.627,8.143,1.651,1.651,0,1,1,0,3.3Zm22.7-7.412a1.651,1.651,0,0,1-1.651-1.651V30.965a1.651,1.651,0,0,1,3.3,0V49.217a1.651,1.651,0,0,1-1.651,1.651ZM11.235,35.583a1.651,1.651,0,0,1-1.651-1.651A24.353,24.353,0,0,1,20.2,13.825a1.651,1.651,0,0,1,1.866,2.723,21.053,21.053,0,0,0-9.182,17.386,1.651,1.651,0,0,1-1.651,1.648ZM52.056,21.916a1.646,1.646,0,0,1-1.32-.66A20.908,20.908,0,0,0,33.93,12.892a1.651,1.651,0,0,1,0-3.3,24.163,24.163,0,0,1,19.438,9.684,1.648,1.648,0,0,1-.328,2.306A1.631,1.631,0,0,1,52.056,21.916Z" transform="translate(0)"/></g></g></g></svg>