<svg xmlns="http://www.w3.org/2000/svg" xmlns:xlink="http://www.w3.org/1999/xlink" width="98" height="98" viewBox="0 0 98 98"><defs><style>.a,.c{fill:#f18f20;}.a{stroke:#707070;}.b{clip-path:url(#a);}</style><clipPath id="a"><rect class="a" width="98" height="98" transform="translate(1091 2618)"/></clipPath></defs><g class="b" transform="translate(-1091 -2618)"><g transform="translate(150.46 11.117)"><path class="c" d="M82.217,73.451a8.607,8.607,0,0,0-8.88.3l-2.221,1.437a11.939,11.939,0,0,1-5.76,1.9L75.02,47.509a1.655,1.655,0,0,0-.765-1.957l-8.028-4.486V27.659a1.653,1.653,0,0,0-1.653-1.653H62.291V21.652A1.653,1.653,0,0,0,60.638,20H55.072V15.645a1.653,1.653,0,0,0-1.653-1.653h-6.2V1.653A1.653,1.653,0,0,0,45.566,0H36.839a1.653,1.653,0,0,0-1.653,1.653v12.34h-6.2a1.653,1.653,0,0,0-1.653,1.653V20H21.767a1.653,1.653,0,0,0-1.653,1.653V26H17.832a1.653,1.653,0,0,0-1.653,1.653V41.37L8.7,45.556a1.653,1.653,0,0,0-.762,1.957l8.045,24.625h-.5a15.141,15.141,0,0,0-9.035,3.323,3.327,3.327,0,0,1-3.916.176A1.653,1.653,0,1,0,.725,78.4a6.624,6.624,0,0,0,7.8-.353,12.009,12.009,0,0,1,14.286-.456,15.2,15.2,0,0,0,16.987.317l1.818-1.17a11.912,11.912,0,0,1,13.221.189l1.17.8a15.259,15.259,0,0,0,6.355,2.51,1.543,1.543,0,0,0,.2.079,1.606,1.606,0,0,0,.513.084,1.67,1.67,0,0,0,.348-.042c.4.031.8.048,1.205.048a15.235,15.235,0,0,0,8.3-2.456l2.2-1.436A5.3,5.3,0,0,1,80.6,76.34a1.653,1.653,0,1,0,1.609-2.889ZM62.923,39.223,45.206,29.307H62.923ZM38.492,3.305h5.421V13.993H38.492ZM30.643,17.3H51.766V20H30.643ZM23.42,23.3H58.985V26H23.42Zm-3.938,6h18.27l-18.27,10.22ZM24.7,74.879a15.174,15.174,0,0,0-5.1-2.312L11.5,47.773l7.109-3.966h0L39.766,31.974l.04,20.066L39.761,74l-1.776,1.146A11.9,11.9,0,0,1,24.7,74.883Zm32-.679a15.2,15.2,0,0,0-13.532-1.858l-.04-20.315.04-20.077L71.455,47.773,61.98,76.8a11.987,11.987,0,0,1-4.1-1.8Z" transform="translate(948.022 2615.676)"/><path class="c" d="M98.411,183.331l-14.665,9.35a1.653,1.653,0,1,0,1.778,2.787l14.66-9.35a1.653,1.653,0,0,0-1.774-2.788Z" transform="translate(883.309 2472.925)"/><path class="c" d="M228.393,195.636a1.653,1.653,0,0,0,.881-3.045l-14.66-9.35a1.653,1.653,0,0,0-1.778,2.788l14.663,9.35A1.653,1.653,0,0,0,228.393,195.636Z" transform="translate(782.664 2473.015)"/></g></g></svg>