<svg xmlns="http://www.w3.org/2000/svg" width="98" height="98" viewBox="0 0 98 98"><defs><style>.a{fill:none;}.b{fill:#f18f20;}</style></defs><rect class="a" width="98" height="98"/><path class="b" d="M104.058,197.163a1.438,1.438,0,0,1-.459-.075L68.864,185.4a1.439,1.439,0,0,1,0-2.73l22.26-7.493a1.441,1.441,0,1,1,.918,2.73l-18.21,6.127L104.058,194.2l30.225-10.169-24.269-8.163a1.442,1.442,0,1,1,.926-2.732l28.329,9.531a1.439,1.439,0,0,1,0,2.73l-34.752,11.689a1.447,1.447,0,0,1-.459.075Z" transform="translate(-54.839 -139.811)"/><path class="b" d="M104.065,264.463a1.44,1.44,0,0,1-.459-.077L68.872,252.7a1.439,1.439,0,0,1-.982-1.364V237.719a1.439,1.439,0,0,1,1.9-1.364l34.285,11.527,33.3-11.2V224.111a1.441,1.441,0,1,1,2.882,0v13.608a1.439,1.439,0,0,1-.982,1.366l-34.754,11.7a1.418,1.418,0,0,1-.918,0L70.762,239.727v10.567l33.3,11.2,34.285-11.527a1.443,1.443,0,1,1,.918,2.736l-34.744,11.681A1.448,1.448,0,0,1,104.065,264.463Z" transform="translate(-54.847 -179.889)"/><path class="b" d="M165.579,93.042a14.938,14.938,0,0,1-6.8-1.595c-4.386-2.229-7.585-6.628-9.508-13.065a1.443,1.443,0,0,1,1.164-1.837,23.362,23.362,0,0,1,9.191.719c4.45,1.318,10.062,4.726,11.528,13.491a1.443,1.443,0,0,1-.941,1.6A15,15,0,0,1,165.579,93.042ZM152.593,79.263c1.7,4.7,4.2,7.929,7.454,9.6a12.684,12.684,0,0,0,8,1.068,12.682,12.682,0,0,0-9.151-9.871A20.5,20.5,0,0,0,152.593,79.263Z" transform="translate(-120.543 -61.703)"/><path class="b" d="M254.1,117.275a26.2,26.2,0,0,1-4.4-.4,1.439,1.439,0,0,1-1.2-1.443,16.349,16.349,0,0,1,4.963-10.926c3.372-3.074,8.113-4.419,14.094-3.992a1.441,1.441,0,0,1,1.335,1.4c0,.309.125,7.631-5.032,12.094A14.4,14.4,0,0,1,254.1,117.275Zm-2.588-3.043c4.477.534,7.985-.265,10.444-2.382,2.961-2.551,3.76-6.48,3.975-8.525-4.482-.094-8.019,1.018-10.527,3.312A13.181,13.181,0,0,0,251.514,114.232Z" transform="translate(-200.756 -81.142)"/><path class="b" d="M249.941,163.116a1.441,1.441,0,0,1-1.441-1.441V146.411a1.441,1.441,0,0,1,2.882,0v15.264A1.441,1.441,0,0,1,249.941,163.116Z" transform="translate(-200.757 -117.118)"/></svg>