<svg xmlns="http://www.w3.org/2000/svg" width="98" height="98" viewBox="0 0 98 98"><defs><style>.a{fill:none;}.b{fill:#f18f20;}</style></defs><g transform="translate(0.179 0.179)"><rect class="a" width="98" height="98" transform="translate(-0.179 -0.179)"/><path class="b" d="M130.793,186.934A22.83,22.83,0,0,1,108,164.129c0-12.2,20.833-36.534,21.72-37.57a1.43,1.43,0,0,1,2.168,0c.887,1.03,21.72,25.364,21.72,37.57A22.83,22.83,0,0,1,130.793,186.934Zm0-57.212c-1.827,2.2-5.7,7-9.535,12.5-6.806,9.8-10.4,17.375-10.4,21.9a19.944,19.944,0,1,0,39.888,0c0-4.533-3.607-12.114-10.431-21.931C136.48,136.7,132.619,131.922,130.793,129.721Z" transform="translate(-87.404 -102.021)"/><path class="b" d="M305.18,95.634a10.764,10.764,0,0,1-10.75-10.75c0-5.519,8.677-15.756,9.667-16.9a1.428,1.428,0,0,1,2.166,0c.99,1.144,9.667,11.385,9.667,16.9a10.764,10.764,0,0,1-10.75,10.75Zm0-24.477c-.885,1.095-2.2,2.777-3.5,4.648-3.814,5.5-4.386,8.048-4.386,9.08a7.89,7.89,0,1,0,15.779,0c0-1.032-.572-3.583-4.386-9.08C307.379,73.934,306.065,72.252,305.18,71.157Z" transform="translate(-238.28 -54.613)"/><path class="b" d="M160.351,334.737a1.544,1.544,0,0,1-.229-.017,15.314,15.314,0,0,1-12.852-15.11,1.43,1.43,0,0,1,2.861,0,12.447,12.447,0,0,0,10.437,12.283,1.43,1.43,0,0,1-.224,2.842Z" transform="translate(-119.184 -257.5)"/></g></svg>