<svg xmlns="http://www.w3.org/2000/svg" xmlns:xlink="http://www.w3.org/1999/xlink" width="1920" height="1258" viewBox="0 0 1920 1258"><defs><style>.a,.e{fill:none;stroke:#fff;stroke-width:2px;}.b{fill:#f6f6f6;}.c{isolation:isolate;}.d{clip-path:url(#a);}.e{stroke-miterlimit:10;}</style><clipPath id="a"><rect class="a" width="1920" height="1258"/></clipPath></defs><g transform="translate(0 -2663)"><g transform="translate(0 1074)"><rect class="b" width="1920" height="1258" transform="translate(0 1589)"/><g class="c" transform="translate(0 1589)"><g transform="translate(0 0)"><g transform="translate(0 0)"><g class="d"><g transform="translate(-395.134 -408.362)"><path class="e" d="M1333.162-52.3a1661.877,1661.877,0,0,1-58.138,192.382c-10.24,27.962-21.811,56.278-41.753,78.617-51.021,57.11-140.288,58.875-216.473,46.469a907.987,907.987,0,0,1-204.442-58.5c-64.87-27.13-127.616-62.152-197.12-73.65s-150.349,7.06-187.8,65.783c-22.272,35-25.83,79.273-17.126,119.691s28.672,77.583,50.816,112.656c25.37,40.141,54.81,80.811,58.624,127.936,3.942,48.814-23.424,98.738-67.046,122.237-62.029,33.434-137.958,12.456-207.539,0-88.371-15.86-183.168-15.734-263.91,23.071S-161.9,827.491-153.609,915.588" transform="translate(154.349 329.175)"/><path class="e" d="M1313.989-57.53A1553.626,1553.626,0,0,1,1256.9,130.39c-10.24,27.282-21.529,54.866-40.96,76.751-49.69,55.925-136.064,59-210.15,48.36q-26.394-3.782-52.48-9.178A879.986,879.986,0,0,1,806.546,202.5C743.16,177.288,681.72,144.51,613.778,134s-144.538,8.7-184.115,63.388a162.146,162.146,0,0,0-29.338,66.64,179.732,179.732,0,0,0-1.741,50.05,201.382,201.382,0,0,0,3.61,23.071c6.81,30.862,21.3,61.068,37.146,89.787,1.562,2.849,3.149,5.673,4.736,8.522,24.781,44.049,50.944,89.106,52.378,138.4,1.382,47.453-24.038,95.813-66.56,118.884-60.442,32.98-134.144,14.095-201.446,3.555-5.3-.832-10.624-1.614-15.974-2.295-80.794-10.64-165.274-6.3-237.363,30.408-76.8,39.132-135.552,121.607-126.259,207.209" transform="translate(157.83 321.218)"/><path class="e" d="M1294.752-62.76a1460.9,1460.9,0,0,1-56.09,183.457c-10.061,26.6-21.248,53.5-40.192,74.911-48.256,54.714-131.865,59.076-203.827,50.2q-25.6-3.177-51.046-7.892A852.747,852.747,0,0,1,800.545,198.28c-61.9-23.121-122.035-53.706-188.365-63.312s-139.162,10.363-180.352,60.967c-16.64,20.423-30.208,40.569-37.453,63.791a170.214,170.214,0,0,0-7.68,49.924,179.536,179.536,0,0,0,1.485,24.079c4.3,32.627,18.688,65.556,34.227,96.8,1.562,3.1,3.1,6.177,4.659,9.254,24.192,47.906,47.155,97.25,46.08,148.762-.9,46.015-24.653,92.737-66,115.581-58.88,32.475-130.278,15.683-195.328,7.136q-7.68-1.021-15.36-1.866c-78.029-8.32-158.874-2.017-227.3,35.022-72.986,39.485-128,120.12-117.76,203.224" transform="translate(161.399 313.261)"/><path class="e" d="M1275.666-68A1377.782,1377.782,0,0,1,1220.6,111.019c-9.958,25.92-20.992,52.092-39.424,73.121-47.181,53.454-127.667,59.127-197.53,51.991q-24.883-2.521-49.587-6.581a827.2,827.2,0,0,1-139.315-35.325c-60.416-21.1-119.245-49.47-184.013-58.143s-134.2,11.876-176.64,58.572c-18.483,20.322-35.379,38.376-45.542,60.892A161.739,161.739,0,0,0,374.8,305.167a159.076,159.076,0,0,0-.742,25.214c1.792,34.392,16.077,70.17,31.334,103.831,1.51,3.328,3.021,6.656,4.557,10.086,23.6,51.915,43.52,105.218,39.91,159.327-2.918,44.477-25.293,89.736-65.485,112.227-57.216,32.022-126.438,17.322-189.235,10.716-4.966-.5-9.933-.983-14.9-1.387C105,719.154,27.769,727.425-37.025,764.792c-69.12,39.838-120.32,118.506-109.056,199.19" transform="translate(164.818 305.289)"/><path class="e" d="M1256.555-73.21A1293.981,1293.981,0,0,1,1202.488,101.3c-9.8,25.214-20.736,50.63-38.656,71.154-45.747,52.395-123.443,59.354-191.181,53.983q-24.166-1.891-48.128-5.27A805.051,805.051,0,0,1,788.843,189.9c-58.88-19.112-116.454-45.385-179.61-52.949s-129.613,13.187-172.851,56.126c-20.48,20.171-40.525,36.182-53.76,57.992a156.518,156.518,0,0,0-19.763,49.7,142.686,142.686,0,0,0-2.867,26.071c-.742,36.157,13.466,74.734,28.416,110.942l4.454,10.716c23.117,55.748,39.91,112.958,33.69,169.69-4.685,42.864-25.907,86.761-64.973,108.924-55.6,31.542-122.573,18.935-183.117,14.3q-7.181-.567-14.362-.933c-72.422-3.782-146.022,6.505-207.181,44.124-65.2,40.166-112.64,117.144-100.429,195.257" transform="translate(168.262 297.362)"/><path class="e" d="M1237.4-78.44A1213.409,1213.409,0,0,1,1184.329,91.6c-9.677,24.558-20.48,49.293-37.837,69.338-44.467,51.159-119.27,59.429-184.909,55.824q-23.4-1.286-46.669-3.984A777.326,777.326,0,0,1,783.023,185.7c-57.446-17.095-113.664-41.048-175.258-47.906S482.326,152.217,438.6,191.576c-22.477,20.171-45.67,33.988-61.747,55.143a154.029,154.029,0,0,0-25.6,49.571,135.687,135.687,0,0,0-5.12,27.029c-3.251,37.821,10.854,79.273,25.6,117.875,1.434,3.833,2.893,7.564,4.326,11.472,22.477,59.732,36.352,120.775,27.443,180.2-6.2,41.326-26.5,83.786-64.435,105.621-54.246,31.139-118.938,20.625-177.126,17.927-4.582-.2-9.19-.353-13.8-.454C78.46,754.554,8.47,766.732-48.976,804.755c-61.312,40.519-105.19,115.656-91.8,191.273" transform="translate(171.752 289.405)"/><path class="e" d="M1218.621-83.67a1136.069,1136.069,0,0,1-52.1,165.58c-9.575,23.9-20.173,47.907-37.069,67.5-43.162,50.025-115.072,59.581-178.586,57.74q-22.656-.655-45.235-2.673a753.346,753.346,0,0,1-128.179-22.894c-55.962-15.128-110.874-36.812-170.854-42.662s-121.549,15.33-165.453,51.411c-24.653,20.171-50.842,31.694-69.888,52.142a153.346,153.346,0,0,0-31.616,49.47,129.947,129.947,0,0,0-7.373,28.013c-5.76,39.687,8.269,83.836,22.6,125.036q2.15,6.1,4.25,12.2c21.888,63.64,33,128.44,21.2,190.668-7.526,39.712-27.11,80.685-64,102.268-52.378,30.61-114.893,22.163-170.931,21.457H132.132C65.213,772.5-1.142,786.716-55,824.966c-57.446,40.872-97.613,114.168-83.226,187.289" transform="translate(174.913 281.448)"/><path class="e" d="M1199.651-88.9A1059.912,1059.912,0,0,1,1148.63,72.217c-9.421,23.222-19.891,46.495-36.3,65.556-41.83,48.839-110.848,59.681-172.262,59.606q-21.888,0-43.75-1.387a724.387,724.387,0,0,1-124.467-18.709c-54.477-13.061-108.083-32.577-166.4-37.493s-124.57,9.077-161.818,48.991c-30.08,15.1-55.987,29.677-77.926,49.394a155.144,155.144,0,0,0-37.632,49.344,126.6,126.6,0,0,0-9.6,29.021c-8.269,41.427,5.658,88.249,19.712,131.894q2.1,6.48,4.147,12.96c21.3,67.548,29.8,136.155,14.95,201.107-8.7,38.123-27.648,77.886-63.488,98.965C243,791.6,182.742,785.243,128.956,786.5c-4.25,0-8.474.252-12.8.454-64.128,3.2-126.9,19.289-177.1,57.992-53.53,41.225-90.01,112.681-74.6,183.305" transform="translate(178.14 273.491)"/><path class="e" d="M1180.659-94.13a991.241,991.241,0,0,1-50.022,156.654c-9.293,22.516-19.61,45.108-35.507,63.791C1054.6,173.894,988.48,186.073,929.19,187.737q-21.146.605-42.317,0a704.048,704.048,0,0,1-120.755-14.5c-52.992-11.17-105.293-28.467-162.1-32.551s-120.781,9.455-157.978,46.671C413.53,201.63,384.858,214.791,360,233.979a158.272,158.272,0,0,0-43.52,49.268,125.36,125.36,0,0,0-11.827,29.979c-10.778,43.192,3.072,92.913,16.819,138.929q2.048,6.808,4.045,13.691c20.71,71.456,26.752,143.72,8.7,211.545-9.779,36.409-28.39,74.709-62.95,95.536-49.178,29.652-107.187,25.391-158.72,28.593-4.07.252-8.115.58-12.186.933C38.925,807.975-20.134,826-66.7,865.034c-49.638,41.527-82.406,111.168-66,179.3" transform="translate(181.464 265.535)"/><path class="e" d="M1161.843-99.36a924.828,924.828,0,0,1-49,152.191c-9.165,21.835-19.379,43.7-34.739,61.925-39.219,46.495-102.451,59.858-159.642,63.287q-20.48,1.261-40.96,1.21a678.8,678.8,0,0,1-117.043-10.313c-51.507-9.052-102.4-24.155-157.747-27.181S485.773,151.418,448.6,185.936c-34.918,13.464-66.33,25.214-94.131,43.62A163.418,163.418,0,0,0,304.883,278.7a124.91,124.91,0,0,0-14.029,30.963c-13.286,44.957.461,97.452,13.926,145.938q2,7.186,3.942,14.422c20.122,75.39,23.91,151.284,2.56,222.034C300.608,727,282.2,763.865,248.922,784.364c-47.667,29.2-103.424,27.029-152.7,32.2-3.891.4-7.68.857-11.648,1.387-58.573,7.816-114.1,27.736-157.03,67.17-45.747,41.88-74.8,109.681-57.37,175.313" transform="translate(184.612 257.578)"/><path class="e" d="M1143.082-104.59a860.73,860.73,0,0,1-48,147.729c-9.037,21.18-19.1,42.334-33.946,60.085-37.914,45.385-98.253,60.06-153.344,65.254q-19.61,1.866-39.373,2.521a657.465,657.465,0,0,1-113.331-6.152c-50-7.135-99.661-20.02-153.421-22.113S488.26,152.819,451.14,184.488c-37.325,12.607-71.475,23.071-102.246,40.746-20.966,12.052-40.934,28.164-55.45,49.041a126.487,126.487,0,0,0-16.256,31.946c-15.8,46.721-2.15,102.016,11.008,152.973,1.306,5.043,2.56,10.086,3.866,15.128,19.558,79.3,21.222,159.024-3.763,232.473-11.366,33.434-29.67,68.884-61.85,89.031-46.08,28.693-99.482,28.618-146.509,35.779-3.712.555-7.424,1.16-11.11,1.841C13.021,843.53-38.87,865.517-78.14,905.2c-41.882,42.233-67.226,108.193-48.64,171.455" transform="translate(187.706 249.621)"/><path class="e" d="M1124.586-109.82a801.4,801.4,0,0,1-47.027,143.266c-8.909,20.5-18.816,40.922-33.152,58.244-36.608,44.124-94.054,60.161-147.021,67.12q-18.893,2.521-37.939,3.807a638.833,638.833,0,0,1-109.568-2.042c-48.64-5.043-96.922-15.708-148.966-16.868S491.319,153.968,454.1,183.065c-39.731,11.825-76.646,20.877-110.336,37.821-23.04,11.573-45.184,27.735-61.44,48.915a128.893,128.893,0,0,0-18.483,32.929c-18.278,48.537-4.787,106.6,8.064,160.033q1.92,7.942,3.738,15.91c19,83.206,18.79,166.79-9.984,242.936-12.058,31.871-30.182,65.859-61.44,85.728-44.365,28.24-95.667,30.257-140.442,39.359-3.507.731-7.04,1.488-10.547,2.32C.209,861.447-48.073,885.35-83.708,925.364c-37.99,42.587-59.622,106.706-40.166,167.345" transform="translate(190.535 241.664)"/><path class="e" d="M1106.045-115a741.16,741.16,0,0,1-46.08,138.677c-8.755,19.818-18.534,39.51-32.384,56.378-35.277,42.864-89.83,60.287-140.8,68.985q-18.125,3.152-36.454,5.043a616.66,616.66,0,0,1-105.907,2.244c-47.027-3.051-94.131-11.472-144.589-11.7s-105.8,10.514-142.874,36.938c-42.112,11.044-81.792,18.608-118.426,34.972-25.062,11.119-49.331,27.055-67.456,48.814a131.538,131.538,0,0,0-20.685,33.913c-20.813,50.277-7.347,111.118,5.12,167.017q1.869,8.27,3.635,16.641c18.406,87.114,16.563,174.657-16.23,253.375-12.672,30.383-30.72,62.883-60.8,82.349-42.752,27.735-91.8,31.871-134.323,42.864-3.354.883-6.682,1.79-10.01,2.774-50.253,14.725-94.9,40.62-126.9,80.937-34.1,42.864-52.019,105.218-31.539,163.361" transform="translate(193.384 233.783)"/><path class="e" d="M1087.706-120.28a688.842,688.842,0,0,1-44.954,134.34c-8.653,19.112-18.278,38.124-31.616,54.513-33.971,41.754-85.632,60.514-134.374,70.876q-17.408,3.732-35.021,6.4a595.074,595.074,0,0,1-102.169,6.43c-45.568-1.034-91.341-7.262-140.211-6.53S500.647,163.4,460.02,180.321c-42.086,17.65-87.04,16.49-126.541,32.1-27.085,10.64-53.5,26.475-73.421,48.688a134.8,134.8,0,0,0-23.04,34.9c-23.322,52.042-9.933,115.656,2.33,173.977q1.792,8.674,3.533,17.4c17.92,91.048,14.566,182.65-22.477,263.814-13.107,28.921-31.309,59.858-60.16,79-41.165,27.281-87.962,33.585-128.23,46.52-3.174,1.009-6.323,2.093-9.472,3.227-47.462,17.044-88.5,44.881-116.864,85.526-30.208,43.267-44.442,103.73-23.04,159.378" transform="translate(196.055 225.75)"/><path class="e" d="M1069.565-125.5A638.725,638.725,0,0,1,1025.609,4.352c-8.525,18.457-17.92,36.737-30.72,52.672-32.666,40.594-81.434,60.514-128,72.742q-16.614,4.387-33.536,7.715a575.052,575.052,0,0,1-98.662,10.59c-44.058.983-88.55-3.026-135.834-1.362s-95.667,17.272-135.68,32.148c-44.8,16.692-92.16,14.322-134.63,29.248-29.03,10.06-57.7,25.819-79.334,48.386A138.309,138.309,0,0,0,224.1,292.371c-25.856,53.882-12.57,120.3-.589,181.137q1.766,9,3.43,18.129c17.229,94.956,12.8,190.794-28.723,274.277-13.7,27.559-32.026,56.908-59.75,75.642-39.552,26.878-84.1,35.2-122.112,50.151-3,1.185-5.965,2.521-8.934,3.706-44.7,19.339-82.1,49.142-106.8,90.115-26.342,43.62-36.864,102.242-14.336,155.394" transform="translate(198.529 217.808)"/><path class="e" d="M1051.695-130.73A588.9,588.9,0,0,1,1008.738-5.341c-8.371,17.65-17.715,35.3-30.029,50.831C947.349,84.875,901.474,106,856.956,120.1q-15.9,5.043-32.1,9a557.944,557.944,0,0,1-94.72,14.826c-42.573,2.975-85.734,1.185-131.43,3.807s-92.621,16.893-131.891,29.727c-47.616,15.406-97.331,12-142.8,26.223-31.1,9.707-61.824,25.466-85.35,48.461a141.929,141.929,0,0,0-27.341,36.863c-28.365,55.471-15.155,124.759-3.507,188.1q1.741,9.38,3.354,18.835c16.666,98.814,11.392,199.165-34.97,284.741-14.157,26.2-32.614,53.933-59.213,72.389C79.048,879.417,36.732,889.755.969,906.749c-2.816,1.336-5.632,2.723-8.4,4.16-41.933,21.659-75.725,53.4-96.768,94.7-22.451,43.973-29.261,100.856-5.709,151.41" transform="translate(200.732 209.851)"/><path class="e" d="M1034.145-136A543.862,543.862,0,0,1,992.212-14.973,265.728,265.728,0,0,1,963.08,33.866c-30.054,38.224-73.037,60.74-115.456,76.5q-15.129,5.648-30.72,10.313a544.983,544.983,0,0,1-91.034,18.986c-40.96,5.043-82.97,5.421-127.078,8.976s-89.6,16.465-128.154,27.332c-50.278,14.145-102.5,9.959-150.886,23.373-33.1,9.329-65.971,24.886-91.392,48.436A146.305,146.305,0,0,0,198.792,285.6c-30.8,57.463-17.69,129.322-6.272,195.131q1.69,9.758,3.251,19.591c16.077,102.8,10.24,207.713-41.19,295.18-14.618,24.912-33.28,50.958-58.726,69.086C59.4,890.461,19.387,902.815-14.1,921.827c-2.56,1.513-5.274,3.051-7.859,4.614-39.142,23.979-69.325,57.689-86.733,99.318-18.56,44.326-21.658,99.267,2.893,147.426" transform="translate(202.615 201.834)"/><path class="e" d="M1016.968-141.19a499.19,499.19,0,0,1-40.96,116.337,274.352,274.352,0,0,1-28.493,47.1c-28.672,37.039-68.762,60.866-109.056,78.365-9.6,4.186-19.354,8.068-29.184,11.624a528.6,528.6,0,0,1-87.347,23.172c-39.6,7.009-80.154,9.657-122.675,14.145S512.9,165.487,474.812,174.464c-53.12,12.607-107.52,7.766-158.925,20.575-35.123,8.774-70.144,24.256-97.28,48.26a150.926,150.926,0,0,0-31.8,38.83c-33.28,59.1-20.48,133.861-9.293,202.14q1.664,10.086,3.123,20.322c15.514,106.706,9.216,216.538-47.411,305.644-15.053,23.651-33.869,47.906-58.189,65.733C40.3,901.382,2.466,915.931-28.766,936.808c-2.56,1.639-4.915,3.354-7.322,5.043a207.074,207.074,0,0,0-76.672,103.932c-14.694,44.629-14.08,97.755,11.494,143.417" transform="translate(204.099 193.938)"/><path class="e" d="M1000.253-146.42a456.22,456.22,0,0,1-39.91,111.849,287.556,287.556,0,0,1-27.7,45.385c-27.418,35.879-64.614,60.993-102.81,80.256-9.088,4.614-18.355,8.9-27.725,12.91A516.177,516.177,0,0,1,718.5,131.337c-38.118,9.027-77.363,13.868-118.323,19.314s-83.1,15.33-120.678,22.516c-55.885,10.691-112.794,5.6-167.04,17.65-37.146,8.245-74.317,23.625-103.245,48.083a155.75,155.75,0,0,0-34.022,39.788c-35.84,60.867-23.04,138.4-12.186,209.15,1.05,6.984,2.074,14.019,3.021,21.079,14.925,110.613,8.55,225.665-53.76,316.082-15.36,22.466-34.483,44.956-57.677,62.43-33.024,24.937-68.608,41.553-97.562,64.422q-3.4,2.673-6.758,5.522a203.971,203.971,0,0,0-66.56,108.42c-10.8,44.982-6.477,96.267,20.1,139.434" transform="translate(205.146 185.981)"/><path class="e" d="M984.333-151.65A418.164,418.164,0,0,1,945.447-44.264,313.993,313.993,0,0,1,918.516-.845C892.4,33.824,858.1,60.248,822.029,81.277c-8.6,5.043-17.382,9.758-26.266,14.2a503.905,503.905,0,0,1-79.923,31.568c-36.608,11.018-74.573,18.078-113.92,24.458s-79.77,14.674-116.966,20.171c-58.6,8.623-117.939,3.354-175.155,14.775-39.142,7.816-78.464,23.121-109.21,47.907a160.255,160.255,0,0,0-36.224,40.9c-38.4,62.631-25.6,142.963-15.1,216.184,1.05,7.211,2.022,14.5,2.944,21.81,14.336,114.522,8.166,235.1-59.9,326.521A305.823,305.823,0,0,1,35.162,898.89c-31.514,24.458-64.87,43.192-91.622,68.078-2.1,1.967-4.173,3.958-6.221,6a202.34,202.34,0,0,0-56.6,113.11c-6.912,45.385,1.126,94.779,28.723,135.449" transform="translate(205.399 178.024)"/><path class="e" d="M969.111-156.88A381.667,381.667,0,0,1,931.223-53.957,342.1,342.1,0,0,1,905.085-12.4C880.279,21.105,848.765,48.79,814.9,71.584,806.807,77.03,798.513,82.2,790.09,87.09A491.921,491.921,0,0,1,713.9,122.844,692.284,692.284,0,0,1,604.337,152.47c-37.555,7.262-76.288,13.969-113.229,17.65-61.235,6.228-123.085,1.21-183.245,11.951-41.165,7.337-82.611,22.541-115.2,47.907a165.6,165.6,0,0,0-38.323,41.855C113.38,336.2,126.18,419.31,136.42,495c1,7.564,1.971,15.128,2.842,22.693C153.009,636.2,147.3,762.573,73.111,854.679a368.452,368.452,0,0,1-56.627,55.773c-29.9,23.978-61,44.805-85.5,71.583-1.92,2.118-3.814,4.261-5.683,6.455a202.777,202.777,0,0,0-46.746,117.547c-3.021,45.688,8.73,93.292,37.35,131.466" transform="translate(204.954 170.067)"/><path class="e" d="M954.741-162.11C934.619-63.927,869.365,22.381,785.422,78.709s-185.754,84.215-287.283,90.064c-63.8,3.656-128.256-.983-191.334,9.052s-127.1,37.821-161.818,90.569c-43.52,66.136-30.72,152.04-20.89,230.2,16.256,128.591,16.026,272.311-69.658,370.645C11.765,918.207-48.6,950.96-86.206,1003.784c-52.122,73.246-48.077,180.532,9.421,249.77" transform="translate(203.632 162.11)"/></g><g transform="translate(230.246 742.58)"><path class="e" d="M89.94,712.483A1682.983,1682.983,0,0,1,218.964,557.164c20.48-21.86,42.163-43.62,69.324-56.656,69.453-33.257,152.5-.958,217.907,39.46A896.02,896.02,0,0,1,671.828,671.661c49.2,49.722,93.363,105.9,152.985,142.913s141.44,50.756,199.04,10.741c34.278-23.8,54.912-63.312,62.72-103.882s3.968-82.475-2.714-123.246c-7.68-46.7-18.867-95.385-3.917-140.316,15.514-46.52,60.339-82.147,109.773-87.24,70.323-7.262,132.147,40.973,191.437,78.945,75.289,48.26,162.79,84.189,252.467,79.1s180.326-59.1,207.232-143.518" transform="translate(-89.94 -179.434)"/><path class="e" d="M93.57,728.232A1550.606,1550.606,0,0,1,220.8,575.965c20.275-21.331,41.7-42.536,68.4-55.345,53.632-25.718,115.379-12.607,170.726,12.607a468.1,468.1,0,0,1,43.52,22.869,874.5,874.5,0,0,1,164.275,125.44C716.751,729.115,760.68,783.426,819.663,819,852.738,839,891.931,852.689,930.536,855.16c33.613,2.118,66.97-4.463,94.848-23.247a132.767,132.767,0,0,0,14.157-10.993c27.366-24.483,43.981-59.682,51.2-95.813a270.2,270.2,0,0,0,4.634-34.695c2.048-30.585-.359-61.522-3.917-91.779-5.606-47.906-13.082-97.1,3.789-141.93s59.7-79.172,107.955-84.366c68.685-7.438,129.254,38.023,187.213,73.322,4.582,2.8,9.19,5.522,13.849,8.22,70.349,40.519,149.965,68.658,230.861,62.2,86.246-6.883,172.723-60.514,197.709-143.14" transform="translate(-84.277 -176.954)"/><path class="e" d="M97.2,751.4A1439.5,1439.5,0,0,1,222.64,602.211c20.07-20.827,41.267-41.452,67.482-54.058,52.685-25.214,113.178-13.515,167.654,10.086a467.965,467.965,0,0,1,42.957,21.432A852.97,852.97,0,0,1,663.6,698.881c48.794,45.385,92.6,97.906,151.04,132.247,34.33,20.171,74.547,34.493,114.33,37.569,34.56,2.521,69.12-3.555,98.074-22.466a128.814,128.814,0,0,0,14.694-11.17c28.518-24.937,45.542-61.194,53.376-98.334a291.983,291.983,0,0,0,5.12-35.98c2.56-31.417,1.177-63.237-1.126-94.224-3.533-49.268-7.3-98.763,11.494-143.568,17.92-42.536,59.11-76.171,106.189-81.492,67-7.564,126.336,35.047,182.989,67.7q6.682,3.782,13.517,7.564c68.685,37.342,145.741,62.279,223.411,54.134,82.79-8.648,165.12-62.127,188.186-142.711" transform="translate(-78.614 -182.096)"/><path class="e" d="M100.82,775.378a1337.433,1337.433,0,0,1,123.7-146.241c19.814-20.3,40.781-40.342,66.56-52.748,51.686-24.886,110.95-14.372,164.557,7.564a468.167,468.167,0,0,1,42.445,20.272A831.173,831.173,0,0,1,659.566,717.159c48.64,43.419,92.288,93.872,149.939,126.952,35.61,20.423,76.8,35.3,117.76,38.981,35.533,3.152,71.347-2.673,101.3-21.709a130.842,130.842,0,0,0,15.36-11.321C1073.569,824.646,1091,787.3,1099.4,749a321.567,321.567,0,0,0,5.734-36.989c3.174-32.274,2.688-64.976,1.638-96.7-1.485-50.554-1.613-100.351,19.2-145.182,18.816-40.569,58.522-73.121,104.422-78.643,65.331-7.791,123.418,32.1,178.739,62.077q6.554,3.555,13.209,6.959c67.047,34.165,141.517,55.924,215.936,46.091,79.36-10.464,157.542-63.665,178.714-142.333" transform="translate(-72.967 -187.969)"/><path class="e" d="M104.45,799.441A1238.786,1238.786,0,0,1,226.357,656.4C245.967,636.609,266.7,617.119,292,604.94c50.739-24.458,108.774-15.128,161.485,5.169q21.366,8.273,41.8,18.633a810.056,810.056,0,0,1,160.077,106.68c48.384,41.3,91.981,89.787,148.915,121.607,36.89,20.625,79.13,36.106,121.242,40.343,36.454,3.681,73.523-1.74,104.525-20.928a135.553,135.553,0,0,0,15.846-11.472c30.72-25.895,48.64-64.321,57.574-103.756a352.734,352.734,0,0,0,6.323-37.972c3.738-33.106,4.2-66.716,4.429-99.192.563-51.815,3.994-101.89,26.88-146.8,19.686-38.577,57.907-70.2,102.63-75.768,63.667-7.942,120.5,29.147,174.541,56.454,4.25,2.168,8.55,4.261,12.8,6.329,65.382,30.988,137.293,49.546,208.486,38.023,75.878-12.254,149.965-65.153,169.19-141.9" transform="translate(-67.304 -193.902)"/><path class="e" d="M108.08,823.458A1150.388,1150.388,0,0,1,228.2,683.469c19.379-19.263,39.859-38.174,64.691-50.151,49.792-24.029,106.573-16.087,158.413,2.647a446.211,446.211,0,0,1,41.216,17.246,788.284,788.284,0,0,1,158.72,100.4c48.179,39.233,91.725,85.727,147.917,116.312,38.17,20.8,81.382,36.888,124.7,41.8,37.4,4.186,75.7-.857,107.725-20.171a140.4,140.4,0,0,0,16.435-11.623c31.923-26.349,50.176-65.859,59.673-106.429a375.013,375.013,0,0,0,6.887-39.006c4.326-33.938,5.657-68.431,7.219-101.638,2.56-53.126,9.523-103.377,34.611-148.409,20.48-36.636,57.293-67.22,100.839-72.919,61.978-8.119,117.581,26.2,170.291,50.831,4.173,1.941,8.346,3.858,12.57,5.7,63.718,27.735,133.12,43.192,201.011,29.979,72.448-14.069,142.387-66.691,159.693-141.526" transform="translate(-61.642 -199.79)"/><path class="e" d="M111.71,847.5A1067.4,1067.4,0,0,1,230.059,710.567c19.174-18.734,39.424-37.089,63.769-48.864,48.819-23.6,104.371-16.919,155.341.176,13.952,4.639,27.571,10.086,40.627,15.809a768.329,768.329,0,0,1,157.338,94.174c47.949,37.115,91.443,81.517,146.893,110.941,39.475,20.978,83.661,37.821,128.154,43.217,38.4,4.715,77.875,0,110.925-19.39a138.057,138.057,0,0,0,17-11.775c33.075-26.828,51.738-67.422,61.8-109.1,3.2-13.288,5.606-26.7,7.475-40.015,4.89-34.8,7.142-70.171,10.01-104.134,4.557-54.387,14.95-104.915,42.291-150.023,21.094-34.644,56.678-64.195,99.046-69.944,60.339-8.3,114.688,23.247,166.093,45.234,4.045,1.715,8.141,3.4,12.237,5.043,62.08,24.609,128.845,36.812,193.562,21.911,68.992-15.834,134.784-68.078,150.2-141.2" transform="translate(-55.979 -205.708)"/><path class="e" d="M115.34,871.511A992.03,992.03,0,0,1,231.9,737.675c18.944-18.229,38.963-36.005,62.848-47.579,47.872-23.171,102.2-17.8,152.269-2.345,13.722,4.186,27.162,9.127,40.064,14.422a749.783,749.783,0,0,1,155.93,87.9c47.744,35.022,91.213,77.356,145.92,105.672,40.806,21.129,85.965,38.476,131.635,44.628,39.27,5.219,80.051.933,114.15-18.633a139.233,139.233,0,0,0,17.562-11.951c34.227-27.281,53.274-68.935,64-111.773,3.354-13.615,5.939-27.382,8.013-41.023,5.479-35.627,8.678-71.885,12.8-106.579,6.6-55.7,20.3-106.453,50-151.662,21.555-32.778,56.089-61.22,97.28-67.17,58.65-8.472,111.744,20.171,161.869,39.611q5.914,2.269,11.9,4.412c60.416,21.432,124.621,30.458,186.112,13.868,65.536-17.65,127.181-69.716,140.8-140.719" transform="translate(-50.316 -211.611)"/><path class="e" d="M119,895.543A923.123,923.123,0,0,1,233.816,764.758c18.713-17.65,38.4-34.921,61.9-46.268,46.925-22.693,99.84-18.557,149.171-4.841,13.517,3.757,26.752,8.195,39.5,13.01A728.556,728.556,0,0,1,638.936,808.3c47.539,32.929,91.008,73.121,144.87,100.326,42.112,21.28,88.243,39.283,135.066,46.041,40.243,5.749,82.253,1.841,117.376-17.877a136.927,136.927,0,0,0,18.15-12.077c35.354-27.735,54.835-70.6,66.022-114.446,3.533-13.969,6.3-28.089,8.6-42.032,6.042-36.485,10.24-73.6,15.565-109.076,8.678-56.958,25.6-107.966,57.7-153.25,21.965-30.938,55.475-58.244,95.514-64.321,56.986-8.648,108.826,17.347,157.619,33.989,3.84,1.311,7.68,2.521,11.6,3.782,58.88,18.23,120.32,24.079,178.637,5.8,62.106-19.44,119.6-71.2,131.174-140.29" transform="translate(-44.606 -217.514)"/><path class="e" d="M122.59,919.544A860.168,860.168,0,0,1,235.614,791.835c18.585-17.17,38.041-33.837,60.979-44.906,45.952-22.314,97.766-19.415,146.1-7.363,13.286,3.328,26.342,7.262,38.938,11.624a709.3,709.3,0,0,1,153.139,75.39c47.334,30.812,90.829,68.885,143.846,95.006,43.52,21.382,90.547,40.09,138.547,47.453,41.19,6.253,84.48,2.748,120.6-17.12a143.045,143.045,0,0,0,18.714-12.228c36.506-28.24,56.32-72.062,68.122-117.119,3.712-14.322,6.656-28.769,9.19-43.04,6.6-37.342,11.7-75.339,18.355-111.547,10.7-58.269,30.72-109.529,65.408-154.889,22.272-29.122,54.861-55.244,93.7-61.446,55.322-8.825,105.933,14.4,153.421,28.366,3.738,1.084,7.5,2.143,11.264,3.152,57.114,15.128,116.173,17.65,171.187-2.244,58.65-21.23,112.026-72.742,121.677-139.912" transform="translate(-39.006 -223.387)"/><path class="e" d="M126.22,943.728A798.116,798.116,0,0,1,237.478,819.07C255.73,802.4,275.033,786.292,297.51,775.4c45-21.911,95.565-20.171,143.027-9.858,13.082,2.874,25.907,6.328,38.4,10.085a691.565,691.565,0,0,1,151.783,69.137c47.1,28.719,90.624,64.649,142.822,89.686,44.8,21.507,92.8,40.9,142,48.865,42.138,6.783,86.6,3.656,123.8-16.339a144.162,144.162,0,0,0,19.277-12.38c37.658-28.693,57.933-73.6,70.246-119.817,3.891-14.649,7.014-29.45,9.754-44.049,7.194-38.149,13.235-77.054,21.146-114.017,12.8-59.556,35.84-111.143,73.114-156.478,22.528-27.357,54.272-52.269,91.929-58.6,53.76-9,102.989,11.447,149.171,22.692,3.661.883,7.3,1.715,10.982,2.521,55.424,11.876,111.923,11.346,163.712-10.312,55.168-23.02,104.422-74.23,112.154-139.509" transform="translate(-33.343 -229.442)"/><path class="e" d="M129.85,967.644A743.556,743.556,0,0,1,239.316,846.087c17.92-16.162,37.12-31.669,59.11-42.385,44.058-21.482,93.389-21.129,139.955-12.355,12.8,2.522,25.6,5.4,37.76,8.774a674.168,674.168,0,0,1,150.4,62.884c46.9,26.626,90.445,60.337,141.824,84.366,46.08,21.583,95.078,41.679,145.459,50.277,43.059,7.286,88.781,4.538,127-15.582a146.282,146.282,0,0,0,19.866-12.607c38.784-29.122,59.469-75.087,72.346-122.414,4.07-15.128,7.373-30.257,10.24-45.057,7.68-39.006,14.746-78.794,23.936-116.488,14.822-60.842,40.678-112.833,80.794-158.117,22.707-25.617,53.76-49.268,90.138-55.7,51.994-9.178,100.1,8.472,144.973,17.1,3.533.681,7.091,1.311,10.65,1.891,53.76,8.7,107.7,5.043,156.16-18.356,51.738-24.836,96.845-75.768,102.656-139.105" transform="translate(-27.68 -235.254)"/><path class="e" d="M133.48,991.595A691.97,691.97,0,0,1,241.154,873.089c17.92-15.633,36.659-30.559,58.214-41.1,43.059-21.029,91.162-21.962,136.858-14.851,12.621,1.967,25.062,4.488,37.2,7.388a655.466,655.466,0,0,1,148.992,56.605c46.694,24.533,90.291,56.051,140.8,79.046,47.539,21.633,97.28,42.485,148.915,51.688,44.032,7.816,90.982,5.446,130.253-14.8a146.163,146.163,0,0,0,20.48-12.607c39.936-29.626,61.031-76.676,74.445-125.162,4.224-15.33,7.68-30.811,10.931-46.066,8.32-39.838,16.333-80.483,26.7-118.934,17-62.1,45.542-114.623,88.5-159.756,22.835-23.953,53.069-46.293,88.371-52.823,50.33-9.354,97.28,5.5,140.8,11.472,3.456.454,6.886.882,10.24,1.261,52.121,5.5,103.449-1.387,148.787-26.424,48.281-26.626,89.241-77.255,93.158-138.677" transform="translate(-22.018 -241.126)"/><path class="e" d="M137.11,1015.722A642.308,642.308,0,0,1,243.017,900.293c17.613-15.128,36.2-29.5,57.267-39.813,42.112-20.625,88.986-22.693,133.786-17.347,12.39,1.513,24.653,3.53,36.608,5.976a638.231,638.231,0,0,1,147.61,50.428c46.49,22.415,90.163,51.688,139.8,73.726,48.9,21.659,99.661,43.267,152.371,53.1,44.979,8.321,93.158,6.329,133.453-14.044a148.319,148.319,0,0,0,21.018-12.859c40.96-30.105,62.566-78.163,76.544-127.835,4.4-15.683,8.09-31.518,11.494-47.075,8.909-40.7,17.92-82.223,29.491-121.43,19.072-63.388,50.278-116.514,96.2-161.37,23.04-22.339,52.454-43.317,86.6-49.974,48.64-9.531,94.259,2.521,136.5,5.85,3.328.252,6.656.454,10.01.63,50.483,2.32,99.226-7.741,141.312-34.467,44.851-28.517,81.664-78.945,83.737-138.349" transform="translate(-16.355 -247.075)"/><path class="e" d="M140.73,1039.739A598.743,598.743,0,0,1,244.871,927.361c17.382-14.574,35.84-28.392,56.32-38.5,41.165-20.171,86.784-23.676,130.714-19.869,12.186,1.059,24.218,2.521,36.045,4.564A624.3,624.3,0,0,1,614.176,917.7c46.285,20.348,90.01,47.352,138.8,68.405,50.278,21.684,101.939,44.074,155.827,54.513,45.9,8.85,95.334,7.236,136.678-13.263a150.994,150.994,0,0,0,21.555-13.01c42.214-30.585,64.128-79.8,78.669-130.508,4.582-16.036,8.448-32.223,12.083-48.108,9.472-41.527,19.379-83.937,32.282-123.876,21.12-64.674,54.912-118.506,103.911-162.983,22.912-20.776,51.84-40.342,84.787-47.1,47-9.708,91.341-.4,132.3.227h9.677c48.819-.857,95-14.12,133.862-42.536,41.4-30.257,74.086-80.281,74.24-137.9" transform="translate(-10.708 -252.963)"/><path class="e" d="M144.36,1063.867A556.2,556.2,0,0,1,246.76,954.59a291.541,291.541,0,0,1,55.4-37.215c40.192-19.768,84.48-24.558,127.642-22.365,11.955.605,23.808,1.689,35.456,3.152A608.761,608.761,0,0,1,610.1,935.982c46.08,18.23,89.856,42.864,137.754,63.035,51.686,21.684,104.217,44.906,159.309,55.95,46.848,9.329,97.51,8.144,139.878-12.607a153.3,153.3,0,0,0,22.144-13.162c43.366-31.064,65.664-81.34,80.768-133.205,4.762-16.364,8.806-32.778,12.646-49.091,10.035-42.385,20.89-85.728,35.072-126.372,23.168-65.934,59.443-120.724,111.616-164.571,23.04-19.289,51.2-37.342,83.021-44.25,45.312-9.884,88.422-3.354,128-5.4,3.123-.151,6.246-.378,9.37-.63,47.155-4.034,90.777-20.474,126.413-50.579,37.939-32.022,66.56-81.819,64.64-137.492" transform="translate(-5.045 -258.987)"/><path class="e" d="M148,1087.823A518.044,518.044,0,0,1,248.583,981.6a301.843,301.843,0,0,1,54.477-35.9c39.245-19.339,82.406-25.416,124.569-24.886,11.725.177,23.4.782,34.867,1.765a593.888,593.888,0,0,1,143.36,31.568c45.85,16.137,89.728,38.6,136.755,57.765,53.094,21.633,106.5,45.688,162.739,57.336,47.821,9.859,99.712,9.052,143.1-11.725a156.461,156.461,0,0,0,22.733-13.313c44.493-31.442,67.3-82.9,82.893-135.878,4.941-16.717,9.19-33.585,13.235-50.1,10.6-43.217,22.4-87.392,37.862-128.843,25.216-67.246,63.872-123.095,119.3-166.211,23.04-17.826,50.637-34.341,81.229-41.376,43.674-10.085,85.53-6.3,123.853-11.018,3.021-.378,6.042-.807,9.037-1.261,45.517-7.236,86.554-26.853,118.938-58.648,34.509-33.787,58.88-83.206,55.142-137.088" transform="translate(0.634 -264.814)"/><path class="e" d="M151.62,1112.077A480.593,480.593,0,0,1,250.436,1008.7a314.829,314.829,0,0,1,53.53-34.594c38.4-18.936,80.2-26.3,121.5-27.382q17.28-.454,34.3.353a579.66,579.66,0,0,1,142.054,25.214c45.645,14.044,89.6,34.19,135.68,52.42,54.528,21.558,108.8,46.495,166.221,58.774,48.768,10.363,101.888,9.934,146.33-10.968a157.8,157.8,0,0,0,23.3-13.49c45.645-31.971,68.762-84.416,84.966-138.551,5.12-17.044,9.549-34.266,13.824-51.109,11.161-44.048,23.91-89.106,40.627-131.314,27.289-68.506,68.224-125.666,127-167.8,23.04-16.439,50.048-31.366,79.36-38.527,41.984-10.237,82.586-9.253,119.6-16.641,2.918-.58,5.837-1.21,8.73-1.891A210.869,210.869,0,0,0,1658.948,446.5c31.027-35.6,51.2-84.845,45.619-136.685" transform="translate(6.281 -270.839)"/><path class="e" d="M155.25,1135.862a447.126,447.126,0,0,1,97.024-100.074,330.723,330.723,0,0,1,52.608-33.333c37.325-18.482,78.029-27.206,118.426-29.853,11.29-.781,22.554-1.109,33.715-1.084A567.911,567.911,0,0,1,597.695,990.6c45.44,11.926,89.6,29.752,134.733,47.1,55.936,21.457,111.078,47.377,169.7,60.161,49.69,10.892,104.064,10.842,149.53-10.212a157.175,157.175,0,0,0,23.859-13.615c46.8-32.45,70.323-85.98,87.04-141.2,5.274-17.4,9.907-34.947,14.387-52.117,11.75-44.906,25.446-90.77,43.52-133.785,29.338-69.792,72.5-128.465,134.733-169.438a262.963,262.963,0,0,1,77.67-35.653c40.32-10.388,79.667-12.2,115.379-22.264,2.816-.781,5.606-1.639,8.4-2.521a207.211,207.211,0,0,0,104.013-74.76c27.6-37.392,43.725-86.332,36.122-136.281" transform="translate(11.944 -276.62)"/><path class="e" d="M158.87,1159.94a415.973,415.973,0,0,1,95.258-97.024,352.389,352.389,0,0,1,51.686-32.022,341.87,341.87,0,0,1,115.354-32.375c11.059-1.236,22.118-2.017,33.152-2.521a557.233,557.233,0,0,1,139.29,12.809c45.21,9.834,89.344,25.214,133.709,41.78,57.37,21.306,113.357,48.083,173.133,61.572,50.637,11.422,106.24,11.75,152.755-9.43a160.512,160.512,0,0,0,24.422-13.767c47.923-32.929,71.859-87.543,89.191-143.9,5.453-17.65,10.24-35.652,14.976-53.151,12.313-45.738,26.957-92.56,46.08-136.156,31.385-71.1,76.8-131.491,142.413-171.076a304.953,304.953,0,0,1,75.878-32.778c38.656-10.565,76.8-15.128,111.155-27.887,2.714-1.008,5.427-2.042,8.09-3.152a205.787,205.787,0,0,0,96.691-82.878c24.141-39.208,36.122-87.871,26.624-135.878" transform="translate(17.591 -282.569)"/><path class="e" d="M162.5,1183.8a385.822,385.822,0,0,1,93.44-93.947A364.717,364.717,0,0,1,418.961,1024.3c10.829-1.689,21.709-2.975,32.563-3.883a545.149,545.149,0,0,1,137.907,6.556c45,7.741,89.216,20.852,132.685,36.459,58.88,21.1,115.661,48.865,176.64,63.035,51.584,11.926,108.416,12.607,155.955-8.674a161.637,161.637,0,0,0,25.011-13.918c49.075-33.408,73.421-89.081,91.29-146.594,5.632-18.078,10.624-36.333,15.539-54.135,12.8-46.6,28.493-94.275,49-138.677,33.459-72.364,80.845-134.743,150.118-172.665a369.6,369.6,0,0,1,74.24-29.929c36.992-10.741,73.83-18.1,106.931-33.509,2.56-1.21,5.12-2.521,7.68-3.782a205.974,205.974,0,0,0,89.088-90.77c20.685-40.973,28.544-89.384,17.1-135.475" transform="translate(23.254 -288.305)"/><path class="e" d="M166.13,1207.988c57.062-82.9,151.04-137.694,250.726-157.714s204.262-7.06,300.186,26.147c60.288,20.877,117.914,49.7,180.045,64.4s132.045,13.59,184.781-21.961c65.971-44.5,87.987-128.592,109.517-204.41,35.4-124.759,92.16-257.409,209.587-315.5,58.573-28.92,127.1-36.182,182.5-70.6,76.8-47.755,115.2-148.258,89.216-233.986" transform="translate(28.916 -294.36)"/></g><g transform="translate(-676.429 -375.911)"><path class="e" d="M-264.23,46.368A1696.29,1696.29,0,0,1-108.889-83.509c24.166-17.852,49.459-35.3,78.566-43.393,74.394-20.474,150.17,26.147,207,77.508A889.176,889.176,0,0,1,315.584,109.579C354.88,167.218,388.032,230.3,439.9,277.328s129.818,75.037,193.818,45.915c38.067-17.322,65.587-52.521,80.691-91.048s19.021-80.407,19.917-121.708c1.024-47.276-1.1-97.175,21.837-138.677,23.757-42.864,74.393-70.07,123.93-66.313,70.528,5.371,122.5,63.791,173.85,111.673,65.229,60.791,144.717,111.673,233.779,122.615S1475.9,113.664,1517.812,35.4" transform="translate(264.23 175.717)"/><path class="e" d="M-262,51.8A1570.578,1570.578,0,0,1-108.963-75.356c23.833-17.4,48.819-34.417,77.414-42.284C25.923-133.424,84.24-109.6,134.058-74.776a467.4,467.4,0,0,1,38.63,30.257A866.638,866.638,0,0,1,311.44,107.949c39.424,55.521,72.7,116.741,124.211,162.3,28.877,25.567,64.9,45.99,102.4,55.269,32.666,8.068,66.688,7.564,97.562-6a134.054,134.054,0,0,0,15.923-8.321c31.411-19.213,54.144-50.882,67.968-85.047a269.379,269.379,0,0,0,10.906-33.585c7.68-29.7,10.906-60.514,12.928-90.947,3.277-48.184,4.941-97.83,29.722-138.929S846.3-104.579,894.71-101.125c68.915,4.891,120.166,60.362,170.726,105.394,3.968,3.53,8.013,7.06,12.109,10.514,61.773,52.369,135.014,94.174,215.68,102.192,86.093,8.573,180.992-28.946,220.672-105.646" transform="translate(267.709 189.752)"/><path class="e" d="M-259.69,57.274A1449.532,1449.532,0,0,1-108.957-67.183C-85.431-84.1-60.8-100.642-32.695-108.357,23.753-123.889,81.1-101.549,130.326-68.595a468.231,468.231,0,0,1,38.4,28.744A845.815,845.815,0,0,1,307.094,106.39C346.7,159.743,380.182,219.071,431.28,263.3c30.157,25.92,67.021,47.1,105.574,57.185,33.51,8.749,68.659,8.774,100.582-4.69a132.876,132.876,0,0,0,16.512-8.346c32.614-19.49,55.987-52.142,70.5-87.316A289.073,289.073,0,0,0,736.1,185.663c8.346-30.433,12.8-62,16.154-92.888,5.53-49.066,10.906-98.334,37.581-139.156,25.344-38.678,72.09-64.422,119.373-61.32,67.3,4.438,117.76,56.933,167.578,99.116q5.914,5.043,11.93,9.833c60.723,48.966,131.943,87.165,209.92,92.964,83.021,6.177,173.8-31.795,211.251-106.958" transform="translate(271.312 203.767)"/><path class="e" d="M-257.41,68.9A1344.971,1344.971,0,0,1-108.93-52.858C-85.711-69.3-61.416-85.308-33.82-92.923c55.424-15.28,111.8,5.6,160.461,36.787A457.253,457.253,0,0,1,164.657-28.9,825.558,825.558,0,0,1,302.9,110.856c39.783,51.336,73.421,108.773,124.058,151.536,31.283,26.4,69.12,48.36,108.723,59.253,34.355,9.43,70.656,10.086,103.6-3.353a132.385,132.385,0,0,0,17.1-8.422c33.818-19.717,57.8-53.353,73.088-89.56a323.836,323.836,0,0,0,12.39-35.3c9.037-31.164,14.541-63.438,19.328-94.83C769,40.207,777.982-8.809,806.654-49.2c25.933-36.585,71.066-61.648,117.146-58.849,65.69,3.959,115.507,53.5,164.454,92.813q5.786,4.639,11.725,9.178c59.674,45.511,128.947,80.155,203.955,83.71,79.949,3.782,166.63-34.644,201.83-108.269" transform="translate(274.869 211.58)"/><path class="e" d="M-255.14,83.9A1246.662,1246.662,0,0,1-109.04-35.159c22.912-15.985,46.848-31.467,73.958-38.955,54.4-15.128,109.8,4.337,157.9,33.762,13.158,8.018,25.779,16.767,37.709,25.769A802.679,802.679,0,0,1,298.46,118.772c40.013,49.218,73.958,104.663,124.211,146.064,32.486,26.853,71.194,49.571,111.846,61.27,35.174,10.086,72.627,11.346,106.624-2.017a133.593,133.593,0,0,0,17.69-8.472c35.046-19.995,59.622-54.613,75.648-91.8a353.784,353.784,0,0,0,13.158-36.258c9.754-31.9,16.333-64.876,22.528-96.771C780.2,39.9,792.745-8.735,823.49-48.825c26.419-34.442,69.811-58.749,114.816-56.3,64,3.48,113.177,50.075,161.28,86.534,3.789,2.874,7.68,5.724,11.52,8.5,58.624,42.107,125.952,73.12,198.093,74.457,76.8,1.412,159.437-37.468,192.41-109.529" transform="translate(278.41 216.094)"/><path class="e" d="M-252.87,98.856a1158.735,1158.735,0,0,1,143.8-116.363C-86.5-33.013-62.995-47.965-36.268-55.327,17.108-70.1,71.508-52.2,119.072-24.566,132.1-17,144.672-8.782,156.448-.285A783.132,783.132,0,0,1,294.176,126.667c40.192,47.1,74.522,100.553,124.186,140.643,33.741,27.256,73.4,50.756,115,63.262,36.019,10.792,74.624,12.607,109.645-.706a136.6,136.6,0,0,0,18.3-8.5c36.224-20.171,61.44-55.874,78.182-94.073a390.532,390.532,0,0,0,13.926-37.14c10.47-32.627,18.073-66.313,25.6-98.713C791.277,39.7,807.405-8.581,840.327-48.394c26.778-32.375,68.659-55.925,112.64-53.807,62.464,3.026,110.848,46.671,158.208,80.281q5.606,3.959,11.315,7.816c57.6,38.653,122.88,66.111,192.23,65.2,73.83-.958,152.243-40.342,182.989-110.941" transform="translate(281.952 220.605)"/><path class="e" d="M-250.6,113.79A1077.414,1077.414,0,0,1-109.109.15c22.272-15.128,45.568-29.475,71.68-36.737C14.923-51.135,68.35-34.72,115.352-8.851c12.8,7.035,25.293,14.775,37.069,22.693A762.06,762.06,0,0,1,289.893,134.516c40.371,45.007,75.034,96.418,124.083,135.147C449.048,297.4,489.47,321.7,532.2,335.042c36.864,11.422,76.6,13.868,112.64.605a139,139,0,0,0,18.867-8.573c37.453-20.5,63.232-57.109,80.768-96.317,5.581-12.607,10.24-25.214,14.643-38.048,11.187-33.333,19.891-67.725,28.928-100.629,14.438-52.7,33.894-100.553,69.12-140.064C884.2-78.24,924.67-100.932,967.422-99.268c60.851,2.521,108.518,43.242,155.085,73.978,3.661,2.521,7.373,4.816,11.11,7.136,56.551,35.249,120.038,59.1,186.368,55.849,70.758-3.328,145.05-43.116,173.568-112.126" transform="translate(285.493 225.136)"/><path class="e" d="M-248.33,128.782A1000.209,1000.209,0,0,1-109.143,17.841c21.965-14.574,44.9-28.517,70.5-35.627,51.354-14.3,103.782.63,150.2,24.735,12.8,6.556,25.062,13.792,36.787,21.306A741.114,741.114,0,0,1,285.609,142.4c40.55,42.864,75.571,92.283,124.134,129.827,36.275,28.038,77.491,53.126,121.293,67.3,37.709,12.1,78.592,15.128,115.712,1.941a138.961,138.961,0,0,0,19.456-8.623c38.656-20.751,65.024-58.37,83.328-98.587,5.811-12.809,10.854-25.895,15.36-38.93,11.955-34.064,21.862-69.162,32.1-102.57,16.691-53.6,39.45-101.083,76.954-140.265,27.238-28.441,66.406-50.277,108.032-48.814,59.238,2.093,106.189,39.813,151.962,67.7,3.584,2.194,7.245,4.362,10.906,6.455,55.5,31.82,116.992,52.117,180.506,46.721,67.687-5.724,137.882-45.965,164.147-113.463" transform="translate(289.034 229.634)"/><path class="e" d="M-246,149.7A929.463,929.463,0,0,1-109.271,41.453C-87.613,27.358-65.008,13.944-39.894,6.935c50.3-14.044,101.709-.479,147.61,21.734,12.6,6.1,24.806,12.809,36.454,19.818A722.961,722.961,0,0,1,281.36,156.227c40.73,40.847,76.134,88.249,124.134,124.431,37.4,28.416,79.462,54.311,124.186,69.288,38.528,12.783,80.563,16.414,118.733,3.253a138.977,138.977,0,0,0,20.045-8.648c39.885-21.028,66.842-59.606,85.888-100.856,6.067-13.111,11.341-26.5,16.179-39.813,12.621-34.8,23.5-70.6,35.277-104.512C824.873,44.857,850.806-2.293,890.64-41c27.264-26.525,65.229-47.453,105.7-46.293C1054.07-85.8,1100.3-51.082,1145.257-25.868c3.558,1.967,7.117,3.883,10.726,5.774,54.451,28.391,114,45.083,174.643,37.443,64.64-8.094,130.688-48.789,154.726-114.7" transform="translate(292.669 228.185)"/><path class="e" d="M-243.78,175.293A865.174,865.174,0,0,1-109.226,69.772C-87.876,56.157-65.706,43.247-41,36.364c49.28-13.792,99.712-1.715,145.05,18.709C116.514,60.7,128.6,66.9,140.194,73.4a703.986,703.986,0,0,1,136.832,101.36c40.96,38.729,76.8,83.887,124.109,119.01,38.835,28.744,81.69,55.471,127.565,71.28,39.373,13.464,82.56,17.65,121.754,4.589a140.538,140.538,0,0,0,20.634-8.648c40.96-21.306,68.659-60.867,88.474-103.125,6.272-13.414,11.8-27.105,16.922-40.7,13.338-35.526,25.293-72.036,38.4-106.453C836.079,55.249,865.135,8.427,907.58-30c27.238-24.684,64-44.6,103.424-43.8,56.038,1.16,101.53,32.955,145.69,55.143,3.482,1.74,6.989,3.454,10.522,5.043,53.4,24.962,111,38.073,168.781,28.214,61.44-10.489,123.494-51.638,145.28-115.984" transform="translate(296.132 222.054)"/><path class="e" d="M-241.51,200.884A806.889,806.889,0,0,1-109.26,98.036C-88.243,84.9-66.3,72.52-42.188,65.737,6.068,52.2,55.5,62.787,100.3,81.471c12.314,5.043,24.32,10.817,35.84,16.818a687.6,687.6,0,0,1,136.627,94.956c40.96,36.636,77.286,79.676,124.058,113.589,40.141,29.122,83.814,56.706,130.714,73.3,40.218,14.145,84.48,18.961,124.774,5.925a145.235,145.235,0,0,0,21.248-8.774c42.291-21.533,70.451-62.1,91.008-105.369,6.5-13.716,12.314-27.735,17.664-41.578,14.054-36.258,27.136-73.448,41.677-108.42,23.475-56.3,55.526-102.974,100.557-140.946,27.187-22.894,62.95-41.78,101.171-41.275,54.426.681,99.226,29.526,142.566,48.839,3.43,1.513,6.861,3,10.24,4.438,52.378,21.533,108.006,31.038,162.918,18.936,58.5-12.834,116.3-54.462,135.859-117.3" transform="translate(299.673 215.953)"/><path class="e" d="M-239.24,226.344A750.035,750.035,0,0,1-109.294,126.219c20.71-12.607,42.291-24.533,65.92-31.19,47.232-13.313,95.693-4.186,139.9,12.607,12.186,4.639,24.09,9.833,35.533,15.355a668.233,668.233,0,0,1,136.422,88.728c41.242,34.442,77.927,75.339,124.032,108.092C433.989,349.236,478.43,377.8,526.379,395.1c40.96,14.826,86.528,20.171,127.8,7.236a147.754,147.754,0,0,0,21.837-8.8c43.52-21.81,72.269-63.363,93.568-107.638,6.758-14.019,12.8-28.315,18.432-42.46,14.771-37.014,28.928-74.885,44.877-110.336C858.616,75.892,893.586,29.347,941.3-8.1c27.034-21.18,61.824-38.93,98.867-38.779,52.838.2,96.922,26.122,139.469,42.561,3.354,1.311,6.733,2.521,10.112,3.757,51.3,18.129,105.062,24.079,157.056,9.733,55.45-15.128,109.133-57.311,126.438-118.506" transform="translate(303.214 209.959)"/><path class="e" d="M-237,251.95a695.091,695.091,0,0,1,127.719-97.427c20.48-12.2,41.651-23.575,64.768-30.105,46.234-13.036,93.7-5.4,137.344,9.707,12.058,4.186,23.834,8.85,35.226,13.868A651.191,651.191,0,0,1,264.248,230.14c41.472,32.425,78.541,71.154,124.032,102.772,42.88,29.727,87.987,59.076,137.011,77.281,41.856,15.507,88.474,21.508,130.79,8.573a148.254,148.254,0,0,0,22.426-8.85c44.723-22.062,74.061-64.6,96.154-109.883,6.963-14.347,13.261-28.971,19.174-43.393,15.488-37.821,30.72-76.272,48.051-112.253,28.16-57.992,65.792-104.638,116.3-141.4,26.829-19.516,60.672-36.106,96.589-36.283,51.2-.252,94.592,22.693,136.346,36.308,3.277,1.059,6.6,2.093,9.907,3.051,50.278,14.7,102.042,17.045,151.194.454,52.377-17.65,101.939-60.135,117.018-119.867" transform="translate(306.709 203.843)"/><path class="e" d="M-234.69,277.485a648.507,648.507,0,0,1,125.312-94.729c20.1-11.724,40.96-22.566,63.616-28.971,45.21-12.809,91.7-6.631,134.784,6.682,11.9,3.706,23.654,7.968,34.918,12.38A634.98,634.98,0,0,1,259.9,248.615c41.625,30.307,79.206,66.867,124.134,97.326,44.006,30.03,89.958,60.287,140.032,79.3,42.7,16.187,90.47,22.692,133.837,9.909a150.758,150.758,0,0,0,23.04-8.926c45.926-22.315,75.878-65.834,98.713-112.127,7.219-14.649,13.747-29.576,19.942-44.276,16.2-38.451,32.614-77.684,51.2-114.194,30.336-58.95,70.835-105.7,124.16-141.6,26.6-17.927,59.52-33.282,94.31-33.787,49.613-.731,92.16,19.263,133.12,30,3.251.832,6.477,1.639,9.728,2.4,49.229,11.245,99.047,10.086,145.331-8.8,49.306-19.995,94.72-63.035,107.52-121.178" transform="translate(310.312 197.773)"/><path class="e" d="M-232.42,303.081a603.507,603.507,0,0,1,122.88-92.006c19.763-11.271,40.345-21.583,62.464-27.735,44.186-12.607,89.6-7.892,132.224,3.681,11.776,3.2,23.347,6.858,34.586,10.892a618.867,618.867,0,0,1,135.68,69.338c42.01,28.013,80.051,62.354,124.186,91.728,45.491,30.257,92.16,61.472,143.36,81.29,43.52,16.868,92.442,24.079,136.858,11.245a155.309,155.309,0,0,0,23.6-8.976c47.13-22.693,77.67-67.094,101.274-114.4,7.424-14.952,14.208-30.257,20.659-45.158,16.87-39.182,34.381-79.121,54.4-116.06C892.5,106.992,935.477,60.019,991.8,25.022c26.342-16.389,58.368-30.458,92.16-31.291,48-1.185,89.933,15.86,130.074,23.726,3.174.63,6.349,1.21,9.523,1.715,48.179,7.842,96.051,3,139.469-18.028,46.234-22.39,87.552-65.834,98.176-122.464" transform="translate(313.854 191.717)"/><path class="e" d="M-230.15,328.6a561.944,561.944,0,0,1,120.7-89.333,294.114,294.114,0,0,1,61.44-26.752c43.162-12.3,87.706-9.1,129.638.681,11.648,2.723,23.04,5.875,34.3,9.4a605.121,605.121,0,0,1,135.526,63.035c41.856,26.071,80.41,58.143,123.827,86.408,46.874,30.433,94.31,62.682,146.458,83.383,44.365,17.65,94.438,25.214,139.878,12.607a153.277,153.277,0,0,0,24.192-9c48.333-22.844,79.36-68.355,103.833-116.665,7.68-15.128,14.694-30.786,21.427-46.041,17.638-40.09,36.25-80.685,57.626-118.254,34.893-60.74,80.589-108.193,139.93-142.055,26.086-14.876,57.242-27.609,89.754-28.769,46.387-1.664,87.6,12.405,126.95,17.423,3.1.4,6.221.756,9.344,1.059,47.13,4.387,93.03-4.009,133.581-27.307,43.187-24.735,80.384-68.658,88.755-123.75" transform="translate(317.395 185.617)"/><path class="e" d="M-227.87,354.1A521.438,521.438,0,0,1-109.5,267.492a303.18,303.18,0,0,1,60.16-25.642C-7.2,229.8,36.373,231.487,77.743,239.5c11.52,2.244,22.861,5.043,34,7.917a590.167,590.167,0,0,1,135.3,56.555c42.163,24,81.2,53.882,123.955,81.088,48.256,30.711,96.384,63.791,149.581,85.324,45.21,18.179,96.41,26.6,142.9,13.868a155.093,155.093,0,0,0,24.781-9.077c49.562-23.071,81.306-69.565,106.394-118.909,7.91-15.557,15.181-31.391,22.2-46.923,18.355-40.645,38.042-82,60.826-120.019,37.12-61.648,85.376-109.731,147.789-142.282,25.8-13.464,56.09-24.785,87.475-26.273,44.774-2.118,85.273,9,123.827,11.17,3.046.176,6.093.277,9.139.353,46.08.983,90.035-11.019,127.719-36.535,40.115-27.13,73.19-71.507,79.36-125.061" transform="translate(320.952 179.577)"/><path class="e" d="M-225.6,379.785a485.082,485.082,0,0,1,116.07-83.937,318.334,318.334,0,0,1,58.88-24.533c41.114-11.8,83.712-11.6,124.518-5.345q17.05,2.647,33.664,6.455a575.724,575.724,0,0,1,135.219,50.125c42.342,21.911,81.92,49.545,123.93,75.642,49.664,30.887,98.483,65.027,152.73,87.316,46.08,18.86,98.406,27.886,145.92,15.128a158.453,158.453,0,0,0,25.37-9.128c50.765-23.348,83.123-70.826,108.979-121.178,8.141-15.86,15.642-32,23.04-47.907,19.046-41.351,39.834-83.383,64-121.935,39.4-62.531,90.112-111.471,155.674-142.509,25.6-12.077,54.938-21.936,85.2-23.752,43.187-2.521,82.944,5.547,120.7,4.866,2.97,0,5.939-.151,8.934-.328A212.085,212.085,0,0,0,1379.085-7.023c37.043-29.5,66-74.331,69.914-126.347" transform="translate(324.493 173.385)"/><path class="e" d="M-223.33,405.183a451.038,451.038,0,0,1,113.767-81.214,331.7,331.7,0,0,1,57.856-23.424c40.115-11.573,81.715-12.935,121.958-8.346,11.238,1.236,22.374,2.925,33.28,5.043a564.433,564.433,0,0,1,134.963,43.645c42.5,19.793,82.56,45.158,123.878,70.246,51.2,31.038,100.608,66.237,155.878,89.333,46.874,19.541,100.378,29.147,148.941,16.515a159.708,159.708,0,0,0,25.984-9.152c51.968-23.626,84.89-72.087,111.513-123.548,8.371-16.162,16.128-32.627,23.706-48.713,19.763-42.082,41.651-84.82,67.2-123.876,41.626-63.438,94.72-113.463,163.533-142.736A264.32,264.32,0,0,1,1141.995,47.8c41.574-3.076,80.614,2.143,117.555-1.412q4.378-.4,8.755-.983A209.045,209.045,0,0,0,1384.3-9.637c33.971-31.9,58.88-77.18,60.467-127.633" transform="translate(328.034 167.451)"/><path class="e" d="M-221.06,430.658A419.2,419.2,0,0,1-109.6,352.167a352.405,352.405,0,0,1,56.7-22.314c39.091-11.321,79.718-14.17,119.373-11.371,11.11.756,22.144,1.941,33.075,3.454A555.268,555.268,0,0,1,234.21,359.277c42.675,17.726,83.251,40.771,123.853,64.85C410.62,455.267,460.77,491.55,517.09,515.452c47.718,20.171,102.4,30.433,151.987,17.852a163.63,163.63,0,0,0,26.5-9.2c53.171-23.878,86.707-73.347,114.074-125.717,8.627-16.465,16.614-33.232,24.448-49.6,20.48-42.864,43.52-86.257,70.4-125.818,43.9-64.346,99.507-115.707,171.52-142.938a305.52,305.52,0,0,1,80.64-18.784c39.962-3.53,78.285-1.261,114.432-7.564,2.867-.5,5.709-1.084,8.55-1.689a207.388,207.388,0,0,0,110.08-64.3c30.925-34.266,51.61-80,51.047-128.919" transform="translate(331.575 161.442)"/><path class="e" d="M-218.78,456.28a388.889,388.889,0,0,1,109.133-75.818,380.765,380.765,0,0,1,55.552-21.2A383.465,383.465,0,0,1,62.718,344.884c10.982.277,21.888.958,32.742,1.967a546.448,546.448,0,0,1,134.451,30.938c42.854,15.633,83.942,36.384,123.853,59.454,54.093,31.215,104.781,68.658,162.15,93.317,48.64,20.9,104.346,31.694,155.008,19.188a163.2,163.2,0,0,0,27.136-9.279c54.374-24.13,88.525-74.558,116.659-127.961,8.832-16.767,17.075-33.837,25.19-50.428,21.222-43.544,45.286-87.694,73.6-127.759,46.08-65.229,104.166-118.178,179.2-143.165a370.493,370.493,0,0,1,78.438-16.414c38.4-4.009,75.955-4.715,111.309-13.969,2.79-.731,5.581-1.513,8.346-2.37A207.293,207.293,0,0,0,1395.069-15.02c27.853-36.636,44.442-82.853,41.626-130.23" transform="translate(335.132 155.31)"/><path class="e" d="M-216.51,481.714c71.3-71.305,173.824-108.42,275.482-110.462s202.24,29.3,290.483,79.02c55.475,31.265,106.88,69.817,165.3,95.334s127.386,36.812,185.754,11.2c73.062-32.047,110.08-110.815,145.178-181.541,57.677-116.488,137.651-236.885,263.91-273.143,62.9-18.053,131.635-13.01,192.435-37.039,84.3-33.333,140.391-125.364,130.56-214.319" transform="translate(338.673 149.24)"/></g><g transform="translate(-109.356 -190.488)"><path class="e" d="M-41.8,1403.6c-10.752-85.728,75.162-158.167,161.818-171.455s173.594,14.17,259.482,31.795,182.477,23.424,254.208-26.3c91.7-63.564,112.9-197.274,207.36-256.981,73.523-46.52,169.242-32.6,244.557,2.017,42.6,19.566,78.822,52.5,119.526,75.44,184.653,104.008,197.12,316.586,353.971,348.28,169.728,34.367,261.888-47.2,293.939-103.655,40.96-72.44,109.542-260.46-58.214-391.119-68.173-53.075-135.45-109.656-185.574-179.549-75.085-104.613-74.573-264.6,21.427-351.054,65.792-59.253,166.835-80.937,211.533-156.907,30.029-51.058,25.933-116.892,0-170.169S1771.6-41.535,1722.677-75.7" transform="translate(42.717 75.7)"/><path class="e" d="M-40.565,1402.944c-7.424-88.248,78.029-164.394,167.27-179.573,87.04-14.8,175.488,12.481,261.376,31.921,84.864,19.238,179.2,27.937,250.573-17.246C729.995,1180.2,755.671,1053.277,849.9,994.352c75.059-46.671,169.242-38,246.374-7.741,44.314,17.4,83.584,48.436,126.208,71.683,180.762,98.637,195.738,304.307,349.082,335.573,165.043,33.56,256.717-43.62,290.022-99.293,42.214-70.6,107.52-251.686-51-380.731-65.357-53.252-130.15-110.941-179.482-180.355-72.858-102.167-73.523-256.426,17.075-342.154,62.694-59.3,160.1-83.458,204.6-158.444,30.541-51.285,28.672-116.161,6.118-169.816C1836.119,8.789,1794.545-35.714,1747.646-72.4" transform="translate(45.371 80.721)"/><path class="e" d="M-39.233,1402.215c-4.1-90.645,80.9-170.573,172.723-187.618,87.578-16.238,177.382,10.766,263.27,32.073,83.866,20.8,175.693,32.425,246.963-8.245,90.957-52.092,120.96-172.438,215.219-230.355,76.467-47.024,169.344-43.469,248.166-17.5,46.08,15.128,88.32,44.351,132.915,67.926,176.64,93.493,194.15,292,344.192,322.739,160.282,32.778,251.392-40.015,285.978-94.779,43.341-68.632,105.549-243.012-43.725-370.645-62.592-53.479-124.9-112.177-173.414-181.213-70.656-99.671-72.474-248.307,12.8-333.2,59.571-59.228,153.293-85.828,197.606-159.831,31.053-51.487,31.411-115.48,12.083-169.488-19.712-55.092-57.8-101.965-102.835-141.2" transform="translate(47.93 85.711)"/><path class="e" d="M-37.8,1401.435c-.768-93.115,83.763-176.75,178.176-195.685,88.038-17.65,179.2,9.026,265.165,32.223,82.842,22.339,172.288,36.913,243.328.781,90.6-46.368,125.03-160.008,219.213-217.067,77.952-47.226,169.523-48.991,249.984-27.256,47.9,12.935,93.03,40.342,139.6,64.195,172.493,88.551,192.691,279.7,339.328,310.131,155.469,32.021,246.042-36.409,281.907-90.266,44.442-66.716,103.6-234.49-36.48-360.307C1782.593,864.454,1723,804.722,1675.1,736.166c-68.147-97.4-71.449-240.239,8.371-324.3,56.5-59.48,146.458-88.627,190.746-161.571,31.437-51.865,34.2-114.9,18.1-169.16-16.64-56.076-51.2-105.243-94.438-146.922" transform="translate(50.385 90.777)"/><path class="e" d="M-36.28,1400.747c2.56-95.586,86.63-182.9,183.654-203.729,88.448-19.011,181.094,7.261,267.034,32.324,81.92,23.878,168.96,41.427,239.718,9.808C744.341,1198.531,783.2,1091.6,877.307,1035.4c79.36-47.453,169.779-54.588,251.776-37.014,49.766,10.666,97.766,36.258,146.278,60.514,168.192,83.836,191.232,267.419,334.464,297.373,150.682,31.291,240.64-32.778,277.862-85.727,45.517-64.8,101.683-226.119-29.209-350.045-57.088-54.034-114.1-114.85-161.28-182.852-65.869-94.956-70.426-232.221,4.019-315.351,53.453-59.707,139.7-91.275,183.859-163.286,31.9-51.966,36.992-114.219,24.09-168.808-13.542-57.11-44.826-108.42-86.042-152.721" transform="translate(52.759 95.752)"/><path class="e" d="M-34.76,1399.942c5.914-98.032,89.6-188.979,189.107-211.8,88.909-20.373,182.989,5.5,268.928,32.476,80.845,25.39,165.555,46.066,236.083,18.835,89.933-34.719,133.12-135.1,227.174-190.466,80.947-47.654,170.061-60.261,253.594-46.747,51.635,8.346,102.4,32.223,152.96,56.681,163.84,79.273,189.773,255.115,329.574,284.64,145.92,30.509,235.341-29.2,273.92-81.24,46.541-62.884,99.84-217.874-21.99-339.733-54.349-54.412-108.749-116.161-155.162-183.684-63.565-92.535-69.427-224.4-.307-306.45,50.3-59.782,132.813-93.72,176.794-164.647,32.41-52.193,39.91-113.639,30.08-168.48-10.394-58.169-38.4-111.8-77.619-158.52" transform="translate(55.13 100.818)"/><path class="e" d="M-33.24,1399.224c9.242-100.5,92.365-195.081,194.56-219.841,89.37-21.684,184.858,3.681,270.822,32.627,79.846,26.853,162.15,50.579,232.474,27.736,89.6-28.946,137.216-122.616,231.142-177.154,82.432-47.907,170.394-66.01,255.385-56.5,53.555,6,107.11,28.215,159.667,52.95,159.283,74.911,188.314,242.911,324.71,272.009,141.082,29.828,229.914-25.643,269.773-76.726,47.565-61.018,97.971-209.831-14.746-329.471a1519.151,1519.151,0,0,1-149.094-184.515c-61.44-90.065-68.454-216.412-4.659-297.525,47.232-60.06,126.131-96.317,169.958-166.236,32.87-52.42,42.752-113.11,36.071-168.127C1935.6,49.141,1911-6.682,1873.7-55.9" transform="translate(57.501 105.824)"/><path class="e" d="M-31.72,1398.473c12.6-102.948,95.232-201.132,200.013-227.909,89.856-22.97,186.88,1.866,272.717,32.778,78.848,28.341,158.72,55.118,228.838,36.888,89.19-23.2,141.286-110.16,235.136-163.891,83.942-48.058,170.752-71.86,257.2-66.262,55.45,3.581,111.744,24.231,166.4,49.167,154.573,70.6,186.88,230.531,319.846,259.2,136.294,28.971,224.512-22.012,265.728-72.213,48.64-59.127,96.23-201.939-7.475-319.183a1810.584,1810.584,0,0,1-143-185.373c-59.033-87.618-67.507-208.62-9.011-288.574,44.16-60.337,119.373-98.864,163.046-167.774a279.681,279.681,0,0,0,42.035-167.8c-3.968-60.514-25.318-118.506-60.8-170.119" transform="translate(59.873 110.859)"/><path class="e" d="M-30.2,1397.785c15.872-105.419,98.1-207.183,205.466-236.028,90.317-24.231,188.621,0,274.611,32.9,77.85,29.752,155.366,59.631,225.28,45.889,88.781-17.448,145.382-97.628,239.1-150.527,85.453-48.234,171.136-77.76,259-76.02,57.4,1.135,116.4,20.171,173.03,45.385,149.862,66.565,185.4,218.227,314.88,246.441,131.507,28.24,219.11-18.431,261.709-67.674,49.51-57.286,94.592-194.147-.256-308.921-46.08-55.874-92.774-120.019-136.909-186.18-56.781-85.173-66.56-200.9-13.363-279.648,40.96-60.69,112.64-101.436,156.16-169.362A304.967,304.967,0,0,0,1976.558,126.6a340.631,340.631,0,0,0-52.4-175.918" transform="translate(62.244 115.834)"/><path class="e" d="M-28.68,1396.995c19.251-107.865,100.992-213.184,210.918-244.02,90.8-25.491,190.515-1.841,276.48,33.056,76.8,31.165,151.936,64.119,221.594,54.916,88.422-11.7,149.478-85.148,243.2-137.24,87.04-48.411,171.52-83.735,260.813-85.727,59.315-1.361,120.986,16.339,179.712,41.679,145.075,62.606,183.91,205.922,310.067,233.708,126.72,27.458,213.658-14.851,257.664-63.186,50.458-55.471,93.082-186.76,7.014-298.634-43.52-56.5-87.5-121.279-130.842-187.012-54.528-82.677-65.766-193.265-17.715-270.723,37.914-61.093,105.882-103.957,149.2-170.9a335.055,335.055,0,0,0,54.042-167.118A342.192,342.192,0,0,0,1949.381-46" transform="translate(64.615 120.885)"/><path class="e" d="M-27.16,1396.321c22.579-110.336,103.885-219.185,216.371-252.139,91.29-26.7,192.435-3.707,278.4,33.182,75.9,32.576,148.48,68.658,217.984,63.943,88.013-5.951,153.6-72.616,247.066-123.927,88.5-48.562,171.878-89.762,262.63-95.511,61.21-3.883,125.568,12.456,186.368,37.821,140.262,58.774,182.477,193.643,305.229,221,121.907,26.7,208.179-11.321,253.594-58.673,51.4-53.58,91.7-179.5,14.259-288.347-40.7-57.261-82.176-122.565-124.749-187.844-52.3-80.231-65-185.7-22.067-261.8,34.739-61.547,99.149-106.5,142.259-172.464,34.842-53.277,54.809-111.067,60.032-166.765A344.2,344.2,0,0,0,1974.632-42.74" transform="translate(66.986 125.845)"/><path class="e" d="M-25.64,1395.465c25.933-112.706,106.778-225.16,221.8-260.157,91.776-27.937,194.33-5.623,280.32,33.333,74.906,33.938,145.1,73.12,214.323,72.969,87.629-.226,157.7-60.11,251.059-110.639,90.035-48.713,172.211-95.813,264.422-105.243,63.155-6.455,130.176,8.6,193.075,34.165,135.373,55.042,180.992,181.339,300.339,208.242,117.146,25.945,202.7-7.741,249.549-54.135,52.3-51.764,90.522-172.413,21.53-278.085-37.914-57.992-76.8-123.826-118.682-188.676-50.074-77.735-64.307-178.212-26.419-252.871,31.514-62.051,92.416-109.05,135.347-173.976,35.354-53.5,57.933-110.563,66.022-166.412A347.134,347.134,0,0,0,1999.857-39.36" transform="translate(69.357 130.987)"/><path class="e" d="M-24.12,1394.823c29.261-115.279,109.7-231.112,227.277-268.277,92.16-29.122,196.275-7.564,282.214,33.484,73.933,35.3,141.7,77.609,210.714,81.971,87.245,5.522,161.792-47.553,255.027-97.3,91.571-48.865,172.57-101.991,266.24-115.026,65.05-9.052,134.707,4.791,199.68,30.433,130.432,51.386,179.481,169.286,295.45,195.509,112.307,25.415,197.12-4.236,245.53-49.621,53.171-49.974,89.6-165.53,28.749-267.823-35-58.95-71.68-125.087-112.64-189.508-47.872-75.238-63.718-170.774-30.72-243.92,28.16-62.606,85.683-111.572,128.41-175.565,35.84-53.706,61.107-110.034,72.038-166.11a350.834,350.834,0,0,0-18.791-199.19" transform="translate(71.729 135.917)"/><path class="e" d="M-22.6,1393.987c32.589-117.724,112.64-237.011,232.73-276.27,92.774-30.257,198.2-9.505,284.16,33.61,72.986,36.661,138.24,82.122,207.078,91.023,86.861,11.22,165.914-35.022,259.021-84.013s172.877-108.143,268.032-124.784c66.944-11.674,139.264,1.059,206.438,26.676,125.44,47.906,178.022,157.007,290.611,182.8,107.52,24.634,191.667-.731,241.459-45.108,54.042-48.209,88.729-158.848,36.019-257.536-32.077-59.959-66.381-126.347-106.573-190.34-45.67-72.767-63.206-163.437-35.123-234.994,24.832-63.237,78.976-114.118,121.5-177.153,36.505-53.882,64.281-109.479,78-165.757A354.769,354.769,0,0,0,2050.385-32.77" transform="translate(74.1 141.013)"/><path class="e" d="M-21.07,1393.253c36.019-120.194,115.507-242.936,238.259-284.388,93.286-31.467,200.141-11.472,286,33.762,72.064,37.973,134.886,86.585,203.469,100.024,86.477,16.944,170.01-22.44,262.989-70.6,94.72-49.117,173.158-114.346,269.85-134.517,68.813-14.372,143.77-2.647,213.12,22.92,120.5,44.4,176.64,144.7,285.721,170.068,102.707,23.853,186.163,2.749,237.415-40.619,54.912-46.419,88.217-152.242,43.264-247.248-28.877-61.018-61.056-127.583-100.429-191.172-43.52-70.246-62.848-156.125-39.449-226.068,21.325-63.867,72.243-116.64,114.56-178.691,36.89-54.084,67.482-108.924,83.994-165.429a359.879,359.879,0,0,0-1.946-210.763" transform="translate(76.487 146.034)"/><path class="e" d="M-19.55,1392.58C19.695,1269.939,98.876,1143.768,224.06,1100.1c93.8-32.627,202.24-13.464,287.9,33.913,71.117,39.258,131.482,91.073,199.834,109.05,86.093,22.693,174.08-9.884,266.982-57.412,96.2-49.243,173.414-120.573,271.642-144.274,70.682-17.045,148.275-6.253,219.827,19.163,115.481,41.073,175.078,132.4,280.832,157.335,97.92,23.1,180.608,6.228,233.37-36.081,55.757-44.679,87.987-145.838,50.534-237.011-25.6-62.178-55.808-128.818-94.362-191.979-41.318-67.75-62.592-148.762-43.8-217.143,17.741-64.548,65.536-119.186,107.52-180.255,37.427-54.286,70.733-108.42,90.009-165.076A365.514,365.514,0,0,0,2100.77-26.21" transform="translate(78.858 150.994)"/><path class="e" d="M-18,1391.805c42.5-125.087,121.293-254.661,248.986-300.5,94.31-33.812,204.083-15.507,289.792,34.014C591,1165.888,648.778,1220.88,717,1243.4c85.709,28.341,178.278,2.7,270.95-44.1,97.766-49.318,173.67-126.826,273.459-154.007,72.5-19.768,152.73-9.808,226.509,15.405,110.438,37.821,173.619,120.094,275.968,144.6,93.107,22.315,175.053,9.657,229.325-31.568,56.576-42.99,88.013-139.484,57.754-226.7-21.99-63.413-50.56-130.079-88.243-192.836-39.168-65.229-62.49-141.551-48.179-208.217,14-65.228,58.88-121.683,100.711-181.793,37.939-54.487,73.984-107.739,95.974-164.748A371.466,371.466,0,0,0,2126.076-22.9" transform="translate(81.276 156.03)"/><path class="e" d="M-16.51,1391.025c45.926-127.557,124.339-260.536,254.515-308.493,94.72-34.946,206.08-17.524,291.686,34.165,69.3,41.855,124.723,99.872,192.589,127.1,85.427,33.862,182.426,15.254,274.944-30.786,99.328-49.445,173.875-133.13,275.251-163.891,74.24-22.491,157.184-13.237,233.19,11.674,105.421,34.543,172.237,107.563,271.1,131.869,88.371,21.357,169.5,13.087,225.28-27.054,57.4-41.3,88.4-133.155,65.024-216.437A820.368,820.368,0,0,0,1984.9,755.507c-37.018-62.682-62.515-134.239-52.531-199.19,10.24-65.909,52.122-124.2,93.773-183.356,38.4-54.664,77.261-107.109,101.99-164.42A378.061,378.061,0,0,0,2151.375-19.57" transform="translate(83.6 161.096)"/><path class="e" d="M-15,1390.291c49.28-130.054,127.309-266.386,259.994-316.637,95.36-36.081,208.1-19.566,293.581,34.316,68.429,43.116,121.344,104.386,188.979,136.155,85.043,39.612,186.547,27.862,279.04-17.473,100.89-49.52,174.08-139.408,277.069-173.522,76.109-25.214,161.587-16.591,239.872,7.892,100.352,31.417,170.752,95.283,266.24,119.161,83.584,20.6,163.84,16.465,221.235-22.541,58.214-39.636,89.114-126.75,72.269-206.174A667.789,667.789,0,0,0,2007.2,756.992c-34.893-60.16-62.643-126.927-56.883-190.365,6.042-66.54,45.44-126.7,86.861-184.919,39.014-54.84,80.537-106.428,107.98-164.067a385.5,385.5,0,0,0,31.642-233.91" transform="translate(85.956 166.117)"/><path class="e" d="M-13.47,1389.6c52.582-132.5,130.253-272.311,265.421-324.63,95.9-37.191,210.125-21.634,295.475,34.442,67.558,44.377,117.939,108.9,185.344,145.157,84.685,45.385,190.771,40.62,282.906-4.186,102.554-49.394,174.234-145.712,278.861-183.28,77.9-27.987,165.99-19.793,246.579,4.16,95.258,28.315,169.293,83.055,261.35,106.4,78.771,19.844,158.311,19.844,217.165-18.028s90.112-120.2,79.539-195.862c-9.4-67.17-34.969-133.634-70.016-195.332-32.794-57.614-62.9-119.489-61.235-181.415,1.818-67.145,38.861-129.146,79.923-186.583,39.68-54.941,83.84-105.9,113.971-163.739A393.124,393.124,0,0,0,2201.877-13" transform="translate(88.343 171.092)"/><path class="e" d="M-11.95,1388.858c55.91-135.021,133.3-277.883,270.874-332.824,96.486-38.174,212.173-23.726,297.37,34.594,66.56,45.637,114.56,113.463,181.76,154.158,84.3,51.084,194.867,53.151,286.873,9.127,104.09-49.52,174.362-152.015,280.678-193.038,79.667-30.736,170.317-22.819,253.235.429,90.291,25.214,167.834,70.6,256.486,93.67,74.01,19.087,152.73,23.172,213.146-13.515,59.827-36.333,91.366-113.463,86.759-185.6-4.352-68.229-29.8-134.895-64-196.139-30.72-55.092-63.257-111.975-65.587-172.514-2.56-67.624,32.128-131.667,73.011-188.021,40.192-55.168,87.04-105.067,119.962-163.387A401.175,401.175,0,0,0,2227.128-9.66" transform="translate(90.714 176.173)"/><path class="e" d="M-10.43,1388.047c59.264-137.416,136.218-283.783,276.326-340.741,97-39.409,214.246-25.819,299.264,34.745,65.843,46.873,111.155,117.875,178.15,163.109,83.942,56.807,198.963,65.682,290.867,22.441,105.6-49.7,174.49-158.344,282.47-202.8,81.434-33.534,174.669-25.693,259.942-3.353s166.4,58.421,251.6,80.961c69.12,18.306,147.149,26.5,209.1-9,60.646-34.745,92.9-106.226,94.029-175.312s-24.7-136.155-57.856-197c-28.6-52.521-63.718-104.285-69.939-163.563-7.117-68.078,25.4-134.214,66.073-189.584S2160.014,303.6,2195.547,244.9A409.691,409.691,0,0,0,2252.379-6.36" transform="translate(93.085 181.194)"/></g><g transform="translate(922.957 -726.587)"><path class="e" d="M425.733,2136.8c-74.6-45.385-78.106-156.806-34.355-231.666S511.365,1780.731,579.1,1725.866s132.864-125.414,138.445-211.621c7.168-110.21-85.376-210.284-73.523-320.217,9.242-85.576,80.23-150.351,154.829-186.583,42.163-20.449,90.906-27.609,134.579-44.5,198.093-76.373,374.118,47.251,497.485-53.176C1564.472,800.891,1557.663,679.032,1532.984,619c-31.616-76.928-137.5-247.273-346.01-200.35-84.685,19.062-171.52,35.3-258.33,29.979-129.843-8.043-256.1-108.7-264.4-236.532-5.555-87.618,40.525-178.767,8.346-260.662-21.581-55.067-76.262-93.09-134.579-106.68s-119.834-5.421-177.485,10.691" transform="translate(-360.53 480.331)"/><path class="e" d="M427.665,2142.427c-74.445-49.545-81.2-162.907-37.3-240.919,42.88-76.146,119.808-126.877,189-180.633,68.378-53.1,134.3-119.969,143.36-203.174,11.443-106.353-72.909-205.595-60.493-314.822,10.086-86.862,75.955-153.8,148.224-194,41.523-23.121,90.675-33.812,135.68-51.991,191.283-76.953,363.366,40.468,484.25-57.74,129.946-105.672,126.285-224.4,103.117-284.918-29.389-76.6-131.814-240.213-333.338-199.468-82.97,16.818-169.139,30.534-255.078,24.886-126.541-8.068-248.985-104.234-260.045-227.43-7.68-85.274,34.227-175.187,2.765-256.325-21.427-55.471-73.958-94.779-130.56-111.093-57.114-16.439-118.374-12.43-176.794.63" transform="translate(-356.548 474.403)"/><path class="e" d="M431.124,2148.879c-74.24-53.656-84.326-168.934-40.269-250.148,42.01-77.407,119.629-129.424,190.31-182.019,68.992-51.336,135.68-114.547,148.2-194.728,15.744-102.47-60.672-200.905-47.488-309.552,10.726-88.249,71.68-157.234,141.645-201.485,40.96-25.87,90.445-40.015,137.037-59.455,184.678-77.1,352.717,33.888,471.04-62,126.362-102.469,125.824-218.05,104.141-278.891-27.136-76.247-126.182-233.279-320.64-198.585-81.51,14.523-167.014,25.592-252.032,19.591-123.136-8.22-241.92-99.923-255.718-218.529-9.651-82.954,28.16-171.606-2.79-251.988-21.274-56.1-71.68-96.469-126.541-115.48-55.962-19.39-116.89-19.49-176.128-9.455" transform="translate(-354.171 467.649)"/><path class="e" d="M434.625,2156.086c-74.24-57.74-87.4-175.01-43.213-259.376,41.19-78.617,119.424-131.919,191.59-183.356,69.581-49.646,137.165-109.126,153.088-186.306,20.045-98.611-48.307-196.24-34.458-304.282,11.469-89.434,67.456-160.815,135.04-208.973,40.243-28.668,90.189-46.192,138.24-66.943,178.15-76.953,342.067,27.307,457.984-66.212,122.752-99.292,125.44-211.8,105.19-272.992-24.96-75.894-120.653-226.421-307.993-197.7-79.974,12.254-164.659,20.524-248.858,14.422-119.757-8.7-234.88-95.687-251.392-209.6C718.171,134.078,751.451,46.787,721.5-32.889c-21.274-56.555-69.453-98.334-122.522-119.867-54.81-22.365-115.43-26.55-175.437-19.541" transform="translate(-351.86 460.115)"/><path class="e" d="M438.123,2164.127c-74.035-61.85-90.47-181.062-46.08-268.6,40.371-79.827,119.219-134.491,192.9-184.742,70.17-47.907,138.6-103.706,157.926-177.86,24.371-94.728-35.84-191.626-21.427-298.987,12.237-90.77,63.181-164.546,128.486-216.487,39.6-31.518,89.907-52.319,139.443-74.432,171.7-76.6,331.443,20.726,444.877-70.448C1553.387,776.5,1559.1,667.25,1540.484,605.526c-22.784-75.516-115.2-219.689-295.322-196.845-78.515,10.086-162.355,15.633-245.76,9.228-116.378-8.926-227.84-91.426-247.014-200.678-13.747-78.365,15.36-164.345-13.926-243.289-21.146-57.059-67.226-99.973-118.5-124.254C566.2-175.7,505.989-183.9,445.189-179.939" transform="translate(-349.521 451.771)"/><path class="e" d="M441.664,2172.8c-73.882-65.96-93.491-187.088-49.126-277.833,39.6-81.038,118.989-137.038,194.176-186.13,70.758-46.141,140.186-98.208,162.816-169.438,28.851-90.77-23.5-186.836-8.4-293.692,13-92.006,58.88-168.329,121.882-223.976,38.938-34.392,89.6-58.446,140.8-81.92,165.325-76.02,320.794,14.145,431.744-74.684,115.533-92.863,124.339-198.938,107.264-261.09-20.48-75.138-109.9-213.108-282.624-195.988-77.107,7.564-160.051,10.741-242.586,4.034-113.024-9.153-220.979-87.215-242.688-191.626C759.1,144.335,783.987,59.692,755.417-18.5,734.4-76.085,690.47-120.311,640.96-147.088,588.4-175.58,528.448-187.733,466.88-186.8" transform="translate(-347.251 442.696)"/><path class="e" d="M445.244,2182.258c-73.754-70.07-96.538-193.114-52.1-287.086,38.835-82.2,118.733-139.609,195.482-187.466,71.27-44.452,141.619-92.787,167.68-161.017,33.28-86.887-11.085-182.146,4.608-288.422,13.8-93.292,54.528-172.186,115.2-231.464,38.4-37.342,89.421-64.548,141.9-89.383,159-75.314,310.144,7.564,418.611-78.92,111.949-89.686,123.8-192.559,108.314-255.19-18.483-74.709-104.653-206.754-269.952-195.08a1561.7,1561.7,0,0,1-239.437-1.16c-109.67-9.38-214.144-83.055-238.336-182.8-17.92-73.9,2.791-157.184-25.088-234.641-20.889-57.992-62.72-103.68-110.438-133C610.262-175,550.665-191.082,488.278-193.2" transform="translate(-344.995 433.035)"/><path class="e" d="M448.859,2191.585c-73.6-74.153-99.507-199.189-55.066-296.314,38.144-83.383,118.5-142.208,196.813-188.853,71.808-42.864,143.053-87.341,172.544-152.57,37.5-82.979,1.357-177.455,17.638-283.152,14.566-94.527,50.125-176.094,108.7-238.953,37.581-40.342,89.19-70.6,143.129-96.872,152.755-74.406,299.52.983,405.479-83.206,108.339-86.484,123.264-186.155,109.363-249.24-16.384-74.305-101.785-221.126-257.305-194.147-73.344,12.607-155.418.933-236.262-6.354-106.317-9.556-207.36-78.869-234.01-173.85-20.1-71.708-3.456-153.6-30.72-230.3A283.749,283.749,0,0,0,682.715-139.622c-50.278-34.8-109.542-54.74-172.723-59.908" transform="translate(-342.696 423.405)"/><path class="e" d="M452.413,2200.944c-73.472-78.164-102.4-205.116-58.035-305.568C431.805,1810.934,512.6,1750.6,592.6,1705.187c72.32-41.124,144.512-81.92,177.434-144.148,41.8-79.1,13.8-172.791,30.72-277.858,15.36-95.813,45.67-180.1,102.118-246.467,36.839-43.343,88.934-76.651,144.333-104.361,146.56-73.348,288.845-5.6,392.345-87.392,104.73-83.206,122.675-179.725,110.387-243.289-14.285-73.9-96.358-216.84-244.608-193.366-72.243,11.422-153.114-3.933-233.114-11.523-102.963-9.758-200.73-74.734-229.683-164.95-22.3-69.515-9.7-150-36.2-225.942a308.462,308.462,0,0,0-102.4-141.778A352.36,352.36,0,0,0,531.876-205.88" transform="translate(-340.516 413.744)"/><path class="e" d="M456.047,2210.338c-73.293-82.348-105.421-211.066-60.979-314.771,36.736-85.727,117.914-147.426,199.4-191.626,72.832-39.485,145.92-76.474,182.272-135.7,46.08-75.213,26.266-168.1,43.7-272.588,16.179-97.1,41.191-184.062,95.539-253.955,36.1-46.368,88.729-82.652,145.561-111.849,140.442-72.162,278.2-12.153,379.213-91.6,101.12-80.08,122.112-173.321,111.437-237.39-12.237-73.448-90.854-212.226-231.936-192.483-71.271,10.086-150.784-8.825-229.965-16.717-99.609-9.934-194.15-70.6-225.28-156-24.6-67.372-15.949-146.417-41.779-221.605a337.728,337.728,0,0,0-98.406-146.241A353.726,353.726,0,0,0,553.455-212.27" transform="translate(-338.338 404.022)"/><path class="e" d="M459.716,2219.574c-73.165-86.458-108.365-217.041-64-324.024,36.045-86.812,117.606-150.048,200.678-192.937,73.318-37.821,147.379-71,187.161-127.255,50.432-71.3,38.758-163.387,56.73-267.268,17-98.334,36.634-188.171,88.934-261.443,35.3-49.445,88.525-88.6,146.79-119.338,134.374-70.851,267.546-18.734,366.08-95.813,97.536-76.877,121.5-166.891,112.461-231.439-10.24-73.121-85.248-207.435-219.238-191.626-70.477,8.321-148.48-13.691-226.816-21.911-96.256-10.086-187.674-66.439-221-147.073-26.931-65.229-22.17-142.837-47.334-217.269C819.805-37.958,786.6-89.47,745.77-128.4a355.808,355.808,0,0,0-170.7-90.14" transform="translate(-336.17 394.483)"/><path class="e" d="M463.355,2228.948c-73.011-90.568-111.258-223.017-66.893-333.253,35.379-87.946,117.3-152.721,201.984-194.3,73.8-36.258,148.787-65.556,192-118.834,54.733-67.421,51.2-158.7,69.734-262.048,17.92-99.62,32.051-192.256,82.355-268.932,34.458-52.521,88.371-94.527,148.019-126.8,128.358-69.439,256.9-25.214,352.973-100.1,93.9-73.675,120.832-160.462,113.485-225.488-8.192-72.591-79.744-177.506-206.592-190.744-69.683-7.287-146.15-18.558-223.641-27.105-92.9-10.262-181.325-62.279-216.653-138.122-29.389-63.035-28.416-139.257-52.941-212.932-20.173-60.64-51.2-113.715-90.342-154.965A358.251,358.251,0,0,0,596.833-224.9" transform="translate(-333.998 384.807)"/><path class="e" d="M467.044,2238.29c-72.883-94.677-114.15-228.968-69.862-342.506,34.739-89.081,116.966-155.394,203.29-195.66,74.24-34.644,150.2-60.161,196.89-110.387,58.88-63.539,63.718-154.007,82.765-256.754,18.688-100.856,27.392-196.366,75.776-276.446,33.587-55.622,88.192-100.427,149.222-134.289,122.394-68.078,246.4-31.719,339.84-104.336,90.445-70.271,120.192-154.032,114.534-219.563-6.246-72.112-74.931-172.388-193.92-189.861-68.582-10.086-143.846-23.4-220.493-32.3-89.6-10.388-175.078-57.992-212.326-129.2-31.872-60.867-34.637-135.676-58.5-208.57C854.244-22.746,825.47-77.41,787.94-120.929A361.4,361.4,0,0,0,618.6-231.24" transform="translate(-331.85 375.161)"/><path class="e" d="M470.735,2247.635c-72.73-98.763-117.018-234.918-72.832-351.735,34.15-90.216,116.659-158.117,204.6-197.047,74.726-33.08,151.629-54.714,201.754-101.965,63.309-59.631,76.237-149.292,95.8-251.46s22.733-200.476,69.12-283.934c32.691-58.724,88.064-106.252,150.451-141.778,116.48-66.338,235.75-38.3,326.707-108.42,86.835-67.094,119.5-147.628,115.558-213.638-4.275-71.683-70.093-167.623-181.222-189.1-67.507-12.96-141.542-28.214-217.369-37.468-86.17-10.514-168.96-53.857-207.974-120.271-34.458-58.673-40.832-132.1-64-204.233-19.866-61.7-46.362-117.926-82.3-163.739A365.492,365.492,0,0,0,640.335-237.58" transform="translate(-329.73 365.516)"/><path class="e" d="M474.451,2257.118c-72.6-102.872-119.859-240.869-75.8-360.963,33.536-91.35,116.3-160.865,205.9-198.408,75.187-31.543,153.037-49.293,206.618-93.544,67.584-55.773,88.755-144.577,108.826-246.189,20.48-103.377,17.92-204.561,62.592-291.423,31.744-61.825,87.987-112.026,151.654-149.266,110.643-64.674,225.126-44.881,313.6-112.782,83.226-63.892,118.809-141.2,116.608-207.688-2.355-71.255-65.229-163.109-168.576-188.121-66.381-16.213-139.213-33.182-214.2-42.813-82.842-10.615-162.918-49.545-203.622-111.32C940.883,198.2,931,126.009,908.422,54.7c-19.712-62.2-43.9-120.044-78.285-168.127A369.945,369.945,0,0,0,662.15-243.93" transform="translate(-327.609 355.855)"/><path class="e" d="M478.161,2266.309c-72.448-106.957-122.675-246.793-78.746-370.191,32.922-92.459,115.968-163.588,207.181-199.77,75.648-30,154.445-43.873,211.507-85.1,71.859-51.915,101.274-139.887,121.83-240.894,21.325-104.714,13.235-208.7,56.013-298.937,30.72-64.926,87.936-117.749,152.883-156.73,104.96-63.035,214.477-51.487,300.467-117.043,79.616-60.69,118.067-134.743,117.76-201.711-.461-70.776-60.314-158.848-155.9-187.239-65.229-19.339-136.909-37.821-211.046-47.906-79.36-10.716-157-45.209-199.3-102.394-40.064-54.134-53.35-124.986-75.29-195.56C905.988.1,884.1-59.35,851.28-109.677A374.835,374.835,0,0,0,683.959-250.27" transform="translate(-325.508 346.209)"/><path class="e" d="M481.893,2275.653c-72.32-111.068-125.44-252.745-81.715-379.42,32.333-93.569,115.61-166.412,208.486-201.157,76.083-28.466,155.853-38.451,216.371-76.65C901.17,1570.369,938.853,1483.255,959.9,1382.8c22.2-105.9,8.422-212.781,49.408-306.425,29.8-68.078,87.936-123.4,154.112-164.218,99.1-61.144,203.8-57.992,287.334-121.254,76.007-57.513,117.325-128.339,118.682-195.837,1.434-70.347-55.219-154.965-143.206-186.382-64-22.844-134.6-42.662-207.9-52.949-76.134-10.893-151.168-40.822-194.841-93.569-42.957-51.613-59.546-121.38-80.9-191.2-19.328-63.262-38.886-124.3-70.221-176.9A380.45,380.45,0,0,0,705.714-256.61" transform="translate(-323.403 336.564)"/><path class="e" d="M485.662,2285c-72.192-115.177-128.282-258.645-84.685-388.673,31.77-94.679,115.2-169.161,209.766-202.493,76.544-27,157.235-33.081,221.235-68.229,80.307-44.351,126.362-130.457,147.866-230.354,23.04-107.21,3.61-216.84,42.854-313.914,28.774-71.129,87.987-128.969,155.315-171.707,93.389-59.278,193.024-64.8,274.2-125.49,72.294-54.462,116.557-121.859,119.757-189.937,3.277-69.944-49.971-151.284-130.56-185.525a847.929,847.929,0,0,0-204.8-58.219c-72.73-10.918-145.332-36.132-190.541-84.492-45.824-49.041-65.613-117.825-86.349-186.861-19.149-63.791-36.352-126.423-66.2-181.288A386.608,386.608,0,0,0,727.556-262.95" transform="translate(-321.335 326.918)"/><path class="e" d="M489.418,2294.431c-72.038-119.288-131.046-264.6-87.629-397.9,31.181-95.813,114.867-172.009,211.072-203.88,76.979-25.517,158.72-27.735,226.1-59.783,84.634-40.468,138.931-125.767,160.922-225.085,24.013-108.42-1.28-220.95,36.249-321.4,27.7-74.23,88.167-134.492,156.519-179.2,87.731-57.362,182.374-71.381,261.12-129.726,68.659-51.26,115.738-115.505,120.755-184.062,5.12-69.515-44.467-147.8-117.76-184.617a691.644,691.644,0,0,0-201.574-63.438c-69.479-10.918-139.674-31.417-186.266-75.642-48.9-46.343-71.68-114.27-91.93-182.524C958.051,22.855,943.229-41.416,914.813-98.5a393.442,393.442,0,0,0-165.3-170.85" transform="translate(-319.255 317.181)"/><path class="e" d="M493.188,2303.7c-71.91-123.372-133.811-270.521-90.6-407.155,30.72-96.9,114.509-174.859,212.48-205.242,77.414-24.029,160.051-22.314,230.963-51.336,88.934-36.61,151.68-121.027,173.927-219.79,25.165-109.68-6.144-225.034,29.67-328.916,26.675-77.331,88.346-139.811,157.773-186.583,82.125-55.47,171.725-77.987,247.936-133.962,64.973-48.159,114.918-109.3,121.7-178.111s-38.682-144.476-105.19-183.759c-58.88-34.871-127.719-56.933-198.426-68.632-66.15-10.918-133.965-26.55-181.888-66.666-51.994-43.444-77.849-110.715-97.485-178.162-18.637-64.9-31.181-130.633-58.189-190.063A400.285,400.285,0,0,0,771.255-275.64" transform="translate(-317.214 307.611)"/><path class="e" d="M496.9,2312.995c-71.68-127.482-136.32-276.4-93.568-416.383,30.259-97.982,114.176-177.733,213.683-206.6,77.9-22.693,161.485-16.918,235.853-42.864,93.235-32.779,164.147-116.287,186.88-214.495,26.01-110.942-11.059-229.094,23.04-336.4,25.6-80.433,88.653-145.056,159-194.148,76.6-53.453,161.075-84.542,234.8-138.2,61.44-44.856,114.048-102.747,122.88-172.085,8.7-68.708-32.486-141.2-92.518-182.9-56.73-39.409-125.44-61.623-195.277-73.8-62.822-10.943-128.23-21.583-177.613-57.74-55.117-40.342-84.071-107.134-103.04-173.825-18.483-65.405-28.57-132.726-54.17-194.475A407.905,407.905,0,0,0,793.017-281.95" transform="translate(-315.116 298.011)"/><path class="e" d="M500.757,2322.384c-71.68-131.591-139.238-282.4-96.538-425.637,29.568-99.141,113.818-180.633,215.04-207.965,78.336-21.18,162.918-11.472,240.64-34.493,97.536-28.845,176.64-111.572,199.961-209.276,26.854-112.2-15.974-233.128,16.512-343.893,24.474-83.508,89.088-150.174,160.2-201.711s150.4-91,221.7-142.308c57.856-41.653,113.152-96.368,123.878-166.16,10.5-68.33-25.856-137.845-79.821-182.02s-123.034-66.288-192.154-79c-59.494-10.943-122.47-16.414-173.261-48.789-58.266-37.115-90.317-103.579-108.621-169.488s-25.958-134.794-50.15-198.862A415.875,415.875,0,0,0,814.894-288.32" transform="translate(-313.134 288.32)"/></g></g></g></g></g></g></g></svg>