<svg xmlns="http://www.w3.org/2000/svg" xmlns:xlink="http://www.w3.org/1999/xlink" width="414" height="985" viewBox="0 0 414 985"><defs><style>.a,.e{fill:none;stroke:#fff;stroke-width:2px;}.b{fill:#f6f6f6;}.c{isolation:isolate;}.d{clip-path:url(#a);}.e{stroke-miterlimit:10;}</style><clipPath id="a"><rect class="a" width="414" height="985"/></clipPath></defs><g transform="translate(0.102 -1589)"><rect class="b" width="414" height="985" transform="translate(-0.102 1589)"/><g class="c" transform="translate(-0.102 1589)"><g transform="translate(0 0)"><g transform="translate(0 0)"><g class="d"><g transform="translate(-85.165 -319.721)"><path class="e" d="M166.386-52.3q-5,76.584-12.536,150.623c-2.208,21.893-4.7,44.062-9,61.552-11,44.713-30.249,46.1-46.676,36.382-15.15-8.958-29.948-24.332-44.081-45.8C40.1,129.218,26.574,101.8,11.588,92.8s-32.418,5.527-40.494,51.5c-4.8,27.4-5.57,62.065-3.693,93.71s6.182,60.743,10.957,88.2C-16.172,357.64-9.824,389.482-9,426.378c.85,38.218-5.051,77.305-14.456,95.7-13.375,26.176-29.746,9.752-44.749,0-19.054-12.417-39.494-12.318-56.9,18.063s-30.867,96.375-29.079,165.35" transform="translate(154.349 269.075)"/><path class="e" d="M164-57.53C160.76-7.618,156.648,41.521,151.693,89.6c-2.208,21.36-4.642,42.956-8.832,60.091-10.714,43.785-29.338,46.194-45.312,37.863a81.614,81.614,0,0,1-11.316-7.186c-10.81-8.083-21.4-19.564-31.645-34.31-13.667-19.741-26.915-45.4-41.564-53.636s-31.165,6.811-39.7,49.629A356.4,356.4,0,0,0-33,194.226c-.628,12.938-.754,26.124-.375,39.186q.244,9.1.778,18.063c1.468,24.163,4.593,47.812,8.009,70.3.337,2.231.679,4.442,1.021,6.672,5.343,34.487,10.984,69.764,11.294,108.358.3,37.152-5.183,75.015-14.352,93.078-13.032,25.821-28.924,11.035-43.436,2.783-1.143-.652-2.291-1.263-3.444-1.8-17.421-8.331-35.636-4.935-51.18,23.807-16.56,30.638-29.228,95.211-27.224,162.231" transform="translate(153.35 263.98)"/><path class="e" d="M161.649-62.76c-3.158,48.764-7.2,96.743-12.094,143.635-2.169,20.827-4.581,41.89-8.666,58.65-10.4,42.838-28.433,46.253-43.949,39.3a74.8,74.8,0,0,1-11.007-6.179c-10.517-7.076-20.839-17.46-30.845-31.033-13.347-18.1-26.313-42.048-40.615-49.569s-30.006,8.114-38.887,47.734a363.311,363.311,0,0,0-8.076,49.945c-1.085,12.668-1.643,25.838-1.656,39.087-.01,6.3.1,12.6.32,18.853.927,25.545,4.03,51.326,7.38,75.785.337,2.428.668,4.837,1,7.245,5.216,37.508,10.168,76.141,9.936,116.471-.193,36.027-5.316,72.607-14.23,90.492-12.7,25.426-28.09,12.279-42.116,5.587-1.1-.533-2.208-1.026-3.312-1.461-16.824-6.514-34.256-1.579-49.011,27.42-15.737,30.914-27.6,94.046-25.391,159.112" transform="translate(152.325 258.886)"/><path class="e" d="M159.253-68c-3.075,47.618-7.042,94.444-11.873,140.16-2.147,20.294-4.526,40.785-8.5,57.249-10.173,41.851-27.527,46.292-42.591,40.706A64.051,64.051,0,0,1,85.6,164.962c-10.221-6.042-20.273-15.3-30.039-27.657C42.53,120.782,29.846,98.574,15.88,91.783s-28.935,9.3-38.087,45.858c-3.985,15.911-7.628,30.046-9.82,47.674-1.554,12.31-2.555,25.422-2.964,38.85-.2,6.555-.251,13.156-.16,19.741.386,26.927,3.466,54.939,6.756,81.293.326,2.606.651,5.212.983,7.9,5.089,40.646,9.384,82.379,8.605,124.743-.629,34.823-5.454,70.258-14.12,87.867-12.337,25.071-27.262,13.562-40.8,8.39-1.071-.395-2.142-.77-3.213-1.086-16.223-4.718-32.876,1.757-46.847,31.013-14.9,31.191-25.943,92.782-23.515,155.953" transform="translate(151.343 253.782)"/><path class="e" d="M156.864-73.21c-2.992,46.457-6.888,92.11-11.658,136.627-2.114,19.741-4.471,39.64-8.335,55.709-9.864,41.022-26.617,46.47-41.222,42.265a56.875,56.875,0,0,1-10.377-4.126c-9.933-5.081-19.723-13.272-29.255-24.479-12.7-14.964-25.11-35.534-38.727-41.456s-27.947,10.324-37.27,43.943c-4.416,15.793-8.738,28.328-11.592,45.4a360.717,360.717,0,0,0-4.261,38.909c-.378,6.723-.585,13.555-.618,20.412-.16,28.309,2.9,58.512,6.127,86.86l.96,8.39c4.984,43.647,8.605,88.439,7.264,132.856-1.01,33.56-5.586,67.929-14.009,85.281-11.989,24.7-26.429,14.825-39.483,11.193-1.032-.3-2.064-.533-3.1-.73-15.616-2.961-31.485,5.093-44.672,34.546-14.059,31.447-24.287,91.716-21.654,152.874" transform="translate(150.354 248.707)"/><path class="e" d="M154.488-78.44c-2.909,45.309-6.733,89.8-11.443,133.133-2.086,19.228-4.416,38.593-8.158,54.287-9.588,40.054-25.717,46.529-39.87,43.706a52.278,52.278,0,0,1-10.063-3.119C75.319,145.5,65.8,138.4,56.516,128.366,44.13,114.981,32.008,96.228,18.727,90.858S-8.32,102.15-17.748,132.965c-4.846,15.793-9.847,26.611-13.314,43.173a313.668,313.668,0,0,0-5.52,38.811c-.565,6.9-.935,13.994-1.1,21.162-.7,29.611,2.34,62.065,5.52,92.289.309,3,.624,5.922.933,8.982,4.846,46.766,7.838,94.559,5.917,141.088-1.336,32.355-5.713,65.6-13.893,82.695-11.7,24.38-25.645,16.148-38.192,14.036q-1.482-.237-2.975-.355c-15.025-1.105-30.116,8.429-42.5,38.2C-136.1,644.768-145.56,703.6-142.673,762.8" transform="translate(149.351 243.612)"/><path class="e" d="M152.028-83.67C149.2-39.507,145.448,3.829,140.8,45.969c-2.064,18.714-4.35,37.508-7.993,52.846-9.306,39.166-24.812,46.648-38.506,45.207a47.7,47.7,0,0,1-9.754-2.093c-9.342-3.07-18.59-9.068-27.638-17.925C44.839,112.16,33,95.183,20.066,90.6s-26.208,12-35.675,40.252c-5.316,15.793-10.962,24.814-15.069,40.824A270.07,270.07,0,0,0-37.5,210.41c-.754,7.079-1.287,14.435-1.59,21.932-1.242,31.072,1.783,65.639,4.874,97.9q.464,4.777.916,9.555c4.719,49.826,7.115,100.56,4.57,149.281-1.623,31.092-5.846,63.171-13.8,80.069-11.294,23.965-24.773,17.352-36.856,16.8h-2.859c-14.429.711-28.736,11.844-40.35,41.792-12.387,32-21.047,89.387-17.945,146.635" transform="translate(148.444 238.518)"/><path class="e" d="M149.56-88.9c-2.734,43.017-6.413,85.2-11,126.144-2.031,18.181-4.289,36.4-7.827,51.326-9.019,38.238-23.9,46.727-37.143,46.667a41.9,41.9,0,0,1-9.433-1.086c-9.049-2.048-18.03-6.949-26.837-14.648C45.572,109.279,34.014,94,21.439,90.15s-26.86,7.107-34.891,38.357c-6.486,11.825-12.072,23.235-16.8,38.672a233.559,233.559,0,0,0-8.114,38.633c-.941,7.251-1.636,14.88-2.07,22.722-1.783,32.434,1.22,69.093,4.25,103.265q.453,5.073.894,10.147c4.593,52.886,6.425,106.6,3.224,157.453-1.877,29.848-5.961,60.98-13.689,77.483C-56.711,600.472-69.7,595.5-81.3,596.484a16.748,16.748,0,0,0-2.76.355c-13.827,2.507-27.362,15.1-38.186,45.4-11.542,32.276-19.408,88.222-16.085,143.516" transform="translate(147.517 233.423)"/><path class="e" d="M147.137-94.13c-2.651,41.87-6.258,82.891-10.786,122.65-2,17.629-4.228,35.317-7.656,49.945-8.738,37.251-23,46.786-35.78,48.089a44.052,44.052,0,0,1-9.124,0C75.036,125.5,66.324,121.7,57.754,115.2c-11.426-8.745-22.7-22.288-34.952-25.486s-26.043,7.4-34.063,36.54c-7.01,11.173-13.192,21.478-18.552,36.5-3.847,10.373-7.044,23.513-9.384,38.574-1.126,7.4-1.983,15.292-2.55,23.472-2.324,33.816.662,72.745,3.627,108.772q.442,5.33.872,10.719c4.466,55.946,5.768,112.523,1.877,165.626-2.109,28.506-6.122,58.492-13.573,74.8-10.6,23.215-23.112,19.879-34.223,22.386-.878.2-1.75.454-2.627.73-13.248,4.323-25.982,18.438-36.022,49-10.7,32.513-17.768,87.038-14.23,140.378" transform="translate(146.562 228.329)"/><path class="e" d="M144.663-99.36C142.1-58.637,138.563-18.773,134.1,19.8c-1.976,17.1-4.178,34.211-7.49,48.484-8.456,36.4-22.09,46.865-34.422,49.55a38.776,38.776,0,0,1-8.832.948c-8.462-.038-16.907-2.74-25.237-8.074C47.012,103.616,36.038,91.791,24.1,89.422S-1.11,96.983-9.125,124.008c-7.529,10.542-14.3,19.741-20.3,34.152-4.3,9.921-7.945,23.045-10.692,38.475-1.309,7.556-2.327,15.71-3.025,24.242-2.865,35.2.1,76.3,3,114.26q.431,5.626.85,11.292c4.339,59.025,5.156,118.445.552,173.838-2.3,27.361-6.271,56.222-13.446,72.272-10.278,22.86-22.3,21.162-32.926,25.209-.839.316-1.656.671-2.512,1.086-12.629,6.12-24.6,21.715-33.859,52.59-9.864,32.789-16.129,85.873-12.37,137.258" transform="translate(145.658 223.234)"/><path class="e" d="M142.173-104.59c-2.48,39.579-5.944,78.287-10.35,115.662-1.948,16.582-4.118,33.145-7.319,47.043-8.175,35.534-21.185,47.023-33.064,51.089a40.934,40.934,0,0,1-8.49,1.974,41.993,41.993,0,0,1-24.436-4.817c-10.78-5.587-21.489-15.674-33.08-17.313S.982,96.945-7.022,121.74c-8.048,9.87-15.411,18.063-22.046,31.9-4.521,9.436-8.826,22.051-11.956,38.4-1.492,7.706-2.672,16.126-3.505,25.012-3.406,36.58-.464,79.872,2.374,119.768.282,3.948.552,7.9.833,11.845,4.217,62.085,4.576,124.506-.811,182.011-2.451,26.176-6.4,53.932-13.336,69.705-9.936,22.465-21.45,22.406-31.59,28.012-.8.434-1.6.908-2.4,1.441-12.033,7.9-23.222,25.11-31.689,56.182-9.03,33.066-14.5,84.708-10.488,134.238" transform="translate(144.77 218.14)"/><path class="e" d="M139.608-109.82c-2.4,38.434-5.794,75.985-10.14,112.168-1.921,16.049-4.057,32.039-7.148,45.6-7.893,34.547-20.28,47.1-31.7,52.55a41.3,41.3,0,0,1-8.18,2.981,39.022,39.022,0,0,1-23.625-1.6c-10.488-3.948-20.9-12.3-32.12-13.207S3.063,96.709-4.962,119.49c-8.567,9.258-16.526,16.345-23.791,29.611C-33.721,158.163-38.5,170.817-42,187.4a250.227,250.227,0,0,0-3.985,25.782c-3.941,38-1.032,83.465,1.739,125.3q.414,6.218.806,12.457c4.1,65.145,4.052,130.586-2.153,190.2-2.6,24.953-6.508,51.563-13.248,67.119-9.566,22.11-20.628,23.689-30.282,30.815-.756.573-1.518,1.165-2.274,1.816-11.432,9.732-21.842,28.447-29.526,59.775-8.191,33.343-12.856,83.544-8.661,131.02" transform="translate(143.957 213.045)"/><path class="e" d="M137.042-115c-2.316,37.262-5.644,73.626-9.936,108.575-1.888,15.516-4,30.934-6.983,44.141-7.606,33.56-19.369,47.2-30.359,54.011a42.993,42.993,0,0,1-7.86,3.948,37.736,37.736,0,0,1-22.836,1.757c-10.14-2.389-20.3-8.982-31.176-9.16S5.079,96.5-2.913,117.193c-9.08,8.646-17.636,14.569-25.535,27.381-5.4,8.706-10.637,21.182-14.545,38.218a241,241,0,0,0-4.46,26.552c-4.488,39.363-1.584,87,1.1,130.764q.4,6.475.784,13.029c3.969,68.2,3.571,136.745-3.5,198.376-2.732,23.788-6.624,49.234-13.11,64.474-9.218,21.715-19.794,24.953-28.963,33.559-.723.691-1.441,1.4-2.158,2.172-10.835,11.529-20.462,31.8-27.362,63.368-7.352,33.56-11.216,82.379-6.8,127.9" transform="translate(143.139 207.999)"/><path class="e" d="M134.431-120.28c-2.224,36.146-5.472,71.388-9.693,105.18-1.866,14.964-3.941,29.848-6.817,42.68C110.6,60.27,99.458,74.958,88.948,83.071A57.5,57.5,0,0,1,81.4,88.085a38.652,38.652,0,0,1-22.03,5.034c-9.825-.809-19.695-5.685-30.232-5.113S7.85,101.825-.91,115.071c-9.075,13.819-18.767,12.911-27.285,25.13-5.84,8.331-11.536,20.728-15.831,38.12a232.18,232.18,0,0,0-4.968,27.321c-5.029,40.745-2.142,90.552.5,136.212q.386,6.791.762,13.621c3.864,71.284,3.141,143-4.846,206.549-2.826,22.643-6.751,46.865-12.972,61.848-8.876,21.36-18.966,26.295-27.649,36.422-.684.79-1.363,1.638-2.042,2.527-10.234,13.345-19.082,35.139-25.2,66.961-6.513,33.875-9.582,81.214-4.968,124.782" transform="translate(142.372 202.856)"/><path class="e" d="M131.764-125.5c-2.143,34.994-5.32,69.074-9.478,101.666-1.838,14.45-3.864,28.763-6.624,41.239-7.043,31.783-17.559,47.378-27.6,56.953A65.441,65.441,0,0,1,80.832,80.4c-7.01,4.983-14.128,7.758-21.273,8.291-9.5.77-19.093-2.369-29.288-1.066S9.643,101.145,1.015,112.793c-9.66,13.068-19.871,11.213-29.029,22.9-6.26,7.877-12.442,20.215-17.106,37.883a226.619,226.619,0,0,0-5.415,28.091c-5.575,42.186-2.71,94.184-.127,141.819q.381,7.048.74,14.194c3.715,74.344,2.76,149.379-6.193,214.742C-59.068,594-63.02,616.975-69,631.643c-8.528,21.044-18.133,27.558-26.33,39.265-.646.928-1.286,1.974-1.926,2.9-9.638,15.141-17.7,38.475-23.029,70.554-5.68,34.152-7.949,80.049-3.091,121.663" transform="translate(141.661 197.772)"/><path class="e" d="M129.018-130.73c-2.057,33.854-5.164,66.781-9.262,98.172-1.805,13.819-3.82,27.637-6.475,39.8-6.762,30.835-16.653,47.378-26.252,58.413A76,76,0,0,1,80.107,72.7c-6.7,5.988-13.534,9.872-20.423,11.608-9.179,2.329-18.486.928-28.339,2.981S11.374,100.515,2.906,110.563c-10.267,12.062-20.986,9.4-30.79,20.531-6.707,7.6-13.33,19.938-18.4,37.942a220.471,220.471,0,0,0-5.9,28.861c-6.116,43.43-3.268,97.678-.756,147.267q.375,7.344.723,14.746c3.593,77.365,2.456,155.933-7.54,222.934-3.052,20.511-7.032,42.226-12.767,56.676-8.18,20.629-17.3,28.723-25.016,42.028-.607,1.046-1.214,2.132-1.811,3.257-9.041,16.957-16.328,41.811-20.865,74.147-4.841,34.428-6.309,78.964-1.231,118.544" transform="translate(141.029 192.677)"/><path class="e" d="M126.181-136c-1.972,32.736-5.007,64.537-9.042,94.756-1.708,13.508-3.814,26.326-6.282,38.238-6.48,29.927-15.748,47.556-24.895,59.894a96.491,96.491,0,0,1-6.624,8.074c-6.41,6.974-12.978,11.947-19.629,14.865-8.832,3.948-17.89,4.244-27.4,7.028s-19.319,12.891-27.632,21.4c-10.841,11.075-22.1,7.8-32.534,18.3-7.137,7.3-14.225,19.484-19.706,37.922a215.8,215.8,0,0,0-6.375,29.611c-6.64,44.989-3.814,101.251-1.352,152.775q.364,7.64.7,15.339c3.466,80.484,2.208,162.626-8.881,231.107-3.152,19.5-7.176,39.9-12.663,54.09-7.86,20.254-16.488,29.927-23.708,44.812-.552,1.185-1.137,2.389-1.695,3.612-8.44,18.774-14.948,45.167-18.7,77.759-4,34.7-4.67,77.72.624,115.425" transform="translate(140.488 187.543)"/><path class="e" d="M123.223-141.19c-1.893,31.538-4.859,62.127-8.832,91.085-1.7,12.993-3.758,25.346-6.144,36.876-6.182,29-14.826,47.655-23.515,61.355q-3.1,4.916-6.293,9.1C72.321,65.21,66.02,71.28,59.607,75.368c-8.539,5.488-17.283,7.561-26.451,11.075s-18.618,12.476-26.832,19.5c-11.454,9.87-23.183,6.08-34.267,16.109-7.573,6.87-15.124,18.991-20.975,37.784a212.138,212.138,0,0,0-6.856,30.4c-7.176,46.273-4.416,104.8-2,158.263q.359,7.9.673,15.911c3.345,83.544,1.987,169.535-10.223,239.3-3.246,18.517-7.3,37.508-12.547,51.464-7.49,19.9-15.649,31.289-22.383,47.635-.552,1.283-1.06,2.626-1.579,3.948-7.786,20.162-13.575,48.661-16.532,81.372-3.168,34.942-3.036,76.536,2.478,112.286" transform="translate(140.062 182.488)"/><path class="e" d="M120.146-146.42c-1.8,30.394-4.695,59.827-8.605,87.571-1.682,12.475-3.681,24.369-5.972,35.534C99.656,4.776,91.636,24.438,83.4,39.52c-1.96,3.613-3.958,6.969-5.978,10.107C71.6,58.611,65.565,65.777,59.394,71.046,51.175,78.113,42.714,81.9,33.882,86.167S15.964,98.17,7.861,103.8c-12.05,8.37-24.32,4.382-36.017,13.819-8.009,6.455-16.024,18.5-22.262,37.646a208.785,208.785,0,0,0-7.336,31.151c-7.728,47.655-4.968,108.358-2.627,163.751q.339,8.2.651,16.5c3.218,86.6,1.844,176.681-11.592,247.472-3.312,17.589-7.435,35.2-12.436,48.878-7.121,19.524-14.793,32.533-21.036,50.438q-.734,2.093-1.457,4.323c-7.176,22.148-12.2,51.87-14.352,84.886-2.329,35.218-1.4,75.371,4.333,109.167" transform="translate(139.761 177.393)"/><path class="e" d="M116.84-151.65c-1.719,29.252-4.54,57.535-8.385,84.077-1.676,11.873-3.618,23.241-5.807,33.994-5.63,27.144-13.027,47.832-20.8,64.3-1.855,3.948-3.748,7.64-5.663,11.114A128.313,128.313,0,0,1,58.948,66.546C51.055,75.173,42.869,80.7,34.385,85.7s-17.2,11.489-25.22,15.793c-12.635,6.751-25.43,2.626-37.767,11.568-8.44,6.12-16.918,18.1-23.548,37.508a206.351,206.351,0,0,0-7.811,32.02c-8.28,49.036-5.52,111.931-3.257,169.258.226,5.646.436,11.351.635,17.076,3.091,89.663,1.761,184.064-12.916,255.645a355.923,355.923,0,0,1-12.32,46.292c-6.795,19.149-13.987,33.816-19.756,53.3-.453,1.54-.9,3.1-1.341,4.7-6.587,24.153-10.861,55.161-12.2,88.558-1.49,35.534.243,74.206,6.193,106.048" transform="translate(139.688 172.299)"/><path class="e" d="M113.334-156.88c-1.637,28.114-4.388,55.249-8.169,80.582-1.66,11.31-3.543,22.182-5.636,32.533C94.181-17.529,87.386,4.147,80.083,21.992q-2.616,6.4-5.349,12.141A166.6,166.6,0,0,1,58.307,62.126c-7.681,10.062-15.584,17.82-23.625,23.2-8.1,5.685-16.449,10.936-24.414,13.819-13.2,4.876-26.539.948-39.511,9.357-8.876,5.745-17.813,17.648-24.839,37.508a205.059,205.059,0,0,0-8.263,32.77c-8.832,50.4-6.072,115.465-3.864,174.727q.323,8.883.613,17.767c2.964,92.782,1.733,191.724-14.263,263.837a403.472,403.472,0,0,1-12.21,43.667c-6.447,18.773-13.154,35.08-18.436,56.044-.414,1.658-.822,3.336-1.225,5.054-5.989,26.108-9.517,58.321-10.079,92.032-.651,35.771,1.882,73.042,8.053,102.929" transform="translate(139.816 167.204)"/><path class="e" d="M109.571-162.11C105.232-85.239,91.162-17.666,73.063,26.435S33.011,92.37,11.119,96.95c-13.755,2.862-27.654-.77-41.255,7.087s-27.406,29.611-34.891,70.909c-9.384,51.78-6.624,119.038-4.5,180.234,3.505,100.679,3.455,213.2-15.019,290.191-9.2,38.337-22.217,63.98-30.326,105.338-11.238,57.347-10.366,141.345,2.031,195.554" transform="translate(140.196 162.11)"/></g><g transform="translate(49.679 581.393)"><path class="e" d="M89.94,638.12q12.88-63.726,27.82-121.6c4.416-17.115,9.091-34.152,14.948-44.358,14.975-26.038,32.882-.75,46.985,30.895,13,29.186,24.994,63.8,35.713,103.107,10.609,38.929,20.131,82.912,32.987,111.892s30.5,39.738,42.917,8.41c7.391-18.635,11.84-49.569,13.524-81.333s.856-64.572-.585-96.493c-1.656-36.56-4.068-74.68-.845-109.858,3.345-36.422,13.01-64.316,23.669-68.3,15.163-5.685,28.493,32.079,41.277,61.809,16.234,37.784,35.1,65.915,54.437,61.927s38.882-46.273,44.683-112.365" transform="translate(-89.94 -220.777)"/><path class="e" d="M93.57,650.8Q106.208,588.125,121,531.589c4.372-16.7,8.992-33.3,14.749-43.331,11.564-20.136,24.878-9.87,36.812,9.871a192.532,192.532,0,0,1,9.384,17.905c12.855,27.594,24.745,60.563,35.421,98.211,10.571,37.251,20.043,79.773,32.76,107.627,7.132,15.654,15.583,26.374,23.906,28.308,7.248,1.658,14.44-3.494,20.451-18.2,1.071-2.619,2.091-5.494,3.052-8.607,5.9-19.169,9.483-46.727,11.04-75.016.494-8.969.828-18.042,1-27.164.442-23.946-.077-48.168-.845-71.857-1.209-37.508-2.821-76.022.817-111.122s12.872-61.986,23.277-66.053c14.81-5.824,27.87,29.769,40.367,57.406.988,2.191,1.982,4.323,2.986,6.436,15.168,31.724,32.335,53.754,49.778,48.7,18.6-5.389,37.242-47.378,42.63-112.069" transform="translate(-91.566 -219.19)"/><path class="e" d="M97.2,668.212c8.27-41.071,17.306-80.1,27.047-116.807,4.328-16.306,8.9-32.454,14.55-42.324,11.36-19.741,24.4-10.581,36.149,7.9a176.2,176.2,0,0,1,9.262,16.78c12.7,26.008,24.491,57.341,35.117,93.335,10.521,35.534,19.965,76.654,32.567,103.541,7.4,15.793,16.074,27.006,24.652,29.414,7.452,1.974,14.9-2.784,21.146-17.589,1.113-2.64,2.172-5.562,3.168-8.745,6.149-19.524,9.82-47.911,11.509-76.99.529-9.3.9-18.708,1.1-28.17.552-24.6.254-49.51-.243-73.772-.762-38.574-1.573-77.325,2.478-112.4,3.864-33.3,12.745-59.637,22.9-63.8,14.445-5.922,27.24,27.44,39.456,53q1.441,2.961,2.914,5.922c14.81,29.236,31.424,48.76,48.172,42.384,17.851-6.771,35.6-48.641,40.576-111.733" transform="translate(-93.193 -222.482)"/><path class="e" d="M100.82,686.146c8.116-40.391,17.029-78.654,26.672-114.5,4.272-15.891,8.793-31.585,14.352-41.3,11.145-19.484,23.923-11.252,35.482,5.922a163.675,163.675,0,0,1,9.152,15.872c12.55,24.4,24.24,54.089,34.819,88.42,10.488,33.994,19.9,73.5,32.33,99.4,7.678,15.99,16.559,27.637,25.391,30.519,7.661,2.468,15.384-2.092,21.842-17a94.293,94.293,0,0,0,3.312-8.863c6.392-19.9,10.151-49.135,11.961-79.122q.85-14.341,1.236-28.96c.684-25.268.58-50.872.353-75.706-.32-39.58-.348-78.569,4.14-113.668,4.057-31.763,12.618-57.249,22.515-61.572,14.087-6.1,26.611,25.13,38.54,48.6q1.413,2.783,2.848,5.449c14.456,26.749,30.514,43.785,46.56,36.086,17.112-8.193,33.969-49.846,38.534-111.438" transform="translate(-94.814 -226.242)"/><path class="e" d="M104.45,704.139c7.958-39.651,16.745-77.088,26.285-111.991,4.228-15.5,8.7-30.756,14.153-40.291,10.94-19.149,23.454-11.844,34.819,4.047a142.778,142.778,0,0,1,9.014,14.589c12.4,22.81,23.985,50.851,34.516,83.523,10.432,32.336,19.833,70.3,32.109,95.21,7.954,16.148,17.062,28.269,26.142,31.586,7.86,2.882,15.853-1.362,22.538-16.385a94.974,94.974,0,0,0,3.417-8.982c6.624-20.274,10.488-50.359,12.414-81.234q.9-14.723,1.363-29.73c.806-25.92.905-52.234.955-77.661.121-40.568.861-79.773,5.8-114.932,4.245-30.2,12.486-54.959,22.129-59.321,13.728-6.218,25.982,22.82,37.634,44.2.916,1.7,1.844,3.336,2.76,4.955,14.1,24.262,29.6,38.791,44.954,29.769,16.361-9.594,32.335-51.011,36.481-111.1" transform="translate(-96.441 -230.041)"/><path class="e" d="M108.08,722.1c7.8-38.949,16.462-75.6,25.9-109.6,4.178-15.082,8.594-29.888,13.949-39.265,10.736-18.813,22.979-12.595,34.157,2.073a125.116,125.116,0,0,1,8.887,13.5c12.248,21.2,23.738,47.592,34.223,78.608,10.388,30.717,19.778,67.119,31.894,91.065,8.23,16.286,17.548,28.881,26.887,32.73,8.064,3.277,16.322-.671,23.227-15.793a94.747,94.747,0,0,0,3.544-9.1c6.883-20.63,10.819-51.563,12.867-83.327q.964-15.121,1.485-30.539c.933-26.571,1.22-53.577,1.557-79.576.552-41.594,2.053-80.938,7.463-116.2,4.416-28.684,12.353-52.629,21.743-57.091,13.364-6.357,25.353,20.511,36.718,39.8.9,1.52,1.8,3.02,2.71,4.461,13.739,21.715,28.7,33.816,43.342,23.472,15.621-11.015,30.7-52.215,34.433-110.806" transform="translate(-98.067 -233.81)"/><path class="e" d="M111.71,740.085c7.644-38.252,16.181-74.117,25.518-107.213,4.134-14.667,8.5-29.039,13.75-38.258,10.526-18.477,22.5-13.246,33.494.138a118.3,118.3,0,0,1,8.76,12.378c12.1,19.61,23.487,44.366,33.925,73.732,10.339,29.058,19.717,63.822,31.673,86.86,8.512,16.424,18.039,29.611,27.632,33.836,8.28,3.691,16.791,0,23.917-15.181a90.1,90.1,0,0,0,3.665-9.219c7.132-21,11.156-52.787,13.325-85.419.69-10.4,1.209-20.906,1.612-31.329,1.054-27.242,1.54-54.939,2.158-81.53.983-42.581,3.224-82.142,9.119-117.458,4.548-27.124,12.221-50.261,21.356-54.761,13.01-6.495,24.729,18.2,35.813,35.415.872,1.342,1.755,2.665,2.638,3.948,13.386,19.267,27.781,28.822,41.735,17.155,14.876-12.4,29.062-53.3,32.385-110.549" transform="translate(-99.693 -237.6)"/><path class="e" d="M115.34,758.038c7.487-37.538,15.9-72.606,25.132-104.785,4.085-14.273,8.4-28.19,13.551-37.251,10.322-18.142,22.035-13.937,32.832-1.836a100.9,100.9,0,0,1,8.639,11.292c11.941,18.016,23.229,41.122,33.621,68.817,10.294,27.42,19.667,60.565,31.463,82.734,8.8,16.542,18.536,30.124,28.383,34.941,8.467,4.086,17.26.73,24.613-14.589A88.278,88.278,0,0,0,317.361,788c7.38-21.359,11.487-53.972,13.8-87.511.723-10.66,1.281-21.438,1.728-32.118,1.181-27.894,1.871-56.281,2.76-83.445,1.424-43.607,4.377-83.346,10.78-118.741,4.648-25.663,12.094-47.931,20.975-52.59,12.646-6.633,24.094,15.793,34.9,31.013q1.275,1.777,2.567,3.455c13.027,16.78,26.871,23.847,40.129,10.857,14.131-13.819,27.423-54.584,30.359-110.174" transform="translate(-101.32 -241.379)"/><path class="e" d="M119,776.011c7.334-36.839,15.623-71.122,24.757-102.4,4.035-13.818,8.28-27.341,13.347-36.225,10.118-17.767,21.527-14.529,32.164-3.79a89.26,89.26,0,0,1,8.517,10.186c11.79,16.405,22.98,37.869,33.323,63.921,10.25,25.782,19.623,57.249,31.237,78.549,9.08,16.661,19.027,30.756,29.123,36.047,8.677,4.5,17.735,1.441,25.309-14a83.648,83.648,0,0,0,3.914-9.456c7.623-21.715,11.823-55.274,14.236-89.6.762-10.936,1.358-21.991,1.855-32.908,1.3-28.565,2.208-57.624,3.356-85.4,1.871-44.595,5.52-84.531,12.442-119.985,4.736-24.222,11.962-45.6,20.595-50.359,12.287-6.771,23.465,13.582,33.986,26.611.828,1.026,1.656,1.974,2.5,2.961,12.7,14.273,25.943,18.853,38.517,4.54,13.391-15.22,25.789-55.748,28.284-109.838" transform="translate(-102.959 -245.159)"/><path class="e" d="M122.59,793.965c7.179-36.129,15.342-69.622,24.37-99.988,4.007-13.443,8.2-26.492,13.148-35.158,9.908-17.471,21.08-15.2,31.5-5.764a77.685,77.685,0,0,1,8.4,9.1c11.636,14.8,22.725,34.626,33.02,59.025,10.206,24.123,19.584,53.932,31.016,74.384,9.384,16.74,19.524,31.388,29.873,37.152,8.881,4.9,18.215,2.152,26-13.4a84.828,84.828,0,0,0,4.035-9.574c7.871-22.11,12.144-56.42,14.688-91.7.8-11.213,1.435-22.524,1.982-33.7,1.424-29.236,2.523-58.986,3.958-87.334,2.307-45.621,6.624-85.754,14.1-121.268,4.8-22.8,11.829-43.252,20.2-48.109,11.928-6.909,22.841,11.272,33.08,22.209.806.849,1.617,1.678,2.429,2.468,12.315,11.844,25.049,13.819,36.911-1.757,12.646-16.622,24.155-56.953,26.236-109.542" transform="translate(-104.568 -248.919)"/><path class="e" d="M126.22,812.035c7.021-35.44,15.062-68.151,23.989-97.6,3.936-13.049,8.1-25.663,12.944-34.191,9.7-17.155,20.606-15.793,30.839-7.718a74.286,74.286,0,0,1,8.28,7.9c11.485,13.207,22.476,31.385,32.727,54.13,10.156,22.485,19.54,50.616,30.8,70.218,9.66,16.839,20.009,32.02,30.619,38.258,9.086,5.31,18.674,2.862,26.694-12.792a83.066,83.066,0,0,0,4.156-9.693c8.12-22.465,12.491-57.624,15.146-93.809.839-11.47,1.512-23.057,2.1-34.487,1.551-29.868,2.854-60.328,4.559-89.268,2.76-46.628,7.728-87.018,15.765-122.512,4.857-21.419,11.7-40.923,19.822-45.878,11.592-7.048,22.206,8.962,32.164,17.767.789.691,1.573,1.342,2.368,1.974,11.95,9.3,24.133,8.883,35.3-8.074,11.9-18.023,22.515-58.117,24.182-109.227" transform="translate(-106.194 -252.795)"/><path class="e" d="M129.85,829.931a944.694,944.694,0,0,1,23.6-95.171c3.864-12.654,8-24.795,12.745-33.185,9.5-16.819,20.136-16.543,30.177-9.673a62.941,62.941,0,0,1,8.142,6.87c11.332,11.608,22.223,28.143,32.429,49.234,10.112,20.846,19.5,47.24,30.58,66.053,9.936,16.9,20.5,32.632,31.364,39.363,9.284,5.7,19.143,3.553,27.384-12.2a82.629,82.629,0,0,0,4.283-9.87c8.363-22.8,12.823-58.788,15.6-95.842.878-11.845,1.59-23.689,2.208-35.277,1.656-30.539,3.179-61.69,5.161-91.2,3.2-47.635,8.771-88.341,17.421-123.8,4.9-20.057,11.592-38.574,19.435-43.608,11.211-7.186,21.583,6.633,31.259,13.384q1.143.8,2.3,1.48c11.592,6.811,23.222,3.948,33.671-14.371,11.156-19.445,20.882-59.321,22.135-108.911" transform="translate(-107.82 -256.517)"/><path class="e" d="M133.48,847.845A869.6,869.6,0,0,1,156.7,755.063c3.864-12.239,7.9-23.926,12.552-32.178,9.284-16.464,19.656-17.194,29.509-11.628a49.934,49.934,0,0,1,8.02,5.784c11.178,9.99,21.968,24.875,32.125,44.318,10.068,19.208,19.468,43.884,30.359,61.888,10.25,16.938,20.975,33.263,32.109,40.469,9.494,6.12,19.617,4.264,28.085-11.588a78.464,78.464,0,0,0,4.416-9.87c8.611-23.2,13.159-60.032,16.052-97.994.911-12,1.656-24.123,2.357-36.067,1.794-31.191,3.522-63.013,5.757-93.118,3.665-48.622,9.82-89.742,19.082-125.078,4.924-18.754,11.443-36.244,19.055-41.357,10.852-7.324,20.975,4.3,30.359,8.982.745.355,1.485.691,2.208.987,11.238,4.3,22.306-1.086,32.081-20.689,10.41-20.846,19.242-60.486,20.087-108.575" transform="translate(-109.447 -260.276)"/><path class="e" d="M137.11,865.887c6.554-33.339,14.223-63.689,22.836-90.374,3.8-11.844,7.805-23.1,12.348-31.171,9.08-16.148,19.187-17.767,28.847-13.582a41.608,41.608,0,0,1,7.893,4.679c11.025,8.4,21.716,21.662,31.827,39.482C250.885,792.471,260.3,815.39,271,832.643c10.543,16.957,21.489,33.875,32.854,41.574,9.7,6.515,20.087,4.955,28.775-11a78.8,78.8,0,0,0,4.532-10.068c8.832-23.57,13.49-61.2,16.5-100.086.949-12.279,1.744-24.677,2.478-36.857,1.921-31.862,3.864-64.375,6.359-95.072,4.112-49.629,10.841-91.223,20.744-126.342,4.968-17.49,11.31-33.915,18.674-39.126,10.488-7.462,20.324,1.974,29.432,4.58.718.2,1.435.355,2.158.493,10.885,1.816,21.395-6.06,30.469-26.986,9.671-22.327,17.608-61.809,18.055-108.318" transform="translate(-111.073 -264.085)"/><path class="e" d="M140.73,883.85c6.4-32.643,13.948-62.212,22.455-87.985,3.748-11.411,7.728-22.229,12.144-30.145,8.876-15.793,18.712-18.537,28.184-15.556a33.451,33.451,0,0,1,7.772,3.573c10.87,6.8,21.461,18.415,31.529,34.566,9.98,15.931,19.408,37.074,29.929,53.557,10.841,16.977,21.98,34.507,33.6,42.68,9.9,6.929,20.556,5.665,29.47-10.384a78.413,78.413,0,0,0,4.648-10.186c9.1-23.946,13.827-62.48,16.962-102.179.988-12.555,1.822-25.229,2.605-37.666,2.042-32.513,4.179-65.717,6.961-96.987,4.554-50.635,11.84-92.782,22.405-127.605,4.94-16.267,11.178-31.585,18.282-36.876,10.134-7.6,19.695-.316,28.527.178h2.087c10.526-.671,20.484-11.055,28.863-33.3,8.926-23.689,15.974-62.855,16.008-107.963" transform="translate(-112.695 -267.855)"/><path class="e" d="M144.36,901.882c6.249-31.945,13.676-60.724,22.079-85.557a180.376,180.376,0,0,1,11.945-29.137c8.666-15.477,18.215-19.228,27.522-17.51a32.756,32.756,0,0,1,7.645,2.468c10.715,5.175,21.207,15.123,31.231,29.611,9.936,14.273,19.375,33.56,29.7,49.353,11.145,16.977,22.471,35.158,34.35,43.805,10.1,7.3,21.025,6.376,30.16-9.871a77.562,77.562,0,0,0,4.775-10.3c9.351-24.321,14.158-63.684,17.415-104.291,1.027-12.812,1.9-25.663,2.727-38.435,2.164-33.185,4.5-67.119,7.562-98.941,5-51.622,12.817-94.52,24.067-128.849,4.968-15.1,11.04-29.236,17.9-34.645,9.77-7.738,19.066-2.626,27.6-4.225a18.805,18.805,0,0,0,2.02-.494c10.168-3.159,19.573-16.03,27.257-39.6,8.18-25.071,14.352-64.059,13.938-107.647" transform="translate(-114.321 -271.712)"/><path class="e" d="M148,919.806c6.094-31.249,13.4-59.25,21.688-83.168a181.1,181.1,0,0,1,11.746-28.111c8.462-15.141,17.768-19.9,26.86-19.484a30.987,30.987,0,0,1,7.518,1.382C226.364,794,236.749,802.3,246.722,815.14c9.886,12.634,19.347,30.223,29.487,45.226,11.448,16.938,22.963,35.77,35.09,44.891,10.311,7.719,21.5,7.087,30.856-9.18a77.2,77.2,0,0,0,4.9-10.423c9.593-24.617,14.512-64.908,17.873-106.384,1.065-13.088,1.982-26.295,2.854-39.225,2.285-33.836,4.83-68.422,8.164-100.876,5.437-52.649,13.772-96.375,25.722-130.132,4.968-13.957,10.918-26.887,17.514-32.395,9.417-7.9,18.442-4.935,26.705-8.627.651-.3,1.3-.632,1.948-.987,9.814-5.666,18.663-21.024,25.645-45.917,7.441-26.453,12.7-65.145,11.89-107.331" transform="translate(-115.952 -275.443)"/><path class="e" d="M151.62,937.936c5.935-30.625,13.116-57.906,21.307-80.937a182.977,182.977,0,0,1,11.542-27.085c8.28-14.826,17.294-20.59,26.2-21.438a27.83,27.83,0,0,1,7.4.276c10.4,1.927,20.694,8.56,30.63,19.741,9.842,11,19.319,26.769,29.255,41.041,11.757,16.878,23.459,36.4,35.84,46.016,10.515,8.114,21.969,7.778,31.551-8.587a76.394,76.394,0,0,0,5.023-10.562c9.842-25.031,14.826-66.092,18.32-108.476,1.1-13.345,2.059-26.828,2.981-40.015,2.407-34.487,5.156-69.764,8.76-102.811,5.884-53.636,14.71-98.388,27.384-131.376,4.968-12.871,10.791-24.558,17.112-30.164,9.053-8.015,17.807-7.245,25.789-13.029.629-.454,1.259-.947,1.882-1.481,9.358-7.853,17.776-26.138,24.039-52.215,6.69-27.874,11.04-66.428,9.836-107.015" transform="translate(-117.574 -279.3)"/><path class="e" d="M155.25,955.732c5.786-29.865,12.845-56.3,20.92-78.351a186.12,186.12,0,0,1,11.343-26.1c8.048-14.47,16.824-21.3,25.535-23.373a28.74,28.74,0,0,1,7.27-.849c10.247.357,20.439,5.379,30.332,14.944,9.8,9.337,19.319,23.294,29.051,36.876,12.061,16.8,23.951,37.093,36.591,47.1,10.714,8.528,22.438,8.488,32.241-8a74.207,74.207,0,0,0,5.144-10.66c10.09-25.406,15.163-67.317,18.768-110.549,1.137-13.621,2.136-27.361,3.1-40.8,2.534-35.159,5.487-71.067,9.384-104.745,6.326-54.643,15.632-100.58,29.051-132.659,5.114-12.539,10.773-21.971,16.747-27.914,8.694-8.133,17.178-9.554,24.878-17.431.607-.612,1.209-1.283,1.811-1.974,9.023-10.505,16.878-31,22.427-58.532,5.95-29.276,9.428-67.593,7.789-106.7" transform="translate(-119.2 -283.002)"/><path class="e" d="M158.87,973.735c5.636-29.177,12.575-54.841,20.539-75.963A191.138,191.138,0,0,1,190.554,872.7c7.8-13.686,16.225-22.27,24.872-25.348a33.4,33.4,0,0,1,7.148-1.974c10.09-1.25,20.183,2.12,30.033,10.029,9.748,7.7,19.264,19.741,28.83,32.711,12.37,16.681,24.442,37.646,37.331,48.207,10.918,8.943,22.907,9.2,32.937-7.383a74.229,74.229,0,0,0,5.266-10.779C367.3,892.383,372.466,849.624,376.2,805.5c1.176-13.818,2.208-27.914,3.229-41.614,2.655-35.81,5.812-72.469,9.936-106.6,6.767-55.669,16.559-102.949,30.707-133.942,5.1-11.2,10.6-19.833,16.361-25.663,8.335-8.271,16.56-11.845,23.967-21.833.585-.79,1.17-1.6,1.744-2.468,8.7-13.182,16-35.9,20.848-64.888a497.323,497.323,0,0,0,5.741-106.384" transform="translate(-120.822 -286.811)"/><path class="e" d="M162.5,991.6c5.48-28.489,12.3-53.374,20.147-73.555,10.355-27.2,22.43-44.836,35.15-51.326a34.709,34.709,0,0,1,7.021-3.04c9.932-2.872,19.927-1.147,29.735,5.133,9.7,6.06,19.237,16.326,28.609,28.545,12.7,16.523,24.939,38.258,38.087,49.352,11.122,9.337,23.377,9.87,33.627-6.791a73.126,73.126,0,0,0,5.393-10.9c10.582-26.156,15.831-69.744,19.684-114.773,1.214-14.154,2.291-28.447,3.351-42.384,2.76-36.481,6.144-73.811,10.565-108.575,7.214-56.656,17.432-105.5,32.368-135.186,5.08-9.883,10.448-17.741,16.008-23.433,7.976-8.41,15.919-14.174,23.056-26.236.552-.948,1.1-1.974,1.656-2.961,8.338-15.852,15.062-40.727,19.209-71.067a532.591,532.591,0,0,0,3.687-106.068" transform="translate(-122.448 -290.483)"/><path class="e" d="M166.13,1009.672c12.3-64.908,32.567-107.805,54.061-123.48s44.043-5.527,64.726,20.471c13,16.346,25.424,38.909,38.821,50.418s28.471,10.64,39.842-17.194c14.225-34.843,18.972-100.679,23.614-160.04,7.634-97.678,19.871-201.535,45.191-247.018,12.629-22.643,27.406-28.328,39.351-55.274,16.56-37.389,24.839-116.077,19.237-183.2" transform="translate(-124.074 -294.36)"/></g><g transform="translate(-145.817 -294.314)"><path class="e" d="M-264.23,7.686Q-248.349-46.7-230.736-94c5.211-13.977,10.664-27.637,16.94-33.974C-197.755-144-181.416-107.5-169.162-67.29c11.327,37.1,21.381,78.88,29.951,124.466,8.473,45.128,15.621,94.519,26.8,131.336s27.991,58.749,41.791,35.948c8.208-13.562,14.142-41.12,17.4-71.284s4.1-62.954,4.294-95.289c.221-37.014-.237-76.081,4.708-108.575,5.122-33.56,16.041-54.86,26.722-51.919C-2.286-98.4,8.919-52.662,19.992-15.174c14.065,47.6,31.2,87.432,50.407,96S110.976,60.374,120.012-.9" transform="translate(264.23 166.192)"/><path class="e" d="M-262,13.94q15.6-53.478,33-99.553c5.139-13.621,10.526-26.946,16.692-33.105,12.392-12.358,24.966,6.3,35.708,33.56q4.336,11.051,8.329,23.689C-157.01-26.071-146.967,14-138.356,57.9c8.5,43.469,15.676,91.4,26.782,127.072,6.226,20.017,13.993,36.007,22.079,43.272,7.043,6.317,14.379,5.922,21.036-4.7a54.563,54.563,0,0,0,3.433-6.514c6.773-15.042,11.674-39.837,14.655-66.586.942-8.574,1.727-17.357,2.351-26.295,1.656-23.255,2.351-47.378,2.788-71.205.707-37.725,1.065-76.595,6.409-108.772s15.792-52.669,26.23-49.964c14.859,3.83,25.91,47.26,36.812,82.517.856,2.764,1.728,5.527,2.611,8.232,13.319,41,29.112,73.732,46.5,80.01,18.563,6.712,39.025-22.663,47.581-82.714" transform="translate(263.231 175.178)"/><path class="e" d="M-259.69,20.226c10.206-35.066,21.065-67.621,32.5-97.441,5.073-13.246,10.383-26.2,16.444-32.237,12.171-12.16,24.536,5.33,35.15,31.131q4.3,10.483,8.28,22.5c11.183,33.786,21.2,72.223,29.835,114.5,8.539,41.772,15.759,88.222,26.777,122.848,6.5,20.294,14.451,36.876,22.764,44.772,7.225,6.85,14.8,6.87,21.687-3.672a51.1,51.1,0,0,0,3.56-6.534c7.032-15.26,12.072-40.824,15.2-68.363.993-8.8,1.832-17.813,2.512-26.986,1.8-23.827,2.76-48.543,3.483-72.726,1.192-38.416,2.351-76.99,8.1-108.95,5.465-30.283,15.544-50.438,25.739-48.01,14.512,3.474,25.391,44.575,36.133,77.6q1.275,3.948,2.572,7.7C44.144,14.7,59.5,44.606,76.314,49.147c17.9,4.837,37.474-24.893,45.55-83.741" transform="translate(262.196 184.151)"/><path class="e" d="M-257.41,30.444c10.021-34.471,20.72-66.329,32.015-95.329,5.006-12.871,10.245-25.406,16.2-31.368,11.95-11.963,24.105,4.382,34.6,28.8q4.249,9.9,8.2,21.32c11.119,32.1,21.125,68.835,29.807,109.424,8.578,40.192,15.831,85.162,26.749,118.643,6.745,20.669,14.9,37.863,23.443,46.391,7.408,7.383,15.235,7.9,22.339-2.625a48.7,48.7,0,0,0,3.687-6.594c7.292-15.437,12.464-41.772,15.759-70.12q1.555-13.534,2.672-27.637c1.949-24.4,3.135-49.668,4.167-74.246,1.684-39.126,3.621-77.5,9.8-109.128,5.592-28.644,15.323-48.267,25.259-46.075C11.445-105,22.186-66.207,32.74-35.431q1.247,3.632,2.528,7.186c12.867,35.632,27.8,62.756,43.977,65.54,17.238,2.961,35.929-27.124,43.518-84.767" transform="translate(261.175 189.154)"/><path class="e" d="M-255.14,42.833c9.826-33.879,20.357-65.041,31.5-93.217,4.94-12.516,10.1-24.636,15.947-30.5,11.73-11.845,23.675,3.4,34.046,26.433,2.837,6.278,5.558,13.128,8.131,20.175,11.046,30.424,21.031,65.478,29.741,104.41,8.628,38.534,15.947,81.944,26.782,114.359,7,21.024,15.351,38.811,24.116,47.97,7.584,7.9,15.66,8.883,22.99-1.579a46.863,46.863,0,0,0,3.814-6.633c7.557-15.655,12.856-42.759,16.311-71.877q1.632-13.91,2.837-28.387c2.1-24.972,3.522-50.793,4.857-75.766C-31.9,8.385-29.2-29.7-22.567-61.083c5.7-26.966,15.053-46,24.756-44.081,13.8,2.724,24.4,39.205,34.775,67.751.817,2.25,1.656,4.481,2.484,6.653C52.089,2.206,66.606,26.488,82.161,27.534,98.72,28.639,116.538-1.8,123.648-58.221" transform="translate(260.158 192.044)"/><path class="e" d="M-252.87,55.185c9.637-33.283,20.006-63.749,31-91.1,4.868-12.141,9.936-23.847,15.7-29.611,11.509-11.568,23.239,2.448,33.494,24.084,2.81,5.922,5.52,12.358,8.059,19.011,10.976,28.758,20.947,62.129,29.7,99.4,8.666,36.876,16.068,78.727,26.777,110.115,7.275,21.34,15.825,39.738,24.8,49.53,7.766,8.449,16.09,9.871,23.641-.553a45.46,45.46,0,0,0,3.947-6.653c7.811-15.793,13.248-43.746,16.858-73.653q1.7-14.26,3-29.078c2.258-25.545,3.9-51.919,5.52-77.286C-27.732,8.873-24.255-28.931-17.156-60.1c5.774-25.347,14.8-43.785,24.287-42.127,13.468,2.369,23.9,36.54,34.113,62.855q1.209,3.1,2.44,6.12C56.1-2.991,70.179,18.506,85.132,17.8c15.919-.75,32.826-31.585,39.456-86.86" transform="translate(259.141 194.932)"/><path class="e" d="M-250.6,67.524a885.987,885.987,0,0,1,30.508-88.972c4.8-11.844,9.825-23.077,15.456-28.762,11.288-11.39,22.808,1.461,32.942,21.715,2.76,5.508,5.454,11.568,7.993,17.767,10.907,27.114,20.86,58.837,29.642,94.48,8.7,35.238,16.179,75.489,26.755,105.811,7.562,21.715,16.278,40.745,25.491,51.188,7.949,8.943,16.515,10.858,24.287.474a44.617,44.617,0,0,0,4.068-6.712c8.076-16.049,13.634-44.713,17.415-75.41,1.2-9.871,2.208-19.741,3.157-29.789,2.412-26.1,4.289-53.024,6.237-78.786,3.113-41.258,7.308-78.727,14.9-109.661C-5.917-82.823,2.81-100.59,12.028-99.287c13.121,1.974,23.4,33.856,33.439,57.92.789,1.974,1.59,3.771,2.4,5.587C60.057-8.182,73.746,10.492,88.048,7.946,103.3,5.34,119.323-25.811,125.472-79.842" transform="translate(258.124 197.833)"/><path class="e" d="M-248.33,79.9a812.81,812.81,0,0,1,30.011-86.86c4.736-11.41,9.682-22.327,15.2-27.894,11.073-11.193,22.377.494,32.385,19.366,2.76,5.133,5.4,10.8,7.932,16.681,10.839,25.4,20.777,55.411,29.6,89.367,8.743,33.56,16.295,72.252,26.766,101.646,7.822,21.952,16.709,41.594,26.153,52.688,8.131,9.476,16.946,11.845,24.95,1.52a42.779,42.779,0,0,0,4.2-6.751c8.335-16.247,14.02-45.7,17.967-77.187,1.253-10.028,2.34-20.274,3.312-30.48,2.578-26.67,4.714-54.149,6.922-80.306,3.6-41.969,8.506-79.141,16.593-109.819C-.473-80.393,7.973-97.488,16.948-96.343c12.773,1.639,22.9,31.171,32.766,53,.773,1.717,1.562,3.415,2.351,5.054,11.967,24.913,25.226,40.8,38.92,36.58,14.594-4.481,29.73-35.988,35.393-88.834" transform="translate(257.107 200.713)"/><path class="e" d="M-246,96.071c9.06-31.5,18.931-59.877,29.481-84.748,4.67-11.035,9.544-21.537,14.959-27.025,10.846-11,21.93-.375,31.827,17.017,2.716,4.777,5.349,10.028,7.86,15.516,10.779,23.729,20.712,52.054,29.581,84.353,8.782,31.98,16.416,69.093,26.766,97.421,8.064,22.248,17.134,42.522,26.777,54.248,8.307,10.009,17.371,12.851,25.6,2.547a40.9,40.9,0,0,0,4.322-6.771c8.6-16.464,14.412-46.667,18.519-78.964,1.308-10.265,2.445-20.748,3.489-31.171,2.721-27.242,5.067-55.275,7.606-81.826,4.112-42.68,9.7-79.6,18.293-109.9C4.959-74,13.145-90.381,21.872-89.473,34.32-88.309,44.288-61.125,53.981-41.385c.767,1.54,1.535,3.04,2.313,4.521C68.035-14.636,80.874-1.567,93.95-7.549c13.938-6.337,28.179-38.2,33.362-89.8" transform="translate(256.063 199.786)"/><path class="e" d="M-243.78,115.237c8.881-30.909,18.6-58.584,29.012-82.616,4.6-10.66,9.384-20.767,14.71-26.157,10.626-10.8,21.5-1.342,31.275,14.648,2.688,4.4,5.294,9.258,7.794,14.352,10.7,22.067,20.607,48.716,29.5,79.358,8.832,30.322,16.56,65.678,26.76,93.177,8.374,22.5,17.614,43.43,27.505,55.808,8.49,10.542,17.8,13.819,26.252,3.593a39.43,39.43,0,0,0,4.449-6.771c8.832-16.681,14.8-47.655,19.077-80.74,1.352-10.5,2.545-21.221,3.649-31.862,2.876-27.815,5.454-56.4,8.28-83.346,4.57-43.43,10.835-80.089,19.987-110.174,5.873-19.326,13.8-34.922,22.3-34.29,12.083.908,21.892,25.8,31.413,43.173.751,1.362,1.507,2.7,2.269,3.948C71.971-13.118,84.391-2.853,96.849-10.572,110.1-18.784,123.477-51,128.174-101.38" transform="translate(255.068 195.86)"/><path class="e" d="M-241.51,134.4c8.7-30.319,18.252-57.307,28.516-80.523,4.532-10.285,9.262-19.978,14.462-25.288,10.4-10.6,21.064-2.31,30.723,12.318a147.345,147.345,0,0,1,7.728,13.167c10.629,20.4,20.522,45.368,29.459,74.344,8.832,28.683,16.664,62.381,26.749,88.933,8.655,22.8,18.072,44.4,28.184,57.387,8.672,11.075,18.215,14.845,26.9,4.639a39.769,39.769,0,0,0,4.581-6.87c9.119-16.859,15.191-48.622,19.623-82.5,1.4-10.739,2.655-21.715,3.809-32.553,3.03-28.387,5.851-57.505,8.986-84.886C-6.724,28.493.187-8.048,9.9-37.777,15.759-55.7,23.47-70.488,31.711-70.093c11.735.533,21.395,23.117,30.74,38.238.74,1.184,1.479,2.349,2.208,3.474C75.953-11.522,87.947-4.08,99.787-13.555,112.4-23.6,124.864-56.2,129.081-105.39" transform="translate(254.051 191.954)"/><path class="e" d="M-239.24,153.481c8.507-29.729,17.9-56.018,28.019-78.391,4.466-9.87,9.119-19.208,14.214-24.419,10.184-10.423,20.633-3.277,30.166,9.87a133.8,133.8,0,0,1,7.662,12.022c10.564,18.757,20.443,42.088,29.415,69.468,8.892,26.966,16.8,58.986,26.744,84.629,8.942,23.038,18.525,45.4,28.863,58.946C-65.326,297.214-55.5,301.4-46.6,291.272a38.875,38.875,0,0,0,4.708-6.89c9.384-17.076,15.583-49.609,20.175-84.274,1.457-10.976,2.76-22.169,3.974-33.244,3.185-28.98,6.237-58.631,9.676-86.386C-2.522,35.687,5.018-.755,15.307-30.07c5.829-16.582,13.33-30.48,21.318-30.362,11.393.158,20.9,20.452,30.072,33.323.723,1.027,1.452,1.974,2.18,2.941,11.062,14.194,22.653,18.853,33.864,7.62C114.7-28.392,126.273-61.419,130-109.33" transform="translate(253.034 188.116)"/><path class="e" d="M-237,172.656c8.321-29.161,17.563-54.76,27.539-76.279,4.416-9.555,8.981-18.458,13.965-23.571,9.969-10.206,20.2-4.225,29.614,7.6a119.2,119.2,0,0,1,7.6,10.858C-147.8,108.3-137.933,129.9-128.922,155.58c8.942,25.387,16.935,55.709,26.744,80.464,9.246,23.274,18.972,46.253,29.542,60.506,9.025,12.141,19.077,16.839,28.2,6.712a37.709,37.709,0,0,0,4.835-6.929c9.643-17.273,15.969-50.576,20.732-86.031,1.5-11.233,2.859-22.682,4.134-33.974,3.339-29.611,6.624-59.716,10.361-87.886C1.7,43.037,9.814,6.517,20.7-22.265,26.49-37.545,33.787-50.534,41.531-50.673c11.04-.2,20.4,17.767,29.4,28.427.707.829,1.424,1.638,2.136,2.389,10.841,11.509,22,13.345,32.6.355C116.96-33.32,127.646-66.584,130.9-113.35" transform="translate(252.031 184.2)"/><path class="e" d="M-234.69,191.783c8.129-28.562,17.2-53.468,27.02-74.167,4.333-9.179,8.832-17.668,13.717-22.682,9.748-10.028,19.772-5.192,29.062,5.231a112.1,112.1,0,0,1,7.529,9.693c10.42,15.364,20.267,35.29,29.316,59.321,8.975,23.729,17.078,52.353,26.766,76.2,9.489,23.511,19.4,47.2,30.194,62.085,9.207,12.674,19.507,17.767,28.858,7.758a37.221,37.221,0,0,0,4.968-6.988c9.9-17.471,16.361-51.544,21.284-87.788,1.557-11.469,2.964-23.156,4.3-34.665,3.494-30.1,7.032-60.822,11.04-89.407C5.9,50.221,14.636,13.621,26.133-14.49c5.735-14.036,12.834-26.058,20.335-26.453,10.7-.572,19.871,15.082,28.7,23.492.7.651,1.4,1.283,2.1,1.875,10.615,8.8,21.356,7.9,31.336-6.89,10.631-15.655,20.423-49.352,23.183-94.875" transform="translate(250.996 180.313)"/><path class="e" d="M-232.42,210.959c7.935-27.963,16.839-52.172,26.5-72.035,4.261-8.824,8.7-16.9,13.468-21.715,9.527-9.87,19.319-6.179,28.51,2.882a82.923,82.923,0,0,1,7.457,8.528c10.345,13.678,20.172,31.914,29.255,54.288,9.058,21.932,17.261,48.819,26.777,71.817,9.809,23.689,19.871,48.128,30.911,63.645,9.384,13.206,19.932,18.853,29.509,8.8a37.236,37.236,0,0,0,5.089-7.028c10.162-17.767,16.747-52.531,21.836-89.565,1.6-11.706,3.064-23.689,4.454-35.356,3.638-30.677,7.413-61.947,11.73-90.867,7.06-46.924,16.328-83.7,28.471-111.1,5.68-12.832,12.585-23.847,19.871-24.5,10.35-.928,19.391,12.417,28.046,18.576a24.289,24.289,0,0,0,2.053,1.342c10.388,6.139,20.71,2.349,30.072-14.115,9.969-17.53,18.878-51.544,21.169-95.882" transform="translate(249.979 176.437)"/><path class="e" d="M-230.15,230.066c7.757-27.39,16.511-50.916,26.026-69.942,4.176-8.782,8.621-15.81,13.248-20.945,9.306-9.634,18.911-7.127,27.952.533a71.776,71.776,0,0,1,7.4,7.363c10.278,12.025,20.1,28.6,29.222,49.352,9.025,20.412,17.338,45.523,26.7,67.652,10.107,23.827,20.335,49.076,31.579,65.283,9.566,13.819,20.363,19.741,30.16,9.87a35.5,35.5,0,0,0,5.216-7.047c10.421-17.885,17.111-53.518,22.388-91.341,1.656-11.844,3.168-24.1,4.62-36.047,3.8-31.388,7.816-63.171,12.425-92.585C14.307,64.657,24.16,27.5,36.955.992,42.58-10.655,49.3-20.624,56.308-21.532c10-1.3,18.889,9.713,27.373,13.641a21.07,21.07,0,0,0,2.015.829c10.162,3.435,20.059-3.139,28.8-21.379C123.81-47.807,131.83-82.2,133.635-125.33" transform="translate(248.962 172.53)"/><path class="e" d="M-227.87,249.173c7.568-26.81,16.161-49.641,25.524-67.81,4.106-8.362,8.456-15.094,12.972-20.076,9.086-9.436,18.48-8.114,27.4-1.836a71.438,71.438,0,0,1,7.33,6.2c10.206,10.317,20.007,25.194,29.172,44.279,9.091,18.793,17.509,42.186,26.727,63.487,10.4,24.044,20.782,49.945,32.252,66.8,9.748,14.233,20.788,20.827,30.812,10.857a35.047,35.047,0,0,0,5.343-7.107c10.686-18.063,17.531-54.465,22.94-93.1,1.706-12.18,3.273-24.577,4.786-36.738,3.958-31.822,8.2-64.2,13.115-93.967,8-48.267,18.409-85.912,31.866-111.4C47.934-1.774,54.464-10.637,61.232-11.8c9.654-1.658,18.387,7.048,26.7,8.745a16.9,16.9,0,0,0,1.971.276c9.936.77,19.413-8.627,27.539-28.6,8.65-21.241,15.781-55.985,17.111-97.915" transform="translate(247.94 168.663)"/><path class="e" d="M-225.6,268.4c7.382-26.234,15.817-48.383,25.027-65.717a88.313,88.313,0,0,1,12.7-19.208c8.865-9.239,18.05-9.081,26.848-4.185a49.036,49.036,0,0,1,7.259,5.054c10.145,8.608,19.942,21.8,29.156,39.245,9.13,17.155,17.663,38.791,26.722,59.223,10.708,24.183,21.235,50.912,32.931,68.363C-55.026,365.937-43.743,373-33.5,363.015a34.824,34.824,0,0,0,5.47-7.146c10.946-18.28,17.923-55.452,23.5-94.875,1.755-12.417,3.373-25.051,4.968-37.508,4.107-32.375,8.589-65.283,13.8-95.467,8.5-48.957,19.43-87.275,33.566-111.576,5.52-9.456,11.846-17.175,18.37-18.6C75.485-4.126,84.057,2.191,92.2,1.658A9.265,9.265,0,0,0,94.126,1.4c9.6-1.685,18.8-14.239,26.274-35.849,7.987-23.1,14.23-58.2,15.075-98.922" transform="translate(246.923 164.699)"/><path class="e" d="M-223.33,287.436c7.2-25.646,15.475-47.1,24.53-63.586a87.851,87.851,0,0,1,12.475-18.339c8.65-9.061,17.619-10.127,26.3-6.534a35.041,35.041,0,0,1,7.176,3.948c10.067,6.914,19.847,18.4,29.1,34.172,9.163,15.5,17.8,35.356,26.71,55,11.04,24.3,21.693,51.859,33.61,69.942,10.107,15.3,21.643,22.82,32.114,12.93a33.977,33.977,0,0,0,5.6-7.166c11.205-18.5,18.3-56.439,24.044-96.73,1.8-12.654,3.478-25.545,5.111-38.139,4.261-32.948,8.981-66.408,14.49-96.987C26.906,86.276,38.355,47.11,53.192,24.191c5.661-9,11.7-14.595,17.868-16.563C80.024,5.22,88.442,9.306,96.407,6.523a16.257,16.257,0,0,0,1.888-.77c9.4-4.53,18.16-19.62,25.01-43.094,7.325-24.972,12.7-60.427,13.038-99.928" transform="translate(245.906 160.9)"/><path class="e" d="M-221.06,306.523c7.015-25.059,15.134-45.821,24.033-61.453A89.2,89.2,0,0,1-184.8,227.6c8.429-8.864,17.189-11.094,25.739-8.9a34.274,34.274,0,0,1,7.132,2.7c9.987,5.276,19.745,15.1,29.034,29.236,9.2,13.878,17.95,31.921,26.7,50.774,11.332,24.38,22.146,52.787,34.289,71.5,10.289,15.793,22.079,23.827,32.771,13.977a34.082,34.082,0,0,0,5.713-7.205c11.465-18.695,18.7-57.426,24.6-98.428,1.86-12.891,3.582-26.018,5.271-38.83,4.416-33.559,9.384-67.534,15.18-98.507C31.1,93.539,43.086,53.327,58.614,32.006,64.193,24.267,70.044,19.318,76,17.3c8.616-2.764,16.88-.987,24.674-5.922.618-.395,1.231-.849,1.844-1.323,9.2-7.379,17.511-25,23.735-50.339,6.668-26.828,11.128-62.638,11.007-100.935" transform="translate(244.889 157.052)"/><path class="e" d="M-218.78,325.709c6.828-24.492,14.789-44.575,23.531-59.361a91.843,91.843,0,0,1,11.978-16.6c8.18-8.432,16.679-12.229,25.187-11.252a30.891,30.891,0,0,1,7.06,1.54c9.914,3.6,19.657,11.741,28.99,24.222,9.24,12.239,18.1,28.486,26.7,46.549,11.663,24.439,22.593,53.755,34.963,73.061,10.488,16.365,22.5,24.814,33.423,15.023a33.2,33.2,0,0,0,5.851-7.265C-9.368,372.732-2,333.25,4.061,291.439c1.9-13.128,3.682-26.492,5.432-39.482,4.576-34.093,9.765-68.659,15.87-100.027C35.3,100.86,47.823,59.4,64,39.841c5.489-6.488,11.161-10.8,16.913-12.851,8.28-3.139,16.377-3.692,24-10.936.6-.572,1.2-1.184,1.8-1.856,9-10.19,16.874-30.313,22.482-57.486,6.006-28.683,9.582-64.869,8.975-101.962" transform="translate(243.868 153.127)"/><path class="e" d="M-216.51,344.756c15.373-55.827,37.48-84.886,59.4-86.485S-113.5,281.21-94.477,320.14c11.961,24.479,23.045,54.663,35.642,74.64s27.467,28.822,40.052,8.765c15.754-25.091,23.735-86.761,31.3-142.135,12.436-91.2,29.68-185.466,56.9-213.853,13.562-14.134,28.383-10.186,41.493-29,18.177-26.1,30.271-98.152,28.151-167.8" transform="translate(242.851 149.24)"/></g><g transform="translate(-23.546 -149.14)"><path class="e" d="M-42.52,1082.5c-2.318-67.119,16.206-123.835,34.891-134.238S29.8,959.355,48.32,973.154s39.345,18.339,54.812-20.59c19.772-49.767,24.343-154.453,44.711-201.2,15.853-36.422,36.492-25.525,52.731,1.579,9.185,15.319,17,41.1,25.772,59.065,39.815,81.431,42.5,247.867,76.323,272.681,36.6,26.907,56.468-36.955,63.379-81.155,8.832-56.716,23.619-203.924-12.552-306.221-14.7-41.555-29.205-85.853-40.013-140.575-16.19-81.905-16.079-207.161,4.62-274.853,14.186-46.391,35.973-63.368,45.61-122.848,6.475-39.975,5.592-91.519,0-133.231S348.483-48.951,337.935-75.7" transform="translate(42.717 75.7)"/><path class="e" d="M-40.919,1082.7c-1.6-69.093,16.824-128.71,36.067-140.594,18.767-11.588,37.839,9.772,56.358,24.992,18.3,15.062,38.639,21.873,54.028-13.5,19.695-45.286,25.231-144.662,45.55-190.8,16.184-36.54,36.492-29.749,53.123-6.06,9.555,13.621,18.022,37.922,27.213,56.124,38.976,77.227,42.2,238.253,75.269,262.732,35.586,26.275,55.353-34.152,62.534-77.74,9.1-55.274,23.183-197.054-11-298.088-14.092-41.693-28.063-86.86-38.7-141.207-15.71-79.99-15.853-200.765,3.682-267.884,13.518-46.431,34.521-65.342,44.115-124.052,6.585-40.153,6.182-90.946,1.319-132.955-4.913-42.5-13.877-77.345-23.989-106.068" transform="translate(41.955 78.914)"/><path class="e" d="M-39.345,1082.841C-40.228,1011.872-21.9,949.293-2.1,935.948c18.883-12.713,38.247,8.43,56.766,25.111,18.083,16.286,37.883,25.387,53.25-6.455,19.612-40.785,26.081-135.008,46.405-180.353,16.488-36.817,36.514-34.033,53.509-13.7,9.936,11.844,19.043,34.724,28.659,53.182,38.087,73.2,41.862,228.62,74.214,252.684,34.56,25.663,54.2-31.329,61.662-74.206,9.345-53.735,22.758-190.263-9.428-290.191-13.5-41.87-26.931-87.827-37.391-141.878-15.235-78.036-15.627-194.408,2.76-260.876,12.845-46.371,33.053-67.2,42.608-125.138,6.7-40.311,6.773-90.413,2.605-132.7C369.267-1.7,361.053-38.4,351.344-69.12" transform="translate(41.22 82.11)"/><path class="e" d="M-37.8,1082.953c-.166-72.9,18.061-138.383,38.418-153.209,18.983-13.819,38.639,7.067,57.174,25.229,17.862,17.49,37.149,28.9,52.466.612,19.535-36.3,26.959-125.276,47.266-169.949,16.808-36.975,36.552-38.357,53.9-21.34,10.328,10.127,20.059,31.586,30.1,50.26,37.193,69.33,41.548,218.985,73.165,242.813,33.522,25.071,53.051-28.506,60.784-70.672,9.582-52.234,22.339-183.59-7.866-282.1-12.9-42.068-25.75-88.834-36.078-142.51C316.838,485.83,316.126,374,333.337,308.182c12.182-46.569,31.579-69.389,41.128-126.5,6.778-40.607,7.374-89.959,3.9-132.442-3.588-43.9-11.04-82.4-20.363-115.03" transform="translate(40.515 85.353)"/><path class="e" d="M-36.28,1083.124c.552-74.838,18.679-143.2,39.6-159.506C22.39,908.733,42.367,929.3,60.9,948.925,78.56,967.62,97.328,981.36,112.585,956.6c19.452-31.8,27.831-115.524,48.122-159.526,17.112-37.152,36.608-42.739,54.288-28.98,10.731,8.351,21.08,28.387,31.54,47.379,36.265,65.638,41.233,209.372,72.117,232.824,32.49,24.5,51.887-25.663,59.912-67.119,9.814-50.734,21.925-177.036-6.3-274.063-12.309-42.305-24.6-89.92-34.775-143.161-14.2-74.344-15.185-181.814.867-246.9C349.882,270.312,368.479,245.6,378,189.216c6.878-40.686,7.976-89.426,5.194-132.165A655.865,655.865,0,0,0,364.642-62.52" transform="translate(39.833 88.539)"/><path class="e" d="M-34.76,1083.217c1.275-76.753,19.319-147.958,40.775-165.824,19.17-15.951,39.456,4.3,57.986,25.426,17.432,19.879,35.7,36.067,50.9,14.746,19.391-27.183,28.7-105.772,48.983-149.123,17.454-37.31,36.668-47.181,54.68-36.6,11.134,6.534,22.079,25.229,32.981,44.378,35.327,62.066,40.919,199.738,71.062,222.855,31.463,23.886,50.744-22.86,59.062-63.605,10.035-49.234,21.527-170.581-4.742-265.989-11.719-42.6-23.448-90.946-33.456-143.813-13.706-72.449-14.97-175.694-.066-239.931,10.847-46.806,28.637-73.377,38.12-128.908,6.988-40.864,8.605-88.972,6.486-131.909-2.241-45.542-8.28-87.531-16.736-124.111" transform="translate(39.152 91.782)"/><path class="e" d="M-33.24,1083.368c1.993-78.687,19.916-152.736,41.951-172.121,19.27-16.977,39.859,2.882,58.394,25.545,17.216,21.024,34.963,39.6,50.126,21.715,19.319-22.663,29.586-96,49.839-138.7,17.774-37.508,36.74-51.682,55.066-44.24,11.548,4.7,23.095,22.09,34.427,41.456,34.344,58.65,40.6,190.184,70.014,212.965,30.42,23.354,49.574-20.077,58.168-60.072,10.256-47.773,21.124-164.284-3.179-257.955-11.749-45.094-22.5-93.4-32.148-144.464-13.248-70.515-14.76-169.436-1-232.943,10.184-47.023,27.2-75.41,36.646-130.152,7.087-41.041,9.218-88.558,7.777-131.632-1.557-46.431-6.861-90.137-14.9-128.671" transform="translate(38.471 94.987)"/><path class="e" d="M-31.72,1083.5C-29,1002.9-11.186,926.026,11.407,905.061c19.375-17.984,40.295,1.461,58.8,25.663,17,22.189,34.223,43.154,49.342,28.881,19.231-18.162,30.464-86.248,50.7-128.316,18.1-37.626,36.817-56.262,55.458-51.879,11.956,2.8,24.094,18.971,35.879,38.495,33.329,55.275,40.295,180.491,68.965,202.937,29.388,22.682,48.409-17.234,57.3-56.538,10.488-46.293,20.749-158.105-1.612-249.9C375.1,668.445,364.8,619.966,355.4,569.268c-12.729-68.6-14.556-163.336-1.943-225.935,9.522-47.24,25.739-77.4,35.156-131.356,6.777-39.341,9.946-85.275,9.064-131.376-.856-47.378-5.459-92.782-13.11-133.192" transform="translate(37.79 98.211)"/><path class="e" d="M-30.2,1083.67c3.422-82.537,21.152-162.211,44.3-184.795,19.474-18.971,40.67,0,59.211,25.762,16.786,23.294,33.5,46.687,48.575,35.928,19.143-13.66,31.347-76.437,51.555-117.853,18.425-37.764,36.9-60.881,55.844-59.519,12.376.888,25.1,15.793,37.309,35.534,32.313,52.116,39.975,170.858,67.894,192.948,28.355,22.11,47.244-14.43,56.429-52.985,10.675-44.851,20.4-152-.055-241.865-9.936-43.746-20-93.967-29.52-145.767-12.243-66.685-14.352-157.3-2.881-218.946,8.832-47.516,24.287-79.418,33.671-132.6,6.9-39.238,10.5-84.749,10.361-131.1C402.277,39.694,398.372-7.9,391.2-49.32" transform="translate(37.109 101.397)"/><path class="e" d="M-28.68,1083.772C-24.529,999.321-6.9,916.863,16.8,892.72c19.579-19.958,41.079-1.441,59.614,25.88,16.56,24.4,32.76,50.2,47.78,43,19.066-9.16,32.23-66.665,52.438-107.45,18.767-37.9,36.983-65.559,56.236-67.119,12.789-1.066,26.087,12.792,38.749,32.632,31.281,49.017,39.654,161.224,66.856,182.978,27.323,21.5,46.069-11.627,55.557-49.471,10.88-43.43,20.07-146.221,1.512-233.811-9.384-44.239-18.867-94.954-28.212-146.418-11.757-64.731-14.181-151.314-3.82-211.958,8.175-47.832,22.83-81.392,32.17-133.8,7.03-39.2,11.049-84.325,11.652-130.843.538-49.663-2.75-98.9-9.505-142.332" transform="translate(36.428 104.63)"/><path class="e" d="M-27.16,1083.952c4.868-86.386,22.4-171.608,46.654-197.409,19.684-20.906,41.493-2.9,60.028,25.979,16.366,25.505,32.015,53.755,47,50.063,18.977-4.659,33.119-56.854,53.272-97.027,19.082-38.021,37.06-70.278,56.628-74.779,13.2-3.04,27.075,9.753,40.184,29.612,30.243,46.016,39.345,151.61,65.813,173.029,26.285,20.905,44.887-8.864,54.68-45.937,11.084-41.949,19.772-140.536,3.075-225.757-8.777-44.832-17.719-95.961-26.9-147.07-11.277-62.816-14.015-145.392-4.758-204.97,7.49-48.187,21.378-83.386,30.674-135.028a878.312,878.312,0,0,0,12.944-130.566C413.445,53.549,410.788,2.7,404.464-42.74" transform="translate(35.747 107.806)"/><path class="e" d="M-25.64,1084.016c5.592-88.242,23.023-176.286,47.824-203.687,19.789-21.873,41.9-4.4,60.442,26.1,16.151,26.571,31.286,57.248,46.212,57.13,18.894-.177,34-47.062,54.133-86.623,19.413-38.139,37.132-75.015,57.014-82.4,13.617-5.054,28.068,6.732,41.631,26.749,29.189,43.095,39.025,141.977,64.759,163.04,25.259,20.313,43.706-6.061,53.807-42.384,11.277-40.528,19.518-134.988,4.642-217.722-8.175-45.4-16.56-96.948-25.59-147.721-10.8-60.861-13.866-139.529-5.7-197.982,6.795-48.582,19.927-85.379,29.183-136.212a948.59,948.59,0,0,0,14.236-130.29C419.033,60.588,417,8.112,411.1-39.36" transform="translate(35.066 111.098)"/><path class="e" d="M-24.12,1084.216C-17.811,993.96-.467,903.271,24.885,874.173c19.871-22.8,42.321-5.922,60.851,26.216,15.941,27.637,30.552,60.762,45.434,64.178,18.812,4.323,34.885-37.231,54.989-76.18,19.744-38.258,37.209-79.852,57.406-90.058,14.026-7.087,29.045,3.751,43.055,23.827,28.124,40.232,38.7,132.54,63.7,153.071,24.216,19.9,42.5-3.316,52.941-38.85,11.465-39.126,19.319-129.6,6.2-209.688-7.546-46.154-15.456-97.935-24.287-148.373-10.322-58.907-13.739-133.7-6.624-190.973,6.072-49.017,18.475-87.354,27.688-137.456a1030.775,1030.775,0,0,0,15.533-130.053A966.2,966.2,0,0,0,417.721-36.12" transform="translate(34.385 114.255)"/><path class="e" d="M-22.6,1084.289c7.027-92.171,24.287-185.565,50.181-216.3,20-23.689,42.735-7.442,61.27,26.315,15.737,28.7,29.807,64.3,44.65,71.265,18.729,8.785,35.774-27.42,55.85-65.777s37.275-84.669,57.793-97.7c14.434-9.14,30.028.829,44.512,20.886C318.7,860.486,330.04,945.905,354.317,966.1c23.183,19.287,41.327-.573,52.063-35.316,11.652-37.745,19.132-124.368,7.766-201.634-6.916-46.944-14.313-98.922-22.979-149.024-9.847-56.972-13.628-127.961-7.573-183.985,5.354-49.51,17.029-89.347,26.2-138.7A1117.34,1117.34,0,0,0,426.61,127.664,985.145,985.145,0,0,0,424.375-32.77" transform="translate(33.704 117.518)"/><path class="e" d="M-21.07,1084.43c7.766-94.1,24.906-190.2,51.373-222.658,20.114-24.637,43.154-8.982,61.668,26.433,15.538,29.73,29.084,67.79,43.872,78.312,18.646,13.266,36.657-17.569,56.705-55.274,20.423-38.456,37.336-89.525,58.185-105.318,14.837-11.252,31-2.073,45.953,17.945,25.982,34.764,38.087,113.293,61.607,133.152,22.146,18.675,40.14,2.152,51.191-31.8,11.84-36.343,19.021-119.2,9.328-193.58-6.226-47.773-13.165-99.889-21.654-149.676-9.384-55-13.551-122.236-8.506-177,4.6-50,15.577-91.321,24.7-139.9,7.954-42.344,14.55-85.281,18.111-129.52a1002.265,1002.265,0,0,0-.42-165.014" transform="translate(33.019 120.732)"/><path class="e" d="M-19.55,1084.611c8.462-96.02,25.535-194.8,52.527-228.995,20.225-25.544,43.607-10.541,62.076,26.552,15.334,30.736,28.35,71.3,43.088,85.379,18.563,17.767,37.535-7.738,57.566-44.95,20.744-38.554,37.391-94.4,58.571-112.957,15.24-13.345,31.971-4.9,47.4,15,24.9,32.158,37.75,103.659,60.553,123.183,21.113,18.083,38.942,4.876,50.319-28.249,12.022-34.981,18.972-114.181,10.9-185.565-5.52-48.681-12.033-100.856-20.346-150.307-8.909-53.044-13.5-116.471-9.444-170.009,3.825-50.537,14.131-93.315,23.183-141.128,8.07-42.5,15.251-84.886,19.408-129.244A1016.3,1016.3,0,0,0,437.631-26.21" transform="translate(32.338 123.908)"/><path class="e" d="M-18,1084.723C-8.837,986.788,8.153,885.34,35.686,849.451c20.335-26.472,44-12.141,62.485,26.631,15.141,31.763,27.6,74.818,42.31,92.447,18.48,22.189,38.44,2.112,58.422-34.527,21.08-38.613,37.447-99.3,58.963-120.577,15.632-15.477,32.931-7.679,48.84,12.061,23.813,29.612,37.436,94.026,59.5,113.214,20.076,17.471,37.745,7.561,49.447-24.715,12.2-33.658,18.977-109.207,12.453-177.491-4.742-49.648-10.9-101.844-19.027-150.978-8.445-51.07-13.474-110.826-10.388-163.02,3.019-51.07,12.7-95.27,21.715-142.332,8.18-42.66,15.952-84.353,20.694-128.987A1027.162,1027.162,0,0,0,444.3-22.9" transform="translate(31.643 127.132)"/><path class="e" d="M-16.51,1084.835c9.9-99.869,26.81-203.983,54.878-241.53,20.423-27.361,44.435-13.72,62.893,26.749,14.942,32.77,26.893,78.194,41.526,99.514,18.42,26.512,39.334,11.943,59.283-24.1,21.417-38.712,37.491-104.232,59.349-128.316,16.008-17.609,33.892-10.364,50.28,9.14,22.731,27.045,37.138,84.215,58.455,103.245,19.055,16.721,36.547,10.246,48.575-21.182C431.1,876.016,437.789,804.1,432.75,738.9c-4.082-53.029-10.036-103.983-17.719-151.63-7.982-49.076-13.479-105.1-11.327-155.953,2.208-51.6,11.238-97.244,20.219-143.556,8.28-42.8,16.659-83.859,21.991-128.73,6.725-56.31,8.474-118.629,5.012-178.6" transform="translate(30.976 130.376)"/><path class="e" d="M-15,1084.977C-4.374,983.153,12.45,876.414,41.059,837.07c20.561-28.249,44.871-15.319,63.3,26.867,14.755,33.757,26.164,81.727,40.747,106.6,18.337,31.013,40.223,21.814,60.166-13.68C227.028,918.087,242.81,847.71,265.016,821c16.41-19.741,34.841-12.989,51.721,6.179,21.638,24.6,36.817,74.6,57.406,93.3,18.022,16.128,35.327,12.891,47.7-17.648,12.552-31.033,19.215-99.237,15.582-161.421-3.227-53.489-8.762-104.857-16.4-152.262-7.524-47.1-13.507-99.376-12.265-149.044,1.3-52.1,9.8-99.2,18.729-144.78,8.412-42.936,17.365-83.326,23.283-128.454,7.5-57.073,9.879-121.035,6.823-183.136" transform="translate(30.299 133.59)"/><path class="e" d="M-13.47,1085.148c11.338-103.739,28.085-213.2,57.23-254.165,20.677-29.118,45.307-16.938,63.71,26.966,14.567,34.744,25.43,85.261,39.964,113.649,18.26,35.534,41.134,31.8,61-3.277,22.112-38.672,37.568-114.083,60.128-143.5,16.8-21.912,35.791-15.5,53.167,3.257,20.539,22.169,36.5,65.027,56.352,83.307,16.985,15.536,34.135,15.536,46.825-14.115s19.43-94.105,17.15-153.348a1329.318,1329.318,0,0,0-15.1-152.933c-7.071-45.108-13.562-93.552-13.2-142.036.392-52.57,8.379-101.113,17.233-146.083,8.556-43.015,18.077-82.912,24.574-128.2C463.835,116.86,466.855,51.25,464.2-13" transform="translate(29.614 136.776)"/><path class="e" d="M-11.95,1085.289C.105,979.577,16.792,867.725,46.455,824.709c20.8-29.888,45.748-18.576,64.118,27.085,14.352,35.731,24.7,88.834,39.191,120.7,18.177,40,42.017,41.614,61.855,7.146,22.444-38.771,37.6-119.018,60.52-151.136,17.178-24.064,36.723-17.866,54.6.336,19.469,19.741,36.188,55.275,55.3,73.338C398,917.116,414.976,920.314,428,891.591c12.9-28.447,19.7-88.834,18.707-145.313-.938-53.419-6.425-105.614-13.8-153.565-6.624-43.134-13.639-87.669-14.142-135.067-.552-52.945,6.927-103.087,15.743-147.208,8.666-43.193,18.768-82.26,25.866-127.921,9.048-58.534,12.708-125.779,10.46-192.178" transform="translate(28.933 140.029)"/><path class="e" d="M-10.43,1085.371C2.348,977.783,18.941,863.188,49.151,818.593c20.915-30.855,46.2-20.215,64.527,27.2,14.2,36.7,23.967,92.289,38.413,127.7,18.1,44.476,42.9,51.425,62.716,17.569C237.576,952.16,252.43,867.1,275.713,832.293c17.559-26.255,37.662-20.116,56.048-2.625s35.879,45.74,54.249,63.388c14.9,14.332,31.728,20.748,45.086-7.047,13.076-27.2,20.031-83.168,20.274-137.258s-5.327-106.6-12.475-154.236c-6.166-41.12-13.739-81.648-15.08-128.059-1.535-53.3,5.476-105.081,14.247-148.432s19.5-81.708,27.158-127.664C475.035,131.093,479.326,62.2,477.474-6.36" transform="translate(28.252 143.243)"/></g><g transform="translate(199.04 -568.871)"><path class="e" d="M374.589,1637.79c-16.085-35.533-16.841-122.769-7.408-181.379s25.871-97.4,40.477-140.358,28.648-98.191,29.851-165.685c1.546-86.288-18.409-164.639-15.853-250.71,1.993-67,17.3-117.715,33.384-146.083,9.091-16.01,19.6-21.616,29.018-34.843,42.713-59.8,80.667,36.994,107.267-41.634,28.8-85.241,27.329-180.649,22.008-227.652-6.817-60.23-29.647-193.6-74.606-156.861-18.26,14.924-36.983,27.637-55.7,23.472-28-6.3-55.22-85.1-57.009-185.189-1.2-68.6,8.738-139.963,1.8-204.081-4.653-43.114-16.444-72.883-29.018-83.524s-25.838-4.244-38.269,8.37" transform="translate(-360.53 411.257)"/><path class="e" d="M377.008,1641.348c-16.052-38.791-17.509-127.546-8.042-188.624,9.246-59.618,25.833-99.337,40.753-141.424,14.743-41.574,28.957-93.927,30.911-159.072,2.467-83.267-15.72-160.968-13.043-246.485,2.175-68.007,16.377-120.419,31.96-151.887,8.953-18.1,19.551-26.473,29.255-40.706,41.244-60.249,78.349,31.684,104.413-45.207,28.019-82.734,27.229-175.694,22.234-223.072C609.112,384.9,587.027,256.8,543.575,288.7c-17.89,13.167-36.47,23.906-55,19.484-27.285-6.317-53.686-81.609-56.071-178.063-1.656-66.764,7.38-137.16.6-200.686-4.62-43.43-15.947-74.206-28.151-86.978-12.315-12.871-25.524-9.732-38.12.494" transform="translate(-361.674 407.462)"/><path class="e" d="M378.949,1645.436c-16.008-42.009-18.182-132.264-8.683-195.849,9.058-60.6,25.794-101.33,41.035-142.51,14.876-40.193,29.255-89.683,31.954-152.459,3.395-80.227-13.082-157.3-10.239-242.359,2.313-69.093,15.456-123.1,30.541-157.75,8.832-20.254,19.5-31.329,29.548-46.549,39.82-60.368,76.052,26.532,101.565-48.543C621.916,579.19,621.8,488.7,617.125,441.063c-5.851-59.7-27.207-182.643-69.136-155.479-17.575,11.371-36.011,20.037-54.343,15.339-26.55-6.436-52.163-78.233-55.138-171.094-2.081-64.948,6.072-134.357-.6-197.291-4.587-43.924-15.456-75.529-27.285-90.413-12.066-15.181-25.2-15.26-37.977-7.4" transform="translate(-362.356 403.137)"/><path class="e" d="M380.865,1650c-16.008-45.207-18.845-137.022-9.318-203.075,8.881-61.552,25.75-103.284,41.311-143.556,15-38.87,29.575-85.439,33.009-145.866,4.322-77.207-10.416-153.643-7.43-238.233,2.473-70.021,14.545-125.907,29.117-163.613,8.677-22.445,19.446-36.165,29.807-52.412,38.413-60.249,73.756,21.379,98.75-51.84,26.468-77.74,27.047-165.824,22.681-213.735-5.382-59.42-26.015-177.273-66.409-154.788-17.244,9.594-35.5,16.069-53.658,11.292-25.822-6.811-50.645-74.917-54.2-164.106C442,66.9,449.179-1.442,442.721-63.823c-4.587-44.279-14.975-76.99-26.418-93.848-11.818-17.51-24.889-20.787-37.828-15.3" transform="translate(-363.02 398.313)"/><path class="e" d="M382.8,1655.108c-15.963-48.425-19.507-141.76-9.936-210.3,8.7-62.5,25.706-105.3,41.592-144.641,15.13-37.508,29.884-81.195,34.052-139.253,5.255-74.166-7.728-150.031-4.62-234.088,2.639-71.067,13.623-128.829,27.7-169.5,8.539-24.676,19.386-40.963,30.067-58.275,37.022-59.973,71.465,16.227,95.924-55.156,25.689-75.213,26.92-160.75,22.907-209.076-4.913-59.124-24.839-172-63.677-154.117-16.929,7.9-35.007,12.239-52.99,7.225-25.093-6.988-49.127-71.58-53.261-157.118-2.964-61.355,3.312-128.671-3-190.48C443-104.339,433.059-137.938,422-156.949c-11.592-19.879-24.574-26.295-37.684-23.2" transform="translate(-363.692 392.971)"/><path class="e" d="M384.7,1660.6c-15.93-51.642-20.158-146.478-10.593-217.525,8.539-63.447,25.656-107.292,41.868-145.728,15.257-36.125,30.227-76.89,35.106-132.659,6.221-71.067-5.067-146.28-1.81-229.942,2.8-72.035,12.7-131.79,26.28-175.358,8.4-26.927,19.319-45.76,30.359-64.138C541.558,635.733,575.08,706.327,599,636.78c24.911-72.706,26.81-155.755,23.128-204.417-4.416-58.828-23.7-166.85-60.939-153.446-16.626,5.922-34.51,8.41-52.306,3.159-24.37-7.166-47.647-68.284-52.328-150.031-3.411-59.6,1.954-125.868-4.206-187.085-4.532-45.088-14-79.714-24.679-100.679-11.332-22.307-24.26-31.822-37.535-31.092" transform="translate(-364.343 387.161)"/><path class="e" d="M386.607,1666.63c-15.9-54.86-20.815-151.2-11.233-224.77,8.374-64.355,25.6-109.305,42.15-146.773,15.367-34.8,30.536-72.647,36.155-126.066,7.176-68.027-2.39-142.608.994-225.816,2.975-73.041,11.757-134.811,24.839-181.221,8.28-29.236,19.281-50.537,30.6-69.982,34.284-58.966,66.873,5.922,90.26-61.789,24.138-70.218,26.694-150.761,23.354-199.8-3.985-58.492-22.565-161.875-58.207-152.735a94.437,94.437,0,0,1-51.627-.908c-23.647-7.344-46.173-65.027-51.39-143.122-3.864-57.861.6-123.065-5.409-183.709-4.5-45.4-13.524-81.175-23.813-104.133-11.089-24.755-23.94-37.35-37.391-39.008" transform="translate(-364.992 380.976)"/><path class="e" d="M388.543,1672.559c-15.87-58.057-21.456-155.952-11.873-231.995,8.225-65.283,25.551-111.339,42.437-147.86,15.483-33.559,30.845-68.383,37.2-119.452,8.087-64.967.293-138.936,3.8-221.69,3.141-74.009,10.808-137.871,23.437-187.085a300.681,300.681,0,0,1,30.861-75.844c32.937-58.255,64.582.77,87.429-65.145,23.36-67.711,26.578-145.747,23.581-195.139-3.533-58.176-21.947-173.128-55.48-152-15.814,9.87-33.511.73-50.943-4.975-22.924-7.482-44.711-61.75-50.457-136.114-4.333-56.143-.745-120.262-6.624-180.313-4.33-43.533-12.354-81.14-22.952-107.568-10.841-27.242-23.619-42.858-37.242-46.9" transform="translate(-365.652 374.809)"/><path class="e" d="M390.405,1678.508c-15.842-61.2-22.079-160.593-12.514-239.241,8.07-66.112,25.491-113.352,42.74-148.905,15.594-32.2,31.16-64.138,38.258-112.859,9.014-61.927,2.975-135.284,6.624-217.545,3.312-75.015,9.847-141.009,22.019-192.967a313.955,313.955,0,0,1,31.121-81.708c31.6-57.426,62.28-4.383,84.6-68.422,22.582-65.145,26.451-140.713,23.8-190.48-3.08-57.861-20.777-169.772-52.742-151.393-15.577,8.943-33.014-3.08-50.264-9.022-22.2-7.64-43.281-58.512-49.524-129.145-4.808-54.426-2.092-117.439-7.805-176.9-4.227-43.815-11.892-82.35-22.079-111-10.753-29.927-23.575-48.866-37.1-54.8" transform="translate(-366.278 368.624)"/><path class="e" d="M392.284,1684.476c-15.8-64.473-22.731-165.251-13.148-246.446,7.921-67.119,25.424-115.425,42.994-150.031,15.7-30.914,31.463-59.874,39.3-106.246,9.936-58.887,5.663-131.613,9.422-213.419,3.489-76.022,8.882-144.109,20.6-198.83,7.783-36.3,19.132-64.711,31.386-87.571,30.282-56.5,59.984-9.515,81.765-71.718,21.8-62.7,26.33-135.7,24.028-185.861-2.638-57.505-19.59-166.159-50.01-150.7-15.367,7.9-32.512-6.909-49.585-13.088-21.478-7.778-41.862-55.275-48.575-122.137-5.3-52.748-3.439-114.635-9.008-173.5-4.132-44.179-11.451-83.675-21.218-114.5-10.477-32.616-23.259-54.306-36.95-62.7" transform="translate(-366.903 362.4)"/><path class="e" d="M394.165,1690.346c-15.776-67.691-23.365-169.929-13.8-253.69,7.772-67.968,25.358-117.478,43.27-151.057,15.809-29.611,31.778-55.59,40.356-99.633,10.874-55.827,8.357-127.921,12.232-209.254,3.665-76.989,7.9-147.326,19.176-204.693,7.612-38.712,19.088-69.37,31.651-93.434,28.974-55.472,57.688-14.668,78.934-75.016,21.031-60.19,26.2-130.665,24.249-181.2C628.024,365.12,611.85,259.96,582.96,272.337c-15.2,6.515-32.015-10.719-48.906-17.155-20.755-7.9-40.466-52.017-47.653-115.149-5.807-51.07-4.78-111.832-10.206-170.107-4.388-47.082-11.547-87.413-20.352-117.893-10.2-35.3-22.942-59.74-36.806-70.574" transform="translate(-367.526 356.292)"/><path class="e" d="M396.041,1696.3C380.3,1625.4,372.052,1521.7,381.618,1435.389c7.628-68.856,25.292-119.571,43.552-152.124,15.914-28.387,32.081-51.326,41.4-93.04,11.8-52.786,11.04-124.249,15.036-205.167,3.864-78,6.911-150.524,17.757-210.557,7.43-41.12,19.054-74.009,31.916-99.277,27.677-54.366,55.392-19.741,76.108-78.371,20.247-57.683,26.054-125.631,24.469-176.543-1.766-56.834-17.194-138.976-44.545-149.34-15.025-5.705-31.513-14.529-48.221-21.222-20.031-8.035-39.1-48.76-46.714-108.141C486.037,92.257,486.247,32.581,480.959-25.1c-4.35-47.477-11.04-89.031-19.479-121.328-9.905-38-22.613-65.2-36.657-78.47" transform="translate(-368.15 350.097)"/><path class="e" d="M397.917,1702.243c-15.715-74.126-24.613-179.267-15.064-268.16,7.49-69.745,25.22-121.663,43.833-153.189,16.008-27.124,32.385-47.1,42.453-86.426,12.7-49.747,13.739-120.577,17.846-201.022,4.029-78.963,5.906-153.742,16.339-216.439,7.242-43.548,19.016-78.628,32.175-105.14,26.39-53.3,53.128-24.834,73.276-81.688,19.5-55.018,25.916-120.6,24.7-171.9-1.347-56.459-16.156-134.969-41.813-148.649-14.788-7.9-31.016-18.32-47.542-25.288-19.32-8.133-37.75-45.4-45.782-101.152-6.872-47.655-7.468-106.226-12.613-163.3C481.4-68,475.2-110.8,467.108-144.874c-9.61-40.69-22.283-70.665-36.514-86.366" transform="translate(-368.766 343.921)"/><path class="e" d="M399.779,1708.183c-15.682-77.325-25.231-183.926-15.7-275.386,7.363-70.633,25.154-123.8,44.115-154.276,16.112-25.9,32.694-42.838,43.5-79.832,13.651-46.687,16.438-116.886,20.655-196.877s4.9-156.96,14.9-222.3c7.049-45.977,18.988-83.188,32.44-111,25.115-51.938,50.832-29.986,70.444-84.886,18.723-52.531,25.767-115.583,24.917-167.265-.922-56.124-15.113-131.238-39.075-148.057-14.556-10.147-30.519-22.09-46.869-29.335-18.58-8.232-36.431-42.167-44.843-94.164-7.43-45.937-8.8-103.423-13.8-159.9-4.283-48.306-10-92.328-17.746-128.2-9.311-43.374-21.947-76.131-36.37-94.283" transform="translate(-369.375 337.745)"/><path class="e" d="M401.646,1714.229c-15.654-80.542-25.844-188.585-16.344-282.611,7.231-71.521,25.077-125.947,44.4-155.341,16.212-24.7,33-38.594,44.551-73.239,14.572-43.667,19.137-113.194,23.465-192.75,4.416-80.937,3.864-160.158,13.5-228.165,6.845-48.4,18.972-87.709,32.7-116.866,23.857-50.635,48.541-35.139,67.618-88.3,17.945-50.024,25.617-110.549,25.143-162.606-.508-55.788-14.065-127.7-36.348-147.287-14.313-12.693-30.017-25.979-46.185-33.52-17.862-8.311-35.128-38.791-43.9-87.156-8.015-44.16-10.146-100.679-15.014-156.506-4.25-48.7-9.467-93.986-16.88-131.632-9-46.048-21.6-81.588-36.221-102.179" transform="translate(-369.984 331.56)"/><path class="e" d="M403.5,1720.049c-15.621-83.74-26.451-193.223-16.979-289.835,7.1-72.39,25-128.079,44.672-156.407,16.311-23.492,33.3-34.35,45.6-66.626,15.494-40.646,21.836-109.523,26.269-188.6,4.6-81.984,2.854-163.4,12.077-234.048,6.624-50.833,18.961-92.19,32.964-122.709,22.631-49.352,46.245-40.311,64.786-91.637,17.167-47.516,25.457-105.495,25.391-157.927-.1-55.413-13-124.368-33.616-146.6-14.064-15.141-29.52-29.611-45.505-37.508-17.112-8.39-33.853-35.4-42.972-80.168-8.638-42.384-11.5-97.856-16.234-153.11-4.212-49.115-8.931-95.664-16.008-135.067-8.693-48.722-21.255-87.051-36.078-110.075" transform="translate(-370.588 325.384)"/><path class="e" d="M405.366,1725.989c-15.594-86.959-27.047-197.883-17.619-297.061,6.972-73.259,24.928-130.29,44.954-157.493,16.4-22.287,33.6-30.1,46.654-60.012,16.416-37.626,24.541-105.831,29.078-184.479,4.786-82.912,1.816-166.593,10.653-239.911,6.425-53.3,18.961-96.612,33.229-128.572,21.367-47.872,43.943-45.4,61.955-94.934,16.388-45.029,25.3-100.481,25.59-153.328.309-55.077-11.906-121.328-30.878-145.925-13.8-17.885-29.023-33.4-44.827-41.456-16.416-8.528-32.595-31.961-42.011-73.259C512.881,109.15,509.3,54.527,504.7-.136c-4.167-49.53-8.385-97.323-15.141-138.5-8.379-51.38-20.9-92.5-35.934-117.972" transform="translate(-371.192 319.208)"/><path class="e" d="M407.218,1731.928c-15.566-90.176-27.66-202.5-18.26-304.306,6.85-74.127,24.839-132.442,45.23-158.539,16.5-21.142,33.9-25.9,47.7-53.419,17.316-34.724,27.246-102.139,31.883-180.353,4.968-83.938.778-169.772,9.24-245.774,6.2-55.689,18.972-100.975,33.489-134.435,20.136-46.411,41.62-50.734,59.123-98.251,15.588-42.64,25.132-95.408,25.822-148.708.707-54.761-10.775-118.446-28.151-145.254-14.117-21.854-28.957-37.171-44.159-45.582-15.682-8.548-31.336-28.289-41.084-66.152-9.88-38.4-14.147-92.249-18.618-146.3-4.129-49.944-7.838-98.981-14.274-141.937-8.06-54.025-20.547-97.945-35.785-125.868" transform="translate(-371.786 313.033)"/><path class="e" d="M409.074,1737.925c-15.533-93.395-28.256-207.161-18.894-311.531,6.723-75.016,24.767-134.672,45.511-159.625,16.6-19.978,34.223-21.715,48.751-46.806,18.249-31.684,29.956-98.468,34.7-176.227,5.178-84.886-.276-172.99,7.816-251.637,5.973-58.117,19.01-105.3,33.748-140.3,18.916-44.91,39.323-55.886,56.3-101.567,14.8-40.133,24.955-90.433,26.037-144.109,1.1-54.426-9.588-115.721-25.391-144.543-13.68-24.517-28.343-41.274-43.463-49.668-14.981-8.548-30.116-24.6-40.162-59.223-10.543-36.284-15.456-89.466-19.822-142.9C510.12-40.573,506.924-90.892,500.8-135.586c-7.742-56.658-20.191-103.377-35.642-133.764" transform="translate(-372.384 306.799)"/><path class="e" d="M410.913,1743.815c-15.505-96.592-28.852-211.8-19.535-318.776,6.624-75.864,24.69-136.9,45.815-160.691,16.692-18.813,34.51-17.471,49.8-40.193,19.176-28.664,32.705-94.756,37.5-172.081,5.426-85.873-1.325-176.187,6.4-257.52,5.752-60.545,19.049-109.463,34.019-146.083,17.708-43.43,37.027-61.059,53.46-104.883,14.009-37.705,24.779-85.577,26.241-139.45s-8.341-113.115-22.681-143.872c-12.7-27.3-27.538-44.575-42.784-53.735-14.263-8.548-28.885-20.787-39.218-52.195-11.211-34.014-16.786-86.682-21.02-139.489-4.018-50.813-6.723-102.278-12.547-148.807-7.414-59.3-19.823-108.832-35.493-141.68" transform="translate(-372.97 300.671)"/><path class="e" d="M412.769,1749.724c-15.456-99.81-29.393-216.4-20.175-326,6.524-76.713,24.618-139.154,46.074-161.757,16.8-17.767,34.819-13.246,50.854-33.559,20.1-25.664,35.393-91.045,40.295-167.936,5.608-86.86-2.385-179.366,4.968-263.383,5.52-62.974,19.115-113.569,34.284-152.005,16.515-41.851,34.731-66.191,50.628-108.2,13.248-35.119,24.591-80.444,26.5-134.732,1.877-53.794-7-110.549-19.949-143.2C614.011,228.1,599.2,210.7,584.138,201.169c-13.546-8.568-27.649-16.9-38.3-45.207-11.884-31.585-18.127-83.879-22.217-136.094-3.985-51.208-6.16-103.916-11.68-152.262-7.086-61.9-19.447-114.228-35.327-149.557" transform="translate(-373.572 294.525)"/><path class="e" d="M414.6,1755.693c-15.456-103.027-30.022-221.1-20.815-333.246,6.375-77.621,24.541-141.424,46.367-162.823,16.891-16.583,35.128-8.982,51.886-27.005,21.03-22.584,38.087-87.354,43.115-163.849,5.79-87.847-3.444-182.524,3.56-269.246,5.277-65.382,19.209-117.577,34.543-157.927s32.429-71.245,47.8-111.418a406.487,406.487,0,0,0,26.71-130.093c2.263-53.5-5.575-107.923-17.211-142.51s-26.528-51.9-41.432-61.848c-12.828-8.568-26.407-12.851-37.358-38.2-12.563-29.059-19.474-81.1-23.421-132.7s-5.6-105.535-10.813-155.7c-6.764-64.513-19.092-119.657-35.2-157.453" transform="translate(-374.142 288.32)"/></g></g></g></g></g></g></svg>