<svg xmlns="http://www.w3.org/2000/svg" xmlns:xlink="http://www.w3.org/1999/xlink" width="1920" height="1526" viewBox="0 0 1920 1526"><defs><style>.a,.f{fill:none;stroke:#fff;stroke-width:2px;}.b{fill:#f6f6f6;}.c{opacity:0.559;}.d{fill:#ececec;opacity:0.5;}.e{clip-path:url(#a);}.f{stroke-miterlimit:10;}</style><clipPath id="a"><rect class="a" width="1920" height="1526"/></clipPath></defs><g transform="translate(0 -3498)"><g transform="translate(0 2272)"><g transform="translate(0 1226)"><rect class="b" width="1920" height="1526"/><g class="c"><rect class="d" width="1919" height="1526" transform="translate(1)"/><g class="e"><g transform="translate(-395.183 -494.936)"><path class="f" d="M1333.345-52.3A2339.269,2339.269,0,0,1,1275.2,180.65c-10.241,33.859-21.814,68.145-41.759,95.195-51.027,69.152-140.305,71.289-216.5,56.268a791.023,791.023,0,0,1-204.467-70.832C747.6,228.431,684.843,186.024,615.331,172.1s-150.367,8.549-187.825,79.655c-22.275,42.377-25.834,95.989-17.129,144.93S439.053,490.629,461.2,533.1c25.373,48.6,54.816,97.851,58.631,154.913,3.943,59.108-23.427,119.559-67.055,148.013-62.036,40.484-137.975,15.082-207.565,0-88.382-19.2-183.191-19.051-263.943,27.935S-161.9,1013.012-153.609,1119.687" transform="translate(154.349 387.559)"/><path class="f" d="M1314.169-57.53a2185.941,2185.941,0,0,1-57.095,227.546c-10.241,33.034-21.532,66.435-40.965,92.936-49.7,67.717-136.081,71.442-210.176,58.558q-26.4-4.58-52.486-11.113a769.4,769.4,0,0,1-146.783-53.063c-63.393-30.531-124.841-70.221-192.792-82.952s-144.555,10.533-184.138,76.754a218.841,218.841,0,0,0-29.341,80.693,262.931,262.931,0,0,0-1.741,60.6q1.134,14.08,3.61,27.936c6.81,37.37,21.3,73.946,37.15,108.72,1.562,3.45,3.149,6.869,4.737,10.32,24.784,53.337,50.95,107.9,52.384,167.584,1.383,57.459-24.041,116.017-66.568,143.953-60.449,39.935-134.16,17.067-201.471,4.305-5.3-1.008-10.625-1.954-15.976-2.778-80.8-12.884-165.294-7.633-237.392,36.82-76.809,47.384-135.569,147.25-126.275,250.9" transform="translate(157.831 376.821)"/><path class="f" d="M1294.93-62.76a2054.373,2054.373,0,0,1-56.1,222.142c-10.062,32.21-21.25,64.787-40.2,90.707-48.262,66.252-131.882,71.534-203.852,60.787q-25.6-3.847-51.053-9.556a740.308,740.308,0,0,1-143.07-47.994c-61.909-28-122.05-65.031-188.388-76.663S473.095,189.211,431.9,250.486c-16.642,24.73-30.212,49.124-37.457,77.243a246.373,246.373,0,0,0-7.681,60.451,262.635,262.635,0,0,0,1.485,29.157c4.3,39.507,18.69,79.38,34.231,117.208,1.562,3.755,3.1,7.48,4.66,11.2,24.195,58.009,47.161,117.757,46.086,180.132-.9,55.719-24.656,112.292-66,139.953-58.887,39.324-130.294,18.99-195.352,8.641-5.121-.824-10.241-1.588-15.362-2.26-78.038-10.075-158.893-2.442-227.33,42.408C-103.821,962.434-158.842,1060.072-148.6,1160.7" transform="translate(161.401 366.084)"/><path class="f" d="M1275.842-68a1936.608,1936.608,0,0,1-55.072,216.769c-9.96,31.386-20.995,63.077-39.429,88.539-47.187,64.725-127.683,71.595-197.554,62.954q-24.886-3.053-49.593-7.969A712.861,712.861,0,0,1,794.861,249.52c-60.424-25.554-119.26-59.9-184.035-70.4S476.614,193.5,434.164,250.04c-18.486,24.608-35.384,46.468-45.548,73.732a228.676,228.676,0,0,0-13.749,60.085,232.993,232.993,0,0,0-.742,30.531c1.792,41.644,16.079,84.967,31.338,125.726,1.511,4.03,3.021,8.06,4.557,12.212,23.606,62.863,43.525,127.405,39.915,192.924-2.919,53.856-25.3,108.659-65.493,135.893-57.223,38.774-126.454,20.975-189.258,12.976-4.967-.611-9.934-1.191-14.9-1.679-75.248-7.3-152.492,2.717-217.294,47.964C-106.14,988.641-157.346,1083.9-146.081,1181.6" transform="translate(164.82 355.325)"/><path class="f" d="M1256.728-73.21a1817.694,1817.694,0,0,1-54.074,211.3c-9.806,30.531-20.739,61.306-38.661,86.158-45.753,63.443-123.458,71.87-191.2,65.367q-24.169-2.29-48.134-6.381a689.074,689.074,0,0,1-135.7-37.858c-58.887-23.142-116.469-54.956-179.632-64.115S479.7,197.232,436.454,249.226c-20.482,24.425-40.53,43.812-53.767,70.221a214.265,214.265,0,0,0-19.766,60.176,207.855,207.855,0,0,0-2.868,31.569c-.743,43.781,13.467,90.493,28.419,134.336l4.455,12.976c23.12,67.5,39.915,136.778,33.694,205.472-4.685,51.9-25.91,105.057-64.981,131.893C306.032,934.062,239.054,918.8,178.5,913.18c-4.788-.458-9.576-.824-14.363-1.13-72.431-4.58-146.04,7.877-207.206,53.429-65.211,48.636-112.654,141.846-100.441,236.431" transform="translate(168.265 344.629)"/><path class="f" d="M1237.568-78.44a1703.5,1703.5,0,0,1-53.075,205.9c-9.678,29.737-20.482,59.688-37.841,83.96-44.473,61.947-119.285,71.961-184.932,67.6q-23.4-1.557-46.674-4.824A660.865,660.865,0,0,1,783.138,241.4c-57.454-20.7-113.678-49.7-175.279-58.008S482.4,200.856,438.673,248.514c-22.48,24.425-45.676,41.156-61.755,66.771a203.141,203.141,0,0,0-25.6,60.023,195.487,195.487,0,0,0-5.121,32.729c-3.252,45.8,10.856,95.989,25.6,142.732,1.434,4.641,2.893,9.159,4.327,13.891,22.48,72.328,36.356,146.243,27.447,218.2-6.2,50.04-26.5,101.454-64.443,127.894-54.253,37.705-118.952,24.974-177.148,21.707-4.583-.244-9.192-.427-13.8-.549-69.692-1.71-139.691,13.036-197.144,59.077-61.32,49.063-105.2,140.045-91.813,231.606" transform="translate(171.756 333.891)"/><path class="f" d="M1218.789-83.67a1593.881,1593.881,0,0,1-52.1,200.5c-9.576,28.943-20.176,58.009-37.074,81.731-43.167,60.573-115.086,72.144-178.608,69.916q-22.659-.794-45.241-3.236a636.3,636.3,0,0,1-128.195-27.722C721.6,219.2,666.682,192.939,606.694,185.856S485.13,204.419,441.221,248.108c-24.656,24.424-50.848,38.377-69.9,63.138a194.112,194.112,0,0,0-31.62,59.9,184.484,184.484,0,0,0-7.374,33.92c-5.761,48.055,8.27,101.515,22.608,151.4q2.151,7.388,4.25,14.777c21.891,77.06,33,155.524,21.2,230.874-7.527,48.086-27.114,97.7-64.008,123.833C264,963.018,201.473,952.79,145.428,951.935H132.165c-66.927,1.1-133.29,18.318-187.159,64.634-57.453,49.491-97.625,138.244-83.236,226.783" transform="translate(174.917 323.154)"/><path class="f" d="M1199.815-88.9a1486.161,1486.161,0,0,1-51.027,195.092c-9.422,28.119-19.894,56.3-36.305,79.38-41.835,59.138-110.862,72.267-172.284,72.175q-21.891,0-43.756-1.679a608.13,608.13,0,0,1-124.482-22.654c-54.484-15.815-108.1-39.446-166.421-45.4S480.956,199.006,443.7,247.336c-30.084,18.288-55.994,35.935-77.936,59.81a188.479,188.479,0,0,0-37.637,59.749,176.761,176.761,0,0,0-9.6,35.141c-8.27,50.162,5.658,106.858,19.714,159.707q2.1,7.847,4.148,15.693c21.3,81.792,29.8,164.866,14.952,243.514-8.705,46.163-27.651,94.31-63.5,119.834-50.8,36.484-111.066,28.79-164.859,30.317-4.25,0-8.475.3-12.8.549C52.052,975.526-10.727,995-60.935,1041.87c-53.536,49.918-90.021,136.442-74.608,221.959" transform="translate(178.144 312.416)"/><path class="f" d="M1180.821-94.13a1388.877,1388.877,0,0,1-50.028,189.688c-9.294,27.264-19.612,54.62-35.512,77.243-40.53,57.612-106.663,72.358-165.96,74.373q-21.148.733-42.322,0a587.859,587.859,0,0,1-120.77-17.555c-53-13.525-105.306-34.469-162.119-39.415s-120.8,11.449-158,56.513C413.6,264,384.922,279.934,360.061,303.168c-17.844,16.042-32.671,36.364-43.525,59.657a171.916,171.916,0,0,0-11.829,36.3c-10.779,52.3,3.072,112.506,16.821,168.225q2.048,8.243,4.045,16.578c20.713,86.524,26.755,174.026,8.705,256.153-9.78,44.087-28.394,90.463-62.958,115.681-49.184,35.9-107.2,30.745-158.74,34.622-4.071.306-8.116.7-12.187,1.13C38.946,998.2-20.12,1020.031-66.692,1067.292c-49.645,50.285-82.417,134.61-66,217.105" transform="translate(181.469 301.679)"/><path class="f" d="M1162-99.36a1294.89,1294.89,0,0,1-49,184.284c-9.166,26.44-19.381,52.91-34.743,74.984-39.224,56.3-102.464,72.48-159.661,76.633q-20.482,1.526-40.965,1.465a564.224,564.224,0,0,1-117.058-12.487c-51.514-10.96-102.413-29.248-157.767-32.912S485.849,204.3,448.674,246.1c-34.923,16.3-66.338,30.531-94.143,52.818-19.933,15.343-36.85,35.641-49.593,59.5a168.261,168.261,0,0,0-14.031,37.492c-13.288,54.437.461,118,13.928,176.713q2,8.7,3.943,17.463c20.124,91.287,23.913,183.185,2.56,268.854-10.677,42.316-29.085,86.952-62.369,111.774-47.673,35.354-103.437,32.729-152.723,38.988-3.892.489-7.681,1.038-11.649,1.679-58.58,9.465-114.113,33.584-157.05,81.334-45.753,50.711-74.812,132.809-57.377,212.281" transform="translate(184.618 290.941)"/><path class="f" d="M1143.239-104.59a1204.141,1204.141,0,0,1-48.006,178.88c-9.038,25.646-19.1,51.261-33.95,72.755C1023.365,202,963.018,219.769,907.92,226.059q-19.612,2.259-39.378,3.053a544.7,544.7,0,0,1-113.345-7.45c-50-8.64-99.673-24.241-153.44-26.775S488.336,207.1,451.212,245.446c-37.329,15.265-71.484,27.936-102.259,49.338-20.969,14.594-40.939,34.1-55.456,59.383a167.352,167.352,0,0,0-16.258,38.682c-15.8,56.574-2.151,123.528,11.009,185.231,1.306,6.106,2.56,12.212,3.866,18.319,19.561,96.019,21.225,192.558-3.764,281.494-11.368,40.484-29.674,83.411-61.857,107.8-46.086,34.744-99.494,34.652-146.527,43.324-3.712.672-7.425,1.4-11.112,2.229-55.815,12.213-107.712,38.835-146.988,86.891-41.887,51.139-67.234,131.008-48.646,207.61" transform="translate(187.713 280.203)"/><path class="f" d="M1124.741-109.82a1120.123,1120.123,0,0,1-47.033,173.476c-8.91,24.822-18.818,49.551-33.156,70.526-36.613,53.429-94.066,72.847-147.039,81.273q-18.9,3.053-37.944,4.61a528.293,528.293,0,0,1-109.581-2.473c-48.646-6.106-96.934-19.021-148.985-20.425S491.4,209.593,454.169,244.826c-39.736,14.319-76.656,25.28-110.35,45.8-23.043,14.014-45.19,33.584-61.448,59.23a167.59,167.59,0,0,0-18.485,39.873C245.605,448.5,259.1,518.81,271.951,583.5q1.92,9.617,3.738,19.265c19,100.752,18.793,201.961-9.985,294.164-12.059,38.591-30.186,79.747-61.448,103.8-44.37,34.195-95.679,36.637-140.459,47.659-3.508.885-7.041,1.8-10.548,2.809C.225,1066.258-48.063,1095.2-83.7,1143.653c-38,51.567-59.63,129.207-40.171,202.633" transform="translate(190.542 269.466)"/><path class="f" d="M1106.2-115a1034.758,1034.758,0,0,1-46.086,167.919c-8.756,24-18.537,47.842-32.388,68.267-35.281,51.9-89.841,73-140.817,83.532q-18.127,3.816-36.459,6.106a509.987,509.987,0,0,1-105.92,2.717c-47.033-3.694-94.143-13.891-144.607-14.166S494.1,212.107,457.029,244.1c-42.117,13.373-81.8,22.532-118.44,42.346-25.065,13.464-49.337,32.76-67.464,59.108a168.261,168.261,0,0,0-20.687,41.064c-20.815,60.879-7.348,134.549,5.121,202.236q1.869,10.014,3.636,20.15c18.409,105.484,16.565,211.487-16.232,306.8-12.674,36.789-30.724,76.144-60.807,99.714-42.757,33.584-91.813,38.591-134.34,51.9-3.354,1.069-6.682,2.168-10.011,3.359-50.259,17.83-94.911,49.185-126.915,98-34.1,51.9-52.026,127.4-31.543,197.808" transform="translate(193.392 258.831)"/><path class="f" d="M1087.856-120.28A961.053,961.053,0,0,1,1042.9,42.388c-8.654,23.142-18.281,46.163-31.62,66.008-33.975,50.559-85.643,73.274-134.391,85.822q-17.41,4.519-35.025,7.755a493.337,493.337,0,0,1-102.182,7.785c-45.574-1.252-91.352-8.793-140.228-7.907s-98.726,21.371-139.358,41.858C418,265.08,373.041,263.676,333.536,282.574c-27.088,12.884-53.511,32.057-73.43,58.955a169.538,169.538,0,0,0-23.043,42.255c-23.324,63.016-9.934,140.045,2.33,210.663q1.792,10.5,3.533,21.066c17.922,110.247,14.568,221.165-22.48,319.444-13.109,35.019-31.313,72.48-60.167,95.653-41.17,33.035-87.972,40.667-128.246,56.33-3.175,1.221-6.324,2.534-9.473,3.907-47.468,20.639-88.51,54.345-116.878,103.561-30.212,52.391-44.447,125.6-23.043,192.985" transform="translate(196.064 247.99)"/><path class="f" d="M1069.712-125.5a890.17,890.17,0,0,1-43.961,157.234c-8.526,22.349-17.922,44.483-30.724,63.779-32.67,49.155-81.444,73.274-128.016,88.081q-16.616,5.312-33.54,9.342A479.206,479.206,0,0,1,734.8,205.759c-44.063,1.191-88.561-3.664-135.85-1.649s-95.679,20.914-135.7,38.927c-44.806,20.211-92.171,17.342-134.647,35.416-29.034,12.182-57.71,31.264-79.344,58.589a171.64,171.64,0,0,0-25.117,43.445c-25.859,65.244-12.571,145.663-.589,219.333q1.767,10.9,3.431,21.952c17.231,114.979,12.8,231.027-28.727,332.114-13.7,33.37-32.03,68.909-59.758,91.593C98.943,1078.025,54.394,1088.1,16.373,1106.2c-3,1.435-5.966,3.053-8.935,4.488A244.294,244.294,0,0,0-99.379,1219.81c-26.346,52.818-36.869,123.8-14.338,188.161" transform="translate(198.538 237.273)"/><path class="f" d="M1051.839-130.73A819.737,819.737,0,0,1,1008.878,21.1c-8.372,21.372-17.717,42.743-30.033,61.55-31.364,47.689-77.245,73.274-121.768,90.341q-15.9,6.106-32.106,10.9a468.986,468.986,0,0,1-94.732,17.952c-42.578,3.6-85.745,1.435-131.447,4.61s-92.632,20.456-131.907,36C419.263,261.1,369.541,256.981,324.07,274.2c-31.108,11.754-61.832,30.836-85.361,58.68a173.7,173.7,0,0,0-27.344,44.636c-28.368,67.168-15.157,151.066-3.508,227.76q1.741,11.357,3.354,22.806c16.668,119.65,11.393,241.163-34.974,344.785-14.159,31.721-32.618,65.306-59.22,87.654-37.944,31.905-80.266,44.423-116.033,65-2.816,1.618-5.633,3.3-8.4,5.038-41.938,26.226-75.734,64.665-96.78,114.674-22.454,53.246-29.264,122.123-5.709,183.337" transform="translate(200.741 226.536)"/><path class="f" d="M1034.288-136A756.194,756.194,0,0,1,992.35,10.548a341.654,341.654,0,0,1-29.136,59.138c-30.058,46.285-73.046,73.549-115.47,92.631q-15.131,6.839-30.724,12.487a463.7,463.7,0,0,1-91.045,22.99c-40.965,6.106-82.98,6.564-127.094,10.869s-89.611,19.937-128.17,33.1c-50.285,17.128-102.515,12.06-150.9,28.3-33.1,11.3-65.979,30.134-91.4,58.65a176.72,176.72,0,0,0-29.572,45.8c-30.8,69.58-17.692,156.593-6.273,236.278q1.69,11.816,3.252,23.722c16.079,124.474,10.241,251.513-41.2,357.425-14.619,30.164-33.284,61.7-58.734,83.654C59.422,1106.91,19.4,1121.87-14.084,1144.89c-2.56,1.832-5.274,3.694-7.86,5.587-39.147,29.035-69.333,69.855-86.743,120.261-18.562,53.673-21.66,120.2,2.893,178.514" transform="translate(202.624 215.716)"/><path class="f" d="M1017.109-141.19A692.954,692.954,0,0,1,976.143-.321a351.77,351.77,0,0,1-28.5,57.032c-28.676,44.85-68.77,73.7-109.069,94.89-9.6,5.068-19.356,9.77-29.188,14.075a457.177,457.177,0,0,1-87.358,28.058c-39.608,8.488-80.163,11.693-122.69,17.128s-86.36,19.3-124.457,30.165c-53.127,15.265-107.533,9.4-158.944,24.913-35.128,10.625-70.153,29.371-97.292,58.436a180.145,180.145,0,0,0-31.8,47.017c-33.284,71.564-20.483,162.088-9.294,244.765q1.664,12.213,3.124,24.608c15.516,129.206,9.217,262.2-47.417,370.1-15.055,28.638-33.873,58.008-58.2,79.593-34.743,30.775-72.585,48.391-103.821,73.671-2.56,1.985-4.916,4.061-7.322,6.106-36.112,31.183-62.968,75.258-76.681,125.848-14.7,54.04-14.082,118.368,11.5,173.66" transform="translate(204.109 205.06)"/><path class="f" d="M1000.392-146.42A632.407,632.407,0,0,1,960.476-10.985a368.062,368.062,0,0,1-27.7,54.955c-27.421,43.445-64.622,73.854-102.822,97.18-9.089,5.587-18.357,10.777-27.728,15.632a455.8,455.8,0,0,1-83.62,33.126c-38.123,10.93-77.373,16.792-118.338,23.387s-83.108,18.563-120.693,27.264c-55.892,12.945-112.807,6.778-167.061,21.372-37.15,9.984-74.326,28.607-103.257,58.222a183.788,183.788,0,0,0-34.027,48.178c-35.844,73.7-23.043,167.584-12.187,253.253,1.05,8.457,2.074,16.975,3.021,25.524,14.927,133.939,8.551,273.251-53.767,382.734-15.362,27.2-34.487,54.436-57.684,75.595-33.028,30.194-68.616,50.314-97.574,78.005q-3.405,3.237-6.759,6.686c-33.285,34.253-56.594,80.221-66.568,131.283-10.8,54.467-6.478,116.567,20.1,168.836" transform="translate(205.157 194.323)"/><path class="f" d="M984.47-151.65A578.73,578.73,0,0,1,945.578-21.619a400.585,400.585,0,0,1-26.935,52.574c-26.115,41.98-60.423,73.976-96.5,99.439-8.6,6.106-17.385,11.815-26.269,17.189a456.351,456.351,0,0,1-79.933,38.225c-36.612,13.342-74.582,21.891-113.934,29.615s-79.779,17.769-116.981,24.425c-58.606,10.441-117.954,4.061-175.177,17.891-39.147,9.465-78.474,28-109.223,58.009A187.321,187.321,0,0,0,164.4,365.267c-38.4,75.839-25.6,173.11-15.106,261.771,1.05,8.732,2.023,17.555,2.944,26.409,14.338,138.671,8.167,284.669-59.911,395.374a349.09,349.09,0,0,1-57.146,71.6c-31.518,29.615-64.878,52.3-91.634,82.433-2.1,2.382-4.173,4.793-6.222,7.267-30.555,37.354-50.376,85.311-56.609,136.96-6.913,54.956,1.127,114.766,28.727,164.012" transform="translate(205.409 183.585)"/><path class="f" d="M969.245-156.88A527.259,527.259,0,0,1,931.352-32.253a435.2,435.2,0,0,1-26.141,50.315c-24.809,40.575-56.327,74.1-90.2,101.7-8.091,6.595-16.386,12.853-24.809,18.776a458.86,458.86,0,0,1-76.195,43.293A599.676,599.676,0,0,1,604.426,217.7c-37.56,8.793-76.3,16.914-113.243,21.372-61.243,7.541-123.1,1.466-183.267,14.472-41.17,8.884-82.621,27.295-115.214,58.008a191.82,191.82,0,0,0-38.328,50.681c-40.965,77.945-28.163,178.575-17.922,270.228,1,9.159,1.971,18.318,2.842,27.478,13.749,143.495,8.039,296.516-66.159,408.044A414.838,414.838,0,0,1,16.5,1135.52c-29.9,29.035-61.012,54.253-85.515,86.677-1.92,2.565-3.815,5.16-5.684,7.816-27.781,40.379-44.145,90.2-46.751,142.334-3.021,55.322,8.731,112.964,37.355,159.188" transform="translate(204.965 172.848)"/><path class="f" d="M954.873-162.11C934.749-43.223,869.487,61.284,785.534,129.49S599.758,231.463,498.216,238.546c-63.8,4.427-128.272-1.191-191.358,10.961S179.738,295.3,145.02,359.173c-43.525,80.082-30.724,184.1-20.892,278.746,16.258,155.707,16.028,329.733-69.666,448.8-42.68,59.291-103.053,98.95-140.664,162.912-52.128,88.693-48.083,218.6,9.422,302.439" transform="translate(203.642 162.11)"/></g><g transform="translate(230.274 898.704)"><path class="f" d="M89.94,784.723a2002.691,2002.691,0,0,1,129.04-188.07c20.482-26.47,42.168-52.818,69.333-68.6,69.461-40.27,152.518-1.16,217.934,47.78C566.569,620.969,622.177,674.5,671.9,735.294c49.209,60.206,93.375,128.229,153,173.048s141.457,61.459,199.064,13.007c34.283-28.821,54.919-76.663,62.728-125.787s3.968-99.866-2.714-149.235c-7.681-56.543-18.87-115.5-3.917-169.9,15.516-56.33,60.347-99.469,109.786-105.637,70.332-8.793,132.163,49.612,191.46,95.592,75.3,58.436,162.811,101.942,252.5,95.775s180.348-71.564,207.257-173.781" transform="translate(-89.94 -139.271)"/><path class="f" d="M93.57,803.451A1842.358,1842.358,0,0,1,220.818,619.074c20.278-25.828,41.707-51.505,68.411-67.015,53.639-31.142,115.393-15.266,170.747,15.265A446.739,446.739,0,0,1,503.5,595.016c59.626,42.676,114.779,93.665,164.3,151.892,49.03,57.611,92.965,123.374,151.955,166.453,33.079,24.211,72.278,40.789,110.887,43.781,33.617,2.564,66.978-5.4,94.86-28.15a139.7,139.7,0,0,0,14.159-13.311c27.37-29.646,43.986-72.267,51.206-116.017a392.676,392.676,0,0,0,4.634-42.011c2.048-37.034-.359-74.5-3.917-111.132-5.607-58.009-13.083-117.574,3.789-171.858s59.707-95.867,107.969-102.156c68.693-9.007,129.27,46.041,187.236,88.784,4.583,3.389,9.192,6.686,13.851,9.953,70.358,49.063,149.984,83.135,230.889,75.32,86.257-8.335,172.744-73.274,197.733-173.324" transform="translate(-84.276 -135.924)"/><path class="f" d="M97.2,832.218A1707.5,1707.5,0,0,1,222.656,651.567c20.073-25.218,41.272-50.193,67.49-65.458,52.691-30.531,113.191-16.364,167.675,12.212a441.674,441.674,0,0,1,42.962,25.951c58.915,40.223,113.6,88.682,162.887,144.349,48.8,54.956,92.607,118.551,151.059,160.134,34.334,24.425,74.556,41.766,114.344,45.491,34.564,3.053,69.129-4.3,98.086-27.2a134.742,134.742,0,0,0,14.7-13.525c28.522-30.195,45.548-74.1,53.382-119.07a423.922,423.922,0,0,0,5.121-43.568c2.56-38.042,1.177-76.571-1.127-114.094-3.533-59.657-7.3-119.589,11.5-173.842,17.922-51.505,59.118-92.234,106.2-98.676,67-9.159,126.351,42.438,183.011,81.976q6.682,4.58,13.519,9.159c68.693,45.216,145.759,75.411,223.439,65.549,82.8-10.472,165.14-75.227,188.209-172.8" transform="translate(-78.612 -142.863)"/><path class="f" d="M100.82,862.065A1583.815,1583.815,0,0,1,224.534,684.985c19.817-24.577,40.786-48.849,66.568-63.87,51.693-30.134,110.964-17.4,164.577,9.16a438.154,438.154,0,0,1,42.45,24.546c58.213,37.744,112.433,83.652,161.5,136.747,48.646,52.575,92.3,113.667,149.958,153.723,35.614,24.729,76.81,42.743,117.775,47.2,35.537,3.817,71.356-3.236,101.312-26.287A135.864,135.864,0,0,0,1044.04,952.5c29.648-30.775,47.084-75.992,55.482-122.368q3.944-22.179,5.735-44.788c3.175-39.079,2.688-78.678,1.639-117.085-1.485-61.214-1.613-121.513,19.2-175.8,18.818-49.124,58.529-88.539,104.435-95.225,65.339-9.434,123.433,38.866,178.761,75.167q6.554,4.305,13.211,8.426c67.055,41.369,141.534,67.718,215.963,55.81,79.37-12.67,157.562-77.09,178.735-172.346" transform="translate(-72.964 -150.788)"/><path class="f" d="M104.45,892.023a1464.039,1464.039,0,0,1,121.922-173.2c19.612-23.967,40.351-47.567,65.647-62.314,50.745-29.615,108.788-18.318,161.5,6.259a424.041,424.041,0,0,1,41.81,22.563c57.5,35.277,111.25,78.645,160.1,129.175,48.39,50.01,91.992,108.721,148.934,147.25,36.894,24.975,79.139,43.721,121.256,48.849,36.459,4.458,73.532-2.106,104.538-25.34a140.038,140.038,0,0,0,15.848-13.891c30.724-31.355,48.646-77.885,57.581-125.635q4.2-22.77,6.324-45.98c3.738-40.087,4.2-80.785,4.429-120.109.563-62.741,3.994-123.375,26.883-177.75,19.689-46.712,57.914-85,102.643-91.745,63.675-9.617,120.514,35.294,174.562,68.359,4.25,2.626,8.552,5.16,12.8,7.663,65.39,37.522,137.31,59.993,208.512,46.04,75.888-14.838,149.983-78.892,169.211-171.828" transform="translate(-67.3 -158.795)"/><path class="f" d="M108.08,921.921A1357.125,1357.125,0,0,1,228.21,752.413c19.382-23.325,39.864-46.223,64.7-60.725,49.8-29.1,106.586-19.479,158.432,3.206a407.629,407.629,0,0,1,41.221,20.883c56.811,32.786,110.107,73.6,158.739,121.573,48.185,47.506,91.736,103.805,147.935,140.839,38.174,25.188,81.392,44.667,124.713,50.62,37.406,5.068,75.708-1.038,107.738-24.425a144.114,144.114,0,0,0,16.437-14.074c31.927-31.905,50.182-79.747,59.681-128.871q4.473-23.386,6.887-47.231c4.327-41.094,5.658-82.861,7.22-123.069,2.56-64.329,9.525-125.177,34.615-179.705,20.483-44.361,57.3-81.395,100.851-88.295,61.985-9.831,117.6,31.722,170.312,61.55,4.173,2.351,8.347,4.671,12.571,6.9,63.726,33.584,133.136,52.3,201.036,36.3,72.457-17.036,142.4-80.754,159.712-171.369" transform="translate(-61.636 -166.741)"/><path class="f" d="M111.71,951.858A1256.69,1256.69,0,0,1,230.074,786.045c19.177-22.684,39.429-44.91,63.777-59.168,48.825-28.576,104.384-20.486,155.36.214a428.561,428.561,0,0,1,40.632,19.143A755.556,755.556,0,0,1,647.2,860.265c47.955,44.942,91.454,98.707,146.911,134.336,39.48,25.4,83.671,45.8,128.169,52.33,38.4,5.709,77.885,0,110.939-23.478a140.934,140.934,0,0,0,17-14.258c33.079-32.485,51.744-81.64,61.806-132.107,3.2-16.09,5.607-32.332,7.476-48.452,4.89-42.132,7.143-84.967,10.011-126.092,4.557-65.855,14.952-127.038,42.3-181.658,21.1-41.95,56.685-77.732,99.059-84.693,60.346-10.045,114.7,28.15,166.113,54.772,4.045,2.076,8.142,4.122,12.238,6.106,62.088,29.8,128.861,44.575,193.585,26.531,69-19.173,134.8-82.433,150.214-170.972" transform="translate(-55.972 -174.727)"/><path class="f" d="M115.34,981.745A1165.539,1165.539,0,0,1,231.911,819.688c18.946-22.074,38.968-43.6,62.856-57.612,47.878-28.058,102.208-21.554,152.288-2.839A408.965,408.965,0,0,1,487.123,776.7,727.034,727.034,0,0,1,643.072,883.13c47.75,42.408,91.224,93.669,145.938,127.955,40.811,25.585,85.975,46.59,131.651,54.04,39.275,6.32,80.061,1.13,114.164-22.562a141.453,141.453,0,0,0,17.564-14.471c34.231-33.034,53.28-83.471,64.008-135.343,3.354-16.487,5.94-33.156,8.014-49.674,5.479-43.14,8.679-87.043,12.8-129.053,6.606-67.443,20.3-128.9,50-183.643,21.558-39.69,56.1-74.129,97.292-81.334,58.657-10.258,111.758,24.425,161.889,47.964q5.914,2.748,11.906,5.343c60.423,25.951,124.636,36.881,186.135,16.792,65.544-21.372,127.2-84.418,140.817-170.392" transform="translate(-50.308 -182.693)"/><path class="f" d="M119,1011.663A1082.19,1082.19,0,0,1,233.83,853.3c18.716-21.372,38.4-42.285,61.908-56.024,46.931-27.478,99.852-22.471,149.19-5.862a408.871,408.871,0,0,1,39.506,15.754A696.331,696.331,0,0,1,639,906.026c47.545,39.873,91.019,88.539,144.888,121.483,42.117,25.767,88.254,47.567,135.082,55.749,40.248,6.961,82.263,2.228,117.391-21.646a138.239,138.239,0,0,0,18.153-14.625c35.358-33.584,54.842-85.486,66.031-138.579,3.533-16.914,6.3-34.012,8.6-50.895,6.042-44.178,10.241-89.12,15.567-132.076,8.68-68.969,25.6-130.733,57.71-185.566,21.968-37.461,55.482-70.526,95.525-77.884,56.993-10.472,108.839,21.005,157.639,41.156,3.84,1.587,7.681,3.053,11.6,4.58,58.887,22.074,120.335,29.157,178.659,7.022,62.113-23.54,119.618-86.219,131.191-169.874" transform="translate(-44.597 -190.659)"/><path class="f" d="M122.59,1041.54A1006.171,1006.171,0,0,1,235.628,886.9c18.588-20.791,38.046-40.972,60.987-54.375,45.958-27.02,97.778-23.509,146.117-8.915a405.143,405.143,0,0,1,38.942,14.074,668.1,668.1,0,0,1,153.158,91.287c47.34,37.309,90.84,83.411,143.864,115.04,43.525,25.89,90.558,48.545,138.564,57.46,41.2,7.571,84.49,3.328,120.616-20.731a143.711,143.711,0,0,0,18.716-14.808c36.51-34.194,56.327-87.257,68.13-141.815,3.713-17.342,6.657-34.836,9.192-52.116,6.606-45.217,11.7-91.227,18.358-135.069,10.7-70.557,30.724-132.626,65.416-187.551,22.275-35.263,54.868-66.893,93.707-74.4,55.328-10.686,105.946,17.433,153.44,34.347,3.738,1.313,7.5,2.6,11.266,3.816,57.12,18.318,116.187,21.371,171.208-2.717,58.657-25.707,112.039-88.081,121.692-169.416" transform="translate(-38.996 -198.584)"/><path class="f" d="M126.22,1071.662A931.431,931.431,0,0,1,237.491,920.718c18.255-20.181,37.56-39.691,60.039-52.88,45.01-26.532,95.577-24.425,143.045-11.938,13.083,3.481,25.91,7.663,38.4,12.212a641.757,641.757,0,0,1,151.8,83.716c47.11,34.775,90.635,78.281,142.84,108.6,44.806,26.043,92.811,49.521,142.021,59.169,42.143,8.213,86.615,4.427,123.817-19.784a144.189,144.189,0,0,0,19.279-14.991c37.662-34.744,57.94-89.119,70.255-145.082,3.892-17.738,7.015-35.66,9.755-53.337,7.194-46.193,13.237-93.3,21.148-138.061,12.8-72.114,35.844-134.58,73.123-189.474,22.531-33.126,54.279-63.29,91.941-70.954,53.766-10.9,103,13.861,149.19,27.478,3.661,1.068,7.3,2.076,10.984,3.053,55.431,14.38,111.937,13.739,163.732-12.487,55.175-27.874,104.435-89.883,112.167-168.927" transform="translate(-33.332 -206.755)"/><path class="f" d="M129.85,1101.426A865.637,865.637,0,0,1,239.329,954.237c17.922-19.57,37.125-38.347,59.118-51.322,44.063-26.012,93.4-25.585,139.972-14.96,12.8,3.053,25.6,6.534,37.765,10.624A616.4,616.4,0,0,1,626.6,974.723c46.9,32.24,90.456,73.06,141.841,102.156,46.086,26.134,95.09,50.467,145.477,60.879,43.065,8.823,88.792,5.5,127.017-18.868a145.934,145.934,0,0,0,19.868-15.266c38.789-35.263,59.476-90.921,72.354-148.227,4.071-18.319,7.374-36.637,10.241-54.559,7.681-47.231,14.747-95.409,23.939-141.052,14.824-73.671,40.683-136.626,80.8-191.459,22.71-31.019,53.767-59.657,90.149-67.442,52-11.114,100.108,10.258,144.99,20.7,3.533.824,7.092,1.588,10.651,2.29,53.767,10.533,107.713,6.106,156.179-22.226,51.744-30.073,96.857-91.745,102.669-168.439" transform="translate(-27.668 -214.598)"/><path class="f" d="M133.48,1131.242a803.562,803.562,0,0,1,107.687-143.5c17.922-18.929,36.664-37,58.221-49.765C342.453,912.519,390.561,911.39,436.263,920c12.622,2.381,25.065,5.435,37.2,8.945a590.488,590.488,0,0,1,149.01,68.541c46.7,29.707,90.3,67.87,140.817,95.714,47.545,26.2,97.292,51.444,148.933,62.588,44.037,9.464,90.994,6.594,130.269-17.922a144.622,144.622,0,0,0,20.483-15.266c39.941-35.874,61.038-92.844,74.454-151.555,4.225-18.563,7.681-37.308,10.933-55.78,8.321-48.239,16.335-97.455,26.7-144.014,17-75.2,45.548-138.793,88.51-193.443,22.838-29,53.075-56.055,88.382-63.962,50.336-11.326,97.292,6.656,140.818,13.892,3.456.549,6.887,1.069,10.241,1.527,52.128,6.655,103.462-1.679,148.806-32,48.287-32.241,89.252-93.546,93.17-167.919" transform="translate(-22.004 -222.523)"/><path class="f" d="M137.11,1161.281a743.826,743.826,0,0,1,105.92-139.77c17.615-18.319,36.2-35.721,57.274-48.208,42.117-24.974,89-27.478,133.8-21.005,12.392,1.832,24.656,4.274,36.612,7.235A566.835,566.835,0,0,1,618.347,1020.6c46.5,27.141,90.174,62.588,139.819,89.272,48.9,26.225,99.673,52.391,152.39,64.3,44.985,10.075,93.17,7.663,133.469-17.006a146.665,146.665,0,0,0,21.02-15.571c40.965-36.454,62.574-94.646,76.553-154.792,4.4-18.99,8.091-38.163,11.5-57,8.91-49.276,17.922-99.561,29.495-147.036,19.074-76.754,50.285-141.083,96.217-195.4,23.043-27.05,52.461-52.452,86.615-60.512,48.646-11.541,94.271,3.053,136.516,7.083,3.328.305,6.657.55,10.011.763,50.49,2.809,99.238-9.372,141.33-41.735,44.857-34.531,81.674-95.592,83.748-167.522" transform="translate(-16.34 -230.55)"/><path class="f" d="M140.73,1191.179A691.489,691.489,0,0,1,244.884,1055.1c17.384-17.647,35.844-34.378,56.327-46.621,41.17-24.424,86.795-28.668,130.73-24.058a360.178,360.178,0,0,1,36.049,5.526,546.819,546.819,0,0,1,146.245,53.46c46.291,24.638,90.021,57.337,138.82,82.83,50.285,26.257,101.952,53.368,155.846,66.008,45.906,10.716,95.346,8.762,136.7-16.06a148.712,148.712,0,0,0,21.558-15.754c42.22-37.034,64.136-96.63,78.678-158.027,4.583-19.418,8.449-39.018,12.085-58.253,9.473-50.284,19.382-101.637,32.286-150,21.123-78.312,54.919-143.5,103.923-197.352,22.915-25.157,51.846-48.849,84.8-57.032,47.007-11.754,91.352-.488,132.317.275h9.678c48.825-1.038,95.013-17.1,133.879-51.506,41.4-36.637,74.1-97.21,74.249-166.973" transform="translate(-10.692 -238.496)"/><path class="f" d="M144.36,1221.23a640.361,640.361,0,0,1,102.413-132.321,295.1,295.1,0,0,1,55.405-45.063c40.2-23.936,84.49-29.737,127.657-27.081,11.957.732,23.811,2.045,35.46,3.817a526.214,526.214,0,0,1,144.863,45.8c46.086,22.075,89.867,51.9,137.77,76.328,51.693,26.256,104.23,54.375,159.328,67.748,46.854,11.3,97.522,9.861,139.9-15.266a150.48,150.48,0,0,0,22.147-15.937c43.371-37.614,65.672-98.492,80.778-161.294,4.762-19.815,8.807-39.69,12.648-59.443,10.036-51.322,20.892-103.8,35.076-153.02,23.171-79.838,59.451-146.182,111.63-199.275,23.043-23.356,51.206-45.216,83.031-53.581,45.318-11.968,88.433-4.061,128.016-6.534,3.124-.183,6.247-.458,9.371-.763,47.161-4.885,90.789-24.791,126.428-61.245,37.944-38.774,66.568-99.073,64.648-166.485" transform="translate(-5.028 -246.626)"/><path class="f" d="M148,1251.046c28.266-48.329,62.134-91.635,100.595-128.627a304.038,304.038,0,0,1,54.483-43.476c39.25-23.417,82.416-30.775,124.585-30.134,11.726.214,23.4.947,34.871,2.138a507.3,507.3,0,0,1,143.378,38.224c45.855,19.54,89.739,46.742,136.772,69.946,53.1,26.2,106.509,55.321,162.759,69.427,47.827,11.937,99.724,10.96,143.122-14.2a153.015,153.015,0,0,0,22.736-16.12c44.5-38.071,67.311-100.385,82.9-164.531,4.941-20.242,9.192-40.666,13.237-60.665,10.6-52.33,22.4-105.82,37.867-156.012,25.219-81.426,63.88-149.052,119.311-201.259,23.043-21.586,50.643-41.584,81.239-50.1,43.679-12.212,85.54-7.633,123.868-13.342,3.021-.458,6.042-.977,9.038-1.526,45.523-8.762,86.564-32.515,118.952-71.015,34.513-40.911,58.887-100.752,55.149-166" transform="translate(0.652 -254.489)"/><path class="f" d="M151.62,1281.249c27.528-47.365,60.838-89.556,98.828-125.176a315.444,315.444,0,0,1,53.536-41.888c38.4-22.928,80.215-31.844,121.512-33.157q17.282-.549,34.308.428a489.889,489.889,0,0,1,142.072,30.53c45.65,17.006,89.611,41.4,135.7,63.474,54.535,26.1,108.813,56.3,166.241,71.167,48.774,12.548,101.9,12.029,146.348-13.281a153.873,153.873,0,0,0,23.3-16.333c45.651-38.714,68.77-102.217,84.977-167.767,5.121-20.639,9.55-41.491,13.826-61.886,11.163-53.337,23.913-107.9,40.632-159,27.293-82.953,68.232-152.166,127.017-203.183,23.043-19.906,50.054-37.98,79.37-46.651,41.989-12.4,82.6-11.2,119.618-20.15,2.919-.7,5.838-1.465,8.731-2.29,43.405-12.146,82.451-40.424,111.5-80.754,31.031-43.11,51.206-102.736,45.625-165.507" transform="translate(6.3 -262.619)"/><path class="f" d="M155.25,1310.85c26.838-46.189,59.58-87.078,97.036-121.177a329.748,329.748,0,0,1,52.614-40.361c37.329-22.379,78.038-32.943,118.44-36.149,11.291-.947,22.556-1.343,33.719-1.313a475.859,475.859,0,0,1,140.689,23.112c45.445,14.441,89.611,36.026,134.749,57.031,55.943,25.981,111.092,57.368,169.723,72.846,49.7,13.189,104.077,13.128,149.548-12.365a152.769,152.769,0,0,0,23.862-16.487c46.8-39.292,70.332-104.11,87.051-170.972,5.274-21.066,9.908-42.316,14.389-63.107,11.752-54.376,25.45-109.911,43.525-162,29.341-84.509,72.508-155.555,134.749-205.167a244.55,244.55,0,0,1,77.68-43.171C1473.351,579,1512.7,576.8,1548.42,564.616c2.816-.946,5.607-1.984,8.4-3.053,41.852-16.247,78.285-47.95,104.026-90.524,27.6-45.277,43.73-104.537,36.126-165.019" transform="translate(11.964 -270.421)"/><path class="f" d="M158.87,1340.83c26.14-45.125,58.326-84.815,95.269-117.483a349.465,349.465,0,0,1,51.693-38.774c36.188-21.166,75.259-34.442,115.368-39.2,11.06-1.5,22.121-2.443,33.156-3.053a463.81,463.81,0,0,1,139.307,15.51c45.215,11.906,89.355,30.531,133.725,50.59,57.377,25.8,113.371,58.222,173.154,74.556,50.643,13.831,106.253,14.227,152.774-11.418a155.57,155.57,0,0,0,24.425-16.67c47.929-39.873,71.868-106,89.2-174.24,5.453-21.371,10.241-43.17,14.978-64.358,12.315-55.383,26.96-112.079,46.086-164.866,31.389-86.1,76.809-159.218,142.43-207.151a280.416,280.416,0,0,1,75.887-39.69c38.661-12.792,76.81-18.319,111.169-33.767,2.714-1.221,5.428-2.473,8.091-3.817,40.338-20.386,74.2-55.528,96.7-100.354,24.144-47.475,36.126-106.4,26.628-164.531" transform="translate(17.612 -278.448)"/><path class="f" d="M162.5,1370.522c25.417-44.061,57.034-82.547,93.451-113.759,48.033-42.073,104.04-69.342,163.041-79.38,10.83-2.045,21.711-3.6,32.567-4.7a451.869,451.869,0,0,1,137.924,7.938c45.01,9.373,89.227,25.248,132.7,44.147,58.887,25.555,115.675,59.169,176.662,76.327,51.59,14.441,108.429,15.265,155.974-10.5a156.188,156.188,0,0,0,25.014-16.853c49.081-40.453,73.43-107.865,91.3-177.506,5.633-21.891,10.625-43.995,15.541-65.55,12.8-56.421,28.5-114.154,49-167.919,33.463-87.623,80.855-163.156,150.137-209.075a335.888,335.888,0,0,1,74.249-36.24c37-13.006,73.839-21.921,106.944-40.576,2.56-1.465,5.12-3.053,7.681-4.579,38.676-24.517,69.862-62.987,89.1-109.911,20.687-49.612,28.548-108.232,17.1-164.042" transform="translate(23.276 -286.189)"/><path class="f" d="M166.13,1400.644c57.069-100.385,151.059-166.729,250.757-190.97s204.287-8.549,300.222,31.661c60.3,25.279,117.928,60.176,180.067,77.975s132.061,16.456,184.8-26.592c65.979-53.888,88-155.708,109.53-247.514,35.409-151.067,92.171-311.689,209.613-382.032,58.58-35.019,127.12-43.811,182.525-85.486,76.81-57.825,115.214-179.522,89.227-283.326" transform="translate(28.94 -294.36)"/></g><g transform="translate(-676.512 -455.643)"><path class="f" d="M-264.23,83.946A1822.794,1822.794,0,0,1-108.87-73.318C-84.7-94.934-59.4-116.061-30.294-125.862c74.4-24.791,150.188,31.66,207.027,93.852,52.541,57.375,99.175,121.994,138.923,192.5,39.3,69.793,72.457,146.182,124.329,203.121s129.834,90.86,193.842,55.6c38.072-20.975,65.6-63.6,80.7-110.247S733.55,211.6,734.446,161.586c1.024-57.245-1.1-117.666,21.84-167.919,23.76-51.9,74.4-84.845,123.945-80.3,70.537,6.5,122.511,77.243,173.871,135.221,65.237,73.61,144.735,135.221,233.808,148.471s188.209-31.63,230.121-126.4" transform="translate(264.23 184.97)"/><path class="f" d="M-262,88.576A1684.726,1684.726,0,0,1-108.944-65.391c23.836-21.066,48.825-41.674,77.424-51.2,57.479-19.112,115.8,9.739,165.627,51.9a493.123,493.123,0,0,1,38.635,36.637C224.984,26.7,271.569,88.673,311.511,156.568c39.429,67.229,72.713,141.358,124.226,196.527,28.88,30.958,64.9,55.688,102.413,66.924,32.67,9.77,66.7,9.159,97.574-7.266a127.784,127.784,0,0,0,15.925-10.075c31.415-23.265,54.151-61.611,67.976-102.981a376.979,376.979,0,0,0,10.907-40.667c7.681-35.965,10.907-73.274,12.93-110.125C746.738,90.56,748.4,30.445,773.186-19.32s73.251-81.456,121.666-77.274C963.776-90.671,1015.034-23.5,1065.6,31.025c3.968,4.274,8.014,8.549,12.11,12.731,61.78,63.412,135.031,114.033,215.706,123.741,86.1,10.381,181.014-35.049,220.7-127.924" transform="translate(267.71 203.909)"/><path class="f" d="M-259.69,93.263a1552.145,1552.145,0,0,1,150.751-150.7c23.529-20.486,48.159-40.514,76.272-49.857C23.788-126.1,81.139-99.05,130.374-59.146a487.783,487.783,0,0,1,38.4,34.805c51.871,52.253,98.327,111.7,138.385,177.079,39.608,64.6,73.1,136.442,124.2,189.993,30.16,31.386,67.029,57.032,105.587,69.244,33.515,10.594,68.668,10.625,100.595-5.679a125.744,125.744,0,0,0,16.514-10.106c32.618-23.6,55.994-63.138,70.511-105.728a403.143,403.143,0,0,0,11.649-41.736c8.347-36.851,12.8-75.075,16.156-112.476,5.53-59.413,10.907-119.07,37.585-168.5,25.347-46.834,72.1-78.006,119.387-74.251,67.311,5.373,117.774,68.939,167.6,120.017q5.914,6.106,11.931,11.907c60.731,59.291,131.959,105.545,209.946,112.567,83.031,7.48,173.82-38.5,211.277-129.512" transform="translate(271.314 222.822)"/><path class="f" d="M-257.41,106.259a1437.383,1437.383,0,0,1,148.5-147.434C-85.69-61.081-61.392-80.468-33.792-89.688c55.431-18.5,111.809,6.778,160.481,44.544A470.7,470.7,0,0,1,164.709-12.17C216.281,37.475,262.7,94.288,302.966,157.062c39.787,62.161,73.43,131.71,124.073,183.49,31.287,31.966,69.128,58.558,108.737,71.747,34.359,11.419,70.665,12.212,103.616-4.06a124.622,124.622,0,0,0,17.1-10.2c33.822-23.875,57.812-64.6,73.1-108.445q7.215-20.932,12.392-42.743c9.038-37.736,14.543-76.815,19.33-114.826,7.809-60.512,16.8-119.864,45.471-168.774,25.936-44.3,71.074-74.648,117.16-71.259,65.7,4.793,115.521,64.786,164.475,112.384q5.786,5.618,11.726,11.113c59.681,55.108,128.963,97.057,203.98,101.362,79.958,4.58,166.651-41.949,201.855-131.1" transform="translate(274.871 233.366)"/><path class="f" d="M-255.14,123.8A1329.975,1329.975,0,0,1-109.022-20.369c22.914-19.356,46.853-38.1,73.967-47.17,54.407-18.319,109.812,5.251,157.92,40.881a469.866,469.866,0,0,1,37.713,31.2C211.812,51.6,258.126,105.81,298.528,166.022c40.018,59.6,73.967,126.733,124.226,176.865,32.49,32.515,71.2,60.024,111.86,74.19,35.179,12.212,72.636,13.739,106.637-2.442a125.086,125.086,0,0,0,17.692-10.258c35.051-24.211,59.63-66.13,75.657-111.163q7.568-21.513,13.16-43.9c9.755-38.622,16.335-78.556,22.531-117.177,10.036-61.611,22.582-120.505,53.331-169.049,26.422-41.705,69.82-71.137,114.83-68.175,64.008,4.213,113.192,60.634,161.3,104.782,3.789,3.481,7.681,6.93,11.521,10.289,58.631,50.986,125.968,88.539,198.117,90.158,76.81,1.71,159.457-45.369,192.433-132.626" transform="translate(278.413 239.458)"/><path class="f" d="M-252.87,141.28A1233.724,1233.724,0,0,1-109.057.381C-86.475-18.4-62.971-36.5-36.242-45.416,17.141-63.307,71.548-41.63,119.118-8.168a453.513,453.513,0,0,1,37.381,29.4c50.912,44.477,97.159,96.088,137.745,153.723,40.2,57.031,74.531,121.757,124.2,170.3,33.745,33,73.4,61.459,115.009,76.6,36.024,13.067,74.633,15.265,109.658-.855a127.152,127.152,0,0,0,18.306-10.289c36.228-24.425,61.448-67.656,78.192-113.91q7.907-22.055,13.928-44.972c10.472-39.507,18.076-80.3,25.6-119.528,12.264-62.649,28.394-121.116,61.32-169.324,26.781-39.2,68.668-67.717,112.654-65.153,62.472,3.664,110.862,56.513,158.227,97.21q5.607,4.793,11.317,9.465c57.607,46.8,122.9,80.052,192.254,78.953,73.84-1.16,152.262-48.849,183.011-134.336" transform="translate(281.955 245.545)"/><path class="f" d="M-250.6,158.735a1144.715,1144.715,0,0,1,141.509-137.6C-86.817,2.815-63.518-14.557-37.4-23.35,14.956-40.967,68.39-21.091,115.4,10.234c12.8,8.518,25.3,17.891,37.073,27.478A830.281,830.281,0,0,1,289.959,183.832c40.376,54.5,75.043,116.75,124.1,163.645,35.076,33.584,75.5,63.016,118.235,79.166,36.869,13.831,76.6,16.792,112.654.733A128.878,128.878,0,0,0,663.816,417c37.457-24.821,63.24-69.152,80.778-116.628,5.581-15.266,10.241-30.531,14.645-46.071,11.189-40.362,19.894-82.006,28.932-121.849,14.44-63.809,33.9-121.757,69.129-169.6,27.037-36.637,67.515-64.115,110.273-62.1,60.859,3.053,108.532,52.36,155.1,89.577,3.661,3.053,7.374,5.831,11.112,8.64,56.557,42.682,120.053,71.564,186.391,67.626,70.767-4.03,145.068-52.208,173.589-135.771" transform="translate(285.497 251.66)"/><path class="f" d="M-248.33,176.266A1060.43,1060.43,0,0,1-109.126,41.93C-87.158,24.283-64.218,7.4-38.615-1.21c51.36-17.311,103.8.763,150.214,29.951a429.732,429.732,0,0,1,36.792,25.8A795.166,795.166,0,0,1,285.675,192.752c40.555,51.9,75.58,111.743,124.15,157.2,36.28,33.95,77.5,64.328,121.308,81.487,37.714,14.655,78.6,18.318,115.726,2.351a128.275,128.275,0,0,0,19.458-10.441c38.661-25.127,65.032-70.679,83.338-119.376,5.812-15.51,10.856-31.355,15.362-47.14,11.957-41.247,21.865-83.746,32.106-124.2,16.693-64.909,39.454-122.4,76.963-169.843C901.328-71.645,940.5-98.084,982.132-96.314c59.246,2.534,106.2,48.208,151.981,81.975,3.584,2.656,7.246,5.282,10.907,7.816,55.508,38.53,117.006,63.107,180.528,56.574,67.695-6.931,137.9-55.658,164.167-137.389" transform="translate(289.039 257.73)"/><path class="f" d="M-246,201.791A983.549,983.549,0,0,1-109.254,70.722c21.66-17.067,44.268-33.309,69.385-41.8,50.31-17.006,101.721-.58,147.628,26.318,12.6,7.388,24.809,15.51,36.459,24A763.343,763.343,0,0,1,281.425,209.7c40.735,49.46,76.144,106.858,124.15,150.67,37.406,34.408,79.472,65.763,124.2,83.9,38.533,15.479,80.573,19.876,118.747,3.939a127.659,127.659,0,0,0,20.047-10.472c39.89-25.463,66.85-72.175,85.9-122.123,6.068-15.876,11.342-32.088,16.181-48.208,12.622-42.132,23.5-85.486,35.281-126.55,19.074-66.008,45.01-123.1,84.849-169.965C918.047-61.232,956.017-86.573,996.5-85.168c57.735,1.8,103.974,43.842,148.933,74.373,3.559,2.381,7.118,4.7,10.728,6.992,54.458,34.378,114.011,54.589,174.665,45.338,64.648-9.8,130.7-59.077,154.745-138.885" transform="translate(292.675 255.774)"/><path class="f" d="M-243.78,233.635A913.116,913.116,0,0,1-109.21,105.863C-87.857,89.377-65.685,73.745-40.978,65.41,8.309,48.71,58.747,63.334,104.09,88.064c12.469,6.808,24.553,14.319,36.152,22.2A731.425,731.425,0,0,1,277.09,232.994C318.055,279.889,353.9,334.57,401.215,377.1c38.84,34.805,81.7,67.168,127.58,86.311,39.378,16.3,82.57,21.371,121.768,5.557A128.487,128.487,0,0,0,671.2,458.494c40.965-25.8,68.668-73.7,88.484-124.871,6.273-16.243,11.8-32.821,16.924-49.277,13.339-43.018,25.3-87.226,38.4-128.9,21.2-67.168,50.259-123.864,92.709-170.393,27.242-29.89,64.008-54.009,103.437-53.032,56.045,1.4,101.542,39.9,145.708,66.771,3.482,2.107,6.99,4.183,10.523,6.106C1220.8,35.123,1278.4,51,1336.19,39.062c61.448-12.7,123.51-62.527,145.3-140.442" transform="translate(296.138 247.5)"/><path class="f" d="M-241.51,265.468A849.61,849.61,0,0,1-109.244,140.933c21.02-15.907,42.962-30.9,67.08-39.11,48.262-16.4,97.7-3.572,142.507,19.051a404.694,404.694,0,0,1,35.844,20.364A702.243,702.243,0,0,1,272.832,256.217c40.965,44.361,77.3,96.477,124.073,137.541,40.146,35.263,83.825,68.664,130.73,88.753,40.223,17.128,84.49,22.959,124.79,7.175a132.434,132.434,0,0,0,21.251-10.625c42.3-26.073,70.46-75.2,91.019-127.588,6.5-16.609,12.315-33.584,17.666-50.345,14.056-43.9,27.139-88.936,41.682-131.283C847.52,101.67,879.575,45.157,924.611-.822,951.8-28.544,987.569-51.412,1025.795-50.8c54.432.824,99.238,35.752,142.584,59.138,3.431,1.832,6.862,3.633,10.241,5.373C1231,39.784,1286.639,51.294,1341.558,36.639c58.5-15.54,116.315-65.947,135.876-142.029" transform="translate(299.68 239.268)"/><path class="f" d="M-239.24,297.127A787.736,787.736,0,0,1-109.278,175.889c20.713-15.265,42.3-29.706,65.928-37.767,47.238-16.12,95.7-5.068,139.921,15.265,12.187,5.618,24.093,11.907,35.537,18.593A670.793,670.793,0,0,1,268.547,279.419c41.247,41.705,77.936,91.226,124.047,130.885,41.477,35.63,85.924,70.221,133.879,91.165,40.965,17.952,86.539,24.425,127.811,8.762a134.214,134.214,0,0,0,21.84-10.655c43.525-26.409,72.278-76.724,93.58-130.336,6.759-16.975,12.8-34.286,18.434-51.414,14.773-44.819,28.932-90.677,44.882-133.6,25.731-69.275,60.705-125.634,108.429-170.973,27.037-25.646,61.832-47.14,98.879-46.956,52.845.244,96.934,31.63,139.486,51.536,3.354,1.588,6.734,3.053,10.113,4.549C1241.237,44.332,1295,51.537,1347,34.165c55.457-18.318,109.146-69.4,126.454-143.495" transform="translate(303.222 231.179)"/><path class="f" d="M-237,328.98A728.017,728.017,0,0,1-109.266,211.009c20.482-14.777,41.656-28.546,64.776-36.454,46.239-15.784,93.707-6.534,137.361,11.754,12.059,5.068,23.837,10.716,35.23,16.792A641.562,641.562,0,0,1,264.31,302.571c41.477,39.263,78.55,86.158,124.047,124.444,42.885,36,88,71.534,137.028,93.577,41.861,18.776,88.484,26.043,130.806,10.38a134.24,134.24,0,0,0,22.428-10.716c44.729-26.714,74.07-78.22,96.165-133.054,6.964-17.372,13.262-35.08,19.177-52.543,15.49-45.8,30.724-92.356,48.057-135.923,28.164-70.221,65.8-126.7,116.315-171.217,26.832-23.631,60.679-43.72,96.6-43.934,51.206-.305,94.6,27.478,136.362,43.964,3.277,1.282,6.605,2.534,9.908,3.694,50.285,17.8,102.054,20.639,151.212.55C1404.8,10.422,1454.37-41.022,1469.45-113.35" transform="translate(306.717 222.925)"/><path class="f" d="M-234.69,360.742a677.534,677.534,0,0,1,125.328-114.7c20.1-14.2,40.965-27.325,63.624-35.08,45.215-15.51,91.71-8.03,134.8,8.091,11.905,4.488,23.657,9.648,34.923,14.991a614.114,614.114,0,0,1,135.978,91.745c41.631,36.7,79.216,80.968,124.15,117.849,44.012,36.362,89.969,73,140.049,96.019,42.706,19.6,90.482,27.478,133.853,12a136.1,136.1,0,0,0,23.043-10.808c45.932-27.02,75.888-79.716,98.726-135.77,7.22-17.739,13.749-35.813,19.945-53.612,16.207-46.56,32.618-94.065,51.206-138.274C881.274,141.806,921.779,85.2,975.11,41.726c26.6-21.707,59.527-40.3,94.322-40.911,49.619-.885,92.171,23.326,133.136,36.332,3.252,1.008,6.478,1.985,9.729,2.9,49.235,13.617,99.059,12.212,145.349-10.655,49.312-24.211,94.732-76.327,107.533-146.731" transform="translate(310.322 214.733)"/><path class="f" d="M-232.42,392.575a628.881,628.881,0,0,1,122.9-111.407c19.765-13.647,40.35-26.134,62.471-33.584,44.191-15.265,89.611-9.556,132.24,4.458,11.777,3.877,23.35,8.3,34.59,13.189a587.384,587.384,0,0,1,135.7,83.96c42.015,33.92,80.061,75.5,124.2,111.071,45.5,36.637,92.171,74.434,143.378,98.431,43.525,20.425,92.453,29.157,136.874,13.617a139.862,139.862,0,0,0,23.606-10.869c47.135-27.478,77.68-81.243,101.286-138.518,7.425-18.1,14.21-36.637,20.662-54.681,16.872-47.445,34.385-95.806,54.407-140.533,32.746-72.572,75.734-129.451,132.061-171.827,26.346-19.845,58.375-36.881,92.171-37.889,48.006-1.435,89.944,19.2,130.09,28.729,3.175.763,6.35,1.466,9.524,2.076,48.185,9.5,96.063,3.633,139.486-21.83,46.239-27.111,87.563-79.716,98.188-148.288" transform="translate(313.864 206.562)"/><path class="f" d="M-230.15,424.316c35.981-42.361,76.586-78.746,120.719-108.171a270.734,270.734,0,0,1,61.447-32.393c43.167-14.9,87.716-11.022,129.654.824,11.649,3.3,23.043,7.114,34.308,11.388a563.746,563.746,0,0,1,135.543,76.327c41.861,31.569,80.419,70.4,123.842,104.629,46.879,36.85,94.322,75.9,146.476,100.965,44.37,21.371,94.45,30.531,139.9,15.265a137.609,137.609,0,0,0,24.2-10.9c48.339-27.661,79.37-82.769,103.846-141.266,7.681-18.318,14.7-37.278,21.43-55.749,17.641-48.544,36.254-97.7,57.633-143.189,34.9-73.549,80.6-131.008,139.947-172.011,26.09-18.013,57.249-33.431,89.765-34.836,46.393-2.015,87.614,15.021,126.966,21.1,3.1.489,6.221.916,9.345,1.282,47.135,5.312,93.042-4.854,133.6-33.065,43.193-29.951,80.394-83.135,88.766-149.845" transform="translate(317.406 198.329)"/><path class="f" d="M-227.87,456.037c35.1-41.463,74.963-76.773,118.389-104.873a278.026,278.026,0,0,1,60.167-31.05c42.143-14.594,85.719-12.548,127.094-2.839,11.521,2.717,22.864,6.106,34,9.587a539.6,539.6,0,0,1,135.313,68.481c42.168,29.065,81.213,65.244,123.97,98.187,48.262,37.186,96.4,77.243,149.6,103.316,45.215,22.013,96.421,32.21,142.917,16.792a138.91,138.91,0,0,0,24.784-10.991c49.568-27.936,81.316-84.235,106.407-143.983,7.911-18.838,15.183-38.011,22.2-56.818,18.357-49.216,38.046-99.286,60.833-145.327,37.125-74.648,85.387-132.87,147.807-172.285,25.808-16.3,56.1-30.012,87.486-31.813,44.78-2.565,85.284,10.9,123.842,13.525,3.047.214,6.094.336,9.14.427,46.086,1.191,90.046-13.342,127.734-44.239,40.12-32.851,73.2-86.585,79.37-151.433" transform="translate(320.963 190.178)"/><path class="f" d="M-225.6,487.993c34.242-40.573,73.367-74.829,116.085-101.637A290.8,290.8,0,0,1-50.628,356.65c41.119-14.288,83.722-14.044,124.534-6.473q17.052,3.206,33.668,7.816a516.889,516.889,0,0,1,135.236,60.7c42.348,26.531,81.93,59.993,123.945,91.593,49.67,37.4,98.5,78.739,152.748,105.728,46.086,22.837,98.419,33.767,145.938,18.319a141.606,141.606,0,0,0,25.373-11.052C741.585,595,773.947,537.514,799.806,476.544c8.142-19.2,15.644-38.744,23.043-58.008,19.049-50.071,39.839-100.965,64.008-147.647,39.4-75.716,90.123-134.977,155.693-172.56,25.6-14.624,54.944-26.562,85.207-28.76,43.192-3.053,82.954,6.717,120.719,5.892,2.97,0,5.94-.183,8.935-.4,44.526-2.605,87.2-22.022,121.871-55.444,37.048-35.721,66.005-90,69.922-152.99" transform="translate(324.505 181.822)"/><path class="f" d="M-223.33,519.57c33.388-39.664,71.78-72.846,113.781-98.34a301.561,301.561,0,0,1,57.863-28.363c40.12-14.014,81.725-15.662,121.973-10.105,11.24,1.5,22.377,3.542,33.284,6.106a498.083,498.083,0,0,1,134.98,52.849c42.5,23.967,82.57,54.681,123.893,85.059,51.206,37.583,100.62,80.2,155.9,108.171,46.879,23.661,100.39,35.294,148.959,20a142.315,142.315,0,0,0,25.987-11.083c51.974-28.607,84.9-87.287,111.527-149.6,8.372-19.57,16.13-39.507,23.709-58.986,19.766-50.956,41.656-102.706,67.208-150,41.631-76.816,94.732-137.389,163.553-172.835a228.308,228.308,0,0,1,82.877-25.615c41.58-3.725,80.624,2.6,117.57-1.71q4.378-.488,8.756-1.191c43.613-7.006,84.234-30.343,116.008-66.649a246.2,246.2,0,0,0,60.474-154.547" transform="translate(328.047 173.815)"/><path class="f" d="M-221.06,551.25c32.536-38.756,70.2-70.866,111.476-95.042a318.963,318.963,0,0,1,56.711-27.02c39.1-13.708,79.728-17.158,119.387-13.769,11.112.916,22.147,2.351,33.079,4.183a482.454,482.454,0,0,1,134.673,45.216c42.68,21.463,83.261,49.368,123.868,78.525,52.563,37.706,102.72,81.64,159.047,110.583,47.724,24.425,102.413,36.851,152.006,21.616a145.52,145.52,0,0,0,26.5-11.144c53.178-28.912,86.718-88.814,114.088-152.226,8.628-19.937,16.617-40.24,24.451-60.054,20.483-51.9,43.525-104.446,70.409-152.349,43.909-77.915,99.52-140.106,171.541-173.079a261.975,261.975,0,0,1,80.65-22.745c39.966-4.274,78.294-1.527,114.446-9.159,2.868-.611,5.71-1.313,8.551-2.046,42.679-11.413,81.225-38.67,110.093-77.854,30.929-41.491,51.616-96.874,51.053-156.1" transform="translate(331.589 165.706)"/><path class="f" d="M-218.78,583.124c31.67-37.879,68.6-68.939,109.146-91.806a343.054,343.054,0,0,1,55.559-25.677,320.907,320.907,0,0,1,116.827-17.4c10.984.336,21.891,1.16,32.746,2.381a468.082,468.082,0,0,1,134.468,37.461c42.86,18.929,83.953,44.056,123.868,71.992,54.1,37.8,104.794,83.135,162.17,112.995,48.646,25.31,104.358,38.377,155.027,23.234a144.883,144.883,0,0,0,27.139-11.235c54.381-29.218,88.536-90.28,116.674-154.944,8.833-20.3,17.077-40.972,25.193-61.062,21.225-52.727,45.292-106.186,73.609-154.7,46.086-78.983,104.179-143.1,179.222-173.354a315.436,315.436,0,0,1,78.448-19.876c38.4-4.854,75.965-5.709,111.323-16.914,2.791-.885,5.581-1.832,8.347-2.87,41.762-15.759,78.267-46.882,104.281-88.906,27.856-44.361,44.447-100.324,41.631-157.691" transform="translate(335.146 157.432)"/><path class="f" d="M-216.51,614.763A368.929,368.929,0,0,1,59.005,481.008c101.67-2.473,202.265,35.477,290.519,95.684,55.482,37.858,106.893,84.54,165.32,115.437s127.4,44.575,185.776,13.556c73.071-38.8,110.094-134.183,145.2-219.822C903.5,344.81,983.484,199.025,1109.759,155.122c62.907-21.86,131.651-15.754,192.459-44.85,84.311-40.362,140.408-151.8,130.576-259.512" transform="translate(338.688 149.24)"/></g><g transform="translate(-109.37 -231.119)"><path class="f" d="M-41.8,1715.544c-10.753-103.805,75.171-191.52,161.837-207.61s173.615,17.158,259.514,38.5,182.5,28.363,254.239-31.844c91.71-76.968,112.91-238.873,207.385-311.17,73.532-56.33,169.262-39.476,244.587,2.443,42.6,23.691,78.832,63.565,119.541,91.348,184.675,125.939,197.144,383.345,354.015,421.722,169.749,41.614,261.92-57.153,293.975-125.512,40.965-87.715,109.556-315.383-58.222-473.594-68.181-64.268-135.466-132.778-185.6-217.41-75.094-126.672-74.582-320.391,21.43-425.081,65.8-71.747,166.856-98,211.559-189.993,30.032-61.825,25.936-141.541,0-206.052S1771.822-34.331,1722.894-75.7" transform="translate(42.717 75.7)"/><path class="f" d="M-40.565,1714.05c-7.425-106.858,78.038-199.062,167.291-217.441,87.051-17.921,175.51,15.113,261.408,38.652,84.874,23.295,179.222,33.828,250.6-20.883,91.352-70.038,117.032-223.731,211.277-295.081,75.068-56.512,169.262-46.01,246.4-9.373,44.319,21.066,83.594,58.649,126.224,86.8,180.784,119.437,195.762,368.477,349.125,406.335,165.063,40.637,256.748-52.818,290.058-120.23,42.219-85.486,107.533-304.759-51-461.016-65.365-64.481-130.166-134.336-179.5-218.387-72.867-123.711-73.532-310.5,17.077-414.3,62.7-71.808,160.122-101.057,204.62-191.856,30.545-62.1,28.676-140.656,6.119-205.625C1836.35,25.909,1794.771-27.978,1747.866-72.4" transform="translate(45.371 82.475)"/><path class="f" d="M-39.233,1712.475c-4.1-109.758,80.906-206.541,172.744-227.18,87.588-19.662,177.4,13.036,263.3,38.835,83.876,25.188,175.714,39.263,246.994-9.984,90.968-63.076,120.975-208.8,215.246-278.929,76.477-56.939,169.365-52.635,248.2-21.188,46.086,18.318,88.331,53.7,132.932,82.25,176.662,113.208,194.174,353.578,344.234,390.8,160.3,39.689,251.423-48.453,286.013-114.766,43.346-83.1,105.562-294.256-43.73-448.8-62.6-64.756-124.918-135.832-173.436-219.425-70.665-120.688-72.483-300.667,12.8-403.464,59.578-71.717,153.311-103.927,197.63-193.535,31.057-62.344,31.415-139.831,12.085-205.228-19.714-66.71-57.812-123.467-102.848-170.973" transform="translate(47.931 89.209)"/><path class="f" d="M-37.8,1710.828c-.768-112.75,83.774-214.021,178.2-236.95,88.049-21.371,179.222,10.93,265.2,39.019,82.852,27.05,172.309,44.7,243.358.947C739.566,1457.7,774,1320.1,868.2,1251c77.962-57.184,169.544-59.321,250.015-33,47.9,15.663,93.042,48.85,139.614,77.732,172.514,107.224,192.715,338.678,339.37,375.529,155.488,38.774,246.072-44.086,281.942-109.3,44.447-80.785,103.616-283.937-36.484-436.285-59.835-65.062-119.439-137.389-167.342-220.4-68.156-117.94-71.458-290.9,8.372-392.687,56.506-72.022,146.476-107.316,190.769-195.642,31.441-62.8,34.206-139.129,18.1-204.831-16.642-67.9-51.206-127.436-94.45-177.9" transform="translate(50.386 96.046)"/><path class="f" d="M-36.28,1709.306c2.56-115.743,86.641-221.47,183.677-246.69,88.459-23.02,181.117,8.793,267.066,39.141,81.93,28.912,168.981,50.161,239.748,11.877,90.226-49.186,129.091-178.666,223.208-246.72,79.37-57.459,169.8-66.1,251.807-44.819,49.773,12.915,97.779,43.9,146.3,73.274,168.213,101.515,191.255,323.81,334.505,360.081,150.7,37.888,240.67-39.69,277.9-103.806,45.523-78.464,101.7-273.8-29.213-423.859-57.1-65.428-114.113-139.067-161.3-221.409-65.877-114.979-70.434-281.189,4.02-381.849,53.459-72.3,139.716-110.521,183.882-197.717,31.9-62.924,37-138.3,24.093-204.4-13.544-69.152-44.831-131.282-86.052-184.925" transform="translate(52.761 102.76)"/><path class="f" d="M-34.76,1707.628c5.914-118.7,89.611-228.829,189.13-256.459,88.92-24.668,183.011,6.655,268.961,39.323,80.855,30.745,165.576,55.78,236.112,22.807,89.944-42.041,133.136-163.584,227.2-230.63,80.957-57.7,170.082-72.969,253.625-56.6,51.642,10.106,102.413,39.018,152.979,68.633,163.86,95.99,189.8,308.91,329.615,344.662,145.938,36.943,235.37-35.355,273.954-98.371,46.547-76.143,99.852-263.816-21.993-411.372-54.355-65.885-108.762-140.655-155.181-222.417-63.573-112.048-69.436-271.724-.307-371.072,50.31-72.388,132.829-113.483,176.815-199.366,32.414-63.2,39.915-137.6,30.084-204.007-10.395-70.435-38.4-135.374-77.629-191.947" transform="translate(55.133 109.596)"/><path class="f" d="M-33.24,1706.064c9.243-121.7,92.376-236.217,194.584-266.2,89.381-26.257,184.88,4.457,270.856,39.507,79.856,32.516,162.17,61.245,232.5,33.585,89.611-35.051,137.233-148.473,231.171-214.511,82.442-58.008,170.415-79.93,255.417-68.42,53.562,7.267,107.123,34.164,159.687,64.115,159.3,90.708,188.337,294.135,324.75,329.367,141.1,36.118,229.942-31.05,269.806-92.905,47.571-73.884,97.983-254.078-14.747-398.946a1820.825,1820.825,0,0,1-149.113-223.424c-61.448-109.057-68.463-262.047-4.66-360.264,47.238-72.724,126.146-116.628,169.979-201.29,32.875-63.474,42.757-136.961,36.075-203.579-7.22-71.808-31.825-139.4-69.128-199" transform="translate(57.504 116.351)"/><path class="f" d="M-31.72,1704.458c12.6-124.658,95.244-243.544,200.037-275.968,89.867-27.813,186.9,2.259,272.75,39.691,78.858,34.316,158.74,66.74,228.867,44.665,89.2-28.088,141.3-133.388,235.165-198.45,83.953-58.192,170.773-87.013,257.235-80.235,55.456,4.335,111.758,29.34,166.42,59.535,154.592,85.486,186.9,279.143,319.886,313.856,136.311,35.081,224.54-26.653,265.761-87.441,48.646-71.594,96.242-244.52-7.476-386.489A2196.194,2196.194,0,0,1,1763.905,909.16c-59.041-106.094-67.515-252.612-9.012-349.424,44.165-73.06,119.387-119.711,163.066-203.152C1949.4,295.74,1964.095,224.7,1960,153.4A468.278,468.278,0,0,0,1899.192-52.59" transform="translate(59.876 123.147)"/><path class="f" d="M-30.2,1702.935c15.874-127.649,98.111-250.872,205.491-285.8,90.328-29.34,188.644,0,274.645,39.842,77.859,36.026,155.385,72.206,225.308,55.566,88.792-21.127,145.4-118.215,239.133-182.269,85.463-58.4,171.157-94.156,259.027-92.05,57.4,1.374,116.417,24.424,173.052,54.956,149.881,80.6,185.418,264.244,314.919,298.408,131.523,34.194,219.137-22.318,261.741-81.944,49.516-69.366,94.6-235.088-.256-374.064-46.086-67.656-92.786-145.327-136.926-225.439-56.788-103.133-66.568-243.27-13.365-338.617,40.965-73.488,112.654-122.826,156.179-205.075,32.007-60.684,48.69-131.071,48.057-202.755-1.01-75.347-19.122-148.959-52.409-213.014" transform="translate(62.248 129.86)"/><path class="f" d="M-28.68,1701.278c19.254-130.611,101-258.138,210.944-295.477,90.814-30.866,190.539-2.229,276.514,40.025,76.809,37.737,151.955,77.639,221.621,66.5,88.433-14.166,149.5-103.1,243.23-166.179,87.051-58.619,171.541-101.393,260.845-103.8,59.323-1.648,121,19.784,179.734,50.467,145.093,75.808,183.933,249.345,310.105,282.99,126.735,33.248,213.684-17.983,257.7-76.51,50.464-67.168,93.093-226.142,7.015-361.606-43.525-68.42-87.512-146.854-130.858-226.448-54.535-100.11-65.774-234.019-17.717-327.81,37.918-73.976,105.894-125.878,149.215-206.938,32.608-60.621,51.25-130.416,54.048-202.358,2.5-76.807-12.755-152.955-44.089-220.127" transform="translate(64.619 136.677)"/><path class="f" d="M-27.16,1699.776c22.582-133.6,103.9-265.4,216.4-305.308,91.3-32.333,192.459-4.488,278.434,40.178,75.913,39.446,148.5,83.136,218.011,77.426,88.024-7.2,153.619-87.929,247.1-150.059,88.51-58.8,171.9-108.689,262.663-115.65,61.217-4.7,125.583,15.082,186.391,45.8,140.28,71.168,182.5,234.477,305.266,267.6,121.922,32.332,208.2-13.708,253.625-71.045,51.411-64.879,91.71-217.349,14.261-349.151-40.709-69.336-82.186-148.411-124.764-227.455-52.307-97.149-65.006-224.859-22.07-317,34.744-74.526,99.161-128.962,142.277-208.831,34.846-64.512,54.816-134.488,60.04-201.931,6.069-78.169-6.255-156.808-35.589-227.088" transform="translate(66.991 143.37)"/><path class="f" d="M-25.64,1698.027C.3,1561.554,81.151,1425.387,196.186,1383.01c91.787-33.828,194.354-6.808,280.354,40.362,74.915,41.094,145.119,88.539,214.349,88.356,87.64-.275,157.716-72.786,251.09-133.97,90.046-58.985,172.232-116.017,264.455-127.435,63.163-7.816,130.192,10.411,193.1,41.37,135.39,66.649,181.014,219.577,300.376,252.153,117.16,31.417,202.726-9.372,249.579-65.549,52.307-62.68,90.533-208.77,21.532-336.724-37.918-70.221-76.809-149.937-118.7-228.462-50.08-94.126-64.315-215.792-26.423-306.194,31.518-75.136,92.427-132.046,135.364-210.663,35.358-64.786,57.94-133.878,66.031-201.5,9.628-79.533.2-160.691-27.191-234.11" transform="translate(69.363 150.309)"/><path class="f" d="M-24.12,1696.565c29.264-139.588,109.709-279.846,227.3-324.849,92.171-35.262,196.3-9.159,282.249,40.545,73.942,42.743,141.714,93.974,210.74,99.256,87.255,6.686,161.812-57.58,255.058-117.819,91.583-59.168,172.591-123.5,266.273-139.281,65.057-10.961,134.724,5.8,199.7,36.851,130.448,62.222,179.5,204.984,295.486,236.736,112.321,30.775,197.144-5.129,245.56-60.084,53.178-60.512,89.611-200.435,28.752-324.3-35-71.381-71.689-151.463-112.654-229.47-47.878-91.1-63.726-206.785-30.724-295.355,28.163-75.808,85.694-135.1,128.425-212.586,35.844-65.031,61.115-133.237,72.047-201.137,13.206-80.887,6.684-164.593-18.793-241.193" transform="translate(71.734 156.961)"/><path class="f" d="M-22.6,1694.847C9.993,1552.3,90.054,1407.857,210.158,1360.321c92.786-36.637,198.22-11.51,284.195,40.7,72.995,44.391,138.257,99.439,207.1,110.216,86.872,13.586,165.934-42.407,259.053-101.729s172.9-130.947,268.065-151.1c66.952-14.136,139.281,1.282,206.464,32.3,125.455,58.008,178.044,190.116,290.647,221.348,107.533,29.829,191.691-.885,241.489-54.619,54.048-58.375,88.741-192.344,36.024-311.842-32.081-72.6-66.389-152.99-106.586-230.477-45.676-88.112-63.214-197.9-35.128-284.547C1886.319,554,1940.47,492.391,1983,416.064c36.51-65.244,64.289-132.565,78.013-200.71A515.949,515.949,0,0,0,2050.641-32.77" transform="translate(74.106 163.839)"/><path class="f" d="M-21.07,1693.262C14.954,1547.722,94.451,1399.1,217.219,1348.9c93.3-38.1,200.165-13.892,286.038,40.881,72.073,45.979,134.9,104.842,203.494,121.115,86.487,20.516,170.031-27.172,263.021-85.486,94.732-59.475,173.18-138.457,269.883-162.882,68.821-17.4,143.787-3.206,213.146,27.752,120.514,53.765,176.662,175.216,285.757,205.931,102.72,28.883,186.186,3.328,237.444-49.185,54.919-56.207,88.228-184.345,43.269-299.385-28.881-73.885-61.064-154.486-100.441-231.485-43.525-85.058-62.856-189.047-39.454-273.739,21.327-77.334,72.252-141.235,114.574-216.372,36.894-65.489,67.49-131.893,84-200.313a523.9,523.9,0,0,0-1.946-255.207" transform="translate(76.493 170.614)"/><path class="f" d="M-19.55,1691.76c39.25-148.5,118.44-301.278,243.64-354.158,93.81-39.507,202.265-16.3,287.933,41.064,71.126,47.536,131.5,110.277,199.858,132.045,86.1,27.479,174.1-11.967,267.015-69.517,96.216-59.627,173.436-146,271.675-174.7,70.69-20.639,148.293-7.572,219.854,23.2,115.5,49.735,175.1,160.317,280.867,190.512,97.932,27.966,180.63,7.541,233.4-43.689,55.764-54.1,88-176.59,50.541-286.99-25.6-75.289-55.815-155.982-94.373-232.462-41.323-82.036-62.6-180.132-43.807-262.932,17.743-78.159,65.544-144.319,107.533-218.265,37.432-65.733,70.741-131.283,90.021-199.885a531.808,531.808,0,0,0,6.427-262.2" transform="translate(78.865 177.307)"/><path class="f" d="M-18,1690.123c42.5-151.463,121.308-308.361,249.016-363.866,94.322-40.942,204.108-18.776,289.828,41.186,70.229,49.124,128.016,115.712,196.248,142.976,85.719,34.317,178.3,3.266,270.984-53.4,97.779-59.718,173.692-153.57,273.493-186.483,72.508-23.935,152.748-11.876,226.537,18.655,110.452,45.8,173.641,145.418,276,175.095,93.119,27.019,175.074,11.693,229.353-38.225,56.583-52.055,88.024-168.9,57.761-274.5-21.993-76.785-50.566-157.508-88.254-233.5-39.173-78.983-62.5-171.4-48.185-252.123,14-78.983,58.887-147.342,100.723-220.127,37.944-65.977,73.993-130.458,95.986-199.488,27.595-85.9,32.771-179.747,14.85-269.221" transform="translate(81.284 184.103)"/><path class="f" d="M-16.51,1688.476C29.422,1534.021,107.844,1373,238.036,1314.932c94.732-42.316,206.105-21.219,291.722,41.369,69.308,50.681,124.738,120.932,192.613,153.9,85.438,41,182.448,18.472,274.978-37.277,99.34-59.871,173.9-161.2,275.285-198.451,74.249-27.233,157.2-16.028,233.219,14.136,105.434,41.827,172.258,130.245,271.137,159.676,88.382,25.859,169.518,15.845,225.308-32.76,57.4-50.01,88.408-161.232,65.032-262.076a1115.087,1115.087,0,0,0-82.186-234.507c-37.022-75.9-62.523-162.547-52.538-241.193,10.241-79.808,52.128-150.395,93.784-222.02,38.4-66.191,77.27-129.7,102-199.092,31.192-87.088,39.3-183.469,23.248-276.212" transform="translate(83.608 190.939)"/><path class="f" d="M-15,1686.892c49.286-157.478,127.324-322.558,260.026-383.406,95.372-43.69,208.128-23.692,293.617,41.553,68.437,52.208,121.359,126.4,189,164.865,85.054,47.965,186.57,33.737,279.074-21.157,100.9-59.963,174.1-168.805,277.1-210.114,76.118-30.531,161.607-20.089,239.9,9.556,100.364,38.042,170.773,115.376,266.273,144.289,83.594,24.944,163.86,19.937,221.262-27.295,58.222-47.994,89.125-153.479,72.277-249.65-14.97-82.726-40.641-162.17-76.092-235.485-34.9-72.846-62.651-153.692-56.89-230.508,6.042-80.571,45.446-153.418,86.871-223.913,39.019-66.4,80.547-128.87,107.994-198.664,34.771-88.268,45.823-187.19,31.646-283.235" transform="translate(85.964 197.715)"/><path class="f" d="M-13.47,1685.368c52.589-160.439,130.269-329.733,265.453-393.084,95.909-45.033,210.151-26.2,295.512,41.7,67.567,53.734,117.954,131.863,185.367,175.766,84.7,54.955,190.795,49.186,282.94-5.068,102.566-59.81,174.255-176.437,278.9-221.928,77.911-33.889,166.011-23.966,246.609,5.037,95.269,34.286,169.314,100.569,261.382,128.84,78.781,24.028,158.33,24.028,217.192-21.829s90.123-145.54,79.549-237.163c-9.4-81.334-34.974-161.813-70.025-236.522-32.8-69.763-62.907-144.686-61.243-219.669,1.818-81.3,38.865-156.379,79.933-225.928,39.685-66.527,83.85-128.23,113.985-198.267,38.373-89.418,52.381-190.889,40.069-290.257" transform="translate(88.352 204.428)"/><path class="f" d="M-11.95,1683.762c55.917-163.493,133.316-336.48,270.907-403.007,96.5-46.224,212.2-28.729,297.406,41.888,66.568,55.261,114.574,137.389,181.782,186.665,84.311,61.855,194.891,64.36,286.909,11.052,104.1-59.962,174.383-184.071,280.713-233.744,79.677-37.216,170.338-27.63,253.266.52,90.3,30.531,167.854,85.486,256.518,113.422,74.019,23.111,152.749,28.057,213.172-16.365,59.835-43.994,91.378-137.388,86.769-224.737-4.353-82.617-29.8-163.34-64.008-237.5-30.724-66.71-63.265-135.587-65.6-208.892-2.56-81.884,32.132-159.432,73.02-227.669,40.2-66.8,87.051-127.222,119.977-197.84,41.97-90.528,58.947-194.527,48.518-297.217" transform="translate(90.723 211.286)"/><path class="f" d="M-10.43,1682.086c59.271-166.394,136.234-343.625,276.36-412.594,97.01-47.719,214.273-31.263,299.3,42.072,65.851,56.757,111.169,142.732,178.172,197.5,83.953,68.786,198.988,79.533,290.9,27.173,105.613-60.176,174.511-191.734,282.505-245.56,81.444-40.606,174.69-31.111,259.974-4.06s166.421,70.74,251.628,98.034c69.129,22.166,147.167,32.088,209.127-10.9,60.654-42.071,92.914-128.626,94.04-212.281s-24.707-164.867-57.863-238.537c-28.6-63.6-63.726-126.276-69.948-198.053-7.118-82.433,25.4-162.516,66.082-229.561s90.43-126.367,125.968-197.443c45.525-91.658,65.43-198.2,56.839-304.239" transform="translate(93.095 218.061)"/></g><g transform="translate(923.07 -880.266)"><path class="f" d="M425.741,2621.574c-74.608-54.956-78.115-189.871-34.359-280.517s120-150.64,187.748-217.074,132.88-151.86,138.462-256.245c7.169-133.451-85.387-254.627-73.532-387.742,9.243-103.621,80.24-182.055,154.848-225.927,42.168-24.76,90.917-33.432,134.6-53.887,198.117-92.478,374.164,57.215,497.546-64.39C1564.621,1003.96,1557.81,856.4,1533.129,783.71c-31.62-93.149-137.515-299.416-346.052-242.6-84.7,23.081-171.541,42.743-258.361,36.3C798.856,567.674,672.581,445.8,664.286,291c-5.556-106.095,40.53-216.464,8.347-315.628C651.049-91.3,596.361-137.343,538.037-153.8s-119.848-6.564-177.507,12.945" transform="translate(-360.53 547.433)"/><path class="f" d="M427.673,2629.209c-74.454-59.993-81.213-197.26-37.3-291.722,42.885-92.2,119.823-153.631,189.028-218.723,68.386-64.3,134.314-145.266,143.378-246.018,11.445-128.779-72.918-248.949-60.5-381.208,10.088-105.179,75.965-186.238,148.242-234.9,41.528-28,90.686-40.941,135.7-62.954,191.307-93.18,363.411,49,484.309-69.916,129.962-127.954,126.3-271.724,103.13-345-29.392-92.753-131.831-290.868-333.379-241.529-82.98,20.364-169.16,36.973-255.11,30.134C818.607,557.6,696.147,441.155,685.087,291.981c-7.681-103.255,34.232-212.128,2.765-310.376-21.43-67.168-73.967-114.765-130.576-134.519-57.121-19.906-118.389-15.052-176.815.763" transform="translate(-356.547 539.434)"/><path class="f" d="M431.132,2637.954c-74.249-64.97-84.337-204.556-40.274-302.9,42.015-93.73,119.644-156.715,190.334-220.4,69-62.16,135.7-138.7,148.217-235.789,15.746-124.077-60.68-243.269-47.494-374.826,10.728-106.859,71.689-190.391,141.662-243.972,40.965-31.325,90.456-48.453,137.054-71.992,184.7-93.363,352.76,41.033,471.1-75.075,126.377-124.077,125.839-264.031,104.153-337.7-27.139-92.325-126.2-282.471-320.679-240.461-81.521,17.586-167.035,30.989-252.063,23.723-123.151-9.953-241.95-120.994-255.75-264.611C697.738,193.505,735.554,86.159,704.6-11.173,683.323-79.1,632.911-127.984,578.043-151c-55.969-23.478-116.9-23.6-176.15-11.449" transform="translate(-354.169 530.319)"/><path class="f" d="M434.634,2647.726c-74.249-69.916-87.409-211.915-43.218-314.071,41.2-95.195,119.439-159.736,191.614-222.02,69.589-60.115,137.182-132.137,153.107-225.592,20.047-119.406-48.313-237.621-34.462-368.446,11.47-108.292,67.464-194.725,135.057-253.039,40.248-34.713,90.2-55.932,138.257-81.059,178.172-93.18,342.109,33.065,458.04-80.174,122.767-120.231,125.455-256.459,105.2-330.557-24.963-91.9-120.668-274.167-308.031-239.392-79.984,14.838-164.68,24.852-248.888,17.464C861.541,540.305,746.4,434.974,729.889,297.036c-11.675-97.7,21.609-203.4-8.347-299.874-21.276-68.481-69.461-119.07-122.537-145.144-54.816-27.081-115.445-32.149-175.458-23.661" transform="translate(-351.859 520.152)"/><path class="f" d="M438.132,2658.62c-74.044-74.892-90.482-219.242-46.086-325.246,40.376-96.659,119.234-162.85,192.92-223.7,70.178-58.009,138.615-125.574,157.946-215.365,24.374-114.7-35.844-232.034-21.43-362.034,12.238-109.911,63.189-199.244,128.5-262.137,39.608-38.164,89.918-63.351,139.46-90.127,171.721-92.752,331.484,25.1,444.932-85.3,119.157-116.323,124.867-248.612,106.253-323.352-22.787-91.44-115.214-266.015-295.358-238.354-78.525,12.212-162.375,18.929-245.79,11.174-116.392-10.808-227.868-110.7-247.045-242.995-13.749-94.89,15.362-199-13.928-294.592C717.359-62.5,671.274-114.464,619.991-143.866,566.224-174.61,506.006-184.533,445.2-179.739" transform="translate(-349.519 508.892)"/><path class="f" d="M441.673,2670.376c-73.891-79.869-93.5-226.539-49.132-336.418,39.608-98.127,119-165.935,194.2-225.378,70.767-55.872,140.2-118.918,162.836-205.168,28.855-109.911-23.5-226.234-8.4-355.623,13.006-111.407,58.887-203.824,121.9-271.206,38.942-41.645,89.611-70.77,140.817-99.194,165.345-92.05,320.833,17.128,431.8-90.432,115.547-112.445,124.354-240.888,107.277-316.147-20.483-90.982-109.915-258.047-282.659-237.316-77.117,9.159-160.071,13.006-242.616,4.885C904.654,527.3,796.686,432.772,774.975,306.344,759.152,214.172,784.038,111.68,755.465,17,734.445-52.729,690.51-106.28,640.993-138.7c-52.563-34.5-112.526-49.216-174.1-48.086" transform="translate(-347.249 496.647)"/><path class="f" d="M445.254,2683.168c-73.763-84.843-96.549-233.836-52.1-347.623,38.84-99.531,118.747-169.049,195.506-227,71.279-53.825,141.637-112.353,167.7-194.969,33.284-105.21-11.086-220.555,4.609-349.242,13.8-112.964,54.535-208.495,115.214-280.273,38.4-45.216,89.432-78.16,141.918-108.232,159.021-91.2,310.182,9.159,418.663-95.562,111.963-108.6,123.817-233.163,108.327-309C1526.6,680.806,1440.423,520.916,1275.1,535.052a1290.935,1290.935,0,0,1-239.466-1.4C925.953,522.29,821.466,433.079,797.271,312.3c-17.922-89.486,2.791-190.329-25.091-284.12-20.892-70.221-62.728-125.543-110.452-161.05-51.437-38.286-111.041-57.764-173.436-60.329" transform="translate(-344.992 483.609)"/><path class="f" d="M448.868,2695.8c-73.609-89.792-99.52-241.193-55.072-358.8,38.149-100.965,118.517-172.195,196.837-228.676,71.817-51.9,143.07-105.76,172.565-184.743,37.509-100.477,1.357-214.876,17.641-342.86,14.568-114.461,50.131-213.228,108.711-289.341,37.585-48.85,89.2-85.486,143.147-117.3,152.774-90.1,299.557,1.19,405.528-100.751C1546.578,968.61,1561.5,847.921,1547.6,771.533c-16.386-89.974-101.8-267.755-257.337-235.087-73.353,15.266-155.437,1.13-236.291-7.694-106.33-11.571-207.386-95.5-234.038-210.51-20.1-86.83-3.456-185.994-30.724-278.869-20.083-67.326-57.3-125.49-106.458-166.362A314.457,314.457,0,0,0,510.009-199.53" transform="translate(-342.692 470.613)"/><path class="f" d="M452.423,2708.471c-73.481-94.646-102.413-248.369-58.042-370,37.432-102.248,118.235-175.309,198.245-230.294,72.329-49.795,144.53-99.195,177.455-174.545,41.81-95.775,13.8-209.227,30.724-336.449,15.362-116.017,45.676-218.082,102.131-298.439,36.843-52.483,88.945-92.814,144.351-126.368,146.578-88.813,288.88-6.778,392.394-105.819,104.743-100.752,122.69-217.624,110.4-294.592-14.286-89.486-96.37-262.565-244.638-234.141-72.252,13.831-153.132-4.763-233.142-13.952C969.325,512.052,871.547,433.374,842.59,324.135c-22.3-84.174-9.7-181.628-36.2-273.587C786.779-17.214,751.225-76.813,703.974-121.126,654.1-167.411,594.626-196.7,531.9-205.88" transform="translate(-340.512 457.576)"/><path class="f" d="M456.057,2721.191c-73.3-99.713-105.434-255.573-60.987-381.146C431.811,2236.24,513,2161.531,594.493,2108.011c72.841-47.812,145.938-92.6,182.294-164.317,46.086-91.074,26.269-203.549,43.7-330.069,16.181-117.573,41.2-222.875,95.551-307.506,36.1-56.145,88.74-100.08,145.579-135.435,140.459-87.379,278.229-14.716,379.259-110.918,101.132-96.966,122.127-209.869,111.45-287.448-12.238-88.936-90.865-256.978-231.964-233.073-71.279,12.212-150.8-10.686-229.993-20.242C990.753,506.975,896.2,433.518,865.067,330.11c-24.6-81.578-15.951-177.292-41.784-268.335C804.117-6.552,770.168-67.635,724.865-115.3c-48.6-50.444-107.885-83.988-171.388-96.966" transform="translate(-338.333 444.457)"/><path class="f" d="M459.726,2733.7c-73.174-104.69-108.378-262.81-64.008-392.351,36.049-105.118,117.621-181.689,200.7-233.621,73.327-45.8,147.4-85.975,187.184-154.09,50.438-86.341,38.763-197.839,56.737-323.626,17-119.07,36.638-227.851,88.945-316.574,35.307-59.871,88.536-107.285,146.809-144.5,134.391-85.792,267.578-22.685,366.125-116.017,97.548-93.088,121.513-202.084,112.475-280.242-10.241-88.539-85.259-251.177-219.266-232.034-70.485,10.075-148.5-16.578-226.844-26.531-96.268-12.213-187.7-80.449-221.032-178.086-26.935-78.983-22.172-172.957-47.34-263.084-20.355-72.816-53.562-135.19-94.4-182.33-47.295-54.6-106.414-92.392-170.722-109.147" transform="translate(-336.165 431.584)"/><path class="f" d="M463.365,2746.389c-73.02-109.667-111.271-270.044-66.9-403.525,35.384-106.491,117.314-184.926,202.009-235.271,73.814-43.9,148.806-79.379,192.023-143.891,54.74-81.64,51.206-192.161,69.743-317.307,17.922-120.628,32.055-232.8,82.365-325.642,34.462-63.6,88.382-114.46,148.037-153.539,128.374-84.082,256.927-30.531,353.016-121.207,93.912-89.211,120.847-194.3,113.5-273.037-8.193-87.9-79.754-214.937-206.618-230.966-69.692-8.823-146.168-22.471-223.669-32.821-92.914-12.426-181.347-75.411-216.68-167.248C880.8,265.608,881.772,173.313,857.244,84.1,837.069,10.676,806.037-53.592,766.89-103.54,720.945-162.305,662-204.377,596.86-224.9" transform="translate(-333.992 418.527)"/><path class="f" d="M467.055,2759.04c-72.892-114.644-114.164-277.25-69.871-414.73,34.744-107.866,116.981-188.162,203.315-236.92,74.249-41.949,150.214-72.846,196.914-133.664,58.887-76.938,63.726-186.482,82.775-310.9,18.69-122.123,27.4-237.774,75.785-334.74,33.591-67.351,88.2-121.6,149.241-162.607,122.409-82.433,246.43-38.408,339.882-126.336,90.456-85.09,120.207-186.513,114.548-265.863-6.247-87.318-74.94-208.739-193.944-229.9-68.591-12.213-143.864-28.333-220.52-39.11-89.611-12.579-175.1-70.221-212.353-156.44-31.876-73.7-34.641-164.286-58.5-252.551C854.3,21.219,825.525-44.971,787.99-97.668,743.415-160.6,684.634-206.956,618.625-231.24" transform="translate(-331.845 405.51)"/><path class="f" d="M470.746,2771.69c-72.739-119.589-117.032-284.455-72.841-425.9,34.155-109.24,116.674-191.458,204.62-238.6,74.736-40.056,151.647-66.252,201.778-123.467,63.317-72.2,76.246-180.773,95.807-304.483s22.736-242.751,69.129-343.807c32.7-71.106,88.075-128.657,150.47-171.675,116.494-80.326,235.779-46.376,326.747-131.282,86.846-81.243,119.515-178.758,115.573-258.688-4.276-86.8-70.1-202.969-181.245-228.981-67.515-15.693-141.56-34.164-217.4-45.369-86.18-12.731-168.981-65.214-208-145.632-34.462-71.045-40.837-159.951-64.008-247.3C871.512,31.793,845.013-36.29,809.066-91.765c-43.188-67.081-101.8-117.742-168.7-145.815" transform="translate(-329.724 392.493)"/><path class="f" d="M474.462,2784.513c-72.61-124.565-119.874-291.66-75.811-437.079,33.54-110.613,116.315-194.786,205.926-240.247,75.2-38.194,153.056-59.688,206.643-113.27,67.592-67.535,88.766-175.064,108.839-298.1,20.483-125.176,17.922-247.7,62.6-352.875,31.748-74.861,88-135.649,151.673-180.743,110.657-78.311,225.154-54.344,313.638-136.564,83.236-77.365,118.824-170.973,116.622-251.482-2.355-86.281-65.237-197.5-168.6-227.791-66.389-19.631-139.23-40.178-214.222-51.841-82.852-12.854-162.939-59.993-203.648-134.794-37.176-68.3-47.059-155.707-69.641-242.048C888.773,42.358,864.578-27.68,830.193-85.9c-41.764-71.217-100.2-126.182-168.008-158.027" transform="translate(-327.603 379.456)"/><path class="f" d="M478.172,2796.98c-72.457-129.512-122.69-298.835-78.755-448.253,32.926-111.957,115.982-198.084,207.206-241.9,75.657-36.331,154.464-53.123,211.533-103.041C890.025,1940.927,919.442,1834.405,940,1712.1c21.327-126.794,13.237-252.7,56.02-361.973,30.724-78.618,87.947-142.58,152.9-189.781,104.973-76.327,214.5-62.344,300.5-141.724,79.626-73.488,118.082-163.157,117.775-244.247-.461-85.7-60.321-192.344-155.923-226.722-65.237-23.417-136.925-45.8-211.072-58.009-79.37-12.976-157.024-54.742-199.321-123.986-40.069-65.55-53.357-151.341-75.3-236.8C906.052,52.9,884.161-19.091,851.338-80.03,811.018-155.382,752.748-214.661,684-250.27" transform="translate(-325.501 366.44)"/><path class="f" d="M481.9,2809.631C409.576,2675.142,356.45,2503.589,400.18,2350.2c32.337-113.3,115.624-201.5,208.512-243.575,76.092-34.469,155.872-46.56,216.4-92.814,76.144-58.192,113.832-163.676,134.877-285.31,22.2-128.23,8.423-257.65,49.414-371.041,29.8-82.433,87.947-149.418,154.131-198.847,99.11-74.037,203.827-70.221,287.37-146.823,76.016-69.641,117.339-155.4,118.7-237.133,1.434-85.181-55.226-187.642-143.224-225.684-64.008-27.661-134.622-51.658-207.923-64.115-76.144-13.19-151.187-49.43-194.865-113.3-42.962-62.5-59.553-146.975-80.906-231.515-19.33-76.6-38.891-150.517-70.229-214.2C833.566-153.621,775.466-217.22,705.753-256.61" transform="translate(-323.396 353.423)"/><path class="f" d="M485.674,2822.28c-72.2-139.464-128.3-313.185-84.7-470.632,31.774-114.643,115.214-204.831,209.792-245.193,76.553-32.7,157.254-40.056,221.262-82.616,80.317-53.7,126.377-157.967,147.884-278.93,23.043-129.817,3.61-262.565,42.86-380.109,28.778-86.127,88-156.165,155.334-207.915,93.4-71.777,193.048-78.464,274.235-151.952,72.3-65.947,116.571-147.555,119.772-229.989,3.277-84.692-49.977-183.185-130.576-224.646a738.392,738.392,0,0,0-204.825-70.5c-72.739-13.22-145.349-43.751-190.564-102.309-45.83-59.382-65.621-142.67-86.359-226.264C940.642,73.988,923.437-1.85,893.584-68.285,856.2-151.84,798.279-219.764,727.6-262.95" transform="translate(-321.327 340.407)"/><path class="f" d="M489.431,2835.053c-72.047-144.441-131.063-320.39-87.64-481.807,31.185-116.017,114.881-208.28,211.1-246.872,76.989-30.9,158.739-33.583,226.127-72.388,84.644-49,138.948-152.287,160.941-272.549,24.016-131.283-1.28-267.541,36.254-389.175,27.7-89.884,88.178-162.852,156.538-216.983,87.742-69.458,182.4-86.433,261.152-157.081,68.668-62.069,115.752-139.862,120.77-222.875,5.121-84.174-44.473-178.972-117.775-223.547-63.452-37.918-131.465-63.833-201.6-76.815-69.487-13.22-139.691-38.041-186.289-91.592-48.9-56.116-71.689-138.366-91.941-221.013C958.122,84.472,943.3,6.649,914.878-62.473c-35.912-87.626-93.652-159.88-165.32-206.877" transform="translate(-319.246 327.267)"/><path class="f" d="M493.2,2847.6c-71.919-149.388-133.828-327.566-90.609-493.012,30.724-117.33,114.523-211.731,212.506-248.521,77.424-29.1,160.071-27.019,230.992-62.161,88.945-44.33,151.7-146.548,173.948-266.137,25.168-132.809-6.145-272.488,29.674-398.275,26.678-93.638,88.357-169.293,157.792-225.928,82.135-67.168,171.746-94.432,247.966-162.211,64.981-58.313,114.933-132.351,121.717-215.669s-38.686-174.941-105.2-222.509c-58.887-42.224-127.734-68.939-198.45-83.1-66.158-13.22-133.981-32.149-181.91-80.724-52-52.6-77.859-134.061-97.5-215.731-18.639-78.586-31.185-158.18-58.2-230.141C901.54-148.23,843.983-224.838,771.3-275.64" transform="translate(-317.205 314.353)"/><path class="f" d="M496.915,2860.189c-71.689-154.363-136.337-334.677-93.58-504.185,30.263-118.642,114.19-215.211,213.71-250.17,77.91-27.477,161.5-20.486,235.882-51.9,93.246-39.69,164.167-140.808,186.9-259.726,26.013-134.335-11.061-277.4,23.043-407.342,25.6-97.393,88.664-175.643,159.021-235.087,76.6-64.726,161.095-102.37,234.832-167.34,61.448-54.314,114.062-124.413,122.895-208.373,8.705-83.2-32.49-170.973-92.53-221.471-56.737-47.72-125.456-74.617-195.3-89.363-62.83-13.251-128.246-26.135-177.635-69.916-55.124-48.849-84.081-129.725-103.053-210.479-18.485-79.2-28.573-160.714-54.176-235.484-32.867-95.727-90.2-176.663-163.86-231.3" transform="translate(-315.107 301.398)"/><path class="f" d="M500.77,2872.9c-71.689-159.34-139.256-341.945-96.55-515.39,29.572-120.047,113.832-218.723,215.067-251.818,78.346-25.646,162.938-13.89,240.669-41.766,97.548-34.927,176.662-135.1,199.986-253.406,26.858-135.862-15.976-282.288,16.514-416.41,24.477-101.118,89.1-181.842,160.225-244.246S1387.1,1039.679,1458.4,977.549c57.863-50.437,113.166-116.689,123.894-201.2,10.5-82.739-25.859-166.912-79.831-220.4s-123.049-80.265-192.177-95.653c-59.5-13.25-122.485-19.876-173.282-59.077-58.273-44.941-90.328-125.421-108.634-205.228s-25.962-163.218-50.157-240.8C946.841-144.58,889.66-229.864,814.946-288.32" transform="translate(-313.125 288.32)"/></g></g></g></g></g></g></svg>