<svg xmlns="http://www.w3.org/2000/svg" width="6.869" height="7.164" viewBox="0 0 6.869 7.164"><defs><style>.a{fill:#fff;}</style></defs><g transform="translate(-62.434 -116)"><g transform="translate(59.5 116)"><g transform="translate(2.934 0)"><g transform="translate(0 0)"><path class="a" d="M117.824,3.386l3.314-3.3a.278.278,0,0,1,.392.393l-3.116,3.108L121.53,6.69a.278.278,0,0,1-.392.393l-3.314-3.3a.278.278,0,0,1,0-.393Z" transform="translate(-117.742 0)"/></g></g></g><g transform="translate(62.5 116)"><g transform="translate(2.934 0)"><g transform="translate(0 0)"><path class="a" d="M117.824,3.386l3.314-3.3a.278.278,0,0,1,.392.393l-3.116,3.108L121.53,6.69a.278.278,0,0,1-.392.393l-3.314-3.3a.278.278,0,0,1,0-.393Z" transform="translate(-117.742 0)"/></g></g></g></g></svg>