<svg xmlns="http://www.w3.org/2000/svg" xmlns:xlink="http://www.w3.org/1999/xlink" width="414" height="344" viewBox="0 0 414 344"><defs><style>.a{fill:#fff;stroke:#707070;opacity:0.195;}.b{fill:#f6f6f6;}.c{opacity:0.8;clip-path:url(#a);}.d{fill:none;stroke:#fff;stroke-miterlimit:10;stroke-width:2px;}</style><clipPath id="a"><rect class="a" width="414" height="344"/></clipPath></defs><g transform="translate(0 -2535)"><rect class="b" width="414" height="344" transform="translate(0 2535)"/><g class="c" transform="translate(0 2535)"><g transform="translate(-49.461 -235.025)"><path class="d" d="M89.94,744.08q27.746-88.9,59.931-169.644c9.513-23.877,19.584-47.643,32.2-61.881,32.26-36.325,70.834-1.047,101.216,43.1,28.016,40.716,53.842,89,76.934,143.839,22.854,54.308,43.366,115.666,71.06,156.094s65.7,55.437,92.452,11.732c15.922-26,25.506-69.152,29.133-113.463s1.843-90.082-1.26-134.613c-3.567-51-8.764-104.182-1.819-153.257,7.206-50.81,28.027-89.724,50.988-95.287,32.664-7.931,61.381,44.752,88.92,86.226,34.971,52.711,75.615,91.955,117.269,86.392s83.76-64.553,96.257-156.755" transform="translate(-89.94 -161.867)"/><path class="d" d="M93.57,761.132q27.226-87.442,59.1-166.312c9.418-23.3,19.37-46.459,31.773-60.449,24.912-28.09,53.592-13.77,79.3,13.77a257.6,257.6,0,0,1,20.215,24.979c27.692,38.495,53.307,84.488,76.3,137.009,22.771,51.967,43.176,111.287,70.573,150.145,15.363,21.839,33.568,36.793,51.5,39.491,15.613,2.314,31.107-4.875,44.056-25.391a116.525,116.525,0,0,0,6.576-12.007c12.711-26.741,20.429-65.186,23.782-104.65,1.065-12.513,1.784-25.17,2.152-37.895.951-33.405-.167-67.2-1.819-100.244-2.6-52.325-6.076-106.055,1.76-155.02s27.73-86.474,50.144-92.147c31.9-8.124,60.037,41.529,86.958,80.085,2.128,3.057,4.269,6.031,6.433,8.978,32.676,44.256,69.657,74.99,107.233,67.94,40.061-7.518,80.228-66.095,91.834-156.342" transform="translate(-89.254 -159.009)"/><path class="d" d="M97.2,786.751c17.814-57.3,37.281-111.737,58.266-162.951,9.322-22.747,19.168-45.275,31.345-59.044,24.472-27.54,52.57-14.761,77.874,11.016a242.606,242.606,0,0,1,19.953,23.409C312,635.462,337.4,679.173,360.287,729.386c22.664,49.571,43.01,106.936,70.157,144.445,15.946,22.031,34.626,37.674,53.1,41.034,16.053,2.754,32.106-3.883,45.554-24.537a110.194,110.194,0,0,0,6.825-12.2c13.247-27.237,21.154-66.839,24.793-107.4,1.139-12.975,1.933-26.1,2.378-39.3,1.189-34.314.547-69.069-.523-102.915-1.641-53.812-3.389-107.872,5.339-156.81,8.324-46.459,27.456-83.2,49.324-89.008,31.119-8.262,58.682,38.28,85,73.944q3.1,4.131,6.278,8.262c31.9,40.786,67.7,68.023,103.772,59.127,38.455-9.446,76.7-67.857,87.41-155.874" transform="translate(-88.567 -164.936)"/><path class="d" d="M100.82,813.294c17.484-56.347,36.685-109.726,57.457-159.729,9.2-22.169,18.942-44.063,30.916-57.612,24.008-27.181,51.535-15.7,76.435,8.262a231.009,231.009,0,0,1,19.715,22.141c27.036,34.046,52.218,75.456,75.008,123.35C382.945,797.128,403.219,852.235,430,888.367c16.54,22.307,35.673,38.556,54.7,42.576,16.5,3.443,33.14-2.919,47.052-23.712a107.9,107.9,0,0,0,7.135-12.365c13.77-27.76,21.867-68.546,25.768-110.379q1.831-20.006,2.664-40.4c1.474-35.251,1.248-70.969.761-105.614-.69-55.217-.749-109.607,8.918-158.572,8.74-44.311,27.183-79.865,48.5-85.9,30.346-8.51,57.326,35.058,83.023,67.8q3.044,3.883,6.136,7.6c31.142,37.316,65.733,61.082,100.3,50.342,36.862-11.429,73.177-69.537,83.011-155.46" transform="translate(-87.883 -171.706)"/><path class="d" d="M104.45,839.935c17.144-55.315,36.073-107.541,56.625-156.232,9.109-21.618,18.74-42.906,30.488-56.208,23.568-26.713,50.525-16.524,75.008,5.646a210,210,0,0,1,19.418,20.352c26.706,31.821,51.668,70.94,74.354,116.519,22.474,45.11,42.724,98.068,69.17,132.823,17.135,22.527,36.755,39.437,56.316,44.063,16.933,4.021,34.151-1.9,48.551-22.858a109.407,109.407,0,0,0,7.361-12.53c14.269-28.283,22.593-70.253,26.743-113.325q1.949-20.539,2.937-41.474c1.736-36.159,1.95-72.87,2.057-108.34.262-56.594,1.855-111.287,12.486-160.335,9.144-42.135,26.9-76.67,47.671-82.756,29.573-8.675,55.971,31.836,81.073,61.661,1.974,2.368,3.972,4.654,5.945,6.913,30.369,33.846,63.771,54.115,96.84,41.529C852.736,502,887.148,444.22,896.078,360.39" transform="translate(-87.196 -178.547)"/><path class="d" d="M108.08,866.524a1555.448,1555.448,0,0,1,55.792-152.9c9-21.04,18.514-41.7,30.048-54.776,23.128-26.245,49.5-17.57,73.581,2.892a191.131,191.131,0,0,1,19.144,18.837c26.385,29.574,51.137,66.392,73.724,109.662,22.379,42.851,42.605,93.634,68.706,127.039,17.729,22.72,37.8,40.29,57.921,45.661,17.373,4.572,35.161-.936,50.037-22.032a110.159,110.159,0,0,0,7.634-12.7c14.828-28.779,23.306-71.933,27.718-116.244q2.077-21.094,3.2-42.6c2.009-37.068,2.628-74.742,3.353-111.012,1.189-58.026,4.424-112.912,16.077-162.1,9.513-40.015,26.612-73.42,46.839-79.644,28.788-8.868,54.615,28.614,79.1,55.52,1.938,2.121,3.877,4.213,5.838,6.224,29.6,30.293,61.833,47.175,93.368,32.744,33.651-15.367,66.138-72.842,74.176-154.579" transform="translate(-86.51 -185.335)"/><path class="d" d="M111.71,893.147A1433.407,1433.407,0,0,1,166.682,743.58c8.906-20.461,18.312-40.51,29.62-53.371,22.676-25.777,48.479-18.479,72.154.193a189.066,189.066,0,0,1,18.871,17.267c26.058,27.357,50.6,61.893,73.082,102.86,22.272,40.538,42.474,89.035,68.23,121.174,18.336,22.913,38.86,41.309,59.526,47.2,17.836,5.15,36.172,0,51.524-21.178a105.693,105.693,0,0,0,7.9-12.861c15.363-29.3,24.032-73.641,28.7-119.164,1.486-14.513,2.6-29.164,3.472-43.705,2.271-38,3.318-76.643,4.649-113.738,2.116-59.4,6.944-114.592,19.644-163.86,9.8-37.839,26.327-70.116,46.006-76.395,28.027-9.061,53.271,25.391,77.148,49.406,1.879,1.873,3.781,3.718,5.684,5.508,28.836,26.879,59.847,40.208,89.907,23.932,32.046-17.295,62.606-74.357,69.764-154.221" transform="translate(-85.823 -192.157)"/><path class="d" d="M115.34,919.727a1322.516,1322.516,0,0,1,54.139-146.18c8.8-19.911,18.1-39.326,29.192-51.967,22.236-25.309,47.469-19.443,70.727-2.561a169.462,169.462,0,0,1,18.609,15.753c25.723,25.134,50.041,57.368,72.428,96,22.177,38.253,42.367,84.491,67.778,115.418,18.954,23.078,39.93,42.025,61.143,48.745,18.241,5.7,37.183,1.019,53.022-20.352a104.328,104.328,0,0,0,8.157-13.054c15.9-29.8,24.745-75.293,29.727-122.083,1.558-14.871,2.759-29.908,3.722-44.807,2.545-38.913,4.031-78.515,5.945-116.409,3.068-60.835,9.43-116.272,23.223-165.65,10.012-35.8,26.053-66.866,45.186-73.365,27.242-9.253,51.9,22.032,75.186,43.265q2.747,2.478,5.529,4.819c28.063,23.409,57.885,33.268,86.447,15.147,30.441-19.278,59.074-76.147,65.4-153.7" transform="translate(-85.137 -198.963)"/><path class="d" d="M119,946.333c15.8-51.392,33.655-99.219,53.331-142.847,8.692-19.278,17.836-38.142,28.752-50.535,21.8-24.786,46.375-20.269,69.289-5.288a158.647,158.647,0,0,1,18.348,14.21c25.4,22.886,49.5,52.83,71.786,89.173,22.081,35.967,42.272,79.865,67.291,109.58,19.561,23.243,40.988,42.907,62.737,50.287,18.693,6.279,38.206,2.01,54.52-19.526a99.807,99.807,0,0,0,8.431-13.191c16.421-30.294,25.47-77.111,30.667-125,1.641-15.257,2.925-30.679,4-45.908,2.806-39.85,4.756-80.388,7.23-119.136,4.031-62.212,11.891-117.924,26.8-167.385,10.2-33.791,25.768-63.616,44.365-70.253,26.469-9.446,50.548,18.947,73.213,37.123,1.784,1.432,3.567,2.754,5.387,4.131,27.349,19.911,55.887,26.3,82.975,6.334,28.847-21.233,55.555-77.771,60.929-153.23" transform="translate(-84.445 -205.768)"/><path class="d" d="M122.59,972.9c15.465-50.4,33.051-97.126,52.5-139.488,8.633-18.754,17.67-36.957,28.324-49.047,21.344-24.373,45.412-21.206,67.862-8.042a147.04,147.04,0,0,1,18.086,12.7c25.067,20.653,48.954,48.3,71.132,82.343,21.986,33.653,42.189,75.238,66.815,103.769,20.215,23.354,42.058,43.788,64.354,51.829,19.133,6.83,39.24,3,56.018-18.7a102.03,102.03,0,0,0,8.692-13.357c16.956-30.844,26.16-78.708,31.642-127.921,1.724-15.642,3.091-31.422,4.269-47.01,3.068-40.786,5.434-82.288,8.526-121.835,4.97-63.644,14.269-119.631,30.381-169.175,10.345-31.808,25.482-60.339,43.521-67.114,25.7-9.639,49.2,15.725,71.263,30.982,1.736,1.184,3.484,2.341,5.232,3.442,26.529,16.524,53.961,19.278,79.515-2.451,27.242-23.188,52.035-79.452,56.518-152.817" transform="translate(-83.766 -212.538)"/><path class="d" d="M126.22,999.685c15.126-49.44,32.446-95.075,51.678-136.155,8.478-18.2,17.444-35.8,27.884-47.7,20.9-23.932,44.389-22.032,66.435-10.768a152.146,152.146,0,0,1,17.836,11.016c24.741,18.424,48.417,43.783,70.5,75.513,21.879,31.367,42.094,70.611,66.34,97.958,20.809,23.491,43.1,44.669,65.959,53.371,19.573,7.408,40.227,3.993,57.5-17.846a100.69,100.69,0,0,0,8.954-13.522c17.492-31.34,26.909-80.388,32.629-130.868,1.807-16,3.258-32.166,4.53-48.112,3.341-41.667,6.148-84.161,9.822-124.534,5.945-65.048,16.647-121.394,33.961-170.91,10.464-29.88,25.209-57.089,42.7-64,24.971-9.832,47.837,12.5,69.289,24.785,1.7.964,3.389,1.873,5.1,2.754,25.744,12.971,51.987,12.393,76.043-11.264,25.625-25.143,48.5-81.076,52.094-152.376" transform="translate(-83.08 -219.519)"/><path class="d" d="M129.85,1026.159c14.793-48.445,31.844-92.97,50.846-132.768,8.324-17.653,17.242-34.59,27.456-46.294,20.464-23.463,43.378-23.078,65.008-13.494a138.276,138.276,0,0,1,17.539,9.584c24.411,16.194,47.873,39.261,69.859,68.684,21.784,29.081,42.011,65.9,65.876,92.147,21.4,23.574,44.163,45.523,67.564,54.914,20,7.959,41.238,4.957,58.991-17.019a100.756,100.756,0,0,0,9.227-13.77c18.015-31.808,27.623-82.013,33.6-133.7,1.891-16.524,3.425-33.048,4.756-49.213,3.567-42.6,6.849-86.061,11.118-127.233,6.885-66.453,18.895-123.239,37.528-172.7,10.547-27.98,24.971-53.812,41.868-60.835,24.15-10.024,46.494,9.253,67.339,18.672,1.641.743,3.294,1.432,4.946,2.065,24.971,9.5,50.025,5.508,72.535-20.049,24.032-27.126,44.984-82.756,47.683-151.935" transform="translate(-82.393 -226.219)"/><path class="d" d="M133.48,1052.675c14.456-47.476,31.239-90.911,50.013-129.436,8.324-17.075,17.028-33.378,27.04-44.89,20-22.968,42.344-23.987,63.569-16.221A119.145,119.145,0,0,1,291.38,870.2c24.079,13.937,47.323,34.7,69.205,61.826,21.689,26.8,41.939,61.22,65.4,86.336,22.082,23.629,45.186,46.4,69.17,56.456,20.452,8.537,42.26,5.948,60.5-16.166a96.988,96.988,0,0,0,9.513-13.77c18.55-32.359,28.348-83.748,34.579-136.707,1.962-16.744,3.567-33.653,5.078-50.315,3.865-43.512,7.586-87.906,12.4-129.9,7.9-67.83,21.154-125.195,41.107-174.49,10.607-26.163,24.65-50.563,41.048-57.7,23.378-10.217,45.185,6,65.4,12.53,1.605.5,3.2.964,4.756,1.377,24.21,6,48.051-1.515,69.11-28.861,22.426-29.082,41.452-84.381,43.271-151.467" transform="translate(-81.707 -232.989)"/><path class="d" d="M137.11,1079.389c14.118-46.51,30.638-88.849,49.193-126.076,8.181-16.523,16.814-32.221,26.6-43.484,19.561-22.527,41.333-24.785,62.142-18.947a108.179,108.179,0,0,1,17,6.527c23.75,11.719,46.781,30.219,68.563,55.079,21.594,24.483,41.88,56.456,64.937,80.525,22.712,23.656,46.291,47.257,70.775,58,20.892,9.088,43.271,6.912,61.987-15.339a97.719,97.719,0,0,0,9.763-14.045C587.1,1028.744,597.135,976.254,603.628,922c2.045-17.13,3.758-34.424,5.339-51.416,4.138-44.449,8.324-89.806,13.7-132.63,8.859-69.234,23.354-127.26,44.686-176.253,10.7-24.4,24.365-47.313,40.227-54.583,22.593-10.41,43.782,2.754,63.4,6.389,1.546.276,3.092.5,4.649.689,23.449,2.534,46.089-8.455,65.638-37.647C862.1,445.4,879.2,390.323,880.164,325.44" transform="translate(-81.02 -239.847)"/><path class="d" d="M140.73,1105.978c13.791-45.538,30.048-86.789,48.372-122.744,8.074-15.918,16.647-31.01,26.16-42.053,19.121-22.031,40.31-25.859,60.715-21.7a94.687,94.687,0,0,1,16.742,4.985c23.416,9.491,46.231,25.69,67.921,48.222,21.5,22.224,41.809,51.72,64.473,74.715,23.354,23.684,47.35,48.139,72.38,59.54,21.32,9.666,44.282,7.9,63.486-14.485a97.872,97.872,0,0,0,10.012-14.21c19.608-33.406,29.787-87.163,36.541-142.545,2.129-17.515,3.924-35.2,5.613-52.545,4.4-45.357,9-91.679,14.994-135.3,9.81-70.639,25.506-129.435,48.265-178.015,10.642-22.692,24.079-44.063,39.383-51.444,21.832-10.6,42.427-.441,61.452.248h4.495c22.676-.936,44.127-15.422,62.178-46.459C863.141,439.136,878.326,384.5,878.4,321.57" transform="translate(-80.336 -246.635)"/><path class="d" d="M144.36,1132.7c13.462-44.565,29.461-84.713,47.564-119.357,7.873-15.8,16.508-29.438,25.732-40.648,18.669-21.591,39.24-26.823,59.288-24.427a99.933,99.933,0,0,1,16.469,3.442c23.082,7.22,45.684,21.1,67.279,41.309,21.4,19.911,41.737,46.818,63.985,68.849,24.008,23.684,48.408,49.047,74,61.11,21.76,10.19,45.293,8.895,64.972-13.77a97.516,97.516,0,0,0,10.286-14.376c20.143-33.929,30.5-88.843,37.516-145.491,2.212-17.873,4.09-35.8,5.874-53.619,4.661-46.294,9.7-93.634,16.291-138.028,10.761-72.016,27.611-131.859,51.845-179.75,10.7-21.068,23.782-40.786,38.562-48.332,21.047-10.8,41.071-3.663,59.455-5.893,1.451-.165,2.9-.413,4.352-.689,21.9-4.406,42.165-22.362,58.718-55.244,17.622-34.975,30.917-89.366,30.025-150.173" transform="translate(-79.649 -253.581)"/><path class="d" d="M148,1159.215c13.128-43.594,28.857-82.657,46.72-116.024a217.3,217.3,0,0,1,25.3-39.216c18.229-21.123,38.277-27.76,57.861-27.181a99.869,99.869,0,0,1,16.2,1.928c22.733,4.982,45.1,16.566,66.589,34.48,21.3,17.625,41.678,42.163,63.521,63.092,24.662,23.629,49.466,49.9,75.591,62.625,22.212,10.768,46.315,9.887,66.47-12.806a97.773,97.773,0,0,0,10.559-14.541c20.667-34.342,31.261-90.55,38.5-148.41,2.295-18.259,4.269-36.683,6.148-54.721,4.923-47.2,10.4-95.452,17.587-140.727,11.713-73.448,29.668-134.448,55.412-181.54,10.7-19.471,23.52-37.509,37.73-45.193,20.286-11.016,39.728-6.885,57.528-12.034,1.4-.413,2.806-.881,4.2-1.377,21.142-7.9,40.2-29.329,55.245-64.057,16.029-36.9,27.349-90.88,25.613-149.732" transform="translate(-78.961 -260.298)"/><path class="d" d="M151.62,1186.072c12.785-42.724,28.255-80.782,45.9-112.912a221.356,221.356,0,0,1,24.864-37.784c17.836-20.682,37.254-28.724,56.434-29.908a92.253,92.253,0,0,1,15.934.386c22.408,2.688,44.579,11.941,65.983,27.54,21.2,15.339,41.618,37.343,63.022,57.254,25.328,23.546,50.537,50.783,77.208,64.194,22.652,11.319,47.326,10.85,67.969-11.98a97.26,97.26,0,0,0,10.821-14.733c21.2-34.92,31.939-92.2,39.466-151.329,2.378-18.617,4.435-37.426,6.421-55.823,5.184-48.111,11.106-97.324,18.871-143.426C657.188,702.726,676.2,640.294,703.5,594.276c10.7-17.956,23.247-34.259,36.862-42.08,19.5-11.181,38.36-10.107,55.554-18.176,1.356-.634,2.711-1.322,4.055-2.065,20.159-10.956,38.293-36.463,51.785-72.842,14.412-38.886,23.782-92.671,21.19-149.292" transform="translate(-78.277 -267.244)"/><path class="d" d="M155.25,1212.4c12.464-41.664,27.671-78.547,45.067-109.3a227.122,227.122,0,0,1,24.436-36.407c17.337-20.186,36.244-29.715,55.008-32.607a94.231,94.231,0,0,1,15.66-1.184c22.074.5,44.031,7.5,65.341,20.847,21.106,13.026,41.618,32.5,62.582,51.444,25.982,23.436,51.595,51.747,78.825,65.709,23.08,11.9,48.337,11.842,69.455-11.153a95.266,95.266,0,0,0,11.082-14.871c21.737-35.443,32.664-93.91,40.429-154.221,2.45-19,4.6-38.17,6.683-56.924,5.458-49.048,11.82-99.142,20.215-146.124,13.627-76.229,33.675-140.314,62.582-185.066,11.018-17.493,23.207-30.651,36.077-38.941,18.728-11.346,37-13.329,53.593-24.317,1.308-.854,2.6-1.79,3.9-2.754,19.438-14.655,36.358-43.252,48.313-81.655,12.819-40.841,20.31-94.3,16.778-148.851" transform="translate(-77.59 -273.909)"/><path class="d" d="M158.87,1239.059c12.14-40.7,27.089-76.505,44.246-105.972a235.667,235.667,0,0,1,24.008-34.975c16.807-19.092,34.953-31.068,53.581-35.361A104.132,104.132,0,0,1,296.1,1060c21.736-1.744,43.478,2.958,64.7,13.99,21,10.74,41.5,27.54,62.106,45.633,26.648,23.271,52.653,52.518,80.419,67.252,23.52,12.475,49.347,12.833,70.953-10.3a95.865,95.865,0,0,0,11.344-15.037c22.26-35.966,33.378-95.617,41.428-157.168,2.533-19.278,4.756-38.941,6.956-58.053,5.719-49.957,12.521-101.1,21.4-148.713,14.578-77.661,35.673-143.618,66.149-186.855,10.984-15.62,22.843-27.667,35.245-35.8,17.955-11.539,35.673-16.523,51.631-30.458,1.26-1.1,2.521-2.231,3.758-3.442,18.734-18.389,34.461-50.088,44.912-90.522,11.213-42.824,16.778-95.975,12.367-148.41" transform="translate(-76.906 -280.767)"/><path class="d" d="M162.5,1265.472c11.8-39.744,26.488-74.459,43.4-102.612,22.308-37.952,48.319-62.548,75.722-71.6a99.81,99.81,0,0,1,15.125-4.241c21.4-4.006,42.926-1.6,64.057,7.16,20.9,8.455,41.44,22.776,61.631,39.822,27.349,23.051,53.723,53.372,82.047,68.849,23.96,13.026,50.358,13.77,72.44-9.473a95.094,95.094,0,0,0,11.617-15.2c22.795-36.49,34.1-97.3,42.4-160.115,2.616-19.746,4.935-39.685,7.218-59.127,5.945-50.893,13.235-102.97,22.759-151.467,15.542-79.038,37.552-147.171,69.728-188.591,10.943-13.786,22.507-24.749,34.484-32.689,17.182-11.732,34.293-19.773,49.668-36.6,1.189-1.322,2.378-2.754,3.567-4.131,17.962-22.115,32.446-56.816,41.38-99.142a484.064,484.064,0,0,0,7.943-147.97" transform="translate(-76.219 -287.379)"/><path class="d" d="M166.13,1292.254c26.5-90.55,70.157-150.393,116.46-172.259s94.878-7.711,139.433,28.558c28,22.8,54.77,54.281,83.629,70.336s61.334,14.845,85.829-23.987c30.643-48.607,40.869-140.452,50.869-223.263,16.445-136.266,42.807-281.151,97.351-344.6,27.206-31.588,59.039-39.519,84.77-77.111,35.673-52.16,53.509-161.932,41.44-255.567" transform="translate(-75.533 -294.36)"/></g><g transform="translate(-202.559 -848.799)"><path class="d" d="M-42.292,1099.156c-4.994-68.084,34.912-125.615,75.163-136.169S113.5,974.241,153.4,988.239s84.759,18.6,118.077-20.886c42.593-50.483,52.439-156.674,96.317-204.093,34.151-36.946,78.611-25.892,113.594,1.6C501.171,780.4,518,806.553,536.9,824.776c85.769,82.6,91.56,251.432,164.416,276.6,78.837,27.294,121.644-37.486,136.532-82.321,19.026-57.531,50.881-206.857-27.04-310.625-31.666-42.152-62.915-87.088-86.2-142.6-34.876-83.083-34.638-210.14,9.953-278.806,30.56-47.058,77.493-64.28,98.255-124.614,13.948-40.55,12.046-92.835,0-135.148S800.015-48.566,777.291-75.7" transform="translate(42.717 75.7)"/><path class="d" d="M-40.807,1094.861c-3.448-69.82,36.244-130.066,77.7-142.075,40.429-11.71,81.512,9.875,121.407,25.255,39.419,15.221,83.237,22.1,116.389-13.645,42.427-45.763,54.354-146.185,98.124-192.8,34.864-36.925,78.611-30.063,114.439-6.124,20.583,13.765,38.824,38.321,58.622,56.714,83.962,78.039,90.918,240.762,162.145,265.5,76.661,26.552,119.242-34.511,134.712-78.558,19.608-55.856,49.942-199.128-23.687-301.226-30.357-42.132-60.454-87.774-83.367-142.694-33.842-80.832-34.151-202.879,7.931-270.7,29.121-46.919,74.366-66.03,95.033-125.358,14.186-40.576,13.318-91.9,2.842-134.355C830.9-8.165,811.584-43.375,789.8-72.4" transform="translate(43.039 81.488)"/><path class="d" d="M-39.309,1093.763c-1.9-71.641,37.575-134.814,80.228-148.285,40.679-12.834,82.392,8.509,122.287,25.349,38.955,16.44,81.608,25.627,114.712-6.517,42.248-41.171,56.185-136.288,99.967-182.063,35.518-37.166,78.659-34.356,115.271-13.83,21.4,11.957,41.024,35.053,61.738,53.686,82.048,73.893,90.181,230.787,159.874,255.08,74.449,25.906,116.769-31.626,132.834-74.909,20.131-54.245,49.026-192.067-20.31-292.943-29.073-42.267-58.016-88.66-80.549-143.223-32.819-78.775-33.663-196.252,5.945-263.349,27.67-46.811,71.2-67.835,91.786-126.324,14.424-40.693,14.59-91.271,5.613-133.957-9.156-43.543-26.85-80.589-47.766-111.6" transform="translate(43.349 87.241)"/><path class="d" d="M-37.8,1092.6c-.357-73.515,38.907-139.546,82.761-154.5,40.893-13.935,83.237,7.126,123.166,25.441,38.479,17.637,80.026,29.143,113.024.617,42.082-36.609,58.075-126.328,101.822-171.378,36.208-37.286,78.742-38.679,116.115-21.519,22.248,10.212,43.212,31.851,64.841,50.683,80.121,69.913,89.5,220.825,157.615,244.853,72.214,25.282,114.284-28.745,130.943-71.266,20.643-52.673,48.123-185.133-16.945-284.468-27.789-42.421-55.471-89.58-77.719-143.707-31.654-76.9-33.188-189.672,3.888-256.041,26.243-46.96,68.028-69.972,88.6-127.562,14.6-40.948,15.886-90.715,8.407-133.554a331.566,331.566,0,0,0-43.866-116" transform="translate(43.647 93.082)"/><path class="d" d="M-36.28,1091.55c1.189-75.388,40.239-144.254,85.306-160.68,41.083-14.994,84.117,5.727,124.034,25.494,38.051,18.832,78.48,32.673,111.347,7.736,41.9-32.037,59.954-116.373,103.665-160.7,36.862-37.426,78.861-43.054,116.948-29.193,23.116,8.412,45.412,28.6,67.945,47.727,78.124,66.121,88.825,210.912,155.355,234.537,69.99,24.679,111.775-25.852,129.064-67.613,21.142-51.107,47.231-178.338-13.567-276.079-26.517-42.616-53-90.581-74.913-144.214-30.6-74.891-32.712-183.151,1.867-248.716,24.828-47.09,64.889-71.988,85.4-128.782,14.816-40.985,17.182-90.084,11.189-133.137A351.541,351.541,0,0,0,827.4-62.52" transform="translate(43.934 98.817)"/><path class="d" d="M-34.76,1090.364c2.747-77.233,41.618-148.884,87.838-166.861,41.3-16.05,85,4.331,124.914,25.585,37.552,20,76.9,36.292,109.658,14.839,41.773-27.353,61.833-106.433,105.52-150.055,37.6-37.544,78.992-47.476,117.792-36.829,23.984,6.575,47.564,25.387,71.048,44.655,76.1,62.454,88.148,200.989,153.084,224.25,67.778,24.036,109.314-23,127.233-64C883.947,932.4,908.7,810.3,852.115,714.291c-25.244-42.867-50.513-91.516-72.071-144.712-29.525-72.9-32.248-176.793-.143-241.432,23.366-47.1,61.69-73.836,82.119-129.715C877.074,157.312,880.558,108.9,875.992,65.7A369.145,369.145,0,0,0,839.938-59.19" transform="translate(44.222 104.658)"/><path class="d" d="M-33.24,1089.275c4.293-79.095,42.9-153.527,90.371-173.013,41.511-17.065,85.865,2.9,125.794,25.677,37.088,21.133,75.317,39.806,107.982,21.828,41.618-22.78,63.736-96.5,107.363-139.419,38.289-37.7,79.146-51.95,118.624-44.469,24.876,4.723,49.752,22.2,74.164,41.671,73.985,58.954,87.47,191.17,150.825,214.069,65.531,23.475,106.793-20.181,125.307-60.383,22.093-48.021,45.507-165.136-6.849-259.292a1295.151,1295.151,0,0,1-69.253-145.213c-28.538-70.88-31.8-170.315-2.164-234.151,21.939-47.267,58.587-75.8,78.944-130.827,15.268-41.254,19.858-89.017,16.754-132.315A385.273,385.273,0,0,0,852.517-55.9" transform="translate(44.509 110.428)"/><path class="d" d="M-31.72,1088.151c5.85-80.932,44.234-158.118,92.9-179.169,41.737-18.057,86.8,1.467,126.674,25.768,36.624,22.279,73.724,43.33,106.293,29,41.428-18.236,65.626-86.6,109.218-128.841,38.99-37.78,79.313-56.492,119.468-52.091,25.756,2.815,51.9,19.048,77.291,38.652,71.8,55.5,86.8,181.23,148.566,203.767,63.307,22.775,104.284-17.3,123.428-56.77,22.593-46.482,44.7-158.752-3.472-250.923a1586.253,1586.253,0,0,1-66.423-145.729c-27.42-68.88-31.356-164-4.185-226.86,20.512-47.434,55.448-77.721,75.734-131.894,14.6-39.5,21.427-85.624,19.525-131.914-1.843-47.572-11.76-93.162-28.241-133.737" transform="translate(44.797 116.234)"/><path class="d" d="M-30.2,1087.1c7.372-82.787,45.566-162.7,95.437-185.354,41.951-19.028,87.613,0,127.554,25.84,36.16,23.365,72.166,46.828,104.64,36.037,41.238-13.7,67.529-76.668,111.061-118.21,39.692-37.879,79.491-61.065,120.3-59.7,26.66.891,54.068,15.84,80.371,35.641,69.61,52.274,86.114,171.375,146.259,193.531,61.084,22.177,101.775-14.474,121.561-53.145,23-44.987,43.937-152.465-.119-242.6-21.4-43.878-43.093-94.251-63.593-146.208-26.374-66.886-30.916-157.771-6.207-219.609,19.026-47.66,52.32-79.658,72.535-133,14.865-39.356,22.613-85.005,22.319-131.5-.469-48.866-8.881-96.607-24.341-138.149" transform="translate(45.084 121.969)"/><path class="d" d="M-28.68,1085.928c8.942-84.613,46.91-167.227,97.97-191.417,42.177-20,88.493-1.444,128.422,25.93,35.673,24.446,70.573,50.3,102.928,43.078,41.071-9.177,69.431-66.792,112.964-107.655,40.429-37.975,79.669-65.685,121.145-67.247,27.551-1.068,56.2,12.817,83.474,32.694,67.386,49.11,85.424,161.532,144.023,183.328,58.86,21.539,99.242-11.65,119.682-49.565,23.437-43.513,43.235-146.5,3.258-234.258-20.215-44.324-40.643-95.135-60.775-146.7-25.328-64.854-30.548-151.6-8.228-212.362,17.61-47.924,49.181-81.547,69.3-134.059,15.144-39.272,23.8-84.486,25.1-131.092C911.746,46.846,904.662-2.484,890.11-46" transform="translate(45.371 127.792)"/><path class="d" d="M-27.16,1084.892c10.488-86.458,48.253-171.751,100.5-197.574,42.4-20.923,89.384-2.9,129.314,26,35.257,25.526,68.967,53.8,101.251,50.1,40.881-4.662,71.346-56.9,114.76-97.107,41.107-38.053,79.836-70.336,121.989-74.841,28.431-3.043,58.325,9.76,86.566,29.636C692.373,867.166,711.982,972.848,769,994.285c56.625,20.923,96.7-8.871,117.792-45.976,23.877-41.984,42.593-140.653,6.623-225.945-18.907-44.869-38.17-96.04-57.945-147.192-24.293-62.868-30.191-145.513-10.25-205.141,16.136-48.228,46.054-83.455,66.078-135.14a432.247,432.247,0,0,0,27.884-130.675C922,53.63,916.277,2.74,902.653-42.74" transform="translate(45.659 133.51)"/><path class="d" d="M-25.64,1083.646c12.046-88.213,49.6-176.228,103.023-203.62,42.629-21.866,90.264-4.4,130.206,26.089,34.793,26.562,67.4,57.229,99.551,57.111,40.7-.178,73.248-47.047,116.615-86.594,41.82-38.127,79.99-74.991,122.822-82.372,29.335-5.052,60.465,6.729,89.681,26.74,62.879,43.081,84.069,141.93,139.5,162.986,54.413,20.306,94.153-6.058,115.913-42.37,24.293-40.515,42.046-134.944,10-217.651-17.61-45.389-35.673-96.915-55.126-147.672-23.259-60.841-29.87-139.483-12.272-197.916,14.638-48.566,42.926-85.351,62.868-136.167a470.567,470.567,0,0,0,30.667-130.247c4.471-51.408.094-103.867-12.628-151.323" transform="translate(45.946 139.438)"/><path class="d" d="M-24.12,1082.644C-10.529,992.515,26.833,901.953,81.448,872.9c42.807-22.769,91.168-5.914,131.086,26.179,34.341,27.6,65.816,60.677,97.874,64.087,40.524,4.317,75.151-37.179,118.458-76.073,42.534-38.2,80.157-79.74,123.666-89.932,30.215-7.077,62.57,3.745,92.749,23.794,60.584,40.176,83.367,132.355,137.233,152.856,52.166,19.871,91.56-3.312,114.046-38.8,24.7-39.071,41.618-129.417,13.354-209.394-16.255-46.089-33.295-97.8-52.32-148.164C835.358,518.63,828,443.936,843.325,386.748c13.08-48.948,39.8-87.231,59.645-137.263,16.647-41.989,28.384-86.029,33.461-129.871,6.133-52.227,3.1-106.275-8.728-155.734" transform="translate(46.234 145.121)"/><path class="d" d="M-22.6,1081.423C-7.463,989.489,29.72,896.335,85.5,865.677c43.093-23.628,92.06-7.423,131.99,26.247,33.9,28.629,64.211,64.131,96.186,71.082,40.346,8.762,77.065-27.35,120.313-65.608s80.3-84.452,124.5-97.447c31.095-9.117,64.687.827,95.889,20.832,58.266,37.411,82.69,122.611,134.986,142.754,49.942,19.237,89.027-.571,112.155-35.226,25.1-37.647,41.214-124.048,16.731-201.116-14.9-46.823-30.833-98.668-49.5-148.642-21.214-56.826-29.359-127.632-16.314-183.513,11.534-49.383,36.684-89.118,56.435-138.344,16.956-42.078,29.858-85.5,36.232-129.444A458.227,458.227,0,0,0,940.282-32.77" transform="translate(46.521 150.997)"/><path class="d" d="M-21.07,1080.316C-4.339,986.559,32.582,890.815,89.6,858.481c43.331-24.545,92.963-8.949,132.846,26.336,33.473,29.62,62.653,67.54,94.509,78.023,40.168,13.217,78.968-17.5,122.156-55.07,44-38.313,80.43-89.194,125.343-104.929,31.963-11.211,66.78-2.065,98.992,17.878,55.971,34.635,82.048,112.875,132.715,132.661,47.706,18.606,86.471,2.144,110.277-31.686,25.506-36.209,40.976-118.755,20.1-192.864-13.413-47.6-28.36-99.52-46.648-149.122-20.215-54.8-29.192-121.784-18.324-176.343,9.905-49.819,33.556-90.984,53.212-139.387,17.135-42.188,31.345-84.966,39.014-129.042a464.724,464.724,0,0,0-.9-164.4" transform="translate(46.81 156.785)"/><path class="d" d="M-19.55,1079.28C-1.321,983.721,35.458,885.412,93.6,851.385c43.568-25.422,93.938-10.491,133.726,26.424,33.033,30.589,61.072,70.962,92.821,84.97,39.989,17.681,80.858-7.7,124.011-44.734,44.686-38.369,80.549-93.948,126.175-112.415,32.831-13.281,68.872-4.872,102.108,14.931,53.64,32,81.322,103.162,130.444,122.592,45.483,18,83.891,4.853,108.4-28.114,25.9-34.813,40.869-113.633,23.473-184.674-11.891-48.448-25.922-100.372-43.83-149.586-19.192-52.789-29.073-115.913-20.345-169.193,8.24-50.294,30.441-92.868,49.942-140.451,17.385-42.3,32.855-84.478,41.808-128.623A470.434,470.434,0,0,0,965.318-26.21" transform="translate(47.098 162.503)"/><path class="d" d="M-18,1078.129c19.739-97.352,56.339-198.2,115.651-233.872,43.806-26.315,94.795-12.068,134.606,26.472,32.617,31.574,59.455,74.373,91.144,91.9,39.811,22.057,82.809,2.1,125.854-34.321,45.412-38.383,80.668-98.706,127.019-119.86,33.675-15.385,70.941-7.633,105.211,11.99,51.3,29.435,80.644,93.466,128.185,112.54,43.247,17.367,81.31,7.516,106.519-24.569,26.279-33.458,40.881-108.556,26.826-176.434C932.8,682.62,919.53,630.735,902.027,581.893,883.833,531.127,873,471.727,879.648,419.843c6.5-50.766,27.349-94.7,46.779-141.485,17.622-42.406,34.365-83.851,44.579-128.219,12.816-55.214,15.22-115.531,6.9-173.039" transform="translate(47.391 168.309)"/><path class="d" d="M-16.51,1076.97C4.822,977.812,41.244,874.44,101.71,837.16c44-27.166,95.722-13.622,135.485,26.559,32.189,32.536,57.933,77.637,89.456,98.805,39.68,26.323,84.735,11.858,127.709-23.932,46.137-38.437,80.763-103.49,127.852-127.4,34.484-17.484,73.01-10.29,108.315,9.075,48.967,26.852,80,83.615,125.925,102.51,41.048,16.6,78.73,10.173,104.64-21.031,26.66-32.105,41.06-103.509,30.2-168.249a911.8,911.8,0,0,0-38.17-150.55c-17.194-48.727-29.038-104.352-24.4-154.843,4.756-51.235,24.21-96.551,43.557-142.534,17.836-42.493,35.887-83.262,47.373-127.814,14.487-55.909,18.254-117.784,10.8-177.324" transform="translate(47.673 174.149)"/><path class="d" d="M-15,1075.864C7.89,974.883,44.134,869.027,105.765,830.009c44.294-28.016,96.662-15.192,136.365,26.645,31.784,33.478,56.363,81.051,87.779,105.718,39.5,30.757,86.649,21.633,129.611-13.567,46.862-38.45,80.858-108.244,128.7-134.733,35.352-19.578,75.056-12.882,111.418,6.128,46.613,24.394,79.313,73.984,123.666,92.524,38.824,15.995,76.1,12.784,102.762-17.5,27.04-30.776,41.392-98.416,33.568-160.086-6.953-53.047-18.875-103.99-35.34-151-16.207-46.712-29.1-98.553-26.422-147.81,2.806-51.665,21.106-98.377,40.346-143.582,18.122-42.581,37.409-82.637,50.156-127.391,16.149-56.6,21.282-120.034,14.7-181.621" transform="translate(47.958 179.937)"/><path class="d" d="M-13.47,1074.81c24.424-102.762,60.5-211.195,123.285-251.772,44.543-28.844,97.6-16.778,137.245,26.712,31.38,34.417,54.782,84.458,86.09,112.579,39.335,35.2,88.611,31.5,131.407-3.246,47.635-38.308,80.93-113.009,129.528-142.146,36.184-21.706,77.1-15.351,114.534,3.227,44.246,21.96,78.635,64.414,121.395,82.522,36.589,15.39,73.534,15.39,100.871-13.982s41.856-93.219,36.945-151.9c-4.364-52.095-16.243-103.642-32.522-151.493-15.232-44.684-29.216-92.672-28.443-140.7.844-52.075,18.05-100.161,37.123-144.708,18.431-42.611,38.943-82.131,52.938-126.991,17.822-57.273,24.327-122.265,18.609-185.91" transform="translate(48.248 185.673)"/><path class="d" d="M-11.95,1073.689C14.02,969.1,49.966,858.429,113.868,815.869c44.817-29.571,98.552-18.379,138.125,26.8,30.916,35.352,53.212,87.893,84.426,119.417,39.157,39.571,90.514,41.173,133.25,7.071,48.349-38.36,80.989-117.757,130.372-149.535,37-23.809,79.111-17.676,117.625.332,41.939,19.532,77.957,54.689,119.135,72.561,34.377,14.785,70.941,17.95,99-10.469C963.6,853.9,978.245,794.15,976.1,738.27c-2.022-52.853-13.841-104.495-29.727-151.938-14.269-42.677-29.383-86.741-30.465-133.636-1.189-52.384,14.923-101.995,33.913-145.648,18.669-42.736,40.429-81.389,55.721-126.566,19.492-57.914,27.377-124.446,22.533-190.142" transform="translate(48.535 191.531)"/><path class="d" d="M-10.43,1072.5C17.1,966.18,52.842,852.935,117.921,808.866c45.055-30.491,99.515-19.976,139.005,26.882,30.583,36.266,51.63,91.2,82.749,126.2,38.99,43.952,92.417,50.819,135.105,17.362,49.05-38.451,81.049-122.511,131.2-156.9,37.825-25.946,81.132-19.879,120.741-2.595s77.291,45.2,116.864,62.64c32.106,14.163,68.349,20.5,97.125-6.964,28.17-26.882,43.152-82.188,43.675-135.64S972.916,634.5,957.517,587.429c-13.282-40.636-29.6-80.686-32.486-126.549-3.306-52.672,11.8-103.842,30.691-146.682s42-80.744,58.5-126.159c21.143-58.567,30.388-126.646,26.4-194.4" transform="translate(48.822 197.319)"/></g></g></g></svg>