<svg xmlns="http://www.w3.org/2000/svg" width="51" height="51" viewBox="0 0 51 51"><defs><style>.a,.b{fill:#fff;}.a{opacity:0.3;}</style></defs><g transform="translate(-1838 -405)"><circle class="a" cx="25.5" cy="25.5" r="25.5" transform="translate(1838 405)"/><path class="b" d="M4.648,20.767H.343V6.9H4.648ZM2.493,5.011A2.505,2.505,0,1,1,4.987,2.494,2.514,2.514,0,0,1,2.493,5.011ZM20.762,20.767h-4.3V14.018c0-1.608-.032-3.671-2.238-3.671-2.238,0-2.581,1.748-2.581,3.555v6.865h-4.3V6.9h4.129V8.794h.06a4.524,4.524,0,0,1,4.074-2.239c4.357,0,5.158,2.869,5.158,6.6v7.616Z" transform="translate(1854 418.999)"/></g></svg>