<svg xmlns="http://www.w3.org/2000/svg" width="51" height="51" viewBox="0 0 51 51"><defs><style>.a,.b{fill:#fff;}.a{opacity:0.3;}</style></defs><circle class="a" cx="25.5" cy="25.5" r="25.5"/><path class="b" d="M25.093,50.414a10.725,10.725,0,0,1-2.964.812,5.115,5.115,0,0,0,2.263-2.843,10.281,10.281,0,0,1-3.262,1.245,5.144,5.144,0,0,0-8.9,3.518,5.3,5.3,0,0,0,.119,1.173,14.561,14.561,0,0,1-10.6-5.381,5.146,5.146,0,0,0,1.581,6.875A5.08,5.08,0,0,1,1,55.18v.056a5.168,5.168,0,0,0,4.122,5.055,5.135,5.135,0,0,1-1.349.169,4.549,4.549,0,0,1-.974-.088,5.193,5.193,0,0,0,4.807,3.584A10.336,10.336,0,0,1,1.231,66.15,9.636,9.636,0,0,1,0,66.079a14.482,14.482,0,0,0,7.892,2.309A14.541,14.541,0,0,0,22.533,53.749c0-.227-.008-.447-.019-.665A10.263,10.263,0,0,0,25.093,50.414Z" transform="translate(13 -33)"/></svg>