<svg xmlns="http://www.w3.org/2000/svg" width="51" height="51" viewBox="0 0 51 51"><defs><style>.a,.b{fill:#fff;}.a{opacity:0.3;}</style></defs><circle class="a" cx="25.5" cy="25.5" r="25.5"/><path class="b" d="M23.321,8.388a3.564,3.564,0,0,0-3.393-3.723C17.387,4.546,14.8,4.5,12.151,4.5h-.825c-2.641,0-5.236.046-7.777.165A3.572,3.572,0,0,0,.16,8.4C.046,10.03,0,11.662,0,13.295s.046,3.265.156,4.9a3.576,3.576,0,0,0,3.389,3.737c2.669.124,5.406.179,8.189.174s5.516-.046,8.189-.174A3.577,3.577,0,0,0,23.316,18.2c.11-1.637.16-3.269.156-4.906S23.431,10.025,23.321,8.388Zm-13.829,9.4V8.783l6.649,4.5Z" transform="translate(14 12.5)"/></svg>